<svg width="28" height="21" viewBox="0 0 28 21" fill="none" xmlns="http://www.w3.org/2000/svg">
<path d="M22.8 11.7C21.6667 11.9 20.7333 12.4 20 13.2C19.2 14 18.8 15.1 18.8 16.5C18.8 17.7 19.2 18.7 20 19.5C20.7333 20.3 21.7 20.7 22.9 20.7C23.9667 20.7 25.0333 20.2667 26.1 19.4C27.1667 18.4667 27.7 16.7 27.7 14.1C27.7 12.6333 27.4333 11.2 26.9 9.8C26.3667 8.33333 25.6667 7 24.8 5.8C23.8667 4.53333 22.8333 3.43333 21.7 2.5C20.5 1.5 19.2667 0.666665 18 -9.53674e-07L16 2.8C18 3.8 19.6333 5.1 20.9 6.7C22.1667 8.3 22.9667 9.93333 23.3 11.6L22.8 11.7ZM7.2 11.7C6.06667 11.9 5.13333 12.4 4.4 13.2C3.6 14 3.2 15.1 3.2 16.5C3.2 17.7 3.6 18.7 4.4 19.5C5.13333 20.3 6.1 20.7 7.3 20.7C8.36667 20.7 9.43333 20.2667 10.5 19.4C11.5667 18.4667 12.1 16.7 12.1 14.1C12.1 12.6333 11.8333 11.2 11.3 9.8C10.7667 8.33333 10.0667 7 9.2 5.8C8.26667 4.53333 7.23333 3.43333 6.1 2.5C4.9 1.5 3.66667 0.666665 2.4 -9.53674e-07L0.4 2.8C2.4 3.8 4.03333 5.1 5.3 6.7C6.56667 8.3 7.36667 9.93333 7.7 11.6L7.2 11.7Z" fill="#81184E"/>
</svg>
