<svg width="28" height="21" viewBox="0 0 28 21" fill="none" xmlns="http://www.w3.org/2000/svg">
<path d="M5.2 11.7C6.33333 11.9 7.26667 12.4 8 13.2C8.8 14 9.2 15.1 9.2 16.5C9.2 17.7 8.8 18.7 8 19.5C7.26667 20.3 6.3 20.7 5.1 20.7C4.03333 20.7 2.96667 20.2667 1.9 19.4C0.833333 18.4667 0.3 16.7 0.3 14.1C0.3 12.6333 0.566667 11.2 1.1 9.8C1.63333 8.33333 2.33333 7 3.2 5.8C4.13333 4.53333 5.16667 3.43333 6.3 2.5C7.5 1.5 8.73333 0.666665 10 -9.53674e-07L12 2.8C10 3.8 8.36667 5.1 7.1 6.7C5.83333 8.3 5.03333 9.93333 4.7 11.6L5.2 11.7ZM20.8 11.7C21.9333 11.9 22.8667 12.4 23.6 13.2C24.4 14 24.8 15.1 24.8 16.5C24.8 17.7 24.4 18.7 23.6 19.5C22.8667 20.3 21.9 20.7 20.7 20.7C19.6333 20.7 18.5667 20.2667 17.5 19.4C16.4333 18.4667 15.9 16.7 15.9 14.1C15.9 12.6333 16.1667 11.2 16.7 9.8C17.2333 8.33333 17.9333 7 18.8 5.8C19.7333 4.53333 20.7667 3.43333 21.9 2.5C23.1 1.5 24.3333 0.666665 25.6 -9.53674e-07L27.6 2.8C25.6 3.8 23.9667 5.1 22.7 6.7C21.4333 8.3 20.6333 9.93333 20.3 11.6L20.8 11.7Z" fill="#81184E"/>
</svg>
