<svg width="90" height="85" viewBox="0 0 90 85" fill="none" xmlns="http://www.w3.org/2000/svg">
<path d="M71.1194 36.9035L63.5238 24.3468L63.5196 24.3494C62.0991 21.8884 58.5627 20.7545 53.2596 21.5417C42.7769 23.0982 29.3756 31.5632 23.3268 40.4493C20.2667 44.9446 19.6783 48.6842 21.1976 51.0829L21.196 51.0838L28.7625 63.5923C30.1939 66.0335 34.4971 68.432 39.7794 67.6477C50.2619 66.0915 63.6633 57.6262 69.7122 48.7403C72.7297 44.3073 72.574 39.3305 71.1339 36.9284L71.1344 36.9283L71.1295 36.9202L71.1194 36.9035Z" fill="#263238"/>
<path d="M31.6139 19.9663L11.8314 57.2063L53.2764 55.7751L73.0589 18.5352L31.6139 19.9663Z" fill="#455A64"/>
<path d="M11.9006 57.2089L12.674 58.4877L54.1255 57.0557L53.3511 55.7775L11.9006 57.2089Z" fill="#37474F"/>
<path d="M73.0625 18.6162L73.8359 19.895L54.0524 57.1392L53.278 55.861L73.0625 18.6162Z" fill="#263238"/>
<path opacity="0.1" d="M28.9619 57.9826L55.2654 59.03L66.0754 34.5887L54.1055 57.114L28.9619 57.9826Z" fill="black"/>
<path d="M61.6014 33.3936L43.0766 33.9088C42.8819 33.9127 42.6952 33.9909 42.5536 34.128C42.412 34.2651 42.3257 34.4509 42.312 34.6487C42.2983 34.8465 42.358 35.0417 42.4795 35.1956C42.6009 35.3495 42.7752 35.4509 42.9676 35.4796C43.0154 35.4869 43.0637 35.4897 43.1121 35.4882L61.6501 34.9786" fill="#E0E0E0"/>
<path d="M70.7406 43.8176C70.5217 44.1898 70.2183 44.5036 69.8561 44.7323C69.494 44.961 69.0836 45.098 68.6599 45.1317L72.1882 54.8762C73.4641 56.985 78.8731 53.5688 77.5973 51.46L70.7406 43.8176Z" fill="#81184E"/>
<path opacity="0.15" d="M74.6888 50.1474L77.2154 53.5646C77.304 53.453 77.3859 53.336 77.4605 53.2143L74.6888 50.1474Z" fill="black"/>
<path opacity="0.15" d="M74.3547 55.4252L70.5667 47.5083L73.9277 55.5112C74.0715 55.491 74.2141 55.4623 74.3547 55.4252Z" fill="black"/>
<path opacity="0.15" d="M75.6878 54.8634C75.8037 54.7954 75.9174 54.7237 76.0289 54.6482L72.5891 49.3456L75.6878 54.8634Z" fill="black"/>
<path d="M69.568 44.3537C69.4804 44.409 69.383 44.4463 69.2816 44.4634C69.1801 44.4806 69.0764 44.4773 68.9765 44.4536C68.8766 44.43 68.7824 44.3866 68.6993 44.3258C68.6162 44.265 68.5458 44.1881 68.4922 44.0994L63.7196 36.1464C63.5035 35.7903 63.1984 35.4992 62.8351 35.3027C62.4718 35.1062 62.0631 35.0111 61.6505 35.0271L61.6015 33.4368C62.29 33.4103 62.9717 33.569 63.5779 33.8969C64.184 34.2248 64.6931 34.7104 65.0536 35.3044L69.826 43.2574C69.9344 43.4364 69.9682 43.6525 69.9198 43.8581C69.8714 44.0637 69.7448 44.242 69.568 44.3537Z" fill="#E0E0E0"/>
<path d="M67.703 44.6077C67.526 44.3152 67.4387 43.9752 67.452 43.6307C67.4652 43.2862 67.5785 42.9526 67.7775 42.6722C67.9766 42.3918 68.2523 42.1771 68.57 42.0553C68.8877 41.9334 69.233 41.91 69.5622 41.9878C69.8914 42.0657 70.1899 42.2414 70.4197 42.4926C70.6496 42.7439 70.8005 43.0595 70.8535 43.3995C70.9065 43.7395 70.8591 44.0887 70.7173 44.4028C70.5756 44.717 70.3458 44.982 70.0571 45.1643C69.8654 45.2854 69.6525 45.3671 69.4305 45.4047C69.2084 45.4422 68.9816 45.435 68.763 45.3833C68.5444 45.3316 68.3383 45.2365 68.1564 45.1034C67.9745 44.9703 67.8204 44.8019 67.703 44.6077Z" fill="#81184E"/>
<path opacity="0.15" d="M70.664 42.8523C70.6947 43.0436 70.6848 43.2398 70.6349 43.4276C70.5849 43.6153 70.4962 43.7903 70.3745 43.9408C70.2529 44.0913 70.1012 44.2138 69.9297 44.3001C69.7582 44.3864 69.5708 44.4344 69.3802 44.4409C69.135 44.4484 68.8926 44.3912 68.6765 44.2748C68.4605 44.1585 68.2781 43.987 68.1471 43.777C68.0162 43.5669 67.9411 43.3256 67.9292 43.0763C67.9174 42.8271 67.9691 42.5785 68.0793 42.3546C67.8287 42.5656 67.6417 42.8443 67.54 43.1582C67.4383 43.4721 67.4262 43.8083 67.5051 44.1275C67.584 44.4467 67.7506 44.7358 67.9855 44.961C68.2204 45.1862 68.5139 45.3383 68.8317 45.3995C69.1496 45.4607 69.4787 45.4285 69.7806 45.3066C70.0825 45.1847 70.3448 44.9782 70.5369 44.7112C70.729 44.4441 70.843 44.1276 70.8655 43.7984C70.888 43.4693 70.8181 43.1411 70.664 42.8523Z" fill="black"/>
</svg>
