<svg width="20" height="20" viewBox="0 0 20 20" fill="none" xmlns="http://www.w3.org/2000/svg">
<path d="M15.7318 3.75C16.9401 3.75 17.9193 4.72917 17.9193 5.9375V14.0625C17.9193 15.2708 16.9401 16.25 15.7318 16.25H4.27344C3.69328 16.25 3.13688 16.0195 2.72664 15.6093C2.31641 15.1991 2.08594 14.6427 2.08594 14.0625V5.9375C2.08594 4.72917 3.0651 3.75 4.27344 3.75H15.7318ZM16.8776 7.64625L10.2534 11.2896C10.1853 11.3271 10.1096 11.3488 10.0319 11.3532C9.95429 11.3576 9.87664 11.3445 9.80469 11.315L9.75177 11.29L3.1276 7.64583V14.0625C3.1276 14.3664 3.24833 14.6578 3.46321 14.8727C3.6781 15.0876 3.96954 15.2083 4.27344 15.2083H15.7318C16.0357 15.2083 16.3271 15.0876 16.542 14.8727C16.7569 14.6578 16.8776 14.3664 16.8776 14.0625V7.64625ZM15.7318 4.79167H4.27344C3.96954 4.79167 3.6781 4.91239 3.46321 5.12727C3.24833 5.34216 3.1276 5.63361 3.1276 5.9375V6.45792L10.0026 10.2387L16.8776 6.4575V5.9375C16.8776 5.63361 16.7569 5.34216 16.542 5.12727C16.3271 4.91239 16.0357 4.79167 15.7318 4.79167Z" fill="#6E92C9"/>
</svg>
