<svg width="180" height="193" viewBox="0 0 180 193" fill="none" xmlns="http://www.w3.org/2000/svg">
<path d="M0.56627 182.781C0.4722 182.502 0.454434 182.202 0.514879 181.914C0.575325 181.626 0.711698 181.36 0.909336 181.144L18.9275 161.636C19.1631 161.383 19.4724 161.214 19.8095 161.154C20.1466 161.095 20.4935 161.148 20.7988 161.305C21.1041 161.463 21.3515 161.716 21.5043 162.028C21.6571 162.34 21.7071 162.694 21.647 163.038L20.4199 169.833L28.025 172.94C28.3195 173.056 28.5727 173.26 28.7514 173.526C28.93 173.791 29.0258 174.105 29.0261 174.427C29.0256 174.645 28.9846 174.86 28.9052 175.062C28.8284 175.258 28.7141 175.437 28.5691 175.588C28.4241 175.738 28.2511 175.858 28.0603 175.94L23.1307 178.092L25.6157 185.253C25.75 185.623 25.7428 186.03 25.5954 186.395C25.533 186.553 25.4465 186.699 25.3392 186.829C25.1628 187.043 24.9356 187.208 24.6791 187.307C24.4226 187.406 24.1454 187.437 23.8741 187.396L1.8138 183.859C1.52862 183.814 1.26116 183.689 1.04099 183.499C0.820818 183.309 0.656521 183.061 0.56627 182.781ZM20.323 162.264C20.2222 162.205 20.1047 162.184 19.9903 162.204C19.8759 162.223 19.7717 162.283 19.6952 162.372L3.182 180.267L19.3318 169.84L20.6083 162.847C20.6315 162.731 20.6161 162.611 20.5644 162.505C20.5126 162.399 20.4277 162.314 20.323 162.264ZM27.6399 174.938C27.7362 174.899 27.8185 174.83 27.876 174.742C27.9336 174.654 27.9638 174.55 27.9627 174.444C27.9623 174.336 27.9305 174.231 27.8714 174.142C27.8122 174.053 27.7284 173.984 27.6306 173.944L20.7023 171.114L22.7743 177.072L27.6399 174.938ZM1.98916 182.794L24.0372 186.326C24.1283 186.342 24.2218 186.332 24.308 186.298C24.3942 186.264 24.4698 186.207 24.5271 186.133C24.5875 186.064 24.6278 185.979 24.6435 185.888C24.6592 185.796 24.6497 185.702 24.616 185.616L19.5379 170.987L1.61264 182.553C1.65518 182.618 1.71071 182.673 1.7756 182.715C1.84049 182.756 1.91327 182.783 1.98916 182.794Z" fill="#DFDFDF"/>
<path d="M30.0253 172.382C70.0266 158.293 142.874 145.933 139.578 124.644C135.783 100.131 7.10589 123.879 6.89323 78.6591C6.78074 54.7417 87.7203 51.908 168.645 46.0078C175.5 44.5003 204.5 23.5 110 1" stroke="#DFDFDF" stroke-width="2" stroke-dasharray="9 9"/>
</svg>
