<svg width="525" height="238" viewBox="0 0 525 238" fill="none" xmlns="http://www.w3.org/2000/svg">
<path d="M497.008 23.5627C401.804 102.818 387.549 102.56 222.861 98.3649C100.855 95.2568 27.485 183.582 0.583984 238L525.499 238V0.697632C516.361 7.70092 506.839 15.3784 497.008 23.5627Z" fill="#95BAF3"/>
<path d="M504.171 48.6955C408.967 127.951 395.729 126.305 231.04 122.109C133.397 119.622 65.2071 186.841 27.877 243L527.999 243L528 30.1053C520.325 35.6619 512.37 41.8701 504.171 48.6955Z" fill="#95BAF3"/>
<path d="M231.04 122.109L231.002 123.609L231.04 122.109ZM504.171 48.6955L503.212 47.5427L504.171 48.6955ZM27.877 243L26.6278 242.17L25.0787 244.5H27.877L27.877 243ZM527.999 243V244.5H529.499V243H527.999ZM528 30.1053L529.5 30.1053V27.1674L527.12 28.8904L528 30.1053ZM231.002 123.609C313.238 125.704 357.981 127.185 394.027 118.151C430.192 109.088 457.539 89.468 505.131 49.8484L503.212 47.5427C455.6 87.1785 428.725 106.363 393.298 115.241C357.752 124.15 313.532 122.71 231.078 120.61L231.002 123.609ZM29.1261 243.83C66.3491 187.833 134.13 121.141 231.002 123.609L231.078 120.61C132.664 118.102 64.065 185.849 26.6278 242.17L29.1261 243.83ZM27.877 244.5L527.999 244.5V241.5L27.877 241.5L27.877 244.5ZM505.131 49.8484C513.307 43.0417 521.235 36.8546 528.879 31.3203L527.12 28.8904C519.415 34.4691 511.433 40.6984 503.212 47.5427L505.131 49.8484ZM529.499 243L529.5 30.1053L526.5 30.1053L526.499 243H529.499Z" fill="white"/>
</svg>
