<svg width="20" height="20" viewBox="0 0 20 20" fill="none" xmlns="http://www.w3.org/2000/svg">
<path d="M17.9375 13.6562C17.8065 14.6746 17.3093 15.6106 16.5387 16.2892C15.7681 16.9678 14.7768 17.3426 13.75 17.3437C7.63281 17.3437 2.65625 12.3672 2.65625 6.24997C2.65735 5.22317 3.03222 4.23188 3.71081 3.46127C4.38941 2.69066 5.32533 2.19343 6.34375 2.06247C6.57809 2.03504 6.81503 2.08412 7.01919 2.20239C7.22334 2.32067 7.38379 2.50179 7.47656 2.71872L9.04688 6.38278C9.11811 6.54857 9.14752 6.72931 9.13254 6.90913C9.11756 7.08894 9.05863 7.26233 8.96094 7.41403L7.65625 9.39841C7.64336 9.42079 7.63593 9.4459 7.63457 9.47169C7.63321 9.49749 7.63796 9.52324 7.64844 9.54685C8.24854 10.7773 9.2445 11.7705 10.4766 12.3672C10.5005 12.3779 10.5268 12.3821 10.5529 12.3794C10.579 12.3766 10.6038 12.367 10.625 12.3515L12.5859 11.0468C12.7362 10.9459 12.9093 10.8844 13.0896 10.8681C13.2698 10.8517 13.4512 10.8809 13.6172 10.9531L17.2813 12.5234C17.4982 12.6162 17.6793 12.7766 17.7976 12.9808C17.9159 13.1849 17.9649 13.4219 17.9375 13.6562ZM17.0078 13.539C17.0105 13.5065 17.0029 13.4739 16.9861 13.4458C16.9693 13.4178 16.9441 13.3957 16.9141 13.3828L13.25 11.8125C13.2258 11.8032 13.1997 11.7997 13.1739 11.8024C13.1481 11.8051 13.1233 11.8139 13.1016 11.8281L11.1484 13.1328C10.9903 13.2367 10.8082 13.2984 10.6195 13.312C10.4308 13.3257 10.2418 13.2909 10.0703 13.2109C8.64924 12.5191 7.4999 11.3725 6.80469 9.9531C6.7235 9.78367 6.68732 9.5962 6.69963 9.40873C6.71195 9.22126 6.77234 9.04013 6.875 8.88278L8.17188 6.89841C8.18736 6.87725 8.19696 6.85237 8.1997 6.8263C8.20245 6.80022 8.19824 6.77389 8.1875 6.74997L6.61719 3.08591C6.60521 3.05844 6.58558 3.035 6.56064 3.01838C6.53571 3.00176 6.50652 2.99266 6.47656 2.99216H6.46094C5.66966 3.09617 4.94298 3.48367 4.41572 4.08278C3.88845 4.68188 3.5964 5.4519 3.59375 6.24997C3.59582 8.94294 4.66651 11.525 6.57073 13.4292C8.47495 15.3335 11.057 16.4041 13.75 16.4062C14.5481 16.4036 15.3181 16.1115 15.9172 15.5843C16.5163 15.057 16.9038 14.3303 17.0078 13.539Z" fill="#EBEBEB"/>
</svg>
