<svg width="20" height="20" viewBox="0 0 20 20" fill="none" xmlns="http://www.w3.org/2000/svg">
<path d="M15.7298 3.75C16.9382 3.75 17.9173 4.72917 17.9173 5.9375V14.0625C17.9173 15.2708 16.9382 16.25 15.7298 16.25H4.27148C3.69132 16.25 3.13492 16.0195 2.72469 15.6093C2.31445 15.1991 2.08398 14.6427 2.08398 14.0625V5.9375C2.08398 4.72917 3.06315 3.75 4.27148 3.75H15.7298ZM16.8757 7.64625L10.2515 11.2896C10.1833 11.3271 10.1076 11.3488 10.03 11.3532C9.95234 11.3576 9.87469 11.3445 9.80274 11.315L9.74982 11.29L3.12565 7.64583V14.0625C3.12565 14.3664 3.24637 14.6578 3.46126 14.8727C3.67614 15.0876 3.96759 15.2083 4.27148 15.2083H15.7298C16.0337 15.2083 16.3252 15.0876 16.54 14.8727C16.7549 14.6578 16.8757 14.3664 16.8757 14.0625V7.64625ZM15.7298 4.79167H4.27148C3.96759 4.79167 3.67614 4.91239 3.46126 5.12727C3.24637 5.34216 3.12565 5.63361 3.12565 5.9375V6.45792L10.0007 10.2387L16.8757 6.4575V5.9375C16.8757 5.63361 16.7549 5.34216 16.54 5.12727C16.3252 4.91239 16.0337 4.79167 15.7298 4.79167Z" fill="#EBEBEB"/>
</svg>
