<svg width="20" height="20" viewBox="0 0 20 20" fill="none" xmlns="http://www.w3.org/2000/svg">
<path d="M17.9375 13.6563C17.8065 14.6748 17.3093 15.6107 16.5387 16.2893C15.7681 16.9679 14.7768 17.3427 13.75 17.3438C7.63281 17.3438 2.65625 12.3673 2.65625 6.25009C2.65735 5.22329 3.03222 4.232 3.71081 3.46139C4.38941 2.69078 5.32533 2.19356 6.34375 2.0626C6.57809 2.03516 6.81503 2.08424 7.01919 2.20252C7.22334 2.32079 7.38379 2.50191 7.47656 2.71884L9.04688 6.38291C9.11811 6.54869 9.14752 6.72943 9.13254 6.90925C9.11755 7.08907 9.05863 7.26245 8.96094 7.41416L7.65625 9.39853C7.64336 9.42091 7.63593 9.44602 7.63457 9.47181C7.63321 9.49761 7.63796 9.52336 7.64844 9.54697C8.24854 10.7774 9.2445 11.7706 10.4766 12.3673C10.5005 12.378 10.5268 12.3822 10.5529 12.3795C10.579 12.3767 10.6038 12.3671 10.625 12.3517L12.5859 11.047C12.7362 10.946 12.9093 10.8846 13.0896 10.8682C13.2698 10.8518 13.4512 10.881 13.6172 10.9532L17.2813 12.5235C17.4982 12.6163 17.6793 12.7767 17.7976 12.9809C17.9159 13.1851 17.9649 13.422 17.9375 13.6563ZM17.0078 13.5392C17.0105 13.5066 17.0029 13.474 16.9861 13.4459C16.9693 13.4179 16.9441 13.3959 16.9141 13.3829L13.25 11.8126C13.2258 11.8033 13.1997 11.7998 13.1739 11.8025C13.1481 11.8053 13.1233 11.8141 13.1016 11.8282L11.1484 13.1329C10.9903 13.2368 10.8082 13.2985 10.6195 13.3122C10.4308 13.3258 10.2418 13.291 10.0703 13.211C8.64924 12.5192 7.4999 11.3726 6.80469 9.95322C6.7235 9.7838 6.68732 9.59632 6.69963 9.40885C6.71195 9.22138 6.77234 9.04025 6.875 8.88291L8.17188 6.89853C8.18736 6.87737 8.19696 6.85249 8.1997 6.82642C8.20245 6.80035 8.19824 6.77401 8.1875 6.75009L6.61719 3.08603C6.60521 3.05857 6.58558 3.03513 6.56064 3.0185C6.53571 3.00188 6.50652 2.99278 6.47656 2.99228H6.46094C5.66966 3.09629 4.94298 3.4838 4.41572 4.0829C3.88845 4.682 3.5964 5.45202 3.59375 6.25009C3.59582 8.94306 4.66651 11.5251 6.57073 13.4294C8.47495 15.3336 11.057 16.4043 13.75 16.4063C14.5481 16.4037 15.3181 16.1116 15.9172 15.5844C16.5163 15.0571 16.9038 14.3304 17.0078 13.5392Z" fill="#6E92C9"/>
</svg>
