<svg width="49" height="50" viewBox="0 0 49 50" fill="none" xmlns="http://www.w3.org/2000/svg">
<g clip-path="url(#clip0_124_871)">
<path d="M24.5 0.0618896C10.9689 0.0618896 0 11.0308 0 24.5619C0 38.093 10.9689 49.0619 24.5 49.0619C38.0311 49.0619 49 38.093 49 24.5619C49 11.0308 38.0311 0.0618896 24.5 0.0618896Z" fill="#40B3E0"/>
<path d="M36.4213 14.1551L32.0452 36.2183C32.0452 36.2183 31.4333 37.7484 29.7502 37.014L19.652 29.272L15.9801 27.4973L9.79883 25.4163C9.79883 25.4163 8.85022 25.0798 8.75834 24.3454C8.66647 23.611 9.82945 23.2132 9.82945 23.2132L34.4014 13.574C34.4014 13.574 36.4211 12.6866 36.4211 14.1555" fill="white"/>
<path d="M18.8761 35.9703C18.8761 35.9703 18.5813 35.9427 18.2138 34.7797C17.8469 33.6169 15.9801 27.4969 15.9801 27.4969L30.8214 18.072C30.8214 18.072 31.6783 17.5518 31.6477 18.072C31.6477 18.072 31.8006 18.1639 31.3414 18.5923C30.8826 19.0208 19.6829 29.0882 19.6829 29.0882" fill="#D2E5F1"/>
<path d="M23.524 32.2401L19.5299 35.8818C19.5299 35.8818 19.2176 36.1188 18.8761 35.9702L19.641 29.2059" fill="#B5CFE4"/>
</g>
<defs>
<clipPath id="clip0_124_871">
<rect width="49" height="49" fill="white" transform="translate(0 0.0618896)"/>
</clipPath>
</defs>
</svg>
