<svg width="50" height="50" viewBox="0 0 50 50" fill="none" xmlns="http://www.w3.org/2000/svg">
<circle cx="24.531" cy="24.531" r="24.531" fill="#7465D8"/>
<path d="M34.4826 12.9298C33.8105 12.2714 31.0901 10.1725 25.0248 10.1444C25.0248 10.1444 17.8745 9.68862 14.392 13.0874C12.4549 15.1469 11.7722 18.1686 11.6981 21.9106C11.624 25.6526 11.534 32.6639 17.8904 34.5658H17.8957L17.8904 37.4694C17.8904 37.4694 17.8481 38.6455 18.5784 38.8818C19.457 39.1744 19.9757 38.2797 20.8172 37.3175C21.2776 36.7885 21.9128 36.012 22.3944 35.4212C26.7449 35.8094 30.0845 34.9203 30.4656 34.7909C31.3441 34.4871 36.3139 33.8118 37.1184 26.8005C37.9546 19.5641 36.7161 14.9949 34.4826 12.9298ZM35.2183 26.2716C34.5356 32.1237 30.5079 32.4951 29.767 32.7483C29.4494 32.8552 26.512 33.6318 22.8231 33.3785C22.8231 33.3785 20.0709 36.9067 19.2135 37.8239C18.933 38.1221 18.6261 38.094 18.6314 37.5032C18.6314 37.1149 18.6525 32.6808 18.6525 32.6808C18.6472 32.6808 18.6472 32.6808 18.6525 32.6808C13.2647 31.0939 13.5822 25.1236 13.6404 22.0006C13.6987 18.8776 14.2544 16.3173 15.8951 14.5954C18.8431 11.7537 24.9137 12.1758 24.9137 12.1758C30.0422 12.1983 32.4979 13.8414 33.0695 14.3928C34.959 16.1147 35.9222 20.2337 35.2183 26.2716ZM27.8616 21.7249C27.8828 22.2088 27.2 22.2426 27.1789 21.7587C27.1207 20.5207 26.5755 19.9186 25.4535 19.8511C24.9983 19.823 25.0407 19.0971 25.4905 19.1252C26.9672 19.2096 27.7875 20.1099 27.8616 21.7249ZM28.936 22.3608C28.9889 19.9749 27.5864 18.1067 24.9242 17.8985C24.4744 17.8647 24.522 17.1388 24.9719 17.1726C28.0416 17.4089 29.677 19.6541 29.6188 22.3776C29.6135 22.8616 28.9254 22.8391 28.936 22.3608ZM31.4235 23.1148C31.4288 23.5987 30.7408 23.6043 30.7408 23.1204C30.709 18.5344 27.8352 16.0359 24.3473 16.0078C23.8975 16.0022 23.8975 15.2819 24.3473 15.2819C28.248 15.31 31.3865 18.1742 31.4235 23.1148ZM30.8255 28.6349V28.6462C30.2539 29.7153 29.1848 30.897 28.0839 30.52L28.0733 30.5031C26.9566 30.1711 24.3262 28.7306 22.6643 27.3238C21.8069 26.6036 21.0236 25.7539 20.4202 24.9379C19.8751 24.2121 19.3247 23.3511 18.7901 22.3157C17.6628 20.1493 17.4141 19.1815 17.4141 19.1815C17.0595 18.011 18.1656 16.8744 19.1765 16.2666H19.1871C19.674 15.9966 20.1397 16.0866 20.452 16.4861C20.452 16.4861 21.1083 17.3189 21.3888 17.7297C21.6534 18.1123 22.008 18.7257 22.1933 19.0689C22.5161 19.6823 22.315 20.3069 21.9974 20.5657L21.3623 21.1059C21.0395 21.3816 21.0818 21.8937 21.0818 21.8937C21.0818 21.8937 22.0239 25.6807 25.5435 26.6373C25.5435 26.6373 26.0251 26.6823 26.2844 26.3391L26.7925 25.6638C27.036 25.3262 27.6235 25.1124 28.2003 25.4556C28.9784 25.9227 29.9681 26.6486 30.6244 27.3069C30.9948 27.6277 31.0795 28.1172 30.8255 28.6349Z" fill="white"/>
</svg>
