<svg width="75" height="75" viewBox="0 0 75 75" fill="none" xmlns="http://www.w3.org/2000/svg">
<circle cx="37.5" cy="37.5" r="37.5" fill="#5E85C1"/>
<path d="M27.4563 22.6284C26.6988 21.8245 25.433 21.7869 24.6291 22.5444C23.8252 23.3019 23.7876 24.5677 24.5451 25.3716L27.4563 22.6284ZM48.5235 50.8189C49.281 51.6229 50.5468 51.6605 51.3507 50.903C52.1546 50.1455 52.1922 48.8797 51.4347 48.0758L48.5235 50.8189ZM51.465 25.5375C52.217 24.7284 52.1706 23.463 51.3615 22.711C50.5524 21.9591 49.2869 22.0054 48.535 22.8145L51.465 25.5375ZM24.535 48.6385C23.783 49.4476 23.8294 50.7131 24.6385 51.465C25.4476 52.217 26.7131 52.1706 27.465 51.3615L24.535 48.6385ZM24.5451 25.3716L48.5235 50.8189L51.4347 48.0758L27.4563 22.6284L24.5451 25.3716ZM48.535 22.8145L24.535 48.6385L27.465 51.3615L51.465 25.5375L48.535 22.8145Z" fill="white"/>
</svg>
