<svg width="75" height="75" viewBox="0 0 75 75" fill="none" xmlns="http://www.w3.org/2000/svg">
<circle cx="37.5" cy="37.5" r="37.5" fill="#5E85C1"/>
<path d="M36.8864 28.7986C40.3362 37.3778 31.6093 40.3225 26.7102 42.0851C26.6317 42.1134 26.5592 42.1506 26.4901 42.1975L22.682 44.7808C21.9161 45.3004 20.9161 44.5901 21.1543 43.6958L21.2943 43.1705C21.4284 42.6672 21.1515 42.1455 20.6633 41.9643C11.1771 38.4428 10.8162 35.7186 10.8462 33.8458C11.0656 20.1829 33.4092 20.151 36.8864 28.7986Z" fill="white"/>
<path d="M32.2782 33.2564C28.6166 43.7719 39.1689 46.8369 45.182 48.6807C45.3349 48.7275 45.4709 48.8095 45.5851 48.9215L50.0797 53.3315C50.7442 53.9835 51.8608 53.4535 51.7759 52.5265L51.6041 50.6517C51.564 50.2149 51.8209 49.8009 52.2242 49.6285C63.6115 44.7593 63.6091 40.2435 63.9052 37.917C63.9135 37.852 63.9157 37.7852 63.9112 37.7199C62.7868 21.3346 35.9793 22.6275 32.2782 33.2564Z" fill="#CFE0FB"/>
</svg>
