<svg width="49" height="50" viewBox="0 0 49 50" fill="none" xmlns="http://www.w3.org/2000/svg">
<circle cx="24.5" cy="24.5619" r="24.5" fill="#84A1CD"/>
<path d="M19.3912 13.009L20.6913 12.5933C21.9118 12.2042 23.2131 12.8338 23.7363 14.0639L24.7743 16.5144C25.2262 17.5813 24.9761 18.8368 24.1532 19.6174L21.8646 21.7899C22.0048 23.0901 22.4422 24.3697 23.1745 25.6288C23.8702 26.8471 24.8033 27.9133 25.9186 28.7644L28.6675 27.8461C29.7103 27.4993 30.845 27.8993 31.483 28.8382L32.9728 31.0252C33.716 32.1176 33.583 33.6232 32.6611 34.5487L31.6727 35.5408C30.6891 36.528 29.2838 36.8869 27.9848 36.4809C24.9169 35.5239 22.0966 32.6831 19.5229 27.9585C16.9455 23.2267 16.0356 19.2102 16.7945 15.9138C17.1135 14.5267 18.1007 13.421 19.3912 13.009Z" fill="white"/>
</svg>
