<svg width="21" height="25" viewBox="0 0 21 25" fill="none" xmlns="http://www.w3.org/2000/svg">
<g clip-path="url(#clip0_190_3063)">
<path d="M10.9741 7.68433C9.73261 7.68433 8.54194 8.1918 7.66405 9.0951C6.78616 9.9984 6.29297 11.2235 6.29297 12.501C6.29297 13.7785 6.78616 15.0036 7.66405 15.9069C8.54194 16.8102 9.73261 17.3177 10.9741 17.3177C12.2156 17.3177 13.4063 16.8102 14.2842 15.9069C15.1621 15.0036 15.6553 13.7785 15.6553 12.501C15.6553 11.2235 15.1621 9.9984 14.2842 9.0951C13.4063 8.1918 12.2156 7.68433 10.9741 7.68433ZM10.9741 15.6291C10.1676 15.6291 9.39405 15.2994 8.82372 14.7126C8.2534 14.1258 7.93299 13.3299 7.93299 12.5C7.93299 11.67 8.2534 10.8741 8.82372 10.2873C9.39405 9.70046 10.1676 9.37078 10.9741 9.37078C11.7807 9.37078 12.5542 9.70046 13.1245 10.2873C13.6949 10.8741 14.0153 11.67 14.0153 12.5C14.0153 13.3299 13.6949 14.1258 13.1245 14.7126C12.5542 15.2994 11.7807 15.6291 10.9741 15.6291Z" fill="white"/>
<path d="M15.8413 8.63011C16.444 8.63011 16.9327 8.12736 16.9327 7.50719C16.9327 6.88702 16.444 6.38428 15.8413 6.38428C15.2386 6.38428 14.75 6.88702 14.75 7.50719C14.75 8.12736 15.2386 8.63011 15.8413 8.63011Z" fill="white"/>
<path d="M19.6149 6.36554C19.3805 5.74281 19.0224 5.1773 18.5634 4.70519C18.1044 4.23308 17.5546 3.86478 16.9493 3.62388C16.241 3.35029 15.4927 3.20236 14.7363 3.18638C13.7614 3.14263 13.4527 3.13013 10.9805 3.13013C8.50828 3.13013 8.19141 3.13013 7.2246 3.18638C6.46876 3.20154 5.721 3.3495 5.01361 3.62388C4.40815 3.8645 3.85826 4.2327 3.39923 4.70484C2.94019 5.17699 2.58215 5.74265 2.34806 6.36554C2.08212 7.09431 1.93867 7.86433 1.92388 8.64262C1.88035 9.64471 1.86719 9.96242 1.86719 12.5072C1.86719 15.051 1.86719 15.3749 1.92388 16.3718C1.93907 17.151 2.08181 17.9197 2.34806 18.6499C2.5828 19.2726 2.9412 19.838 3.40034 20.3101C3.85949 20.7822 4.40929 21.1505 5.01462 21.3916C5.72067 21.6762 6.46875 21.8347 7.22663 21.8603C8.20153 21.9041 8.5103 21.9176 10.9825 21.9176C13.4547 21.9176 13.7715 21.9176 14.7384 21.8603C15.4947 21.8445 16.243 21.6969 16.9514 21.4239C17.5565 21.1824 18.1061 20.8138 18.565 20.3415C19.024 19.8693 19.3822 19.3038 19.6169 18.6812C19.8832 17.952 20.0259 17.1832 20.0411 16.4041C20.0846 15.402 20.0978 15.0843 20.0978 12.5395C20.0978 9.99471 20.0978 9.67179 20.0411 8.67492C20.0293 7.88562 19.8851 7.10434 19.6149 6.36554ZM18.3818 16.2947C18.3753 16.895 18.2688 17.4897 18.067 18.053C17.915 18.4581 17.6822 18.826 17.3837 19.1329C17.0852 19.4399 16.7276 19.6791 16.3338 19.8353C15.7924 20.042 15.2206 20.1516 14.6432 20.1593C13.6814 20.2051 13.4101 20.2166 10.944 20.2166C8.47588 20.2166 8.22381 20.2166 7.24384 20.1593C6.66672 20.152 6.09514 20.0424 5.55421 19.8353C5.15907 19.6801 4.8 19.4413 4.50023 19.1342C4.20046 18.8272 3.96666 18.4589 3.81396 18.053C3.61498 17.4958 3.50854 16.9081 3.49911 16.3145C3.45558 15.3249 3.44546 15.0457 3.44546 12.5082C3.44546 9.96971 3.44546 9.71033 3.49911 8.70096C3.50566 8.10098 3.61215 7.5066 3.81396 6.94367C4.12273 6.12179 4.75546 5.47492 5.55421 5.16033C6.09541 4.95423 6.66682 4.84467 7.24384 4.83638C8.2066 4.79158 8.4769 4.77908 10.944 4.77908C13.4111 4.77908 13.6642 4.77908 14.6432 4.83638C15.2206 4.84352 15.7926 4.95312 16.3338 5.16033C16.7276 5.31687 17.0851 5.55638 17.3836 5.86349C17.6821 6.1706 17.9149 6.53853 18.067 6.94367C18.266 7.50091 18.3724 8.08862 18.3818 8.68221C18.4254 9.67283 18.4365 9.95096 18.4365 12.4895C18.4365 15.027 18.4365 15.2999 18.393 16.2957H18.3818V16.2947Z" fill="white"/>
</g>
<defs>
<clipPath id="clip0_190_3063">
<rect width="20.6522" height="25" fill="white" transform="translate(0.0429688)"/>
</clipPath>
</defs>
</svg>
