<svg width="49" height="49" viewBox="0 0 49 49" fill="none" xmlns="http://www.w3.org/2000/svg">
<circle cx="24.5" cy="24.5" r="24.5" fill="#95BAF3"/>
<path d="M24.4095 17.3728C22.5459 17.3728 20.7586 18.1239 19.4409 19.4607C18.1231 20.7976 17.3828 22.6108 17.3828 24.5015C17.3828 26.3921 18.1231 28.2053 19.4409 29.5422C20.7586 30.8791 22.5459 31.6301 24.4095 31.6301C26.2731 31.6301 28.0603 30.8791 29.3781 29.5422C30.6958 28.2053 31.4361 26.3921 31.4361 24.5015C31.4361 22.6108 30.6958 20.7976 29.3781 19.4607C28.0603 18.1239 26.2731 17.3728 24.4095 17.3728ZM24.4095 29.1311C23.1988 29.1311 22.0377 28.6432 21.1816 27.7747C20.3255 26.9061 19.8446 25.7282 19.8446 24.4999C19.8446 23.2717 20.3255 22.0937 21.1816 21.2252C22.0377 20.3567 23.1988 19.8688 24.4095 19.8688C25.6202 19.8688 26.7813 20.3567 27.6374 21.2252C28.4934 22.0937 28.9744 23.2717 28.9744 24.4999C28.9744 25.7282 28.4934 26.9061 27.6374 27.7747C26.7813 28.6432 25.6202 29.1311 24.4095 29.1311Z" fill="white"/>
<path d="M31.7124 18.7726C32.6171 18.7726 33.3505 18.0285 33.3505 17.1106C33.3505 16.1928 32.6171 15.4487 31.7124 15.4487C30.8076 15.4487 30.0742 16.1928 30.0742 17.1106C30.0742 18.0285 30.8076 18.7726 31.7124 18.7726Z" fill="white"/>
<path d="M37.3785 15.421C37.0267 14.4993 36.4891 13.6624 35.8002 12.9637C35.1112 12.2649 34.286 11.7199 33.3774 11.3633C32.3142 10.9584 31.191 10.7395 30.0555 10.7158C28.5922 10.6511 28.1287 10.6326 24.4178 10.6326C20.7069 10.6326 20.2313 10.6326 18.78 10.7158C17.6455 10.7383 16.5231 10.9572 15.4612 11.3633C14.5524 11.7194 13.727 12.2644 13.038 12.9631C12.3489 13.6619 11.8115 14.4991 11.4601 15.421C11.0609 16.4996 10.8456 17.6392 10.8234 18.7911C10.758 20.2741 10.7383 20.7444 10.7383 24.5106C10.7383 28.2754 10.7383 28.7549 10.8234 30.2302C10.8462 31.3834 11.0604 32.5211 11.4601 33.6019C11.8125 34.5234 12.3504 35.3602 13.0396 36.0589C13.7288 36.7576 14.5541 37.3027 15.4627 37.6595C16.5226 38.0807 17.6455 38.3153 18.7831 38.3533C20.2465 38.418 20.7099 38.4381 24.4208 38.4381C28.1317 38.4381 28.6073 38.4381 30.0586 38.3533C31.1939 38.3298 32.3171 38.1114 33.3804 37.7073C34.2888 37.3499 35.1137 36.8044 35.8026 36.1055C36.4916 35.4066 37.0293 34.5696 37.3816 33.6481C37.7812 32.5689 37.9955 31.4312 38.0183 30.278C38.0836 28.7949 38.1034 28.3247 38.1034 24.5584C38.1034 20.7921 38.1034 20.3142 38.0183 18.8389C38.0006 17.6707 37.7842 16.5144 37.3785 15.421ZM35.5276 30.1161C35.5178 31.0046 35.358 31.8848 35.055 32.7185C34.8268 33.318 34.4775 33.8624 34.0294 34.3167C33.5814 34.771 33.0445 35.1251 32.4535 35.3563C31.6408 35.6622 30.7825 35.8244 29.9157 35.8357C28.4721 35.9036 28.0648 35.9205 24.3631 35.9205C20.6583 35.9205 20.2799 35.9205 18.8089 35.8357C17.9426 35.825 17.0847 35.6628 16.2727 35.3563C15.6796 35.1265 15.1406 34.773 14.6906 34.3187C14.2406 33.8643 13.8897 33.3191 13.6605 32.7185C13.3618 31.8938 13.202 31.0239 13.1879 30.1454C13.1225 28.6809 13.1073 28.2677 13.1073 24.5122C13.1073 20.7551 13.1073 20.3713 13.1879 18.8774C13.1977 17.9894 13.3576 17.1098 13.6605 16.2766C14.124 15.0602 15.0737 14.1029 16.2727 13.6373C17.0851 13.3322 17.9428 13.1701 18.8089 13.1578C20.2541 13.0915 20.6598 13.073 24.3631 13.073C28.0664 13.073 28.4463 13.073 29.9157 13.1578C30.7825 13.1684 31.641 13.3306 32.4535 13.6373C33.0445 13.8689 33.5812 14.2234 34.0293 14.6779C34.4773 15.1325 34.8267 15.677 35.055 16.2766C35.3537 17.1013 35.5135 17.9711 35.5276 18.8496C35.593 20.3158 35.6097 20.7274 35.6097 24.4844C35.6097 28.2399 35.6097 28.6439 35.5444 30.1177H35.5276V30.1161Z" fill="white"/>
</svg>
