<svg width="49" height="49" viewBox="0 0 49 49" fill="none" xmlns="http://www.w3.org/2000/svg">
<circle cx="24.5" cy="24.5" r="24.5" fill="#55ACEE"/>
<path d="M40 15.9225C38.8961 16.4021 37.7099 16.7263 36.4649 16.8721C37.7358 16.1257 38.7116 14.9437 39.1711 13.5354C37.963 14.238 36.6412 14.7329 35.2628 14.999C34.14 13.8269 32.5405 13.0944 30.7702 13.0944C27.3711 13.0944 24.6152 15.7948 24.6152 19.1254C24.6152 19.5981 24.6696 20.0584 24.7745 20.4999C19.6593 20.2483 15.1241 17.8473 12.0884 14.1984C11.5587 15.0891 11.2552 16.1252 11.2552 17.2304C11.2552 19.3229 12.3419 21.1688 13.9933 22.2504C13.0159 22.2204 12.06 21.9617 11.2054 21.496C11.205 21.5212 11.205 21.5465 11.205 21.5719C11.205 24.494 13.3266 26.9317 16.1421 27.4857C15.2358 27.7273 14.2851 27.7626 13.3627 27.5891C14.1459 29.9852 16.4189 31.7288 19.1121 31.7776C17.0057 33.3951 14.3518 34.3594 11.4682 34.3594C10.9714 34.3594 10.4815 34.3308 10 34.2751C12.7238 35.9863 15.959 36.9848 19.4348 36.9848C30.7559 36.9848 36.9466 27.7946 36.9466 19.8248C36.9466 19.5632 36.9407 19.3031 36.9288 19.0445C38.1337 18.191 39.1737 17.1337 40 15.9225Z" fill="white"/>
</svg>
