<svg width="49" height="49" viewBox="0 0 49 49" fill="none" xmlns="http://www.w3.org/2000/svg">
<circle cx="24.5" cy="24.5" r="24.5" fill="#FFFC01"/>
<path d="M24.3223 12C17.0205 12 16.7819 18.1932 17.2155 22.236C15.1357 22.4081 15 21.5 14.0951 22.322C13.2849 23.058 14 23.7646 14.3551 23.8703C16.9552 24.6445 17.2441 25.562 16.9552 26.0208C15.5182 28.873 13.3467 30.2278 11.9712 30.7221C11.5074 30.8888 10.8801 31.1567 11.0228 31.6284C11.3231 32.6204 14.4852 32.7876 14.7018 33.0742C14.9618 33.4182 14.0084 35.1386 16.1752 34.7085C17.9086 34.3644 18.7464 34.5078 18.9486 34.6225C23.8022 37.8911 25.3623 37.031 27.0957 36.4288C28.8291 35.8267 30.3892 33.6763 32.4692 34.6225C34.1333 35.3794 34.4338 33.9057 34.376 33.0742C38.1202 32.4548 38.2473 31.3825 37.8428 30.9237C34.0293 30.2356 30.5625 25.3326 32.7293 24.6445C34.896 23.9564 35.2354 23.2113 35.3294 22.8381C35.416 22.4941 34.7227 21.3759 33.596 21.978C32.6946 22.4597 32.0359 22.322 31.7759 22.236C32.0359 19.9136 32.7293 12 24.3223 12Z" fill="white" stroke="black" stroke-width="0.4"/>
</svg>
