<svg width="49" height="49" viewBox="0 0 49 49" fill="none" xmlns="http://www.w3.org/2000/svg">
<circle cx="24.5" cy="24.5" r="24.5" fill="#95BAF3"/>
<path d="M25.2482 11.5C26.4422 11.5 30.4907 11.8345 32.4017 16.1095C33.0407 17.548 32.8877 19.993 32.7617 21.9565L32.7587 22.027C32.7422 22.246 32.7317 22.444 32.7227 22.642C32.871 22.721 33.0379 22.7583 33.2057 22.75C33.5672 22.7305 34.0007 22.606 34.4522 22.3885C34.626 22.3025 34.8178 22.2593 35.0117 22.2625C35.2307 22.2625 35.4452 22.297 35.6252 22.3705C36.1667 22.5505 36.5102 22.948 36.5102 23.3815C36.5297 23.923 36.0407 24.394 35.0477 24.79C34.9412 24.8245 34.7942 24.8815 34.6337 24.934C34.0892 25.0975 33.2582 25.3675 33.0242 25.9105C32.9162 26.182 32.9507 26.542 33.1712 26.956L33.1892 26.9755C33.2612 27.139 35.0312 31.168 38.9702 31.819C39.1147 31.8423 39.2457 31.9174 39.3387 32.0303C39.4318 32.1433 39.4805 32.2862 39.4757 32.4325C39.4757 32.5225 39.4562 32.611 39.4217 32.704C39.1322 33.3895 37.8872 33.8965 35.6267 34.2355C35.5562 34.345 35.4827 34.6885 35.4287 34.924C35.3957 35.14 35.3387 35.3575 35.2682 35.59C35.1767 35.917 34.9427 36.0775 34.5992 36.0775H34.5632C34.3445 36.0674 34.1271 36.0378 33.9137 35.989C33.409 35.8801 32.894 35.8258 32.3777 35.827C32.0177 35.827 31.6577 35.845 31.2797 35.917C30.5552 36.043 29.9237 36.4765 29.2007 36.982C28.1702 37.7035 26.9972 38.536 25.2272 38.536C25.1552 38.536 25.0832 38.518 25.0082 38.518H24.8297C23.0582 38.518 21.9032 37.7035 20.8742 36.964C20.1527 36.457 19.5392 36.025 18.8147 35.8975C18.4447 35.8422 18.0713 35.8122 17.6972 35.8075C17.0447 35.8075 16.5407 35.9155 16.1627 35.9875C15.9077 36.04 15.6917 36.076 15.5102 36.076C15.352 36.088 15.1947 36.0439 15.0658 35.9515C14.9368 35.8591 14.8446 35.7242 14.8052 35.5705C14.7332 35.3395 14.6987 35.101 14.6447 34.8865C14.5877 34.6675 14.5172 34.2925 14.4452 34.1995C12.1307 33.931 10.8857 33.424 10.5977 32.7205C10.5579 32.6353 10.5355 32.543 10.5317 32.449C10.5259 32.3025 10.5743 32.159 10.6675 32.0459C10.7607 31.9327 10.8923 31.8579 11.0372 31.8355C14.9747 31.1845 16.7447 27.157 16.8182 26.9875L16.8377 26.953C17.0552 26.5375 17.1077 26.173 16.9817 25.9045C16.7477 25.381 15.9152 25.111 15.3767 24.9295C15.2334 24.8933 15.0934 24.8451 14.9582 24.7855C13.6232 24.2605 13.4417 23.6635 13.5152 23.2495C13.6232 22.6735 14.3267 22.294 14.9237 22.294C15.0992 22.294 15.2492 22.3285 15.3857 22.384C15.8912 22.6165 16.3382 22.7455 16.7177 22.7455C16.9122 22.7526 17.1051 22.7087 17.2772 22.618L17.2157 21.931C17.0957 19.9705 16.9427 17.5285 17.5862 16.0975C19.4402 11.8435 23.4797 11.5165 24.6722 11.5165L25.1747 11.5H25.2482Z" fill="white"/>
</svg>
