<svg width="395" height="611" viewBox="0 0 395 611" fill="none" xmlns="http://www.w3.org/2000/svg">
<g clip-path="url(#clip0_259_2390)">
<path d="M7.4825 426.63C41.6871 536.489 175.246 568.29 296.196 593.457C328.438 600.166 361.32 606.278 394.5 610.411L394.5 0.499749L183.263 0.499767C169.511 31.0725 155.359 61.3394 139.425 89.9365C76.0731 203.635 -26.0981 318.776 7.4825 426.63Z" fill="#95BAF3"/>
<path d="M328.165 564.23L327.961 565.209L328.165 564.23ZM54.6913 406.21L53.7365 406.507L54.6913 406.21ZM179.669 87.2884L178.795 86.8017L179.669 87.2884ZM328.368 563.251C271.073 551.329 210.917 537.858 161.041 514.398C111.183 490.946 71.731 457.574 55.6461 405.912L53.7365 406.507C70.0506 458.905 110.052 492.624 160.19 516.207C210.309 539.783 270.69 553.292 327.961 565.209L328.368 563.251ZM55.6461 405.912C39.8641 355.223 55.9482 302.724 83.6372 249.285C97.475 222.578 114.183 195.689 131.198 168.722C148.206 141.766 165.524 114.729 180.542 87.7752L178.795 86.8017C163.81 113.696 146.528 140.678 129.507 167.654C112.493 194.619 95.743 221.573 81.8614 248.365C54.1115 301.921 37.7106 355.034 53.7365 406.507L55.6461 405.912ZM180.542 87.7752C195.843 60.3139 209.408 31.2386 222.588 1.90991L220.764 1.09009C207.588 30.4085 194.052 59.419 178.795 86.8017L180.542 87.7752ZM394.155 575.451C372.003 571.982 350.037 567.76 328.368 563.251L327.961 565.209C349.649 569.722 371.65 573.951 393.845 577.427L394.155 575.451Z" fill="#FAFAFA"/>
</g>
<defs>
<clipPath id="clip0_259_2390">
<rect width="393.625" height="609.911" fill="white" transform="translate(0.875 0.499756)"/>
</clipPath>
</defs>
</svg>
