<svg width="193" height="310" viewBox="0 0 193 310" fill="none" xmlns="http://www.w3.org/2000/svg">
<path d="M21.2388 279.619C21.1504 279.66 21.0545 279.684 20.9566 279.688C20.8587 279.692 20.7607 279.676 20.6683 279.642C20.4815 279.573 20.3285 279.432 20.243 279.25C20.1575 279.068 20.1464 278.861 20.2122 278.673C20.278 278.485 20.4153 278.333 20.5939 278.249L21.8294 277.669L19.1896 275.802C9.71 280.224 2.56684 282.224 1.42541 279.799C0.283975 277.375 6.38099 273.154 15.8365 268.681L16.0809 265.46L14.8452 266.041C14.6667 266.124 14.4614 266.133 14.2747 266.064C14.088 265.995 13.935 265.854 13.8495 265.672C13.764 265.491 13.7529 265.283 13.8187 265.095C13.8845 264.908 14.0217 264.755 14.2003 264.671L16.2125 263.726L17.4781 247.035L18.4056 246.599L24.0364 265.232C32.1216 262.156 40.1558 259.816 40.1558 259.816L42.3943 252.146L43.2288 251.754L44.2903 258.05C44.2903 258.05 46.3449 257.2 46.9223 258.426C47.4996 259.652 45.5336 260.691 45.5336 260.691L49.7125 265.523L48.8779 265.915L41.5355 262.746C41.5355 262.746 34.6071 267.434 27.0787 271.693L37.8569 287.908L36.9293 288.344L23.2507 278.674L21.2388 279.619Z" fill="#929292"/>
<path d="M52.674 254.98C52.674 254.98 52.9978 254.828 53.6052 254.543C54.2083 254.251 55.1128 253.859 56.2259 253.288C57.3257 252.691 58.6856 251.995 60.2108 251.138C61.7201 250.261 63.4578 249.315 65.2547 248.132C67.0877 247.001 69.0282 245.708 71.0506 244.294C73.0707 242.879 75.1856 241.359 77.3091 239.703C79.4307 238.045 81.63 236.337 83.7644 234.478C85.9454 232.675 88.0402 230.703 90.1865 228.791C92.2439 226.78 94.3509 224.822 96.2991 222.764C98.3068 220.766 100.158 218.678 101.95 216.661C103.788 214.687 105.373 212.603 106.959 210.709C108.521 208.791 109.884 206.883 111.184 205.162C112.465 203.425 113.534 201.753 114.517 200.302C115.515 198.862 116.282 197.534 116.947 196.466C118.255 194.314 118.97 193.068 118.97 193.068C118.97 193.068 118.065 194.188 116.538 196.175C115.772 197.167 114.884 198.399 113.75 199.726C112.643 201.069 111.393 202.583 110.03 204.236C108.613 205.841 107.134 207.623 105.504 209.45C103.834 211.242 102.155 213.202 100.29 215.112C99.37 216.077 98.4355 217.056 97.4867 218.051C96.5169 219.022 95.5366 220.003 94.5457 220.994C92.6003 223.009 90.4925 224.919 88.4432 226.89C86.3411 228.802 84.2898 230.775 82.1519 232.58C81.0971 233.5 80.0522 234.411 79.0172 235.314C77.9658 236.195 76.9287 237.064 75.9058 237.921C73.8426 239.607 71.8458 241.239 69.9182 242.742C67.9802 244.231 66.1565 245.655 64.4285 246.908C62.7207 248.192 61.1097 249.301 59.7045 250.326C58.2846 251.325 57.0161 252.146 55.9829 252.851C53.8773 254.205 52.674 254.98 52.674 254.98Z" fill="#D1D0D0"/>
<path d="M148.61 155.259C148.512 155.432 148.349 155.557 148.158 155.607C147.966 155.657 147.762 155.628 147.59 155.526C147.418 155.425 147.293 155.258 147.241 155.064C147.189 154.87 147.215 154.664 147.313 154.491L147.995 153.297L144.79 153.265C139.542 162.405 134.837 168.184 132.541 166.824C130.246 165.465 132.847 158.44 138.047 149.271L136.433 146.45L135.751 147.645C135.653 147.818 135.49 147.943 135.299 147.993C135.107 148.043 134.903 148.014 134.731 147.912C134.559 147.81 134.433 147.644 134.382 147.45C134.33 147.256 134.356 147.05 134.454 146.877L135.565 144.932L127.205 130.314L127.717 129.418L142.798 141.678C147.665 134.46 152.906 127.885 152.906 127.885L150.416 120.213L150.877 119.406L155.286 124.033C155.286 124.033 156.485 122.142 157.646 122.83C158.807 123.517 157.787 125.514 157.787 125.514L163.917 127.128L163.456 127.935L155.68 129.527C155.68 129.527 152.664 137.42 148.917 145.301L166.838 152.583L166.326 153.48L149.72 153.314L148.61 155.259Z" fill="#81184E"/>
<path d="M161.16 117.104C161.16 117.104 161.317 116.778 161.611 116.166C161.898 115.551 162.357 114.666 162.866 113.505C163.348 112.333 163.97 110.916 164.621 109.268C165.246 107.613 166.006 105.759 166.663 103.68C167.381 101.619 168.081 99.3612 168.768 96.9557C169.453 94.551 170.146 92.0027 170.76 89.3422C171.371 86.6809 172.012 83.9306 172.507 81.1031C173.073 78.2896 173.466 75.3974 173.936 72.5193C174.276 69.6206 174.687 66.7317 174.911 63.8653C175.219 61.0084 175.349 58.1803 175.478 55.4455C175.669 52.7155 175.593 50.0601 175.638 47.5532C175.649 45.0439 175.511 42.6691 175.442 40.4821C175.348 38.2941 175.13 36.292 174.983 34.5202C174.855 32.7473 174.618 31.2095 174.464 29.9425C174.13 27.4099 173.903 25.9709 173.903 25.9709C173.903 25.9709 173.902 27.4316 173.962 29.9738C173.989 31.245 174.072 32.7845 174.022 34.5545C174.003 36.3202 173.982 38.3124 173.959 40.4855C173.864 42.6566 173.832 45.0063 173.71 47.4873C173.536 49.9662 173.46 52.5835 173.208 55.2799C173.097 56.6285 172.985 57.9976 172.871 59.3874C172.725 60.7721 172.578 62.1716 172.43 63.5859C172.18 66.4161 171.738 69.2681 171.38 72.1294C170.944 74.9791 170.586 77.8445 170.055 80.6323C169.811 82.0306 169.569 83.4159 169.33 84.7882C169.064 86.1538 168.802 87.5009 168.544 88.8297C167.996 91.476 167.465 94.037 166.908 96.4521C166.334 98.863 165.807 101.149 165.248 103.24C164.724 105.342 164.166 107.245 163.715 108.95C163.236 110.643 162.763 112.1 162.401 113.315C161.611 115.726 161.16 117.104 161.16 117.104Z" fill="#D1D0D0"/>
</svg>
