<svg width="225" height="263" viewBox="0 0 225 263" fill="none" xmlns="http://www.w3.org/2000/svg">
<path class="plane2" d="M54.1198 253.882C54.0314 253.924 53.9355 253.947 53.8376 253.951C53.7397 253.955 53.6417 253.939 53.5493 253.905C53.3625 253.836 53.2095 253.695 53.124 253.514C53.0385 253.332 53.0274 253.124 53.0932 252.937C53.159 252.749 53.2963 252.596 53.4749 252.512L54.7104 251.932L52.0705 250.066C42.591 254.488 35.4478 256.487 34.3064 254.063C33.165 251.639 39.262 247.418 48.7175 242.945L48.9619 239.724L47.7262 240.304C47.5477 240.388 47.3424 240.396 47.1557 240.327C46.969 240.258 46.816 240.117 46.7305 239.936C46.6449 239.754 46.6339 239.547 46.6997 239.359C46.7655 239.171 46.9027 239.018 47.0813 238.935L49.0934 237.99L50.3591 221.298L51.2866 220.863L56.9174 239.496C65.0025 236.42 73.0368 234.08 73.0368 234.08L75.2753 226.409L76.1097 226.017L77.1712 232.314C77.1712 232.314 79.2259 231.464 79.8032 232.69C80.3806 233.916 78.4146 234.954 78.4146 234.954L82.5935 239.787L81.7589 240.179L74.4165 237.009C74.4165 237.009 67.4881 241.698 59.9597 245.957L70.7378 262.172L69.8103 262.607L56.1316 252.937L54.1198 253.882Z" fill="#929292"/>
<path d="M85.5546 229.243C85.5546 229.243 85.8784 229.091 86.4858 228.807C87.0889 228.514 87.9934 228.123 89.1065 227.552C90.2063 226.955 91.5662 226.258 93.0914 225.402C94.6007 224.524 96.3384 223.578 98.1354 222.396C99.9684 221.265 101.909 219.972 103.931 218.558C105.951 217.142 108.066 215.622 110.19 213.967C112.311 212.308 114.511 210.6 116.645 208.742C118.826 206.939 120.921 204.967 123.067 203.054C125.124 201.044 127.232 199.085 129.18 197.028C131.187 195.03 133.039 192.942 134.831 190.925C136.669 188.951 138.253 186.866 139.84 184.972C141.401 183.054 142.764 181.147 144.064 179.426C145.345 177.689 146.415 176.016 147.397 174.565C148.395 173.125 149.163 171.797 149.828 170.729C151.136 168.577 151.85 167.331 151.85 167.331C151.85 167.331 150.945 168.451 149.419 170.439C148.653 171.431 147.764 172.663 146.631 173.99C145.523 175.332 144.274 176.847 142.911 178.499C141.494 180.105 140.014 181.887 138.384 183.713C136.715 185.506 135.036 187.465 133.171 189.375C132.251 190.34 131.316 191.32 130.367 192.315C129.398 193.285 128.417 194.266 127.426 195.258C125.481 197.272 123.373 199.183 121.324 201.153C119.222 203.065 117.17 205.039 115.032 206.844C113.978 207.764 112.933 208.675 111.898 209.577C110.846 210.458 109.809 211.327 108.786 212.185C106.723 213.871 104.726 215.503 102.799 217.006C100.861 218.495 99.0371 219.918 97.3091 221.172C95.6013 222.456 93.9903 223.565 92.5851 224.59C91.1652 225.588 89.8968 226.41 88.8635 227.114C86.758 228.469 85.5546 229.243 85.5546 229.243Z" fill="#D1D0D0"/>
<path class="plane1" d="M181.492 129.523C181.394 129.695 181.231 129.821 181.04 129.871C180.848 129.921 180.644 129.892 180.472 129.79C180.3 129.688 180.174 129.522 180.122 129.328C180.07 129.134 180.097 128.928 180.195 128.755L180.877 127.56L177.672 127.528C172.424 136.669 167.719 142.447 165.423 141.088C163.128 139.729 165.728 132.704 170.928 123.535L169.315 120.714L168.633 121.909C168.535 122.081 168.372 122.206 168.181 122.257C167.989 122.307 167.785 122.277 167.613 122.176C167.441 122.074 167.315 121.907 167.263 121.713C167.211 121.519 167.238 121.313 167.336 121.14L168.447 119.195L160.087 104.578L160.599 103.681L175.68 115.941C180.547 108.724 185.787 102.148 185.787 102.148L183.298 94.4761L183.758 93.6692L188.168 98.2967C188.168 98.2967 189.367 96.4059 190.528 97.0933C191.689 97.7807 190.669 99.7777 190.669 99.7777L196.799 101.391L196.338 102.198L188.562 103.791C188.562 103.791 185.546 111.684 181.798 119.564L199.719 126.847L199.208 127.743L182.602 127.577L181.492 129.523Z" fill="#81184E"/>
<path d="M194.043 91.368C194.043 91.368 194.2 91.0417 194.494 90.4298C194.78 89.8143 195.24 88.929 195.749 87.7689C196.231 86.5966 196.853 85.1796 197.503 83.5314C198.128 81.8767 198.889 80.0225 199.546 77.9434C200.264 75.8824 200.964 73.6248 201.651 71.2193C202.336 68.8145 203.029 66.2662 203.643 63.6057C204.254 60.9444 204.894 58.1941 205.39 55.3666C205.956 52.5531 206.349 49.6609 206.819 46.7828C207.158 43.8841 207.569 40.9952 207.794 38.1289C208.102 35.272 208.232 32.4438 208.361 29.709C208.552 26.9791 208.476 24.3237 208.521 21.8167C208.532 19.3074 208.394 16.9326 208.325 14.7456C208.231 12.5576 208.012 10.5555 207.866 8.78376C207.738 7.01081 207.5 5.47301 207.347 4.20601C207.012 1.67338 206.786 0.234375 206.786 0.234375C206.786 0.234375 206.785 1.69512 206.845 4.2373C206.872 5.50853 206.954 7.04806 206.905 8.81798C206.886 10.5837 206.865 12.5759 206.842 14.7491C206.747 16.9201 206.715 19.2698 206.593 21.7508C206.419 24.2298 206.342 26.847 206.091 29.5434C205.98 30.892 205.868 32.2611 205.754 33.6509C205.608 35.0356 205.461 36.4351 205.312 37.8494C205.063 40.6796 204.621 43.5316 204.263 46.3929C203.827 49.2426 203.469 52.108 202.937 54.8958C202.694 56.2941 202.452 57.6794 202.213 59.0517C201.947 60.4173 201.685 61.7645 201.427 63.0932C200.879 65.7395 200.348 68.3005 199.791 70.7156C199.217 73.1265 198.69 75.4124 198.131 77.5034C197.607 79.6058 197.049 81.5081 196.598 83.2134C196.119 84.9065 195.646 86.3635 195.284 87.5782C194.494 89.9898 194.043 91.368 194.043 91.368Z" fill="#D1D0D0"/>

<style>

.plane1 {
  animation: 3s ease-out infinite flyup;
  transform-origin: center;
}

@keyframes flyup {

  0% {
    transform: scale(.6) translate(67px, -50px);
  }

  85% {
    transform: scale(1.2) translate(-10px, 10px);
    opacity: 1;
  }

  100% {
    opacity: 0;
    transform: scale(1.2) translate(-10px, 10px);
  }
}


.plane2 {
  animation: 3s ease-out infinite flydown;
  transform-origin: center;
}

@keyframes flydown {
  0% {
    transform: scale(1) translate(0px, 0px);
  }

  100% {
    opacity: 0;
    transform: scale(.7) translate(-72px, 54px);
  }
}


</style>
</svg>
