<svg width="350" height="265" viewBox="0 0 350 265" fill="none" xmlns="http://www.w3.org/2000/svg">
<path d="M199.196 10.4086L199.378 9.42536L199.196 10.4086ZM95.2563 36.7627L95.7553 37.6293L95.2563 36.7627ZM34.3641 105.338L35.3631 105.294L34.3641 105.338ZM103.073 184.417L103.868 183.811L103.805 183.728L103.725 183.659L103.073 184.417ZM208.957 255.726L208.913 256.725L208.957 255.726ZM321.915 190.671L321.039 190.188L321.915 190.671ZM308.031 76.2299L307.204 76.7926L308.031 76.2299ZM199.378 9.42536C159.442 2.01779 125.29 18.3116 94.7572 35.8962L95.7553 37.6293C126.25 20.0669 159.842 4.12609 199.013 11.3918L199.378 9.42536ZM94.7572 35.8962C79.8799 44.4642 64.2085 53.7995 52.4357 64.962C40.6489 76.1378 32.6546 89.2557 33.3651 105.382L35.3631 105.294C34.688 89.9697 42.2507 77.3751 53.8118 66.4133C65.387 55.4382 80.8544 46.211 95.7553 37.6293L94.7572 35.8962ZM33.3651 105.382C34.0634 121.232 44.5723 135.272 58.1474 148.229C64.9526 154.724 72.5767 160.992 80.2132 167.114C87.8613 173.246 95.5105 179.223 102.42 185.175L103.725 183.659C96.7804 177.677 89.0841 171.663 81.4642 165.554C73.8328 159.435 66.2666 153.214 59.5283 146.782C46.0163 133.885 36.0251 120.319 35.3631 105.294L33.3651 105.382ZM102.277 185.023C128.532 219.516 161.67 254.631 208.913 256.725L209.002 254.727C162.759 252.677 130.121 218.302 103.868 183.811L102.277 185.023ZM208.913 256.725C260.885 259.028 302.548 227.828 322.79 191.154L321.039 190.188C301.093 226.325 260.077 256.99 209.002 254.727L208.913 256.725ZM322.79 191.154C342.246 155.906 334.045 112.665 308.857 75.6671L307.204 76.7926C332.141 113.422 340.002 155.832 321.039 190.188L322.79 191.154ZM308.857 75.6671C285.812 41.8157 244.367 17.7702 199.378 9.42536L199.013 11.3918C243.594 19.661 284.519 43.4711 307.204 76.7926L308.857 75.6671Z" fill="#FAFAFA"/>
<path fill-rule="evenodd" clip-rule="evenodd" d="M17 0H337V265H17V0ZM193.72 3.91753C151.7 -3.82798 115.715 13.1876 83.2984 31.7404C51.663 49.8458 17.1364 70.9344 18.6085 104.137C20.0536 136.733 31.4865 176.764 60.9228 201.961C97.1087 232.936 154.433 260.719 204.091 262.906C258.828 265.316 302.746 232.66 324.093 194.226C344.501 157.484 335.968 112.272 309.343 73.4069C285.052 37.9487 241.298 12.6875 193.72 3.91753Z" fill="white"/>
<rect width="17" height="265" fill="white"/>
<rect x="337" width="13" height="265" fill="white"/>
</svg>
