<svg width="199" height="182" viewBox="0 0 199 182" fill="none" xmlns="http://www.w3.org/2000/svg">
<path d="M4.96845 139.384L8.16571 137.677L5.25407 136.98C4.97832 137.31 4.80447 137.713 4.75375 138.14C4.70304 138.566 4.77764 138.999 4.96845 139.384Z" fill="#81184E"/>
<path opacity="0.5" d="M4.96845 139.384L8.16571 137.677L5.25407 136.98C4.97832 137.31 4.80447 137.713 4.75375 138.14C4.70304 138.566 4.77764 138.999 4.96845 139.384Z" fill="black"/>
<path d="M81.9117 177.49C80.9045 178.001 79.791 178.268 78.6616 178.268C77.5322 178.268 76.4187 178.002 75.4114 177.491L10.168 139.894L119.399 77.8457L121.951 76.3694L187.193 112.943C188.981 113.981 188.981 115.669 187.193 116.695L81.9117 177.49Z" fill="#81184E"/>
<path d="M62.2394 103.462L36.7935 118.107L20.3201 108.597L1.1582 119.668V132.454C1.1582 134.128 3.03495 136.513 3.71799 136.121C4.98083 136.426 6.20855 136.862 7.38137 137.421C9.2936 138.51 11.069 139.823 12.6698 141.333L71.1399 108.601L62.2394 103.462Z" fill="#81184E"/>
<path opacity="0.15" d="M62.2394 103.462L36.7935 118.107L20.3201 108.597L1.1582 119.668V132.454C1.1582 134.128 3.03495 136.513 3.71799 136.121C4.98083 136.426 6.20855 136.862 7.38137 137.421C9.2936 138.51 11.069 139.823 12.6698 141.333L71.1399 108.601L62.2394 103.462Z" fill="black"/>
<path d="M11.6736 121.207V135.087C11.5961 135.031 11.5191 134.988 11.4492 134.946C10.5088 134.365 9.43724 134.031 8.33336 133.973C7.61466 133.901 6.89246 134.071 6.28125 134.456V118.091L11.6736 121.207Z" fill="#37474F"/>
<path d="M15.2524 139.855C15.1922 138.991 14.8724 138.166 14.3349 137.488C14.0666 137.119 13.7667 136.775 13.4385 136.458C13.34 136.36 13.2351 136.262 13.1304 136.164C12.9967 136.052 12.8641 135.941 12.7309 135.828C12.6191 135.744 12.5066 135.66 12.3946 135.576C12.1568 135.401 11.912 135.24 11.6738 135.093V121.27L15.2382 123.335V123.265L15.2524 139.855Z" fill="#E0E0E0"/>
<path opacity="0.4" d="M1.1582 132.454C1.1582 134.129 3.03495 136.514 3.71799 136.121H3.71872L6.27872 134.458V123.906L3.71404 119.494L2.31703 118.998L1.1582 119.668V132.454Z" fill="black"/>
<path d="M78.6643 159.811V175.648C77.9106 175.669 77.1647 175.492 76.5003 175.136L68.4944 170.519L15.2489 139.852L15.2363 123.263L78.6643 159.811Z" fill="#EBEBEB"/>
<path d="M185.368 100.315V112.275C185.326 113.027 185.108 113.757 184.732 114.409C184.357 115.061 183.833 115.615 183.205 116.028L88.8214 170.519L80.8277 175.136C80.1634 175.492 79.4176 175.668 78.6641 175.648V161.598L185.368 100.315Z" fill="#F5F5F5"/>
<path d="M119.401 57.2645L10.1699 120.336V121.799C10.1699 122.613 9.0313 122.913 7.63024 122.1C6.2166 121.287 5.07788 120.273 5.07788 118.872L4.94043 117.484L116.236 53.2355L116.686 52.9731C116.802 53.1801 116.866 53.4117 116.874 53.6486V54.3245C116.874 55.1378 118 56.4383 119.401 57.2645Z" fill="#81184E"/>
<path opacity="0.1" d="M119.401 57.2645L10.1699 120.336V121.799C10.1699 122.613 9.0313 122.913 7.63024 122.1C6.2166 121.287 5.07788 120.273 5.07788 118.872L4.94043 117.484L116.236 53.2355L116.686 52.9731C116.802 53.1801 116.866 53.4117 116.874 53.6486V54.3245C116.874 55.1378 118 56.4383 119.401 57.2645Z" fill="black"/>
<path d="M75.4133 157.934L11.7871 121.269C10.8803 120.794 10.0527 120.413 9.70312 120.596L10.1698 120.336L119.401 57.2643C119.401 57.2643 120.043 56.8961 120.678 56.5281C121.254 56.3553 121.861 56.3116 122.456 56.3998C123.051 56.4881 123.619 56.7063 124.12 57.0389L187.194 93.3848C188.983 94.4239 188.983 96.1124 187.194 97.1375L81.9135 157.933C80.9063 158.444 79.7929 158.71 78.6635 158.71C77.5341 158.711 76.4205 158.445 75.4133 157.934Z" fill="#81184E"/>
<path d="M116.687 52.9733L116.236 53.2357L4.94066 117.484C4.88546 117.367 4.80403 117.264 4.70273 117.184C4.60301 117.122 4.47779 117.058 4.32798 116.971L3.52737 116.508C3.22727 116.333 2.88914 116.133 2.5387 115.933C2.34667 115.805 2.11695 115.747 1.88736 115.767C1.65776 115.788 1.44199 115.886 1.27559 116.045C1.22553 116.072 1.18264 116.111 1.15047 116.158C1.01859 116.297 0.905055 116.453 0.812619 116.621C0.694181 116.818 0.597764 117.028 0.525098 117.246C0.435198 117.483 0.359839 117.725 0.299426 117.972C0.237343 118.247 0.187471 118.522 0.136774 118.823C0.103293 118.992 0.0825549 119.163 0.0747055 119.335C0.0621212 119.473 0.049873 119.598 0.0372886 119.748C0.0118802 120.061 -0.000541231 120.386 1.80741e-05 120.724V117.597C0.116244 116.568 0.470648 115.579 1.03515 114.711C1.59964 113.842 2.35871 113.117 3.25218 112.593L108.543 51.7974C109.411 51.2871 110.386 50.9844 111.39 50.9128C112.395 50.8412 113.403 51.0027 114.335 51.3847L115.661 52.1603L115.711 52.1851C115.798 52.2479 116.024 52.3728 116.274 52.5106C116.276 52.5106 116.277 52.5109 116.279 52.5115C116.28 52.5122 116.282 52.5131 116.283 52.5143C116.284 52.5155 116.285 52.5168 116.285 52.5184C116.286 52.5199 116.286 52.5216 116.286 52.5232C116.459 52.6329 116.598 52.7888 116.687 52.9733Z" fill="#81184E"/>
<path d="M75.4113 177.487L71.0075 174.935L12.6717 141.328C12.6195 140.467 12.3051 139.642 11.7708 138.964C10.9896 137.93 10.0066 137.066 8.88133 136.424C7.94203 135.842 6.87048 135.506 5.76651 135.449C5.02645 135.438 4.30421 135.676 3.71491 136.124C2.86092 134.431 2.44375 132.552 2.50141 130.657H0C0 134.11 1.13774 137.576 2.53868 138.376L3.80251 139.114C4.51575 139.527 5.07809 139.552 5.07809 139.164V138.489C5.07809 137.738 6.2168 137.775 7.63045 138.589C9.0315 139.401 10.1701 140.665 10.1701 141.416V142.092C10.1701 142.479 11.1453 143.342 12.3339 144.03L68.494 176.386L75.4113 180.377C75.413 180.377 75.4146 180.377 75.4161 180.378C75.4176 180.378 75.419 180.379 75.4202 180.38C75.4213 180.382 75.4222 180.383 75.4228 180.384C75.4234 180.386 75.4236 180.388 75.4236 180.389C76.4239 180.908 77.5373 181.17 78.6639 181.153V178.263C77.531 178.289 76.4106 178.021 75.4113 177.487Z" fill="#81184E"/>
<path opacity="0.3" d="M75.4113 177.487L71.0075 174.935L12.6717 141.328C12.6195 140.467 12.3051 139.642 11.7708 138.964C10.9896 137.93 10.0066 137.066 8.88133 136.424C7.94203 135.842 6.87048 135.506 5.76651 135.449C5.02645 135.438 4.30421 135.676 3.71491 136.124C2.86092 134.431 2.44375 132.552 2.50141 130.657H0C0 134.11 1.13774 137.576 2.53868 138.376L3.80251 139.114C4.51575 139.527 5.07809 139.552 5.07809 139.164V138.489C5.07809 137.738 6.2168 137.775 7.63045 138.589C9.0315 139.401 10.1701 140.665 10.1701 141.416V142.092C10.1701 142.479 11.1453 143.342 12.3339 144.03L68.494 176.386L75.4113 180.377C75.413 180.377 75.4146 180.377 75.4161 180.378C75.4176 180.378 75.419 180.379 75.4202 180.38C75.4213 180.382 75.4222 180.383 75.4228 180.384C75.4234 180.386 75.4236 180.388 75.4236 180.389C76.4239 180.908 77.5373 181.17 78.6639 181.153V178.263C77.531 178.289 76.4106 178.021 75.4113 177.487Z" fill="black"/>
<path d="M75.4368 157.946C75.4298 157.94 75.4209 157.935 75.4114 157.934L71.0076 155.382L27.9831 130.632L11.7834 121.275C10.6326 120.599 9.69441 120.361 9.63185 120.712C9.6272 120.717 9.62373 120.723 9.62164 120.729C9.61955 120.736 9.61889 120.743 9.61974 120.749V121.487C9.61974 122.3 8.48091 122.3 7.07949 121.487C6.55938 121.262 6.10373 120.911 5.75414 120.466C5.40454 120.02 5.17213 119.494 5.07811 118.935V118.135C5.09201 117.958 5.06543 117.781 5.00038 117.616C4.93534 117.451 4.83352 117.303 4.70273 117.184C4.60301 117.122 4.46557 117.046 4.32798 116.971C4.10266 116.846 3.82736 116.684 3.52737 116.508C3.22739 116.333 2.88914 116.133 2.5387 115.933C2.34667 115.805 2.11695 115.747 1.88736 115.767C1.65776 115.788 1.44199 115.886 1.27559 116.045C1.22553 116.072 1.18264 116.111 1.15047 116.158C1.06209 116.247 0.986275 116.348 0.925053 116.458C0.880869 116.507 0.843084 116.562 0.812619 116.621C0.694181 116.818 0.597765 117.028 0.525098 117.246C0.435198 117.483 0.359839 117.725 0.299426 117.972C0.237343 118.247 0.187471 118.522 0.136774 118.823C0.103293 118.992 0.0825549 119.163 0.0747055 119.335C0.0621212 119.473 0.049873 119.598 0.0372887 119.748C0.0118802 120.061 -0.000541231 120.386 1.80741e-05 120.724V130.657H2.50143V120.724C2.50143 120.461 2.51462 120.198 2.52648 119.948L2.58928 119.323C2.58734 119.301 2.59157 119.28 2.6015 119.26C2.82622 121.249 4.72826 123.025 6.37921 123.964C7.29815 124.538 8.34967 124.865 9.43207 124.914C10.2544 124.923 11.0514 124.629 11.671 124.089L11.8964 124.214C12.0462 124.302 12.183 124.389 12.3339 124.477L68.4941 156.833L75.4114 160.824C75.413 160.824 75.4146 160.824 75.4161 160.825C75.4176 160.825 75.419 160.826 75.4202 160.827C75.4213 160.829 75.4222 160.83 75.4228 160.832C75.4234 160.833 75.4237 160.835 75.4236 160.836C75.4368 160.849 75.4489 160.849 75.4742 160.861C76.4611 161.364 77.5564 161.617 78.6639 161.599V158.711C77.5411 158.731 76.4313 158.468 75.4368 157.946Z" fill="#81184E"/>
<path opacity="0.3" d="M75.4368 157.946C75.4298 157.94 75.4209 157.935 75.4114 157.934L71.0076 155.382L27.9831 130.632L11.7834 121.275C10.6326 120.599 9.69441 120.361 9.63185 120.712C9.6272 120.717 9.62373 120.723 9.62164 120.729C9.61955 120.736 9.61889 120.743 9.61974 120.749V121.487C9.61974 122.3 8.48091 122.3 7.07949 121.487C6.55938 121.262 6.10373 120.911 5.75414 120.466C5.40454 120.02 5.17213 119.494 5.07811 118.935V118.135C5.09201 117.958 5.06543 117.781 5.00038 117.616C4.93534 117.451 4.83352 117.303 4.70273 117.184C4.60301 117.122 4.46557 117.046 4.32798 116.971C4.10266 116.846 3.82736 116.684 3.52737 116.508C3.22739 116.333 2.88914 116.133 2.5387 115.933C2.34667 115.805 2.11695 115.747 1.88736 115.767C1.65776 115.788 1.44199 115.886 1.27559 116.045C1.22553 116.072 1.18264 116.111 1.15047 116.158C1.06209 116.247 0.986275 116.348 0.925053 116.458C0.880869 116.507 0.843084 116.562 0.812619 116.621C0.694181 116.818 0.597765 117.028 0.525098 117.246C0.435198 117.483 0.359839 117.725 0.299426 117.972C0.237343 118.247 0.187471 118.522 0.136774 118.823C0.103293 118.992 0.0825549 119.163 0.0747055 119.335C0.0621212 119.473 0.049873 119.598 0.0372887 119.748C0.0118802 120.061 -0.000541231 120.386 1.80741e-05 120.724V130.657H2.50143V120.724C2.50143 120.461 2.51462 120.198 2.52648 119.948L2.58928 119.323C2.58734 119.301 2.59157 119.28 2.6015 119.26C2.82622 121.249 4.72826 123.025 6.37921 123.964C7.29815 124.538 8.34967 124.865 9.43207 124.914C10.2544 124.923 11.0514 124.629 11.671 124.089L11.8964 124.214C12.0462 124.302 12.183 124.389 12.3339 124.477L68.4941 156.833L75.4114 160.824C75.413 160.824 75.4146 160.824 75.4161 160.825C75.4176 160.825 75.419 160.826 75.4202 160.827C75.4213 160.829 75.4222 160.83 75.4228 160.832C75.4234 160.833 75.4237 160.835 75.4236 160.836C75.4368 160.849 75.4489 160.849 75.4742 160.861C76.4611 161.364 77.5564 161.617 78.6639 161.599V158.711C77.5411 158.731 76.4313 158.468 75.4368 157.946Z" fill="black"/>
<path d="M188.533 95.2268V98.1664C188.501 98.5613 188.365 98.9408 188.139 99.266C187.912 99.5912 187.604 99.8506 187.245 100.018L187.195 100.043L88.8214 156.835L81.9163 160.826V160.838C81.9163 160.838 81.9035 160.826 81.9035 160.838C80.9035 161.357 79.7904 161.619 78.6641 161.601V158.711C79.7968 158.737 80.9171 158.47 81.9163 157.936L86.3072 155.396H86.3194L187.195 97.1404C187.573 96.977 187.899 96.7114 188.135 96.3735C188.372 96.0355 188.509 95.6385 188.533 95.2268Z" fill="#81184E"/>
<path opacity="0.2" d="M188.533 95.2268V98.1664C188.501 98.5613 188.365 98.9408 188.139 99.266C187.912 99.5912 187.604 99.8506 187.245 100.018L187.195 100.043L88.8214 156.835L81.9163 160.826V160.838C81.9163 160.838 81.9035 160.826 81.9035 160.838C80.9035 161.357 79.7904 161.619 78.6641 161.601V158.711C79.7968 158.737 80.9171 158.47 81.9163 157.936L86.3072 155.396H86.3194L187.195 97.1404C187.573 96.977 187.899 96.7114 188.135 96.3735C188.372 96.0355 188.509 95.6385 188.533 95.2268Z" fill="black"/>
<path d="M188.533 114.778V117.717C188.501 118.112 188.365 118.492 188.139 118.817C187.913 119.142 187.604 119.402 187.245 119.569L187.195 119.594L88.8214 176.386L81.9163 180.377V180.389C81.9163 180.389 81.9035 180.377 81.9035 180.389C80.9035 180.908 79.7904 181.17 78.6641 181.153V178.262C79.7969 178.288 80.9172 178.021 81.9163 177.487L86.3072 174.948H86.3194L187.195 116.692C187.573 116.529 187.899 116.263 188.136 115.925C188.372 115.587 188.509 115.19 188.533 114.778Z" fill="#81184E"/>
<path opacity="0.2" d="M188.533 114.778V117.717C188.501 118.112 188.365 118.492 188.139 118.817C187.913 119.142 187.604 119.402 187.245 119.569L187.195 119.594L88.8214 176.386L81.9163 180.377V180.389C81.9163 180.389 81.9035 180.377 81.9035 180.389C80.9035 180.908 79.7904 181.17 78.6641 181.153V178.262C79.7969 178.288 80.9172 178.021 81.9163 177.487L86.3072 174.948H86.3194L187.195 116.692C187.573 116.529 187.899 116.263 188.136 115.925C188.372 115.587 188.509 115.19 188.533 114.778Z" fill="black"/>
<path d="M4.9375 107.354L82.5291 151.417L195.991 86.3029L118.408 42.2349L4.9375 107.354Z" fill="#81184E"/>
<path opacity="0.2" d="M4.9375 107.354L82.5291 151.417L195.991 86.3029L118.408 42.2349L4.9375 107.354Z" fill="white"/>
<path d="M83.3121 148.44L8.15119 105.51C9.88172 100.599 9.76232 94.8714 7.79297 88.3286L82.5303 130.856C82.5303 130.856 83.7886 135.004 83.3121 148.44Z" fill="#F5F5F5"/>
<path d="M79.1487 125.489C80.9985 126.685 82.5393 128.301 83.6455 130.206C84.7517 132.11 85.392 134.25 85.514 136.449V149.251C85.514 153.288 82.664 154.923 79.1479 152.906L4.94577 110.525L4.9375 107.354L78.2696 148.999C80.3791 150.21 82.0862 149.228 82.0844 146.807L82.0246 134.942C81.9503 133.622 81.5652 132.338 80.9007 131.195C80.2362 130.053 79.3111 129.083 78.2008 128.365L4.94577 86.7035V83.1084L79.1487 125.489Z" fill="#81184E"/>
<path opacity="0.4" d="M79.1487 125.489C80.9985 126.685 82.5393 128.301 83.6455 130.206C84.7517 132.11 85.392 134.25 85.514 136.449V149.251C85.514 153.288 82.664 154.923 79.1479 152.906L4.94577 110.525L4.9375 107.354L78.2696 148.999C80.3791 150.21 82.0862 149.228 82.0844 146.807L82.0246 134.942C81.9503 133.622 81.5652 132.338 80.9007 131.195C80.2362 130.053 79.3111 129.083 78.2008 128.365L4.94577 86.7035V83.1084L79.1487 125.489Z" fill="white"/>
<path d="M4.94629 83.1157L118.41 18L192.607 60.3766C194.457 61.5727 195.998 63.189 197.104 65.0936C198.21 66.9983 198.851 69.1374 198.973 71.3366L198.975 84.1419C199.057 84.9285 198.927 85.7225 198.599 86.4419C198.27 87.1613 197.756 87.7799 197.109 88.2338L83.645 153.349C84.2926 152.895 84.8071 152.277 85.1353 151.558C85.4636 150.838 85.5936 150.044 85.5121 149.258L85.5214 136.444C85.3991 134.245 84.7587 132.106 83.6527 130.202C82.5467 128.297 81.0063 126.681 79.157 125.485L4.94629 83.1157Z" fill="#81184E"/>
<path opacity="0.85" d="M4.94629 83.1157L118.41 18L192.607 60.3766C194.457 61.5727 195.998 63.189 197.104 65.0936C198.21 66.9983 198.851 69.1374 198.973 71.3366L198.975 84.1419C199.057 84.9285 198.927 85.7225 198.599 86.4419C198.27 87.1613 197.756 87.7799 197.109 88.2338L83.645 153.349C84.2926 152.895 84.8071 152.277 85.1353 151.558C85.4636 150.838 85.5936 150.044 85.5121 149.258L85.5214 136.444C85.3991 134.245 84.7587 132.106 83.6527 130.202C82.5467 128.297 81.0063 126.681 79.157 125.485L4.94629 83.1157Z" fill="white"/>
<path d="M83.659 130.209C84.8033 132.094 85.4451 134.241 85.5229 136.444L85.5135 149.258C85.5951 150.044 85.465 150.838 85.1368 151.558C84.8085 152.277 84.294 152.895 83.6465 153.349L197.11 88.2337C197.757 87.7799 198.272 87.1612 198.6 86.4419C198.928 85.7225 199.058 84.9284 198.977 84.1419L198.975 71.3366C198.897 69.1325 198.255 66.9854 197.11 65.1006L83.659 130.209Z" fill="#81184E"/>
<path opacity="0.6" d="M83.659 130.209C84.8033 132.094 85.4451 134.241 85.5229 136.444L85.5135 149.258C85.5951 150.044 85.465 150.838 85.1368 151.558C84.8085 152.277 84.294 152.895 83.6465 153.349L197.11 88.2337C197.757 87.7799 198.272 87.1612 198.6 86.4419C198.928 85.7225 199.058 84.9284 198.977 84.1419L198.975 71.3366C198.897 69.1325 198.255 66.9854 197.11 65.1006L83.659 130.209Z" fill="white"/>
<path d="M182.154 73.5928C184.217 82.5549 184.187 90.296 182.155 96.8686L176.884 99.9119C178.917 93.3396 178.946 85.5979 176.883 76.6362L182.154 73.5928Z" fill="white"/>
<path d="M106.79 117.104C108.853 126.065 108.824 133.807 106.79 140.379L101.519 143.422C103.552 136.85 103.582 129.108 101.519 120.147L106.79 117.104Z" fill="white"/>
<path class="shadow" opacity="0.3" d="M79.1711 89.3995C89.8487 95.5641 107.16 95.5641 117.837 89.3995C128.515 83.2348 128.515 73.2403 117.837 67.0754C107.16 60.9107 89.8481 60.9107 79.1711 67.0754C68.4938 73.2399 68.4938 83.2348 79.1711 89.3995Z" fill="#81184E"/>

<g class="apple">

  
<path d="M92.3009 34.0301C87.479 33.491 79.0615 32.7151 72.0733 42.4812C64.1149 53.6033 67.4391 69.6999 75.4024 77.6059C85.4061 87.5378 103.143 91.0517 115.265 83.2792C128.669 74.685 132.933 54.7906 126.506 44.679C120.079 34.5677 107.469 34.9783 104.064 35.7835C98.9503 36.9925 96.055 34.4501 92.3009 34.0301Z" fill="#81184E"/>
<path opacity="0.1" d="M109.106 79.6986C95.5853 84.355 79.0535 79.3638 70.1562 69.7899C71.4083 72.6963 73.1868 75.3464 75.4021 77.6063C85.4059 87.5381 103.143 91.052 115.264 83.2799C125.427 76.7633 130.323 63.7569 129.301 53.438C129.302 56.2818 123.986 74.5746 109.106 79.6986Z" fill="black"/>
<g opacity="0.1">
<path opacity="0.1" d="M86.6209 37.4331C83.5845 36.644 78.6473 38.6144 75.5925 42.4107C71.7968 47.1267 70.1782 54.4217 70.1719 59.9265C70.1587 71.0285 79.629 78.4673 80.7949 77.7218C81.9603 76.976 75.5823 68.6334 81.5837 58.6052C87.6737 48.4293 91.5948 38.7253 86.6209 37.4331Z" fill="white"/>
</g>
<g opacity="0.1">
<path opacity="0.1" d="M83.9418 38.77C80.6237 39.2961 76.1364 43.6929 74.5852 47.0829C73.0333 50.4724 73.0862 52.9659 73.4985 53.464C74.2397 54.3593 81.6707 49.2174 84.2188 46.7742C87.829 43.3118 89.2909 37.9214 83.9418 38.77Z" fill="white"/>
</g>
<path opacity="0.2" d="M95.694 44.1093C94.2475 42.4881 92.7862 41.5469 91.6071 43.4134C90.4281 45.2802 94.3533 49.1996 99.5414 48.5946C104.729 47.9893 106.987 45.0609 107.157 43.4152C107.157 43.4152 104.327 46.5679 100.944 46.4101C98.9789 46.2792 97.1218 45.4653 95.694 44.1093Z" fill="black"/>
<path d="M99.7551 47.3318C100.468 42.7318 100.493 38.0514 99.8273 33.4443C98.6628 26.7338 95.4701 21.6261 94.4806 20.9564C92.8631 20.0182 91.0679 19.4274 89.2094 19.2215C86.6696 18.8233 83.3572 20.015 84.0193 21.1308C84.6822 22.2467 88.2129 23.5999 91.943 28.4981C95.6726 33.3958 98.5354 42.1702 97.7219 46.9856C97.9967 47.2237 98.3316 47.3819 98.6901 47.4429C99.0486 47.5039 99.417 47.4655 99.7551 47.3318Z" fill="#37474F"/>
<path d="M94.3102 20.8497C94.235 20.8027 94.1641 20.7549 94.0811 20.7083L94.0557 20.6945C92.5369 19.9303 90.8984 19.4321 89.2112 19.2215C87.4804 18.9329 85.7044 19.3072 84.2372 20.2697C84.002 20.6055 84.4749 21.1931 86.687 21.8983C88.8703 22.6124 91.194 22.7878 93.4597 22.4096C94.5067 22.2178 95.0367 21.4092 94.3102 20.8497Z" fill="#455A64"/>
<path opacity="0.1" d="M97.8162 38.7862C96.7906 32.7355 91.5485 26.9464 87.76 24.1353L87.7598 24.1355C89.3187 25.4222 90.7224 26.8862 91.9423 28.498C95.6719 33.3957 98.5347 42.1701 97.7212 46.9849C97.996 47.2231 98.331 47.3814 98.6896 47.4425C99.0481 47.5035 99.4166 47.4651 99.7548 47.3312C99.7548 47.3312 100.051 45.6018 100.216 43.0535C99.6938 45.3586 98.7617 44.3631 97.8162 38.7862Z" fill="black"/>
<path d="M100.25 37.1771C102.257 37.8358 104.402 37.9567 106.47 37.5279C108.538 37.099 110.458 36.1353 112.037 34.7329C116.309 30.7325 115.052 24.372 115.052 24.372C113.356 23.7676 111.54 23.5785 109.756 23.8206C107.972 24.0627 106.272 24.7289 104.798 25.7635C101.158 28.3647 99.7036 34.347 100.25 37.1771Z" fill="#81184E"/>
<path opacity="0.3" d="M100.25 37.1771C102.257 37.8358 104.402 37.9567 106.47 37.5279C108.538 37.099 110.458 36.1353 112.037 34.7329C116.309 30.7325 115.052 24.372 115.052 24.372C113.356 23.7676 111.54 23.5785 109.756 23.8206C107.972 24.0627 106.272 24.7289 104.798 25.7635C101.158 28.3647 99.7036 34.347 100.25 37.1771Z" fill="#EF2929"/>
<path d="M115.052 24.372C113.356 23.7676 111.54 23.5785 109.756 23.8206C107.972 24.0627 106.272 24.7289 104.798 25.7635C101.158 28.3647 99.7036 34.347 100.25 37.1771C104.596 28.8212 115.052 24.372 115.052 24.372Z" fill="#81184E"/>

</g>


<style>
  .shadow {
    animation: 3s ease-in-out infinite shadowanim;
    stroke-dashoffset: 0;
  }
  
  @keyframes shadowanim {
  0%{
    transform: translateY(0px);
  }
  50%{
    transform: translateY(4px);
  }
  100%{
    transform: translateY(0px);
  }
  }
  
  .apple {
    animation: 3s ease-in-out infinite appleanim;
    stroke-dashoffset: 0;
  }
  
  @keyframes appleanim {
  0%{
    transform: translateY(0px);
  }
  50%{
    transform: translateY(-6px);
  }
  100%{
    transform: translateY(0px);
  }
  }
  </style>
</svg>
