<svg width="199" height="164" viewBox="0 0 199 164" fill="none" xmlns="http://www.w3.org/2000/svg">
<path d="M4.96845 121.384L8.16571 119.677L5.25407 118.98C4.97832 119.31 4.80447 119.713 4.75375 120.14C4.70304 120.566 4.77764 120.999 4.96845 121.384Z" fill="#81184E"/>
<path opacity="0.5" d="M4.96845 121.384L8.16571 119.677L5.25407 118.98C4.97832 119.31 4.80447 119.713 4.75375 120.14C4.70304 120.566 4.77764 120.999 4.96845 121.384Z" fill="black"/>
<path d="M81.9117 159.49C80.9045 160.001 79.791 160.268 78.6616 160.268C77.5322 160.268 76.4187 160.002 75.4114 159.491L10.168 121.894L119.399 59.8457L121.951 58.3694L187.193 94.9425C188.981 95.9808 188.981 97.6691 187.193 98.6954L81.9117 159.49Z" fill="#81184E"/>
<path d="M62.2394 85.4617L36.7935 100.107L20.3201 90.5972L1.1582 101.668V114.454C1.1582 116.128 3.03495 118.513 3.71799 118.121C4.98083 118.426 6.20855 118.862 7.38137 119.421C9.2936 120.51 11.069 121.823 12.6698 123.333L71.1399 90.6009L62.2394 85.4617Z" fill="#81184E"/>
<path opacity="0.15" d="M62.2394 85.4617L36.7935 100.107L20.3201 90.5972L1.1582 101.668V114.454C1.1582 116.128 3.03495 118.513 3.71799 118.121C4.98083 118.426 6.20855 118.862 7.38137 119.421C9.2936 120.51 11.069 121.823 12.6698 123.333L71.1399 90.6009L62.2394 85.4617Z" fill="black"/>
<path d="M11.6736 103.207V117.087C11.5961 117.031 11.5191 116.988 11.4492 116.946C10.5088 116.365 9.43724 116.031 8.33336 115.973C7.61466 115.901 6.89246 116.071 6.28125 116.456V100.091L11.6736 103.207Z" fill="#37474F"/>
<path d="M15.2524 121.855C15.1922 120.991 14.8724 120.166 14.3349 119.488C14.0666 119.119 13.7667 118.775 13.4385 118.458C13.34 118.36 13.2351 118.262 13.1304 118.164C12.9967 118.052 12.8641 117.941 12.7309 117.828C12.6191 117.744 12.5066 117.66 12.3946 117.576C12.1568 117.401 11.912 117.24 11.6738 117.093V103.27L15.2382 105.335V105.265L15.2524 121.855Z" fill="#E0E0E0"/>
<path opacity="0.4" d="M1.1582 114.454C1.1582 116.129 3.03495 118.514 3.71799 118.121H3.71872L6.27872 116.458V105.906L3.71404 101.494L2.31703 100.998L1.1582 101.668V114.454Z" fill="black"/>
<path d="M78.6643 141.811V157.648C77.9106 157.669 77.1647 157.492 76.5003 157.136L68.4944 152.519L15.2489 121.852L15.2363 105.263L78.6643 141.811Z" fill="#EBEBEB"/>
<path d="M185.368 82.3154V94.2755C185.326 95.0266 185.108 95.7573 184.732 96.409C184.357 97.0607 183.833 97.6152 183.205 98.0281L88.8214 152.519L80.8277 157.136C80.1634 157.492 79.4176 157.668 78.6641 157.648V143.598L185.368 82.3154Z" fill="#F5F5F5"/>
<path d="M119.401 39.2645L10.1699 102.336V103.799C10.1699 104.613 9.0313 104.913 7.63024 104.1C6.2166 103.287 5.07788 102.273 5.07788 100.872L4.94043 99.4836L116.236 35.2355L116.686 34.9731C116.802 35.1801 116.866 35.4117 116.874 35.6486V36.3245C116.874 37.1378 118 38.4383 119.401 39.2645Z" fill="#81184E"/>
<path opacity="0.1" d="M119.401 39.2645L10.1699 102.336V103.799C10.1699 104.613 9.0313 104.913 7.63024 104.1C6.2166 103.287 5.07788 102.273 5.07788 100.872L4.94043 99.4836L116.236 35.2355L116.686 34.9731C116.802 35.1801 116.866 35.4117 116.874 35.6486V36.3245C116.874 37.1378 118 38.4383 119.401 39.2645Z" fill="black"/>
<path d="M75.4133 139.934L11.7871 103.269C10.8803 102.794 10.0527 102.413 9.70312 102.596L10.1698 102.336L119.401 39.2643C119.401 39.2643 120.043 38.8961 120.678 38.5281C121.254 38.3553 121.861 38.3116 122.456 38.3998C123.051 38.4881 123.619 38.7063 124.12 39.0389L187.194 75.3848C188.983 76.4239 188.983 78.1124 187.194 79.1375L81.9135 139.933C80.9063 140.444 79.7929 140.71 78.6635 140.71C77.5341 140.711 76.4205 140.445 75.4133 139.934Z" fill="#81184E"/>
<path d="M116.687 34.9733L116.236 35.2357L4.94066 99.4838C4.88546 99.3668 4.80403 99.2641 4.70273 99.1837C4.60301 99.1216 4.47779 99.0582 4.32798 98.9711L3.52737 98.5083C3.22727 98.3331 2.88914 98.1332 2.5387 97.9325C2.34667 97.805 2.11695 97.7467 1.88736 97.7672C1.65776 97.7877 1.44199 97.8858 1.27559 98.0453C1.22553 98.0724 1.18264 98.111 1.15047 98.158C1.01859 98.2972 0.905055 98.4527 0.812619 98.6207C0.694181 98.8181 0.597764 99.0278 0.525098 99.2462C0.435198 99.4832 0.359839 99.7254 0.299426 99.9716C0.237343 100.247 0.187471 100.522 0.136774 100.823C0.103293 100.992 0.0825549 101.163 0.0747055 101.335C0.0621212 101.473 0.049873 101.598 0.0372886 101.748C0.0118802 102.061 -0.000541231 102.386 1.80741e-05 102.724V99.5969C0.116244 98.5676 0.470648 97.5794 1.03515 96.7108C1.59964 95.8422 2.35871 95.117 3.25218 94.5928L108.543 33.7974C109.411 33.2871 110.386 32.9844 111.39 32.9128C112.395 32.8412 113.403 33.0027 114.335 33.3847L115.661 34.1603L115.711 34.1851C115.798 34.2479 116.024 34.3728 116.274 34.5106C116.276 34.5106 116.277 34.5109 116.279 34.5115C116.28 34.5122 116.282 34.5131 116.283 34.5143C116.284 34.5155 116.285 34.5168 116.285 34.5184C116.286 34.5199 116.286 34.5216 116.286 34.5232C116.459 34.6329 116.598 34.7888 116.687 34.9733Z" fill="#81184E"/>
<path d="M75.4113 159.487L71.0075 156.935L12.6717 123.328C12.6195 122.467 12.3051 121.642 11.7708 120.964C10.9896 119.93 10.0066 119.066 8.88133 118.424C7.94203 117.842 6.87048 117.506 5.76651 117.449C5.02645 117.438 4.30421 117.676 3.71491 118.124C2.86092 116.431 2.44375 114.552 2.50141 112.657H0C0 116.11 1.13774 119.576 2.53868 120.376L3.80251 121.114C4.51575 121.527 5.07809 121.552 5.07809 121.164V120.489C5.07809 119.738 6.2168 119.775 7.63045 120.589C9.0315 121.401 10.1701 122.665 10.1701 123.416V124.092C10.1701 124.479 11.1453 125.342 12.3339 126.03L68.494 158.386L75.4113 162.377C75.413 162.377 75.4146 162.377 75.4161 162.378C75.4176 162.378 75.419 162.379 75.4202 162.38C75.4213 162.382 75.4222 162.383 75.4228 162.384C75.4234 162.386 75.4236 162.388 75.4236 162.389C76.4239 162.908 77.5373 163.17 78.6639 163.153V160.263C77.531 160.289 76.4106 160.021 75.4113 159.487Z" fill="#81184E"/>
<path opacity="0.3" d="M75.4113 159.487L71.0075 156.935L12.6717 123.328C12.6195 122.467 12.3051 121.642 11.7708 120.964C10.9896 119.93 10.0066 119.066 8.88133 118.424C7.94203 117.842 6.87048 117.506 5.76651 117.449C5.02645 117.438 4.30421 117.676 3.71491 118.124C2.86092 116.431 2.44375 114.552 2.50141 112.657H0C0 116.11 1.13774 119.576 2.53868 120.376L3.80251 121.114C4.51575 121.527 5.07809 121.552 5.07809 121.164V120.489C5.07809 119.738 6.2168 119.775 7.63045 120.589C9.0315 121.401 10.1701 122.665 10.1701 123.416V124.092C10.1701 124.479 11.1453 125.342 12.3339 126.03L68.494 158.386L75.4113 162.377C75.413 162.377 75.4146 162.377 75.4161 162.378C75.4176 162.378 75.419 162.379 75.4202 162.38C75.4213 162.382 75.4222 162.383 75.4228 162.384C75.4234 162.386 75.4236 162.388 75.4236 162.389C76.4239 162.908 77.5373 163.17 78.6639 163.153V160.263C77.531 160.289 76.4106 160.021 75.4113 159.487Z" fill="black"/>
<path d="M75.4368 139.946C75.4298 139.94 75.4209 139.935 75.4114 139.934L71.0076 137.382L27.9831 112.632L11.7834 103.275C10.6326 102.599 9.69441 102.361 9.63185 102.712C9.6272 102.717 9.62373 102.723 9.62164 102.729C9.61955 102.736 9.61889 102.743 9.61974 102.749V103.487C9.61974 104.3 8.48091 104.3 7.07949 103.487C6.55938 103.262 6.10373 102.911 5.75414 102.466C5.40454 102.02 5.17213 101.494 5.07811 100.935V100.135C5.09201 99.9581 5.06543 99.7806 5.00038 99.6158C4.93534 99.451 4.83352 99.3032 4.70273 99.1837C4.60301 99.1216 4.46557 99.0462 4.32798 98.9712C4.10266 98.8459 3.82736 98.6835 3.52737 98.5083C3.22739 98.3331 2.88914 98.1332 2.5387 97.9326C2.34667 97.805 2.11695 97.7467 1.88736 97.7672C1.65776 97.7877 1.44199 97.8858 1.27559 98.0453C1.22553 98.0724 1.18264 98.111 1.15047 98.158C1.06209 98.2472 0.986275 98.3481 0.925053 98.4578C0.880869 98.5071 0.843084 98.5619 0.812619 98.6207C0.694181 98.8181 0.597765 99.0279 0.525098 99.2462C0.435198 99.4832 0.359839 99.7254 0.299426 99.9716C0.237343 100.247 0.187471 100.522 0.136774 100.823C0.103293 100.992 0.0825549 101.163 0.0747055 101.335C0.0621212 101.473 0.049873 101.598 0.0372887 101.748C0.0118802 102.061 -0.000541231 102.386 1.80741e-05 102.724V112.657H2.50143V102.724C2.50143 102.461 2.51462 102.198 2.52648 101.948L2.58928 101.323C2.58734 101.301 2.59157 101.28 2.6015 101.26C2.82622 103.249 4.72826 105.025 6.37921 105.964C7.29815 106.538 8.34967 106.865 9.43207 106.914C10.2544 106.923 11.0514 106.629 11.671 106.089L11.8964 106.214C12.0462 106.302 12.183 106.389 12.3339 106.477L68.4941 138.833L75.4114 142.824C75.413 142.824 75.4146 142.824 75.4161 142.825C75.4176 142.825 75.419 142.826 75.4202 142.827C75.4213 142.829 75.4222 142.83 75.4228 142.832C75.4234 142.833 75.4237 142.835 75.4236 142.836C75.4368 142.849 75.4489 142.849 75.4742 142.861C76.4611 143.364 77.5564 143.617 78.6639 143.599V140.711C77.5411 140.731 76.4313 140.468 75.4368 139.946Z" fill="#81184E"/>
<path opacity="0.3" d="M75.4368 139.946C75.4298 139.94 75.4209 139.935 75.4114 139.934L71.0076 137.382L27.9831 112.632L11.7834 103.275C10.6326 102.599 9.69441 102.361 9.63185 102.712C9.6272 102.717 9.62373 102.723 9.62164 102.729C9.61955 102.736 9.61889 102.743 9.61974 102.749V103.487C9.61974 104.3 8.48091 104.3 7.07949 103.487C6.55938 103.262 6.10373 102.911 5.75414 102.466C5.40454 102.02 5.17213 101.494 5.07811 100.935V100.135C5.09201 99.9581 5.06543 99.7806 5.00038 99.6158C4.93534 99.451 4.83352 99.3032 4.70273 99.1837C4.60301 99.1216 4.46557 99.0462 4.32798 98.9712C4.10266 98.8459 3.82736 98.6835 3.52737 98.5083C3.22739 98.3331 2.88914 98.1332 2.5387 97.9326C2.34667 97.805 2.11695 97.7467 1.88736 97.7672C1.65776 97.7877 1.44199 97.8858 1.27559 98.0453C1.22553 98.0724 1.18264 98.111 1.15047 98.158C1.06209 98.2472 0.986275 98.3481 0.925053 98.4578C0.880869 98.5071 0.843084 98.5619 0.812619 98.6207C0.694181 98.8181 0.597765 99.0279 0.525098 99.2462C0.435198 99.4832 0.359839 99.7254 0.299426 99.9716C0.237343 100.247 0.187471 100.522 0.136774 100.823C0.103293 100.992 0.0825549 101.163 0.0747055 101.335C0.0621212 101.473 0.049873 101.598 0.0372887 101.748C0.0118802 102.061 -0.000541231 102.386 1.80741e-05 102.724V112.657H2.50143V102.724C2.50143 102.461 2.51462 102.198 2.52648 101.948L2.58928 101.323C2.58734 101.301 2.59157 101.28 2.6015 101.26C2.82622 103.249 4.72826 105.025 6.37921 105.964C7.29815 106.538 8.34967 106.865 9.43207 106.914C10.2544 106.923 11.0514 106.629 11.671 106.089L11.8964 106.214C12.0462 106.302 12.183 106.389 12.3339 106.477L68.4941 138.833L75.4114 142.824C75.413 142.824 75.4146 142.824 75.4161 142.825C75.4176 142.825 75.419 142.826 75.4202 142.827C75.4213 142.829 75.4222 142.83 75.4228 142.832C75.4234 142.833 75.4237 142.835 75.4236 142.836C75.4368 142.849 75.4489 142.849 75.4742 142.861C76.4611 143.364 77.5564 143.617 78.6639 143.599V140.711C77.5411 140.731 76.4313 140.468 75.4368 139.946Z" fill="black"/>
<path d="M188.533 77.2268V80.1664C188.501 80.5613 188.365 80.9408 188.139 81.266C187.912 81.5912 187.604 81.8506 187.245 82.0177L187.195 82.0427L88.8214 138.835L81.9163 142.826V142.838C81.9163 142.838 81.9035 142.826 81.9035 142.838C80.9035 143.357 79.7904 143.619 78.6641 143.601V140.711C79.7968 140.737 80.9171 140.47 81.9163 139.936L86.3072 137.396H86.3194L187.195 79.1404C187.573 78.977 187.899 78.7114 188.135 78.3735C188.372 78.0355 188.509 77.6385 188.533 77.2268Z" fill="#81184E"/>
<path opacity="0.2" d="M188.533 77.2268V80.1664C188.501 80.5613 188.365 80.9408 188.139 81.266C187.912 81.5912 187.604 81.8506 187.245 82.0177L187.195 82.0427L88.8214 138.835L81.9163 142.826V142.838C81.9163 142.838 81.9035 142.826 81.9035 142.838C80.9035 143.357 79.7904 143.619 78.6641 143.601V140.711C79.7968 140.737 80.9171 140.47 81.9163 139.936L86.3072 137.396H86.3194L187.195 79.1404C187.573 78.977 187.899 78.7114 188.135 78.3735C188.372 78.0355 188.509 77.6385 188.533 77.2268Z" fill="black"/>
<path d="M188.533 96.7778V99.7174C188.501 100.112 188.365 100.492 188.139 100.817C187.913 101.142 187.604 101.402 187.245 101.569L187.195 101.594L88.8214 158.386L81.9163 162.377V162.389C81.9163 162.389 81.9035 162.377 81.9035 162.389C80.9035 162.908 79.7904 163.17 78.6641 163.153V160.262C79.7969 160.288 80.9172 160.021 81.9163 159.487L86.3072 156.948H86.3194L187.195 98.692C187.573 98.5285 187.899 98.2629 188.136 97.9248C188.372 97.5868 188.509 97.1896 188.533 96.7778Z" fill="#81184E"/>
<path opacity="0.2" d="M188.533 96.7778V99.7174C188.501 100.112 188.365 100.492 188.139 100.817C187.913 101.142 187.604 101.402 187.245 101.569L187.195 101.594L88.8214 158.386L81.9163 162.377V162.389C81.9163 162.389 81.9035 162.377 81.9035 162.389C80.9035 162.908 79.7904 163.17 78.6641 163.153V160.262C79.7969 160.288 80.9172 160.021 81.9163 159.487L86.3072 156.948H86.3194L187.195 98.692C187.573 98.5285 187.899 98.2629 188.136 97.9248C188.372 97.5868 188.509 97.1896 188.533 96.7778Z" fill="black"/>
<path d="M4.9375 89.3535L82.5291 133.417L195.991 68.3029L118.408 24.2349L4.9375 89.3535Z" fill="#81184E"/>
<path opacity="0.2" d="M4.9375 89.3535L82.5291 133.417L195.991 68.3029L118.408 24.2349L4.9375 89.3535Z" fill="white"/>
<path d="M83.3121 130.44L8.15119 87.5103C9.88172 82.5986 9.76232 76.8714 7.79297 70.3286L82.5303 112.856C82.5303 112.856 83.7886 117.004 83.3121 130.44Z" fill="#F5F5F5"/>
<path d="M79.1487 107.489C80.9985 108.685 82.5393 110.301 83.6455 112.206C84.7517 114.11 85.392 116.25 85.514 118.449V131.251C85.514 135.288 82.664 136.923 79.1479 134.906L4.94577 92.5252L4.9375 89.3539L78.2696 130.999C80.3791 132.21 82.0862 131.228 82.0844 128.807L82.0246 116.942C81.9503 115.622 81.5652 114.338 80.9007 113.195C80.2362 112.053 79.3111 111.083 78.2008 110.365L4.94577 68.7035V65.1084L79.1487 107.489Z" fill="#81184E"/>
<path opacity="0.4" d="M79.1487 107.489C80.9985 108.685 82.5393 110.301 83.6455 112.206C84.7517 114.11 85.392 116.25 85.514 118.449V131.251C85.514 135.288 82.664 136.923 79.1479 134.906L4.94577 92.5252L4.9375 89.3539L78.2696 130.999C80.3791 132.21 82.0862 131.228 82.0844 128.807L82.0246 116.942C81.9503 115.622 81.5652 114.338 80.9007 113.195C80.2362 112.053 79.3111 111.083 78.2008 110.365L4.94577 68.7035V65.1084L79.1487 107.489Z" fill="white"/>
<path d="M4.94629 65.1157L118.41 0L192.607 42.3766C194.457 43.5727 195.998 45.189 197.104 47.0936C198.21 48.9983 198.851 51.1374 198.973 53.3366L198.975 66.1419C199.057 66.9285 198.927 67.7225 198.599 68.4419C198.27 69.1613 197.756 69.7799 197.109 70.2338L83.645 135.349C84.2926 134.895 84.8071 134.277 85.1353 133.558C85.4636 132.838 85.5936 132.044 85.5121 131.258L85.5214 118.444C85.3991 116.245 84.7587 114.106 83.6527 112.202C82.5467 110.297 81.0063 108.681 79.157 107.485L4.94629 65.1157Z" fill="#81184E"/>
<path opacity="0.85" d="M4.94629 65.1157L118.41 0L192.607 42.3766C194.457 43.5727 195.998 45.189 197.104 47.0936C198.21 48.9983 198.851 51.1374 198.973 53.3366L198.975 66.1419C199.057 66.9285 198.927 67.7225 198.599 68.4419C198.27 69.1613 197.756 69.7799 197.109 70.2338L83.645 135.349C84.2926 134.895 84.8071 134.277 85.1353 133.558C85.4636 132.838 85.5936 132.044 85.5121 131.258L85.5214 118.444C85.3991 116.245 84.7587 114.106 83.6527 112.202C82.5467 110.297 81.0063 108.681 79.157 107.485L4.94629 65.1157Z" fill="white"/>
<path d="M83.659 112.209C84.8033 114.094 85.4451 116.241 85.5229 118.444L85.5135 131.258C85.5951 132.044 85.465 132.838 85.1368 133.558C84.8085 134.277 84.294 134.895 83.6465 135.349L197.11 70.2337C197.757 69.7799 198.272 69.1612 198.6 68.4419C198.928 67.7225 199.058 66.9284 198.977 66.1419L198.975 53.3366C198.897 51.1325 198.255 48.9854 197.11 47.1006L83.659 112.209Z" fill="#81184E"/>
<path opacity="0.6" d="M83.659 112.209C84.8033 114.094 85.4451 116.241 85.5229 118.444L85.5135 131.258C85.5951 132.044 85.465 132.838 85.1368 133.558C84.8085 134.277 84.294 134.895 83.6465 135.349L197.11 70.2337C197.757 69.7799 198.272 69.1612 198.6 68.4419C198.928 67.7225 199.058 66.9284 198.977 66.1419L198.975 53.3366C198.897 51.1325 198.255 48.9854 197.11 47.1006L83.659 112.209Z" fill="white"/>
<path d="M182.154 55.5928C184.217 64.5549 184.187 72.296 182.155 78.8686L176.884 81.9119C178.917 75.3396 178.946 67.5979 176.883 58.6362L182.154 55.5928Z" fill="white"/>
<path d="M106.79 99.1035C108.853 108.065 108.824 115.807 106.79 122.379L101.519 125.422C103.552 118.85 103.582 111.108 101.519 102.147L106.79 99.1035Z" fill="white"/>
<path opacity="0.3" d="M79.1711 71.3995C89.8487 77.5641 107.16 77.5641 117.837 71.3995C128.515 65.2348 128.515 55.2403 117.837 49.0754C107.16 42.9107 89.8481 42.9107 79.1711 49.0754C68.4938 55.2399 68.4938 65.2348 79.1711 71.3995Z" fill="#81184E"/>
<path d="M92.3009 16.0301C87.479 15.491 79.0615 14.7151 72.0733 24.4812C64.1149 35.6033 67.4391 51.6999 75.4024 59.6059C85.4061 69.5378 103.143 73.0517 115.265 65.2792C128.669 56.685 132.933 36.7906 126.506 26.679C120.079 16.5677 107.469 16.9783 104.064 17.7835C98.9503 18.9925 96.055 16.4501 92.3009 16.0301Z" fill="#81184E"/>
<path opacity="0.1" d="M109.106 61.6986C95.5853 66.355 79.0535 61.3638 70.1562 51.7899C71.4083 54.6963 73.1868 57.3464 75.4021 59.6063C85.4059 69.5381 103.143 73.052 115.264 65.2799C125.427 58.7633 130.323 45.7569 129.301 35.438C129.302 38.2818 123.986 56.5746 109.106 61.6986Z" fill="black"/>
<g opacity="0.1">
<path opacity="0.1" d="M86.6209 19.4331C83.5845 18.644 78.6473 20.6144 75.5925 24.4107C71.7968 29.1267 70.1782 36.4217 70.1719 41.9265C70.1587 53.0285 79.629 60.4673 80.7949 59.7218C81.9603 58.976 75.5823 50.6334 81.5837 40.6052C87.6737 30.4293 91.5948 20.7253 86.6209 19.4331Z" fill="white"/>
</g>
<g opacity="0.1">
<path opacity="0.1" d="M83.9418 20.77C80.6237 21.2961 76.1364 25.6929 74.5852 29.0829C73.0333 32.4724 73.0862 34.9659 73.4985 35.464C74.2397 36.3593 81.6707 31.2174 84.2188 28.7742C87.829 25.3118 89.2909 19.9214 83.9418 20.77Z" fill="white"/>
</g>
<path opacity="0.2" d="M95.694 26.1093C94.2475 24.4881 92.7862 23.5469 91.6071 25.4134C90.4281 27.2802 94.3533 31.1996 99.5414 30.5946C104.729 29.9893 106.987 27.0609 107.157 25.4152C107.157 25.4152 104.327 28.5679 100.944 28.4101C98.9789 28.2792 97.1218 27.4653 95.694 26.1093Z" fill="black"/>
<path d="M99.7551 29.3318C100.468 24.7318 100.493 20.0514 99.8273 15.4443C98.6628 8.7338 95.4701 3.62611 94.4806 2.95639C92.8631 2.01825 91.0679 1.4274 89.2094 1.22153C86.6696 0.823266 83.3572 2.01497 84.0193 3.13078C84.6822 4.24671 88.2129 5.59994 91.943 10.4981C95.6726 15.3958 98.5354 24.1702 97.7219 28.9856C97.9967 29.2237 98.3316 29.3819 98.6901 29.4429C99.0486 29.5039 99.417 29.4655 99.7551 29.3318Z" fill="#37474F"/>
<path d="M94.3102 2.84965C94.235 2.80267 94.1641 2.75495 94.0811 2.70832L94.0557 2.69453C92.5369 1.93033 90.8984 1.43209 89.2112 1.22145C87.4804 0.93292 85.7044 1.30719 84.2372 2.26967C84.002 2.60549 84.4749 3.19315 86.687 3.89835C88.8703 4.61242 91.194 4.78781 93.4597 4.4096C94.5067 4.21784 95.0367 3.40924 94.3102 2.84965Z" fill="#455A64"/>
<path opacity="0.1" d="M97.8162 20.7862C96.7906 14.7355 91.5485 8.94636 87.76 6.13525L87.7598 6.13551C89.3187 7.4222 90.7224 8.88623 91.9423 10.498C95.6719 15.3957 98.5347 24.1701 97.7212 28.9849C97.996 29.2231 98.331 29.3814 98.6896 29.4425C99.0481 29.5035 99.4166 29.4651 99.7548 29.3312C99.7548 29.3312 100.051 27.6018 100.216 25.0535C99.6938 27.3586 98.7617 26.3631 97.8162 20.7862Z" fill="black"/>
<path d="M100.25 19.1771C102.257 19.8358 104.402 19.9567 106.47 19.5279C108.538 19.099 110.458 18.1353 112.037 16.7329C116.309 12.7325 115.052 6.37205 115.052 6.37205C113.356 5.76758 111.54 5.57845 109.756 5.82056C107.972 6.06267 106.272 6.72892 104.798 7.7635C101.158 10.3647 99.7036 16.347 100.25 19.1771Z" fill="#81184E"/>
<path opacity="0.3" d="M100.25 19.1771C102.257 19.8358 104.402 19.9567 106.47 19.5279C108.538 19.099 110.458 18.1353 112.037 16.7329C116.309 12.7325 115.052 6.37205 115.052 6.37205C113.356 5.76758 111.54 5.57845 109.756 5.82056C107.972 6.06267 106.272 6.72892 104.798 7.7635C101.158 10.3647 99.7036 16.347 100.25 19.1771Z" fill="#EF2929"/>
<path d="M115.052 6.37205C113.356 5.76758 111.54 5.57845 109.756 5.82056C107.972 6.06267 106.272 6.72892 104.798 7.7635C101.158 10.3647 99.7036 16.347 100.25 19.1771C104.596 10.8212 115.052 6.37205 115.052 6.37205Z" fill="#81184E"/>
</svg>
