<svg width="36" height="36" viewBox="0 0 36 36" fill="none" xmlns="http://www.w3.org/2000/svg">
<path d="M18.3 14.7667V23.5667V14.7667ZM18.3 23.5667L13.6714 19.1667L18.3 23.5667ZM18.3 23.5667L22.9286 19.1667L18.3 23.5667ZM26.0143 30.9H10.5857C9.76733 30.9 8.98247 30.591 8.40378 30.0408C7.8251 29.4907 7.5 28.7446 7.5 27.9667V7.43333C7.5 6.65536 7.8251 5.90926 8.40378 5.35915C8.98247 4.80905 9.76733 4.5 10.5857 4.5H19.2041C19.6133 4.50008 20.0056 4.65466 20.2949 4.92973L28.6479 12.8703C28.9373 13.1453 29.0999 13.5182 29.1 13.9072V27.9667C29.1 28.7446 28.7749 29.4907 28.1962 30.0408C27.6175 30.591 26.8327 30.9 26.0143 30.9Z" stroke="white" stroke-width="1.5" stroke-linecap="round" stroke-linejoin="round"/>
</svg>
