<svg width="21" height="21" viewBox="0 0 21 21" fill="none" xmlns="http://www.w3.org/2000/svg">
<g clip-path="url(#clip0_190_3059)">
<path d="M10.6733 0.496582C5.14693 0.496582 0.669922 4.97423 0.669922 10.5C0.669922 16.0257 5.14757 20.5034 10.6733 20.5034C16.1997 20.5034 20.6767 16.0257 20.6767 10.5C20.6767 4.97423 16.1991 0.496582 10.6733 0.496582ZM15.5866 7.34988L13.9448 15.0867C13.8234 15.6353 13.4969 15.7682 13.0412 15.5101L10.5404 13.6669L9.33415 14.8285C9.20121 14.9615 9.08826 15.0744 8.83011 15.0744L9.00759 12.5291L13.6421 8.34183C13.8441 8.16435 13.5975 8.06367 13.331 8.24115L7.60324 11.8469L5.13466 11.0763C4.59835 10.9072 4.58609 10.54 5.2476 10.2818L14.8922 6.56251C15.3401 6.40117 15.7318 6.67223 15.5866 7.34988Z" fill="white"/>
</g>
<defs>
<clipPath id="clip0_190_3059">
<rect width="20.6522" height="20.6522" fill="white" transform="translate(0.347656 0.173828)"/>
</clipPath>
</defs>
</svg>
