<svg width="562" height="394" viewBox="0 0 562 394" fill="none" xmlns="http://www.w3.org/2000/svg">
<path d="M376.416 237.904C377.174 233.263 379.547 229.037 383.118 225.967C386.69 222.897 391.232 221.179 395.947 221.116C438.194 220.556 545.767 219.586 551.537 224.156C558.726 229.85 562.484 232.764 561.921 241.797C561.404 250.097 552.33 393.395 552.33 393.395H351.016L376.416 237.904Z" fill="#455A64"/>
<path d="M529.402 393.469C529.368 393.331 529.348 393.189 529.343 393.047C529.316 392.735 529.281 392.325 529.236 391.806C529.154 390.674 529.037 389.071 528.887 387.026C528.729 384.951 528.566 382.41 528.474 379.455C528.37 376.501 528.181 373.139 528.178 369.417C528.157 367.555 528.135 365.608 528.112 363.575C528.095 361.544 528.163 359.432 528.186 357.244C528.204 352.866 528.445 348.196 528.653 343.279C529.209 333.453 530.146 322.666 531.655 311.406C533.218 300.149 535.205 289.501 537.301 279.882C538.418 275.087 539.438 270.521 540.594 266.297C541.157 264.181 541.658 262.127 542.219 260.173C542.785 258.222 543.328 256.352 543.847 254.561C544.847 250.974 545.93 247.783 546.823 244.963C547.703 242.14 548.541 239.734 549.249 237.776C549.941 235.844 550.483 234.331 550.866 233.262L551.301 232.094C551.344 231.958 551.401 231.827 551.47 231.703C551.448 231.844 551.412 231.982 551.363 232.116C551.268 232.415 551.144 232.808 550.987 233.304C550.631 234.382 550.127 235.908 549.484 237.855C548.812 239.824 548.009 242.239 547.162 245.07C546.303 247.898 545.251 251.094 544.28 254.685C543.774 256.475 543.245 258.348 542.693 260.302C542.146 262.257 541.657 264.311 541.106 266.427C539.974 270.651 538.975 275.215 537.875 280.007C535.813 289.619 533.847 300.252 532.286 311.491C530.78 322.734 529.827 333.501 529.239 343.311C529.015 348.219 528.755 352.883 528.715 357.254C528.679 359.438 528.6 361.548 528.604 363.577C528.612 365.605 528.62 367.55 528.628 369.411C528.602 373.129 528.76 376.489 528.83 379.442C528.888 382.396 529.015 384.936 529.135 387.013C529.233 389.06 529.31 390.664 529.365 391.797C529.383 392.318 529.397 392.729 529.408 393.043C529.42 393.184 529.418 393.327 529.402 393.469Z" fill="#263238"/>
<path d="M416.198 293.243C416.193 293.222 416.297 293.182 416.505 293.125C416.813 293.058 417.13 293.04 417.444 293.072C418.029 293.143 418.592 293.334 419.099 293.633C419.606 293.932 420.045 294.332 420.389 294.808C420.894 295.534 421.189 296.384 421.241 297.266C421.294 298.148 421.102 299.027 420.686 299.808C420.236 300.742 419.56 301.551 418.718 302.159C417.801 302.805 416.72 303.181 415.599 303.244C414.465 303.337 413.332 303.043 412.387 302.411C411.507 301.795 410.908 300.855 410.721 299.799C410.57 298.933 410.632 298.044 410.9 297.208C411.169 296.371 411.636 295.611 412.263 294.993C414.524 293.07 416.527 293.002 416.484 293.191C416.474 293.215 416.372 293.202 416.174 293.247C415.884 293.321 415.6 293.417 415.325 293.536C414.306 293.952 413.375 294.555 412.579 295.313C412.037 295.891 411.639 296.588 411.417 297.347C411.194 298.106 411.153 298.907 411.297 299.684C411.468 300.584 411.988 301.381 412.744 301.901C413.577 302.444 414.569 302.694 415.561 302.61C416.563 302.554 417.53 302.223 418.356 301.652C419.12 301.109 419.739 300.387 420.159 299.551C420.544 298.861 420.734 298.08 420.71 297.291C420.686 296.502 420.448 295.734 420.023 295.069C419.414 294.167 418.476 293.538 417.409 293.317C417.007 293.272 416.603 293.247 416.198 293.243Z" fill="#263238"/>
<path d="M447.769 275.04C445.967 274.967 444.162 274.986 442.362 275.098C438.026 275.476 433.867 276.987 430.302 279.477C426.737 281.967 423.893 285.349 422.054 289.283C421.334 290.932 420.699 292.616 420.152 294.33C420.163 293.84 420.239 293.354 420.377 292.884C420.68 291.585 421.104 290.317 421.644 289.096C423.415 285.017 426.285 281.507 429.937 278.956C433.588 276.406 437.877 274.915 442.327 274.65C443.661 274.561 445.001 274.596 446.329 274.756C446.82 274.787 447.304 274.883 447.769 275.04Z" fill="#263238"/>
<path d="M389.375 312.324C389.474 311.956 389.632 311.606 389.844 311.289C390.353 310.387 390.947 309.536 391.618 308.747C393.838 306.1 396.744 304.111 400.02 302.998C403.295 301.885 406.814 301.69 410.193 302.435C411.208 302.651 412.2 302.964 413.155 303.368C413.517 303.49 413.856 303.671 414.16 303.902C414.117 304.012 412.644 303.324 410.106 302.876C406.805 302.271 403.403 302.52 400.225 303.6C397.048 304.68 394.201 306.554 391.957 309.043C390.222 310.943 389.477 312.386 389.375 312.324Z" fill="#263238"/>
<path d="M428.33 317.312C427.56 316.936 426.86 316.432 426.259 315.821C423.171 313.055 420.888 309.51 419.651 305.559C419.343 304.76 419.175 303.915 419.152 303.06C420.9 308.534 424.066 313.451 428.33 317.312Z" fill="#263238"/>
<path d="M484.167 294.94C484.162 294.918 484.265 294.879 484.473 294.821C484.782 294.755 485.099 294.737 485.413 294.769C485.997 294.84 486.561 295.031 487.068 295.329C487.574 295.628 488.014 296.028 488.358 296.504C488.863 297.23 489.158 298.081 489.21 298.963C489.263 299.845 489.071 300.724 488.655 301.504C488.205 302.439 487.529 303.247 486.687 303.856C485.769 304.502 484.689 304.878 483.567 304.941C482.433 305.033 481.301 304.74 480.356 304.108C479.476 303.491 478.876 302.552 478.69 301.496C478.539 300.63 478.601 299.741 478.869 298.904C479.138 298.068 479.605 297.308 480.231 296.69C482.493 294.767 484.496 294.699 484.453 294.887C484.443 294.911 484.341 294.898 484.143 294.943C483.853 295.017 483.569 295.114 483.294 295.233C482.275 295.649 481.343 296.251 480.547 297.01C480.006 297.588 479.608 298.284 479.385 299.044C479.163 299.803 479.122 300.603 479.265 301.381C479.437 302.281 479.957 303.077 480.713 303.597C481.546 304.141 482.538 304.39 483.529 304.307C484.532 304.251 485.499 303.919 486.325 303.349C487.088 302.806 487.707 302.084 488.128 301.247C488.512 300.558 488.703 299.777 488.679 298.988C488.655 298.199 488.417 297.431 487.991 296.766C487.383 295.864 486.445 295.235 485.378 295.014C484.976 294.969 484.572 294.944 484.167 294.94Z" fill="#263238"/>
<path d="M515.754 276.736C513.952 276.664 512.147 276.683 510.347 276.794C506.011 277.173 501.851 278.683 498.286 281.173C494.722 283.663 491.877 287.046 490.039 290.979C489.319 292.628 488.684 294.313 488.137 296.027C488.148 295.537 488.223 295.051 488.361 294.581C488.664 293.281 489.089 292.013 489.629 290.793C491.4 286.714 494.27 283.204 497.921 280.653C501.572 278.103 505.861 276.612 510.311 276.346C511.646 276.257 512.986 276.293 514.314 276.453C514.804 276.484 515.289 276.579 515.754 276.736Z" fill="#263238"/>
<path d="M457.359 314.021C457.458 313.653 457.616 313.303 457.828 312.985C458.337 312.084 458.931 311.233 459.602 310.443C461.822 307.796 464.728 305.808 468.004 304.695C471.279 303.582 474.799 303.387 478.178 304.131C479.192 304.348 480.184 304.66 481.139 305.064C481.501 305.186 481.841 305.367 482.144 305.598C482.101 305.709 480.628 305.02 478.091 304.572C474.789 303.967 471.387 304.216 468.209 305.296C465.032 306.376 462.185 308.25 459.941 310.739C458.206 312.64 457.461 314.082 457.359 314.021Z" fill="#263238"/>
<path d="M496.323 319.009C495.552 318.633 494.852 318.128 494.252 317.517C491.164 314.751 488.881 311.206 487.643 307.255C487.336 306.456 487.167 305.612 487.145 304.757C488.892 310.23 492.058 315.147 496.323 319.009Z" fill="#263238"/>
<path d="M113.421 381.072C113.017 381.152 111.3 382.896 113.757 385.668C116.215 388.44 131.032 396.01 133.769 391.484C136.506 386.958 129.906 383.812 129.906 383.812L113.421 381.072Z" fill="#FFBE9D"/>
<path d="M129.697 376.189C129.697 376.189 144.988 374.504 151.226 375.302C157.999 376.169 165.171 372.757 169.431 368.102C172.098 365.014 173.946 361.308 174.804 357.323L184.534 350.535C184.534 350.535 185.584 327.47 170.165 331.197L152.143 331.827C152.143 331.827 116.691 337.684 111.2 342.087C111.2 342.087 104.521 348.557 102.576 351.065C101.843 352.01 101.212 361.514 107.986 364.755C107.986 364.755 103.993 369.85 107.511 372.72L109.167 373.972C109.167 373.972 106.879 379.049 109.031 380.506C111.183 381.962 128.194 387.109 133.028 383.755C137.863 380.4 132.262 376.53 129.697 376.189Z" fill="#FFBE9D"/>
<path d="M110.643 363.861C111.315 363.885 111.984 363.957 112.645 364.076C113.928 364.241 115.787 364.467 118.09 364.634C119.242 364.717 120.505 364.781 121.861 364.811C123.215 364.854 124.67 364.793 126.223 364.915C127.89 364.969 129.509 365.481 130.902 366.395C131.668 366.905 132.283 367.61 132.684 368.437C133.086 369.263 133.26 370.181 133.188 371.097C133.034 372.037 132.55 372.893 131.822 373.51C131.138 374.078 130.353 374.513 129.509 374.792C127.952 375.269 126.345 375.566 124.72 375.675C121.997 375.881 119.26 375.828 116.547 375.517C114.236 375.276 112.384 374.967 111.106 374.752C110.437 374.67 109.777 374.532 109.133 374.339C109.806 374.341 110.477 374.397 111.141 374.507C112.428 374.647 114.286 374.887 116.589 375.069C119.275 375.314 121.978 375.322 124.666 375.092C126.239 374.97 127.793 374.673 129.299 374.206C130.067 373.949 130.78 373.553 131.402 373.037C132.017 372.516 132.427 371.795 132.558 371.001C132.611 370.199 132.452 369.398 132.096 368.677C131.74 367.957 131.2 367.342 130.531 366.895C129.232 366.043 127.726 365.561 126.173 365.498C124.672 365.364 123.212 365.403 121.845 365.338C120.479 365.284 119.208 365.194 118.052 365.081C115.739 364.856 113.882 364.561 112.607 364.321C111.939 364.229 111.281 364.076 110.643 363.861Z" fill="#EB996E"/>
<path d="M109.4 352.842C110.069 352.867 110.736 352.942 111.394 353.066C112.671 353.235 114.52 353.477 116.813 353.675C119.105 353.874 121.842 354.028 124.882 354.027C126.526 353.891 128.179 354.139 129.711 354.75C130.539 355.162 131.192 355.859 131.548 356.711C131.893 357.579 131.981 358.527 131.8 359.443C131.605 360.322 131.229 361.151 130.697 361.878C130.165 362.605 129.489 363.215 128.709 363.669C127.301 364.526 125.712 365.042 124.068 365.176C121.35 365.287 118.627 365.161 115.931 364.8C113.719 364.576 111.888 364.391 110.494 364.249C109.825 364.208 109.161 364.112 108.508 363.961C109.177 363.92 109.848 363.934 110.515 364.003C111.913 364.092 113.75 364.21 115.968 364.352C118.636 364.645 121.324 364.726 124.005 364.594C125.554 364.454 127.05 363.957 128.374 363.144C129.078 362.733 129.689 362.182 130.17 361.526C130.652 360.869 130.993 360.121 131.173 359.328C131.368 358.558 131.302 357.746 130.985 357.017C130.668 356.289 130.118 355.685 129.421 355.301C127.979 354.733 126.426 354.497 124.879 354.613C122.169 354.585 119.462 354.422 116.768 354.122C114.469 353.866 112.622 353.554 111.353 353.31C110.689 353.214 110.035 353.057 109.4 352.842Z" fill="#EB996E"/>
<path d="M117.282 354.186C116.381 352.298 115.429 350.435 114.426 348.599C114.546 348.483 115.644 349.478 116.46 351.085C117.049 352.009 117.336 353.092 117.282 354.186Z" fill="#EB996E"/>
<path d="M164.063 332.122L149.607 330.204C149.607 330.204 108.749 321.898 108.351 322.972C107.953 324.046 105.938 324.422 107.448 328.785C108.959 333.148 132.538 337.029 133.587 338.415C134.637 339.802 135.391 347.895 144.648 351.607C153.904 355.319 159.64 354.075 159.64 354.075" fill="#FFBE9D"/>
<path d="M159.636 354.074C159.537 354.119 159.432 354.148 159.324 354.16C159.115 354.2 158.801 354.251 158.387 354.289C157.178 354.393 155.962 354.393 154.753 354.289C150.291 353.884 145.952 352.608 141.983 350.536C139.268 348.977 137.058 346.675 135.616 343.902C134.851 342.37 134.194 340.786 133.649 339.163C133.579 338.975 133.489 338.796 133.382 338.627C133.261 338.505 133.114 338.412 132.951 338.357C132.545 338.19 132.131 338.045 131.71 337.921C130.852 337.659 129.966 337.424 129.069 337.189C125.475 336.259 121.671 335.359 117.778 334.217C115.831 333.646 113.86 333.018 111.905 332.23C110.91 331.835 109.948 331.36 109.03 330.811C108.55 330.523 108.109 330.176 107.715 329.78C107.508 329.558 107.338 329.305 107.212 329.03C107.104 328.772 107.012 328.507 106.938 328.237C106.556 327.171 106.487 326.018 106.738 324.914C106.923 324.373 107.225 323.879 107.624 323.468C107.785 323.303 107.921 323.114 108.026 322.909C108.05 322.852 108.082 322.799 108.123 322.752C108.183 322.678 108.268 322.627 108.362 322.609C108.449 322.585 108.537 322.571 108.626 322.567C108.774 322.56 108.915 322.559 109.05 322.565C111.187 322.7 113.201 323.063 115.209 323.374C119.208 324.032 123.048 324.744 126.704 325.432C134.015 326.817 140.582 328.137 146.093 329.268C147.469 329.538 148.785 329.85 150.02 330.055C151.272 330.23 152.452 330.395 153.562 330.55C155.759 330.862 157.66 331.133 159.234 331.356C160.75 331.583 161.947 331.762 162.815 331.892C163.193 331.955 163.499 332.006 163.745 332.047C163.758 332.009 163.785 331.977 163.82 331.958C163.855 331.939 163.896 331.933 163.935 331.943C163.974 331.952 164.009 331.975 164.031 332.008C164.054 332.041 164.064 332.081 164.059 332.121C164.053 332.161 164.034 332.197 164.003 332.223C163.972 332.249 163.933 332.263 163.893 332.261C163.853 332.26 163.815 332.244 163.786 332.216C163.757 332.189 163.739 332.151 163.736 332.111L162.798 332.019C161.926 331.917 160.723 331.778 159.198 331.601C157.619 331.407 155.711 331.172 153.506 330.9C152.395 330.761 151.21 330.612 149.953 330.454C148.687 330.258 147.39 329.966 146.004 329.708C140.464 328.652 133.891 327.398 126.596 326.007C122.94 325.335 119.099 324.636 115.109 323.988C113.119 323.682 111.067 323.323 109.031 323.196C108.905 323.191 108.784 323.193 108.67 323.198C108.628 323.2 108.587 323.206 108.546 323.214C108.534 323.195 108.559 323.259 108.516 323.17C108.447 323.066 108.5 323.07 108.456 323.025C108.441 323.009 108.423 322.997 108.402 322.991C108.886 323.173 108.529 323.057 108.634 323.105L108.608 323.161C108.479 323.425 108.309 323.668 108.106 323.881C107.764 324.227 107.504 324.644 107.345 325.103C107.135 326.088 107.206 327.113 107.55 328.06C107.645 328.537 107.863 328.981 108.183 329.349C108.539 329.704 108.937 330.015 109.369 330.274C110.256 330.804 111.185 331.263 112.145 331.645C114.065 332.421 116.021 333.049 117.955 333.62C121.825 334.764 125.618 335.675 129.219 336.623C130.119 336.863 131.007 337.103 131.881 337.375C132.322 337.507 132.756 337.662 133.182 337.84C133.438 337.935 133.666 338.094 133.842 338.302C133.973 338.505 134.081 338.721 134.166 338.947C134.696 340.559 135.337 342.132 136.083 343.657C137.465 346.358 139.591 348.611 142.212 350.149C144.415 351.357 146.756 352.297 149.184 352.948C151.012 353.475 152.883 353.842 154.776 354.043C155.972 354.171 157.176 354.211 158.378 354.161C158.79 354.144 159.104 354.114 159.315 354.096C159.421 354.077 159.528 354.07 159.636 354.074Z" fill="#EB996E"/>
<path d="M125.243 375.468C125.745 375.412 126.253 375.437 126.747 375.54C128.112 375.737 129.441 376.131 130.692 376.708C131.567 377.101 132.395 377.59 133.161 378.166C133.636 378.493 134.042 378.912 134.352 379.398C134.663 379.884 134.873 380.427 134.971 380.995C134.998 381.647 134.843 382.295 134.523 382.864C134.203 383.434 133.73 383.903 133.157 384.22C131.972 384.865 130.622 385.143 129.278 385.02C124.775 384.781 120.304 384.124 115.922 383.059C114.599 382.725 113.293 382.325 112.011 381.858C111.529 381.716 111.066 381.515 110.633 381.261C111.128 381.333 111.616 381.454 112.087 381.623C113.011 381.887 114.353 382.25 116.027 382.622C120.399 383.549 124.836 384.138 129.299 384.385C130.518 384.502 131.745 384.261 132.828 383.691C133.306 383.437 133.705 383.055 133.98 382.589C134.255 382.122 134.396 381.589 134.386 381.048C134.215 380.051 133.655 379.162 132.828 378.575C132.105 378.007 131.324 377.517 130.498 377.113C128.824 376.342 127.058 375.789 125.243 375.468Z" fill="#EB996E"/>
<path d="M231.599 292.197C231.599 292.197 249.716 262.46 253.788 242.833C257.86 223.206 278.9 192.075 285.687 183.954C292.474 175.832 319.622 166.357 319.622 166.357L329.634 160.974L407.175 154.175C407.175 154.175 458.757 159.59 474.367 173.802C489.977 188.014 502.194 220.499 502.194 236.742C502.194 252.985 517.958 393.647 517.958 393.647L326.877 393.395L331.161 324.046C331.161 324.046 308.085 308.48 301.976 294.945C295.868 281.409 299.261 288.177 299.261 288.177C299.261 288.177 277.599 334.098 270.133 339.513C262.667 344.927 175.892 371.482 175.892 371.482L164.008 326.071L231.599 292.197Z" fill="#81184E"/>
<path d="M457.199 179.472C455.104 180.12 429.227 246.778 427.402 252.842C425.578 258.905 427.402 297.106 427.402 297.106L435.916 312.871C435.916 312.871 433.483 324.392 435.307 329.849L396.998 337.125C396.998 337.125 387.269 330.455 378.147 337.125L332.953 340.936C332.953 340.936 346.222 341.088 342.27 361.38C338.399 381.258 335.457 385.631 335.457 385.631L494.292 382.015C494.292 382.015 511.935 381.145 509.246 347.307C506.557 313.469 498.984 220.143 498.984 220.143C498.984 220.143 487.405 170.131 457.199 179.472Z" fill="#81184E"/>
<path d="M427.046 291.776C426.895 291.515 426.77 291.24 426.67 290.956C426.427 290.349 426.107 289.551 425.707 288.555C425.286 287.513 424.789 286.231 424.299 284.711C423.803 283.195 423.165 281.489 422.645 279.547C422.082 277.618 421.464 275.504 420.951 273.196C420.358 270.906 419.9 268.422 419.399 265.811C417.366 254.439 416.917 242.842 418.064 231.348C418.379 228.708 418.633 226.194 419.062 223.867C419.262 222.703 419.419 221.571 419.638 220.496C419.864 219.425 420.082 218.396 420.291 217.41C420.672 215.436 421.182 213.688 421.577 212.142C421.96 210.593 422.365 209.279 422.718 208.212C423.05 207.191 423.316 206.374 423.518 205.753C423.598 205.462 423.705 205.18 423.839 204.909C423.8 205.209 423.734 205.504 423.641 205.791C423.468 206.42 423.24 207.248 422.956 208.281C422.64 209.357 422.271 210.677 421.922 212.231C421.561 213.781 421.083 215.53 420.731 217.503C420.537 218.486 420.333 219.514 420.121 220.585C419.916 221.659 419.772 222.787 419.584 223.949C419.179 226.269 418.946 228.775 418.648 231.404C417.573 242.848 418.02 254.384 419.978 265.711C420.46 268.313 420.897 270.791 421.465 273.076C421.954 275.38 422.545 277.493 423.078 279.423C423.568 281.367 424.174 283.076 424.637 284.599C425.094 286.125 425.555 287.416 425.94 288.47L426.79 290.909C426.903 291.19 426.988 291.48 427.046 291.776Z" fill="#263238"/>
<path d="M482.307 364.064C482.15 363.929 482.013 363.772 481.9 363.6C481.612 363.221 481.262 362.759 480.837 362.199C480.389 361.583 479.831 360.835 479.137 360.003C478.45 359.167 477.71 358.181 476.788 357.176C475.895 356.148 474.912 355.027 473.782 353.892C472.696 352.714 471.436 351.556 470.134 350.314C464.383 345.017 457.912 340.555 450.912 337.057C449.287 336.281 447.756 335.514 446.267 334.916C444.803 334.262 443.405 333.74 442.125 333.27C440.857 332.765 439.671 332.421 438.643 332.076C437.618 331.722 436.72 331.465 435.983 331.265C435.308 331.066 434.751 330.902 434.294 330.767C434.092 330.722 433.897 330.649 433.715 330.552C433.921 330.554 434.126 330.585 434.325 330.643C434.79 330.746 435.358 330.873 436.047 331.026C436.796 331.19 437.707 331.413 438.747 331.736C439.789 332.051 440.991 332.366 442.276 332.847C443.573 333.293 444.989 333.793 446.472 334.43C447.979 335.011 449.53 335.765 451.174 336.533C458.258 339.998 464.783 344.498 470.534 349.885C471.834 351.148 473.089 352.329 474.165 353.53C475.286 354.688 476.256 355.833 477.132 356.886C478.036 357.915 478.756 358.926 479.42 359.787C480.09 360.643 480.62 361.415 481.039 362.056C481.425 362.644 481.744 363.13 482.006 363.528C482.13 363.692 482.231 363.873 482.307 364.064Z" fill="#263238"/>
<path d="M495.678 355.175C495.585 355.26 494.179 353.661 491.53 351.511C489.977 350.258 488.337 349.117 486.622 348.096C482.415 345.593 477.799 343.847 472.986 342.937C471.023 342.567 469.036 342.336 467.04 342.247C463.628 342.104 461.512 342.371 461.5 342.246C461.981 342.108 462.476 342.024 462.976 341.996C463.556 341.913 464.14 341.864 464.726 341.847C465.41 341.822 466.191 341.757 467.054 341.798C469.078 341.824 471.098 342.012 473.092 342.362C477.993 343.22 482.687 344.995 486.926 347.595C488.65 348.652 490.287 349.847 491.819 351.166C492.492 351.706 493.033 352.271 493.529 352.743C493.956 353.142 494.36 353.566 494.739 354.011C495.095 354.363 495.409 354.753 495.678 355.175Z" fill="#263238"/>
<path d="M480.995 332.884C480.914 332.998 479.041 331.512 475.618 329.826C474.69 329.36 473.736 328.945 472.762 328.582C471.732 328.14 470.579 327.812 469.379 327.432C464.11 325.926 458.581 325.548 453.155 326.324C451.914 326.538 450.727 326.706 449.646 327.003C448.631 327.23 447.63 327.512 446.646 327.847C443.025 329.053 440.967 330.27 440.902 330.145C441.348 329.809 441.827 329.518 442.331 329.277C442.896 328.947 443.483 328.655 444.088 328.403C444.874 328.033 445.678 327.706 446.499 327.422C447.486 327.054 448.494 326.743 449.518 326.492C450.688 326.183 451.873 325.933 453.069 325.745C458.576 324.89 464.205 325.274 469.544 326.87C470.702 327.22 471.842 327.628 472.959 328.093C473.939 328.481 474.895 328.925 475.822 329.425C476.596 329.817 477.349 330.251 478.077 330.725C478.642 331.056 479.183 331.425 479.698 331.829C480.165 332.137 480.599 332.49 480.995 332.884Z" fill="#263238"/>
<path d="M388.105 382.875C388.619 380.638 388.996 378.372 389.234 376.089C389.423 373.609 389.403 371.117 389.174 368.641C388.873 365.609 388.339 362.605 387.576 359.655C386.777 356.714 385.759 353.836 384.531 351.046C383.498 348.781 382.283 346.605 380.896 344.537C379.56 342.668 378.121 340.874 376.586 339.163C377.089 339.531 377.557 339.944 377.986 340.395C378.523 340.891 379.022 341.426 379.477 341.997C379.759 342.326 380.055 342.674 380.367 343.039C380.663 343.421 380.951 343.845 381.266 344.281C382.724 346.338 383.995 348.52 385.064 350.802C386.339 353.61 387.385 356.517 388.192 359.493C388.965 362.478 389.489 365.521 389.759 368.591C389.964 371.101 389.939 373.625 389.682 376.13C389.623 376.66 389.567 377.168 389.513 377.653L389.248 378.996C389.127 379.716 388.955 380.426 388.731 381.121C388.576 381.723 388.366 382.311 388.105 382.875Z" fill="#263238"/>
<path d="M361.47 337.1C361.43 336.986 361.404 336.868 361.392 336.748C361.349 336.478 361.294 336.135 361.226 335.706C361.087 334.743 360.894 333.399 360.648 331.69C360.153 328.202 359.499 323.146 358.747 316.892C357.24 304.383 355.444 287.067 354.038 267.894C352.64 248.714 351.899 231.319 351.571 218.725C351.406 212.428 351.317 207.331 351.3 203.809C351.294 202.083 351.29 200.725 351.287 199.753L351.3 198.698C351.255 198.69 351.215 198.667 351.187 198.631C351.159 198.595 351.146 198.551 351.149 198.506C351.152 198.461 351.173 198.418 351.206 198.387C351.239 198.356 351.282 198.339 351.327 198.338C351.373 198.337 351.417 198.354 351.451 198.384C351.484 198.414 351.506 198.455 351.511 198.5C351.515 198.545 351.503 198.59 351.476 198.627C351.449 198.663 351.41 198.688 351.365 198.697C351.378 198.97 351.395 199.317 351.416 199.751C351.447 200.723 351.491 202.079 351.547 203.804C351.661 207.371 351.823 212.451 352.022 218.711C352.464 231.297 353.276 248.678 354.673 267.848C356.079 287.01 357.802 304.324 359.195 316.84C359.908 323.062 360.487 328.114 360.894 331.659C361.089 333.374 361.243 334.723 361.353 335.689C361.395 336.121 361.43 336.467 361.456 336.739C361.475 336.859 361.48 336.98 361.47 337.1Z" fill="#263238"/>
<path d="M299.079 289.051C298.752 288.453 298.474 287.83 298.248 287.187C297.761 285.97 297.031 284.219 296.111 282.064C294.272 277.754 291.53 271.889 288.26 265.526C284.979 259.22 282.012 253.515 279.799 249.261C278.734 247.17 277.885 245.47 277.323 244.283C277 243.683 276.726 243.058 276.504 242.414C276.898 242.97 277.246 243.558 277.544 244.171C278.223 245.419 279.117 247.064 280.198 249.053C282.425 253.182 285.547 258.863 288.827 265.237C292.103 271.611 294.79 277.527 296.527 281.892C297.396 284.075 298.064 285.854 298.48 287.1C298.733 287.733 298.933 288.386 299.079 289.051Z" fill="#263238"/>
<path d="M289.319 266.514C288.941 266.498 288.568 266.427 288.211 266.302C287.508 266.13 286.503 265.836 285.273 265.436C278.86 263.317 272.777 260.313 267.2 256.511C266.135 255.778 265.292 255.159 264.728 254.706C264.162 254.256 263.862 253.991 263.888 253.956C265.114 254.617 266.302 255.344 267.447 256.135C269.626 257.499 272.691 259.297 276.207 261.035C279.723 262.769 283.014 264.11 285.423 265.012C286.748 265.441 288.049 265.942 289.319 266.514Z" fill="#263238"/>
<path d="M272.91 308.17C272.445 307.952 272.005 307.685 271.597 307.372C270.783 306.818 269.583 306.048 268.081 305.136C260.239 300.365 251.559 297.124 242.503 295.586C240.769 295.289 239.357 295.084 238.379 294.969C237.866 294.938 237.358 294.851 236.863 294.711C237.375 294.659 237.891 294.663 238.402 294.723C239.391 294.763 240.819 294.9 242.573 295.142C251.753 296.448 260.538 299.728 268.32 304.756C269.802 305.722 270.969 306.554 271.742 307.172C272.166 307.462 272.558 307.796 272.91 308.17Z" fill="#263238"/>
<path d="M405.159 154.281C405.165 154.613 405.141 154.945 405.09 155.273C405.009 155.978 404.901 156.921 404.766 158.102C404.447 160.555 404.007 164.107 403.259 168.469C402.416 173.588 401.271 178.653 399.833 183.638C398.066 189.763 395.479 195.623 392.141 201.059C390.281 203.972 388.146 206.7 385.765 209.207L385.516 209.476L385.29 209.175C382.234 205.106 378.256 201.815 373.681 199.573C371.726 198.616 369.678 197.864 367.569 197.327C365.743 196.892 363.879 196.642 362.003 196.581C359.314 196.488 356.63 196.865 354.072 197.695C352.292 198.314 351.359 198.776 351.332 198.718C351.542 198.579 351.765 198.46 351.999 198.364C352.647 198.03 353.315 197.738 354 197.49C356.567 196.566 359.283 196.122 362.012 196.18C363.92 196.212 365.819 196.44 367.68 196.862C369.832 197.384 371.922 198.129 373.918 199.086C378.597 201.335 382.668 204.668 385.792 208.807L385.317 208.775C387.662 206.293 389.766 203.596 391.603 200.719C394.91 195.331 397.488 189.531 399.271 183.469C400.729 178.512 401.912 173.478 402.816 168.391C403.618 164.049 404.126 160.509 404.52 158.069C404.705 156.893 404.852 155.956 404.963 155.256C405 154.926 405.066 154.6 405.159 154.281Z" fill="#263238"/>
<path d="M406.205 155.049L394.423 139.476L381.621 139.878L340.008 161.798L406.205 155.049Z" fill="#81184E"/>
<path d="M351.336 198.718C351.111 198.741 350.884 198.736 350.66 198.703C350.014 198.643 349.374 198.539 348.743 198.389C346.424 197.789 344.209 196.845 342.172 195.589C340.8 194.722 339.288 194.097 337.704 193.742C335.886 193.35 334.005 193.347 332.186 193.734C330.101 194.202 328.167 195.179 326.554 196.577C324.942 197.975 323.703 199.75 322.949 201.743L322.281 203.531L322.332 201.622C322.345 201.15 322.359 200.642 322.372 200.131C322.523 190.527 322.53 181.808 322.924 175.511C323.1 172.362 323.354 169.817 323.613 168.07C323.727 167.195 323.862 166.521 323.96 166.067C323.991 165.831 324.05 165.6 324.137 165.379C324.197 165.391 324.025 166.35 323.859 168.1C323.677 169.849 323.492 172.388 323.374 175.533C323.096 181.823 323.16 190.52 323.009 200.145C322.995 200.658 322.981 201.169 322.968 201.644L322.352 201.523C323.143 199.433 324.447 197.573 326.144 196.114C327.84 194.655 329.876 193.643 332.066 193.169C333.837 192.813 335.661 192.81 337.433 193.16C339.206 193.51 340.891 194.206 342.392 195.208C344.382 196.481 346.54 197.473 348.803 198.156C350.411 198.602 351.344 198.654 351.336 198.718Z" fill="#263238"/>

<g class="head">
  <path d="M394.419 64.047L394.419 157.56C394.419 162.903 392.526 168.074 389.074 172.161C383.781 178.427 377.403 183.695 370.243 187.716L351.327 198.338L335.68 184.408C333.403 182.379 331.559 179.914 330.257 177.16C328.956 174.406 328.224 171.418 328.104 168.376C327.833 161.563 327.835 154.701 327.835 154.701C327.835 154.701 301.323 152.803 298.834 126.735C297.662 114.46 297.291 89.3202 297.227 66.1528C297.196 53.4054 301.982 41.1142 310.631 31.7268C319.279 22.3395 331.157 16.5446 343.897 15.4962L344.644 15.4345C351.137 15.2776 357.596 16.4202 363.639 18.7947C369.682 21.1693 375.186 24.7277 379.826 29.2595C384.466 33.7914 388.149 39.2048 390.655 45.1798C393.162 51.1549 394.442 57.5703 394.419 64.047Z" fill="#FFBE9D"/>
  <path d="M327.766 154.328C327.766 154.328 344.416 154.305 361.08 141.844C361.08 141.844 354.575 161.29 328.266 161.095L327.766 154.328Z" fill="#EB996E"/>
  <path d="M306.04 83.6736C306.112 84.6458 306.561 85.5518 307.293 86.1986C308.024 86.8454 308.98 87.1818 309.956 87.1362C310.435 87.1345 310.908 87.0374 311.349 86.8505C311.789 86.6637 312.187 86.3908 312.52 86.048C312.853 85.7053 313.114 85.2995 313.287 84.8547C313.461 84.4099 313.543 83.935 313.529 83.458C313.459 82.4861 313.01 81.5802 312.28 80.9331C311.549 80.2859 310.594 79.9486 309.618 79.9929C309.139 79.9943 308.665 80.0914 308.224 80.2783C307.783 80.4652 307.384 80.7382 307.051 81.0812C306.718 81.4243 306.457 81.8304 306.283 82.2756C306.109 82.7208 306.027 83.1962 306.04 83.6736Z" fill="#263238"/>
  <path d="M303.911 76.6712C304.414 77.1186 307.072 74.7957 311.095 74.4744C315.108 74.096 318.231 75.9156 318.626 75.3883C318.823 75.1534 318.278 74.3152 316.916 73.4882C315.076 72.4288 312.952 71.9633 310.837 72.1557C308.744 72.3205 306.759 73.1453 305.169 74.5105C304.011 75.559 303.665 76.4724 303.911 76.6712Z" fill="#263238"/>
  <path d="M344.298 82.0579C344.37 83.03 344.819 83.9359 345.55 84.5826C346.282 85.2293 347.237 85.5657 348.214 85.5201C348.692 85.5186 349.166 85.4215 349.606 85.2347C350.047 85.0479 350.445 84.7751 350.778 84.4324C351.111 84.0896 351.372 83.6839 351.545 83.2391C351.719 82.7942 351.801 82.3193 351.787 81.8423C351.716 80.8703 351.268 79.9645 350.537 79.3174C349.806 78.6702 348.851 78.333 347.875 78.3773C347.396 78.3788 346.922 78.4759 346.481 78.6628C346.04 78.8497 345.642 79.1227 345.308 79.4657C344.975 79.8088 344.714 80.2148 344.541 80.66C344.367 81.1052 344.285 81.5805 344.298 82.0579Z" fill="#263238"/>
  <path d="M343.496 74.1563C344 74.6039 346.662 72.2811 350.681 71.9602C354.694 71.5818 357.817 73.4009 358.213 72.8736C358.408 72.6387 357.869 71.8005 356.501 70.974C354.661 69.9143 352.538 69.4485 350.423 69.6405C348.33 69.8059 346.345 70.6308 344.754 71.9959C343.599 73.044 343.251 73.9577 343.496 74.1563Z" fill="#263238"/>
  <path d="M331.371 105.101C331.371 104.872 328.836 104.647 324.742 104.465C323.706 104.444 322.718 104.321 322.486 103.636C322.312 102.586 322.463 101.507 322.92 100.544C323.68 97.9867 324.477 95.304 325.31 92.4962C328.606 81.0463 330.9 71.666 330.437 71.5373C329.974 71.4093 326.926 80.5854 323.63 92.0358C322.842 94.8571 322.09 97.5518 321.372 100.12C320.829 101.409 320.758 102.847 321.173 104.183C321.352 104.532 321.608 104.835 321.922 105.071C322.236 105.306 322.6 105.467 322.986 105.541C323.567 105.647 324.16 105.68 324.75 105.638C328.845 105.521 331.375 105.33 331.371 105.101Z" fill="#263238"/>
  <path d="M343.439 106.898C342.781 106.914 343.135 111.268 339.655 114.666C336.182 118.073 331.488 117.969 331.505 118.58C331.467 118.858 332.611 119.34 334.58 119.231C337.14 119.056 339.556 117.986 341.404 116.21C343.175 114.502 344.212 112.175 344.296 109.72C344.312 107.886 343.735 106.848 343.439 106.898Z" fill="#263238"/>
  <path d="M341.163 58.5269C341.65 59.5843 345.623 58.7363 350.387 58.9142C355.157 58.996 359.076 60.0594 359.621 59.0301C359.861 58.539 359.113 57.568 357.486 56.6391C355.326 55.5147 352.936 54.8958 350.5 54.8295C348.063 54.7631 345.644 55.2509 343.425 56.256C341.75 57.095 340.949 58.0235 341.163 58.5269Z" fill="#263238"/>
  <path d="M304.426 64.9434C305.209 65.7958 307.9 64.6217 311.228 64.3025C314.544 63.8667 317.431 64.4065 318.001 63.4001C318.248 62.9142 317.728 62.0384 316.424 61.278C314.682 60.3814 312.712 60.0209 310.765 60.2423C308.817 60.4637 306.98 61.257 305.485 62.5215C304.385 63.5548 304.076 64.5248 304.426 64.9434Z" fill="#263238"/>
  <path d="M363.625 37.7775L363.778 37.8786C368.221 40.8095 371.358 45.339 372.531 50.5211C372.572 50.7035 372.611 50.8775 372.648 51.0417C374.289 58.3999 374.733 65.9874 376.445 73.3295C378.158 80.6716 377.843 86.2824 385.218 87.9372C387.151 88.3558 389.165 88.1826 390.997 87.4403C392.83 86.698 394.395 85.4211 395.487 83.777C396.029 82.6988 396.254 81.4897 396.136 80.2893C396.039 62.2023 399.687 55.1782 398.094 36.388C397.892 33.8702 397.092 31.4366 395.759 29.2887C394.427 27.1409 392.6 25.3406 390.43 24.0372C386.25 21.5433 381.189 19.0167 376.977 21.4478C372.753 23.8863 367.762 32.5351 364.65 36.285" fill="#263238"/>
  <path d="M386.578 76.5826C387.008 76.3529 404.119 69.7953 405.028 87.6828C405.938 105.57 387.74 102.791 387.683 102.28C387.626 101.768 386.578 76.5826 386.578 76.5826Z" fill="#FFBE9D"/>
  <path d="M392.815 95.2257C392.891 95.1646 393.139 95.4281 393.679 95.6429C394.439 95.9218 395.276 95.8967 396.017 95.5728C397.877 94.7834 399.321 91.7023 399.244 88.4742C399.211 86.9383 398.835 85.4291 398.142 84.057C397.946 83.5066 397.618 83.0122 397.187 82.6162C396.757 82.2202 396.236 81.9346 395.67 81.7839C395.306 81.7073 394.927 81.7601 394.598 81.9331C394.269 82.1061 394.011 82.3884 393.869 82.731C393.654 83.2433 393.786 83.5947 393.693 83.6301C393.645 83.6773 393.293 83.3502 393.399 82.6038C393.477 82.1559 393.706 81.7478 394.048 81.4474C394.523 81.0506 395.136 80.8557 395.753 80.9046C396.497 81.0129 397.201 81.3095 397.797 81.7662C398.393 82.2229 398.862 82.8243 399.159 83.5131C400.001 85.0234 400.46 86.7162 400.495 88.444C400.564 92.0541 398.885 95.5207 396.33 96.3991C395.855 96.5631 395.35 96.6187 394.851 96.5617C394.352 96.5048 393.872 96.3368 393.447 96.0702C392.869 95.6567 392.755 95.2615 392.815 95.2257Z" fill="#EB996E"/>
  <path d="M377.818 24.1591C381.63 16.6587 368.71 7.4057 359.65 5.35877C350.589 3.31183 339.314 8.56359 330.767 12.1954C325.375 14.4868 320.062 17.5012 314.205 17.7425C310.278 17.9042 306.425 16.7938 302.624 15.7966C298.823 14.7993 294.878 13.8999 290.992 14.4883C287.106 15.0767 283.253 17.4817 282.07 21.2194C280.887 24.9572 283.423 29.7353 287.348 29.9533C282.171 27.6486 275.304 31.8052 274.962 37.4482C274.621 43.0913 280.933 48.0409 286.353 46.3823C283.649 44.6702 280.013 48.1678 280.589 51.3095C281.166 54.4513 284.238 56.5186 287.267 57.5573C294.999 60.2088 303.612 58.448 311.119 55.2187C318.627 51.9895 325.454 47.3613 332.878 43.9463C340.303 40.5313 352.712 34.4797 360.621 36.5472C366.444 38.0694 370.946 44.5404 374.016 42.7768C375.456 41.8492 376.658 40.5982 377.526 39.1239C378.394 37.6496 378.903 35.9931 379.013 34.2872C379.165 30.869 378.762 27.4487 377.818 24.1591Z" fill="#263238"/>
  <path d="M285.145 29.6394C285.286 29.5383 286.176 30.8835 288.271 32.807C291.258 35.4792 294.851 37.3874 298.742 38.3673C304.467 39.9058 310.569 39.1536 315.747 36.2712C321.608 33.0532 326.362 27.1829 331.93 21.5621C337.479 15.8992 344.221 11.4899 351.24 10.2706C358.214 9.0229 364.923 11.0574 368.839 14.7663C370.389 16.1989 371.632 17.9294 372.495 19.8537C373.357 21.7779 373.819 23.8562 373.855 25.9634C373.846 27.0955 373.678 28.2208 373.356 29.3067C373.092 30.0341 372.918 30.3962 372.862 30.3767C373.074 28.9224 373.175 27.4541 373.165 25.9845C372.841 22.0167 370.988 18.3282 367.996 15.6928C364.296 12.3984 358.041 10.6246 351.534 11.874C344.992 13.0998 338.603 17.2837 333.183 22.8141C327.719 28.3098 322.815 34.3384 316.537 37.6981C311.906 40.1371 306.611 41.0263 301.435 40.2345C296.258 39.4427 291.475 37.0118 287.79 33.3009C287.004 32.4982 286.302 31.6185 285.694 30.6751C285.283 30.0265 285.094 29.6733 285.145 29.6394Z" fill="#455A64"/>
  <path d="M391.068 75.4284C391.008 75.4941 390.256 75.0012 389.463 73.641C388.403 71.6824 387.909 69.4693 388.034 67.2473C387.953 61.4668 392.538 54.8776 392.527 46.8823C392.679 43.1763 391.679 39.514 389.663 36.3965C387.924 33.9357 385.42 32.1156 382.539 31.2181C380.588 30.5858 378.505 30.4763 376.498 30.9008C375.08 31.2474 374.334 31.6456 374.256 31.5088C374.208 31.4395 374.838 30.8261 376.299 30.2414C378.419 29.5091 380.71 29.4295 382.875 30.013C386.134 30.832 389.006 32.7561 390.998 35.4553C393.302 38.819 394.46 42.8326 394.301 46.903C394.173 50.8668 393.32 54.774 391.784 58.4322C390.55 61.2665 389.71 64.2555 389.287 67.3163C388.777 72.6241 391.324 75.3215 391.068 75.4284Z" fill="#455A64"/>
  <path d="M398.594 83.4408L401.51 86.1342C402.019 86.6044 402.319 87.2568 402.346 87.9481C402.372 88.6393 402.122 89.3128 401.651 89.8202L390.717 101.587C390.246 102.094 389.592 102.394 388.898 102.421C388.205 102.447 387.53 102.198 387.021 101.728L384.106 99.0341C383.854 98.8013 383.65 98.5213 383.507 98.2101C383.363 97.8989 383.283 97.5625 383.27 97.2202C383.257 96.8779 383.311 96.5364 383.431 96.2152C383.55 95.894 383.731 95.5993 383.965 95.348L394.898 83.5813C395.37 83.0739 396.024 82.7741 396.717 82.7477C397.41 82.7213 398.086 82.9707 398.594 83.4408L398.594 83.4408Z" fill="#263238"/>
  
</g>



<path d="M502.328 240.756C502.328 240.756 502.36 240.995 502.398 241.466C502.435 241.951 502.488 242.651 502.557 243.567C502.689 245.434 502.882 248.178 503.133 251.747C503.617 258.917 504.324 269.392 505.221 282.668C506.103 295.958 507.17 312.049 508.389 330.429C508.693 335.025 509.005 339.762 509.326 344.639C509.509 347.071 509.6 349.557 509.713 352.071C509.768 353.338 509.758 354.606 509.682 355.871C509.675 357.156 509.603 358.439 509.465 359.716C509.307 360.999 509.148 362.291 508.988 363.59C508.713 364.872 508.436 366.161 508.157 367.458C507.789 368.732 507.353 369.997 506.95 371.278C506.388 372.499 505.92 373.776 505.259 374.966C502.699 379.715 498.697 384.154 493.134 385.984L493.109 385.992H493.066L373.406 385.967C360.521 385.959 347.845 385.952 335.459 385.945L335.043 385.945L335.156 385.546C336.314 381.428 337.462 377.343 338.601 373.291C339.171 371.265 339.738 369.249 340.303 367.241C340.92 365.272 341.394 363.26 341.72 361.223C342.306 357.201 341.945 353.099 340.667 349.24C340.069 347.352 339.097 345.602 337.81 344.093C336.563 342.609 334.841 341.6 332.934 341.235L330.426 340.846L332.93 340.636C348.735 339.312 363.848 338.046 378.127 336.849L377.986 336.902C380.799 334.837 384.231 333.785 387.721 333.918C391.069 334.091 394.317 335.121 397.15 336.909L396.952 336.868C410.756 334.26 423.573 331.838 435.268 329.629L435.097 329.92C434.669 328.461 434.447 326.949 434.437 325.429C434.395 323.973 434.436 322.516 434.558 321.065C434.782 318.299 435.17 315.549 435.72 312.829L435.74 312.967C432.663 307.248 429.849 302.015 427.252 297.188L427.233 297.153L427.231 297.114C426.629 283.053 426.419 271.969 426.52 264.403C426.561 260.62 426.706 257.716 426.908 255.768C426.963 255.029 427.072 254.295 427.234 253.572C427.34 253.085 427.405 252.841 427.405 252.841C427.405 252.841 427.371 253.094 427.281 253.582C427.14 254.307 427.047 255.04 427.002 255.777C426.831 257.723 426.716 260.624 426.705 264.405C426.662 271.965 426.927 283.045 427.579 297.097L427.558 297.023C430.171 301.842 433.002 307.066 436.096 312.775L436.131 312.839L436.116 312.913C435.578 315.616 435.2 318.349 434.985 321.097C434.867 322.533 434.831 323.974 434.875 325.414C434.888 326.891 435.106 328.36 435.523 329.778L435.603 330.021L435.352 330.069C423.662 332.301 410.849 334.748 397.05 337.383L396.949 337.402L396.852 337.341C394.099 335.615 390.948 334.622 387.7 334.457C384.334 334.333 381.024 335.353 378.314 337.348L378.25 337.395L378.173 337.401C363.896 338.612 348.784 339.894 332.981 341.235L332.977 340.636C335.043 341.006 336.913 342.086 338.263 343.688C339.606 345.257 340.621 347.078 341.247 349.045C342.559 352.994 342.931 357.193 342.333 361.31C342.005 363.375 341.527 365.413 340.903 367.408C340.339 369.416 339.773 371.433 339.204 373.459C338.067 377.511 336.92 381.596 335.763 385.715L335.46 385.316C347.845 385.321 360.521 385.326 373.407 385.331C416.57 385.364 457.383 385.395 493.066 385.422L492.999 385.43C495.606 384.547 497.979 383.088 499.94 381.161C501.879 379.275 503.51 377.097 504.773 374.708C505.424 373.542 505.885 372.284 506.44 371.085C506.838 369.823 507.27 368.577 507.635 367.321C507.913 366.04 508.189 364.767 508.463 363.501C508.623 362.215 508.782 360.936 508.94 359.665C509.079 358.399 509.153 357.127 509.162 355.854C509.239 354.598 509.251 353.339 509.199 352.082C509.09 349.583 509.005 347.118 508.826 344.678C508.515 339.803 508.212 335.065 507.917 330.465C506.749 312.08 505.726 295.984 504.881 282.691C504.053 269.409 503.4 258.931 502.952 251.758C502.74 248.186 502.576 245.44 502.465 243.572C502.416 242.654 502.378 241.953 502.351 241.469C502.328 240.997 502.328 240.756 502.328 240.756Z" fill="#263238"/>
<path d="M467.686 174.294C467.711 174.343 466.911 174.784 465.507 175.643C463.53 176.861 461.639 178.212 459.846 179.686C453.985 184.63 449.026 190.548 445.188 197.179C441.381 203.83 438.109 210.771 435.401 217.938C434.354 220.616 433.494 222.814 432.861 224.434L432.152 226.194C432.223 226.237 432.276 226.305 432.3 226.384C432.323 226.463 432.317 226.549 432.281 226.624C432.245 226.698 432.182 226.757 432.105 226.789C432.028 226.82 431.942 226.821 431.864 226.793C431.786 226.764 431.721 226.708 431.683 226.635C431.644 226.561 431.634 226.476 431.655 226.396C431.676 226.315 431.726 226.246 431.796 226.2C431.865 226.155 431.949 226.137 432.032 226.15C432.19 225.67 432.388 225.075 432.628 224.349C433.161 222.789 433.951 220.539 434.98 217.777C437.575 210.532 440.808 203.531 444.641 196.854C448.506 190.159 453.563 184.223 459.564 179.337C461.394 177.881 463.34 176.574 465.381 175.43C466.094 175.01 466.686 174.752 467.073 174.553C467.265 174.441 467.471 174.354 467.686 174.294Z" fill="#263238"/>
<g opacity="0.3">
<path opacity="0.3" d="M419.806 220.866C414.719 232.332 412.378 244.822 412.968 257.346C413.427 269.747 414.922 282.178 413.703 294.527C412.485 306.876 408.181 319.479 398.944 327.794C397.753 328.701 396.743 329.821 395.964 331.097C395.591 331.745 395.444 332.498 395.548 333.238C395.651 333.978 395.999 334.662 396.536 335.183C397.115 335.507 397.755 335.71 398.415 335.778C399.076 335.846 399.744 335.78 400.378 335.582C409.23 334.048 418.177 332.955 427.029 331.421C428.925 331.093 435.306 329.849 435.306 329.849C434.87 327.457 434.69 325.025 434.767 322.594C435.048 320.386 435.914 312.871 435.914 312.871C435.494 311.753 434.924 310.697 434.218 309.731C430.907 303.846 428.438 297.527 426.882 290.96C423.861 284.793 422.504 278.599 421.105 272.84C417.22 256.856 417.334 241.109 419.806 220.866Z" fill="black"/>
</g>
<g opacity="0.3">
<path opacity="0.3" d="M322.846 202.662C323.572 204.493 324.298 206.323 325.024 208.154C325.097 208.445 325.228 208.717 325.41 208.955C325.592 209.194 325.82 209.393 326.081 209.54C327.168 209.958 328.038 208.621 328.556 207.581C329.603 205.525 331.14 203.756 333.032 202.43C334.924 201.104 337.113 200.261 339.407 199.974C343.125 199.548 346.94 200.623 350.604 199.863C347.437 197.818 344.048 196.136 340.501 194.85C336.923 193.565 333.013 193.528 329.41 194.744C327.629 195.38 326.06 196.496 324.877 197.967C323.694 199.439 322.943 201.209 322.707 203.08" fill="black"/>
</g>
<g opacity="0.3">
<path opacity="0.3" d="M353.077 198.034C357.424 197.953 361.768 198.341 366.031 199.193C370.324 200.063 374.217 202.3 377.125 205.567C380.081 209.164 381.187 213.875 382.379 218.371C382.608 219.235 383.026 220.262 383.917 220.36C384.46 220.353 384.982 220.146 385.382 219.779C392.694 214.421 397.533 206.207 400.177 197.552C402.82 188.897 403.432 179.76 403.579 170.714C400.083 176.943 398.564 184.046 396.256 190.803C393.949 197.561 390.539 204.37 384.545 208.273C384.612 207.505 384.526 206.731 384.292 205.996C384.058 205.26 383.68 204.579 383.181 203.989C382.176 202.816 380.969 201.832 379.616 201.083C375.558 198.673 371.041 197.133 366.353 196.561C361.664 195.989 356.908 196.397 352.387 197.759" fill="black"/>
</g>
<path d="M334.066 341.706H319.089C319.089 341.706 285.292 329.529 278.343 330.693C272.084 331.741 249.17 346.92 244.681 349.924C244.181 350.259 243.801 350.742 243.594 351.305C243.153 352.494 243.192 353.807 243.701 354.968C244.211 356.129 245.152 357.047 246.327 357.531L246.801 357.727L246.595 358.408C246.326 359.29 246.21 360.213 246.251 361.134C246.305 361.833 246.58 362.497 247.038 363.029C247.496 363.561 248.112 363.934 248.797 364.092C249.482 364.251 250.2 364.188 250.846 363.911C251.492 363.635 252.033 363.161 252.391 362.557L251.526 364.087C251.174 364.71 251.009 365.42 251.048 366.134L251.125 367.523C251.167 368.278 251.437 369.002 251.898 369.601C252.36 370.2 252.993 370.646 253.714 370.88C254.399 371.105 255.135 371.127 255.833 370.944C256.531 370.762 257.161 370.382 257.648 369.851C260.555 366.663 266.832 360.278 271.078 359.573C275.68 359.02 280.315 358.789 284.95 358.88C285.894 358.884 286.815 359.172 287.593 359.706C288.371 360.24 288.969 360.995 289.311 361.873C286.79 362.053 269.23 371.185 263.016 374.453C262.054 374.932 261.223 375.635 260.594 376.504C259.964 377.372 259.555 378.38 259.402 379.441C259.175 381.38 260.157 383.412 264.005 382.516C272.262 380.594 287.121 373.782 287.121 373.782C287.121 373.782 294.785 371.598 299.751 375.091C306.735 380.005 309.935 381.807 315.933 379.824C319.579 378.613 323.074 376.993 326.353 374.996L338.169 373.819C338.169 373.819 349.343 345.974 334.066 341.706Z" fill="#FFBE9D"/>
<path d="M289.442 347.396C289.413 347.524 287.044 346.767 283.093 346.518C277.943 346.174 272.785 347.048 268.038 349.068C263.291 351.088 259.09 354.197 255.776 358.142C253.223 361.159 252.132 363.388 252.02 363.32C252.211 362.775 252.463 362.252 252.771 361.762C253.547 360.389 254.436 359.082 255.429 357.856C258.708 353.761 262.954 350.54 267.788 348.483C272.622 346.426 277.892 345.597 283.126 346.07C284.701 346.203 286.262 346.467 287.793 346.859C288.361 346.976 288.914 347.156 289.442 347.396Z" fill="#EB996E"/>
<path d="M285.855 339.212C283.706 338.563 281.487 338.177 279.245 338.062C273.814 338.036 268.486 339.541 263.874 342.403C259.304 345.329 255.139 348.842 251.487 352.852C250.116 354.306 248.975 355.515 248.092 356.45C247.7 356.913 247.267 357.341 246.797 357.727C247.122 357.213 247.493 356.731 247.907 356.286C248.654 355.387 249.752 354.099 251.157 352.547C254.748 348.406 258.921 344.806 263.546 341.858C268.251 338.929 273.72 337.452 279.264 337.613C280.932 337.693 282.582 337.994 284.17 338.509C284.601 338.645 285.023 338.807 285.435 338.993C285.719 339.117 285.863 339.191 285.855 339.212Z" fill="#EB996E"/>
<path d="M480.987 0.390504C471.845 0.38854 462.877 2.88545 455.059 7.60983C447.24 12.3342 440.869 19.1053 436.64 27.1872C432.41 35.269 430.483 44.3523 431.067 53.4499C431.652 62.5475 434.726 71.3112 439.956 78.7885L433.952 97.3884L452.334 91.1464C458.772 95.6341 466.179 98.5468 473.956 99.6484C481.733 100.75 489.661 100.01 497.098 97.4875C504.535 94.9653 511.271 90.732 516.762 85.1304C522.252 79.5288 526.343 72.7165 528.701 65.2452C531.06 57.7739 531.621 49.8537 530.339 42.1259C529.057 34.3982 525.968 27.0802 521.321 20.7646C516.675 14.449 510.602 9.31344 503.595 5.77379C496.587 2.23414 488.843 0.389919 480.987 0.390504Z" fill="white"/>
<path class="dote1" d="M467.792 49.8827C467.766 50.7333 467.488 51.5572 466.993 52.2503C466.498 52.9433 465.808 53.4744 465.01 53.7762C464.212 54.0781 463.342 54.1373 462.51 53.9462C461.679 53.7552 460.923 53.3225 460.338 52.703C459.752 52.0834 459.365 51.3047 459.224 50.4654C459.082 49.6262 459.194 48.764 459.544 47.9879C459.894 47.2119 460.467 46.5568 461.191 46.1055C461.914 45.6542 462.756 45.427 463.609 45.4526C464.175 45.4696 464.733 45.5977 465.25 45.8295C465.766 46.0613 466.232 46.3924 466.621 46.8037C467.009 47.2151 467.312 47.6987 467.513 48.227C467.714 48.7553 467.809 49.3179 467.792 49.8827Z" fill="#263238"/>
<path class="dote2" d="M485.057 50.4004C485.032 51.251 484.754 52.0749 484.258 52.7679C483.763 53.4609 483.073 53.992 482.275 54.2938C481.477 54.5957 480.607 54.6548 479.776 54.4637C478.944 54.2727 478.188 53.84 477.603 53.2205C477.018 52.6009 476.63 51.8223 476.489 50.983C476.348 50.1438 476.46 49.2816 476.81 48.5056C477.16 47.7295 477.733 47.0744 478.456 46.6232C479.18 46.1719 480.021 45.9447 480.874 45.9703C482.018 46.0047 483.102 46.4907 483.886 47.3215C484.67 48.1523 485.092 49.2598 485.057 50.4004Z" fill="#263238"/>
<path class="dote3" d="M502.337 48.7668C502.742 49.5162 502.914 50.3684 502.833 51.2155C502.751 52.0626 502.42 52.8666 501.88 53.5259C501.341 54.1851 500.617 54.67 499.801 54.9192C498.985 55.1684 498.113 55.1707 497.296 54.9259C496.479 54.681 495.753 54.2 495.209 53.5436C494.666 52.8872 494.33 52.085 494.245 51.2383C494.159 50.3916 494.326 49.5386 494.727 48.787C495.127 48.0355 495.742 47.4191 496.493 47.016C497.501 46.4754 498.683 46.3562 499.779 46.6845C500.875 47.0129 501.795 47.7619 502.337 48.7668Z" fill="#263238"/>
<path d="M482.525 0.0477013C482.816 0.0257737 483.108 0.0296895 483.397 0.0594079C484.03 0.0962435 484.878 0.14553 485.958 0.208467C486.52 0.251646 487.153 0.270049 487.845 0.348966C488.535 0.467035 489.286 0.595158 490.096 0.733312C490.912 0.875531 491.788 1.028 492.722 1.19071C493.641 1.44709 494.616 1.71942 495.648 2.00768C500.68 3.43589 505.443 5.67904 509.746 8.64748C516.119 12.9599 521.416 18.6702 525.233 25.3405C529.049 32.0108 531.283 39.4639 531.763 47.1285C531.893 49.4249 531.87 51.7273 531.695 54.0207C531.578 55.183 531.566 56.3682 531.359 57.5374C531.147 58.7059 530.933 59.8833 530.716 61.0695C529.668 65.9249 527.908 70.5997 525.492 74.9435C522.919 79.4904 519.698 83.6412 515.93 87.2664C511.921 90.9684 507.362 94.0309 502.415 96.3459C497.296 98.7747 491.787 100.282 486.141 100.797C484.711 100.972 483.27 101.051 481.83 101.033C480.38 101.097 478.927 101.08 477.48 100.981C474.554 100.775 471.652 100.32 468.804 99.6232C462.663 98.1079 456.858 95.4644 451.687 91.8283L452.212 91.8971C446.13 94.1218 440.173 96.3008 434.34 98.4343L433.281 98.8215L433.612 97.7479C435.589 91.3397 437.509 85.1167 439.371 79.0788L439.446 79.5461C434.846 73.069 431.841 65.6028 430.672 57.7519C430.108 54.0993 429.989 50.3918 430.318 46.7107C430.406 44.9371 430.627 43.1727 430.98 41.4323C431.14 40.5718 431.3 39.7172 431.458 38.8686C431.641 38.0261 431.925 37.2136 432.151 36.3939C435.454 24.9081 442.743 14.9669 452.717 8.34499C456.401 5.86951 460.409 3.91237 464.628 2.52886C465.551 2.23043 466.441 1.94262 467.298 1.66541C468.175 1.47107 469.017 1.28445 469.824 1.10556C470.63 0.931994 471.4 0.765996 472.135 0.607554C472.875 0.488875 473.588 0.434711 474.256 0.352502C475.596 0.223821 476.776 0.0290467 477.805 0.00928714C478.818 0.00562797 479.683 0.00268339 480.403 0C481.061 0.00524481 481.583 0.00965204 481.989 0.0128233C482.169 0.00421216 482.348 0.0159088 482.525 0.0477013C482.348 0.0866881 482.168 0.105834 481.987 0.104783C481.583 0.12442 481.062 0.149785 480.405 0.181741C479.689 0.208331 478.828 0.240384 477.822 0.27787C476.8 0.326415 475.63 0.548403 474.303 0.703552C464.673 2.06746 455.647 6.18929 448.32 12.5688C440.993 18.9483 435.681 27.3113 433.028 36.6427C432.81 37.4484 432.535 38.247 432.36 39.0752C432.208 39.9089 432.056 40.7486 431.902 41.5944C431.564 43.3041 431.355 45.0368 431.278 46.7779C430.969 50.3889 431.1 54.0238 431.668 57.6035C432.84 65.2889 435.806 72.5923 440.327 78.9254L440.479 79.1404L440.402 79.3937C438.554 85.4261 436.647 91.653 434.681 98.0744L433.954 97.3884C439.775 95.2515 445.73 93.0654 451.819 90.8303L452.099 90.7278L452.344 90.8995C457.401 94.4501 463.075 97.0318 469.079 98.513C471.862 99.1949 474.699 99.6396 477.558 99.8423C478.974 99.939 480.394 99.9561 481.812 99.8934C483.221 99.9129 484.629 99.8369 486.028 99.6656C491.547 99.1664 496.935 97.6986 501.943 95.33C506.785 93.0716 511.249 90.0837 515.18 86.4713C518.875 82.9294 522.037 78.8741 524.57 74.4309C526.948 70.1826 528.687 65.6091 529.731 60.8568C529.947 59.695 530.162 58.5416 530.375 57.3968C530.582 56.2512 530.597 55.0886 530.717 53.9491C531.405 45.2763 529.797 36.5754 526.053 28.7173C522.309 20.8592 516.56 14.1197 509.383 9.17355C505.155 6.19744 500.474 3.92153 495.519 2.43371C494.501 2.13012 493.539 1.84325 492.632 1.57308C491.708 1.39317 490.842 1.22469 490.035 1.06763C489.233 0.911017 488.49 0.765877 487.806 0.632195C487.121 0.535715 486.493 0.499235 485.936 0.437761C484.862 0.327376 484.02 0.240905 483.392 0.176381C483.1 0.159102 482.81 0.116041 482.525 0.0477013Z" fill="#263238"/>
<path d="M122.753 394L82.1671 292.405C81.338 290.388 81.0194 288.199 81.2396 286.03C81.4598 283.862 82.2119 281.781 83.4296 279.971C84.6474 278.16 86.2932 276.677 88.2219 275.651C90.1506 274.626 92.3029 274.089 94.4888 274.089H220.933C223.716 274.089 226.429 274.958 228.69 276.575C230.952 278.191 232.649 280.474 233.544 283.102L268.409 385.576L309.125 385.771C312.433 385.786 315.106 390.611 315.106 393.909L270.288 393.395L122.753 394Z" fill="#263238"/>
<path d="M123.736 297.567C120.854 297.446 118.004 298.207 115.568 299.746C114.747 300.258 114 300.877 113.344 301.587C111.178 304.008 107.315 308.739 108.852 316.104C110.389 323.47 115.16 324.49 117.38 324.733C119.601 324.977 135.14 320.574 135.14 320.574C135.14 320.574 140.774 315.797 138.772 309.531C137.055 304.156 132.059 297.87 123.736 297.567Z" fill="#81184E"/>
<path d="M116.328 322.535C116.328 322.535 116.888 326.473 118.868 327.475C120.848 328.477 124.546 328.295 127.369 327.587C130.193 326.88 134.412 325.262 134.91 323.077C135.318 321.377 135.233 319.596 134.665 317.941C133.091 317.067 131.351 316.53 129.556 316.365C127.762 316.2 125.953 316.411 124.245 316.984C121.02 317.819 118.207 319.791 116.328 322.535Z" fill="#F5F5F5"/>
<g opacity="0.4">
<path opacity="0.4" d="M128.914 303.721C129.273 305.143 129.2 306.64 128.705 308.022C128.211 309.403 127.316 310.608 126.135 311.482C124.954 312.357 123.54 312.863 122.07 312.936C120.601 313.009 119.143 312.646 117.881 311.893C116.618 311.139 115.608 310.03 114.978 308.704C114.348 307.378 114.127 305.896 114.341 304.445C114.556 302.993 115.198 301.638 116.185 300.551C117.172 299.463 118.461 298.692 119.888 298.334C120.835 298.097 121.82 298.048 122.786 298.19C123.753 298.332 124.681 298.663 125.52 299.163C126.358 299.663 127.089 300.323 127.671 301.105C128.254 301.887 128.676 302.776 128.914 303.721Z" fill="white"/>
</g>
<g opacity="0.4">
<path opacity="0.4" d="M110.132 319.857C111.57 318.081 112.318 315.848 112.24 313.566C112.077 311.322 111.098 309.214 109.485 307.639C108.689 310.057 108.412 312.615 108.674 315.146C108.865 316.793 109.36 318.389 110.132 319.857Z" fill="white"/>
</g>
<g opacity="0.4">
<path opacity="0.4" d="M139.221 312.573C137.112 311.685 135.394 310.07 134.382 308.023C133.433 306.088 133.264 303.865 133.909 301.81C135.659 303.517 137.09 305.522 138.134 307.731C139.575 311.125 139.221 312.573 139.221 312.573Z" fill="white"/>
</g>
<path d="M181.196 338.237C181.196 339.856 180.714 341.44 179.811 342.787C178.909 344.133 177.626 345.183 176.126 345.803C174.625 346.423 172.973 346.585 171.38 346.269C169.787 345.953 168.324 345.173 167.175 344.028C166.026 342.882 165.244 341.423 164.927 339.835C164.61 338.246 164.773 336.599 165.395 335.103C166.016 333.606 167.069 332.327 168.42 331.427C169.77 330.527 171.358 330.047 172.982 330.047C175.161 330.047 177.25 330.91 178.79 332.446C180.33 333.982 181.195 336.065 181.196 338.237Z" fill="#F5F5F5"/>
<path d="M24.7827 351.51C12.8204 344.594 6.42038 328.506 5.94272 315.34C5.46519 302.174 10.9636 288.437 21.7923 280.889C33.1985 272.938 49.4422 273.081 61.1617 280.565C72.8811 288.049 79.7468 302.173 79.2178 316.041C78.6888 329.908 71.1071 343.152 59.8958 351.373" fill="#81184E"/>
<path d="M43.8718 352.782C43.7009 351.787 43.6268 350.778 43.6505 349.77C43.5893 347.616 43.5109 344.859 43.4171 341.557C43.2394 334.624 42.9657 325.05 42.5016 314.481C42.0333 303.909 41.4627 294.347 41.0294 287.425C40.832 284.127 40.6673 281.375 40.5386 279.224C40.4262 278.222 40.4112 277.21 40.4939 276.205C40.7499 277.181 40.9105 278.18 40.9735 279.187C41.2119 281.114 41.5025 283.908 41.8198 287.365C42.4558 294.277 43.1526 303.846 43.6214 314.432C44.0863 325.015 44.2346 334.606 44.2096 341.548C44.1982 345.019 44.1546 347.828 44.0868 349.769C44.1128 350.778 44.0408 351.787 43.8718 352.782Z" fill="white"/>
<path d="M9.48474 312.358C9.4593 312.666 7.55161 312.761 5.22423 312.571C2.89587 312.38 1.0295 311.976 1.05494 311.669C1.08014 311.361 2.9876 311.266 5.31583 311.457C7.64334 311.647 9.51006 312.051 9.48474 312.358Z" fill="#263238"/>
<path d="M10.1383 300.546C10.0128 300.828 8.36698 300.374 6.46294 299.532C4.5583 298.689 3.11638 297.778 3.242 297.495C3.36725 297.213 5.01282 297.667 6.91759 298.51C8.82163 299.352 10.2638 300.264 10.1383 300.546Z" fill="#263238"/>
<path d="M16.2258 291.776C16.0655 292.033 14.2151 291.164 12.2926 289.572C10.3647 287.986 9.16281 286.336 9.38592 286.131C9.616 285.915 11.1408 287.176 13.0072 288.711C14.8673 290.252 16.3949 291.51 16.2258 291.776Z" fill="#263238"/>
<path d="M22.366 283.504C22.083 283.629 21.1964 282.247 20.386 280.418C19.5754 278.589 19.1479 277.005 19.4312 276.881C19.7143 276.756 20.6007 278.137 21.4112 279.967C22.2217 281.795 22.6491 283.379 22.366 283.504Z" fill="#263238"/>
<path d="M31.9806 277.633C31.705 277.762 30.7498 276.291 30.117 274.252C29.478 272.215 29.4281 270.464 29.7281 270.414C30.0381 270.36 30.5719 271.961 31.1874 273.92C31.7953 275.882 32.2668 277.502 31.9806 277.633Z" fill="#263238"/>
<path d="M48.0329 271.016C48.3249 271.119 48.1466 272.374 47.6347 273.82C47.1229 275.267 46.4713 276.356 46.1792 276.253C45.8876 276.15 46.0658 274.895 46.5776 273.448C47.0895 272.002 47.7412 270.913 48.0329 271.016Z" fill="#263238"/>
<path d="M59.9376 276.11C60.1476 276.337 59.3842 277.382 58.2322 278.445C57.0797 279.508 55.9756 280.186 55.7653 279.959C55.555 279.733 56.3184 278.688 57.4709 277.625C58.6229 276.562 59.7273 275.884 59.9376 276.11Z" fill="#263238"/>
<path d="M70.411 282.858C70.5847 283.113 69.6533 284.045 68.3311 284.938C67.0085 285.831 65.7959 286.348 65.6224 286.093C65.4487 285.837 66.3798 284.906 67.7026 284.012C69.0246 283.119 70.2374 282.602 70.411 282.858Z" fill="#263238"/>
<path d="M77.8587 292.921C77.9802 293.205 76.5124 294.102 74.5805 294.923C72.6484 295.745 70.9838 296.181 70.8625 295.897C70.7411 295.613 72.2086 294.717 74.1408 293.895C76.0727 293.073 77.7373 292.638 77.8587 292.921Z" fill="#263238"/>
<path d="M80.7922 303.895C80.8304 304.202 79.3375 304.638 77.4579 304.87C75.5777 305.103 74.0233 305.042 73.9851 304.736C73.9469 304.43 75.44 303.993 77.3199 303.761C79.1995 303.529 80.7544 303.589 80.7922 303.895Z" fill="#263238"/>
<path d="M82.3077 317.405C82.1844 317.688 80.5933 317.271 78.7547 316.474C76.9155 315.676 75.5247 314.8 75.6483 314.517C75.7718 314.234 77.3623 314.651 79.2018 315.449C81.0403 316.246 82.4311 317.122 82.3077 317.405Z" fill="#263238"/>
<path d="M80.9728 328.997C80.8747 329.279 78.8633 328.801 76.7614 327.424C74.6522 326.057 73.4071 324.411 73.6265 324.209C73.8541 323.985 75.382 325.2 77.3747 326.489C79.3579 327.791 81.087 328.699 80.9728 328.997Z" fill="#263238"/>
<path d="M74.9223 339.551C74.7373 339.79 73.1364 338.852 71.6 337.197C70.0572 335.546 69.2379 333.886 69.4906 333.719C69.7521 333.542 70.9443 334.858 72.4211 336.436C73.8904 338.021 75.1186 339.304 74.9223 339.551Z" fill="#263238"/>
<path d="M17.4466 340.79C17.5897 341.063 15.9082 342.218 13.6919 343.369C11.4744 344.52 9.56173 345.231 9.41862 344.957C9.27587 344.684 10.9568 343.529 13.1742 342.378C15.3905 341.227 17.3039 340.516 17.4466 340.79Z" fill="#263238"/>
<path d="M12.1931 331.244C12.321 331.525 10.9725 332.41 9.18187 333.219C7.39061 334.029 5.83543 334.457 5.70761 334.176C5.57978 333.895 6.92788 333.011 8.71913 332.201C10.5098 331.392 12.0653 330.963 12.1931 331.244Z" fill="#263238"/>
<path d="M8.33265 322.79C8.3762 323.096 6.71669 323.583 4.62662 323.879C2.53569 324.175 0.806098 324.167 0.762552 323.861C0.719129 323.556 2.37814 323.068 4.46907 322.772C6.55926 322.477 8.28923 322.485 8.33265 322.79Z" fill="#263238"/>
<path d="M20.9883 318.13C21.0802 318.417 19.4614 319.172 17.3022 319.411C15.1432 319.658 13.3967 319.283 13.4221 318.983C13.4429 318.668 15.1321 318.536 17.1764 318.3C19.2212 318.075 20.8975 317.827 20.9883 318.13Z" fill="#263238"/>
<path d="M31.5067 307.696C31.598 307.985 30.3095 308.635 28.5718 308.802C26.8344 308.976 25.4438 308.589 25.4772 308.288C25.5066 307.975 26.8471 307.853 28.4621 307.69C30.0777 307.536 31.4163 307.395 31.5067 307.696Z" fill="#263238"/>
<path d="M33.514 299.339C33.4128 299.63 32.018 299.414 30.3991 298.856C28.7797 298.298 27.5492 297.609 27.6503 297.318C27.7515 297.026 29.1458 297.242 30.7653 297.8C32.3841 298.358 33.6149 299.047 33.514 299.339Z" fill="#263238"/>
<path d="M37.3763 290.886C37.1613 291.1 36.2023 290.471 35.52 289.286C34.8323 288.103 34.766 286.96 35.0592 286.882C35.3621 286.794 35.8778 287.678 36.491 288.727C37.0945 289.781 37.6038 290.669 37.3763 290.886Z" fill="#263238"/>
<path d="M32.7241 325.491C32.7974 325.791 31.5898 326.343 30.0269 326.724C29.2861 326.918 28.5259 327.03 27.7603 327.056L27.5391 326.404C27.9436 326.331 28.2048 326.348 28.2574 326.468C28.31 326.587 28.145 326.79 27.8172 327.037L27.5959 326.385C28.2875 326.056 29.0136 325.806 29.7609 325.638C31.3237 325.257 32.6507 325.191 32.7241 325.491Z" fill="#263238"/>
<path d="M34.8878 340.308C35.0009 340.595 33.461 341.468 31.449 342.256C29.436 343.045 27.713 343.452 27.5996 343.164C27.4866 342.877 29.026 342.005 31.039 341.216C33.0513 340.428 34.7745 340.021 34.8878 340.308Z" fill="#263238"/>
<path d="M23.0098 333.726C23.1097 334.018 22.0825 334.631 20.7163 335.095C19.3495 335.558 18.1612 335.697 18.0614 335.405C17.9616 335.113 18.9883 334.5 20.3551 334.036C21.7216 333.573 22.9102 333.434 23.0098 333.726Z" fill="#263238"/>
<path d="M23.9204 303.564C23.8496 303.86 22.0612 303.683 19.9957 302.95C17.9278 302.223 16.4271 301.237 16.5588 300.963C16.6928 300.68 18.3622 301.191 20.37 301.897C22.3751 302.609 23.9951 303.26 23.9204 303.564Z" fill="#263238"/>
<path d="M52.6722 300.285C52.8427 300.543 51.8358 301.505 50.4238 302.433C49.0111 303.362 47.7283 303.906 47.5579 303.648C47.3875 303.391 48.394 302.429 49.8067 301.5C51.2186 300.572 52.5019 300.028 52.6722 300.285Z" fill="#263238"/>
<path d="M54.2303 315.165C54.2932 315.467 53.2351 315.942 51.8672 316.225C50.4989 316.508 49.3391 316.493 49.2761 316.191C49.2131 315.889 50.2712 315.414 51.6395 315.131C53.0074 314.848 54.1673 314.863 54.2303 315.165Z" fill="#263238"/>
<path d="M56.0462 331.897C55.9162 332.177 54.3927 331.75 52.6438 330.942C50.8944 330.134 49.582 329.253 49.712 328.972C49.842 328.692 51.3653 329.12 53.1147 329.928C54.8636 330.735 56.1764 331.617 56.0462 331.897Z" fill="#263238"/>
<path d="M52.1991 348.187C51.9598 348.383 50.9704 347.577 49.9897 346.386C49.0083 345.195 48.407 344.071 48.6462 343.874C48.8853 343.678 49.8744 344.485 50.8558 345.676C51.8366 346.867 52.4383 347.992 52.1991 348.187Z" fill="#263238"/>
<path d="M51.4131 289.328C51.6021 289.567 50.9488 290.388 49.8285 290.946C48.7094 291.508 47.6592 291.54 47.5802 291.246C47.4957 290.945 48.316 290.456 49.3256 289.947C50.3382 289.444 51.2213 289.081 51.4131 289.328Z" fill="#263238"/>
<path d="M65.5031 304.337C65.6057 304.621 64.3024 305.337 62.5194 305.58C60.7367 305.831 59.2874 305.497 59.3088 305.196C59.3256 304.881 60.7043 304.709 62.365 304.473C64.027 304.248 65.4009 304.039 65.5031 304.337Z" fill="#263238"/>
<path d="M62.6942 290.864C62.8317 291.134 61.5374 292.055 59.6974 292.639C57.8586 293.228 56.2691 293.227 56.2239 292.927C56.1735 292.617 57.6084 292.136 59.3562 291.574C61.1056 291.02 62.5548 290.582 62.6942 290.864Z" fill="#263238"/>
<path d="M68.5795 325.203C68.5752 325.504 66.3627 325.7 63.6933 325.212C61.0213 324.734 59.0189 323.776 59.1209 323.493C59.2233 323.194 61.3166 323.652 63.8932 324.112C66.4672 324.584 68.5888 324.887 68.5795 325.203Z" fill="#263238"/>
<path d="M63.3387 344.775C63.1526 345.015 61.5231 344.058 59.8974 342.425C58.2668 340.797 57.3154 339.168 57.5567 338.983C57.8051 338.79 59.1151 340.063 60.6919 341.637C62.2626 343.216 63.5336 344.528 63.3387 344.775Z" fill="#263238"/>
<path d="M40.324 274.938C40.4904 275.179 35.855 277.052 30.4975 282.682C23.6582 290.157 19.373 299.602 18.2583 309.66C17.745 315.177 17.9936 320.739 18.9969 326.189C19.7913 330.664 20.8278 335.092 22.1017 339.454C23.1769 343.189 24.165 346.181 24.8282 348.255C25.2312 349.313 25.5469 350.401 25.772 351.51C25.2267 350.517 24.7732 349.476 24.4171 348.4C23.6263 346.367 22.521 343.407 21.3427 339.682C19.9494 335.317 18.8261 330.869 17.9794 326.366C16.8986 320.822 16.6177 315.153 17.1451 309.529C18.5345 297.511 24.3162 287.607 29.9275 282.133C32.1061 279.913 34.5712 277.992 37.2578 276.421C37.9828 275.991 38.7319 275.602 39.5016 275.258C39.7557 275.106 40.0338 274.998 40.324 274.938Z" fill="white"/>
<path d="M55.6073 352.228C55.3641 352.106 58.1259 347.866 60.6452 340.225C64.0219 330.305 65.0527 319.741 63.6571 309.358C62.8907 303.666 61.2823 298.119 58.8843 292.898C56.8755 288.673 54.1182 284.843 50.745 281.595C48.3728 279.506 45.6804 277.809 42.77 276.569C40.6971 275.707 39.4552 275.505 39.4728 275.411C39.78 275.382 40.0899 275.406 40.389 275.481C41.2517 275.642 42.1003 275.87 42.9273 276.163C45.971 277.274 48.7944 278.912 51.2678 281.001C54.813 284.249 57.7129 288.135 59.816 292.454C62.3166 297.751 63.9864 303.4 64.767 309.202C66.2026 319.748 65.045 330.483 61.394 340.483C60.7605 342.413 59.946 344.068 59.3388 345.557C58.6169 346.999 58.0213 348.252 57.4742 349.244C56.9365 350.289 56.312 351.287 55.6073 352.228Z" fill="white"/>
<path d="M12.1953 349.586H73.9827L74.3619 361.916H12.1953V349.586Z" fill="#263238"/>
<path d="M17.4453 355.75L20.995 393.395H66.1653L69.7933 356.162L17.4453 355.75Z" fill="#263238"/>
<path d="M74.3581 362.064C74.3581 362.373 60.4441 362.623 43.2842 362.623C26.1183 362.623 12.207 362.373 12.207 362.064C12.207 361.756 26.1183 361.506 43.2842 361.506C60.4441 361.506 74.3581 361.756 74.3581 362.064Z" fill="#455A64"/>
<path d="M68.0748 373.531C67.7508 374.375 67.3051 375.167 66.7517 375.883C65.3642 377.932 63.7573 379.824 61.9593 381.526L61.675 381.797L61.3945 381.503C57.6867 377.622 53.6339 374.085 49.2857 370.933L49.9689 370.904C48.2437 372.413 46.4458 373.987 44.6003 375.602C42.4066 377.506 40.2804 379.353 38.2541 381.112L37.903 381.417L37.5511 381.122C33.7037 377.897 30.2042 374.963 27.2343 372.473L27.835 372.408C25.7038 375.001 23.914 377.179 22.4978 378.902C21.8794 379.734 21.1773 380.5 20.4023 381.189C20.8874 380.274 21.4653 379.41 22.1269 378.612C23.4651 376.829 25.1564 374.574 27.1705 371.889L27.4277 371.546L27.7716 371.824C30.7857 374.26 34.337 377.131 38.242 380.288L37.5397 380.298C39.5586 378.53 41.6768 376.675 43.8624 374.761C45.7138 373.152 47.5174 371.585 49.2478 370.082L49.5795 369.793L49.9317 370.052C54.3143 373.265 58.3524 376.922 61.9817 380.963L61.4175 380.94C63.8302 378.65 66.0564 376.173 68.0748 373.531Z" fill="#455A64"/>

<style>
  .dote1{
    animation: 1.8s ease-in-out infinite blinkdot;
  }
  .dote2{
    animation: 1.8s ease-in-out .3s infinite blinkdot;
  }
  .dote3{
    animation: 1.8s ease-in-out .6s infinite blinkdot;
  }
  @keyframes blinkdot {
    0%{
      opacity: 1;
    }
    50%{
      opacity: 0;
    }
    100%{
      opacity: 1;
    }
  }


  .head {
    animation: 3s ease-in-out infinite headanim;
    transform-origin: center;
  }
  @keyframes headanim {
    0% {
      transform: rotate(0deg) translate(0, 0);
    }
    50% {
      transform: rotate(-3deg) translate(0px, 3px);
    }
    100% {
      transform: rotate(0deg) translate(0, 0);
    }
  }
</style>

</svg>
