<svg width="94" height="80" viewBox="0 0 94 80" fill="none" xmlns="http://www.w3.org/2000/svg">
<path d="M82.7139 19.445L37.2919 11.7015L7.14666 46.9359M82.7139 19.445L52.3023 54.7579M82.7139 19.445L83.3815 21.7091L53.0091 57.1552M7.14666 46.9359L52.3023 54.7579M7.14666 46.9359L7.65712 48.6673L21.473 51.253M52.3023 54.7579L53.0091 57.1552M53.0091 57.1552L21.473 51.253M74.3382 32.7715L77.3225 42.8936C69.9167 53.618 48.9205 71.7656 24.1817 58.5611L21.473 51.253" stroke="#95BAF3"/>
<circle r="1.08279" transform="matrix(-0.95918 0.282795 0.282795 0.95918 31.165 61.1345)" stroke="#95BAF3" stroke-width="2"/>
<path d="M32.7324 61.5411L38.5767 71.5437C37.9899 72.8266 35.86 75.0952 32.0353 73.9066L30.1865 62.726" stroke="#95BAF3"/>
<path d="M41.8655 31.6331L28.2101 47.6743C27.6307 48.3277 26.7512 50.189 27.8685 52.4074L30.4823 59.3091" stroke="#95BAF3" stroke-width="2" stroke-linecap="round"/>
</svg>
