<svg width="22" height="22" viewBox="0 0 22 22" fill="none" xmlns="http://www.w3.org/2000/svg">
<g clip-path="url(#clip0_190_3061)">
<path d="M18.6039 2.29265C18.0916 1.79588 16.0183 0.212149 11.3958 0.19092C11.3958 0.19092 5.94633 -0.153 3.2922 2.41154C1.81589 3.96554 1.29555 6.24561 1.23908 9.06914C1.18261 11.8927 1.11404 17.1831 5.95843 18.6182H5.96246L5.95843 20.8091C5.95843 20.8091 5.92616 21.6965 6.4828 21.8748C7.15238 22.0956 7.54768 21.4205 8.18902 20.6945C8.53995 20.2954 9.02398 19.7094 9.39104 19.2636C12.7067 19.5566 15.2519 18.8857 15.5423 18.7881C16.2119 18.5588 19.9995 18.0493 20.6126 12.7589C21.2499 7.29859 20.306 3.85091 18.6039 2.29265ZM19.1645 12.3597C18.6442 16.7755 15.5746 17.0557 15.0099 17.2468C14.7679 17.3275 12.5292 17.9134 9.71777 17.7223C9.71777 17.7223 7.62028 20.3845 6.96683 21.0766C6.75305 21.3016 6.5191 21.2804 6.52313 20.8346C6.52313 20.5416 6.53927 17.1958 6.53927 17.1958C6.53524 17.1958 6.53524 17.1958 6.53927 17.1958C2.43304 15.9985 2.67505 11.4936 2.71942 9.13708C2.76379 6.78059 3.18732 4.8487 4.43775 3.54944C6.68448 1.40525 11.3111 1.7237 11.3111 1.7237C15.2196 1.74068 17.0912 2.98049 17.5269 3.39659C18.9669 4.69584 19.701 7.80386 19.1645 12.3597ZM13.5578 8.92903C13.5739 9.29418 13.0536 9.31965 13.0374 8.9545C12.9931 8.0204 12.5776 7.56609 11.7225 7.51514C11.3756 7.49391 11.4079 6.94618 11.7507 6.96741C12.8761 7.0311 13.5013 7.71045 13.5578 8.92903ZM14.3766 9.40882C14.4169 7.60855 13.348 6.1989 11.3191 6.0418C10.9763 6.01633 11.0126 5.4686 11.3554 5.49408C13.6949 5.67241 14.9413 7.36653 14.8969 9.42156C14.8929 9.78671 14.3685 9.76972 14.3766 9.40882ZM16.2724 9.97777C16.2764 10.3429 15.7521 10.3472 15.7521 9.98202C15.7279 6.52159 13.5376 4.6364 10.8795 4.61517C10.5366 4.61093 10.5366 4.06745 10.8795 4.06745C13.8522 4.08868 16.2442 6.24985 16.2724 9.97777ZM15.8166 14.143V14.1515C15.381 14.9582 14.5662 15.8499 13.7272 15.5654L13.7191 15.5527C12.868 15.3022 10.8633 14.2152 9.59676 13.1537C8.94331 12.6102 8.34633 11.9691 7.8865 11.3534C7.47104 10.8057 7.05154 10.1561 6.64414 9.37485C5.78498 7.74017 5.5954 7.00987 5.5954 7.00987C5.32515 6.12672 6.16818 5.26904 6.9386 4.81048H6.94667C7.31776 4.60668 7.67272 4.67461 7.9107 4.97607C7.9107 4.97607 8.41087 5.60447 8.62466 5.91442C8.82634 6.20315 9.09659 6.66595 9.23777 6.92495C9.48382 7.38776 9.33054 7.85906 9.08852 8.05437L8.60449 8.46198C8.35844 8.67003 8.3907 9.05641 8.3907 9.05641C8.3907 9.05641 9.10869 11.9139 11.7911 12.6357C11.7911 12.6357 12.1581 12.6697 12.3558 12.4107L12.743 11.9012C12.9285 11.6464 13.3763 11.4851 13.8159 11.7441C14.4089 12.0965 15.1632 12.6442 15.6633 13.141C15.9457 13.383 16.0102 13.7524 15.8166 14.143Z" fill="white"/>
</g>
<defs>
<clipPath id="clip0_190_3061">
<rect width="20.6522" height="21.7391" fill="white" transform="translate(0.695312 0.173828)"/>
</clipPath>
</defs>
</svg>
