<svg width="68" height="68" viewBox="0 0 68 68" fill="none" xmlns="http://www.w3.org/2000/svg">
<path d="M34 0.75C15.6383 0.75 0.75 15.6383 0.75 34C0.75 52.3617 15.6383 67.25 34 67.25C52.3617 67.25 67.25 52.3617 67.25 34C67.25 15.6383 52.3617 0.75 34 0.75ZM44.6949 34.5121L28.4855 46.3055C28.3967 46.3693 28.2919 46.4074 28.1828 46.4156C28.0737 46.4239 27.9644 46.4018 27.867 46.352C27.7696 46.3021 27.6878 46.2264 27.6306 46.133C27.5735 46.0397 27.5431 45.9325 27.543 45.823V22.2512C27.5426 22.1415 27.5726 22.0339 27.6297 21.9403C27.6867 21.8466 27.7686 21.7706 27.8662 21.7207C27.9638 21.6707 28.0733 21.6488 28.1827 21.6573C28.292 21.6657 28.3968 21.7043 28.4855 21.7688L44.6949 33.5547C44.7715 33.6088 44.834 33.6806 44.8771 33.7639C44.9202 33.8472 44.9427 33.9396 44.9427 34.0334C44.9427 34.1272 44.9202 34.2196 44.8771 34.3029C44.834 34.3862 44.7715 34.458 44.6949 34.5121Z" fill="white"/>
</svg>
