<svg width="108" height="137" viewBox="0 0 108 137" fill="none" xmlns="http://www.w3.org/2000/svg">
<path d="M10.2089 20.0638C10.6248 19.5853 11.1631 19.2291 11.7662 19.0337C12.3692 18.8382 13.0142 18.8108 13.6316 18.9544L69.7108 32.1692C70.4401 32.3444 71.0935 32.7499 71.5741 33.3257C72.0547 33.9015 72.3368 34.6169 72.3787 35.3658C72.4206 36.1146 72.22 36.857 71.8066 37.4828C71.3933 38.1086 70.7892 38.5845 70.084 38.8399L56.0897 43.8205L58.6493 61.5989C58.7567 62.2825 58.6547 62.9827 58.3568 63.6073C58.0589 64.2319 57.5791 64.7518 56.9803 65.0986C56.5747 65.3318 56.1285 65.4857 55.6655 65.5522C55.2162 65.6174 54.7584 65.5927 54.3187 65.4796C53.879 65.3665 53.4661 65.1672 53.104 64.8932L43.6919 57.8502L33.0886 70.2709C32.5476 70.9237 31.7805 71.3486 30.9402 71.4611C30.5783 71.5123 30.2107 71.5057 29.8509 71.4418C29.2586 71.3376 28.7029 71.0833 28.2369 70.7032C27.7709 70.323 27.4101 69.8297 27.1892 69.2703L9.5716 23.5911C9.34219 23.0016 9.2803 22.3601 9.39279 21.7376C9.50527 21.1151 9.78773 20.5358 10.2089 20.0638ZM70.0721 35.4941C70.0704 35.2398 69.981 34.9939 69.8191 34.7979C69.6571 34.6019 69.4325 34.4678 69.1831 34.4182L17.758 22.3244L54.8831 41.7625L69.3006 36.6623C69.5414 36.5821 69.7484 36.4233 69.8882 36.2115C70.0281 35.9997 70.0929 35.7471 70.0721 35.4941ZM54.5077 63.0174C54.6874 63.1573 54.9051 63.2399 55.1324 63.2543C55.3597 63.2687 55.586 63.2143 55.782 63.0982C55.9817 62.9819 56.1423 62.8086 56.2431 62.6006C56.3439 62.3925 56.3804 62.1591 56.3479 61.9303L54.0161 45.734L45.1984 56.0771L54.5077 63.0174ZM11.7451 22.779L29.3585 68.4295C29.4298 68.619 29.5506 68.786 29.7083 68.9131C29.866 69.0401 30.0549 69.1226 30.2553 69.1519C30.4506 69.1919 30.6531 69.1768 30.8403 69.1084C31.0274 69.0399 31.1919 68.9208 31.3154 68.7644L52.9736 43.3882L11.781 21.8048C11.7067 21.9555 11.6651 22.1202 11.6589 22.2881C11.6527 22.456 11.682 22.6233 11.7451 22.779Z" fill="#EEEEEE"/>
<path d="M69.3718 78.6896C54.6543 93.5125 28.8187 123.84 43.216 126.569C61.2126 129.98 86.9045 92.1065 98.1919 97.4882C107.222 101.794 105.547 116.579 103.581 123.434" stroke="#EBEBEB" stroke-width="2" stroke-dasharray="12 12"/>
</svg>
