<svg width="313" height="454" viewBox="0 0 313 454" fill="none" xmlns="http://www.w3.org/2000/svg">
<g clip-path="url(#clip0_124_304)">
<path fill-rule="evenodd" clip-rule="evenodd" d="M94.0651 302.084C47.5169 350.264 15.8243 428.348 -53.5076 423.835C-126.419 419.089 -176.685 347.073 -212.291 282.143C-245.775 221.083 -268.256 147.633 -237.138 88.9748C-208.591 35.1648 -134.615 38.5439 -74.7421 22.8629C-16.8293 7.69531 41.2851 -27.7944 95.9319 1.74293C155.67 34.0323 194.109 102.218 193.7 167.96C193.328 227.904 134.779 259.942 94.0651 302.084Z" fill="#95BAF3"/>
<path fill-rule="evenodd" clip-rule="evenodd" d="M27.6231 295.434C-18.925 343.614 -50.6176 421.698 -119.95 417.185C-192.861 412.44 -243.127 340.423 -278.733 275.494C-312.217 214.434 -334.698 140.983 -303.579 82.3252C-275.033 28.5151 -201.057 31.8942 -141.184 16.2132C-83.2712 1.04565 -25.1569 -34.4441 29.49 -4.90673C89.2283 27.3826 127.667 95.5679 127.258 161.31C126.886 221.254 68.3375 253.292 27.6231 295.434Z" stroke="white" stroke-width="3"/>
</g>
<defs>
<clipPath id="clip0_124_304">
<rect width="653.551" height="520.444" fill="white" transform="translate(-326.284 -192) rotate(12.0783)"/>
</clipPath>
</defs>
</svg>
