<svg width="118" height="119" viewBox="0 0 118 119" fill="none" xmlns="http://www.w3.org/2000/svg">
<path fill-rule="evenodd" clip-rule="evenodd" d="M75.3663 117.57C49.2588 122.516 23.0841 109.598 10.4227 86.1589C-3.32278 60.713 -5.42177 27.1135 16.0822 7.82191C35.4536 -9.55652 63.2129 5.62391 85.7699 18.5635C103.929 28.9805 119.526 45.0276 117.332 65.9028C114.765 90.3311 99.4193 113.012 75.3663 117.57Z" fill="#95BAF3"/>
<path fill-rule="evenodd" clip-rule="evenodd" d="M105.878 10.8639C109.016 12.9689 109.857 17.2241 107.756 20.3683L59.6446 92.3798C56.5209 97.0553 49.7078 97.1913 46.4007 92.6443L20.7226 57.3385C18.4986 54.2807 19.1695 49.9953 22.2209 47.7667C25.2724 45.5382 29.549 46.2104 31.7729 49.2682L52.7359 78.0909L96.3937 12.7455C98.4943 9.60135 102.741 8.75894 105.878 10.8639Z" stroke="white" stroke-width="3" stroke-linecap="round"/>
</svg>
