<svg width="216" height="293" viewBox="0 0 216 293" fill="none" xmlns="http://www.w3.org/2000/svg">
<path class="plane" style="animation-delay: 0.2s" d="M19.3017 246.272C19.2148 246.295 19.1242 246.3 19.0349 246.287C18.9457 246.275 18.8596 246.244 18.7816 246.198C18.624 246.105 18.5089 245.952 18.4616 245.773C18.4143 245.595 18.4386 245.405 18.5292 245.246C18.6199 245.087 18.7694 244.972 18.9449 244.925L20.159 244.605L18.0791 242.479C8.76867 244.911 1.97368 245.538 1.34206 243.155C0.710435 240.773 6.92661 237.962 16.2236 235.48L16.9781 232.605L15.7638 232.926C15.5883 232.972 15.4012 232.946 15.2437 232.853C15.0861 232.759 14.971 232.606 14.9237 232.428C14.8764 232.249 14.9007 232.06 14.9913 231.901C15.0819 231.742 15.2314 231.626 15.4069 231.58L17.3842 231.058L21.2927 216.163L22.2041 215.922L24.215 233.716C32.0407 232.271 39.6984 231.483 39.6984 231.483L42.994 224.913L43.814 224.696L43.7322 230.57C43.7322 230.57 45.7322 230.141 46.0517 231.346C46.3712 232.551 44.4202 233.165 44.4202 233.165L47.4018 238.23L46.5817 238.447L40.4621 234.363C40.4621 234.363 33.4161 237.459 25.8984 240.067L32.9675 256.524L32.056 256.765L21.2787 245.749L19.3017 246.272Z" fill="#929292"/>
<path class="plane" style="animation-delay: 0s" d="M51.8267 229.179C51.8267 229.179 52.1449 229.095 52.7417 228.938C53.3359 228.773 54.2191 228.569 55.3209 228.237C56.415 227.878 57.7609 227.473 59.2829 226.95C60.794 226.406 62.5231 225.838 64.345 225.065C66.1909 224.345 68.1609 223.497 70.2252 222.552C72.2876 221.605 74.453 220.58 76.6487 219.433C78.8431 218.284 81.1161 217.102 83.3552 215.774C85.6274 214.503 87.8495 213.065 90.1084 211.69C92.303 210.211 94.5339 208.788 96.6375 207.248C98.7851 205.773 100.806 204.19 102.762 202.661C104.752 201.179 106.531 199.555 108.28 198.104C110.011 196.627 111.56 195.126 113.021 193.784C114.468 192.424 115.712 191.088 116.842 189.937C117.983 188.799 118.897 187.725 119.676 186.868C121.216 185.137 122.069 184.128 122.069 184.128C122.069 184.128 121.065 184.992 119.354 186.538C118.497 187.308 117.489 188.277 116.243 189.29C115.019 190.321 113.637 191.485 112.13 192.755C110.582 193.973 108.949 195.341 107.171 196.724C105.363 198.069 103.52 199.564 101.516 200.984C100.524 201.705 99.5156 202.437 98.4924 203.18C97.4541 203.898 96.4045 204.623 95.3438 205.357C93.2498 206.858 91.0261 208.237 88.8455 209.681C86.6267 211.064 84.4437 212.51 82.2102 213.789C81.1034 214.447 80.0071 215.098 78.9211 215.744C77.8238 216.367 76.7414 216.982 75.6738 217.588C73.5276 218.772 71.4505 219.919 69.4574 220.96C67.4571 221.986 65.5712 222.973 63.7999 223.821C62.0419 224.7 60.4005 225.437 58.9591 226.132C57.5089 226.801 56.2251 227.334 55.1734 227.8C53.0438 228.678 51.8267 229.179 51.8267 229.179Z" fill="#D1D0D0"/>
<path  class="plane" style="animation-delay: 0.6s" d="M155.152 154.821C155.034 154.961 154.866 155.048 154.685 155.061C154.503 155.075 154.323 155.015 154.185 154.894C154.046 154.774 153.96 154.602 153.945 154.418C153.93 154.234 153.988 154.052 154.105 153.912L154.92 152.944L152.025 152.384C145.763 159.787 140.548 164.237 138.696 162.627C136.844 161.017 140.36 155.09 146.584 147.654L145.591 144.834L144.776 145.802C144.658 145.942 144.49 146.029 144.309 146.042C144.127 146.056 143.948 145.996 143.809 145.875C143.67 145.754 143.584 145.583 143.569 145.399C143.554 145.215 143.612 145.032 143.729 144.893L145.056 143.316L139.911 128.705L140.523 127.978L152.14 141.569C157.74 135.843 163.571 130.76 163.571 130.76L162.588 123.406L163.138 122.752L166.362 127.669C166.362 127.669 167.76 126.157 168.697 126.971C169.634 127.785 168.38 129.423 168.38 129.423L173.66 131.898L173.11 132.552L165.809 132.706C165.809 132.706 161.774 139.349 157.078 145.86L172.089 155.417L171.478 156.144L156.478 153.245L155.152 154.821Z" fill="#81184E"/>
<path class="plane" style="animation-delay: 0.4s" d="M172.826 122.372C172.826 122.372 173.022 122.102 173.39 121.597C173.751 121.088 174.313 120.363 174.965 119.397C175.596 118.416 176.393 117.237 177.255 115.853C178.094 114.459 179.089 112.907 180.028 111.134C181.019 109.388 182.026 107.461 183.046 105.398C184.064 103.335 185.113 101.144 186.109 98.8382C187.103 96.531 188.138 94.1482 189.054 91.6715C190.032 89.2192 190.866 86.667 191.768 84.1404C192.555 81.5735 193.405 79.0272 194.083 76.4706C194.835 73.9363 195.421 71.3985 195.99 68.945C196.615 66.5063 196.986 64.0907 197.441 61.8295C197.867 59.5606 198.135 57.3888 198.435 55.3983C198.712 53.4028 198.846 51.5548 199.006 49.9272C199.184 48.3016 199.224 46.8707 199.294 45.6987C199.411 43.3516 199.444 42.0118 199.444 42.0118C199.444 42.0118 199.201 43.3335 198.835 45.6441C198.649 46.7989 198.469 48.2057 198.131 49.7991C197.822 51.3939 197.473 53.1932 197.092 55.1559C196.647 57.1048 196.229 59.2258 195.708 61.4508C195.14 63.6652 194.637 66.021 193.963 68.4193C193.64 69.6214 193.311 70.8418 192.978 72.0806C192.617 73.3096 192.253 74.5517 191.884 75.8069C191.189 78.3267 190.318 80.8344 189.52 83.3644C188.653 85.871 187.855 88.4047 186.913 90.8394C186.461 92.0644 186.013 93.2781 185.569 94.4803C185.102 95.6721 184.642 96.8478 184.189 98.0074C183.255 100.311 182.351 102.541 181.446 104.634C180.528 106.721 179.673 108.702 178.821 110.502C177.999 112.318 177.178 113.947 176.488 115.415C175.774 116.868 175.105 118.108 174.576 119.148C173.462 121.199 172.826 122.372 172.826 122.372Z" fill="#D1D0D0"/>


<style>
  .plane {
      animation: 5s ease-in-out infinite dash ;
  }







@keyframes dash  {
    0% {
        transform: translate(0, 0);
    }

    50% {
        transform: translate(10px, 10px);
    }

    100% {
        transform: translate(0, 0);
    }
  
}
</style>


</svg>
