<svg width="968" height="958" viewBox="0 0 968 958" fill="none" xmlns="http://www.w3.org/2000/svg">
<g clip-path="url(#clip0_603_22)">
<path fill-rule="evenodd" clip-rule="evenodd" d="M707.279 818.068C568.14 846.67 446.546 789.262 336.675 726.38C229.453 665.013 112.294 593.437 113.771 478.386C115.22 365.434 248.011 287.569 343.442 199.061C460.755 90.2583 549.945 -69.6432 715.094 -79.3173C897.134 -89.9808 1046.76 21.2602 1121.82 153.466C1193.57 279.849 1169.82 436.791 1085.16 572.518C1007.93 696.347 864.82 785.684 707.279 818.068Z" fill="#95BAF3"/>
<path fill-rule="evenodd" clip-rule="evenodd" d="M727.163 795.331C595.369 822.423 480.193 768.046 376.122 708.482C274.559 650.355 163.586 582.558 164.984 473.58C166.357 366.59 292.138 292.835 382.532 208.999C493.652 105.94 578.134 -45.5214 734.566 -54.6848C906.997 -64.7854 1048.73 40.5836 1119.82 165.81C1187.79 285.522 1165.29 434.18 1085.1 562.743C1011.94 680.035 876.388 764.656 727.163 795.331Z" stroke="#FAFAFA" stroke-width="2"/>
</g>
<path d="M192.867 232.6L175.811 232.237L167.153 232.094C164.254 232.03 161.355 232.043 158.456 232.03H157.884V232.613L157.819 247.133V247.781H158.469L175.681 247.704C181.414 247.704 187.16 247.561 192.893 247.496H193.257V247.146C193.231 244.68 193.14 242.228 193.088 239.815L192.867 232.6ZM192.867 232.6L192.685 239.931C192.62 242.345 192.542 244.732 192.516 247.12L192.867 246.769C187.134 246.704 181.388 246.562 175.655 246.562L158.443 246.484L159.093 247.133L159.028 232.613L158.443 233.197C161.277 233.171 164.111 233.184 166.958 233.119L175.512 232.977L192.867 232.6Z" fill="#EBEBEB"/>
<path d="M627.691 502.587L610.635 502.224L601.977 502.081C599.078 502.016 596.179 502.029 593.28 502.016H592.708V502.6L592.643 517.119V517.768H593.293L610.505 517.69C616.238 517.677 621.984 517.548 627.717 517.483H628.081V517.132C628.055 514.667 627.964 512.215 627.912 509.801L627.691 502.587ZM627.691 502.587L627.509 509.918C627.444 512.332 627.366 514.719 627.34 517.106L627.691 516.756C621.958 516.691 616.212 516.549 610.479 516.549L593.267 516.471L593.917 517.119L593.852 502.6L593.267 503.184C596.101 503.158 598.935 503.171 601.782 503.106L610.336 502.964L627.691 502.587Z" fill="#EBEBEB"/>
<path d="M173.666 214.293L156.61 213.929L147.952 213.787C145.053 213.722 142.154 213.735 139.255 213.709H138.683V214.293L138.618 228.812V229.461H139.268L156.48 229.383C162.213 229.37 167.959 229.24 173.692 229.175H174.056V228.825C174.03 226.36 173.939 223.907 173.887 221.494L173.666 214.293ZM173.666 214.293L173.484 221.624C173.419 224.037 173.341 226.424 173.315 228.812L173.666 228.461C167.933 228.397 162.187 228.254 156.454 228.254L139.242 228.176L139.892 228.825L139.827 214.306L139.242 214.889C142.076 214.864 144.91 214.877 147.757 214.812L156.311 214.669L173.666 214.293Z" fill="#EBEBEB"/>
<path d="M284.543 432.003L267.487 431.639L258.829 431.497C255.93 431.432 253.031 431.445 250.132 431.432H249.56V432.016L249.495 446.535V447.183H250.145L267.357 447.106C273.09 447.093 278.836 446.963 284.569 446.898H284.933V446.548C284.907 444.082 284.816 441.63 284.764 439.217L284.543 432.003ZM284.543 432.003L284.361 439.334C284.296 441.747 284.218 444.134 284.192 446.522L284.543 446.171C278.81 446.107 273.064 445.964 267.331 445.964L250.119 445.886L250.769 446.535L250.704 432.016L250.119 432.599C252.953 432.573 255.787 432.586 258.634 432.535L267.188 432.392L284.543 432.003Z" fill="#EBEBEB"/>
<path d="M265.342 413.695L248.286 413.331L239.628 413.189C236.729 413.124 233.83 413.137 230.931 413.124H230.359V413.708L230.294 428.227V428.876H230.944L248.156 428.798C253.889 428.785 259.635 428.655 265.368 428.59H265.732V428.24C265.706 425.775 265.615 423.322 265.563 420.909L265.342 413.695ZM265.342 413.695L265.16 421.026C265.095 423.439 265.017 425.826 264.991 428.214L265.342 427.864C259.609 427.799 253.863 427.656 248.13 427.656L230.918 427.578L231.568 428.227L231.503 413.708L230.918 414.292C233.752 414.266 236.586 414.279 239.433 414.214L247.987 414.071L265.342 413.695Z" fill="#EBEBEB"/>
<path d="M246.206 432.003L229.15 431.639L220.492 431.497C217.593 431.432 214.694 431.445 211.795 431.432H211.223V432.016L211.158 446.535V447.183H211.808L229.02 447.106C234.753 447.093 240.499 446.963 246.232 446.898H246.596V446.548C246.57 444.082 246.479 441.63 246.427 439.217L246.206 432.003ZM246.206 432.003L246.024 439.334C245.959 441.747 245.881 444.134 245.855 446.522L246.206 446.171C240.473 446.107 234.727 445.964 228.994 445.964L211.782 445.886L212.432 446.535L212.367 432.016L211.782 432.599C214.616 432.573 217.45 432.586 220.297 432.535L228.851 432.392L246.206 432.003Z" fill="#EBEBEB"/>
<path d="M668.758 214.293L651.702 213.929L643.044 213.787C640.145 213.722 637.246 213.735 634.347 213.709H633.775V214.293L633.71 228.812V229.461H634.36L651.572 229.383C657.305 229.37 663.051 229.24 668.784 229.175H669.148V228.825C669.122 226.36 669.031 223.907 668.979 221.494L668.758 214.293ZM668.758 214.293L668.576 221.624C668.511 224.037 668.433 226.424 668.407 228.812L668.758 228.461C663.025 228.397 657.279 228.254 651.546 228.254L634.334 228.176L634.984 228.825L634.919 214.306L634.334 214.889C637.168 214.864 640.002 214.877 642.849 214.812L651.403 214.669L668.758 214.293Z" fill="#EBEBEB"/>
<path d="M649.557 607.582L632.501 607.219L623.843 607.076C620.944 607.011 618.045 607.024 615.146 607.011H614.574V607.595L614.509 622.114V622.763H615.159L632.371 622.685C638.104 622.672 643.85 622.542 649.583 622.478H649.947V622.127C649.921 619.662 649.83 617.21 649.778 614.796L649.557 607.582ZM649.557 607.582L649.375 614.913C649.31 617.326 649.232 619.714 649.206 622.101L649.557 621.751C643.824 621.686 638.078 621.543 632.345 621.543L615.133 621.466L615.783 622.114L615.718 607.595L615.133 608.179C617.967 608.153 620.801 608.166 623.648 608.114L632.202 607.971L649.557 607.582Z" fill="#EBEBEB"/>
<path d="M668.758 589.274L651.702 588.911L643.044 588.768C640.145 588.703 637.246 588.716 634.347 588.703H633.775V589.287L633.71 603.806V604.455H634.36L651.572 604.377C657.305 604.377 663.051 604.235 668.784 604.17H669.148V603.819C669.122 601.354 669.031 598.902 668.979 596.488L668.758 589.274ZM668.758 589.274L668.576 596.605C668.511 599.019 668.433 601.406 668.407 603.793L668.758 603.443C663.025 603.378 657.279 603.236 651.546 603.236L634.334 603.158L634.984 603.806L634.919 589.287L634.334 589.871C637.168 589.845 640.002 589.858 642.849 589.806L651.403 589.664L668.758 589.274Z" fill="#EBEBEB"/>
<path d="M192.867 607.582L175.811 607.219L167.153 607.076C164.254 607.011 161.355 607.024 158.456 607.011H157.884V607.595L157.819 622.114V622.763H158.469L175.681 622.685C181.414 622.672 187.16 622.542 192.893 622.478H193.257V622.127C193.231 619.662 193.14 617.21 193.088 614.796L192.867 607.582ZM192.867 607.582L192.685 614.913C192.62 617.326 192.542 619.714 192.516 622.101L192.867 621.751C187.134 621.686 181.388 621.543 175.655 621.543L158.443 621.466L159.093 622.114L159.028 607.595L158.443 608.179C161.277 608.153 164.111 608.166 166.958 608.114L175.512 607.971L192.867 607.582Z" fill="#EBEBEB"/>
<path class="anim1" style="animation-delay: 0.4s" d="M633.528 255.009V151.052" stroke="#C7C7C7" stroke-miterlimit="10"/>
<path class="anim1" style="animation-delay: 0.4s" d="M589.484 297.399L593.02 305.171H674.049L677.585 297.399L643.083 273.563H623.973L589.484 297.399Z" fill="#EBEBEB"/>
<path class="anim1" style="animation-delay: 0.4s" d="M621.581 250.597L623.973 273.563H643.083L645.488 250.597H621.581Z" fill="#DBDBDB"/>
<path class="anim1" style="animation-delay: 0.4s" d="M589.484 297.398L593.02 305.171H674.062L677.585 297.398H589.484Z" fill="#DBDBDB"/>
<path class="anim1" d="M544.712 209.712V151.052" stroke="#C7C7C7" stroke-miterlimit="10"/>
<path class="anim1" d="M500.655 252.089L504.204 259.875H585.233L588.769 252.089L554.267 228.267H535.157L500.655 252.089Z" fill="#EBEBEB"/>
<path class="anim1" d="M532.765 205.301L535.157 228.267H554.267L556.659 205.301H532.765Z" fill="#DBDBDB"/>
<path class="anim1" d="M500.668 252.103L504.204 259.875H585.233L588.769 252.103H500.668Z" fill="#DBDBDB"/>
<path d="M297.535 279.337H138.48V269.917H297.535V279.337Z" fill="#EBEBEB"/>
<path d="M150.552 279.35H160.003V310.529H150.552V279.35Z" fill="#EBEBEB"/>
<path d="M150.552 279.35H160.003V288.991H150.552V279.35Z" fill="#DBDBDB"/>
<path d="M276.015 279.35H285.466V310.529H276.015V279.35Z" fill="#EBEBEB"/>
<path d="M276.015 279.35H285.466V288.991H276.015V279.35Z" fill="#DBDBDB"/>
<path d="M178.68 269.912V209.837H193.838V269.912H178.68Z" fill="#C7C7C7"/>
<path d="M178.681 213.234V206.63H193.839V213.234H178.681Z" fill="#DBDBDB"/>
<path d="M178.685 224.143V221.69H193.843V224.143H178.685Z" fill="#DBDBDB"/>
<path d="M178.685 262.034V255.43H195.728V262.034H178.685Z" fill="#DBDBDB"/>
<path d="M193.835 269.924V199.845H204.43V269.924H193.835Z" fill="#DBDBDB"/>
<path d="M195.909 233.378V206.429H202.266V233.378H195.909Z" fill="#EBEBEB"/>
<path d="M272.339 269.948L222.403 220.683L229.852 213.162L279.787 262.427L272.339 269.948Z" fill="#C7C7C7"/>
<path d="M262.132 256.846L242.929 237.9L247.398 233.388L266.601 252.333L262.132 256.846Z" fill="#DBDBDB"/>
<path d="M204.424 269.922V216.698H222.416V269.922H204.424Z" fill="#A6A6A6"/>
<path d="M204.423 264.279V259.323H222.415V264.279H204.423Z" fill="#C7C7C7"/>
<path d="M204.426 256.063V254.143H222.418V256.063H204.426Z" fill="#C7C7C7"/>
<path d="M166.25 269.928V219.909H178.678V269.928H166.25Z" fill="#A6A6A6"/>
<path d="M166.259 264.626V259.968H178.687V264.626H166.259Z" fill="#C7C7C7"/>
<path d="M166.254 234.878V230.22H178.682V234.878H166.254Z" fill="#C7C7C7"/>
<path d="M166.248 239.88V238.076H178.676V239.88H166.248Z" fill="#C7C7C7"/>
<path d="M237.897 329.901H311.477V418.976H237.897V329.901Z" fill="#EBEBEB"/>
<path d="M246.307 338.037H303.065V410.853H246.307V338.037Z" fill="white"/>
<path d="M300.855 338.037H303.065V410.853H300.855V338.037Z" fill="#DBDBDB"/>
<path d="M235.686 329.901H237.896V418.976H235.686V329.901Z" fill="#DBDBDB"/>
<path d="M270.656 348.066H284.046V387.861H270.656V348.066Z" fill="#DBDBDB"/>
<path d="M254.199 375.171H289.884V394.673H254.199V375.171Z" stroke="#EBEBEB" stroke-miterlimit="10"/>
<path d="M140.685 428.486H214.265V517.561H140.685V428.486Z" fill="#EBEBEB"/>
<path d="M149.109 436.622H205.867V509.438H149.109V436.622Z" fill="white"/>
<path d="M203.657 436.622H205.867V509.438H203.657V436.622Z" fill="#DBDBDB"/>
<path d="M138.488 428.486H140.698V517.561H138.488V428.486Z" fill="#DBDBDB"/>
<path d="M171.508 455.436H182.974V484.37H171.508V455.436Z" fill="#EBEBEB"/>
<path d="M159.444 473.03H190.241V492.973H159.444V473.03Z" stroke="#DBDBDB" stroke-miterlimit="10"/>
<path d="M669.096 478.7V700.199H534.949V478.7H669.096ZM547.117 618.456H656.915V560.794H547.117V618.456ZM547.117 547.066H656.915V489.405H547.117V547.066Z" fill="#DBDBDB"/>
<path d="M474.278 478.7H534.936V700.186H474.278V478.7Z" fill="#EBEBEB"/>
<path d="M630.811 489.392H656.902V547.053H630.811V489.392Z" fill="#EBEBEB"/>
<path d="M547.117 631.314H656.226V686.29H547.117V631.314Z" stroke="#EBEBEB" stroke-width="0.5" stroke-miterlimit="10"/>
<path d="M590.835 646.781H612.506V654.683H590.835V646.781Z" fill="#EBEBEB"/>
<path d="M630.811 560.794H656.902V618.456H630.811V560.794Z" fill="#EBEBEB"/>
<path d="M562.132 618.448V565.289H580.488V618.448H562.132Z" fill="#A6A6A6"/>
<path d="M562.138 609.919V598.448H580.494V609.919H562.138Z" fill="#DBDBDB"/>
<path d="M562.131 589.216V582.417H580.487V589.216H562.131Z" fill="#DBDBDB"/>
<path d="M524.991 434.156H571.375V478.648H524.991V434.156Z" fill="#EBEBEB"/>
<path d="M507.35 434.156H524.978V478.648H507.35V434.156Z" fill="#C7C7C7"/>
<path d="M571.375 456.396H524.978L561.209 457.538L571.375 456.396Z" fill="#C7C7C7"/>
<path d="M524.978 473.264H571.375L535.144 474.419L524.978 473.264Z" fill="#C7C7C7"/>
<path d="M571.375 443.966H541.995L568.112 444.9L571.375 443.966Z" fill="#C7C7C7"/>
<path d="M524.978 466.724H554.371L528.254 467.658L524.978 466.724Z" fill="#C7C7C7"/>
<path d="M560.247 439.009H527.11L532.622 439.567L560.247 439.009Z" fill="#C7C7C7"/>
<path d="M566.864 461.171H533.727L539.239 461.729L566.864 461.171Z" fill="#C7C7C7"/>
<path d="M546.48 448.196H524.978L521.143 449.688L546.48 448.196Z" fill="#EBEBEB"/>
<path d="M577.29 448.196H555.801L551.953 449.688L577.29 448.196Z" fill="#EBEBEB"/>
<path d="M549.704 468.19H571.206L575.041 469.683L549.704 468.19Z" fill="#EBEBEB"/>
<path d="M524.978 463.117H507.727L503.879 464.609L524.978 463.117Z" fill="#C7C7C7"/>
<path d="M518.959 456.396H505.569L507.35 455.177L518.959 456.396Z" fill="#C7C7C7"/>
<path d="M578.512 502.575H624.896V547.067H578.512V502.575Z" fill="#EBEBEB"/>
<path d="M560.884 502.575H578.512V547.067H560.884V502.575Z" fill="#C7C7C7"/>
<path d="M624.896 524.814H578.512L614.73 525.956L624.896 524.814Z" fill="#C7C7C7"/>
<path d="M578.512 541.682H624.896L588.665 542.836L578.512 541.682Z" fill="#C7C7C7"/>
<path d="M624.896 512.384H595.516L621.633 513.318L624.896 512.384Z" fill="#C7C7C7"/>
<path d="M578.512 535.143H607.892L581.775 536.077L578.512 535.143Z" fill="#C7C7C7"/>
<path d="M613.768 507.427H580.631L586.156 507.985L613.768 507.427Z" fill="#C7C7C7"/>
<path d="M620.384 529.589H587.247L592.772 530.147L620.384 529.589Z" fill="#C7C7C7"/>
<path d="M600 516.614H578.511L574.663 518.106L600 516.614Z" fill="#EBEBEB"/>
<path d="M630.824 516.614H609.322L605.474 518.106L630.824 516.614Z" fill="#EBEBEB"/>
<path d="M603.238 536.608H624.727L628.575 538.101L603.238 536.608Z" fill="#EBEBEB"/>
<path d="M578.512 531.535H561.248L557.4 533.027L578.512 531.535Z" fill="#C7C7C7"/>
<path d="M572.48 524.814H559.09L560.884 523.594L572.48 524.814Z" fill="#C7C7C7"/>
<path d="M547.117 561.741H562.132V618.456H547.117V561.741Z" fill="#EBEBEB"/>
<path d="M554.631 572.926C556.36 572.926 557.764 571.524 557.764 569.799C557.764 568.073 556.36 566.672 554.631 566.672C552.902 566.672 551.498 568.073 551.498 569.799C551.498 571.524 552.902 572.926 554.631 572.926Z" fill="white"/>
<path d="M554.631 571.589C555.619 571.589 556.425 570.785 556.425 569.799C556.425 568.813 555.619 568.008 554.631 568.008C553.643 568.008 552.837 568.813 552.837 569.799C552.837 570.798 553.643 571.589 554.631 571.589Z" fill="#A6A6A6"/>
<path d="M547.119 609.516V595.723H562.134V609.516H547.119Z" fill="white"/>
<path d="M580.488 606.739H637.311V618.533H580.488V606.739Z" fill="#C7C7C7"/>
<path d="M591.694 612.643C591.694 610.917 590.29 609.516 588.561 609.516C586.832 609.516 585.428 610.917 585.428 612.643C585.428 614.368 586.832 615.77 588.561 615.77C590.303 615.757 591.694 614.368 591.694 612.643Z" fill="white"/>
<path d="M590.355 612.643C590.355 611.657 589.549 610.852 588.561 610.852C587.573 610.852 586.767 611.657 586.767 612.643C586.767 613.629 587.573 614.433 588.561 614.433C589.562 614.42 590.355 613.629 590.355 612.643Z" fill="#A6A6A6"/>
<path d="M628.359 618.538H614.54V606.744H628.359V618.538Z" fill="white"/>
<path d="M331.871 782.213C212.649 782.213 116 772.539 116 760.606C116 748.673 212.649 739 331.871 739C451.093 739 547.742 748.673 547.742 760.606C547.742 772.539 451.093 782.213 331.871 782.213Z" fill="#EBEBEB"/>
<path d="M669.525 700.199L603.134 699.874L536.756 699.757L404 699.549L271.244 699.757L204.866 699.874L138.475 700.199L204.866 700.511L271.244 700.628L404 700.836L536.756 700.628L603.134 700.511L669.525 700.199Z" fill="#263238"/>





<g class="book">

<path d="M332.212 690.828L606.063 708.887V294.78L332.212 280.168V690.828Z" fill="#B93579"/>
<path d="M277.616 310.219H569.84V727.772H277.616V310.219Z" fill="#B93579"/>
<path opacity="0.2" d="M277.616 310.219H569.84V727.772H277.616V310.219Z" fill="black"/>
<path opacity="0.1" d="M560.711 310.219H569.84V727.772H560.711V310.219Z" fill="black"/>
<path d="M569.84 310.219L602.651 296.235L338.581 290.111L284.719 310.219H569.84Z" fill="white"/>
<path d="M600.125 297.505L581.892 296.806L563.646 296.201L527.168 295.129L490.678 294.268L472.433 293.895L454.176 293.627L472.421 294.326L490.654 294.932L527.145 296.003L563.623 296.876L581.88 297.237L600.125 297.505Z" fill="#EBEBEB"/>
<path d="M583.185 299.251L551.433 298.331L519.682 297.551L456.191 296.003L392.677 294.745L360.925 294.116L329.162 293.627L360.914 294.547L392.665 295.327L456.168 296.876L519.67 298.133L551.433 298.762L583.185 299.251Z" fill="#EBEBEB"/>
<path d="M583.871 304.083C572.018 303.664 560.154 303.373 548.301 303.105L512.73 302.43L477.148 302.022L459.357 301.917L441.566 301.929L459.346 302.488L477.137 302.919L512.707 303.594L548.289 303.99C560.154 304.072 572.007 304.141 583.871 304.083Z" fill="#EBEBEB"/>
<path d="M577.489 307.576L554.238 307.122L530.974 306.796L484.471 306.319L437.956 306.121L414.692 306.109L391.441 306.226L414.692 306.68L437.944 307.006L484.459 307.483L530.974 307.681L554.226 307.693L577.489 307.576Z" fill="#EBEBEB"/>
<path d="M422.494 303.093C412.201 302.849 401.897 302.744 391.604 302.651L360.715 302.511L329.825 302.639L314.386 302.802L298.947 303.093L314.386 303.384L329.825 303.547L360.715 303.675L391.604 303.536C401.909 303.442 412.201 303.338 422.494 303.093Z" fill="#EBEBEB"/>
<path d="M431.577 298.575C422.332 298.191 413.087 297.935 403.831 297.69L376.085 297.12L348.338 296.817L334.46 296.759L320.581 296.829L334.448 297.329L348.315 297.714L376.061 298.284L403.807 298.587C413.064 298.633 422.32 298.668 431.577 298.575Z" fill="#EBEBEB"/>
<path d="M338.581 290.111C334.005 291.566 329.476 293.126 324.958 294.722C320.441 296.305 315.946 297.993 311.452 299.623C306.981 301.347 302.487 303.012 298.039 304.77L291.367 307.436C289.155 308.368 286.931 309.252 284.731 310.219C287.024 309.509 289.283 308.717 291.565 307.972L298.353 305.608C302.871 304.025 307.365 302.336 311.86 300.706C316.331 298.983 320.825 297.318 325.273 295.548C329.72 293.802 334.168 292.02 338.581 290.111Z" fill="#EBEBEB"/>
<path d="M606.063 708.887L569.841 727.772V310.219L606.063 294.78V708.887Z" fill="#B93579"/>

<path opacity="0.4" d="M606.063 708.887L569.841 727.772V310.219L606.063 294.78V708.887Z" fill="black"/>
<path opacity="0.1" d="M345.897 488.645C353.375 495.703 363.922 497.512 372.984 494.185L448.559 565.529C445.749 574.752 448.172 585.186 455.65 592.26C463.161 599.335 473.708 601.128 482.753 597.801L467.134 583.054L472.142 571.699L483.19 566.045L498.825 580.809C501.635 571.57 499.212 561.135 491.718 554.061C484.223 546.986 473.676 545.193 464.615 548.504L389.071 477.177C391.882 467.954 389.459 457.503 381.964 450.445C374.486 443.37 363.922 441.577 354.877 444.905L370.512 459.652L365.489 471.007L354.441 476.66L338.806 461.897C335.979 471.136 338.386 481.57 345.897 488.645Z" fill="white"/>
<path opacity="0.1" d="M439.038 533.863L432.419 540.875L394.163 504.765L400.782 497.753L439.038 533.863Z" fill="white"/>
<g opacity="0.1">
<g opacity="0.1">
<g opacity="0.1">
<path opacity="0.1" d="M367.963 559.374C367.963 569.696 359.564 578.079 349.259 578.079C338.938 578.079 330.538 569.679 330.538 559.374C330.538 549.053 338.938 540.654 349.259 540.654C359.564 540.654 367.963 549.053 367.963 559.374ZM363.973 559.374C363.973 551.234 357.383 544.644 349.259 544.644C341.118 544.644 334.528 551.234 334.528 559.374C334.528 567.515 341.118 574.105 349.259 574.105C357.383 574.105 363.973 567.515 363.973 559.374ZM367.963 559.374C367.963 569.696 359.564 578.079 349.259 578.079C338.938 578.079 330.538 569.679 330.538 559.374C330.538 549.053 338.938 540.654 349.259 540.654C359.564 540.654 367.963 549.053 367.963 559.374ZM363.973 559.374C363.973 551.234 357.383 544.644 349.259 544.644C341.118 544.644 334.528 551.234 334.528 559.374C334.528 567.515 341.118 574.105 349.259 574.105C357.383 574.105 363.973 567.515 363.973 559.374ZM380.788 559.374C380.788 576.786 366.671 590.92 349.259 590.92C331.831 590.92 317.714 576.803 317.714 559.374C317.714 541.946 331.831 527.829 349.259 527.829C366.671 527.829 380.788 541.946 380.788 559.374ZM369.756 559.374C369.756 548.068 360.565 538.861 349.259 538.861C337.952 538.861 328.746 548.068 328.746 559.374C328.746 570.681 337.952 579.888 349.259 579.888C360.549 579.888 369.756 570.681 369.756 559.374ZM367.963 559.374C367.963 569.696 359.564 578.079 349.259 578.079C338.938 578.079 330.538 569.679 330.538 559.374C330.538 549.053 338.938 540.654 349.259 540.654C359.564 540.654 367.963 549.053 367.963 559.374ZM363.973 559.374C363.973 551.234 357.383 544.644 349.259 544.644C341.118 544.644 334.528 551.234 334.528 559.374C334.528 567.515 341.118 574.105 349.259 574.105C357.383 574.105 363.973 567.515 363.973 559.374Z" fill="black"/>
<g opacity="0.1">
<path opacity="0.1" d="M352.958 528.395H345.721L346.448 521.191H352.231L352.958 528.395Z" fill="black"/>
<path opacity="0.1" d="M336.966 530.704L330.715 534.306L327.727 527.7L332.734 524.809L336.966 530.704Z" fill="black"/>
<path opacity="0.1" d="M324.271 540.67L320.669 546.937L314.789 542.705L317.68 537.698L324.271 540.67Z" fill="black"/>
<path opacity="0.1" d="M318.279 555.676V562.896L311.059 562.169V556.386L318.279 555.676Z" fill="black"/>
<path opacity="0.1" d="M320.573 571.65L324.191 577.901L317.585 580.889L314.694 575.882L320.573 571.65Z" fill="black"/>
<path opacity="0.1" d="M330.556 584.345L336.807 587.947L332.575 593.843L327.568 590.952L330.556 584.345Z" fill="black"/>
<path opacity="0.1" d="M345.543 590.338H352.763L352.052 597.558H346.254L345.543 590.338Z" fill="black"/>
<path opacity="0.1" d="M361.519 588.044L367.786 584.442L370.758 591.032L365.751 593.924L361.519 588.044Z" fill="black"/>
<path opacity="0.1" d="M374.214 578.062L377.832 571.812L383.711 576.043L380.82 581.051L374.214 578.062Z" fill="black"/>
<path opacity="0.1" d="M380.222 563.073V555.854L387.426 556.58V562.363L380.222 563.073Z" fill="black"/>
<path opacity="0.1" d="M377.928 547.099L374.31 540.832L380.916 537.86L383.808 542.867L377.928 547.099Z" fill="black"/>
<path opacity="0.1" d="M367.946 534.403L361.679 530.785L365.911 524.906L370.918 527.797L367.946 534.403Z" fill="black"/>
</g>
</g>
</g>
</g>
<g opacity="0.1">
<g opacity="0.1">
<g opacity="0.1">
<path opacity="0.1" d="M475.163 479.566C469.639 480.083 464.745 476.013 464.228 470.489C463.711 464.965 467.781 460.071 473.305 459.554C478.829 459.037 483.707 463.091 484.224 468.631C484.757 474.155 480.687 479.05 475.163 479.566ZM483.013 468.744C482.56 463.883 478.264 460.329 473.418 460.781C468.573 461.234 465.003 465.53 465.455 470.376C465.908 475.221 470.204 478.791 475.05 478.339C479.912 477.887 483.465 473.606 483.013 468.744ZM475.163 479.566C469.639 480.083 464.745 476.013 464.228 470.489C463.711 464.965 467.781 460.071 473.305 459.554C478.829 459.037 483.707 463.091 484.224 468.631C484.757 474.155 480.687 479.05 475.163 479.566ZM483.013 468.744C482.56 463.883 478.264 460.329 473.418 460.781C468.573 461.234 465.003 465.53 465.455 470.376C465.908 475.221 470.204 478.791 475.05 478.339C479.912 477.887 483.465 473.606 483.013 468.744ZM475.163 479.566C469.639 480.083 464.745 476.013 464.228 470.489C463.711 464.965 467.781 460.071 473.305 459.554C478.829 459.037 483.707 463.091 484.224 468.631C484.757 474.155 480.687 479.05 475.163 479.566ZM483.013 468.744C482.56 463.883 478.264 460.329 473.418 460.781C468.573 461.234 465.003 465.53 465.455 470.376C465.908 475.221 470.204 478.791 475.05 478.339C479.912 477.887 483.465 473.606 483.013 468.744ZM476.197 490.647C464.551 491.729 454.246 483.152 453.148 471.523C452.065 459.877 460.626 449.572 472.272 448.49C483.901 447.408 494.222 455.968 495.304 467.614C496.403 479.243 487.842 489.565 476.197 490.647ZM485.791 468.486C485.193 462.106 479.54 457.406 473.16 458.003C466.796 458.601 462.08 464.254 462.677 470.634C463.275 477.014 468.944 481.715 475.308 481.117C481.688 480.519 486.389 474.866 485.791 468.486ZM484.24 468.631C484.757 474.155 480.703 479.05 475.179 479.566C469.655 480.083 464.761 476.013 464.244 470.489C463.727 464.965 467.797 460.071 473.321 459.554C478.829 459.053 483.723 463.107 484.24 468.631ZM483.013 468.744C482.56 463.883 478.264 460.329 473.418 460.781C468.573 461.234 465.003 465.53 465.455 470.376C465.908 475.221 470.204 478.791 475.05 478.339C479.912 477.887 483.465 473.606 483.013 468.744ZM475.163 479.566C469.639 480.083 464.745 476.013 464.228 470.489C463.711 464.965 467.781 460.071 473.305 459.554C478.829 459.037 483.707 463.091 484.224 468.631C484.757 474.155 480.687 479.05 475.163 479.566ZM483.013 468.744C482.56 463.883 478.264 460.329 473.418 460.781C468.573 461.234 465.003 465.53 465.455 470.376C465.908 475.221 470.204 478.791 475.05 478.339C479.912 477.887 483.465 473.606 483.013 468.744ZM475.163 479.566C469.639 480.083 464.745 476.013 464.228 470.489C463.711 464.965 467.781 460.071 473.305 459.554C478.829 459.037 483.707 463.091 484.224 468.631C484.757 474.155 480.687 479.05 475.163 479.566ZM483.013 468.744C482.56 463.883 478.264 460.329 473.418 460.781C468.573 461.234 465.003 465.53 465.455 470.376C465.908 475.221 470.204 478.791 475.05 478.339C479.912 477.887 483.465 473.606 483.013 468.744Z" fill="black"/>
<g opacity="0.1">
<path opacity="0.1" d="M476.407 448.991L468.315 449.734L468.218 443.967L475.438 443.289L476.407 448.991Z" fill="black"/>
<path opacity="0.1" d="M461.239 453.142L456.038 459.409L451.903 455.387L456.522 449.814L461.239 453.142Z" fill="black"/>
<path opacity="0.1" d="M453.454 466.823L454.213 474.931L448.43 475.012L447.768 467.808L453.454 466.823Z" fill="black"/>
<path opacity="0.1" d="M457.621 481.989L463.888 487.19L459.866 491.341L454.294 486.722L457.621 481.989Z" fill="black"/>
<path opacity="0.1" d="M471.286 489.774L479.394 489.031L479.491 494.798L472.271 495.476L471.286 489.774Z" fill="black"/>
<path opacity="0.1" d="M486.469 485.608L491.67 479.357L495.805 483.379L491.185 488.951L486.469 485.608Z" fill="black"/>
<path opacity="0.1" d="M494.254 471.943L493.495 463.835L499.277 463.754L499.939 470.958L494.254 471.943Z" fill="black"/>
<path opacity="0.1" d="M490.087 456.776L483.82 451.575L487.842 447.424L493.415 452.044L490.087 456.776Z" fill="black"/>
</g>
</g>
</g>
</g>
<g opacity="0.1">
<g opacity="0.1">
<path opacity="0.1" d="M448.883 491.971C447.365 498.981 440.435 503.439 433.409 501.921C426.383 500.403 421.941 493.474 423.46 486.447C424.978 479.421 431.907 474.979 438.933 476.498C445.943 478.016 450.401 484.945 448.883 491.971ZM442.099 490.485C442.81 487.207 440.726 483.976 437.447 483.265C434.168 482.555 430.938 484.638 430.227 487.917C429.517 491.196 431.6 494.426 434.879 495.137C438.158 495.848 441.388 493.764 442.099 490.485Z" fill="black"/>
<path opacity="0.1" d="M441.26 477.548L436.366 476.482L437.4 473.09L441.745 474.027L441.26 477.548Z" fill="black"/>
<path opacity="0.1" d="M431.6 477.176L427.384 479.874L425.705 476.757L429.452 474.35L431.6 477.176Z" fill="black"/>
<path opacity="0.1" d="M424.51 483.75L423.444 488.628L420.036 487.611L420.989 483.266L424.51 483.75Z" fill="black"/>
<path opacity="0.1" d="M424.122 493.409L426.836 497.608L423.702 499.288L421.296 495.557L424.122 493.409Z" fill="black"/>
<path opacity="0.1" d="M430.697 500.5L435.591 501.566L434.558 504.958L430.213 504.021L430.697 500.5Z" fill="black"/>
<path opacity="0.1" d="M440.355 500.872L444.571 498.174L446.25 501.292L442.503 503.698L440.355 500.872Z" fill="black"/>
<path opacity="0.1" d="M447.446 494.314L448.512 489.419L451.92 490.437L450.967 494.782L447.446 494.314Z" fill="black"/>
<path opacity="0.1" d="M447.834 484.654L445.12 480.439L448.254 478.759L450.661 482.506L447.834 484.654Z" fill="black"/>
</g>
<path opacity="0.1" d="M433.927 485.705L438.078 485.511L440.323 489L438.417 492.682L434.266 492.876L432.021 489.387L433.927 485.705ZM435.898 490.486C436.608 490.647 437.303 490.195 437.464 489.484C437.626 488.773 437.174 488.079 436.463 487.917C435.752 487.756 435.058 488.208 434.896 488.919C434.735 489.63 435.187 490.34 435.898 490.486Z" fill="black"/>
</g>
<path d="M494.94 302.745L465.925 302.302C465.925 302.302 470.303 285.524 472.504 281.438C474.716 277.351 488.618 265.696 488.618 265.696L490.283 275.197L512.708 271.995C512.708 271.995 503.58 280.18 500.599 283.324C498.259 285.815 494.94 302.745 494.94 302.745Z" fill="#B93579"/>
<path d="M534.899 298.181L509.715 297.552L511.869 276.582L522.674 284.884L535.423 278.236L534.899 298.181Z" fill="#263238"/>
<path d="M332.939 326.606L319 312.667L331.545 305H365L349.667 312.667L332.939 326.606Z" fill="#11457E"/>
<path d="M319 375.394V312.667L334.333 325.212V364.939L319 375.394Z" fill="#D7141A"/>
<path d="M349.667 375.394V312.667L334.333 325.212V364.939L349.667 375.394Z" fill="white"/>
</g>



<path d="M94.9716 758.377C99.0712 759.871 220.742 762.27 225.318 759.474C225.858 759.188 227.829 718.938 227.829 718.938C227.686 718.366 229.719 714.489 232.818 709.102C241.494 693.959 258.449 666.85 258.449 666.85L186.244 645.017L156.577 704.43L149.014 719.589C149.014 719.589 132.424 726.073 117.965 732.54C117.949 732.556 117.933 732.556 117.917 732.572C109.003 736.544 101.248 740.167 99.4367 741.534C94.8127 745.109 90.8719 756.931 94.9716 758.377Z" fill="#FFBF9D"/>
<path d="M94.9719 758.377C99.0716 759.871 220.742 762.27 225.318 759.474C225.859 759.188 227.829 718.938 227.829 718.938C227.686 718.366 229.72 714.489 232.818 709.102L156.578 704.43L149.014 719.59C149.014 719.59 132.425 726.073 117.965 732.54C117.949 732.556 117.933 732.556 117.917 732.572C109.003 736.544 101.249 740.167 99.437 741.534C94.813 745.109 90.8723 756.931 94.9719 758.377Z" fill="#FFBF9D"/>
<path d="M94.4635 758.822C98.6902 760.316 220.519 762.413 225.207 759.553C226.987 758.473 229.148 739.722 227.829 718.922L149.284 717.667C149.284 717.667 103.807 737.768 98.9922 741.454C94.2092 745.157 90.2367 757.329 94.4635 758.822Z" fill="#81184E"/>
<path opacity="0.1" d="M193.347 760.936C210.683 760.856 223.729 760.443 225.223 759.569C227.002 758.489 229.163 739.738 227.845 718.938L225.922 718.906L193.347 760.936Z" fill="black"/>
<path d="M96.2909 753.992C116.726 753.833 199.132 755.152 219.344 756.566C219.503 756.582 219.503 756.693 219.344 756.693C199.1 757.281 116.694 755.295 96.2909 754.325C95.8618 754.294 95.8618 753.992 96.2909 753.992Z" fill="#263238"/>
<path d="M106.906 737.228C111.752 737.116 116.44 739.5 119.03 742.424C121.525 745.236 123.622 749.177 123.4 753.404C123.4 753.531 123.161 753.531 123.146 753.404C122.113 745.395 114.962 738.245 106.874 737.482C106.747 737.466 106.747 737.228 106.906 737.228Z" fill="#263238"/>
<path d="M142.865 719.622C151.048 719.653 160.471 722.688 165.429 729.474C165.62 729.744 165.238 729.998 165 729.871C157.675 725.93 150.699 722.974 142.706 720.623C142.134 720.464 142.277 719.622 142.865 719.622Z" fill="#263238"/>
<path d="M136.508 721.973C144.692 722.005 154.115 725.04 159.072 731.825C159.263 732.079 158.882 732.349 158.643 732.222C151.318 728.281 144.342 725.326 136.334 722.974C135.777 722.815 135.921 721.973 136.508 721.973Z" fill="#263238"/>
<path d="M130.152 724.325C138.32 724.357 147.758 727.392 152.716 734.177C152.907 734.447 152.525 734.701 152.287 734.574C144.962 730.634 137.986 727.678 129.993 725.326C129.437 725.167 129.564 724.325 130.152 724.325Z" fill="#263238"/>
<path d="M123.797 726.677C131.98 726.708 141.403 729.743 146.361 736.528C146.552 736.798 146.17 737.053 145.932 736.926C138.607 732.985 131.631 730.029 123.638 727.678C123.082 727.519 123.225 726.677 123.797 726.677Z" fill="#263238"/>
<path d="M214.481 737.069C223.65 737.26 223.38 751.497 214.195 751.322C205.027 751.132 205.297 736.894 214.481 737.069Z" fill="#263238"/>
<path d="M134.395 697.662C138.59 694.309 143.738 697.741 146.233 701.348C150.269 707.196 152.971 715.331 153.304 722.371C153.304 722.545 153.177 722.609 153.05 722.593C152.859 723.181 152.16 723.658 151.572 723.229C145.82 719.097 139.162 715.411 134.856 709.643C132.329 706.274 130.438 700.84 134.395 697.662ZM144.136 715.204C146.916 717.302 149.777 719.256 152.478 721.449C151.095 717.349 149.888 713.218 148.076 709.261C147.218 707.37 146.297 705.448 145.184 703.7C143.452 700.967 135.555 694.007 134.586 702.874C134.045 707.768 140.815 712.694 144.136 715.204Z" fill="#263238"/>
<path d="M173.564 725.755C166.43 726.725 159.12 724.579 152.144 723.372C151.414 723.245 151.27 722.418 151.556 721.878C151.461 721.799 151.414 721.656 151.541 721.528C156.8 716.825 164.491 713.043 171.483 711.82C175.805 711.073 181.875 712.328 182.415 717.667C182.939 722.72 177.727 725.183 173.564 725.755ZM178.586 721.179C184.242 714.267 173.723 713.52 170.561 714.203C168.527 714.648 166.509 715.331 164.57 716.046C160.487 717.54 156.689 719.574 152.796 721.465C156.26 721.846 159.66 722.514 163.109 723.038C167.208 723.642 175.471 724.993 178.586 721.179Z" fill="#263238"/>
<path d="M238.332 708.308L152.669 695.325C152.669 695.325 193.84 613.253 219.328 568.729C233.502 543.972 272.274 542.749 291.119 572.416C316.305 612.045 335.85 649.181 347.052 669.774L366.486 671.443L362.291 703.191L297.714 717.651C272.973 720.607 255.621 676.575 255.208 677.322C252.093 683.106 238.332 708.308 238.332 708.308Z" fill="#37474F"/>
<path d="M254.779 677.512C257.21 672.523 259.117 667.231 261.278 662.115C263.375 657.173 265.473 652.231 267.555 647.274C271.75 637.263 276.103 627.3 280.187 617.241C282.475 611.6 284.573 605.88 286.718 600.175C286.766 600.032 286.988 600.096 286.94 600.239C285.288 605.626 283.572 610.996 281.76 616.351C282.237 615.43 282.714 614.508 283.222 613.602C284.589 611.139 286.019 608.708 287.449 606.277C287.497 606.182 287.64 606.277 287.592 606.372C286.273 608.82 284.97 611.251 283.604 613.666C282.92 614.874 282.189 616.05 281.458 617.257C276.374 632.21 270.621 646.94 263.693 661.146C260.976 666.739 257.782 672.094 255.049 677.671C254.954 677.846 254.684 677.687 254.779 677.512Z" fill="#263238"/>
<path d="M236.41 693.085C240.542 686.713 250.378 667.422 253.905 660.748C261.024 647.258 267.555 633.497 273.72 619.545C277.2 611.664 280.457 603.703 283.683 595.726C283.699 595.679 283.794 595.694 283.778 595.758C278.932 610.154 273.148 624.249 266.871 638.073C260.595 651.914 240.335 689.223 236.68 693.244C236.537 693.387 236.299 693.244 236.41 693.085Z" fill="#263238"/>
<path d="M289.594 606.373C296.967 619.562 304.515 632.639 311.936 645.812C315.686 652.47 319.42 659.112 323.138 665.786C324.886 668.932 326.57 672.11 328.382 675.209C330.098 678.148 332.132 680.579 335.151 682.232C338.472 684.059 342.286 684.933 345.893 685.982C350.056 687.206 354.203 688.509 358.382 689.669C358.573 689.716 358.478 690.018 358.287 689.955C354.553 688.954 350.787 688.096 347.037 687.174C343.636 686.332 340.125 685.617 336.835 684.425C333.848 683.328 331.258 681.708 329.272 679.197C327.127 676.512 325.617 673.349 323.964 670.346C316.56 656.808 309.234 643.222 301.957 629.62C297.825 621.882 293.726 614.127 289.531 606.42C289.499 606.373 289.562 606.325 289.594 606.373Z" fill="#263238"/>
<path d="M240.271 696.279C235.139 695.341 229.879 694.896 224.715 694.229C219.519 693.561 214.339 692.894 209.143 692.211C198.798 690.86 163.554 685.251 160.9 684.361C160.726 684.298 160.789 684.027 160.964 684.027C163.49 683.948 186.563 687.015 191.743 687.777C202.088 689.303 212.384 691.13 222.697 692.878C225.637 693.371 228.576 693.943 231.516 694.451C234.456 694.976 237.395 695.611 240.351 695.977C240.494 696.024 240.446 696.31 240.271 696.279Z" fill="#263238"/>
<path d="M188.914 785.247C190.281 781.1 263.725 684.075 268.73 682.2C269.302 681.961 302.131 705.32 302.131 705.32C303.482 707.131 365.882 693.943 365.882 693.943L366.502 769.214L252.84 766.799C252.84 766.799 237.49 775.824 223.444 783.181C223.412 783.181 223.412 783.197 223.396 783.181C214.752 787.742 207.109 791.571 204.916 792.143C199.227 793.589 187.516 789.363 188.914 785.247Z" fill="#FFBF9D"/>
<path d="M204.916 792.127C207.108 791.571 214.752 787.726 223.38 783.165C223.396 783.181 223.412 783.165 223.427 783.165C237.458 775.808 252.824 766.783 252.824 766.783L278.121 767.323L317.719 703.413C309.027 704.954 302.544 705.876 302.115 705.304C302.115 705.304 269.302 681.946 268.73 682.2C263.709 684.059 190.281 781.084 188.914 785.231C187.516 789.363 199.227 793.605 204.916 792.127Z" fill="#FFBF9D"/>
<path d="M188.232 785.374C189.678 781.131 263.439 684.154 268.588 682.232C270.542 681.501 286.591 691.416 302.116 705.32L254.477 767.784C254.477 767.784 210.525 791.063 204.662 792.556C198.814 794.034 186.786 789.617 188.232 785.374Z" fill="#81184E"/>
<path d="M193.172 786.931C205.932 770.978 255.922 705.431 267.315 688.699C267.411 688.556 267.315 688.492 267.22 688.619C254.222 704.16 204.772 770.104 192.902 786.725C192.648 787.074 192.902 787.265 193.172 786.931Z" fill="#263238"/>
<path d="M212.908 788.965C215.99 785.231 217.039 780.066 216.34 776.221C215.672 772.519 213.877 768.435 210.429 765.988C210.333 765.924 210.19 766.099 210.286 766.178C215.943 771.947 217.134 781.989 212.717 788.806C212.622 788.949 212.796 789.092 212.908 788.965Z" fill="#263238"/>
<path d="M248.979 771.629C254.016 765.193 257.464 755.898 255.207 747.81C255.128 747.492 254.683 747.619 254.635 747.889C253.189 756.073 251.203 763.382 248.089 771.12C247.882 771.677 248.629 772.09 248.979 771.629Z" fill="#263238"/>
<path d="M243.21 775.172C248.247 768.737 251.695 759.441 249.439 751.353C249.359 751.035 248.914 751.162 248.867 751.433C247.421 759.616 245.435 766.926 242.32 774.664C242.098 775.22 242.845 775.633 243.21 775.172Z" fill="#263238"/>
<path d="M237.426 778.7C242.463 772.265 245.911 762.969 243.655 754.881C243.575 754.563 243.13 754.69 243.083 754.96C241.637 763.144 239.65 770.453 236.536 778.192C236.329 778.748 237.06 779.161 237.426 778.7Z" fill="#263238"/>
<path d="M231.642 782.228C236.679 775.792 240.127 766.496 237.871 758.408C237.792 758.091 237.347 758.218 237.299 758.488C235.853 766.671 233.867 773.981 230.752 781.719C230.546 782.275 231.292 782.688 231.642 782.228Z" fill="#263238"/>
<path d="M279.614 704.573C285.144 697.263 273.782 688.651 268.237 695.976C262.707 703.302 274.068 711.914 279.614 704.573Z" fill="#263238"/>
<path d="M251.855 784.102C249.995 777.142 251.219 769.626 251.537 762.555C251.569 761.824 252.379 761.57 252.951 761.777C253.031 761.665 253.158 761.602 253.285 761.713C258.608 766.337 263.327 773.504 265.425 780.289C266.712 784.484 266.235 790.649 260.991 791.873C256.05 793.017 252.935 788.154 251.855 784.102ZM257.019 788.504C264.583 793.239 264.011 782.72 262.93 779.669C262.247 777.714 261.293 775.792 260.356 773.949C258.37 770.087 255.859 766.576 253.507 762.953C253.571 766.433 253.316 769.897 253.253 773.377C253.158 777.524 252.84 785.882 257.019 788.504Z" fill="#263238"/>
<path d="M275.022 741.771C278.883 745.505 276.119 751.051 272.845 753.975C267.554 758.71 259.831 762.412 252.871 763.62C252.697 763.652 252.617 763.525 252.617 763.398C252.013 763.286 251.457 762.651 251.807 762.015C255.175 755.786 258.004 748.715 263.184 743.726C266.203 740.802 271.367 738.228 275.022 741.771ZM258.83 753.625C257.098 756.644 255.525 759.727 253.682 762.683C257.575 760.792 261.531 759.076 265.218 756.787C266.982 755.691 268.777 754.547 270.382 753.228C272.877 751.162 278.788 742.454 269.858 742.613C264.948 742.693 260.896 750.034 258.83 753.625Z" fill="#263238"/>
<path d="M333.26 676.542C333.26 676.542 457.807 654.678 493.242 661.86C542.66 671.887 551.733 730.314 515.09 752.084C468.66 779.669 281.649 774.33 281.649 774.33L326.316 698.63C326.316 698.63 395.025 684.17 457.33 686.267L332.736 705.288L333.26 676.542Z" fill="#37474F"/>
<path d="M323.329 703.508C323.393 703.412 323.393 703.222 323.425 703.126C323.457 703.015 323.472 702.92 323.504 702.809C323.568 702.57 323.631 702.316 323.695 702.078C323.838 701.569 324.013 701.093 324.219 700.6C324.41 700.107 324.617 699.631 324.855 699.154C325.093 698.661 325.395 698.264 325.697 697.819C325.729 697.771 325.776 697.771 325.824 697.74C325.856 697.724 325.872 697.708 325.904 697.692C325.935 697.676 325.967 697.644 326.015 697.644C326.047 697.628 326.078 697.613 326.126 697.597C333.69 696.198 385.015 688.841 392.658 687.967C400.349 687.093 408.071 686.378 415.794 685.727C431.191 684.44 446.668 683.788 462.129 684.058C463.575 684.09 465.021 684.138 466.467 684.185C466.769 684.09 467.103 684.027 467.421 683.947C468.168 683.772 468.898 683.582 469.645 683.439C471.044 683.168 472.442 682.962 473.84 682.755C476.764 682.31 479.704 681.993 482.612 681.452C482.786 681.421 482.866 681.691 482.675 681.722C479.751 682.374 476.875 683.216 473.952 683.852C473.109 684.042 472.267 684.217 471.409 684.392C477.082 684.694 482.739 685.123 488.396 685.631C488.57 685.647 488.586 685.917 488.396 685.917C480.705 685.473 472.95 685.409 465.244 685.536C457.585 685.663 449.942 685.838 442.298 686.267C426.837 687.157 411.392 688.539 395.995 690.144C387.351 691.05 335.009 698.693 326.333 699.059C326.301 699.059 326.269 699.043 326.221 699.043C326.158 699.249 326.078 699.44 325.983 699.631C325.745 700.107 325.506 700.568 325.252 701.029C324.998 701.474 324.759 701.919 324.473 702.332C324.33 702.539 324.187 702.745 324.044 702.968C323.965 703.079 323.901 703.174 323.822 703.285C323.758 703.381 323.631 703.508 323.6 703.619C323.52 703.81 323.234 703.683 323.329 703.508Z" fill="#263238"/>
<path d="M297.746 769.722C300.511 765.304 302.863 760.585 305.405 756.009C307.947 751.432 310.49 746.856 313.032 742.28C318.117 733.159 336.359 702.491 338.155 700.346C338.266 700.203 338.504 700.362 338.441 700.521C337.583 702.888 326.189 723.196 323.583 727.724C318.34 736.782 312.842 745.648 307.407 754.595C305.85 757.153 304.245 759.664 302.688 762.206C301.115 764.748 299.446 767.243 298 769.849C297.905 770.024 297.651 769.881 297.746 769.722Z" fill="#263238"/>
<path d="M338.679 707.988C343.239 706.892 347.911 706.177 352.519 705.303C357.143 704.429 361.751 703.555 366.375 702.697C375.623 700.981 384.871 699.328 394.135 697.771C412.615 694.657 431.191 692.083 449.846 690.287C460.381 689.27 470.948 688.603 481.499 687.84C481.721 687.824 481.721 688.174 481.483 688.189C462.685 689.032 443.919 691.59 425.295 694.259C406.863 696.913 388.478 699.821 370.109 702.92C364.929 703.794 359.749 704.683 354.569 705.573C349.309 706.479 344.049 707.607 338.758 708.275C338.552 708.322 338.472 708.052 338.679 707.988Z" fill="#263238"/>
<path d="M363.276 557.797C351.692 586.669 327.301 630.637 311.585 628.158C297.237 625.901 268.777 595.869 256.542 585.62C244.211 575.307 279.074 546.721 286.018 553.125C296.776 563.072 312.555 580.313 315.717 579.772C319.642 579.105 325.743 570.524 351.04 546.276C361.385 536.393 368.202 545.514 363.276 557.797Z" fill="#FFBF9D"/>
<path d="M273.354 538.411C267.332 535.281 260.69 531.197 253.634 530.339C246.579 529.481 239.429 537.934 239.047 540.604C238.666 543.258 238.984 560.228 246.023 561.229C253.062 562.23 250.615 548.883 251.092 547.453C251.569 546.022 252.093 544.195 253.396 544.529C254.699 544.847 276.373 559.164 276.373 559.164L273.354 538.411Z" fill="#FFBF9D"/>
<path d="M272.781 539.333C272.384 539.269 254.587 529.179 247.532 528.321C240.477 527.463 233.326 535.916 232.945 538.586C232.563 541.24 232.881 558.21 239.921 559.211C246.96 560.212 244.513 546.865 244.99 545.434C245.466 544.004 245.991 542.177 247.294 542.511C248.597 542.829 270.271 557.145 270.271 557.145L272.781 539.333Z" fill="#FFBF9D"/>
<path d="M242.416 558.639C243.448 557.654 243.83 556.001 244.179 554.651C244.561 553.173 244.656 551.631 244.561 550.122C244.481 548.803 244.116 547.452 244.259 546.133C244.386 544.91 245.037 543.527 245.768 542.558C246.452 541.652 247.437 542.129 248.279 542.574C249.518 543.226 250.71 544.052 251.854 544.846C253.11 545.704 254.333 546.594 255.573 547.468C256.844 548.374 258.194 549.232 259.338 550.297C259.418 550.376 259.338 550.535 259.227 550.471C258.051 549.868 256.987 549.073 255.89 548.358C254.635 547.548 253.396 546.737 252.124 545.943C250.948 545.212 249.804 544.401 248.613 543.686C248.2 543.432 247.357 542.828 246.833 542.876C246.277 542.924 245.832 544.195 245.641 544.608C245.069 545.911 245.165 547.087 245.355 548.438C245.53 549.756 245.625 551.075 245.53 552.394C245.451 553.618 245.228 554.905 244.72 556.017C244.227 557.098 243.337 557.892 242.622 558.814C242.511 558.925 242.304 558.75 242.416 558.639Z" fill="#263238"/>
<path d="M292.485 560.943C292.485 560.943 275.499 540.413 271.939 536.314C264.805 528.083 232.484 509.221 227.781 508.045C223.077 506.869 219.963 516.419 241.796 529.894C253.3 536.997 254.492 544.322 253.714 548.183C252.935 552.045 248.184 558.782 241.669 557.67C235.138 556.573 232.246 546.404 226.383 544.497C220.519 542.59 222.935 554.174 226.271 561.15C229.624 568.126 236.584 574.466 241.939 577.389C247.31 580.313 263.772 590.34 263.772 590.34L292.485 560.943Z" fill="#FFBF9D"/>
<path d="M234.185 551.917C236.377 554.174 238.824 557.05 242.05 557.622C245.387 558.226 247.882 556.351 249.82 553.84C251.775 551.314 253.141 548.294 252.824 545.021C252.538 542.081 251.203 539.332 249.375 537.044C247.119 534.216 244.291 531.944 241.335 529.878C241.208 529.782 241.351 529.592 241.494 529.687C244.322 531.467 253.141 536.631 253.856 545.164C254.142 548.66 252.696 551.536 250.726 554.142C248.915 556.541 246.436 558.766 243.226 558.559C239.317 558.321 236.425 554.714 233.978 551.965C233.867 551.854 234.057 551.806 234.185 551.917Z" fill="#263238"/>
<path d="M292.835 558.464L257.257 599.62C257.257 599.62 299.858 632.083 313.54 629.763C327.221 627.443 352.311 592.708 365.103 560.927C377.91 529.147 355.903 538.904 346.623 547.977C337.343 557.05 316.988 578.168 316.098 577.723C315.224 577.262 292.835 558.464 292.835 558.464Z" fill="#81184E"/>
<path d="M288.704 596.839C289.228 596.839 289.625 596.743 290.006 596.553C290.753 596.171 291.246 595.472 291.325 594.646C291.5 593.407 292.469 592.326 293.661 592.056C294.217 591.897 294.901 591.992 295.361 592.135C295.854 592.31 296.347 592.421 296.839 592.612C296.315 592.691 295.806 592.691 295.282 592.755C294.742 592.755 294.376 592.819 293.963 592.978C293.2 593.343 292.66 594.042 292.581 594.821C292.454 596.028 291.532 597.188 290.34 597.474C289.768 597.665 289.117 597.586 288.64 597.443C288.147 597.284 287.639 597.172 287.162 596.95C287.687 596.871 288.195 596.871 288.704 596.839ZM316.813 602.988C316.972 602.496 317.099 602.003 317.306 601.51C317.385 602.035 317.385 602.543 317.433 603.068C317.417 603.608 317.48 603.989 317.671 604.387C318.005 605.149 318.72 605.674 319.498 605.785C320.706 605.896 321.866 606.834 322.168 608.009C322.343 608.566 322.279 609.233 322.12 609.726C321.946 610.218 321.834 610.711 321.644 611.203C321.564 610.679 321.564 610.171 321.501 609.63C321.501 609.122 321.421 608.74 321.231 608.343C320.849 607.58 320.166 607.088 319.324 607.024C318.068 606.865 316.988 605.88 316.734 604.688C316.559 604.116 316.686 603.449 316.813 602.988ZM289.371 562.469C290.245 562.818 290.976 563.581 291.214 564.487C291.389 565.043 291.325 565.71 291.166 566.203C291.008 566.695 290.88 567.188 290.69 567.68C290.61 567.156 290.61 566.648 290.563 566.123C290.563 565.615 290.483 565.218 290.277 564.82C289.911 564.089 289.26 563.597 288.465 563.517L289.371 562.469ZM267.315 603.258C267.474 602.766 267.601 602.273 267.808 601.781C267.888 602.305 267.888 602.813 267.935 603.338C267.919 603.878 267.983 604.259 268.158 604.657C268.507 605.419 269.206 605.944 270.001 606.039C271.209 606.166 272.369 607.104 272.67 608.28C272.845 608.836 272.782 609.487 272.607 609.98C272.559 610.139 272.512 610.282 272.464 610.441C272.305 610.345 272.162 610.25 272.019 610.139C272.019 610.059 272.003 609.98 272.003 609.9C272.003 609.392 271.924 608.995 271.733 608.613C271.352 607.851 270.652 607.358 269.826 607.294C268.571 607.136 267.49 606.15 267.22 604.959C267.061 604.387 267.172 603.719 267.315 603.258ZM341.268 572.05C341.443 571.558 341.57 571.065 341.76 570.572C341.84 571.097 341.84 571.605 341.903 572.13C341.888 572.67 341.951 573.051 342.126 573.449C342.476 574.227 343.175 574.752 343.969 574.847C345.161 574.958 346.337 575.896 346.623 577.072C346.814 577.628 346.75 578.295 346.575 578.788C346.416 579.28 346.305 579.773 346.098 580.265C346.019 579.741 346.019 579.233 345.971 578.708C345.971 578.2 345.892 577.802 345.685 577.405C345.32 576.642 344.621 576.15 343.779 576.086C342.539 575.927 341.459 574.942 341.188 573.766C341.03 573.178 341.141 572.511 341.268 572.05ZM355.172 541.716C355.188 541.716 355.188 541.716 355.204 541.716C355.521 541.621 355.807 541.478 356.077 541.255C356.093 541.255 356.093 541.239 356.109 541.239C356.125 541.239 356.125 541.224 356.141 541.224C356.157 541.224 356.157 541.208 356.173 541.208L356.189 541.192C356.459 540.969 356.793 540.826 357.142 540.747C357.158 540.731 357.19 540.715 357.206 540.715H357.222C358.016 540.508 358.874 540.636 359.557 541.081C360.082 541.351 360.479 541.891 360.701 542.336C360.94 542.797 361.194 543.226 361.417 543.718C360.987 543.4 360.606 543.051 360.209 542.717C359.828 542.32 359.526 542.097 359.112 541.939C358.334 541.653 357.444 541.764 356.84 542.256C355.934 543.003 354.552 543.178 353.535 542.654C354.075 542.336 354.616 542.018 355.172 541.716ZM339.298 555.239C339.377 555.366 339.441 555.493 339.504 555.604C339.742 556.065 339.997 556.51 340.219 557.002C339.79 556.7 339.425 556.335 339.011 555.985C338.932 555.906 338.853 555.826 338.773 555.763L339.298 555.239ZM312.888 580.186C313.254 580.536 313.571 580.774 313.985 580.901C314.795 581.171 315.621 581.012 316.273 580.488C317.274 579.725 318.736 579.662 319.769 580.297C320.277 580.599 320.674 581.139 320.897 581.568C321.135 582.013 321.389 582.458 321.612 582.951C321.183 582.649 320.817 582.283 320.404 581.934C320.023 581.568 319.721 581.33 319.308 581.187C318.529 580.885 317.655 580.996 317.036 581.489C316.082 582.268 314.604 582.411 313.572 581.791C313.047 581.521 312.618 581.012 312.396 580.551C312.157 580.107 311.903 579.662 311.681 579.185C312.11 579.471 312.475 579.836 312.888 580.186ZM274.72 579.423C274.784 579.439 274.831 579.471 274.879 579.503C275.404 579.805 275.801 580.345 276.007 580.774C276.262 581.235 276.516 581.68 276.707 582.156C276.293 581.839 275.928 581.473 275.531 581.155C275.149 580.758 274.847 580.536 274.434 580.377C274.291 580.329 274.132 580.297 273.989 580.265L274.72 579.423ZM293.185 620.483C293.534 620.865 293.884 621.087 294.297 621.23C295.107 621.468 295.934 621.341 296.585 620.817C297.586 620.038 299.048 619.959 300.065 620.626C300.589 620.912 300.987 621.452 301.193 621.882C301.447 622.342 301.702 622.787 301.908 623.264C301.479 622.946 301.114 622.597 300.716 622.263C300.335 621.866 300.033 621.659 299.62 621.484C298.826 621.198 297.952 621.325 297.332 621.818C296.394 622.581 294.917 622.74 293.884 622.12C293.343 621.834 292.93 621.325 292.708 620.88C292.454 620.42 292.199 619.975 291.993 619.482C292.422 619.8 292.787 620.165 293.185 620.483Z" fill="white"/>
<path opacity="0.1" d="M287.639 620.039C297.57 625.823 307.486 630.415 313.063 629.827C313.238 629.811 313.397 629.779 313.54 629.763C327.221 627.428 352.296 592.708 365.119 560.928C367.407 555.271 368.567 550.917 368.917 547.659C368.933 547.485 368.949 547.341 368.965 547.167C368.98 546.897 368.996 546.642 368.996 546.372C369.012 546.261 369.012 546.166 368.996 546.054C369.012 545.816 369.012 545.562 368.996 545.339L287.639 620.039Z" fill="black"/>
<path d="M274.18 597.459C275.324 595.981 276.484 594.519 277.66 593.057C279.996 590.133 293.963 572.766 299.239 567.633C299.382 567.49 299.588 567.697 299.493 567.855C295.441 574.037 281.108 591.007 278.724 593.788C277.501 595.218 276.277 596.648 275.054 598.063C273.814 599.493 272.4 600.764 271.161 602.178C271.034 602.321 270.795 602.162 270.922 602.003C272.051 600.557 273.02 598.936 274.18 597.459Z" fill="#263238"/>
<path d="M424.707 673.811C424.707 673.811 369.918 682.693 336.977 682.915C319.355 683.027 309.011 672.635 308.645 672.206C307.152 670.474 343.461 555.35 355.807 539.587C358.445 536.218 375.59 529.973 384.282 539.666C418.128 577.421 424.707 673.811 424.707 673.811Z" fill="#81184E"/>
<path d="M368.027 564.884C368.536 564.884 368.933 564.804 369.33 564.614C370.061 564.232 370.554 563.533 370.633 562.707C370.808 561.452 371.793 560.371 372.969 560.117C373.541 559.942 374.209 560.037 374.669 560.196C375.162 560.355 375.671 560.467 376.147 560.689C375.639 560.753 375.114 560.768 374.606 560.8C374.05 560.8 373.684 560.864 373.271 561.054C372.508 561.388 371.968 562.103 371.889 562.866C371.777 564.089 370.84 565.234 369.648 565.535C369.092 565.71 368.441 565.647 367.948 565.504C367.455 565.329 366.963 565.218 366.47 565.011C366.995 564.916 367.503 564.916 368.027 564.884ZM318.736 636.453C318.943 636.326 319.165 636.246 319.388 636.199C319.96 636.04 320.627 636.135 321.088 636.278C321.581 636.453 322.073 636.564 322.566 636.755C322.042 636.85 321.533 636.85 321.025 636.898C320.484 636.898 320.103 636.961 319.69 637.12C318.943 637.486 318.387 638.185 318.307 638.963C318.228 639.678 317.878 640.362 317.354 640.87C317.799 639.424 318.26 637.962 318.736 636.453ZM403.987 608.677C404.495 608.677 404.892 608.598 405.274 608.391C406.021 608.025 406.529 607.31 406.593 606.5C406.752 605.245 407.737 604.164 408.929 603.894C409.501 603.735 410.168 603.831 410.613 603.974C411.105 604.148 411.614 604.26 412.091 604.466C411.582 604.561 411.074 604.561 410.549 604.593C410.009 604.593 409.628 604.657 409.23 604.832C408.468 605.181 407.927 605.88 407.848 606.659C407.721 607.867 406.783 609.027 405.607 609.313C405.051 609.503 404.384 609.44 403.891 609.281C403.399 609.122 402.906 609.011 402.414 608.788C402.954 608.709 403.462 608.709 403.987 608.677ZM311.777 673.81C312.301 673.81 312.698 673.731 313.095 673.54C313.826 673.143 314.319 672.46 314.398 671.633C314.573 670.378 315.558 669.282 316.734 669.027C317.306 668.884 317.974 668.98 318.434 669.123C318.927 669.282 319.436 669.409 319.912 669.6C319.404 669.679 318.863 669.679 318.355 669.727C317.815 669.727 317.449 669.774 317.036 669.965C316.273 670.315 315.733 671.014 315.654 671.808C315.542 673.016 314.605 674.16 313.413 674.462C312.841 674.637 312.206 674.573 311.713 674.43C311.411 674.335 311.109 674.239 310.807 674.128C310.791 674.128 310.791 674.128 310.775 674.112C310.696 674.033 310.601 673.969 310.521 673.906C310.95 673.858 311.363 673.842 311.777 673.81ZM368.631 647.465C369.156 647.465 369.553 647.385 369.95 647.21C370.697 646.813 371.19 646.13 371.269 645.304C371.428 644.032 372.413 642.952 373.589 642.698C374.177 642.539 374.828 642.65 375.289 642.793C375.782 642.952 376.29 643.063 376.767 643.27C376.258 643.349 375.734 643.349 375.226 643.397C374.685 643.397 374.304 643.444 373.891 643.635C373.144 643.969 372.588 644.684 372.508 645.463C372.397 646.686 371.46 647.83 370.284 648.132C369.712 648.307 369.06 648.243 368.568 648.1C368.075 647.925 367.582 647.798 367.09 647.608C367.614 647.528 368.123 647.528 368.631 647.465ZM420.163 664.356C420.671 664.356 421.069 664.276 421.45 664.086C422.213 663.704 422.705 663.005 422.785 662.195C422.848 661.639 423.087 661.114 423.42 660.685C423.531 661.623 423.643 662.513 423.722 663.371C423.341 664.165 422.626 664.801 421.784 665.007C421.227 665.198 420.576 665.134 420.083 664.976C419.591 664.817 419.098 664.69 418.606 664.483C419.13 664.403 419.638 664.403 420.163 664.356ZM348.483 603.322C348.991 603.322 349.388 603.243 349.786 603.068C350.532 602.671 351.025 601.971 351.104 601.161C351.263 599.89 352.249 598.809 353.424 598.539C353.996 598.38 354.68 598.491 355.141 598.634C355.633 598.809 356.126 598.92 356.618 599.111C356.094 599.206 355.585 599.206 355.061 599.254C354.505 599.238 354.139 599.302 353.742 599.477C352.98 599.826 352.439 600.525 352.36 601.32C352.233 602.528 351.295 603.687 350.103 603.974C349.547 604.164 348.896 604.101 348.403 603.942C347.911 603.783 347.418 603.656 346.925 603.449C347.45 603.37 347.958 603.37 348.483 603.322ZM374.129 613.174C374.288 612.681 374.415 612.189 374.606 611.696C374.685 612.22 374.685 612.729 374.733 613.237C374.717 613.794 374.797 614.159 374.971 614.572C375.321 615.335 376.02 615.875 376.815 615.955C378.006 616.082 379.182 617.003 379.468 618.195C379.659 618.767 379.579 619.419 379.421 619.895C379.262 620.388 379.135 620.881 378.944 621.373C378.864 620.849 378.864 620.34 378.817 619.832C378.817 619.307 378.737 618.91 378.531 618.529C378.149 617.782 377.466 617.289 376.624 617.21C375.385 617.035 374.304 616.066 374.034 614.874C373.875 614.318 373.986 613.635 374.129 613.174ZM338.456 652.454C338.631 651.962 338.758 651.469 338.949 650.976C339.028 651.501 339.028 652.009 339.092 652.534C339.076 653.074 339.139 653.455 339.314 653.837C339.664 654.615 340.363 655.14 341.157 655.235C342.349 655.362 343.525 656.284 343.811 657.475C344.002 658.032 343.922 658.683 343.763 659.176C343.604 659.668 343.493 660.161 343.287 660.653C343.207 660.129 343.207 659.621 343.159 659.096C343.159 658.588 343.08 658.19 342.873 657.809C342.508 657.046 341.809 656.554 340.967 656.49C339.727 656.331 338.647 655.346 338.377 654.154C338.218 653.582 338.329 652.915 338.456 652.454ZM341.269 572.05C341.443 571.558 341.57 571.065 341.761 570.573C341.841 571.097 341.841 571.605 341.904 572.13C341.888 572.67 341.952 573.051 342.127 573.449C342.476 574.227 343.175 574.752 343.97 574.847C345.162 574.958 346.337 575.896 346.623 577.072C346.814 577.628 346.751 578.295 346.576 578.788C346.417 579.28 346.306 579.773 346.099 580.266C346.02 579.741 346.02 579.233 345.972 578.708C345.972 578.2 345.893 577.803 345.686 577.405C345.32 576.643 344.621 576.15 343.779 576.086C342.54 575.928 341.459 574.942 341.189 573.766C341.03 573.179 341.141 572.511 341.269 572.05ZM400.65 569.015C400.793 568.523 400.92 568.03 401.126 567.538C401.206 568.062 401.206 568.57 401.254 569.079C401.238 569.619 401.301 570.016 401.492 570.414C401.778 571.049 402.334 571.526 402.97 571.717C403.16 572.162 403.351 572.638 403.526 573.099C403.399 573.067 403.272 573.051 403.145 573.036C401.889 572.877 400.809 571.907 400.554 570.7C400.38 570.144 400.507 569.476 400.65 569.015ZM388.955 667.724C389.114 667.232 389.225 666.723 389.447 666.247C389.527 666.755 389.527 667.28 389.558 667.788C389.558 668.328 389.622 668.71 389.813 669.107C390.146 669.87 390.861 670.41 391.624 670.505C392.848 670.616 393.992 671.554 394.294 672.73C394.469 673.286 394.405 673.953 394.262 674.446C394.103 674.859 394.008 675.272 393.849 675.701C393.817 675.701 393.801 675.717 393.769 675.717C393.706 675.256 393.69 674.811 393.658 674.351C393.658 673.842 393.563 673.461 393.372 673.064C392.991 672.317 392.292 671.824 391.465 671.745C390.21 671.586 389.129 670.601 388.875 669.409C388.7 668.837 388.812 668.185 388.955 667.724ZM354.282 541.78H354.298C354.934 541.843 355.57 541.684 356.078 541.255C357.079 540.477 358.541 540.413 359.558 541.081C360.082 541.351 360.48 541.891 360.702 542.336C360.94 542.797 361.195 543.226 361.417 543.718C360.988 543.401 360.607 543.051 360.209 542.717C359.828 542.32 359.526 542.098 359.113 541.939C358.334 541.653 357.445 541.764 356.841 542.256C355.983 542.956 354.712 543.162 353.71 542.749C353.901 542.415 354.108 542.082 354.282 541.78ZM387.826 545.053C388.192 545.419 388.526 545.641 388.923 545.768C389.018 545.8 389.098 545.816 389.193 545.832C389.495 546.229 389.781 546.642 390.067 547.055C389.527 547.071 388.971 546.944 388.51 546.674C387.985 546.388 387.572 545.879 387.334 545.419C387.096 544.974 386.841 544.545 386.635 544.052C387.064 544.354 387.429 544.719 387.826 545.053ZM378.118 583.682C378.467 584.063 378.817 584.27 379.214 584.397C380.024 584.667 380.867 584.524 381.518 584C382.503 583.221 383.965 583.158 384.998 583.809C385.507 584.095 385.92 584.635 386.126 585.064C386.365 585.541 386.619 585.97 386.841 586.463C386.412 586.145 386.047 585.779 385.65 585.446C385.268 585.064 384.966 584.826 384.553 584.683C383.759 584.381 382.869 584.508 382.265 585.001C381.327 585.763 379.85 585.922 378.801 585.303C378.277 585.033 377.863 584.524 377.625 584.063C377.387 583.602 377.132 583.173 376.926 582.681C377.355 582.983 377.72 583.348 378.118 583.682ZM399.363 641.538C399.728 641.903 400.062 642.141 400.459 642.269C401.269 642.523 402.112 642.38 402.747 641.855C403.748 641.077 405.21 641.013 406.243 641.665C406.752 641.951 407.149 642.491 407.387 642.92C407.61 643.381 407.88 643.826 408.086 644.318C407.657 644.001 407.292 643.651 406.895 643.301C406.513 642.92 406.195 642.698 405.782 642.539C405.02 642.253 404.13 642.364 403.526 642.857C402.572 643.635 401.095 643.778 400.062 643.158C399.537 642.888 399.108 642.38 398.87 641.919C398.648 641.458 398.377 641.013 398.171 640.537C398.6 640.839 398.95 641.204 399.363 641.538ZM341.555 628.158C341.904 628.54 342.254 628.746 342.667 628.889C343.461 629.143 344.304 629.016 344.939 628.492C345.956 627.713 347.418 627.634 348.435 628.285C348.959 628.587 349.341 629.128 349.563 629.557C349.801 630.017 350.072 630.462 350.262 630.939C349.833 630.621 349.484 630.256 349.086 629.938C348.705 629.541 348.403 629.318 347.99 629.159C347.196 628.857 346.322 629 345.702 629.493C344.764 630.24 343.287 630.415 342.254 629.779C341.713 629.509 341.3 629 341.078 628.555C340.824 628.095 340.569 627.65 340.363 627.157C340.792 627.459 341.157 627.825 341.555 628.158ZM357.635 672.762C358.017 673.143 358.334 673.35 358.748 673.493C359.558 673.747 360.384 673.604 361.036 673.079C362.037 672.301 363.499 672.237 364.516 672.889C365.04 673.175 365.437 673.715 365.66 674.144C365.898 674.621 366.152 675.05 366.375 675.542C365.946 675.225 365.564 674.859 365.167 674.541C364.786 674.144 364.484 673.922 364.071 673.763C363.292 673.477 362.418 673.588 361.798 674.081C360.845 674.843 359.367 675.018 358.334 674.398C357.81 674.112 357.381 673.604 357.159 673.143C356.92 672.682 356.666 672.237 356.444 671.761C356.873 672.078 357.238 672.444 357.635 672.762Z" fill="white"/>
<path d="M388.906 575.832C379.404 605.594 345.717 659.017 328.285 662.036C308.089 665.516 244.084 634.61 232.293 623.121C227.606 618.545 260.292 588.719 266.457 592.04C292.342 605.944 315.812 614.525 319.657 612.634C325.568 609.726 352.057 581.298 369.139 563.74C390.606 541.684 393.18 562.485 388.906 575.832Z" fill="#FFBF9D"/>
<path d="M190.644 508.665L226.445 492.584L240.206 560.482L205.073 573.035L190.644 508.665Z" fill="#81184E"/>
<path opacity="0.1" d="M190.644 508.665L226.445 492.584L240.206 560.482L205.073 573.035L190.644 508.665Z" fill="black"/>
<path d="M194.744 509.221L225.141 495.842L225.984 498.034L236.741 552.585C236.741 552.585 232.085 555.731 229.003 558.782C225.92 561.833 216.799 571.828 208.203 571.018L194.744 509.221Z" fill="white"/>
<path d="M195.475 512.733C195.475 512.733 203.325 510.699 207.583 507.759C211.842 504.819 216.053 501.467 219.31 500.275C222.584 499.067 225.889 497.78 225.889 497.78L225.142 495.842L194.744 509.221L195.475 512.733Z" fill="#EBEBEB"/>
<path d="M251.678 583.205L201.688 573.973L190.644 508.665L243.463 514.464L251.678 583.205Z" fill="#81184E"/>
<path d="M233.881 624.281C231.052 622.803 212.62 604.99 207.551 597.141C204.325 592.135 198.764 583.475 195.22 570.429C191.136 555.381 189.738 544.592 191.867 540.143C194.33 534.979 194.95 534.168 205.819 559.735C211.968 574.195 219.421 576.769 226.079 577.596C253.378 580.933 271.763 594.821 271.763 594.821C271.763 594.821 244.781 629.985 233.881 624.281Z" fill="#FFBF9D"/>
<path d="M244.878 570.414C249.152 572.289 253.316 574.355 257.002 577.247C260.418 579.948 262.897 583.475 265.042 587.241C265.138 587.4 264.899 587.575 264.804 587.416C260.164 579.71 252.314 575.07 244.798 570.604C244.671 570.525 244.751 570.35 244.878 570.414Z" fill="#263238"/>
<path d="M222.79 576.992C229.639 578.073 209.299 560.991 210.062 553.141C210.825 545.292 218.087 548.819 223.457 554.079C242.112 572.321 257.939 573.799 266.424 589.911C274.925 606.024 222.79 576.992 222.79 576.992Z" fill="#FFBF9D"/>
<path d="M318.465 610.536C312.92 611.235 277.199 595.774 277.199 595.774L249.169 643.317C249.169 643.317 311.76 667.534 327.602 664.435C343.444 661.337 374.224 613.349 386.046 584.588C397.169 557.558 390.225 537.918 366.088 564.121C366.104 564.137 321.357 610.171 318.465 610.536Z" fill="#81184E"/>
<path d="M341.554 628.158C341.904 628.539 342.253 628.746 342.666 628.889C343.461 629.143 344.303 629.016 344.939 628.492C345.956 627.713 347.417 627.634 348.434 628.285C348.959 628.587 349.34 629.127 349.563 629.556C349.801 630.017 350.071 630.462 350.262 630.939C349.833 630.621 349.483 630.255 349.086 629.938C348.705 629.54 348.403 629.318 347.989 629.159C347.195 628.857 346.321 629 345.701 629.493C344.764 630.239 343.286 630.414 342.253 629.779C341.713 629.508 341.3 629 341.077 628.555C340.823 628.094 340.569 627.649 340.362 627.157C340.791 627.459 341.157 627.824 341.554 628.158ZM293.185 620.483C293.534 620.864 293.884 621.087 294.297 621.23C295.107 621.468 295.934 621.341 296.585 620.817C297.586 620.038 299.048 619.959 300.065 620.626C300.589 620.912 300.987 621.452 301.193 621.881C301.447 622.342 301.702 622.787 301.908 623.264C301.479 622.946 301.114 622.596 300.717 622.263C300.335 621.865 300.033 621.659 299.62 621.484C298.826 621.198 297.952 621.325 297.332 621.818C296.394 622.58 294.917 622.739 293.884 622.12C293.343 621.834 292.93 621.325 292.708 620.88C292.454 620.419 292.199 619.974 291.993 619.482C292.422 619.8 292.787 620.165 293.185 620.483ZM269 634.26C269.365 634.641 269.715 634.848 270.112 635.006C270.923 635.245 271.765 635.118 272.4 634.593C273.401 633.815 274.863 633.735 275.88 634.387C276.405 634.689 276.802 635.229 277.008 635.658C277.263 636.119 277.533 636.564 277.724 637.04C277.295 636.723 276.929 636.357 276.548 636.039C276.166 635.642 275.849 635.42 275.435 635.261C274.657 634.959 273.783 635.102 273.163 635.594C272.226 636.341 270.748 636.516 269.715 635.88C269.159 635.61 268.762 635.102 268.523 634.657C268.285 634.196 268.015 633.751 267.824 633.259C268.253 633.576 268.603 633.926 269 634.26ZM378.117 583.682C378.467 584.063 378.816 584.269 379.214 584.397C380.024 584.667 380.866 584.524 381.518 583.999C382.503 583.221 383.965 583.157 384.998 583.809C385.411 584.031 385.744 584.428 385.967 584.794C385.871 585.016 385.776 585.255 385.681 585.477C385.665 585.461 385.665 585.461 385.649 585.445C385.268 585.064 384.966 584.826 384.553 584.683C383.758 584.381 382.868 584.508 382.264 585C381.327 585.763 379.849 585.922 378.8 585.302C378.276 585.032 377.863 584.524 377.625 584.063C377.386 583.602 377.132 583.173 376.925 582.68C377.354 582.982 377.72 583.348 378.117 583.682ZM291.484 649.149C291.643 648.656 291.786 648.163 291.977 647.671C292.056 648.195 292.056 648.704 292.104 649.228C292.088 649.768 292.152 650.15 292.342 650.531C292.692 651.31 293.391 651.834 294.186 651.929C295.377 652.057 296.537 652.978 296.839 654.17C297.014 654.726 296.951 655.378 296.792 655.87C296.633 656.363 296.506 656.855 296.315 657.348C296.235 656.824 296.235 656.315 296.188 655.791C296.188 655.282 296.108 654.885 295.902 654.504C295.52 653.741 294.837 653.248 293.995 653.185C292.756 653.026 291.659 652.025 291.405 650.849C291.246 650.277 291.357 649.609 291.484 649.149ZM270.986 606.325C271.797 606.706 272.448 607.437 272.67 608.279C272.845 608.836 272.782 609.487 272.607 609.98C272.448 610.472 272.337 610.965 272.13 611.457C272.051 610.933 272.051 610.425 272.003 609.9C272.003 609.392 271.924 608.994 271.733 608.613C271.431 608.025 270.954 607.596 270.351 607.405L270.986 606.325ZM322.089 607.771C322.12 607.85 322.152 607.93 322.168 608.009C322.343 608.565 322.279 609.233 322.12 609.725C321.946 610.218 321.834 610.711 321.644 611.203C321.564 610.679 321.564 610.17 321.501 609.63C321.501 609.169 321.437 608.82 321.278 608.47C321.533 608.264 321.803 608.025 322.089 607.771ZM338.455 652.454C338.63 651.961 338.757 651.469 338.948 650.976C339.027 651.5 339.027 652.009 339.091 652.533C339.075 653.074 339.139 653.455 339.313 653.836C339.663 654.615 340.362 655.139 341.157 655.235C341.173 655.235 341.204 655.235 341.22 655.25C340.871 655.6 340.521 655.934 340.187 656.267H340.172C339.282 655.87 338.583 655.092 338.376 654.154C338.217 653.582 338.328 652.915 338.455 652.454ZM348.482 603.322C348.991 603.322 349.388 603.242 349.785 603.067C350.532 602.67 351.024 601.971 351.104 601.161C351.263 599.889 352.248 598.809 353.424 598.539C353.996 598.38 354.679 598.491 355.14 598.634C355.633 598.809 356.125 598.92 356.618 599.111C356.093 599.206 355.585 599.206 355.061 599.254C354.504 599.238 354.139 599.301 353.742 599.476C352.979 599.826 352.439 600.525 352.359 601.32C352.232 602.527 351.295 603.687 350.103 603.973C349.547 604.164 348.895 604.1 348.403 603.941C347.91 603.782 347.417 603.655 346.925 603.449C347.449 603.369 347.958 603.369 348.482 603.322ZM314.43 640.981C314.954 640.981 315.351 640.886 315.733 640.695C316.495 640.314 316.988 639.615 317.067 638.804C317.226 637.549 318.196 636.468 319.387 636.198C319.959 636.039 320.627 636.135 321.088 636.278C321.58 636.453 322.073 636.564 322.565 636.754C322.041 636.85 321.533 636.85 321.024 636.897C320.484 636.897 320.102 636.961 319.689 637.12C318.942 637.485 318.386 638.184 318.307 638.963C318.18 640.171 317.258 641.331 316.082 641.617C315.51 641.807 314.843 641.744 314.366 641.585C313.873 641.426 313.365 641.315 312.888 641.092C313.413 641.013 313.921 641.013 314.43 640.981ZM368.027 564.884C368.535 564.884 368.933 564.804 369.33 564.613C370.061 564.232 370.553 563.533 370.633 562.707C370.808 561.451 371.793 560.371 372.969 560.117C373.541 559.942 374.208 560.037 374.669 560.196C375.162 560.355 375.67 560.466 376.147 560.689C375.638 560.752 375.114 560.768 374.605 560.8C374.049 560.8 373.684 560.863 373.271 561.054C372.508 561.388 371.968 562.103 371.888 562.866C371.777 564.089 370.839 565.233 369.648 565.535C369.092 565.71 368.44 565.646 367.947 565.503C367.455 565.328 366.962 565.217 366.47 565.011C366.994 564.915 367.503 564.915 368.027 564.884Z" fill="white"/>
<path d="M280.298 654.329C281.807 654.821 283.333 655.33 284.874 655.807Z" fill="#EBEBEB"/>
<path d="M310.854 608.899C309.472 608.454 307.994 607.962 306.437 607.421Z" fill="#EBEBEB"/>
<path d="M328.619 663.005C342.189 658.317 362.608 626.601 366.549 620.356C369.075 616.368 371.443 612.284 373.779 608.184C378.466 599.969 382.884 591.627 387.158 583.189C387.238 583.046 387.444 583.142 387.381 583.3C384.759 589.895 381.787 596.378 378.53 602.718C380.421 600.462 382.137 598.062 383.758 595.583C383.837 595.472 384.028 595.599 383.964 595.711C382.296 598.714 380.214 601.431 377.894 603.942C374.573 610.298 370.966 616.495 367.057 622.501C365.929 624.233 341.999 663.227 327.316 665.087C322.215 665.738 305.547 662.147 302.099 660.812C301.956 660.749 301.94 660.558 302.114 660.574C306.977 661.178 323.773 664.673 328.619 663.005Z" fill="#263238"/>
<path d="M264.01 639.186C264.884 637.533 265.774 635.881 266.664 634.228C268.443 630.939 279.153 611.378 283.444 605.403C283.555 605.245 283.793 605.419 283.73 605.578C280.838 612.379 269.699 631.59 267.84 634.768C266.886 636.389 265.933 638.01 264.963 639.615C263.994 641.236 262.834 642.729 261.865 644.35C261.77 644.509 261.515 644.398 261.595 644.223C262.469 642.586 263.152 640.838 264.01 639.186Z" fill="#263238"/>
<path d="M277.183 595.854C280.25 596.426 307.152 606.818 313.095 609.074C314.493 609.598 316.018 610.361 317.544 610.345C319.18 610.314 320.42 609.138 321.58 608.137C323.9 606.134 349.705 580.456 351.485 579.264C352.152 578.819 352.645 578.772 351.946 579.614C350.754 581.028 325.584 606.436 323.36 608.391C321.278 610.218 319.292 612.157 316.304 611.617C314.985 611.378 278.677 597.665 276.945 596.632C276.579 596.394 276.69 595.758 277.183 595.854Z" fill="#263238"/>
<path d="M359.7 557.002C365.405 556.891 378.149 547.532 379.992 538.856C380.119 538.268 377.719 533.104 375.098 526.716C373.524 522.823 371.872 518.453 370.633 514.369C370.378 513.527 346.829 528.305 346.829 528.305C346.829 528.305 351.93 536.139 354.012 543.289C354.186 543.893 354.282 544.465 354.345 545.021C354.361 545.101 354.361 545.196 354.393 545.307C354.822 548.628 353.582 557.129 359.7 557.002Z" fill="#FFBF9D"/>
<path d="M354.329 545.005C354.345 545.085 354.361 545.196 354.393 545.291C355.235 545.164 356.109 544.942 357.062 544.64C372.078 539.778 370.394 519.661 369.727 514.639C365.357 516.657 346.829 528.289 346.829 528.289C346.829 528.289 351.93 536.123 354.027 543.273C354.186 543.861 354.297 544.433 354.329 545.005Z" fill="#FF9A6C"/>
<path d="M373.047 483.241C377.02 492.346 375.192 520.201 369.17 527.066C360.446 537.013 344.604 539.698 335.769 528.861C327.188 518.358 330.223 482.097 337.088 475.709C347.21 466.27 367.184 469.782 373.047 483.241Z" fill="#FFBF9D"/>
<path d="M347.815 502.992C347.83 502.928 347.958 503.087 347.942 503.167C347.767 505.042 347.878 507.219 349.547 507.934C349.594 507.95 349.594 508.045 349.531 508.045C347.481 507.616 347.354 504.74 347.815 502.992Z" fill="#263238"/>
<path d="M349.61 501.133C352.645 501.085 352.518 507.155 349.705 507.203C346.941 507.234 347.068 501.164 349.61 501.133Z" fill="#263238"/>
<path d="M337.439 502.706C337.423 502.626 337.296 502.785 337.296 502.865C337.311 504.74 337.025 506.901 335.309 507.489C335.262 507.505 335.262 507.6 335.325 507.6C337.407 507.362 337.772 504.485 337.439 502.706Z" fill="#263238"/>
<path d="M335.818 500.704C332.799 500.402 332.433 506.472 335.23 506.742C337.979 507.012 338.344 500.958 335.818 500.704Z" fill="#263238"/>
<path class="anim3" d="M352.073 498.399C351.247 498.177 350.532 497.827 349.737 497.525C348.847 497.176 348.1 497.001 347.528 496.175C347.227 495.73 347.37 494.967 347.767 494.633C348.688 493.855 349.896 493.998 350.977 494.379C352.152 494.792 352.963 495.396 353.63 496.461C354.282 497.478 353.154 498.701 352.073 498.399Z" fill="#263238"/>
<path class="anim3" d="M333.529 497.605C334.372 497.494 335.134 497.239 335.961 497.033C336.882 496.81 337.645 496.715 338.328 495.984C338.694 495.587 338.646 494.808 338.28 494.411C337.454 493.505 336.247 493.505 335.118 493.744C333.895 493.998 333.021 494.506 332.226 495.46C331.464 496.397 332.417 497.764 333.529 497.605Z" fill="#263238"/>
<path d="M349.689 520.121C349.229 520.551 348.768 521.154 348.085 521.186C347.433 521.234 346.67 520.916 346.082 520.662C346.019 520.63 345.955 520.694 346.003 520.757C346.48 521.488 347.497 521.965 348.371 521.838C349.229 521.71 349.658 520.98 349.88 520.201C349.896 520.106 349.753 520.058 349.689 520.121Z" fill="#263238"/>
<path d="M347.83 514.448C346.749 516.053 345.176 516.911 343.492 517.197C342.745 517.324 341.95 517.34 341.187 517.245C341.029 517.245 340.886 517.213 340.743 517.181C340.6 517.166 340.488 517.15 340.329 517.102C340.107 517.07 339.996 516.88 339.964 516.673V516.657C339.964 516.594 339.964 516.53 339.98 516.466C339.98 516.466 339.98 516.466 339.98 516.451V516.292C339.964 514.846 340.155 512.653 340.155 512.653C339.614 512.907 336.897 514.067 336.961 513.304C337.469 507.059 338.041 500.1 339.869 493.982C339.916 493.775 340.234 493.839 340.218 494.046C339.964 500.068 338.661 506.011 338.311 512.065C339.185 511.763 340.6 511.175 341.346 511.207C341.553 511.27 340.901 515.449 340.965 516.101C340.965 516.101 340.965 516.133 340.981 516.164C343.412 516.53 345.255 515.831 347.655 514.258C347.814 514.178 347.957 514.305 347.83 514.448Z" fill="#263238"/>
<path d="M342.063 516.546C342.063 516.546 343.302 518.31 345.05 518.962C345.686 519.216 346.385 519.311 347.116 519.136C348.625 518.771 348.689 517.404 348.451 516.213C348.244 515.243 347.815 514.401 347.815 514.401C347.815 514.401 345.59 516.403 342.063 516.546Z" fill="#263238"/>
<path d="M345.066 518.977C345.701 519.231 346.4 519.327 347.131 519.152C348.641 518.787 348.705 517.42 348.466 516.228C346.845 516.355 345.225 517.404 345.066 518.977Z" fill="#FF9BBC"/>
<path d="M372.873 508.776C367.709 508.188 367.28 495.158 367.28 495.158C367.28 495.158 360.812 492.902 358.477 481.095C358.477 481.095 354.377 492.886 332.925 490.788C332.925 490.788 331.559 485.767 334.212 479.602C334.212 479.602 331.749 483.844 329.08 491.265C329.08 491.265 323.55 473.595 338.582 466.969C344.557 464.331 353.757 464.633 367.868 471.196C367.868 471.196 370.346 462.774 371.983 463.839C373.62 464.903 370.712 472.785 370.712 472.785C370.712 472.785 376.798 470.751 377.862 472.006C378.784 473.087 372.905 474.771 372.905 474.771C372.905 474.771 382.359 477.536 381.056 488.389C379.865 498.336 375.431 509.062 372.873 508.776Z" fill="#263238"/>
<path d="M371.22 474.644C376.75 474.326 381.834 478.235 382.772 483.733C383.296 486.784 382.597 490.105 381.691 493.013C380.706 496.207 379.117 499.019 377.369 501.848C377.274 502.007 377.052 501.832 377.147 501.673C378.768 499.162 379.832 496.238 380.595 493.362C381.31 490.645 381.946 487.642 381.755 484.829C381.374 479.236 376.766 475.105 371.236 474.962C371.045 474.962 371.045 474.66 371.22 474.644Z" fill="#263238"/>
<path d="M350.754 463.712C354.393 464.395 358 465.73 361.321 467.319C364.514 468.844 367.629 470.64 370.14 473.166C370.267 473.293 370.124 473.5 369.965 473.389C364.483 469.48 357.888 467.017 351.389 465.332C345.319 463.759 338.185 463.934 333.704 468.939C333.624 469.019 333.497 468.923 333.561 468.828C337.565 463.6 344.652 462.583 350.754 463.712Z" fill="#263238"/>
<path d="M353.073 512.78C356.998 512.319 360.271 509.236 360.828 505.153C361.479 500.306 358.063 495.841 353.216 495.205C348.37 494.554 343.905 497.97 343.269 502.817C342.633 507.663 346.034 512.128 350.88 512.764C351.627 512.875 352.358 512.875 353.073 512.78ZM351.151 496.365C351.77 496.286 352.406 496.302 353.057 496.381C357.252 496.937 360.208 500.815 359.652 505.01C359.096 509.205 355.218 512.176 351.023 511.604C346.828 511.048 343.873 507.171 344.429 502.976C344.906 499.416 347.75 496.763 351.151 496.365Z" fill="#455A64"/>
<path d="M332.734 512.684C336.103 512.287 338.757 508.474 338.757 503.85C338.757 501.514 338.089 499.321 336.882 497.652C335.626 495.936 333.958 494.983 332.162 494.983C330.351 494.983 328.682 495.936 327.443 497.652C326.235 499.321 325.568 501.514 325.568 503.85C325.568 508.728 328.524 512.716 332.162 512.716C332.353 512.716 332.544 512.7 332.734 512.684ZM331.702 496.206C331.845 496.191 332.004 496.175 332.147 496.175C333.561 496.175 334.896 496.953 335.913 498.352C336.977 499.813 337.565 501.768 337.565 503.85C337.565 508.076 335.15 511.524 332.147 511.524C329.159 511.524 326.728 508.076 326.728 503.85C326.728 501.768 327.316 499.813 328.381 498.352C329.302 497.096 330.462 496.349 331.702 496.206Z" fill="#455A64"/>
<path d="M343.555 503.834L344.318 502.928C342.967 501.8 339.869 500.29 337.708 502.594L338.566 503.405C340.504 501.339 343.428 503.739 343.555 503.834Z" fill="#455A64"/>
<path d="M383.042 506.122L384.091 505.582C383.837 505.089 381.533 500.783 378.895 500.354C376.416 499.956 360.542 501.45 359.874 501.514L359.986 502.69C364.53 502.261 376.797 501.212 378.704 501.514C380.452 501.784 382.422 504.93 383.042 506.122Z" fill="#455A64"/>
<path d="M368.757 506.567C368.757 506.567 374.096 497.144 378.323 498.956C382.55 500.783 379.117 514.036 374.573 516.228C370.028 518.437 367.915 514.258 367.915 514.258L368.757 506.567Z" fill="#FFBF9D"/>
<path d="M377.242 502.738C377.321 502.722 377.337 502.833 377.274 502.865C374.096 504.517 372.65 507.743 371.744 511.032C372.602 509.713 373.889 508.919 375.637 509.936C375.732 509.984 375.653 510.127 375.558 510.127C374.175 509.968 373.222 510.285 372.411 511.461C371.839 512.288 371.49 513.305 371.108 514.226C370.981 514.544 370.441 514.433 370.52 514.083C370.52 514.051 370.536 514.036 370.536 514.004C370.06 509.793 372.761 503.596 377.242 502.738Z" fill="#263238"/>
<path d="M380.5 544.783C377.863 548.247 375.018 552.092 371.856 554.984C368.901 557.685 365.405 559.815 361.448 560.403C357.666 560.959 353.424 560.18 352.407 555.238C351.739 552.029 351.978 549.295 352.724 544.385C352.756 544.163 352.566 544.179 352.518 544.401C351.167 550.837 350.706 559.433 355.521 561.292C360.908 563.358 368.138 560.18 372.587 555.81C375.606 552.855 378.53 548.962 380.802 545.069C381.168 544.449 380.548 544.719 380.5 544.783Z" fill="#263238"/>
<defs>
<clipPath id="clip0_603_22">
<rect width="1278.11" height="1138.93" fill="white" transform="translate(0.824707 -181)"/>
</clipPath>
</defs>






<style>
    .anim1 {
        animation: 8s ease-in-out infinite anim1;
    }

    @keyframes anim1 {
        0% {
            transform: translateY(0px);
        }
        50% {
            transform: translateY(-10px);
        }
        100% {
            transform: translateY(0px);
        }
    }

.book {
    animation: 5s ease-in-out infinite anim2;
}
@keyframes anim2 {
        0% {
            transform: translateY(0px) rotate(0);
        }
        50% {
            transform: translateY(5px) rotate(0.5deg);
        }
        100% {
            transform: translateY(0px) rotate(0);
        }
    }

    
.anim3 {
    animation: 2s ease-in-out infinite anim3;
}
@keyframes anim3 {
        0% {
           transform: translate(0px, 0px);
        }
        50% {
            transform: translate(0px, 2px);
        }
        100% {
             transform: translate(0px, 0px);
        }
    }

</style>
</svg>
