<svg width="118" height="119" viewBox="0 0 118 119" fill="none" xmlns="http://www.w3.org/2000/svg">
<path fill-rule="evenodd" clip-rule="evenodd" d="M75.3663 117.761C49.2588 122.708 23.0841 109.789 10.4227 86.3503C-3.32278 60.9044 -5.42177 27.305 16.0822 8.01334C35.4536 -9.3651 63.2129 5.81533 85.7699 18.7549C103.929 29.1719 119.526 45.219 117.332 66.0942C114.765 90.5225 99.4193 113.204 75.3663 117.761Z" fill="#95BAF3"/>
<path fill-rule="evenodd" clip-rule="evenodd" d="M105.878 11.0554C109.016 13.1603 109.857 17.4156 107.756 20.5597L59.6445 92.5713C56.5207 97.2468 49.7077 97.3828 46.4006 92.8357L20.7225 57.53C18.4985 54.4722 19.1693 50.1867 22.2208 47.9582C25.2723 45.7296 29.5488 46.4018 31.7728 49.4596L52.7358 78.2824L96.3935 12.9369C98.4942 9.79281 102.741 8.9504 105.878 11.0554Z" stroke="white" stroke-width="3" stroke-linecap="round"/>
</svg>
