<svg width="118" height="124" viewBox="0 0 118 124" fill="none" xmlns="http://www.w3.org/2000/svg">
<path fill-rule="evenodd" clip-rule="evenodd" d="M75.3663 122.261C49.2588 127.208 23.0841 114.289 10.4227 90.8503C-3.32278 65.4044 -5.42177 31.805 16.0822 12.5133C35.4536 -4.8651 63.2129 10.3153 85.7699 23.2549C103.929 33.6719 119.526 49.719 117.332 70.5942C114.765 95.0225 99.4193 117.704 75.3663 122.261Z" fill="#95BAF3"/>
<path d="M51.048 67.0081C51.1842 70.7521 54.2588 73.7169 58.0053 73.7169C61.7463 73.7169 64.8186 70.7604 64.9621 67.0221L67.0908 11.5742C67.2874 6.45149 63.1878 2.19142 58.0613 2.19142C52.9421 2.19142 48.8451 6.44006 49.0312 11.556L51.048 67.0081ZM50.5529 103.016C52.5972 105.129 55.1589 106.191 58.1385 106.191C61.1191 106.191 63.6516 105.126 65.6133 102.987C67.5309 100.896 68.5 98.3871 68.5 95.5356C68.5 92.5257 67.5507 89.9421 65.5855 87.9117C63.6167 85.8775 61.0925 84.8798 58.1385 84.8798C55.1847 84.8798 52.6318 85.8761 50.5815 87.8829C48.5125 89.9082 47.5 92.5011 47.5 95.5356C47.5 98.412 48.5334 100.93 50.5529 103.016Z" stroke="white" stroke-width="3"/>
</svg>
