<svg width="569" height="494" viewBox="0 0 569 494" fill="none" xmlns="http://www.w3.org/2000/svg">
<g clip-path="url(#clip0_903_4789)">
<path d="M462.074 289.278L539.504 303.762L527.924 365.665L450.494 351.181L462.074 289.278Z" fill="#F5F5F5"/>
<path d="M462.075 289.278C462.075 289.278 462.206 289.313 462.451 289.364C462.715 289.417 463.074 289.49 463.538 289.583C464.514 289.774 465.921 290.048 467.746 290.404C471.435 291.111 476.799 292.139 483.592 293.441C497.189 296.019 516.501 299.679 539.454 304.03L539.236 303.712C535.78 322.137 531.819 343.255 527.626 365.603L527.625 365.609L527.98 365.366C499.312 360.022 472.672 355.057 450.541 350.932L450.744 351.227C454.174 332.593 457.019 317.142 459.01 306.326C459.992 300.922 460.764 296.676 461.294 293.759C461.551 292.319 461.748 291.212 461.886 290.438C462.018 289.683 462.075 289.278 462.075 289.278C462.075 289.278 461.988 289.64 461.841 290.374L461.201 293.638C460.644 296.536 459.832 300.755 458.799 306.125C456.739 316.966 453.796 332.455 450.246 351.134L450.199 351.383L450.448 351.43C472.573 355.583 499.208 360.584 527.868 365.964L528.168 366.021L528.224 365.721L528.225 365.715C532.395 343.363 536.335 322.24 539.772 303.812L539.822 303.544L539.554 303.494C516.51 299.24 497.12 295.661 483.469 293.141C476.69 291.905 471.337 290.928 467.656 290.257C465.849 289.933 464.456 289.684 463.49 289.51C463.035 289.432 462.684 289.372 462.426 289.327C462.31 289.303 462.193 289.287 462.075 289.278Z" fill="#E0E0E0"/>
<path d="M464.116 293.693L536.105 307.16L525.983 361.269L453.994 347.802L464.116 293.693Z" fill="#EBEBEB"/>
<path d="M525.984 361.269L507.132 322.931L487.62 341.061L479.16 327.835L453.995 347.802L525.984 361.269Z" fill="#E0E0E0"/>
<path d="M485.715 314.661C485.506 315.782 485.633 316.94 486.082 317.989C486.53 319.037 487.279 319.93 488.235 320.552C489.19 321.175 490.309 321.501 491.449 321.488C492.59 321.475 493.701 321.124 494.642 320.479C495.583 319.835 496.312 318.926 496.736 317.867C497.161 316.809 497.262 315.648 497.026 314.532C496.791 313.416 496.23 312.395 495.415 311.598C494.599 310.8 493.565 310.263 492.444 310.053C490.941 309.772 489.387 310.099 488.126 310.964C486.864 311.828 485.997 313.158 485.715 314.661Z" fill="#E0E0E0"/>


<g class="el3">
<path d="M346.034 29.9227L385.682 248.918L223.539 278.273L183.891 59.2777L346.034 29.9227Z" fill="#FAFAFA"/>
<path d="M223.539 278.273C223.539 278.273 223.485 277.912 223.365 277.22C223.242 276.522 223.062 275.497 222.825 274.146C222.341 271.435 221.628 267.432 220.7 262.224C218.831 251.808 216.099 236.58 212.641 217.298C205.699 178.769 195.84 124.045 184.162 59.2287L183.94 59.5485C232.678 50.7338 287.85 40.7553 346.069 30.2256L346.088 30.2223L345.734 29.977C360.544 111.666 374.265 187.343 385.436 248.963L385.637 248.673C336.558 257.614 296.06 264.991 267.822 270.135C253.693 272.721 242.634 274.745 235.097 276.125C231.332 276.819 228.449 277.35 226.498 277.71C224.552 278.072 223.539 278.273 223.539 278.273C223.539 278.273 224.523 278.113 226.455 277.773C228.399 277.428 231.269 276.917 235.018 276.251C242.548 274.903 253.596 272.925 267.711 270.397C295.997 265.308 336.564 258.009 385.726 249.163L385.971 249.119L385.926 248.874C374.785 187.249 361.103 111.565 346.333 29.8685L346.279 29.5688L345.979 29.6231L345.961 29.6264L183.842 59.0066L183.571 59.0558L183.62 59.3269C195.421 124.196 205.385 178.963 212.4 217.524C215.916 236.768 218.693 251.966 220.593 262.363C221.545 267.542 222.277 271.523 222.773 274.219C223.021 275.553 223.21 276.566 223.339 277.257C223.467 277.937 223.539 278.273 223.539 278.273Z" fill="#E0E0E0"/>
<path d="M263.508 65.532L332.348 53.0688L343.207 113.051L274.367 125.514L263.508 65.532Z" fill="#E0E0E0"/>
<path d="M208.59 75.4745L252.668 67.4944L254.085 75.3198L210.007 83.3L208.59 75.4745Z" fill="#E0E0E0"/>
<path d="M218.757 148.193L344.553 125.418L345.97 133.244L220.174 156.019L218.757 148.193Z" fill="#E0E0E0"/>
<path d="M221.251 161.968L347.047 139.194L348.464 147.019L222.668 169.794L221.251 161.968Z" fill="#E0E0E0"/>
<path d="M223.745 175.743L349.541 152.969L350.958 160.794L225.162 183.569L223.745 175.743Z" fill="#E0E0E0"/>
<path d="M226.239 189.518L352.035 166.744L353.452 174.569L227.656 197.344L226.239 189.518Z" fill="#E0E0E0"/>
<path d="M228.734 203.293L354.529 180.519L355.946 188.344L230.15 211.119L228.734 203.293Z" fill="#E0E0E0"/>
<path d="M237.282 250.514L363.078 227.74L364.495 235.565L238.699 258.34L237.282 250.514Z" fill="#E0E0E0"/>
<path d="M287.967 206.796L357.021 194.294L358.438 202.119L289.384 214.621L287.967 206.796Z" fill="#E0E0E0"/>
<path d="M210.883 88.1393L254.961 80.1592L256.378 87.9846L212.3 95.9647L210.883 88.1393Z" fill="#E0E0E0"/>
<path d="M213.178 100.804L257.256 92.8239L258.673 100.649L214.595 108.629L213.178 100.804Z" fill="#E0E0E0"/>
<path d="M232.368 110.409L259.547 105.489L260.964 113.314L233.785 118.235L232.368 110.409Z" fill="#E0E0E0"/>
</g>

<path class="el1" d="M150.217 28.9061L164.204 29.4677L165.713 33.3891C166.148 34.4064 166.383 35.4983 166.404 36.6047C166.411 37.0994 166.281 37.5864 166.026 38.0104C165.771 38.4344 165.402 38.7785 164.961 39.0035C163.7 39.4132 162.376 39.5977 161.05 39.5485L161.007 40.6286L174.175 41.1573L174.219 40.0772C172.89 39.8524 171.679 39.1792 170.786 38.1698C169.444 36.2991 168.383 34.2414 167.639 32.0624L154.746 -0.0998877L154.191 -0.122192L138.608 31.7746C137.122 34.7953 135.925 36.687 135.017 37.4498C134.2 38.0726 133.198 38.4033 132.171 38.389L132.128 39.4691L151.283 40.238L151.326 39.1582L150.538 39.1265C149.415 39.1747 148.301 38.9069 147.323 38.3536C147.118 38.1924 146.958 37.9827 146.855 37.7436C146.752 37.5045 146.711 37.2435 146.735 36.9843C146.752 36.6176 146.826 36.2557 146.953 35.9112C147 35.7374 147.321 35.0192 147.917 33.7565L150.217 28.9061ZM151.297 26.7851L157.742 13.3856L163.269 27.2658L151.297 26.7851Z" fill="#E0E0E0"/>




<g class="el2">
<path d="M123.742 111.612L187.705 132.974L170.627 184.11L106.664 162.749L123.742 111.612Z" fill="#F5F5F5"/>
<path d="M124.954 115.596L184.424 135.456L169.496 180.155L110.027 160.294L124.954 115.596Z" fill="#EBEBEB"/>
<path d="M169.496 180.154L158.005 145.434L139.332 158.52L133.709 146.313L110.028 160.294L169.496 180.154Z" fill="#E0E0E0"/>
<path d="M140.813 135.909C140.503 136.835 140.476 137.832 140.733 138.774C140.99 139.716 141.521 140.56 142.258 141.2C142.995 141.841 143.906 142.248 144.875 142.37C145.843 142.493 146.827 142.326 147.7 141.89C148.574 141.453 149.298 140.768 149.782 139.92C150.266 139.072 150.488 138.1 150.419 137.126C150.351 136.152 149.995 135.22 149.397 134.448C148.798 133.677 147.985 133.1 147.059 132.79C145.817 132.376 144.461 132.471 143.29 133.056C142.119 133.641 141.227 134.667 140.813 135.909Z" fill="#E0E0E0"/>
<path d="M121.942 52.1238L137.6 132.07L37.601 151.654L21.9438 71.7081L121.942 52.1238Z" fill="#F5F5F5"/>
<path d="M21.9438 71.7081C21.9438 71.7081 22.1145 71.6853 22.4321 71.6284C22.7643 71.5672 23.2302 71.4813 23.8387 71.369C25.0889 71.1318 26.9108 70.786 29.2784 70.3367C34.0371 69.4219 40.9735 68.0884 49.7658 66.398C67.3361 62.9907 92.3099 58.1477 121.994 52.3912L121.675 52.1763C126.326 75.9732 131.657 103.253 137.299 132.12L137.301 132.128L137.541 131.771C100.524 139.04 66.1233 145.796 37.5524 151.406L37.8493 151.606C33.0816 127.545 29.1296 107.601 26.3654 93.6507C24.971 86.6766 23.877 81.2053 23.1274 77.4571C22.7505 75.5977 22.461 74.1697 22.2617 73.1865C22.0625 72.2183 21.9438 71.7081 21.9438 71.7081C21.9438 71.7081 22.019 72.189 22.1965 73.1439C22.3807 74.1187 22.6482 75.5348 22.9966 77.3784C23.7137 81.1196 24.7608 86.5805 26.0954 93.5413C28.805 107.541 32.679 127.556 37.3525 151.703L37.4006 151.952L37.6497 151.903C66.2263 146.321 100.634 139.601 137.658 132.369L137.957 132.31L137.898 132.011L137.897 132.003C132.232 103.14 126.879 75.8648 122.21 52.0715L122.157 51.8035L121.89 51.8564C92.1556 57.7368 67.1399 62.6841 49.5401 66.1647L29.1411 70.2335C26.8018 70.706 25.0016 71.0696 23.7665 71.319C23.1734 71.4422 22.7192 71.5364 22.3953 71.6036C22.0899 71.6687 21.9438 71.7081 21.9438 71.7081Z" fill="#E0E0E0"/>
<path d="M119.482 57.8317L133.168 127.712L40.1948 145.921L26.5089 76.0402L119.482 57.8317Z" fill="#EBEBEB"/>
<path d="M133.168 127.712L92.1886 90.6348L77.3946 121.751L60.9061 109.894L40.1956 145.921L133.168 127.712Z" fill="#E0E0E0"/>
<path d="M62.4913 90.9257C62.7748 92.3736 63.4813 93.7049 64.5214 94.7513C65.5615 95.7976 66.8886 96.512 68.3348 96.8042C69.7809 97.0963 71.2813 96.9531 72.646 96.3926C74.0107 95.832 75.1786 94.8794 76.0019 93.6551C76.8253 92.4308 77.2671 90.9899 77.2715 89.5145C77.2758 88.0391 76.8426 86.5956 76.0266 85.3664C75.2106 84.1373 74.0484 83.1777 72.687 82.6091C71.3256 82.0404 69.8262 81.8882 68.3783 82.1718C66.4368 82.552 64.7259 83.6879 63.6219 85.3296C62.5179 86.9712 62.1112 88.9842 62.4913 90.9257Z" fill="#E0E0E0"/>
</g>


<path d="M17.7633 493.361C17.7633 493.529 137.705 493.666 285.626 493.666C433.598 493.666 553.514 493.529 553.514 493.361C553.514 493.193 433.598 493.057 285.626 493.057C137.705 493.057 17.7633 493.193 17.7633 493.361Z" fill="#263238"/>
<path d="M342.328 340.754H245.301V391.669H342.328C344.965 391.669 347.577 391.15 350.013 390.14C352.45 389.131 354.663 387.652 356.528 385.787C358.393 383.922 359.872 381.709 360.881 379.272C361.891 376.836 362.41 374.224 362.41 371.587V360.836C362.41 355.51 360.294 350.402 356.528 346.636C352.762 342.869 347.654 340.754 342.328 340.754Z" fill="#81184E"/>
<path d="M270.668 340.754H66.0227C65.1385 340.754 64.2905 341.105 63.6653 341.73C63.0401 342.355 62.6889 343.203 62.6889 344.087V345.872C62.6889 346.756 63.0401 347.604 63.6653 348.23C64.2905 348.855 65.1385 349.206 66.0227 349.206H270.668V340.754Z" fill="#81184E"/>
<path d="M270.668 383.217H66.0227C65.1385 383.217 64.2905 383.568 63.6653 384.193C63.0401 384.819 62.6889 385.667 62.6889 386.551V388.335C62.6889 389.22 63.0401 390.068 63.6653 390.693C64.2905 391.318 65.1385 391.669 66.0227 391.669H270.668V383.217Z" fill="#81184E"/>
<path d="M68.8927 383.217H247.459C249.693 383.217 251.904 382.777 253.967 381.922C256.03 381.068 257.905 379.815 259.484 378.236C261.063 376.657 262.316 374.782 263.17 372.719C264.025 370.656 264.465 368.445 264.465 366.211C264.465 361.701 262.673 357.376 259.484 354.187C256.295 350.998 251.97 349.206 247.459 349.206H68.8927C71.2609 354.563 72.4842 360.355 72.4842 366.212C72.4842 372.068 71.2609 377.86 68.8927 383.217Z" fill="#F5F5F5"/>
<path opacity="0.3" d="M264.464 391.669H341.93C347.362 391.669 352.571 389.511 356.412 385.671C360.252 381.83 362.41 376.621 362.41 371.189V361.077C362.41 358.408 361.884 355.766 360.863 353.3C359.842 350.834 358.345 348.594 356.458 346.706C354.57 344.819 352.33 343.322 349.864 342.301C347.398 341.279 344.755 340.754 342.086 340.754H262.526C280.961 351.921 279.583 378.665 264.464 391.669Z" fill="black"/>
<path d="M90.5876 367.79C90.5876 367.958 127.239 368.095 172.441 368.095C217.659 368.095 254.303 367.958 254.303 367.79C254.303 367.622 217.659 367.486 172.441 367.486C127.239 367.486 90.5876 367.622 90.5876 367.79Z" fill="#263238"/>
<path d="M73.7399 375.349C73.7399 375.518 110.392 375.654 155.594 375.654C200.811 375.654 237.455 375.518 237.455 375.349C237.455 375.182 200.811 375.045 155.594 375.045C110.392 375.045 73.7399 375.182 73.7399 375.349Z" fill="#263238"/>
<path d="M78.7086 357.07C78.7086 357.238 115.36 357.374 160.562 357.374C205.78 357.374 242.424 357.238 242.424 357.07C242.424 356.902 205.78 356.765 160.562 356.765C115.36 356.765 78.7086 356.902 78.7086 357.07Z" fill="#263238"/>
<path d="M273.429 388.101C273.429 388.269 290.585 388.406 311.744 388.406C332.91 388.406 350.062 388.269 350.062 388.101C350.062 387.933 332.91 387.797 311.744 387.797C290.585 387.797 273.429 387.933 273.429 388.101Z" fill="#263238"/>
<path d="M273.429 344.98C273.429 345.148 290.585 345.284 311.744 345.284C332.91 345.284 350.062 345.148 350.062 344.98C350.062 344.812 332.91 344.675 311.744 344.675C290.585 344.675 273.429 344.812 273.429 344.98Z" fill="#263238"/>
<path d="M385.164 427.41H254.428V492.982H385.164C390.49 492.982 395.598 490.866 399.364 487.1C403.13 483.333 405.246 478.225 405.246 472.899V447.492C405.246 444.855 404.727 442.244 403.717 439.807C402.708 437.371 401.229 435.157 399.364 433.292C397.499 431.427 395.286 429.948 392.849 428.939C390.413 427.93 387.801 427.41 385.164 427.41H385.164Z" fill="#81184E"/>
<path d="M287.096 427.41H22.5851C22.1473 427.41 21.7138 427.497 21.3093 427.664C20.9049 427.832 20.5374 428.077 20.2278 428.387C19.9182 428.696 19.6727 429.064 19.5051 429.468C19.3376 429.873 19.2513 430.306 19.2513 430.744V434.962C19.2513 435.846 19.6026 436.694 20.2278 437.319C20.853 437.944 21.7009 438.296 22.5851 438.296H287.096V427.41Z" fill="#81184E"/>
<path d="M287.096 482.096H22.5851C21.7009 482.096 20.853 482.447 20.2278 483.073C19.6026 483.698 19.2513 484.546 19.2513 485.43V489.648C19.2513 490.532 19.6026 491.38 20.2278 492.005C20.853 492.63 21.7009 492.982 22.5851 492.982H287.096V482.096Z" fill="#81184E"/>
<path d="M27.2394 482.096L257.205 482.096C260.081 482.096 262.929 481.53 265.586 480.429C268.243 479.329 270.657 477.715 272.691 475.682C274.725 473.648 276.338 471.234 277.438 468.577C278.539 465.92 279.105 463.072 279.105 460.196V460.196C279.105 457.32 278.539 454.472 277.438 451.815C276.338 449.158 274.725 446.744 272.691 444.71C270.657 442.676 268.243 441.063 265.586 439.963C262.929 438.862 260.081 438.296 257.205 438.296H27.2394C30.2893 445.194 31.8647 452.653 31.8647 460.196C31.8647 467.739 30.2893 475.198 27.2394 482.096Z" fill="#F5F5F5"/>
<path opacity="0.3" d="M279.106 492.982H385.424C388.027 492.982 390.605 492.469 393.01 491.473C395.415 490.476 397.6 489.016 399.44 487.176C401.281 485.335 402.741 483.15 403.737 480.745C404.733 478.34 405.246 475.762 405.246 473.159V447.935C405.246 445.24 404.715 442.571 403.684 440.081C402.652 437.591 401.14 435.328 399.235 433.422C397.329 431.516 395.066 430.004 392.576 428.973C390.086 427.941 387.417 427.41 384.721 427.41H276.611C300.352 441.792 298.578 476.234 279.106 492.982Z" fill="black"/>
<path d="M55.1801 462.229C55.1801 462.397 102.382 462.533 160.595 462.533C218.828 462.533 266.02 462.397 266.02 462.229C266.02 462.061 218.828 461.925 160.595 461.925C102.382 461.925 55.1801 462.061 55.1801 462.229Z" fill="#263238"/>
<path d="M33.4848 471.964C33.4848 472.133 80.6866 472.269 138.899 472.269C197.132 472.269 244.324 472.133 244.324 471.964C244.324 471.796 197.132 471.66 138.899 471.66C80.6866 471.66 33.4848 471.796 33.4848 471.964Z" fill="#263238"/>
<path d="M39.8812 453.195C39.8812 453.363 87.0831 453.5 145.296 453.5C203.529 453.5 250.721 453.363 250.721 453.195C250.721 453.027 203.529 452.891 145.296 452.891C87.0831 452.891 39.8812 453.027 39.8812 453.195Z" fill="#263238"/>
<path d="M290.652 488.386C290.652 488.555 312.746 488.691 339.995 488.691C367.254 488.691 389.344 488.555 389.344 488.386C389.344 488.218 367.254 488.082 339.995 488.082C312.746 488.082 290.652 488.218 290.652 488.386Z" fill="#263238"/>
<path d="M290.652 432.853C290.652 433.021 312.746 433.157 339.995 433.157C367.254 433.157 389.344 433.021 389.344 432.853C389.344 432.685 367.254 432.548 339.995 432.548C312.746 432.548 290.652 432.685 290.652 432.853Z" fill="#263238"/>
<path d="M322.989 390.106H215.262V427.649H322.989C326.916 427.649 330.683 426.089 333.46 423.312C336.237 420.535 337.797 416.769 337.797 412.841V404.914C337.797 402.969 337.414 401.044 336.67 399.247C335.926 397.45 334.835 395.818 333.46 394.443C332.085 393.068 330.452 391.977 328.656 391.233C326.859 390.489 324.934 390.106 322.989 390.106Z" fill="#455A64"/>
<path d="M241.803 390.106H27.6754C26.7503 390.106 25.863 390.473 25.2088 391.128C24.5546 391.782 24.1871 392.669 24.1871 393.594V395.462C24.1871 396.387 24.5546 397.274 25.2088 397.928C25.863 398.582 26.7503 398.95 27.6754 398.95H241.803V390.106Z" fill="#455A64"/>
<path d="M241.803 418.805H27.6754C26.7503 418.805 25.863 419.173 25.2088 419.827C24.5546 420.481 24.1871 421.368 24.1871 422.293V424.161C24.1871 425.086 24.5546 425.973 25.2088 426.627C25.8629 427.282 26.7502 427.649 27.6753 427.649H241.803V418.805Z" fill="#455A64"/>
<path d="M30.6786 418.805H225.385C228.018 418.805 230.543 417.759 232.405 415.897C234.267 414.036 235.312 411.511 235.312 408.878C235.312 406.245 234.267 403.719 232.405 401.858C230.543 399.996 228.018 398.95 225.385 398.95H30.6786C35.6891 405.568 35.6891 412.187 30.6786 418.805Z" fill="#F5F5F5"/>
<path opacity="0.3" d="M235.312 427.649H322.89C326.844 427.649 330.635 426.079 333.431 423.283C336.226 420.488 337.797 416.696 337.797 412.742V405.314C337.797 401.28 336.195 397.412 333.343 394.56C330.49 391.708 326.622 390.106 322.589 390.106H233.284C252.574 398.34 251.132 418.06 235.312 427.649Z" fill="black"/>
<path d="M53.379 407.314C53.379 407.483 91.729 407.619 139.025 407.619C186.338 407.619 224.68 407.483 224.68 407.314C224.68 407.146 186.338 407.01 139.025 407.01C91.729 407.01 53.379 407.146 53.379 407.314Z" fill="#263238"/>
<path d="M35.752 412.658C35.752 412.826 74.102 412.963 121.398 412.963C168.711 412.963 207.053 412.826 207.053 412.658C207.053 412.49 168.711 412.354 121.398 412.354C74.102 412.354 35.752 412.49 35.752 412.658Z" fill="#263238"/>
<path d="M244.692 423.916C244.692 424.084 262.644 424.22 284.783 424.22C306.929 424.22 324.877 424.084 324.877 423.916C324.877 423.748 306.929 423.611 284.783 423.611C262.644 423.611 244.692 423.748 244.692 423.916Z" fill="#263238"/>
<path d="M244.692 394.528C244.692 394.696 262.644 394.832 284.783 394.832C306.929 394.832 324.877 394.696 324.877 394.528C324.877 394.36 306.929 394.223 284.783 394.223C262.644 394.223 244.692 394.36 244.692 394.528Z" fill="#263238"/>
<path d="M26.7427 390.106C26.7427 390.274 92.5939 390.41 173.807 390.41C255.048 390.41 320.885 390.274 320.885 390.106C320.885 389.938 255.048 389.802 173.807 389.802C92.5939 389.802 26.7427 389.938 26.7427 390.106Z" fill="#263238"/>
<path d="M144.84 356.513V376.904L137.772 372.372L129.888 376.904V356.513H144.84Z" fill="#81184E"/>
<path d="M73.018 154.098L108.599 183.735L162.727 290.668L128.979 305.918L76.3421 201.044L73.018 154.098Z" fill="#81184E"/>
<g opacity="0.7">
<path opacity="0.7" d="M76.3427 201.044C76.7514 201.139 77.1765 201.139 77.5851 201.044C77.9938 200.948 78.3751 200.761 78.6997 200.495C79.0243 200.229 79.2834 199.892 79.457 199.51C79.6306 199.128 79.7142 198.711 79.7011 198.291C80.8233 199.6 82.3277 200.524 84.0026 200.933C85.6775 201.342 87.4385 201.216 89.0377 200.571C90.6368 199.927 91.9935 198.797 92.9168 197.341C93.8401 195.885 94.2834 194.176 94.1843 192.455C95.684 193.259 97.3703 193.651 99.071 193.59C100.772 193.53 102.426 193.019 103.864 192.109C105.303 191.2 106.474 189.925 107.259 188.415C108.044 186.905 108.413 185.214 108.33 183.514L73.018 154.098L76.3427 201.044Z" fill="white"/>
</g>
<path d="M87.3262 166.016C87.3262 166.016 86.7878 174.869 74.3796 173.332L73.0175 154.098L87.3262 166.016Z" fill="#81184E"/>
<path opacity="0.3" d="M94.1838 192.455L146.356 297.488L162.727 290.667L108.598 183.734L108.33 183.514C108.41 184.94 108.158 186.365 107.594 187.677C106.853 189.404 105.64 190.887 104.094 191.955C102.196 193.248 99.8945 193.81 97.6148 193.536C96.4136 193.393 95.2498 193.026 94.1838 192.455Z" fill="black"/>
<path opacity="0.3" d="M79.7008 198.291L133.307 303.962L128.979 305.918L76.3423 201.044C77.0553 201.176 77.7918 201.037 78.408 200.655C79.0242 200.273 79.4757 199.675 79.6745 198.977C79.7076 198.75 79.7164 198.52 79.7008 198.291Z" fill="black"/>
<path d="M94.4415 182.257C94.5576 182.387 94.6232 182.555 94.6265 182.73C94.6225 182.977 94.527 183.215 94.3584 183.396C94.1898 183.578 93.96 183.691 93.7133 183.713C92.9176 183.739 92.1333 183.518 91.4681 183.081C91.0457 182.831 90.711 182.457 90.5098 182.01C90.3947 181.767 90.3434 181.499 90.3607 181.232C90.378 180.964 90.4634 180.705 90.6087 180.479C90.7968 180.249 91.031 180.06 91.2965 179.926C91.5619 179.792 91.8525 179.715 92.1496 179.7C92.8098 179.642 93.475 179.68 94.1244 179.812C95.5749 180.053 96.9594 180.593 98.1898 181.398C98.5175 181.6 98.7984 181.869 99.0141 182.188C99.2297 182.507 99.3751 182.868 99.4407 183.247C99.458 183.646 99.376 184.042 99.2021 184.401C99.0282 184.76 98.7678 185.071 98.4443 185.304C97.6981 185.736 96.8726 186.014 96.0168 186.121C95.1611 186.227 94.2927 186.161 93.4633 185.925C91.8164 185.579 90.2961 184.788 89.0688 183.637C87.8414 182.486 86.9543 181.019 86.5045 179.398C86.43 179.039 86.4393 178.668 86.5315 178.314C86.6237 177.959 86.7965 177.631 87.0363 177.354C87.5176 176.839 88.1158 176.448 88.7804 176.213C89.9868 175.776 91.2521 175.522 92.5339 175.461C94.398 175.367 96.2621 175.646 98.0174 176.28C98.6349 176.514 99.1032 176.724 99.4156 176.878C99.7263 177.035 99.8965 177.106 99.8965 177.106C99.3144 176.738 98.6967 176.43 98.0528 176.186C96.2919 175.509 94.4105 175.2 92.5253 175.279C91.2213 175.329 89.9324 175.576 88.7029 176.014C88.0029 176.257 87.3722 176.666 86.8648 177.206C86.6018 177.508 86.4115 177.866 86.3085 178.252C86.2054 178.639 86.1924 179.044 86.2704 179.436C86.7215 181.109 87.6272 182.625 88.8871 183.814C90.147 185.004 91.7117 185.821 93.4078 186.176C94.2934 186.371 95.2028 186.433 96.1066 186.363C97.0021 186.319 97.8665 186.021 98.5987 185.504C98.9552 185.244 99.2414 184.899 99.4311 184.501C99.6209 184.103 99.7082 183.663 99.6854 183.223C99.6157 182.809 99.4586 182.416 99.2245 182.068C98.9905 181.72 98.6849 181.426 98.3282 181.206C97.0666 180.385 95.6467 179.839 94.1604 179.602C93.4901 179.47 92.8041 179.437 92.1242 179.503C91.8007 179.523 91.4852 179.612 91.1982 179.762C90.9111 179.913 90.6591 180.122 90.4584 180.377C90.2986 180.628 90.2056 180.915 90.1883 181.213C90.171 181.51 90.2298 181.806 90.3594 182.074C90.5783 182.549 90.9391 182.943 91.392 183.203C92.0874 183.648 92.9055 183.861 93.7293 183.812C93.9943 183.782 94.2386 183.655 94.4142 183.454C94.5899 183.253 94.6841 182.994 94.6784 182.728C94.6799 182.636 94.6592 182.545 94.6179 182.463C94.5766 182.381 94.5161 182.31 94.4415 182.257Z" fill="white"/>
<path d="M75.357 181.613C75.3605 181.644 75.8787 181.53 76.8193 181.567C78.1474 181.651 79.4454 181.999 80.6372 182.592C82.3974 183.489 84.0466 184.589 85.5513 185.869C87.3886 187.481 89.4801 188.779 91.741 189.708C94.0753 190.51 96.594 190.608 98.9835 189.989C100.604 189.559 102.119 188.8 103.435 187.761C104.751 186.721 105.839 185.422 106.633 183.945C106.87 183.514 107.068 183.063 107.225 182.597C107.156 182.704 107.098 182.817 107.05 182.935C106.946 183.161 106.78 183.488 106.545 183.896C105.883 185.05 105.043 186.093 104.057 186.987C102.597 188.315 100.835 189.266 98.9241 189.759C96.5796 190.353 94.113 190.25 91.8257 189.465C89.5915 188.544 87.5217 187.266 85.6971 185.682C84.1731 184.4 82.4998 183.307 80.7137 182.426C79.4973 181.84 78.1721 181.513 76.8225 181.467C76.3297 181.45 75.8368 181.499 75.357 181.613Z" fill="white"/>
<path d="M75.5673 192.333C76.2115 191.659 77.0794 191.243 78.0082 191.164C80.2573 191.139 82.4966 191.466 84.6448 192.132C86.821 192.721 88.9385 193.508 90.9709 194.484C91.7529 194.855 92.3717 195.184 92.801 195.409C93.0158 195.541 93.2419 195.654 93.4766 195.746C93.281 195.586 93.0715 195.444 92.8506 195.322C92.4355 195.07 91.8274 194.714 91.0515 194.32C87.9092 192.725 84.5324 191.642 81.0486 191.112C80.0387 190.924 79.0072 190.881 77.9851 190.984C77.287 191.061 76.6242 191.331 76.0711 191.764C75.8728 191.924 75.7026 192.116 75.5673 192.333Z" fill="white"/>
<path d="M90.3379 199.862C89.9775 199.5 89.5786 199.178 89.1483 198.903C88.1501 198.155 86.9978 197.64 85.7753 197.393C85.1563 197.267 84.5169 197.28 83.9035 197.431C83.29 197.582 82.7177 197.867 82.228 198.266C81.9384 198.514 81.6977 198.814 81.5185 199.15C81.4436 199.268 81.3956 199.401 81.3778 199.54C81.6368 199.113 81.9631 198.73 82.3441 198.407C82.8238 198.049 83.3737 197.796 83.9577 197.665C84.5417 197.535 85.1468 197.528 85.7333 197.647C86.9203 197.892 88.0468 198.37 89.0473 199.054C89.4605 199.35 89.8915 199.619 90.3379 199.862Z" fill="white"/>
<path d="M74.4277 175.239C74.423 175.246 74.4817 175.295 74.598 175.381C74.7145 175.466 74.886 175.592 75.1178 175.742C75.3987 175.935 75.7129 176.075 76.0447 176.154C76.4925 176.23 76.9517 176.201 77.3869 176.072C78.4912 175.751 79.5787 175.375 80.6453 174.946C81.9677 174.493 83.3263 174.154 84.7064 173.932C87.2253 173.561 89.7697 173.389 92.3157 173.42C93.1641 173.418 93.9312 173.417 94.6347 173.416C94.9189 173.429 95.2037 173.419 95.4863 173.386C95.2055 173.341 94.9215 173.317 94.637 173.316C94.0897 173.289 93.2974 173.256 92.317 173.238C89.7581 173.153 87.1968 173.301 84.6645 173.678C83.2697 173.902 81.8981 174.252 80.5662 174.722C79.3405 175.164 78.2862 175.661 77.3427 175.895C76.9864 176.025 76.6051 176.071 76.2282 176.029C75.8513 175.988 75.489 175.86 75.1695 175.656C74.9319 175.5 74.6841 175.361 74.4277 175.239Z" fill="white"/>
<path d="M36.709 271.877V365.095C36.7024 365.285 36.6225 365.464 36.4862 365.596C36.3498 365.728 36.1677 365.801 35.9782 365.801C35.7886 365.801 35.6065 365.728 35.4701 365.596C35.3338 365.464 35.2539 365.285 35.2473 365.095V271.877C35.2539 271.688 35.3338 271.508 35.4701 271.377C35.6065 271.245 35.7886 271.171 35.9782 271.171C36.1677 271.171 36.3498 271.245 36.4862 271.377C36.6225 271.508 36.7024 271.688 36.709 271.877Z" fill="#81184E"/>
<path d="M30.6998 344.554C30.6998 345.594 31.0081 346.61 31.5858 347.475C32.1635 348.339 32.9846 349.013 33.9453 349.411C34.906 349.809 35.9631 349.913 36.983 349.71C38.0028 349.508 38.9396 349.007 39.6749 348.272C40.4102 347.536 40.9109 346.6 41.1138 345.58C41.3167 344.56 41.2126 343.503 40.8147 342.542C40.4167 341.581 39.7429 340.76 38.8783 340.183C38.0137 339.605 36.9972 339.297 35.9574 339.297C34.563 339.297 33.2258 339.85 32.2398 340.836C31.2538 341.822 30.6999 343.16 30.6998 344.554Z" fill="#81184E"/>
<path d="M37.4429 347.275C37.4429 347.275 41.2717 351.104 42.4203 362.335C43.5688 373.566 43.8242 379.181 43.8242 379.181L33.4865 379.82V371.779C33.4865 372.162 31.4446 377.778 31.4446 377.778L23.2766 375.098C23.2766 375.098 26.212 345.233 37.4429 347.275Z" fill="#81184E"/>
<path d="M91.1902 279.506H266.672V342.772H91.1902V279.506Z" fill="#263238"/>
<path d="M29.5499 268.618H329.701V279.506H29.5499V268.618Z" fill="#263238"/>
<path opacity="0.3" d="M266.672 324.822C266.672 324.822 213.361 305.695 178.931 298.633C144.501 291.57 91.1902 293.925 91.1902 293.925V279.506H266.672V324.822Z" fill="black"/>
<path opacity="0.3" d="M221.136 268.618H329.701V279.506H221.136V268.618Z" fill="black"/>
<path d="M31.7271 279.506C31.7271 279.674 98.4668 279.81 180.775 279.81C263.113 279.81 329.838 279.674 329.838 279.506C329.838 279.337 263.113 279.201 180.775 279.201C98.4668 279.201 31.7271 279.337 31.7271 279.506Z" fill="#455A64"/>
<path d="M221.311 279.597C221.717 275.918 221.717 272.205 221.311 268.526C220.905 272.205 220.905 275.918 221.311 279.597Z" fill="#455A64"/>
<path d="M196.277 342.772C196.446 342.772 196.582 330.428 196.582 315.205C196.582 299.976 196.446 287.635 196.277 287.635C196.109 287.635 195.973 299.976 195.973 315.205C195.973 330.428 196.109 342.772 196.277 342.772Z" fill="#455A64"/>
<path d="M450.139 420.464L429.962 412.322L414.551 372.064L394.008 382.65C394.008 382.65 395.995 386.627 400.241 396.463C401.88 400.261 407.312 410.848 409.525 416.005C411.565 420.773 414.929 424.855 419.219 427.769C423.509 430.683 428.544 432.306 433.728 432.445L452.662 432.938L450.139 420.464Z" fill="#FFBF9D"/>
<path d="M460.16 412.672L463.207 409.468C463.794 409.09 464.481 408.9 465.179 408.921L474.836 409.214C475.735 409.303 476.603 409.592 477.377 410.06C478.15 410.528 478.808 411.164 479.303 411.92L482.814 417.896C482.814 417.896 485.175 421.985 484.874 422.979C484.742 423.394 484.46 423.746 484.084 423.966C483.708 424.187 483.264 424.261 482.837 424.173C482.837 424.173 482.503 426.062 481.869 426.447C481.509 426.631 481.115 426.739 480.712 426.765C480.309 426.791 479.904 426.734 479.524 426.598C479.357 426.957 479.087 427.258 478.749 427.463C478.41 427.668 478.018 427.768 477.622 427.749C477.453 427.736 477.284 427.705 477.121 427.656C475.975 427.309 475.458 425.089 475.458 425.089L470.562 424.183C470.562 424.183 463.53 428.884 461.052 431.964C458.574 435.044 452.082 432.69 452.082 432.69L449.653 421.077L460.16 412.672Z" fill="#FFBF9D"/>
<path d="M467.276 414.058C467.96 414.273 468.671 414.391 469.388 414.41C470.719 414.557 472.603 414.611 474.724 414.886L474.495 414.718C474.863 415.515 475.282 416.287 475.749 417.03C477.033 419.068 478.595 420.917 480.391 422.522C481.095 423.231 481.915 423.817 482.814 424.253C482.869 424.176 481.971 423.49 480.686 422.208C479.013 420.544 477.53 418.699 476.265 416.707C475.811 415.985 475.399 415.239 475.029 414.471L474.957 414.32L474.799 414.302C472.62 414.056 470.742 414.081 469.411 414.036C468.7 413.97 467.985 413.978 467.276 414.058Z" fill="#FF9A6C"/>
<path d="M467.054 418.664C467.621 418.948 468.24 419.113 468.873 419.149C470.446 419.365 472.044 419.309 473.597 418.984L473.253 418.789C473.453 419.386 473.689 419.971 473.959 420.54C474.829 422.361 476.065 423.984 477.588 425.309C478.179 425.898 478.885 426.361 479.661 426.668C479.716 426.588 478.945 426.047 477.88 424.992C476.496 423.624 475.355 422.03 474.508 420.277C474.249 419.73 474.018 419.17 473.816 418.599L473.725 418.347L473.472 418.404C471.354 418.783 469.195 418.87 467.054 418.664Z" fill="#FF9A6C"/>
<path d="M454.794 421.047C457.665 419.713 460.536 418.378 463.407 417.044C464.56 416.402 465.84 416.022 467.157 415.929C468.572 416.05 469.94 416.504 471.147 417.253C472.692 418.052 474.237 418.852 475.781 419.652C476.05 419.751 476.269 419.95 476.396 420.206C476.422 420.39 476.399 420.577 476.329 420.749C476.259 420.921 476.144 421.071 475.996 421.183C474.798 422.32 473.229 422.984 471.579 423.051C469.929 423.119 468.31 422.586 467.024 421.551C466.397 423.617 465.414 425.558 464.119 427.286C463.46 428.143 462.592 428.816 461.598 429.239C460.604 429.663 459.518 429.823 458.444 429.705" fill="#FFBF9D"/>
<path d="M458.443 429.705C458.44 429.719 458.518 429.745 458.674 429.781C458.905 429.831 459.14 429.858 459.376 429.86C460.279 429.867 461.17 429.651 461.969 429.231C463.21 428.582 464.261 427.624 465.021 426.449C465.961 424.942 466.718 423.329 467.277 421.644L466.847 421.756C467.539 422.334 468.338 422.77 469.198 423.039C470.059 423.308 470.964 423.405 471.861 423.324C472.836 423.254 473.787 422.988 474.657 422.542C475.103 422.303 475.519 422.015 475.9 421.682C476.105 421.513 476.292 421.322 476.456 421.113C476.563 420.984 476.641 420.834 476.684 420.672C476.726 420.51 476.732 420.34 476.702 420.175C476.621 419.902 476.436 419.671 476.187 419.532C475.981 419.405 475.806 419.326 475.626 419.229C475.265 419.043 474.907 418.858 474.551 418.674C473.84 418.308 473.14 417.947 472.451 417.592C471.144 416.825 469.751 416.217 468.299 415.783C466.906 415.529 465.468 415.747 464.213 416.402C463.047 416.932 461.999 417.45 461.023 417.914C459.162 418.823 457.618 419.576 456.439 420.152C455.866 420.403 455.316 420.703 454.794 421.047C455.394 420.87 455.978 420.643 456.539 420.366C457.739 419.836 459.31 419.142 461.205 418.304C462.195 417.86 463.267 417.379 464.412 416.866C465.574 416.276 466.898 416.087 468.178 416.33C469.575 416.771 470.917 417.372 472.176 418.122C472.864 418.48 473.563 418.843 474.273 419.213C474.628 419.397 474.986 419.582 475.346 419.769C475.712 419.956 476.093 420.138 476.111 420.322C476.184 420.545 475.852 420.941 475.498 421.226C475.154 421.528 474.777 421.79 474.375 422.007C473.579 422.417 472.709 422.665 471.816 422.735C470.154 422.896 468.496 422.397 467.199 421.346L466.9 421.089L466.769 421.457C466.244 423.114 465.532 424.706 464.649 426.202C463.95 427.339 462.977 428.283 461.82 428.947C460.789 429.515 459.618 429.778 458.443 429.705Z" fill="#FF9A6C"/>
<path d="M342.768 308.292C342.691 301.828 341.673 295.386 341.92 288.927C342.168 282.468 343.868 275.74 348.375 271.106C352.882 266.473 360.708 264.704 365.981 268.443L367.062 273.944C364.987 298.867 365.27 324.194 363.194 349.117C362.922 352.391 360.264 355.355 358.775 358.284C357.287 361.212 354.298 363.629 351.02 363.428C346.729 363.164 343.914 358.815 342.58 354.729C337.744 339.916 342.956 323.873 342.768 308.292Z" fill="#263238"/>
<path d="M358.313 274.779C359.173 273.134 360.281 271.631 361.599 270.325C362.264 269.676 363.067 269.186 363.949 268.892C364.83 268.598 365.766 268.506 366.687 268.625C367.121 268.678 367.535 268.841 367.888 269.099C368.241 269.356 368.522 269.701 368.704 270.098C368.992 270.921 368.376 272.021 367.507 271.95L367.322 272.108C365.387 273.82 363.418 275.493 361.416 277.128C360.937 277.571 360.377 277.917 359.767 278.148C359.46 278.258 359.128 278.281 358.809 278.213C358.489 278.145 358.195 277.99 357.96 277.763C357.247 276.959 357.768 275.706 358.313 274.779Z" fill="#81184E"/>
<path d="M354.66 281.124C361.101 273.251 369.752 268.719 379.923 268.55C385.661 268.455 388.036 269.648 392.168 270.763C396.306 271.756 399.962 274.175 402.495 277.594C405.423 281.75 407.882 286.404 408.436 291.457C409.164 296.631 409.413 301.862 409.182 307.082C408.94 312.33 407.254 317.41 404.31 321.761L391.06 324.063C383.742 324.312 376.323 324.552 369.194 322.883C362.065 321.213 355.138 317.378 351.32 311.13C346.016 302.45 348.219 288.997 354.66 281.124Z" fill="#263238"/>
<path d="M366.449 281.037L384.113 274.016L388.728 274.552C399.111 274.589 406.272 286.04 406.34 294.45C406.416 303.793 406.14 315.202 404.655 322.089C401.67 335.936 389.852 337.089 389.852 337.089C389.852 337.089 390.094 344.468 390.183 349.117L363.139 347.165L361.78 285.779C361.823 284.548 362.327 283.377 363.191 282.499C364.056 281.621 365.218 281.099 366.449 281.037Z" fill="#FFBF9D"/>
<path d="M383.885 318.848C383.992 318.138 384.354 317.491 384.904 317.029C385.406 316.598 386.036 316.344 386.696 316.306C387.357 316.269 388.011 316.45 388.559 316.821C389.128 317.259 389.571 317.841 389.84 318.507C390.109 319.172 390.196 319.898 390.092 320.609C389.788 321.035 389.397 321.392 388.944 321.655C388.491 321.917 387.987 322.08 387.467 322.132C387.303 322.146 387.138 322.151 386.973 322.147C386.15 322.142 385.357 321.829 384.754 321.268C384.435 320.957 384.191 320.578 384.04 320.158C383.89 319.739 383.837 319.291 383.885 318.848Z" fill="#FF9A6C"/>
<path d="M401.66 306.272C401.639 306.739 401.436 307.179 401.095 307.499C400.754 307.819 400.301 307.993 399.833 307.984C399.605 307.99 399.377 307.95 399.164 307.866C398.951 307.782 398.756 307.657 398.593 307.497C398.429 307.337 398.299 307.146 398.21 306.935C398.121 306.724 398.075 306.497 398.075 306.268C398.096 305.801 398.299 305.361 398.64 305.041C398.98 304.72 399.432 304.546 399.9 304.554C400.129 304.548 400.357 304.589 400.57 304.672C400.784 304.756 400.978 304.882 401.142 305.042C401.306 305.202 401.437 305.393 401.526 305.604C401.615 305.815 401.66 306.042 401.66 306.272Z" fill="#263238"/>
<path d="M403.176 299.12C402.941 299.342 401.639 298.263 399.71 298.162C397.786 298.034 396.317 298.948 396.12 298.7C396.023 298.59 396.273 298.181 396.913 297.766C397.779 297.234 398.789 296.982 399.803 297.046C400.806 297.098 401.766 297.467 402.545 298.101C403.113 298.588 403.291 299.022 403.176 299.12Z" fill="#263238"/>
<path d="M390.787 314.24C391.821 313.978 392.883 313.845 393.949 313.847C394.444 313.823 394.915 313.751 395.017 313.419C395.087 312.913 395 312.398 394.769 311.942C394.371 310.726 393.954 309.449 393.518 308.114C391.79 302.666 390.567 298.197 390.787 298.13C391.007 298.062 392.587 302.423 394.316 307.871C394.73 309.213 395.126 310.496 395.503 311.718C395.78 312.329 395.833 313.018 395.652 313.664C395.571 313.834 395.453 313.983 395.306 314.1C395.159 314.217 394.987 314.299 394.803 314.339C394.527 314.398 394.244 314.422 393.961 314.41C392.9 314.488 391.834 314.431 390.787 314.24Z" fill="#263238"/>
<path d="M389.876 337.073C383.293 336.812 376.911 334.729 371.442 331.056C371.442 331.056 375.894 341.012 389.947 340.472L389.876 337.073Z" fill="#FF9A6C"/>
<path d="M385.041 315.262C385.355 315.261 385.244 317.354 386.954 318.937C388.66 320.526 390.903 320.413 390.904 320.706C390.926 320.839 390.385 321.086 389.442 321.059C388.215 321.009 387.045 320.528 386.138 319.701C385.268 318.906 384.741 317.803 384.668 316.627C384.636 315.748 384.898 315.242 385.041 315.262Z" fill="#263238"/>
<path d="M402.519 292.369C402.17 292.822 400.711 292.426 398.978 292.475C397.244 292.468 395.791 292.899 395.435 292.455C395.278 292.238 395.492 291.79 396.115 291.349C396.969 290.815 397.953 290.526 398.96 290.514C399.966 290.502 400.957 290.767 401.823 291.28C402.453 291.705 402.673 292.148 402.519 292.369Z" fill="#263238"/>
<path d="M380.621 305.786C380.608 306.253 380.779 306.707 381.096 307.051C381.413 307.395 381.852 307.601 382.319 307.625C382.547 307.648 382.777 307.624 382.996 307.556C383.214 307.488 383.417 307.376 383.592 307.229C383.767 307.081 383.911 306.9 384.014 306.696C384.118 306.492 384.18 306.269 384.197 306.041C384.209 305.573 384.039 305.119 383.722 304.776C383.406 304.432 382.967 304.225 382.5 304.2C382.272 304.177 382.042 304.201 381.823 304.269C381.604 304.337 381.401 304.448 381.226 304.596C381.051 304.744 380.907 304.925 380.803 305.13C380.699 305.334 380.637 305.557 380.621 305.786Z" fill="#263238"/>
<path d="M377.087 298.374C377.306 298.612 378.682 297.63 380.613 297.669C382.542 297.68 383.941 298.698 384.155 298.465C384.259 298.362 384.04 297.936 383.431 297.476C382.606 296.882 381.617 296.559 380.601 296.549C379.597 296.528 378.612 296.827 377.79 297.403C377.188 297.848 376.98 298.267 377.087 298.374Z" fill="#263238"/>
<path d="M378.245 292.197C378.618 292.642 380.116 292.214 381.907 292.223C383.698 292.177 385.209 292.575 385.566 292.123C385.723 291.903 385.492 291.46 384.836 291.033C383.941 290.502 382.913 290.235 381.873 290.263C380.836 290.255 379.818 290.543 378.938 291.093C378.297 291.533 378.082 291.981 378.245 292.197Z" fill="#263238"/>
<path d="M364.18 309.254C364.234 308.214 363.167 305.695 362.148 305.478C359.428 304.9 354.471 304.849 354.042 311.814C353.457 321.335 363.136 319.959 363.17 319.687C363.196 319.474 363.991 312.847 364.18 309.254Z" fill="#FFBF9D"/>
<path d="M360.758 316.047C360.718 316.014 360.585 316.153 360.297 316.264C359.892 316.408 359.447 316.39 359.055 316.214C358.072 315.783 357.324 314.134 357.383 312.415C357.409 311.597 357.617 310.795 357.993 310.068C358.101 309.776 358.278 309.515 358.509 309.306C358.74 309.098 359.018 308.949 359.319 308.872C359.513 308.834 359.714 308.864 359.888 308.958C360.061 309.051 360.197 309.203 360.27 309.386C360.382 309.661 360.309 309.847 360.359 309.866C360.384 309.892 360.573 309.72 360.52 309.322C360.482 309.083 360.363 308.864 360.182 308.702C359.932 308.488 359.608 308.381 359.28 308.403C358.884 308.457 358.509 308.611 358.19 308.85C357.871 309.09 357.618 309.408 357.457 309.773C357.001 310.572 356.747 311.471 356.719 312.391C356.661 314.314 357.533 316.169 358.885 316.652C359.136 316.742 359.404 316.774 359.67 316.747C359.935 316.719 360.19 316.632 360.418 316.493C360.727 316.276 360.79 316.066 360.758 316.047Z" fill="#FF9A6C"/>
<path d="M361.761 305.506L364.18 308.015C374.626 298.016 395.041 272.98 393.901 274.472C389.14 272.694 384.01 272.137 378.978 272.852C371.21 274.175 356.477 278.063 356.703 287.224C356.929 296.385 361.761 305.506 361.761 305.506Z" fill="#263238"/>
<path d="M347.925 303.403C347.952 303.215 348.001 303.03 348.071 302.852C348.244 302.335 348.461 301.832 348.72 301.351C349.704 299.587 351.062 298.059 352.699 296.874C355.128 295.14 357.838 293.836 360.71 293.021C363.895 291.983 367.485 291.178 371.009 289.665C374.338 288.278 377.494 286.51 380.416 284.396C382.8 282.666 385.022 280.724 387.055 278.592C388.421 277.148 389.702 275.627 390.894 274.036C391.283 273.501 391.6 273.066 391.849 272.723C391.951 272.563 392.071 272.414 392.207 272.281C392.134 272.456 392.042 272.623 391.931 272.778C391.732 273.092 391.451 273.565 391.048 274.147C389.909 275.791 388.659 277.355 387.306 278.828C385.292 281.012 383.073 282.998 380.68 284.76C377.744 286.916 374.56 288.714 371.196 290.115C367.806 291.405 364.351 292.517 360.846 293.449C358.011 294.232 355.327 295.483 352.904 297.151C351.282 298.289 349.913 299.751 348.885 301.444C348.187 302.66 347.974 303.422 347.925 303.403Z" fill="#455A64"/>
<path d="M350.697 304.902C350.67 304.19 350.796 303.481 351.066 302.821C351.781 301.002 353.028 299.439 354.644 298.339C357.058 296.782 359.759 295.723 362.589 295.224C365.985 294.547 369.296 293.496 372.461 292.091C375.609 290.651 378.565 288.826 381.263 286.658C383.464 284.884 385.486 282.898 387.297 280.727C388.514 279.258 389.638 277.713 390.661 276.103C390.989 275.561 391.256 275.12 391.468 274.77C391.554 274.608 391.658 274.457 391.779 274.319C391.725 274.493 391.649 274.66 391.554 274.817C391.362 275.181 391.121 275.639 390.824 276.201C389.856 277.861 388.767 279.447 387.564 280.945C383.567 285.915 378.465 289.883 372.664 292.535C369.469 293.954 366.123 295.003 362.69 295.662C359.908 296.13 357.242 297.134 354.843 298.62C353.256 299.665 352.006 301.148 351.244 302.889C351 303.542 350.817 304.216 350.697 304.902Z" fill="#455A64"/>
<path d="M362.074 321.625C362.083 321.561 361.267 321.455 359.858 321.087C357.879 320.509 356.058 319.491 354.53 318.109C352.299 316.016 350.601 313.419 349.58 310.536C348.279 307.016 347.581 303.303 347.516 299.551C347.392 295.802 348.087 292.07 349.555 288.618C350.761 285.801 352.428 283.205 354.487 280.936C356.436 278.881 358.576 277.016 360.878 275.366C360.69 275.432 360.512 275.524 360.35 275.64C360.021 275.846 359.513 276.119 358.912 276.551C357.186 277.738 355.592 279.108 354.16 280.636C352.014 282.906 350.276 285.529 349.023 288.389C347.49 291.91 346.761 295.728 346.888 299.566C346.954 303.389 347.683 307.171 349.041 310.745C350.116 313.698 351.901 316.341 354.236 318.442C355.832 319.834 357.738 320.822 359.795 321.323C360.35 321.453 360.914 321.543 361.481 321.592C361.676 321.631 361.876 321.642 362.074 321.625Z" fill="#455A64"/>
<path d="M349.96 438.755L406.273 446.932C427.424 452.918 449.708 454.672 473.004 452.649L388.256 492.183L354.232 492.712C354.232 492.712 343.872 492.744 342.062 483.673C340.223 474.462 338.239 447.113 338.239 447.113C338.239 447.113 344.962 441.267 349.96 438.755Z" fill="#263238"/>
<g opacity="0.3">
<path opacity="0.3" d="M350.124 462.459C349.199 468.096 348.866 473.815 349.13 479.522C347.399 477.623 346.124 475.355 345.401 472.89C344.678 470.425 344.526 467.828 344.956 465.295C345.452 462.513 346.61 459.455 345.153 457.032C344.177 455.407 341.593 453.541 341.97 451.682C341.97 451.682 344.233 451.682 346.287 451.6C347.932 451.534 351.357 451.433 351.357 451.433C349.876 454.971 349.558 458.889 350.447 462.62" fill="black"/>
</g>
<path d="M390.096 346.787L362.735 343.832L357.729 348.391L377.26 359.873L385.877 364.336L394.388 361.752L397.084 356.68L390.096 346.787Z" fill="#FFBF9D"/>
<path d="M426.977 380.102C426.977 380.102 418.4 363.643 416.277 360.047C412.657 353.918 405.904 350.444 405.904 350.444L390.096 346.787C390.096 346.787 391.737 354.707 381.9 355.254C369.389 355.95 361.617 343.953 361.617 343.953C361.617 343.953 347.343 345.422 343.401 347.078C339.46 348.734 328.309 353.399 326.673 368.225L322.853 392.429L353.012 394.727L352.595 426.949L365.41 437.431C365.41 437.431 402.208 450.103 404.558 450.934C405.669 451.327 405.397 435.69 408.027 422.292L412.994 410.232C415.005 405.412 416.193 400.289 416.51 395.076C416.703 391.645 416.609 389.05 416.609 389.05C416.609 389.05 424.345 386.39 426.977 380.102Z" fill="#455A64"/>
<path d="M403.214 438.279L352.653 423.102L353.011 394.727L327.262 392.765C327.262 392.765 329.317 407.469 329.618 415.007C330.051 425.85 335.267 441.004 338.755 444.221C342.244 447.438 404.557 450.934 404.557 450.934L403.214 438.279Z" fill="#FFBF9D"/>
<path d="M431.889 447.202C431.689 447.544 431.392 447.818 431.036 447.991C430.679 448.163 430.28 448.225 429.888 448.169C429.72 448.141 429.555 448.094 429.398 448.03C428.288 447.577 428.574 445.269 428.574 445.269L423.193 443.957C423.193 443.957 415.751 447.979 412.995 450.813C410.239 453.647 403.997 450.695 403.997 450.695L402.667 438.905L413.401 430.61C413.401 430.61 412.743 431.103 413.566 429.46C414.389 427.816 417.492 428.702 417.492 428.702C418.048 427.901 420.13 427.76 420.13 427.76L428.851 429.455C429.738 429.628 430.575 429.997 431.301 430.535C432.027 431.074 432.623 431.768 433.045 432.567L436.31 438.746C436.31 438.746 437.947 443.139 437.554 444.1C437.384 444.501 437.071 444.825 436.676 445.009C436.281 445.194 435.831 445.225 435.414 445.098C435.414 445.098 434.766 447.852 434.026 447.893C433.277 447.798 432.552 447.564 431.889 447.202Z" fill="#FFBF9D"/>
<path d="M413.808 437.408C413.81 437.501 414.989 437.484 416.862 437.711C419.297 438.016 421.678 438.655 423.939 439.611C425.179 440.138 426.376 440.763 427.519 441.48C428.536 442.161 429.607 442.739 429.887 443.54C429.95 443.714 429.967 443.901 429.936 444.084C429.905 444.266 429.827 444.438 429.71 444.581C429.53 444.818 429.284 444.995 429.002 445.091C428.747 445.153 428.483 445.171 428.222 445.145C428.199 445.156 428.476 445.408 429.058 445.303C429.404 445.23 429.718 445.047 429.953 444.782C430.119 444.602 430.235 444.382 430.29 444.143C430.345 443.904 430.337 443.656 430.267 443.421C430.074 442.89 429.726 442.43 429.268 442.099C428.813 441.748 428.336 441.389 427.799 441.044C424.54 438.901 420.79 437.618 416.901 437.315C415.871 437.188 414.828 437.219 413.808 437.408Z" fill="#FF9A6C"/>
<path d="M412.758 442.971C412.755 443.139 416.347 443.267 420.726 443.865C425.109 444.448 428.607 445.276 428.648 445.114C427.936 444.769 427.179 444.522 426.401 444.38C422.708 443.458 418.925 442.948 415.12 442.859C414.331 442.79 413.536 442.828 412.758 442.971Z" fill="#FF9A6C"/>
<path d="M431.857 446.975C431.954 446.673 432.016 446.361 432.04 446.046C432.162 445.192 432.231 444.332 432.245 443.469C432.259 442.866 432.223 442.263 432.138 441.666C432.03 440.964 431.787 440.29 431.422 439.682C430.66 438.282 429.628 437.048 428.386 436.05C427.162 435.043 425.8 434.217 424.342 433.597C423.132 433.148 421.87 432.854 420.586 432.724C419.501 432.601 418.623 432.557 418.016 432.533C417.701 432.492 417.381 432.5 417.068 432.556C418.21 432.814 419.366 433.001 420.531 433.118C421.77 433.3 422.984 433.622 424.15 434.078C425.545 434.706 426.85 435.516 428.032 436.487C429.221 437.443 430.219 438.615 430.973 439.941C431.585 441.016 431.887 442.238 431.847 443.474C431.894 445.62 431.735 446.969 431.857 446.975Z" fill="#FF9A6C"/>
<path d="M420.382 430.028C420.375 430.112 421.69 430.249 423.773 430.653C425.774 431.121 429.002 431.52 430.631 434.453C432.261 436.678 433.575 439.116 434.538 441.7C434.837 442.798 435.031 443.923 435.116 445.058C435.217 444.76 435.259 444.444 435.24 444.129C435.257 443.272 435.15 442.417 434.921 441.591C434.054 438.917 432.763 436.4 431.097 434.137C430.652 433.452 430.122 432.826 429.52 432.275C428.931 431.778 428.254 431.394 427.525 431.143C426.33 430.726 425.096 430.431 423.841 430.261C422.703 430.034 421.541 429.956 420.382 430.028Z" fill="#FF9A6C"/>
<path d="M415.065 449.087C415.262 448.987 415.447 448.866 415.619 448.728C416.019 448.454 416.538 448.1 417.184 447.659C419.145 446.365 421.179 445.184 423.275 444.123L423.149 444.138C424.753 444.54 426.562 444.994 428.521 445.486L428.352 445.242C428.302 445.687 428.302 446.136 428.351 446.581C428.384 447.075 428.563 447.548 428.867 447.939C429.056 448.135 429.298 448.27 429.564 448.327C429.809 448.413 430.069 448.448 430.327 448.431C430.86 448.392 431.362 448.163 431.741 447.786C431.837 447.692 431.924 447.591 432.003 447.482L432.059 447.399L432.087 447.357L432.101 447.336L432.102 447.333C432.175 447.311 431.477 447.507 431.774 447.425L431.78 447.428L431.791 447.434L431.958 447.517C432.18 447.626 432.408 447.727 432.642 447.821C432.88 447.918 433.125 447.999 433.374 448.065C433.506 448.1 433.64 448.125 433.775 448.14C433.948 448.17 434.126 448.149 434.287 448.082C434.544 447.915 434.748 447.68 434.877 447.403C435.003 447.167 435.112 446.924 435.206 446.675C435.392 446.179 435.549 445.674 435.675 445.159L435.34 445.355C435.703 445.465 436.089 445.473 436.456 445.379C436.824 445.284 437.158 445.091 437.423 444.82C437.698 444.529 437.861 444.151 437.883 443.752C437.885 443.393 437.848 443.034 437.771 442.683C437.469 441.311 437.068 439.963 436.572 438.648L436.567 438.632L436.558 438.615C436.003 437.564 435.413 436.448 434.817 435.319C434.446 434.617 434.078 433.921 433.713 433.23C433.379 432.508 432.966 431.825 432.482 431.194C431.964 430.583 431.326 430.085 430.609 429.729C429.909 429.406 429.164 429.19 428.4 429.089C425.51 428.536 422.754 428.008 420.178 427.514L420.143 427.507L420.113 427.51C419.611 427.552 419.113 427.642 418.629 427.781C418.112 427.894 417.645 428.169 417.297 428.567L417.609 428.495C417.176 428.255 416.692 428.125 416.197 428.114C415.703 428.103 415.213 428.213 414.771 428.434C413.995 428.914 413.433 429.672 413.2 430.554L413.275 430.444C410.194 432.812 407.679 434.744 405.88 436.126C405.05 436.78 404.385 437.304 403.885 437.697C403.644 437.871 403.419 438.065 403.213 438.279C403.475 438.14 403.725 437.977 403.958 437.794C404.476 437.421 405.163 436.927 406.02 436.311C407.846 434.965 410.398 433.083 413.526 430.777L413.577 430.74L413.602 430.667C413.815 429.902 414.309 429.245 414.984 428.828C415.36 428.65 415.774 428.564 416.189 428.578C416.605 428.592 417.012 428.706 417.375 428.909L417.561 429.005L417.688 428.838C417.98 428.539 418.355 428.334 418.765 428.25C419.217 428.126 419.68 428.045 420.147 428.01L420.082 428.005C422.656 428.513 425.409 429.056 428.296 429.626C429.011 429.72 429.708 429.922 430.363 430.225C431.011 430.549 431.587 431.001 432.055 431.555C432.512 432.156 432.901 432.806 433.216 433.492C433.581 434.183 433.949 434.88 434.32 435.581C434.917 436.71 435.507 437.826 436.062 438.876L436.048 438.844C436.534 440.129 436.929 441.446 437.231 442.787C437.299 443.096 437.335 443.413 437.336 443.73C437.32 444.002 437.208 444.26 437.019 444.457C436.822 444.652 436.576 444.792 436.307 444.859C436.038 444.927 435.756 444.921 435.49 444.841L435.219 444.775L435.154 445.037C435.036 445.528 434.889 446.013 434.713 446.487C434.591 446.914 434.364 447.303 434.052 447.62C433.979 447.639 433.903 447.641 433.829 447.627C433.717 447.615 433.607 447.595 433.498 447.567C433.271 447.508 433.047 447.435 432.828 447.348C432.608 447.261 432.389 447.166 432.177 447.064L432.02 446.987L432.011 446.982L432.006 446.98C432.301 446.897 431.602 447.092 431.673 447.073L431.672 447.075L431.661 447.091L431.639 447.125L431.596 447.191C431.534 447.277 431.466 447.358 431.391 447.432C431.098 447.729 430.709 447.911 430.294 447.946C430.092 447.961 429.889 447.934 429.698 447.866C429.516 447.835 429.347 447.749 429.216 447.618C428.806 446.919 428.657 446.096 428.796 445.296L428.811 445.095L428.627 445.052C426.661 444.587 424.846 444.157 423.237 443.777L423.168 443.76L423.11 443.791C421.016 444.888 418.997 446.124 417.069 447.492C416.397 447.977 415.89 448.369 415.556 448.645C415.377 448.775 415.213 448.923 415.065 449.087Z" fill="#FF9A6C"/>
<path d="M441.345 456.404C441.345 456.404 477.022 445.194 488.229 441.561C507.523 435.307 520.154 441.629 524.138 448.532C529.307 457.49 516.912 474.954 512.138 478.968C497.99 490.863 473.741 492.466 473.741 492.466L386.546 492.302L412.005 457.785L441.345 456.404Z" fill="#263238"/>
<path d="M436.008 472.588C450.538 474.276 465.258 472.274 478.808 466.765C481.126 465.715 483.515 464.827 485.956 464.108C488.36 463.499 490.853 463.323 493.319 463.588C494.299 463.612 495.264 463.833 496.158 464.237C497.051 464.641 497.854 465.221 498.519 465.942C500.257 468.236 499.363 471.495 498.397 474.207C497.265 477.385 496.087 480.645 493.873 483.191C491.284 486.168 487.53 487.87 483.767 489.056C476.405 491.376 468.629 492.041 460.916 492.347L434.417 490.897L436.008 472.588Z" fill="#E0E0E0"/>
<path d="M487.172 464.12C487.141 464.105 486.985 464.352 486.766 464.831C486.465 465.512 486.23 466.221 486.065 466.948C485.5 469.37 485.604 471.899 486.365 474.267C487.126 476.634 488.516 478.75 490.387 480.388C490.944 480.883 491.549 481.322 492.191 481.7C492.414 481.861 492.667 481.977 492.936 482.041C492.988 481.958 491.977 481.381 490.655 480.098C488.923 478.441 487.631 476.378 486.897 474.096C486.163 471.813 486.01 469.384 486.452 467.028C486.779 465.215 487.264 464.157 487.172 464.12Z" fill="#263238"/>
<path d="M350.289 454.218C352.36 448.35 352.706 439.72 365.477 435.578C378.248 431.436 387.913 439.375 394.472 442.136C401.03 444.898 436.928 464.573 436.928 464.573C436.928 464.573 443.687 476.627 441.763 481.947C439.838 487.267 431.095 492.532 431.095 492.532H390.96C380.605 492.532 361.335 492.187 361.335 492.187C358.764 487.962 356.458 483.581 354.432 479.07L354.086 477.344C354.086 475.964 348.218 460.086 350.289 454.218Z" fill="#263238"/>
<path d="M372.526 484.707C372.574 484.912 372.676 485.101 372.821 485.254C373.21 485.704 373.654 486.104 374.143 486.444C375.929 487.682 377.829 488.746 379.818 489.623C381.18 490.257 382.579 490.808 384.008 491.27C385.66 491.778 387.352 492.143 389.066 492.362C392.983 492.755 396.921 492.909 400.857 492.824C409.207 492.959 416.771 493.272 422.255 493.211C424.997 493.191 427.217 493.08 428.744 492.921C429.332 492.868 429.916 492.786 430.495 492.674C430.701 492.651 430.902 492.603 431.096 492.532C431.086 492.474 430.252 492.624 428.726 492.704C427.202 492.795 424.99 492.846 422.255 492.816C416.785 492.775 409.229 492.4 400.865 492.265C396.949 492.35 393.032 492.212 389.133 491.852C387.444 491.649 385.775 491.306 384.144 490.827C382.726 490.387 381.336 489.864 379.979 489.262C377.995 488.425 376.084 487.422 374.268 486.266C373.778 485.952 373.322 485.588 372.907 485.18C372.623 484.899 372.561 484.692 372.526 484.707Z" fill="#263238"/>
<path d="M431.096 492.532C431.277 492.447 431.455 492.353 431.627 492.25C431.971 492.052 432.474 491.742 433.121 491.319C435.007 490.088 436.774 488.683 438.398 487.123C439.58 485.995 440.586 484.697 441.384 483.272C442.207 481.486 442.414 479.478 441.972 477.563C441.004 472.984 439.369 468.573 437.121 464.469L437.092 464.414L437.033 464.381C430.463 460.766 422.921 456.65 414.68 452.226C410.557 450.018 406.261 447.73 401.803 445.428C399.568 444.284 397.315 443.111 394.947 442.046C392.591 441.045 390.337 439.736 387.982 438.537C384.726 436.753 381.233 435.44 377.608 434.637C375.831 434.278 374.02 434.112 372.207 434.142C370.431 434.201 368.668 434.455 366.948 434.899C363.615 435.715 360.485 437.21 357.754 439.289C356.482 440.339 355.358 441.556 354.413 442.908C353.536 444.237 352.812 445.661 352.256 447.153C351.694 448.609 351.285 450.081 350.877 451.511C350.407 452.904 350.024 454.324 349.728 455.764C349.551 458.519 349.781 461.284 350.413 463.971C350.931 466.529 351.564 468.917 352.195 471.147C352.519 472.258 352.833 473.333 353.136 474.372C353.45 475.349 353.713 476.341 353.925 477.344L353.928 477.376C354.061 478.029 354.172 478.571 354.28 479.1L354.282 479.109L354.284 479.114C355.374 482.636 356.924 485.998 358.894 489.115C359.59 490.227 360.409 491.258 361.336 492.187C361.293 492.113 361.243 492.044 361.185 491.98C361.064 491.832 360.909 491.643 360.711 491.401C360.109 490.64 359.549 489.847 359.033 489.026C357.132 485.895 355.636 482.535 354.581 479.027L354.584 479.04C353.93 478.494 354.058 477.958 354.246 477.313L354.249 477.344C354.051 476.307 353.791 475.281 353.473 474.274C353.178 473.235 352.873 472.158 352.557 471.045C351.943 468.817 351.327 466.433 350.826 463.889C350.22 461.246 350.004 458.529 350.186 455.823C350.485 454.408 350.87 453.012 351.337 451.643C351.752 450.213 352.161 448.757 352.718 447.33C353.265 445.876 353.975 444.489 354.834 443.195C355.755 441.888 356.847 440.71 358.083 439.695C360.759 437.671 363.822 436.217 367.082 435.424C368.763 434.994 370.486 434.748 372.22 434.692C373.992 434.665 375.762 434.829 377.5 435.182C381.073 435.977 384.517 437.274 387.727 439.035C390.066 440.225 392.334 441.542 394.725 442.557C397.058 443.604 399.322 444.779 401.551 445.918C406.007 448.212 410.305 450.492 414.431 452.69C422.659 457.127 430.22 461.203 436.824 464.764L436.737 464.677C438.984 468.732 440.631 473.092 441.627 477.62C442.072 479.464 441.893 481.404 441.117 483.135C440.346 484.542 439.371 485.827 438.224 486.948C436.626 488.518 434.895 489.945 433.049 491.213L431.593 492.194C431.261 492.412 431.096 492.532 431.096 492.532Z" fill="#263238"/>
<path d="M365.772 477.644C365.772 477.644 353.817 479.069 354.88 484.924C355.942 490.779 359.849 492.744 359.849 492.744L392.348 492.813C392.348 492.813 372.942 491.461 365.772 477.644Z" fill="#E0E0E0"/>
<path d="M364.613 474.8C364.619 475.373 364.743 475.938 364.977 476.46C365.426 477.764 366.08 478.987 366.916 480.084C368.052 481.686 369.646 482.907 371.488 483.587C369.98 482.455 368.595 481.167 367.359 479.743C366.308 478.174 365.39 476.521 364.613 474.8Z" fill="#263238"/>
<path d="M368.764 477.098C368.753 478.566 369.153 480.008 369.919 481.261C370.502 482.6 371.396 483.781 372.526 484.707C372.653 484.601 371.475 483.09 370.417 481.007C369.325 478.937 368.918 477.074 368.764 477.098Z" fill="#263238"/>
<path d="M353.509 491.111C353.598 491.065 352.829 489.582 351.891 487.071C349.436 480.506 348.628 473.439 349.539 466.49C349.886 463.831 350.3 462.214 350.203 462.189C350.032 462.543 349.906 462.917 349.827 463.303C349.541 464.332 349.314 465.377 349.148 466.432C348.007 473.446 348.829 480.639 351.523 487.215C351.923 488.205 352.379 489.172 352.891 490.11C353.055 490.468 353.262 490.804 353.509 491.111Z" fill="#455A64"/>
<g opacity="0.3">
<path opacity="0.3" d="M360.273 474.489C360.358 473.702 360.669 472.769 361.445 472.611C362.391 472.418 363.041 473.506 363.424 474.393C367.545 483.924 381.101 491.348 391.441 492.307C386.413 492.296 381.394 491.886 376.43 491.082C372.199 490.443 368.233 488.629 364.982 485.846C363.376 484.443 362.115 482.689 361.299 480.719C360.482 478.749 360.131 476.617 360.273 474.489Z" fill="black"/>
</g>
<path d="M439.455 461.521C441.434 460.966 443.359 460.234 445.207 459.333C447.127 458.602 448.977 457.699 450.734 456.634C448.754 457.188 446.829 457.92 444.981 458.822C443.061 459.552 441.211 460.456 439.455 461.521Z" fill="#263238"/>
<g opacity="0.2">
<path opacity="0.2" d="M427.864 456.498C443.339 453.538 458.871 450.908 474.462 448.607L486.074 452.279C482.82 458.331 476.388 462.184 469.705 463.783C463.022 465.382 456.036 464.996 449.193 464.366C441.657 463.672 433.919 462.619 427.361 458.841C426.86 458.552 426.3 458.122 426.361 457.546C426.43 456.892 427.219 456.621 427.864 456.498Z" fill="black"/>
</g>
<path d="M504.065 410.394L484.566 453.53C484.171 454.405 483.534 455.149 482.731 455.675C481.928 456.201 480.991 456.486 480.031 456.499L423.159 457.236L415.989 453.377L427.217 452.556L444.693 410.613C444.965 409.959 445.424 409.399 446.013 409.004C446.601 408.608 447.292 408.395 448.001 408.389L502.492 407.977C502.779 407.975 503.062 408.045 503.315 408.181C503.568 408.317 503.783 408.514 503.94 408.755C504.096 408.996 504.19 409.272 504.212 409.559C504.234 409.845 504.183 410.132 504.065 410.394Z" fill="#E0E0E0"/>
<path d="M504.065 410.394C504.159 410.235 504.217 410.058 504.236 409.874C504.266 409.636 504.247 409.394 504.18 409.164C504.113 408.933 503.999 408.719 503.845 408.535C503.692 408.35 503.502 408.199 503.287 408.091C503.073 407.984 502.839 407.921 502.599 407.908C502.161 407.905 501.684 407.901 501.169 407.897C500.133 407.897 498.945 407.897 497.606 407.896C492.211 407.914 484.434 407.94 474.783 407.971C469.944 407.996 464.637 408.023 458.925 408.053C456.068 408.069 453.113 408.086 450.059 408.103C449.29 408.111 448.516 408.119 447.735 408.127C446.891 408.191 446.09 408.528 445.454 409.087C444.848 409.664 444.399 410.386 444.149 411.186C443.842 411.921 443.533 412.66 443.221 413.405C438.242 425.328 432.743 438.499 426.924 452.434L427.194 452.239C423.739 452.492 420.065 452.76 416.35 453.031C416.219 453.041 416.087 453.051 415.966 453.06L414.875 453.139L415.838 453.658C418.301 454.983 420.73 456.29 423.008 457.516L423.081 457.555L423.163 457.554C438.544 457.343 453.104 457.144 466.297 456.964C469.594 456.916 472.803 456.87 475.924 456.825C477.493 456.789 478.993 456.808 480.552 456.729C481.331 456.64 482.081 456.38 482.748 455.968C483.415 455.556 483.982 455.002 484.41 454.345C486.949 449.004 489.069 444.062 491.127 439.544C495.156 430.529 498.407 423.257 500.662 418.21C501.763 415.715 502.62 413.771 503.215 412.424C503.492 411.78 503.707 411.28 503.863 410.916C504.006 410.575 504.065 410.394 504.065 410.394C504.065 410.394 503.968 410.558 503.806 410.89C503.637 411.248 503.403 411.74 503.103 412.373C502.484 413.71 501.591 415.638 500.446 418.113C498.148 423.139 494.836 430.384 490.73 439.365C488.664 443.841 486.466 448.871 483.981 454.065C483.593 454.656 483.079 455.154 482.476 455.524C481.873 455.893 481.196 456.125 480.494 456.203C479.037 456.27 477.463 456.251 475.917 456.28C472.799 456.316 469.59 456.353 466.29 456.391C453.097 456.552 438.536 456.73 423.155 456.919L423.309 456.957C421.031 455.73 418.603 454.423 416.14 453.097L416.012 453.695C416.133 453.686 416.265 453.676 416.397 453.667C420.111 453.395 423.785 453.125 427.24 452.872L427.435 452.858L427.51 452.677C433.307 438.734 438.786 425.555 443.746 413.624C444.056 412.879 444.363 412.138 444.669 411.402C444.883 410.68 445.28 410.026 445.821 409.503C446.366 409.022 447.052 408.731 447.776 408.674C448.544 408.664 449.307 408.654 450.063 408.644C453.114 408.615 456.069 408.587 458.929 408.561C464.641 408.503 469.948 408.45 474.786 408.402C484.437 408.287 492.213 408.195 497.607 408.131C498.945 408.111 500.132 408.092 501.17 408.077C501.682 408.07 502.156 408.064 502.591 408.058C502.972 408.072 503.337 408.218 503.621 408.472C503.814 408.647 503.965 408.863 504.061 409.105C504.157 409.347 504.196 409.608 504.175 409.867C504.15 410.045 504.113 410.221 504.065 410.394Z" fill="#263238"/>
<path d="M428.889 457.162C428.997 457.018 429.085 456.86 429.15 456.691C429.326 456.314 429.54 455.855 429.8 455.298C430.374 454 431.146 452.253 432.084 450.131C433.986 445.756 436.568 439.693 439.348 432.966C442.129 426.237 444.577 420.117 446.279 415.659C447.126 413.428 447.803 411.62 448.238 410.358C448.436 409.777 448.599 409.297 448.732 408.903C448.802 408.737 448.848 408.562 448.869 408.383C448.767 408.531 448.685 408.693 448.627 408.864C448.467 409.247 448.271 409.715 448.035 410.281C447.501 411.597 446.783 413.365 445.911 415.514C444.069 419.999 441.581 426.057 438.831 432.753C436.069 439.442 433.57 445.495 431.72 449.977C430.849 452.128 430.133 453.897 429.6 455.213C429.379 455.786 429.196 456.259 429.047 456.647C428.971 456.811 428.918 456.984 428.889 457.162Z" fill="#263238"/>
<path d="M464.173 431.307C464.173 431.858 464.336 432.397 464.643 432.856C464.949 433.315 465.385 433.672 465.894 433.883C466.404 434.094 466.964 434.15 467.505 434.042C468.046 433.934 468.543 433.669 468.933 433.279C469.323 432.889 469.589 432.392 469.696 431.851C469.804 431.31 469.749 430.749 469.538 430.24C469.327 429.73 468.969 429.295 468.511 428.988C468.052 428.682 467.513 428.518 466.961 428.518C466.222 428.518 465.512 428.812 464.989 429.335C464.467 429.858 464.173 430.567 464.173 431.307Z" fill="white"/>
<path d="M408.8 361.922C408.713 361.97 409.532 363.505 410.682 366.06C413.694 372.715 415.668 379.792 416.536 387.046C416.875 389.827 416.968 391.563 417.067 391.56C417.14 391.156 417.16 390.744 417.127 390.335C417.132 389.546 417.08 388.406 416.965 387.001C416.326 379.655 414.328 372.492 411.072 365.876C410.443 364.614 409.898 363.612 409.485 362.939C409.302 362.572 409.071 362.23 408.8 361.922Z" fill="#263238"/>
<path d="M322.852 392.429C323.056 392.484 323.266 392.517 323.477 392.526C323.944 392.572 324.544 392.631 325.288 392.704C326.935 392.842 329.219 393.033 332.047 393.27C337.872 393.709 345.928 394.316 355.16 395.012L355.458 395.034L355.477 394.736C355.671 391.667 355.875 388.425 356.086 385.093C356.413 379.29 356.693 373.761 356.783 368.719C357.084 364.195 356.053 359.681 353.817 355.736C352.297 353.084 350.048 350.924 347.338 349.509C346.603 349.139 345.835 348.84 345.043 348.616C344.773 348.522 344.494 348.454 344.21 348.413C344.183 348.496 345.357 348.734 347.228 349.719C349.837 351.183 351.989 353.341 353.445 355.953C355.582 359.848 356.547 364.278 356.222 368.709C356.102 373.733 355.805 379.26 355.478 385.058C355.273 388.389 355.074 391.628 354.886 394.696L355.202 394.42C345.964 393.809 337.903 393.276 332.074 392.891C329.24 392.727 326.953 392.595 325.302 392.5C324.555 392.467 323.954 392.441 323.484 392.421C323.274 392.4 323.062 392.403 322.852 392.429Z" fill="#263238"/>
<path d="M379.552 412.14C379.906 412.067 380.246 411.941 380.563 411.768C380.954 411.609 381.331 411.42 381.693 411.203C382.186 410.94 382.663 410.647 383.121 410.326C384.328 409.505 385.444 408.559 386.45 407.501C388.927 404.897 390.73 401.727 391.701 398.266C392.095 396.861 392.338 395.418 392.426 393.961C392.468 393.403 392.476 392.843 392.449 392.285C392.451 391.863 392.421 391.442 392.358 391.025C392.345 390.665 392.278 390.308 392.16 389.967C392.04 389.977 392.237 391.499 391.997 393.926C391.851 395.343 391.571 396.744 391.162 398.109C390.156 401.46 388.405 404.54 386.04 407.119C385.076 408.168 384.015 409.124 382.871 409.975C380.909 411.422 379.5 412.031 379.552 412.14Z" fill="#263238"/>
</g>
<defs>
<clipPath id="clip0_903_4789">
<rect width="569" height="494" fill="white" transform="matrix(-1 0 0 1 569 0)"/>
</clipPath>
</defs>




<style>
.el1 {
    animation: an1 5s infinite;
}

.el2 {
    animation: an1 5s infinite;
    animation-delay:0.5s;
}

.el3 {
    animation: an1 4s infinite;
    animation-delay:0.7s;
}

@keyframes an1 {
    0% {
       transform: translateY(0);
    }
    50% {
      transform: translateY(15px);
    }
    100% {
       transform: translateY(0);
    }
}
</style>


</svg>
