<svg width="500" height="500" viewBox="0 0 500 500" fill="none" xmlns="http://www.w3.org/2000/svg">
<path d="M77.66 242.73C-17.52 297.73 -17.51 386.73 77.66 441.73C172.83 496.73 327.15 496.68 422.33 441.73C517.51 386.78 517.5 297.73 422.33 242.73C327.16 187.73 172.84 187.78 77.66 242.73Z" fill="#FAFAFA"/>

<g class="el5">
<path d="M429.61 288.24L419.11 282.17C419.11 282.17 412.86 256.17 415.35 232.83C418.85 199.97 440.48 187.61 448.7 190.44C456.92 193.27 459.31 202.84 445.7 222.44C437.67 234 427.81 258 429.61 288.24Z" fill="#81184E"/>
<g opacity="0.65">
<path d="M429.61 288.24L419.11 282.17C419.11 282.17 412.86 256.17 415.35 232.83C418.85 199.97 440.48 187.61 448.7 190.44C456.92 193.27 459.31 202.84 445.7 222.44C437.67 234 427.81 258 429.61 288.24Z" fill="white"/>
</g>
<path d="M425.26 275.48H425.36C425.549 275.444 425.717 275.334 425.825 275.175C425.934 275.015 425.975 274.82 425.94 274.63C420.18 244.32 430.77 210.27 443.88 196.1C444.005 195.964 444.074 195.785 444.074 195.6C444.074 195.415 444.005 195.237 443.88 195.1C443.745 194.973 443.566 194.902 443.38 194.902C443.194 194.902 443.015 194.973 442.88 195.1C429.53 209.53 418.73 244.1 424.58 274.89C424.609 275.051 424.693 275.197 424.816 275.304C424.94 275.412 425.096 275.474 425.26 275.48Z" fill="white"/>
<path d="M456 303.5C457.57 304.3 461.74 300.73 462.9 299.86C464.895 298.353 466.466 296.355 467.46 294.06C468.577 291.46 468.856 288.576 468.26 285.81C467.944 284.349 467.526 282.912 467.01 281.51C466.53 280.12 466.01 278.73 465.58 277.34C465.016 276.001 464.731 274.562 464.74 273.11C464.97 270.2 467.43 268.05 469.68 266.18C472.16 264.12 474.68 261.43 474.53 257.95C474.38 255.27 472.86 252.85 471.09 250.82C469.32 248.79 467.25 247.04 465.64 244.89C464.386 243.397 463.68 241.52 463.64 239.57C463.738 238.368 464.078 237.197 464.64 236.13C465.75 233.8 467.27 231.64 468 229.13C468.73 226.62 468.45 223.63 466.46 221.98C464.83 220.63 462.46 220.55 460.4 220.79C458.435 221.137 456.566 221.901 454.92 223.03C449.55 226.38 446.73 233.09 440.99 235.75C438.77 236.75 436.3 237.1 433.99 237.84C431.68 238.58 429.32 239.91 428.34 242.14C426.4 246.55 430.66 251.65 429.34 256.29C428.2 260.39 424.34 262.14 422.34 265.89C421.517 267.541 421.247 269.414 421.57 271.23C421.919 274.309 422.828 277.297 424.25 280.05C425.852 282.873 427.625 285.594 429.56 288.2C429.56 288.2 455.8 303.38 456 303.5Z" fill="#81184E"/>
<g opacity="0.3">
<path d="M456 303.5C457.57 304.3 461.74 300.73 462.9 299.86C464.895 298.353 466.466 296.355 467.46 294.06C468.577 291.46 468.856 288.576 468.26 285.81C467.944 284.349 467.526 282.912 467.01 281.51C466.53 280.12 466.01 278.73 465.58 277.34C465.016 276.001 464.731 274.562 464.74 273.11C464.97 270.2 467.43 268.05 469.68 266.18C472.16 264.12 474.68 261.43 474.53 257.95C474.38 255.27 472.86 252.85 471.09 250.82C469.32 248.79 467.25 247.04 465.64 244.89C464.386 243.397 463.68 241.52 463.64 239.57C463.738 238.368 464.078 237.197 464.64 236.13C465.75 233.8 467.27 231.64 468 229.13C468.73 226.62 468.45 223.63 466.46 221.98C464.83 220.63 462.46 220.55 460.4 220.79C458.435 221.137 456.566 221.901 454.92 223.03C449.55 226.38 446.73 233.09 440.99 235.75C438.77 236.75 436.3 237.1 433.99 237.84C431.68 238.58 429.32 239.91 428.34 242.14C426.4 246.55 430.66 251.65 429.34 256.29C428.2 260.39 424.34 262.14 422.34 265.89C421.517 267.541 421.247 269.414 421.57 271.23C421.919 274.309 422.828 277.297 424.25 280.05C425.852 282.873 427.625 285.594 429.56 288.2C429.56 288.2 455.8 303.38 456 303.5Z" fill="white"/>
</g>
<path d="M440.84 295.58C440.931 295.572 441.019 295.547 441.1 295.505C441.181 295.463 441.253 295.406 441.311 295.336C441.37 295.267 441.414 295.186 441.441 295.099C441.468 295.012 441.478 294.921 441.47 294.83C438.96 267.57 450.3 236.77 459.22 227.53C459.289 227.466 459.344 227.389 459.382 227.303C459.42 227.217 459.439 227.124 459.439 227.03C459.439 226.936 459.42 226.843 459.382 226.757C459.344 226.671 459.289 226.594 459.22 226.53C459.156 226.462 459.078 226.408 458.992 226.371C458.906 226.335 458.814 226.316 458.72 226.316C458.626 226.316 458.534 226.335 458.448 226.371C458.362 226.408 458.284 226.462 458.22 226.53C449.12 235.95 437.54 267.27 440.09 294.91C440.092 295.004 440.114 295.097 440.154 295.182C440.193 295.268 440.25 295.344 440.32 295.407C440.39 295.47 440.473 295.518 440.562 295.547C440.652 295.577 440.746 295.588 440.84 295.58Z" fill="white"/>
<path d="M443.55 262C443.616 262.009 443.684 262.009 443.75 262C452.39 258.84 463.3 257.81 463.41 257.8C463.503 257.789 463.592 257.76 463.673 257.713C463.753 257.666 463.823 257.603 463.879 257.528C463.934 257.453 463.973 257.368 463.994 257.277C464.015 257.186 464.017 257.092 464 257C463.994 256.909 463.969 256.82 463.928 256.739C463.886 256.658 463.829 256.587 463.758 256.529C463.688 256.471 463.607 256.428 463.52 256.402C463.432 256.376 463.34 256.369 463.25 256.38C463.14 256.38 452.05 257.44 443.25 260.66C443.08 260.723 442.941 260.851 442.864 261.016C442.787 261.18 442.779 261.369 442.84 261.54C442.892 261.684 442.989 261.806 443.118 261.889C443.246 261.972 443.398 262.011 443.55 262Z" fill="white"/>
</g>

<path d="M191.06 450.91C193.175 450.943 195.262 450.43 197.12 449.42L201.69 446.79C202.633 446.403 203.44 445.744 204.007 444.897C204.575 444.051 204.878 443.054 204.878 442.035C204.878 441.016 204.575 440.019 204.007 439.173C203.44 438.326 202.633 437.667 201.69 437.28L143.27 403.71C148.64 397.71 151.02 391.05 150.18 384.19C149.12 375.45 142.72 367.28 132.18 361.19C120.75 354.6 105.6 351 89.51 351C73.42 351 58.28 354.64 46.86 361.23C35.14 368 28.68 377.06 28.68 386.83C28.68 396.6 35.14 405.69 46.86 412.46C58.28 419.06 73.43 422.69 89.5 422.69C104.99 422.69 119.64 419.31 130.9 413.16L184.25 449.05C186.295 450.309 188.659 450.954 191.06 450.91Z" fill="#E0E0E0"/>
<path d="M298.64 445C300.34 449.6 305.25 452.45 313.43 453.53L453.25 371.8L468.42 356.44C468.601 356.251 468.714 356.006 468.741 355.746C468.768 355.485 468.707 355.223 468.568 355C468.429 354.778 468.221 354.608 467.975 354.517C467.729 354.427 467.46 354.421 467.21 354.5L439.3 363.74L298.64 445Z" fill="#E0E0E0"/>
<path d="M253.31 433.22L118.66 355.57C113.35 352.5 113.35 347.52 118.66 344.45L312.94 232.07C318.26 229 326.88 229 332.19 232.07L466.83 309.72C472.15 312.79 472.15 317.72 466.83 320.84L272.56 433.22C267.24 436.29 258.62 436.29 253.31 433.22Z" fill="#E0E0E0"/>


<g class="el4">
<path d="M447.52 160.06L435.61 155.44C435.439 155.309 435.315 155.125 435.256 154.917C435.198 154.71 435.208 154.488 435.286 154.287C435.363 154.086 435.504 153.915 435.687 153.8C435.87 153.685 436.085 153.633 436.3 153.65L448.22 158.27C448.374 158.284 448.523 158.334 448.655 158.416C448.786 158.498 448.897 158.609 448.979 158.741C449.06 158.873 449.11 159.022 449.124 159.176C449.137 159.33 449.115 159.486 449.059 159.63C449.002 159.774 448.913 159.903 448.798 160.007C448.683 160.111 448.546 160.187 448.397 160.229C448.247 160.271 448.091 160.277 447.938 160.248C447.786 160.218 447.643 160.154 447.52 160.06Z" fill="#EBEBEB"/>
<path d="M438 167.05C436.184 166.344 434.722 164.946 433.936 163.162C433.15 161.379 433.105 159.357 433.81 157.54C433.911 157.322 434.086 157.148 434.305 157.049C434.523 156.95 434.77 156.932 435 157L446.91 161.62C447.029 161.663 447.138 161.73 447.231 161.816C447.324 161.903 447.398 162.007 447.449 162.123C447.501 162.239 447.528 162.364 447.53 162.49C447.532 162.617 447.508 162.743 447.46 162.86C446.752 164.663 445.361 166.113 443.59 166.898C441.82 167.682 439.811 167.737 438 167.05Z" fill="#EBEBEB"/>
<path d="M469.47 140.5C470.437 138.002 470.886 135.334 470.791 132.658C470.695 129.981 470.058 127.352 468.916 124.929C467.774 122.506 466.152 120.341 464.149 118.564C462.145 116.786 459.802 115.434 457.26 114.59C452.492 113.063 447.326 113.38 442.78 115.478C438.235 117.576 434.642 121.302 432.71 125.92C431.395 129.152 430.961 132.674 431.453 136.128C431.945 139.582 433.345 142.844 435.51 145.58C436.088 146.294 436.467 147.148 436.61 148.056C436.752 148.964 436.652 149.893 436.32 150.75C436.235 150.958 436.235 151.192 436.32 151.4C436.417 151.611 436.593 151.777 436.81 151.86L437.97 152.3L439.2 152.77C439.43 152.16 439.77 151.28 439.93 150.89C441.27 147.53 442.66 144.06 442.93 140.2C442.977 139.336 442.95 138.47 442.85 137.61C442.349 137.502 441.858 137.355 441.38 137.17C440.717 136.93 440.103 136.571 439.57 136.11C439.334 135.902 439.122 135.667 438.94 135.41C438.653 135.054 438.497 134.612 438.497 134.155C438.497 133.698 438.653 133.256 438.94 132.9C439.261 132.476 439.716 132.172 440.232 132.038C440.747 131.903 441.292 131.946 441.78 132.16C442.151 132.299 442.491 132.509 442.78 132.78C443.633 133.593 444.234 134.635 444.51 135.78C445.525 135.817 446.538 135.685 447.51 135.39C448.039 135.244 448.554 135.054 449.05 134.82C448.763 133.929 448.679 132.986 448.803 132.059C448.928 131.131 449.258 130.243 449.77 129.46C450.124 129.031 450.606 128.725 451.145 128.587C451.684 128.448 452.253 128.484 452.77 128.69C453.076 128.818 453.359 128.993 453.61 129.21C453.909 129.468 454.145 129.792 454.3 130.156C454.454 130.52 454.523 130.915 454.5 131.31C454.346 132.233 453.99 133.11 453.458 133.88C452.925 134.649 452.229 135.291 451.42 135.76C451.629 136.264 451.879 136.749 452.17 137.21C452.661 138.032 453.279 138.771 454 139.4L454.17 139.55C454.801 139.076 455.531 138.753 456.306 138.604C457.08 138.455 457.879 138.484 458.64 138.69C458.934 138.806 459.207 138.968 459.45 139.17C459.729 139.419 459.946 139.729 460.085 140.076C460.224 140.423 460.28 140.798 460.25 141.17C460.218 141.629 460.035 142.065 459.729 142.408C459.423 142.752 459.012 142.985 458.56 143.07C457.548 143.258 456.504 143.14 455.56 142.73C455.089 142.534 454.631 142.307 454.19 142.05C453.544 142.627 452.942 143.252 452.39 143.92C449.94 146.92 448.63 150.47 447.39 153.92C447.26 154.28 446.92 155.17 446.69 155.77L447.93 156.24L449.06 156.68C449.272 156.763 449.509 156.759 449.718 156.669C449.927 156.579 450.093 156.411 450.18 156.2C450.516 155.35 451.069 154.602 451.783 154.03C452.496 153.458 453.347 153.083 454.25 152.94C457.647 152.362 460.835 150.911 463.503 148.73C466.171 146.55 468.227 143.714 469.47 140.5ZM442.8 135.5C442.552 134.688 441.996 134.006 441.25 133.6C441.06 133.506 440.843 133.482 440.636 133.531C440.43 133.581 440.247 133.7 440.12 133.87C440.049 133.983 440.016 134.117 440.027 134.25C440.038 134.383 440.091 134.51 440.18 134.61C440.65 135.168 441.266 135.584 441.96 135.81L442.39 135.97L443.09 136.2L442.8 135.5ZM445.52 153.15C446.78 149.77 448.2 145.93 450.87 142.66C451.394 142.005 451.965 141.39 452.58 140.82C451.369 139.689 450.393 138.33 449.71 136.82C449.181 137.052 448.636 137.246 448.08 137.4C447.034 137.707 445.95 137.862 444.86 137.86C444.925 138.699 444.925 139.541 444.86 140.38C444.6 144.72 443.01 148.63 441.73 151.78C441.59 152.12 441.26 152.96 441.04 153.57L444.81 155.02L445.52 153.15ZM453 131.25C453.003 131.005 452.932 130.765 452.794 130.562C452.657 130.358 452.461 130.202 452.232 130.114C452.003 130.026 451.753 130.01 451.515 130.068C451.277 130.126 451.062 130.256 450.9 130.44C450.581 130.977 450.374 131.572 450.29 132.19C450.206 132.809 450.246 133.438 450.41 134.04L450.49 134.6L450.95 134.25C451.475 133.912 451.927 133.473 452.279 132.958C452.631 132.442 452.876 131.862 453 131.25ZM458.73 141.05C458.742 140.833 458.683 140.618 458.562 140.438C458.441 140.257 458.265 140.121 458.06 140.05C457.65 139.949 457.225 139.93 456.808 139.993C456.391 140.057 455.991 140.202 455.63 140.42L454.96 140.74L455.63 141.05L456.04 141.21C456.712 141.506 457.451 141.616 458.18 141.53C458.35 141.54 458.74 141.44 458.77 141.05H458.73Z" fill="#EBEBEB"/>
</g>

<g class="el1">
<path d="M399.19 49.68L404.47 63.84L406.18 63.18L404.51 58.71C403.61 56.31 405.51 53.38 408.72 52.18L416.72 49.18L427 76.6C427.254 77.2693 427.373 77.9825 427.349 78.698C427.325 79.4135 427.16 80.1173 426.862 80.7684C426.564 81.4195 426.14 82.005 425.615 82.4911C425.089 82.9772 424.472 83.3541 423.8 83.6L418.8 85.47L419.37 87.01L446.63 76.83L446 75.25L441 77.12C439.658 77.6343 438.167 77.5945 436.854 77.0094C435.541 76.4243 434.515 75.3418 434 74L423.76 46.56L431.76 43.56C434.98 42.35 438.32 43.33 439.22 45.73L440.89 50.2L442.61 49.58L437.32 35.42L399.19 49.68Z" fill="#EBEBEB"/>
</g>
<path class="el2" d="M126.13 36.56L122.67 35.37C122.454 35.2716 122.267 35.1183 122.128 34.9253C121.99 34.7323 121.904 34.5064 121.88 34.27C121.83 33.5956 121.723 32.9265 121.56 32.27C121.557 31.9718 121.63 31.6778 121.771 31.4154C121.913 31.153 122.119 30.9309 122.37 30.77L124.55 29.13C125.11 28.71 125.39 28.13 125.17 27.75L123 24.29C122.78 23.95 122.13 23.9 121.53 24.17L118.89 25.39C118.64 25.5222 118.362 25.5913 118.08 25.5913C117.798 25.5913 117.52 25.5222 117.27 25.39C116.716 24.9252 116.124 24.5071 115.5 24.14C115.303 23.9972 115.149 23.8036 115.054 23.5799C114.959 23.3562 114.926 23.1108 114.96 22.87L115.41 19.58C115.442 19.3461 115.391 19.1084 115.264 18.9089C115.138 18.7094 114.945 18.561 114.72 18.49L110.8 17.59C110.542 17.565 110.284 17.6301 110.069 17.7741C109.854 17.9181 109.695 18.1322 109.62 18.38L108.53 21.27C108.415 21.5365 108.233 21.7687 108.002 21.944C107.77 22.1192 107.498 22.2315 107.21 22.27C106.655 22.3209 106.104 22.4077 105.56 22.53C105.306 22.6031 105.038 22.614 104.778 22.5618C104.519 22.5096 104.276 22.3958 104.07 22.23L101.75 19.32C101.5 19 100.83 19.03 100.24 19.38L97.47 21.04C96.89 21.39 96.56 21.97 96.73 22.34L98.32 25.64C98.3694 25.9273 98.3478 26.2224 98.2572 26.4995C98.1665 26.7766 98.0096 27.0274 97.8 27.23C97.54 27.55 97.29 27.89 97.05 28.23C96.8981 28.4879 96.6839 28.7036 96.4271 28.8573C96.1703 29.011 95.8791 29.0979 95.58 29.11L92.08 28.69C91.8256 28.6766 91.5747 28.7536 91.3716 28.9073C91.1685 29.061 91.0263 29.2816 90.97 29.53L90.08 33.05C90.0082 33.2791 90.0212 33.5265 90.1166 33.7468C90.2121 33.9671 90.3837 34.1457 90.6 34.25L94 35.5C94.218 35.5932 94.4066 35.7438 94.5457 35.9358C94.6848 36.1277 94.7693 36.3538 94.79 36.59C94.8439 37.2641 94.9509 37.9328 95.11 38.59C95.1148 38.8899 95.0429 39.186 94.9012 39.4502C94.7594 39.7145 94.5525 39.9382 94.3 40.1L92.13 41.74C91.57 42.16 91.29 42.74 91.5 43.12L93.69 46.6C93.9 46.94 94.56 47 95.15 46.72L97.79 45.51C98.0387 45.3752 98.3171 45.3046 98.6 45.3046C98.8829 45.3046 99.1613 45.3752 99.41 45.51C99.9662 45.9726 100.558 46.3905 101.18 46.76C101.376 46.9059 101.529 47.1014 101.624 47.3265C101.719 47.5515 101.752 47.7979 101.72 48.04L101.27 51.32C101.238 51.5539 101.289 51.7917 101.416 51.9911C101.542 52.1906 101.735 52.339 101.96 52.41L105.89 53.31C106.145 53.337 106.402 53.2738 106.616 53.1314C106.83 52.9889 106.987 52.7762 107.06 52.53L108.15 49.63C108.267 49.3646 108.449 49.1334 108.68 48.9584C108.911 48.7834 109.183 48.6703 109.47 48.63C110.028 48.5817 110.582 48.4982 111.13 48.38C111.384 48.3026 111.653 48.2894 111.913 48.3418C112.173 48.3942 112.416 48.5104 112.62 48.68L115 51.51C115.25 51.82 115.93 51.79 116.51 51.44L119.28 49.79C119.87 49.44 120.2 48.86 120.02 48.49L118.43 45.18C118.386 44.8928 118.411 44.5994 118.501 44.3233C118.591 44.0471 118.745 43.796 118.95 43.59C119.22 43.272 119.47 42.938 119.7 42.59C119.856 42.333 120.073 42.1178 120.33 41.9628C120.588 41.8078 120.88 41.7176 121.18 41.7L124.68 42.12C124.933 42.133 125.183 42.0556 125.384 41.9018C125.586 41.748 125.726 41.5276 125.78 41.28L126.67 37.76C126.74 37.5285 126.724 37.2793 126.625 37.0587C126.526 36.838 126.35 36.6608 126.13 36.56ZM116.07 37.2C115.537 39.2235 114.233 40.9577 112.436 42.0307C110.64 43.1037 108.494 43.4301 106.46 42.94C105.461 42.7272 104.515 42.3157 103.678 41.7301C102.842 41.1444 102.131 40.3965 101.589 39.5308C101.047 38.6651 100.685 37.6993 100.523 36.6908C100.362 35.6822 100.405 34.6516 100.65 33.66C101.194 31.6435 102.501 29.9174 104.294 28.8463C106.087 27.7753 108.226 27.4431 110.26 27.92C111.258 28.1353 112.202 28.5484 113.037 29.1347C113.873 29.721 114.582 30.4688 115.124 31.3338C115.665 32.1988 116.028 33.1636 116.19 34.1711C116.353 35.1787 116.312 36.2086 116.07 37.2Z" fill="#F0F0F0"/>
<path class="el3" d="M85.9 51.21L79.9 50.66C79.5177 50.5936 79.1602 50.4259 78.8647 50.1744C78.5692 49.9229 78.3466 49.5968 78.22 49.23C77.8718 48.1983 77.4438 47.1953 76.94 46.23C76.8194 45.7574 76.8203 45.2621 76.9427 44.79C77.0651 44.3179 77.305 43.8844 77.64 43.53L80.45 40.08C81.17 39.19 81.38 38.08 80.91 37.64L76.13 33C75.66 32.54 74.6 32.71 73.76 33.38L70 36.3C69.6591 36.6132 69.2462 36.8373 68.7978 36.9524C68.3495 37.0676 67.8796 37.0702 67.43 36.96C66.3722 36.4342 65.2715 35.9993 64.14 35.66C63.7724 35.5084 63.4528 35.2601 63.2151 34.9414C62.9774 34.6227 62.8305 34.2455 62.79 33.85L62.22 28.46C62.1876 28.0803 62.0208 27.7245 61.7494 27.4569C61.4781 27.1892 61.1202 27.0272 60.74 27L54.16 27.1C53.7427 27.1616 53.3596 27.3654 53.0753 27.677C52.791 27.9886 52.6231 28.3889 52.6 28.81L52.01 33.81C51.944 34.2922 51.7521 34.7485 51.4537 35.133C51.1553 35.5174 50.7608 35.8165 50.31 36C49.4488 36.2862 48.6041 36.62 47.78 37C47.4061 37.217 46.9853 37.3403 46.5535 37.3595C46.1217 37.3786 45.6916 37.293 45.3 37.11L40.49 33.39C39.97 32.99 38.91 33.3 38.12 34.09L34.37 37.79C33.58 38.57 33.28 39.63 33.7 40.14L37.51 44.77C37.93 45.28 37.79 46.49 37.31 47.49C37.01 48.11 36.75 48.74 36.51 49.38C36.3668 49.8521 36.1094 50.2816 35.7605 50.6305C35.4116 50.9794 34.9821 51.2368 34.51 51.38L28.79 52.08C28.3843 52.1598 28.0196 52.3799 27.7599 52.7018C27.5003 53.0236 27.3622 53.4266 27.37 53.84V59.78C27.34 60.1706 27.4535 60.5587 27.6891 60.8716C27.9247 61.1846 28.2664 61.4009 28.65 61.48L34.65 62.03C35.0333 62.0967 35.392 62.2644 35.689 62.5157C35.986 62.7671 36.2107 63.093 36.34 63.46C36.6804 64.4931 37.1052 65.4965 37.61 66.46C37.7306 66.9326 37.7297 67.4279 37.6073 67.9C37.4849 68.3721 37.245 68.8056 36.91 69.16L34 72.61C33.28 73.5 33.07 74.61 33.55 75.05L38.37 79.73C38.84 80.19 39.9 80.02 40.74 79.35L44.46 76.35C44.8019 76.0493 45.2115 75.8358 45.6538 75.7278C46.0961 75.6199 46.558 75.6206 47 75.73C48.0605 76.2575 49.1646 76.6924 50.3 77.03C50.6651 77.1839 50.9821 77.4331 51.2178 77.7515C51.4536 78.0699 51.5994 78.4459 51.64 78.84L52.21 84.23C52.2435 84.6162 52.4161 84.9771 52.6956 85.2456C52.9752 85.5142 53.3428 85.6721 53.73 85.69L60.31 85.59C60.7273 85.5284 61.1104 85.3246 61.3947 85.013C61.679 84.7014 61.8469 84.3011 61.87 83.88L62.47 78.88C62.5416 78.4046 62.7361 77.9562 63.0343 77.5791C63.3324 77.202 63.7239 76.9093 64.17 76.73C65.0295 76.4481 65.8711 76.1142 66.69 75.73C67.0657 75.513 67.4881 75.3896 67.9216 75.3705C68.355 75.3513 68.7867 75.4369 69.18 75.62L74 79.28C74.52 79.68 75.58 79.37 76.38 78.58L80.12 74.88C80.91 74.1 81.21 73.04 80.79 72.53L77 67.9C76.58 67.39 76.72 66.18 77.2 65.18C77.4998 64.5645 77.7668 63.9336 78 63.29C78.1432 62.8179 78.4007 62.3884 78.7495 62.0395C79.0984 61.6906 79.5279 61.4332 80 61.29L85.72 60.59C86.1267 60.5104 86.4926 60.2907 86.7539 59.9691C87.0152 59.6475 87.1554 59.2444 87.15 58.83V52.9C87.1746 52.5161 87.0626 52.1359 86.8338 51.8266C86.6051 51.5173 86.2743 51.2989 85.9 51.21ZM70.18 56.15C70.1048 59.5621 68.7051 62.811 66.2769 65.2093C63.8488 67.6076 60.5827 68.9671 57.17 69C55.5029 69.0509 53.8425 68.7665 52.2873 68.1638C50.7321 67.561 49.3138 66.6522 48.1164 65.4911C46.9189 64.3301 45.9668 62.9404 45.3164 61.4046C44.666 59.8687 44.3306 58.2179 44.33 56.55C44.4025 53.1379 45.7998 49.8879 48.2261 47.4877C50.6524 45.0876 53.9173 43.7256 57.33 43.69C58.9988 43.6377 60.6611 43.9214 62.2181 44.5241C63.7751 45.1269 65.1951 46.0364 66.3938 47.1986C67.5924 48.3609 68.5452 49.7522 69.1957 51.2899C69.8461 52.8276 70.1808 54.4804 70.18 56.15Z" fill="#F0F0F0"/>
<path d="M66.56 128.52V357.28C65.4119 357.277 64.282 356.992 63.27 356.45H63.19L63.09 356.39L42.21 344.29V114.46L63.24 126.6L66.55 128.51L66.56 128.52Z" fill="#E0E0E0"/>
<path d="M188.41 30.02L42.18 114.45L66.55 128.52L212.79 44.09L188.41 30.02Z" fill="#EBEBEB"/>
<path d="M213.1 273.78L78.74 351.32L70.02 356.32C68.969 356.93 67.7752 357.251 66.56 357.25V128.52L69.34 126.91L69.93 126.56H69.99L78.71 121.56L212.79 44.09L213.1 273.78Z" fill="#FAFAFA"/>
<path d="M66.55 128.52H66.56L139.54 86.07L212.6 43.77L213.15 43.46V44.09L213.44 158.93L213.46 273.78V273.99L213.28 274.09L141.69 315.29L70.02 356.35L141.43 314.84L212.92 273.47L212.74 273.78L212.44 158.94L212.42 44.09L212.97 44.41L139.8 86.53L66.56 128.52H66.55Z" fill="#E0E0E0"/>
<path opacity="0.1" d="M58.03 236.94L60.2 124.85L122.81 85.78L57.26 123.15L58.03 236.94Z" fill="black"/>
<path opacity="0.1" d="M51.37 265.79L51.55 119.86L174.42 49.75L48.68 118.2L51.37 265.79Z" fill="black"/>
<path opacity="0.1" d="M199 47C199.28 47.54 199.42 47.8601 199.42 47.8601L159.36 71L191.12 41.8C195.15 42.54 197.63 44.38 199 47Z" fill="black"/>
<path d="M159.36 70.95L199.38 47.84L199.62 41.45L159.36 70.95Z" fill="#FAFAFA"/>
<path d="M125 129.38C125.046 129.346 125.102 129.328 125.16 129.328C125.218 129.328 125.274 129.346 125.32 129.38C125.367 129.422 125.403 129.475 125.426 129.534C125.449 129.593 125.457 129.657 125.45 129.72V132.07C125.448 132.245 125.404 132.416 125.32 132.57C125.252 132.717 125.14 132.839 125 132.92L122.08 134.61V146C122.078 146.175 122.034 146.346 121.95 146.5C121.879 146.642 121.772 146.763 121.64 146.85L119.46 148.11C119.416 148.145 119.361 148.164 119.305 148.164C119.249 148.164 119.194 148.145 119.15 148.11C119.101 148.069 119.062 148.017 119.037 147.958C119.013 147.898 119.004 147.834 119.01 147.77V136.37L116.09 138.06C116.046 138.095 115.991 138.114 115.935 138.114C115.879 138.114 115.824 138.095 115.78 138.06C115.732 138.018 115.696 137.965 115.673 137.906C115.65 137.847 115.642 137.783 115.65 137.72V135.38C115.649 135.205 115.694 135.032 115.78 134.88C115.848 134.734 115.955 134.609 116.09 134.52L125 129.38Z" fill="#81184E"/>
<path d="M136.31 122.84C136.354 122.805 136.409 122.786 136.465 122.786C136.521 122.786 136.576 122.805 136.62 122.84C136.669 122.881 136.708 122.933 136.733 122.992C136.757 123.052 136.766 123.116 136.76 123.18V137.47C136.755 137.646 136.707 137.817 136.62 137.97C136.552 138.116 136.445 138.241 136.31 138.33L134.13 139.58C134.085 139.612 134.03 139.629 133.975 139.629C133.92 139.629 133.865 139.612 133.82 139.58C133.772 139.536 133.735 139.481 133.713 139.421C133.69 139.36 133.682 139.294 133.69 139.23V133.81L130 136V141.42C129.998 141.595 129.954 141.766 129.87 141.92C129.802 142.066 129.695 142.191 129.56 142.28L127.38 143.53C127.335 143.562 127.28 143.579 127.225 143.579C127.17 143.579 127.115 143.562 127.07 143.53C127.019 143.486 126.979 143.43 126.955 143.368C126.931 143.305 126.922 143.237 126.93 143.17V128.85C126.935 128.674 126.983 128.503 127.07 128.35C127.141 128.208 127.248 128.087 127.38 128L129.56 126.74C129.604 126.705 129.659 126.686 129.715 126.686C129.771 126.686 129.826 126.705 129.87 126.74C129.918 126.782 129.954 126.835 129.977 126.894C130 126.953 130.008 127.017 130 127.08V132.41L133.69 130.29V125C133.691 124.828 133.735 124.659 133.82 124.51C133.888 124.364 133.995 124.239 134.13 124.15L136.31 122.84Z" fill="#81184E"/>
<path d="M147.39 128.39C147.435 128.358 147.49 128.341 147.545 128.341C147.6 128.341 147.655 128.358 147.7 128.39C147.749 128.433 147.787 128.488 147.811 128.548C147.836 128.609 147.846 128.675 147.84 128.74V131.08C147.836 131.256 147.788 131.428 147.7 131.58C147.635 131.729 147.527 131.854 147.39 131.94L139.53 136.48C139.484 136.514 139.428 136.533 139.37 136.533C139.312 136.533 139.256 136.514 139.21 136.48C139.162 136.438 139.126 136.385 139.103 136.326C139.08 136.267 139.072 136.203 139.08 136.14V121.84C139.082 121.665 139.126 121.494 139.21 121.34C139.284 121.194 139.394 121.07 139.53 120.98L147.26 116.52C147.304 116.485 147.359 116.466 147.415 116.466C147.471 116.466 147.526 116.485 147.57 116.52C147.618 116.562 147.654 116.615 147.677 116.674C147.7 116.733 147.708 116.797 147.7 116.86V119.21C147.699 119.382 147.655 119.551 147.57 119.7C147.502 119.846 147.395 119.971 147.26 120.06L142.15 123V125.39L146.89 122.65C146.936 122.616 146.992 122.598 147.05 122.598C147.108 122.598 147.164 122.616 147.21 122.65C147.258 122.692 147.294 122.745 147.317 122.804C147.34 122.863 147.348 122.927 147.34 122.99V125.33C147.341 125.505 147.296 125.678 147.21 125.83C147.139 125.977 147.028 126.102 146.89 126.19L142.15 128.93V131.41L147.39 128.39Z" fill="#81184E"/>
<path d="M154.06 112.37C154.657 112.008 155.32 111.767 156.01 111.66C156.525 111.579 157.053 111.635 157.54 111.82C157.95 111.989 158.299 112.278 158.54 112.65C158.785 113.029 158.92 113.469 158.93 113.92C158.925 114.06 158.888 114.197 158.82 114.32C158.77 114.436 158.687 114.533 158.58 114.6L156.4 115.86C156.292 115.938 156.163 115.98 156.03 115.98C155.927 115.977 155.827 115.946 155.74 115.89L155.58 115.76C155.491 115.69 155.389 115.639 155.28 115.61C155.115 115.58 154.945 115.58 154.78 115.61C154.523 115.673 154.277 115.775 154.05 115.91C153.838 116.034 153.635 116.171 153.44 116.32C153.256 116.461 153.085 116.618 152.93 116.79C152.781 116.958 152.656 117.147 152.56 117.35C152.469 117.548 152.421 117.762 152.42 117.98C152.412 118.064 152.422 118.148 152.449 118.228C152.477 118.307 152.522 118.38 152.58 118.44C152.737 118.54 152.927 118.576 153.11 118.54C153.45 118.512 153.786 118.445 154.11 118.34L155.63 117.88C156.147 117.707 156.685 117.606 157.23 117.58C157.627 117.554 158.021 117.652 158.36 117.86C158.69 118.083 158.931 118.416 159.04 118.8C159.209 119.34 159.287 119.904 159.27 120.47C159.267 121.229 159.139 121.983 158.89 122.7C158.625 123.456 158.265 124.175 157.82 124.84C157.352 125.534 156.805 126.172 156.19 126.74C155.566 127.319 154.878 127.826 154.14 128.25C153.51 128.643 152.811 128.911 152.08 129.04C151.545 129.137 150.994 129.095 150.48 128.92C150.063 128.743 149.713 128.439 149.48 128.05C149.213 127.621 149.074 127.125 149.08 126.62C149.085 126.48 149.122 126.343 149.19 126.22C149.24 126.105 149.323 126.007 149.43 125.94L151.6 124.68C151.711 124.607 151.838 124.563 151.97 124.55C152.063 124.547 152.155 124.575 152.23 124.63C152.301 124.682 152.367 124.739 152.43 124.8C152.535 124.891 152.657 124.959 152.79 125C152.974 125.047 153.166 125.047 153.35 125C153.648 124.944 153.933 124.832 154.19 124.67C154.728 124.372 155.223 124.002 155.66 123.57C155.837 123.41 155.981 123.216 156.082 123C156.184 122.783 156.241 122.549 156.25 122.31C156.262 122.224 156.247 122.137 156.208 122.06C156.169 121.983 156.106 121.92 156.03 121.88C155.82 121.825 155.6 121.825 155.39 121.88C155.013 121.941 154.642 122.031 154.28 122.15C153.83 122.29 153.28 122.45 152.7 122.62C152.302 122.804 151.864 122.884 151.427 122.853C150.99 122.821 150.567 122.679 150.2 122.44C149.897 122.086 149.67 121.673 149.534 121.228C149.398 120.782 149.356 120.313 149.41 119.85C149.418 119.17 149.529 118.496 149.74 117.85C149.966 117.125 150.278 116.43 150.67 115.78C151.093 115.092 151.593 114.455 152.16 113.88C152.722 113.293 153.361 112.785 154.06 112.37Z" fill="#81184E"/>
<path d="M161.38 123.85C161.334 123.884 161.278 123.903 161.22 123.903C161.162 123.903 161.106 123.884 161.06 123.85C161.013 123.808 160.977 123.755 160.954 123.696C160.931 123.637 160.923 123.573 160.93 123.51V109.23C160.929 109.055 160.974 108.882 161.06 108.73C161.128 108.581 161.24 108.455 161.38 108.37L163.55 107.12C163.595 107.087 163.649 107.069 163.705 107.069C163.761 107.069 163.815 107.087 163.86 107.12C163.909 107.161 163.947 107.214 163.971 107.273C163.996 107.332 164.006 107.396 164 107.46V121.75C163.996 121.926 163.948 122.098 163.86 122.25C163.796 122.399 163.687 122.524 163.55 122.61L161.38 123.85Z" fill="#81184E"/>
<path d="M170.63 102.81C171.24 102.435 171.921 102.19 172.63 102.09C173.149 102.01 173.679 102.065 174.17 102.25C174.58 102.419 174.929 102.708 175.17 103.08C175.412 103.46 175.543 103.9 175.55 104.35C175.545 104.49 175.508 104.627 175.44 104.75C175.39 104.866 175.307 104.963 175.2 105.03L173 106.29C172.889 106.363 172.762 106.407 172.63 106.42C172.524 106.41 172.421 106.375 172.33 106.32L172.18 106.19C172.087 106.121 171.982 106.07 171.87 106.04C171.705 106.01 171.535 106.01 171.37 106.04C171.113 106.103 170.867 106.205 170.64 106.34C170.432 106.465 170.232 106.602 170.04 106.75C169.853 106.891 169.679 107.048 169.52 107.22C169.37 107.386 169.249 107.575 169.16 107.78C169.064 107.976 169.016 108.192 169.02 108.41C169.01 108.493 169.019 108.577 169.045 108.656C169.071 108.736 169.113 108.809 169.17 108.87C169.332 108.969 169.523 109.008 169.71 108.98C170.049 108.942 170.384 108.872 170.71 108.77L172.24 108.31C172.754 108.138 173.289 108.037 173.83 108.01C174.229 107.987 174.627 108.085 174.97 108.29C175.293 108.521 175.531 108.851 175.65 109.23C175.815 109.771 175.89 110.335 175.87 110.9C175.867 111.659 175.739 112.413 175.49 113.13C175.229 113.887 174.869 114.607 174.42 115.27C173.469 116.668 172.214 117.834 170.75 118.68C170.119 119.071 169.42 119.339 168.69 119.47C168.155 119.572 167.603 119.531 167.09 119.35C166.653 119.18 166.282 118.875 166.03 118.48C165.769 118.049 165.634 117.554 165.64 117.05C165.641 116.911 165.675 116.774 165.74 116.65C165.793 116.537 165.876 116.44 165.98 116.37L168.16 115.11C168.267 115.036 168.391 114.991 168.52 114.98C168.615 114.983 168.708 115.011 168.79 115.06L168.99 115.23C169.092 115.32 169.211 115.388 169.34 115.43C169.527 115.478 169.723 115.478 169.91 115.43C170.21 115.38 170.496 115.268 170.75 115.1C171.286 114.803 171.777 114.433 172.21 114C172.39 113.842 172.536 113.649 172.637 113.432C172.739 113.215 172.794 112.979 172.8 112.74C172.8 112.52 172.73 112.38 172.59 112.32C172.378 112.26 172.152 112.26 171.94 112.32C171.567 112.38 171.199 112.47 170.84 112.59C170.39 112.73 169.84 112.89 169.25 113.06C168.854 113.245 168.417 113.326 167.982 113.294C167.546 113.263 167.125 113.12 166.76 112.88C166.455 112.527 166.227 112.115 166.091 111.669C165.955 111.223 165.914 110.753 165.97 110.29C165.974 109.611 166.082 108.936 166.29 108.29C166.518 107.567 166.833 106.876 167.23 106.23C167.647 105.537 168.143 104.896 168.71 104.32C169.275 103.728 169.922 103.22 170.63 102.81Z" fill="#81184E"/>
<g opacity="0.2">
<path d="M125 129.38C125.046 129.346 125.102 129.328 125.16 129.328C125.218 129.328 125.274 129.346 125.32 129.38C125.367 129.422 125.403 129.475 125.426 129.534C125.449 129.593 125.457 129.657 125.45 129.72V132.07C125.448 132.245 125.404 132.416 125.32 132.57C125.252 132.717 125.14 132.839 125 132.92L122.08 134.61V146C122.078 146.175 122.034 146.346 121.95 146.5C121.879 146.642 121.772 146.763 121.64 146.85L119.46 148.11C119.416 148.145 119.361 148.164 119.305 148.164C119.249 148.164 119.194 148.145 119.15 148.11C119.101 148.069 119.062 148.017 119.037 147.958C119.013 147.898 119.004 147.834 119.01 147.77V136.37L116.09 138.06C116.046 138.095 115.991 138.114 115.935 138.114C115.879 138.114 115.824 138.095 115.78 138.06C115.732 138.018 115.696 137.965 115.673 137.906C115.65 137.847 115.642 137.783 115.65 137.72V135.38C115.649 135.205 115.694 135.032 115.78 134.88C115.848 134.734 115.955 134.609 116.09 134.52L125 129.38Z" fill="black"/>
<path d="M136.31 122.84C136.354 122.805 136.409 122.786 136.465 122.786C136.521 122.786 136.576 122.805 136.62 122.84C136.669 122.881 136.708 122.933 136.733 122.992C136.757 123.052 136.766 123.116 136.76 123.18V137.47C136.755 137.646 136.707 137.817 136.62 137.97C136.552 138.116 136.445 138.241 136.31 138.33L134.13 139.58C134.085 139.612 134.03 139.629 133.975 139.629C133.92 139.629 133.865 139.612 133.82 139.58C133.772 139.536 133.735 139.481 133.713 139.421C133.69 139.36 133.682 139.294 133.69 139.23V133.81L130 136V141.42C129.998 141.595 129.954 141.766 129.87 141.92C129.802 142.066 129.695 142.191 129.56 142.28L127.38 143.53C127.335 143.562 127.28 143.579 127.225 143.579C127.17 143.579 127.115 143.562 127.07 143.53C127.019 143.486 126.979 143.43 126.955 143.368C126.931 143.305 126.922 143.237 126.93 143.17V128.85C126.935 128.674 126.983 128.503 127.07 128.35C127.141 128.208 127.248 128.087 127.38 128L129.56 126.74C129.604 126.705 129.659 126.686 129.715 126.686C129.771 126.686 129.826 126.705 129.87 126.74C129.918 126.782 129.954 126.835 129.977 126.894C130 126.953 130.008 127.017 130 127.08V132.41L133.69 130.29V125C133.691 124.828 133.735 124.659 133.82 124.51C133.888 124.364 133.995 124.239 134.13 124.15L136.31 122.84Z" fill="black"/>
<path d="M147.39 128.39C147.435 128.358 147.49 128.341 147.545 128.341C147.6 128.341 147.655 128.358 147.7 128.39C147.749 128.433 147.787 128.488 147.811 128.548C147.836 128.609 147.846 128.675 147.84 128.74V131.08C147.836 131.256 147.788 131.428 147.7 131.58C147.635 131.729 147.527 131.854 147.39 131.94L139.53 136.48C139.484 136.514 139.428 136.532 139.37 136.532C139.312 136.532 139.256 136.514 139.21 136.48C139.162 136.438 139.126 136.385 139.103 136.326C139.08 136.267 139.072 136.203 139.08 136.14V121.84C139.082 121.665 139.126 121.494 139.21 121.34C139.284 121.194 139.394 121.07 139.53 120.98L147.26 116.52C147.304 116.485 147.359 116.466 147.415 116.466C147.471 116.466 147.526 116.485 147.57 116.52C147.618 116.562 147.654 116.615 147.677 116.674C147.7 116.733 147.708 116.797 147.7 116.86V119.21C147.699 119.382 147.655 119.551 147.57 119.7C147.502 119.846 147.395 119.971 147.26 120.06L142.15 123V125.39L146.89 122.65C146.936 122.616 146.992 122.597 147.05 122.597C147.108 122.597 147.164 122.616 147.21 122.65C147.258 122.692 147.294 122.745 147.317 122.804C147.34 122.863 147.348 122.927 147.34 122.99V125.33C147.341 125.505 147.296 125.678 147.21 125.83C147.139 125.977 147.028 126.102 146.89 126.19L142.15 128.93V131.41L147.39 128.39Z" fill="black"/>
<path d="M154.06 112.37C154.657 112.008 155.32 111.767 156.01 111.66C156.525 111.579 157.053 111.635 157.54 111.82C157.95 111.989 158.299 112.278 158.54 112.65C158.785 113.029 158.92 113.469 158.93 113.92C158.925 114.06 158.888 114.197 158.82 114.32C158.77 114.436 158.687 114.533 158.58 114.6L156.4 115.86C156.292 115.938 156.163 115.98 156.03 115.98C155.927 115.977 155.827 115.946 155.74 115.89L155.58 115.76C155.491 115.69 155.389 115.639 155.28 115.61C155.115 115.58 154.945 115.58 154.78 115.61C154.523 115.673 154.277 115.775 154.05 115.91C153.838 116.034 153.635 116.171 153.44 116.32C153.256 116.461 153.085 116.618 152.93 116.79C152.781 116.958 152.656 117.147 152.56 117.35C152.469 117.548 152.421 117.762 152.42 117.98C152.412 118.064 152.422 118.148 152.449 118.228C152.477 118.307 152.522 118.38 152.58 118.44C152.737 118.54 152.927 118.576 153.11 118.54C153.45 118.512 153.786 118.445 154.11 118.34L155.63 117.88C156.147 117.707 156.685 117.606 157.23 117.58C157.627 117.554 158.021 117.652 158.36 117.86C158.69 118.083 158.931 118.416 159.04 118.8C159.209 119.34 159.287 119.904 159.27 120.47C159.267 121.229 159.139 121.983 158.89 122.7C158.625 123.456 158.265 124.175 157.82 124.84C157.352 125.534 156.805 126.172 156.19 126.74C155.566 127.319 154.878 127.826 154.14 128.25C153.51 128.643 152.811 128.911 152.08 129.04C151.545 129.137 150.994 129.095 150.48 128.92C150.063 128.743 149.713 128.439 149.48 128.05C149.213 127.621 149.074 127.125 149.08 126.62C149.085 126.48 149.122 126.343 149.19 126.22C149.24 126.105 149.323 126.007 149.43 125.94L151.6 124.68C151.711 124.607 151.838 124.563 151.97 124.55C152.063 124.547 152.155 124.575 152.23 124.63C152.301 124.682 152.367 124.739 152.43 124.8C152.535 124.891 152.657 124.959 152.79 125C152.974 125.047 153.166 125.047 153.35 125C153.648 124.944 153.933 124.832 154.19 124.67C154.728 124.372 155.223 124.002 155.66 123.57C155.837 123.41 155.981 123.216 156.082 123C156.184 122.783 156.241 122.549 156.25 122.31C156.262 122.224 156.247 122.137 156.208 122.06C156.169 121.983 156.106 121.92 156.03 121.88C155.82 121.825 155.6 121.825 155.39 121.88C155.013 121.941 154.642 122.031 154.28 122.15C153.83 122.29 153.28 122.45 152.7 122.62C152.302 122.804 151.864 122.884 151.427 122.853C150.99 122.821 150.567 122.679 150.2 122.44C149.897 122.086 149.67 121.673 149.534 121.228C149.398 120.782 149.356 120.313 149.41 119.85C149.418 119.17 149.529 118.496 149.74 117.85C149.966 117.125 150.278 116.43 150.67 115.78C151.093 115.092 151.593 114.455 152.16 113.88C152.722 113.293 153.361 112.785 154.06 112.37Z" fill="black"/>
<path d="M161.38 123.85C161.334 123.884 161.278 123.902 161.22 123.902C161.162 123.902 161.106 123.884 161.06 123.85C161.013 123.808 160.977 123.755 160.954 123.696C160.931 123.637 160.923 123.573 160.93 123.51V109.23C160.929 109.055 160.974 108.882 161.06 108.73C161.128 108.581 161.24 108.455 161.38 108.37L163.55 107.12C163.595 107.087 163.649 107.069 163.705 107.069C163.761 107.069 163.815 107.087 163.86 107.12C163.909 107.161 163.947 107.214 163.971 107.273C163.996 107.332 164.006 107.396 164 107.46V121.75C163.996 121.926 163.948 122.098 163.86 122.25C163.796 122.399 163.687 122.524 163.55 122.61L161.38 123.85Z" fill="black"/>
<path d="M170.63 102.81C171.24 102.435 171.921 102.19 172.63 102.09C173.149 102.01 173.679 102.065 174.17 102.25C174.58 102.419 174.929 102.708 175.17 103.08C175.412 103.46 175.544 103.9 175.55 104.35C175.545 104.49 175.508 104.627 175.44 104.75C175.39 104.866 175.307 104.963 175.2 105.03L173 106.29C172.889 106.363 172.762 106.407 172.63 106.42C172.524 106.41 172.421 106.375 172.33 106.32L172.18 106.19C172.087 106.121 171.982 106.07 171.87 106.04C171.705 106.01 171.535 106.01 171.37 106.04C171.113 106.103 170.867 106.205 170.64 106.34C170.432 106.465 170.232 106.602 170.04 106.75C169.853 106.891 169.679 107.048 169.52 107.22C169.37 107.386 169.249 107.575 169.16 107.78C169.064 107.976 169.016 108.192 169.02 108.41C169.01 108.493 169.019 108.577 169.045 108.656C169.071 108.736 169.113 108.809 169.17 108.87C169.332 108.969 169.523 109.008 169.71 108.98C170.049 108.942 170.384 108.872 170.71 108.77L172.24 108.31C172.754 108.138 173.289 108.037 173.83 108.01C174.229 107.987 174.627 108.085 174.97 108.29C175.293 108.521 175.531 108.851 175.65 109.23C175.815 109.771 175.89 110.335 175.87 110.9C175.867 111.659 175.739 112.413 175.49 113.13C175.229 113.887 174.869 114.607 174.42 115.27C173.469 116.668 172.214 117.834 170.75 118.68C170.119 119.071 169.42 119.339 168.69 119.47C168.155 119.572 167.603 119.531 167.09 119.35C166.653 119.18 166.282 118.875 166.03 118.48C165.769 118.049 165.634 117.554 165.64 117.05C165.641 116.911 165.675 116.774 165.74 116.65C165.793 116.537 165.876 116.44 165.98 116.37L168.16 115.11C168.267 115.036 168.391 114.991 168.52 114.98C168.615 114.983 168.708 115.011 168.79 115.06L168.99 115.23C169.092 115.32 169.211 115.388 169.34 115.43C169.527 115.478 169.723 115.478 169.91 115.43C170.21 115.38 170.496 115.268 170.75 115.1C171.286 114.803 171.777 114.433 172.21 114C172.39 113.842 172.536 113.649 172.637 113.432C172.739 113.215 172.794 112.979 172.8 112.74C172.8 112.52 172.73 112.38 172.59 112.32C172.378 112.26 172.152 112.26 171.94 112.32C171.567 112.38 171.199 112.47 170.84 112.59C170.39 112.73 169.84 112.89 169.25 113.06C168.854 113.245 168.417 113.326 167.982 113.294C167.546 113.263 167.125 113.12 166.76 112.88C166.455 112.527 166.227 112.115 166.091 111.669C165.955 111.223 165.914 110.753 165.97 110.29C165.974 109.611 166.082 108.936 166.29 108.29C166.518 107.567 166.834 106.876 167.23 106.23C167.647 105.537 168.143 104.896 168.71 104.32C169.275 103.728 169.922 103.22 170.63 102.81Z" fill="black"/>
</g>
<path d="M192.44 157.23L100.44 210.36C99.27 211.03 98.33 210.36 98.33 208.77C98.3427 207.984 98.5403 207.213 98.9069 206.518C99.2735 205.823 99.7987 205.224 100.44 204.77L192.44 151.64C193.6 150.97 194.54 151.64 194.54 153.23C194.528 154.015 194.332 154.786 193.968 155.481C193.603 156.176 193.079 156.775 192.44 157.23Z" fill="#E0E0E0"/>
<path d="M176.22 180.58L116.64 215C115.47 215.67 114.53 215 114.53 213.41C114.543 212.624 114.74 211.853 115.107 211.158C115.474 210.463 115.999 209.864 116.64 209.41L176.22 175C177.38 174.33 178.32 175 178.32 176.59C178.307 177.373 178.11 178.142 177.745 178.835C177.381 179.528 176.858 180.126 176.22 180.58Z" fill="#E0E0E0"/>
<path d="M192.44 246.61L100.44 299.74C99.27 300.41 98.33 299.74 98.33 298.15C98.3427 297.364 98.5403 296.593 98.9069 295.898C99.2735 295.203 99.7987 294.604 100.44 294.15L192.44 241.02C193.6 240.35 194.54 241.02 194.54 242.61C194.528 243.395 194.332 244.166 193.968 244.861C193.603 245.556 193.079 246.155 192.44 246.61Z" fill="#E0E0E0"/>
<path d="M176.22 270L116.64 304.41C115.47 305.08 114.53 304.36 114.53 302.82C114.543 302.034 114.74 301.263 115.107 300.568C115.474 299.873 115.999 299.274 116.64 298.82L176.22 264.42C177.38 263.74 178.32 264.42 178.32 266C178.308 266.785 178.112 267.556 177.748 268.251C177.383 268.946 176.859 269.545 176.22 270Z" fill="#E0E0E0"/>
<path d="M176.22 152.3L116.64 186.7C115.47 187.37 114.53 186.7 114.53 185.11C114.543 184.324 114.74 183.553 115.107 182.858C115.474 182.163 115.999 181.564 116.64 181.11L176.22 146.71C177.38 146.04 178.32 146.71 178.32 148.3C178.308 149.085 178.112 149.856 177.748 150.551C177.383 151.246 176.859 151.845 176.22 152.3Z" fill="#E0E0E0"/>
<path d="M66.56 349V357.31C65.4119 357.307 64.282 357.022 63.27 356.48H63.19L63.09 356.42L42.21 344.29V114.46L63.11 126.53C63.1602 126.563 63.2138 126.589 63.27 126.61C64.2838 127.168 65.4226 127.461 66.58 127.46V349H66.56Z" fill="#37474F"/>
<path d="M78.74 121.48V351.32L70.02 356.32C68.969 356.93 67.7752 357.251 66.56 357.25V127.45C67.7455 127.457 68.9117 127.15 69.94 126.56H70L78.74 121.48Z" fill="#455A64"/>
<path d="M32.86 369.53V384.78C32.86 393.06 38.33 401.33 49.27 407.65C71.14 420.28 106.62 420.28 128.5 407.65C139.44 401.33 144.91 393.06 144.91 384.78V369.53C144.91 361.25 139.44 352.97 128.5 346.66C106.62 334.03 71.15 334.03 49.27 346.66C38.33 353 32.86 361.25 32.86 369.53ZM139.49 369.53C139.49 376.15 134.62 382.61 125.79 387.71C116.02 393.35 102.91 396.46 88.88 396.46C74.85 396.46 61.75 393.35 51.98 387.71C43.14 382.61 38.28 376.15 38.28 369.53C38.28 362.91 43.14 356.45 51.98 351.35C61.75 345.71 74.85 342.6 88.88 342.6C102.91 342.6 116.02 345.71 125.79 351.35C134.62 356.45 139.49 362.91 139.49 369.53Z" fill="#81184E"/>
<path opacity="0.3" d="M128.5 346.66C106.62 334.03 71.15 334.03 49.27 346.66C27.39 359.29 27.39 379.77 49.27 392.4C71.15 405.03 106.62 405.03 128.5 392.4C150.38 379.77 150.38 359.29 128.5 346.66ZM125.79 387.66C116.02 393.3 102.91 396.41 88.88 396.41C74.85 396.41 61.75 393.3 51.98 387.66C43.14 382.56 38.28 376.1 38.28 369.48C38.28 362.86 43.14 356.4 51.98 351.3C61.75 345.66 74.86 342.55 88.88 342.55C102.9 342.55 116.02 345.66 125.79 351.3C134.63 356.4 139.49 362.86 139.49 369.48C139.49 376.1 134.63 382.61 125.79 387.71V387.66Z" fill="white"/>
<path d="M139.5 369.53C139.468 372.224 138.712 374.859 137.31 377.16C135.09 373.31 131.17 369.7 125.79 366.6C116.02 360.96 102.91 357.85 88.88 357.85C74.85 357.85 61.75 361 52 366.6C46.62 369.7 42.71 373.31 40.47 377.16C39.0774 374.856 38.3249 372.222 38.29 369.53C38.29 362.91 43.16 356.45 52 351.34C61.77 345.71 74.88 342.6 88.9 342.6C102.92 342.6 116.04 345.71 125.81 351.34C134.63 356.45 139.5 362.91 139.5 369.53Z" fill="#81184E"/>
<path opacity="0.1" d="M139.5 369.53C139.468 372.224 138.712 374.859 137.31 377.16C135.09 373.31 131.17 369.7 125.79 366.6C116.02 360.96 102.91 357.85 88.88 357.85C74.85 357.85 61.75 361 52 366.6C46.62 369.7 42.71 373.31 40.47 377.16C39.0774 374.856 38.3249 372.222 38.29 369.53C38.29 362.91 43.16 356.45 52 351.34C61.77 345.71 74.88 342.6 88.9 342.6C102.92 342.6 116.04 345.71 125.81 351.34C134.63 356.45 139.5 362.91 139.5 369.53Z" fill="black"/>
<path opacity="0.6" d="M125.79 358.25C116.02 352.61 102.91 349.51 88.88 349.51C74.85 349.51 61.75 352.61 51.98 358.25C44.69 362.46 40.11 367.59 38.73 372.98C40.11 378.37 44.73 383.5 51.98 387.71C61.75 393.35 74.86 396.46 88.88 396.46C102.9 396.46 116.02 393.35 125.79 387.71C133.08 383.5 137.66 378.37 139.04 372.98C137.66 367.59 133.08 362.46 125.79 358.25Z" fill="white"/>
<path opacity="0.1" d="M102.09 401V416.24C111.355 415.096 120.316 412.191 128.49 407.68C139.44 401.36 144.91 393.08 144.91 384.8V369.53C144.904 367.841 144.679 366.161 144.24 364.53C146.89 374.38 141.65 384.81 128.5 392.4C120.94 396.77 111.76 399.62 102.09 401Z" fill="black"/>
<path d="M126.83 402.11C126.899 400.747 127.288 399.419 127.965 398.234C128.643 397.049 129.59 396.041 130.73 395.29C131.124 395.004 131.587 394.827 132.071 394.776C132.556 394.725 133.045 394.802 133.49 395L152.35 405.76C152.75 406.041 153.067 406.424 153.27 406.868C153.472 407.313 153.551 407.804 153.5 408.29C153.431 409.653 153.042 410.981 152.365 412.166C151.687 413.351 150.74 414.359 149.6 415.11C149.205 415.4 148.74 415.579 148.253 415.628C147.766 415.677 147.275 415.595 146.83 415.39L128 404.65C127.598 404.368 127.278 403.984 127.072 403.538C126.867 403.092 126.783 402.599 126.83 402.11Z" fill="#37474F"/>
<path d="M128 404.65C127.598 404.368 127.278 403.984 127.072 403.538C126.867 403.092 126.783 402.599 126.83 402.11C126.849 401.094 127.077 400.093 127.5 399.17L151.82 413.08C151.231 413.9 150.487 414.597 149.63 415.13C149.235 415.42 148.77 415.599 148.283 415.648C147.796 415.697 147.305 415.615 146.86 415.41L128 404.65Z" fill="#263238"/>
<path d="M146.45 415.07C146.54 413.297 147.046 411.571 147.926 410.03C148.807 408.489 150.038 407.177 151.52 406.2C152.029 405.833 152.625 405.604 153.249 405.535C153.873 405.467 154.504 405.562 155.08 405.81L202.79 430.28L193.45 446.77L148 418.38C147.47 418.016 147.048 417.518 146.775 416.936C146.503 416.354 146.39 415.71 146.45 415.07Z" fill="#81184E"/>
<path opacity="0.1" d="M193.51 446.79L148 418.38C147.476 418.013 147.059 417.512 146.792 416.931C146.525 416.349 146.417 415.707 146.48 415.07C146.55 413.156 147.137 411.297 148.18 409.69L198.36 438.29L193.51 446.79Z" fill="black"/>
<path d="M198.23 446.29C200.177 445.013 201.794 443.294 202.949 441.272C204.105 439.251 204.767 436.985 204.88 434.66C204.88 430.39 201.88 428.66 198.17 430.82C196.225 432.099 194.609 433.819 193.454 435.839C192.298 437.86 191.636 440.125 191.52 442.45C191.53 446.72 194.54 448.44 198.23 446.29Z" fill="#81184E"/>
<g opacity="0.2">
<path d="M198.23 446.29C200.177 445.013 201.794 443.294 202.949 441.272C204.105 439.251 204.767 436.985 204.88 434.66C204.88 430.39 201.88 428.66 198.17 430.82C196.225 432.099 194.609 433.819 193.454 435.839C192.298 437.86 191.636 440.125 191.52 442.45C191.53 446.72 194.54 448.44 198.23 446.29Z" fill="black"/>
</g>
<path d="M440.37 353.35L465.21 348.49C465.367 348.459 465.53 348.478 465.676 348.544C465.822 348.611 465.944 348.721 466.024 348.86C466.105 348.998 466.14 349.159 466.125 349.318C466.11 349.478 466.045 349.629 465.94 349.75L449.08 368.84L440.37 353.35Z" fill="#FFA8A7"/>
<path d="M465.94 349.75C466.045 349.629 466.11 349.478 466.125 349.318C466.14 349.159 466.105 348.998 466.024 348.86C465.944 348.721 465.822 348.611 465.676 348.544C465.53 348.478 465.367 348.459 465.21 348.49L460.36 349.44C461.031 349.857 461.572 350.451 461.926 351.157C462.279 351.863 462.429 352.654 462.36 353.44V353.87L465.94 349.75Z" fill="#263238"/>
<path d="M333.23 435.41L335.23 434.25L337.68 432.85L449.04 368.85C449.86 366.115 449.614 363.171 448.35 360.61C446.59 356.67 443.17 353.55 440.35 353.37L329.05 417.37L324.38 420C327.51 418.46 336.35 433.79 333.23 435.41Z" fill="#455A64"/>
<path d="M341 431L345.53 428.39C346.87 427.67 346.1 424.39 344.53 420.98C342.45 416.46 338.38 412.08 336.6 412.98L333.25 414.9L332.07 415.61C333.85 414.67 337.93 419.04 340 423.61C341.5 426.87 342.26 430.04 341.12 430.91C341.089 430.951 341.048 430.982 341 431Z" fill="#EBEBEB"/>
<path d="M333.23 435.41L337.72 432.85C340.79 431.25 332.31 416.36 329.07 417.34C329.004 417.354 328.94 417.378 328.88 417.41L324.38 420.03C327.51 418.46 336.35 433.79 333.23 435.41Z" fill="#EBEBEB"/>
<path opacity="0.15" d="M466.05 348.92L465.21 348.49L447.21 358.35L330.76 425.28C330.59 425 330.44 424.98 330.33 425.17C332.98 429.3 334.98 434.51 333.23 435.41L335.23 434.25L337.68 432.85L449.04 368.85L465.9 349.76C466.011 349.654 466.086 349.516 466.113 349.365C466.14 349.214 466.118 349.058 466.05 348.92Z" fill="black"/>
<path d="M314.19 446.31L333.19 435.41C334.53 434.72 333.79 431.41 332.25 428.08C330.19 423.54 326.13 419.13 324.34 420.03L305.25 431C301.46 433.19 304.95 441.43 309.18 445.11C310.75 446.48 312.51 447.1 314.19 446.31Z" fill="#F28F8F"/>
<path opacity="0.1" d="M315.32 440.4C314.23 436.11 310.75 431.9 307.56 431C307.089 430.831 306.585 430.777 306.089 430.843C305.593 430.909 305.12 431.094 304.71 431.38C301.84 434.04 305.17 441.61 309.18 445.09C310.72 446.45 312.45 447.09 314.09 446.35C315.52 445.51 316.07 443.31 315.32 440.4Z" fill="black"/>
<path d="M146.42 350.16L265.83 417.59L449.21 312.36L329.81 244.92L146.42 350.16Z" fill="#81184E"/>
<path opacity="0.6" d="M146.42 350.16L265.83 417.59L449.21 312.36L329.81 244.92L146.42 350.16Z" fill="black"/>
<path d="M267.13 412.66L151.74 347.1C154.6 338.97 154.39 336.5 151.14 325.67L265.83 390.56C265.83 390.56 267.91 390.41 267.13 412.66Z" fill="#F5F5F5"/>
<path d="M260.23 381.67C266.05 385.01 270.77 393.14 270.77 399.82V414C270.77 420.69 266.05 423.39 260.23 420.05L146.43 355.41V350.16L258.79 413.58C262.28 415.58 265.11 413.96 265.1 409.95L265 397.32C264.875 395.134 264.236 393.008 263.134 391.116C262.032 389.224 260.499 387.618 258.66 386.43L146.43 323V317L260.23 381.67Z" fill="#81184E"/>
<path opacity="0.5" d="M260.23 381.67C266.05 385.01 270.77 393.14 270.77 399.82V414C270.77 420.69 266.05 423.39 260.23 420.05L146.43 355.41V350.16L258.79 413.58C262.28 415.58 265.11 413.96 265.1 409.95L265 397.32C264.875 395.134 264.236 393.008 263.134 391.116C262.032 389.224 260.499 387.618 258.66 386.43L146.43 323V317L260.23 381.67Z" fill="black"/>
<path d="M146.43 317L329.81 211.81L443.6 276.44C449.42 279.78 454.14 287.92 454.15 294.59V308.78C454.15 312.11 452.98 314.46 451.06 315.56L267.68 420.79C269.59 419.69 270.76 417.34 270.77 414.01V399.81C270.77 393.13 266.05 385 260.23 381.66L146.43 317Z" fill="#81184E"/>
<path opacity="0.35" d="M146.43 317L329.81 211.81L443.6 276.44C449.42 279.78 454.14 287.92 454.15 294.59V308.78C454.15 312.11 452.98 314.46 451.06 315.56L267.68 420.79C269.59 419.69 270.76 417.34 270.77 414.01V399.81C270.77 393.13 266.05 385 260.23 381.66L146.43 317Z" fill="black"/>
<path d="M267.7 389.49C269.591 392.61 270.652 396.163 270.78 399.81V414C270.78 417.33 269.6 419.68 267.69 420.78L451.06 315.56C452.98 314.46 454.14 312.11 454.15 308.78V294.59C454.013 290.943 452.95 287.392 451.06 284.27L267.7 389.49Z" fill="#81184E"/>
<path opacity="0.45" d="M267.7 389.49C269.591 392.61 270.652 396.163 270.78 399.81V414C270.78 417.33 269.6 419.68 267.69 420.78L451.06 315.56C452.98 314.46 454.14 312.11 454.15 308.78V294.59C454.013 290.943 452.95 287.392 451.06 284.27L267.7 389.49Z" fill="black"/>
<path d="M426.29 298.33C429.7 313.17 429.66 318.97 426.29 329.86L417.56 334.86C420.93 323.97 420.97 318.17 417.56 303.33L426.29 298.33Z" fill="#81184E"/>
<path d="M306 367.45C309.42 382.29 309.37 387.9 306 398.78L297.27 403.78C300.64 392.9 300.69 387.29 297.27 372.45L306 367.45Z" fill="#81184E"/>
<path d="M122.33 315.27L241.74 382.7L425.12 277.47L305.72 210.03L122.33 315.27Z" fill="#81184E"/>
<path opacity="0.4" d="M122.33 315.27L241.74 382.7L425.12 277.47L305.72 210.03L122.33 315.27Z" fill="black"/>
<path d="M243 377.77L127.65 312.21C130.52 304.08 130.3 300.44 127.06 289.61L241.74 354.5C241.74 354.5 243.83 355.52 243 377.77Z" fill="#F5F5F5"/>
<path d="M236.15 345.61C241.97 348.95 246.69 357.08 246.69 363.76V379.11C246.69 385.8 241.97 388.5 236.14 385.16L122.34 320.52V315.27L234.7 378.69C238.19 380.69 241.02 379.07 241.02 375.06L240.92 361.26C240.794 359.075 240.156 356.951 239.056 355.059C237.956 353.167 236.426 351.56 234.59 350.37L122.34 286.92V280.92L236.15 345.61Z" fill="#81184E"/>
<path opacity="0.25" d="M236.15 345.61C241.97 348.95 246.69 357.08 246.69 363.76V379.11C246.69 385.8 241.97 388.5 236.14 385.16L122.34 320.52V315.27L234.7 378.69C238.19 380.69 241.02 379.07 241.02 375.06L240.92 361.26C240.794 359.075 240.156 356.951 239.056 355.059C237.956 353.167 236.426 351.56 234.59 350.37L122.34 286.92V280.92L236.15 345.61Z" fill="black"/>
<path d="M122.34 281L305.72 175.75L419.52 240.38C425.33 243.72 430.06 251.85 430.06 258.53V273.89C430.06 277.22 428.89 279.57 426.97 280.67L243.59 385.9C245.51 384.8 246.67 382.45 246.68 379.12V363.75C246.68 357.07 241.95 348.94 236.14 345.6L122.34 281Z" fill="#81184E"/>
<path d="M243.61 353.43C245.508 356.548 246.573 360.102 246.7 363.75V379.12C246.7 382.45 245.53 384.8 243.61 385.9L427 280.67C428.92 279.57 430.09 277.22 430.09 273.89V258.53C429.963 254.882 428.898 251.328 427 248.21L243.61 353.43Z" fill="#81184E"/>
<path opacity="0.15" d="M243.61 353.43C245.508 356.548 246.573 360.102 246.7 363.75V379.12C246.7 382.45 245.53 384.8 243.61 385.9L427 280.67C428.92 279.57 430.09 277.22 430.09 273.89V258.53C429.963 254.882 428.898 251.328 427 248.21L243.61 353.43Z" fill="black"/>
<path d="M402.2 262.27C405.62 277.11 405.57 284.08 402.2 294.97L393.47 299.97C396.84 289.08 396.89 282.11 393.47 267.27L402.2 262.27Z" fill="#81184E"/>
<path d="M281.92 331.47C285.34 346.31 285.29 353.04 281.92 363.92L273.19 368.92C276.56 358.03 276.61 351.27 273.19 336.43L281.92 331.47Z" fill="#81184E"/>
<g opacity="0.4">
<path d="M402.2 262.27C405.62 277.11 405.57 284.08 402.2 294.97L393.47 299.97C396.84 289.08 396.89 282.11 393.47 267.27L402.2 262.27Z" fill="white"/>
<path d="M281.92 331.47C285.34 346.31 285.29 353.04 281.92 363.92L273.19 368.92C276.56 358.03 276.61 351.27 273.19 336.43L281.92 331.47Z" fill="white"/>
</g>
<path d="M307.22 247.8L298.7 231L281.55 241L302.69 266C302.69 266 313.17 265 314.86 259.57C316.55 254.14 310.11 249.62 307.22 247.8Z" fill="#C8856A"/>
<path d="M319.31 254.4C320.264 255.097 321.07 255.978 321.68 256.99C322.37 257.99 322.16 262.99 322.82 265.29C323.48 267.59 323.99 268.21 325.09 271.1C326.31 274.31 328.57 277.23 326.02 285.47C323.47 293.71 319.38 297.62 315.93 299.63C314.644 300.293 313.217 300.636 311.77 300.63C311.77 300.63 307.25 298.92 307.94 296.25C308.63 293.58 319.31 254.4 319.31 254.4Z" fill="#263238"/>
<path d="M299.47 263.43C299.6 264.28 300.78 265.58 301.26 266.28C302.88 268.61 303.63 271.75 304.19 274.51C306.86 287.51 301.68 294.16 308.69 299.05C310.69 300.32 314.94 299.97 321.34 291.76C324.61 287.57 326.48 278.94 325.21 275.03C323.94 271.12 322.21 268.59 321.36 265.58C320.51 262.57 320.96 256.98 319.31 254.4C318.231 252.944 316.841 251.749 315.24 250.9C313.99 250.14 311.24 249.15 310.01 248.43C308.78 247.71 308.01 246.89 307.22 247.8L308.69 249.61C310.97 252.78 310.34 253.24 310.28 254.93C310.377 256.741 310.662 258.538 311.13 260.29C309.51 258.24 308.84 256.45 307.07 256.76C305.3 257.07 305.07 256.99 302.53 259.38C299.99 261.77 299.36 262.68 299.47 263.43Z" fill="#455A64"/>
<path d="M321.34 291.76C324.61 287.57 326.48 278.94 325.21 275.03C324.775 273.744 324.271 272.482 323.7 271.25C323.76 271.51 323.84 271.78 323.87 272.01C323.95 272.51 324.02 273.01 324.07 273.53C324.364 275.523 324.14 277.558 323.42 279.44C322.68 281.07 320.98 285.14 318.79 285.23C317.55 285.23 316.5 284.07 316.02 282.68C315.82 282.09 315.48 280.51 315.48 280.51C313.471 280.977 311.55 281.764 309.79 282.84C306.61 284.94 306.72 285.41 306.72 285.41C306.914 286.327 306.951 287.27 306.83 288.2C306.641 289.202 306.234 290.151 305.64 290.98C305.396 291.228 305.124 291.446 304.83 291.63C304.96 294.63 305.75 297 308.69 299.05C310.72 300.32 314.94 300 321.34 291.76Z" fill="#37474F"/>
<path d="M304.19 274.51C304.875 277.935 305.15 281.43 305.01 284.92C306.2 288.26 307.25 288.16 307.4 286.43C307.55 284.7 305.24 277.53 303.52 271.6C303.78 272.58 304 273.57 304.19 274.51Z" fill="#37474F"/>
<path d="M312.12 253.62C312.262 251.931 311.813 250.245 310.85 248.85C310.53 248.7 310.24 248.56 310.01 248.43C308.63 247.65 308.01 246.89 307.22 247.8L308.69 249.61C310.97 252.78 310.34 253.24 310.28 254.93C310.377 256.741 310.662 258.538 311.13 260.29C312.46 265.95 313.67 267.84 314.3 273.18C314.93 278.52 313.85 282.12 314.61 282.42C315.37 282.72 316.89 282.11 317.16 277.83C317.43 273.55 315.55 266.35 314.22 262.94C312.89 259.53 311.85 255.9 312.12 253.62Z" fill="#37474F"/>
<path d="M315.86 280.89C315.787 280.964 315.692 281.012 315.59 281.03C313.906 281.255 312.284 281.814 310.818 282.672C309.352 283.53 308.071 284.672 307.05 286.03C306.956 286.133 306.826 286.197 306.687 286.208C306.548 286.219 306.409 286.177 306.3 286.09C306.194 285.997 306.129 285.867 306.118 285.727C306.107 285.587 306.15 285.448 306.24 285.34C307.334 283.888 308.706 282.666 310.274 281.746C311.843 280.826 313.578 280.226 315.38 279.98C315.519 279.953 315.663 279.983 315.781 280.061C315.899 280.14 315.981 280.261 316.01 280.4C316.026 280.488 316.02 280.578 315.994 280.663C315.968 280.748 315.922 280.826 315.86 280.89Z" fill="#EBEBEB"/>
<path d="M315.19 276.43C315.115 276.503 315.022 276.555 314.92 276.58C311.337 277.195 308.121 279.146 305.92 282.04C305.875 282.096 305.818 282.143 305.754 282.177C305.69 282.21 305.62 282.231 305.548 282.236C305.476 282.242 305.403 282.233 305.335 282.209C305.266 282.186 305.204 282.149 305.15 282.1C305.041 282.005 304.973 281.871 304.962 281.727C304.951 281.583 304.997 281.44 305.09 281.33C307.443 278.255 310.866 276.177 314.68 275.51C314.82 275.48 314.967 275.506 315.089 275.583C315.21 275.659 315.297 275.78 315.33 275.92C315.349 276.01 315.346 276.103 315.322 276.192C315.297 276.281 315.252 276.362 315.19 276.43Z" fill="#EBEBEB"/>
<path d="M315.28 271.52C315.201 271.603 315.101 271.662 314.99 271.69C310.99 272.408 307.402 274.594 304.93 277.82C304.821 277.943 304.668 278.018 304.504 278.029C304.34 278.039 304.178 277.984 304.055 277.875C303.932 277.766 303.857 277.613 303.846 277.449C303.836 277.285 303.891 277.123 304 277C306.635 273.574 310.448 271.247 314.7 270.47C314.855 270.437 315.017 270.465 315.151 270.549C315.286 270.633 315.382 270.766 315.42 270.92C315.453 271.023 315.458 271.134 315.433 271.239C315.408 271.345 315.355 271.442 315.28 271.52Z" fill="#EBEBEB"/>
<path d="M314.57 267.33C314.495 267.415 314.392 267.472 314.28 267.49C310.367 268.187 306.859 270.328 304.45 273.49C304.345 273.603 304.201 273.672 304.047 273.683C303.893 273.695 303.74 273.647 303.62 273.55C303.501 273.449 303.427 273.305 303.414 273.149C303.4 272.994 303.449 272.839 303.55 272.72C306.12 269.369 309.845 267.095 314 266.34C314.126 266.308 314.26 266.319 314.379 266.371C314.499 266.423 314.598 266.514 314.661 266.628C314.723 266.742 314.747 266.874 314.727 267.003C314.707 267.132 314.645 267.25 314.55 267.34L314.57 267.33Z" fill="#EBEBEB"/>
<path d="M313 263.25C312.922 263.332 312.821 263.388 312.71 263.41C308.796 264.103 305.286 266.245 302.88 269.41C302.776 269.525 302.632 269.596 302.477 269.607C302.322 269.618 302.169 269.569 302.05 269.47C301.931 269.369 301.857 269.225 301.844 269.069C301.83 268.914 301.88 268.759 301.98 268.64C304.555 265.285 308.288 263.01 312.45 262.26C312.526 262.242 312.604 262.239 312.68 262.252C312.757 262.264 312.83 262.292 312.896 262.333C312.962 262.374 313.019 262.427 313.065 262.49C313.11 262.553 313.142 262.624 313.16 262.7C313.183 262.798 313.181 262.9 313.153 262.996C313.125 263.092 313.072 263.18 313 263.25Z" fill="#EBEBEB"/>
<path d="M329.14 189.31C329.14 189.31 284.81 181.83 267.52 181.94C249.87 182.05 248.23 195.3 252.65 203.41C261.1 218.95 290.5 251.91 290.5 251.91C290.5 251.91 300.37 247.38 303.41 238.84L296.7 223.46L317.8 230.21L328.58 223L329.46 217.5L329.14 189.31Z" fill="#455A64"/>
<path d="M299.07 239.77L286.62 246.88L279.77 249.72L284.59 264.28L306.11 258.1L299.07 239.77Z" fill="#C8856A"/>
<path d="M253.49 252.46C248.49 253.52 245.28 254.89 242.64 257.35C240 259.81 238.86 262.57 240.34 266.35C241.82 270.13 244.92 274.78 249.45 275.28C253.98 275.78 256.93 275.12 261.45 273.56L253.49 252.46Z" fill="#263238"/>
<path d="M290.28 262.73C290.11 264.14 283.72 265.95 277.08 267.85C269.95 269.85 267.99 271.66 262.16 273.4C255.5 275.4 253.16 275.17 248.58 273.04C244 270.91 239.3 263.04 244.45 257.5C248.66 252.94 253.23 252.26 260.09 251.64C265.539 251.2 270.954 250.405 276.3 249.26C281.36 248.26 285.83 245.56 286.62 246.88C285.88 247.09 280.4 249.32 281.2 250.31C281.36 250.78 282.09 250.76 283.39 250.47C283.675 250.38 283.975 250.352 284.271 250.386C284.568 250.421 284.853 250.518 285.11 250.67C285.602 251.119 285.95 251.703 286.11 252.35C286.469 253.666 286.753 255.002 286.96 256.35C287.19 257.28 287.12 256.75 287.31 257.68C287.5 258.61 288.01 260.34 287.76 261.22C287.62 261.75 287.19 261.86 286.76 262.05C286.33 262.24 285.66 262.47 285.21 262.7C285.03 262.8 284.68 263.15 284.74 263.38C284.8 263.61 285.74 263.73 286.09 263.64C286.44 263.55 287.09 263.5 287.56 263.42C288.03 263.34 289.11 263.05 290.28 262.73Z" fill="#455A64"/>
<path d="M264.44 272.74C263.44 273.03 257.44 274.69 255.97 272.84C254.36 270.84 259.29 268.9 259.29 268.9C259.29 268.9 260.68 264.8 256.64 257.75C255.64 258.29 251.98 257.64 252.39 255.48C252.8 253.32 259.39 251.72 259.5 251.7C252.92 252.32 248.5 253.07 244.45 257.5C239.3 263.09 244.03 270.91 248.58 273.04C253.13 275.17 255.5 275.39 262.16 273.4C262.82 273.2 263.85 273 264.44 272.74Z" fill="#37474F"/>
<path d="M258.76 268.38C256.3 268.76 257.54 271.15 261.07 271.04C266.35 270.87 271.07 268.68 277.07 267.85C283.71 265.95 290.43 264.27 290.29 262.65C289.12 262.88 286.6 263.46 286.6 263.46C286.11 263.58 284.85 263.82 284.85 263.82C279.85 265.05 274.14 267.42 268.85 267.94C264.24 268.39 261.22 268 258.76 268.38Z" fill="#37474F"/>
<path d="M256.84 258.61C259.18 257.74 259.73 256.75 264.23 255.53C268.73 254.31 276.49 251.4 281.29 249.59C283.112 248.779 284.891 247.874 286.62 246.88C286.03 245.93 283.24 246.24 280.29 247.47C277.34 248.7 275.55 249.47 272.67 250.47C267.02 252.69 260.83 253.79 257.58 255.18C254.33 256.57 254.51 259.48 256.84 258.61Z" fill="#37474F"/>
<path d="M256.63 258C256.643 258.076 256.674 258.148 256.72 258.21C258.561 261.566 259.345 265.4 258.97 269.21C258.952 269.361 258.991 269.514 259.08 269.638C259.169 269.762 259.301 269.849 259.45 269.88C259.522 269.888 259.596 269.882 259.665 269.86C259.735 269.838 259.799 269.802 259.853 269.754C259.908 269.706 259.952 269.647 259.982 269.581C260.013 269.515 260.029 269.443 260.03 269.37C260.448 265.263 259.586 261.127 257.56 257.53C257.524 257.467 257.475 257.413 257.416 257.371C257.357 257.329 257.29 257.3 257.219 257.286C257.148 257.272 257.075 257.273 257.004 257.289C256.934 257.305 256.868 257.336 256.81 257.38C256.725 257.456 256.663 257.555 256.631 257.664C256.599 257.774 256.599 257.89 256.63 258Z" fill="#F0F0F0"/>
<path d="M261.27 255.67C261.283 255.737 261.306 255.801 261.34 255.86C263.43 259.864 264.427 264.348 264.23 268.86C264.22 269.013 264.266 269.165 264.36 269.287C264.454 269.408 264.589 269.491 264.74 269.52C264.812 269.524 264.885 269.513 264.953 269.488C265.021 269.462 265.083 269.423 265.135 269.372C265.187 269.321 265.227 269.26 265.254 269.192C265.281 269.125 265.293 269.053 265.29 268.98C265.518 264.194 264.455 259.434 262.21 255.2C262.177 255.135 262.131 255.078 262.074 255.033C262.018 254.988 261.952 254.956 261.882 254.939C261.811 254.922 261.738 254.92 261.667 254.934C261.596 254.948 261.529 254.977 261.47 255.02C261.376 255.096 261.307 255.199 261.271 255.315C261.235 255.43 261.235 255.554 261.27 255.67Z" fill="#F0F0F0"/>
<path d="M268.36 269.12C268.385 269.228 268.44 269.327 268.517 269.406C268.595 269.485 268.693 269.542 268.8 269.57C268.871 269.585 268.944 269.584 269.015 269.567C269.086 269.55 269.152 269.518 269.209 269.474C269.266 269.429 269.312 269.372 269.345 269.308C269.378 269.243 269.397 269.172 269.4 269.1C270.4 261.59 266.78 253.78 266.6 253.5C266.565 253.436 266.516 253.381 266.457 253.338C266.399 253.295 266.331 253.265 266.26 253.251C266.188 253.236 266.115 253.238 266.044 253.255C265.973 253.272 265.907 253.305 265.85 253.35C265.74 253.456 265.671 253.597 265.654 253.749C265.638 253.9 265.675 254.053 265.76 254.18C265.76 254.25 269.3 261.87 268.35 268.86C268.338 268.947 268.342 269.035 268.36 269.12Z" fill="#F0F0F0"/>
<path d="M272.6 267.32C272.622 267.426 272.673 267.525 272.747 267.604C272.821 267.684 272.915 267.741 273.02 267.77C273.091 267.784 273.164 267.784 273.234 267.768C273.305 267.752 273.371 267.721 273.429 267.677C273.486 267.634 273.534 267.579 273.569 267.515C273.603 267.452 273.624 267.382 273.63 267.31C274.339 262.121 273.203 256.847 270.42 252.41C270.381 252.349 270.329 252.298 270.268 252.26C270.207 252.221 270.138 252.197 270.066 252.188C269.995 252.18 269.922 252.187 269.853 252.21C269.785 252.233 269.722 252.27 269.67 252.32C269.563 252.431 269.5 252.577 269.491 252.731C269.482 252.885 269.527 253.037 269.62 253.16C272.168 257.315 273.226 262.214 272.62 267.05C272.598 267.138 272.592 267.23 272.6 267.32Z" fill="#F0F0F0"/>
<path d="M277.9 266.06C277.927 266.164 277.979 266.26 278.052 266.339C278.126 266.417 278.218 266.476 278.32 266.51C278.391 266.526 278.464 266.527 278.535 266.512C278.606 266.497 278.673 266.468 278.732 266.425C278.79 266.383 278.839 266.328 278.875 266.265C278.911 266.202 278.933 266.132 278.94 266.06C280.21 258.29 275.76 251.36 275.56 251.06C275.522 250.998 275.472 250.946 275.412 250.906C275.352 250.865 275.284 250.839 275.213 250.827C275.141 250.816 275.068 250.82 274.999 250.84C274.929 250.859 274.865 250.893 274.81 250.94C274.7 251.049 274.633 251.194 274.622 251.349C274.611 251.503 274.657 251.656 274.75 251.78C274.75 251.85 279.08 258.55 277.89 265.78C277.878 265.873 277.882 265.968 277.9 266.06Z" fill="#EBEBEB"/>
<path d="M329 189.26L389.16 201.18C389.16 201.18 395.25 219.37 386.82 233.41C383.841 238.336 379.668 242.431 374.686 245.315C369.704 248.199 364.075 249.78 358.32 249.91C351.234 249.966 344.15 249.632 337.1 248.91C333.388 251.086 329.421 252.796 325.29 254C319.49 255.49 294.02 262.52 294.02 262.52C294.02 262.52 288.02 255.91 290.18 244.02L307.85 229.47C312.16 225.92 316.38 222.26 320.56 218.55C323.41 216.02 325.06 214.91 327.2 214.17C325.33 195.68 325.92 195.22 329 189.26Z" fill="#455A64"/>
<g opacity="0.3">
<path d="M293.18 210.37C296.432 215.132 299.406 220.077 302.09 225.18L296.7 223.46C290.63 208.99 289.38 204.77 279.7 197.98C279.67 198 286.64 200.61 293.18 210.37Z" fill="black"/>
<path d="M343.23 241.54C343.23 241.54 338.9 246.37 326.43 249.87C319.43 251.87 297.81 257.25 291.37 257.93C291.997 259.584 292.885 261.127 294 262.5C294 262.5 319.46 255.5 325.26 253.98C326.525 253.651 327.77 253.25 328.99 252.78C329.53 252.58 330.06 252.37 330.57 252.15C331.9 251.59 333.12 251.02 334.13 250.51C335.14 250 335.96 249.56 336.46 249.27L336.99 248.97H337.05C342.86 245.07 343.23 241.54 343.23 241.54Z" fill="black"/>
<path d="M320.08 219C317.39 221.44 309.94 227.68 309.94 227.68L307.67 226.95C307.67 226.95 319.67 215.4 323.93 212.49C324.678 211.924 325.487 211.441 326.34 211.05C325.06 205.73 326.2 197.41 326.2 197.41C326.276 201.909 327.48 206.317 329.7 210.23C332.961 209.894 336.255 210.28 339.35 211.36C345.92 213.36 364.95 219.14 364.95 219.14C364.95 219.14 346.52 215.07 336.86 213.46C327.2 211.85 322.77 216.58 320.08 219Z" fill="black"/>
</g>
<path d="M335.56 122C324.69 122.81 321.45 129.4 320.91 135.42C320.28 142.34 320.31 158.98 320.31 158.98L305.6 172.67L316.02 184.67C316.02 184.67 327.6 177.6 332.17 174.42C337.77 170.54 337.33 168.08 337.3 158.62C337.27 149.16 336.49 127.33 335.56 122Z" fill="#C8856A"/>
<path d="M391.09 209.52C390.65 206.9 389.91 182.18 386.09 161.98C384.85 155.52 380.09 128.79 378.09 124.03L369.71 122.1C369.71 122.1 353.6 121.19 339.71 121.75L335.62 121.98C334.82 122.98 321.51 137.58 318.43 148.9C317.491 152.807 317.772 156.907 319.235 160.649C320.697 164.391 323.271 167.595 326.61 169.83C326.61 169.83 328.48 180.76 328.49 180.83C328.5 180.9 326.07 186.01 325.11 188.54C327.57 199.28 337.16 211.28 355.86 213.83C378.25 216.92 389.79 210.45 391.09 209.52Z" fill="#81184E"/>
<path opacity="0.3" d="M391.09 209.52C390.65 206.9 389.91 182.18 386.09 161.98C384.85 155.52 380.09 128.79 378.09 124.03L369.71 122.1C369.71 122.1 353.6 121.19 339.71 121.75L335.62 121.98C334.82 122.98 321.51 137.58 318.43 148.9C317.491 152.807 317.772 156.907 319.235 160.649C320.697 164.391 323.271 167.595 326.61 169.83C326.61 169.83 328.48 180.76 328.49 180.83C328.5 180.9 326.07 186.01 325.11 188.54C327.57 199.28 337.16 211.28 355.86 213.83C378.25 216.92 389.79 210.45 391.09 209.52Z" fill="black"/>
<path opacity="0.3" d="M341.32 172.24C341.32 172.24 347.06 178.24 357.38 176.24C360.417 175.701 363.28 174.441 365.729 172.565C368.177 170.689 370.139 168.252 371.45 165.46C371.45 165.46 370.78 176.75 358.07 179.2C354.901 179.946 351.577 179.675 348.571 178.426C345.564 177.177 343.027 175.012 341.32 172.24Z" fill="black"/>
<path d="M318.43 75.26C318.424 74.7543 318.485 74.25 318.61 73.76C319.069 72.0726 320.032 70.5655 321.37 69.44C323.37 67.77 325.99 67.15 328.44 66.44C329.7 66.1648 330.903 65.6779 332 65C332.778 64.2941 333.428 63.4583 333.92 62.53C334.835 61.1445 336.101 60.0266 337.589 59.2905C339.077 58.5544 340.734 58.2264 342.39 58.34C347.79 58.8 346.97 61.17 351.6 61.89C355.72 62.54 358.38 62.52 362.51 65.3C365.4 67.23 366.31 70.13 369.99 70.8C373.3 71.4 376.55 73.87 376.84 77.22C376.97 78.7 376.54 80.3 377.23 81.61C377.642 82.2603 378.151 82.8437 378.74 83.34C379.991 84.5077 380.906 85.989 381.39 87.63C381.624 88.4497 381.693 89.3079 381.592 90.1545C381.49 91.001 381.221 91.8188 380.8 92.56C380.41 93.2 379.89 93.75 379.53 94.41C378.64 96.05 378.89 98.05 378.9 99.93C378.91 101.81 378.44 103.93 376.78 104.84C375.52 105.5 373.91 105.21 372.68 105.91C370.68 107.05 370.73 110.03 369.05 111.56C368.457 112.005 367.78 112.323 367.059 112.495C366.338 112.667 365.59 112.689 364.86 112.56C363.39 112.42 361.94 112.01 360.46 112C358.975 112.104 357.496 112.287 356.03 112.55C354.877 112.61 353.723 112.61 352.57 112.55C351.448 112.55 350.33 112.44 349.23 112.22C348.017 111.973 346.834 111.597 345.7 111.1C344.702 110.488 343.659 109.953 342.58 109.5C341.144 109.177 339.659 109.143 338.21 109.4C336.758 109.525 335.315 109.742 333.89 110.05C331.359 110.709 328.67 110.35 326.4 109.05C325.303 108.454 324.358 107.612 323.64 106.59C322.921 105.568 322.449 104.394 322.26 103.16C322.09 101.73 322.36 100.24 322 98.84C321.48 96.84 319.56 95.66 318.79 93.73C318.145 91.9626 318.22 90.0123 319 88.3C318.183 88.9689 317.525 89.8113 317.073 90.766C316.622 91.7207 316.388 92.7639 316.39 93.82C315.924 93.0732 315.623 92.2349 315.509 91.3618C315.396 90.4888 315.471 89.6014 315.73 88.76C316.26 87.0761 317.105 85.5082 318.22 84.14C318.648 83.6422 318.987 83.0738 319.22 82.46C319.433 81.5704 319.416 80.6411 319.17 79.76C318.798 78.2833 318.551 76.778 318.43 75.26Z" fill="#263238"/>
<path d="M364.29 116.38C364.09 114.22 363.07 101.59 363.07 101.59C363.26 102.39 367.07 104.4 370.07 99.83C373.07 95.26 372.44 90.68 370 88.13C367.3 85.3 362 86.72 360.54 92.05C358.92 91.97 356.87 93.71 356.61 85.6C356.35 83.6 354.08 82.09 352.41 81.26C350.799 80.5369 349.125 79.9612 347.41 79.54C344.946 78.939 342.551 78.0879 340.26 77C338.01 75.85 334.45 73.65 333.16 71.48C329.88 73.48 328.23 76.06 327.04 79.89C325.904 83.4006 325.858 87.1731 326.91 90.71C327.17 91.71 325.86 94 326.39 99.3C327.54 110.92 331.07 113.91 334.79 115.79C337 116.92 341.14 117.05 344.19 116.45L344.5 119.26C344.566 119.519 344.575 119.789 344.527 120.052C344.479 120.315 344.374 120.565 344.22 120.783C344.066 121.002 343.867 121.185 343.635 121.319C343.404 121.453 343.146 121.535 342.88 121.56C341.33 121.68 341.11 121.68 341.11 121.68C342.9 127.68 362.89 126.96 369.65 122.09C368.732 121.864 367.83 121.577 366.95 121.23C365.31 120.6 364.57 119.31 364.29 116.38Z" fill="#C8856A"/>
<path d="M367.6 98.44C367.668 98.8121 367.623 99.196 367.472 99.5428C367.321 99.8896 367.071 100.184 366.753 100.388C366.435 100.593 366.063 100.698 365.685 100.691C365.307 100.684 364.939 100.564 364.629 100.348C364.318 100.132 364.079 99.8285 363.942 99.4762C363.804 99.1239 363.774 98.7387 363.856 98.3694C363.937 98.0001 364.126 97.6633 364.4 97.4017C364.673 97.1401 365.017 96.9655 365.39 96.9C365.887 96.8126 366.399 96.9255 366.813 97.2141C367.227 97.5027 367.51 97.9434 367.6 98.44Z" fill="#81184E"/>
<path d="M346.91 102.16L341.14 104.81C341.297 105.199 341.531 105.553 341.828 105.85C342.125 106.146 342.478 106.38 342.868 106.537C343.257 106.694 343.674 106.771 344.094 106.763C344.513 106.754 344.927 106.662 345.31 106.49C346.084 106.115 346.684 105.454 346.982 104.647C347.28 103.84 347.254 102.949 346.91 102.16Z" fill="#AF6152"/>
<path d="M346.7 103.6C345.897 103.677 345.145 104.03 344.572 104.599C344 105.167 343.642 105.917 343.56 106.72C344.153 106.817 344.762 106.737 345.31 106.49C345.857 106.227 346.32 105.818 346.649 105.308C346.977 104.798 347.158 104.207 347.17 103.6C347.014 103.585 346.856 103.585 346.7 103.6Z" fill="#FFA8A7"/>
<path d="M329 83.42L333.43 81.42C333.312 81.1235 333.134 80.8544 332.908 80.6292C332.682 80.4039 332.412 80.2274 332.115 80.1103C331.818 79.9932 331.5 79.9381 331.181 79.9484C330.862 79.9586 330.549 80.034 330.26 80.17C329.678 80.4524 329.225 80.9445 328.991 81.5474C328.758 82.1503 328.761 82.8193 329 83.42Z" fill="#263238"/>
<path d="M350 84L345.47 82C345.584 81.698 345.758 81.4224 345.982 81.1902C346.206 80.9579 346.475 80.7739 346.773 80.6494C347.071 80.5248 347.391 80.4624 347.714 80.466C348.036 80.4695 348.355 80.5389 348.65 80.67C349.26 80.9446 349.741 81.444 349.993 82.0642C350.244 82.6845 350.247 83.3778 350 84Z" fill="#263238"/>
<path d="M343.21 91.49C343.265 91.8381 343.421 92.1624 343.659 92.4227C343.896 92.683 344.205 92.8678 344.547 92.9542C344.888 93.0405 345.248 93.0247 345.581 92.9086C345.914 92.7926 346.205 92.5813 346.419 92.3012C346.633 92.021 346.759 91.6843 346.784 91.3326C346.808 90.981 346.728 90.6301 346.555 90.3232C346.381 90.0164 346.122 89.7673 345.808 89.6067C345.494 89.4462 345.14 89.3812 344.79 89.42C344.307 89.4871 343.87 89.7422 343.574 90.1299C343.278 90.5175 343.147 91.0063 343.21 91.49Z" fill="#263238"/>
<path d="M329.35 91.32C329.397 91.5518 329.49 91.772 329.622 91.968C329.754 92.1641 329.924 92.3321 330.121 92.4626C330.319 92.5931 330.54 92.6834 330.772 92.7284C331.004 92.7734 331.243 92.7723 331.475 92.725C331.707 92.6777 331.927 92.5853 332.123 92.4529C332.319 92.3205 332.487 92.1508 332.618 91.9535C332.748 91.7562 332.838 91.5351 332.883 91.3029C332.928 91.0706 332.927 90.8318 332.88 90.6C332.838 90.3627 332.749 90.1361 332.619 89.9332C332.489 89.7303 332.32 89.555 332.122 89.4175C331.925 89.28 331.701 89.1829 331.466 89.1319C331.23 89.0808 330.987 89.0768 330.75 89.12C330.273 89.2276 329.859 89.5192 329.596 89.9314C329.334 90.3436 329.246 90.8428 329.35 91.32Z" fill="#263238"/>
<path d="M344.19 116.46C351.78 114.75 357.3 113.37 360.19 106.82C360.019 108.24 359.547 109.606 358.803 110.828C358.06 112.049 357.063 113.097 355.88 113.9C352.49 116.375 348.569 118.025 344.43 118.72L344.19 116.46Z" fill="#AF6152"/>
<path d="M330.89 97H330.72C328.977 96.9775 327.314 96.2665 326.093 95.0221C324.873 93.7778 324.194 92.1011 324.205 90.358C324.216 88.615 324.917 86.9472 326.153 85.7186C327.39 84.4901 329.062 83.8005 330.805 83.8005C332.548 83.8005 334.22 84.4901 335.457 85.7186C336.693 86.9472 337.394 88.615 337.405 90.358C337.416 92.1011 336.737 93.7778 335.517 95.0221C334.296 96.2665 332.633 96.9775 330.89 97ZM329.82 85.34C328.766 85.4368 327.764 85.8422 326.94 86.5056C326.115 87.169 325.504 88.0608 325.184 89.0695C324.864 90.0782 324.848 91.159 325.139 92.1765C325.43 93.1941 326.015 94.1032 326.82 94.7901C327.625 95.4771 328.615 95.9113 329.665 96.0385C330.716 96.1657 331.781 95.9801 332.727 95.5051C333.672 95.0301 334.457 94.2867 334.982 93.368C335.508 92.4492 335.75 91.396 335.68 90.34C335.633 89.636 335.448 88.9482 335.135 88.3159C334.822 87.6835 334.387 87.119 333.856 86.6547C333.325 86.1904 332.707 85.8352 332.039 85.6097C331.37 85.3841 330.664 85.2924 329.96 85.34H329.82Z" fill="#37474F"/>
<path d="M332.72 97.94L339.48 100.21L339.61 86.96L332.72 97.94Z" fill="#AF6152"/>
<path d="M347.05 97.26H346.89C345.214 97.3669 343.565 96.8047 342.303 95.6967C341.041 94.5887 340.27 93.0255 340.16 91.35C340.079 90.1075 340.365 88.8686 340.985 87.7883C341.604 86.7081 342.528 85.8344 343.641 85.2766C344.754 84.7189 346.007 84.5018 347.243 84.6526C348.479 84.8034 349.643 85.3154 350.59 86.1245C351.536 86.9336 352.223 88.0038 352.564 89.2013C352.905 90.3988 352.886 91.6703 352.508 92.8567C352.13 94.0432 351.411 95.0918 350.44 95.8715C349.469 96.6511 348.29 97.1272 347.05 97.24V97.26ZM346 85.6C344.602 85.7249 343.308 86.3925 342.396 87.4598C341.483 88.5271 341.026 89.9092 341.12 91.31C341.166 92.0152 341.35 92.7044 341.663 93.3384C341.975 93.9723 342.409 94.5385 342.94 95.0046C343.471 95.4708 344.089 95.8278 344.758 96.0552C345.427 96.2826 346.135 96.376 346.84 96.33C347.545 96.284 348.234 96.0996 348.868 95.7873C349.502 95.4749 350.068 95.0408 350.535 94.5097C351.001 93.9785 351.358 93.3607 351.585 92.6916C351.813 92.0225 351.906 91.3152 351.86 90.61H352.33H351.86C351.757 89.1912 351.099 87.8702 350.028 86.934C348.957 85.9978 347.56 85.522 346.14 85.61L346 85.6Z" fill="#37474F"/>
<path d="M340.17 91.34C340.064 90.968 339.844 90.6386 339.54 90.3982C339.237 90.1579 338.866 90.0186 338.48 90C338.07 89.9994 337.67 90.1248 337.334 90.3591C336.998 90.5934 336.741 90.9253 336.6 91.31L335.72 90.95C335.927 90.3767 336.311 89.8838 336.816 89.5424C337.321 89.201 337.921 89.0286 338.53 89.05C339.109 89.0807 339.665 89.2892 340.121 89.6471C340.577 90.005 340.912 90.4949 341.08 91.05L340.17 91.34Z" fill="#37474F"/>
<path d="M360.73 90.83H360.62L352.22 90.35C352.157 90.3475 352.096 90.3325 352.039 90.3058C351.982 90.2791 351.932 90.2414 351.89 90.1948C351.848 90.1482 351.816 90.0937 351.795 90.0345C351.774 89.9753 351.766 89.9126 351.77 89.85C351.772 89.7874 351.788 89.7259 351.814 89.6692C351.841 89.6125 351.879 89.5616 351.925 89.5197C351.972 89.4778 352.026 89.4456 352.085 89.425C352.145 89.4045 352.207 89.396 352.27 89.4L360.68 89.88C360.805 89.8734 360.927 89.9166 361.02 90C361.112 90.0835 361.168 90.2004 361.175 90.325C361.182 90.4497 361.138 90.5719 361.055 90.6647C360.972 90.7575 360.855 90.8134 360.73 90.82V90.83Z" fill="#37474F"/>
<path d="M362.61 89.46L368.84 88.91C368.84 88.91 369.52 82.6 369.63 78.85C369.63 78.12 369.63 76.6 369.63 76.39C369.52 72.45 368.33 68.09 365.38 66.02C363.318 64.6153 360.973 63.68 358.51 63.28C359.776 63.7753 360.917 64.5425 361.854 65.5274C362.79 66.5124 363.499 67.691 363.93 68.98C364.463 70.5382 364.681 72.1869 364.57 73.83C364.57 74.51 364.57 75.33 364.5 76.23C364.1 81.49 362.61 89.46 362.61 89.46Z" fill="#455A64"/>
<path d="M360.62 100.6C359.796 98.4191 359.492 96.076 359.731 93.7569C359.971 91.4378 360.748 89.2065 362 87.24C362.61 86.326 363.452 85.5909 364.44 85.11C365.05 84.8323 365.723 84.7219 366.39 84.79L368.61 85.03C370.13 85.21 371.5 86.4 372.38 88.4C373.204 90.581 373.508 92.924 373.269 95.2431C373.029 97.5622 372.252 99.7936 371 101.76C370.389 102.677 369.543 103.412 368.55 103.89C367.943 104.178 367.267 104.288 366.6 104.21L364.4 103.97C362.88 103.79 361.5 102.61 360.62 100.6Z" fill="#37474F"/>
<path d="M368.55 103.89C369.543 103.412 370.389 102.677 371 101.76C372.252 99.7935 373.029 97.5622 373.269 95.2431C373.508 92.924 373.204 90.5809 372.38 88.4C371.13 85.56 368.89 84.4 366.66 85.35C365.669 85.831 364.824 86.5659 364.21 87.48C362.956 89.4477 362.178 91.6808 361.939 94.0018C361.699 96.3228 362.004 98.6676 362.83 100.85C364.08 103.69 366.33 104.89 368.55 103.89Z" fill="#263238"/>
<path d="M363.26 100.66C362.467 98.5555 362.174 96.2953 362.405 94.0582C362.636 91.821 363.384 89.6683 364.59 87.77C365.79 86.1 367.22 85.36 368.59 85.51L369.69 85.63C371.02 85.78 372.26 86.82 373.09 88.71C373.889 90.8135 374.184 93.0746 373.953 95.3127C373.722 97.5508 372.971 99.7039 371.76 101.6C370.56 103.27 369.14 104.01 367.76 103.86L366.65 103.73C365.33 103.59 364.09 102.55 363.26 100.66Z" fill="#F0F0F0"/>
<path d="M365.7 87.89C364.492 89.7873 363.742 91.9403 363.511 94.1778C363.281 96.4154 363.574 98.6759 364.37 100.78C366.03 104.57 369.32 104.93 371.72 101.6C372.931 99.7039 373.682 97.5508 373.913 95.3127C374.144 93.0746 373.849 90.8135 373.05 88.71C371.39 84.93 368.1 84.56 365.7 87.89Z" fill="#E0E0E0"/>
<path d="M364.37 100.78C363.574 98.6759 363.281 96.4153 363.511 94.1778C363.742 91.9402 364.492 89.7873 365.7 87.89C366.9 86.23 368.32 85.49 369.65 85.63C370.02 85.68 370.71 85.8 371.08 85.84C372.41 85.99 373.65 87.03 374.48 88.92C375.273 91.0245 375.566 93.2847 375.335 95.5218C375.104 97.759 374.356 99.9117 373.15 101.81C371.95 103.47 370.53 104.21 369.2 104.06C368.83 104.06 368.14 103.9 367.77 103.86C366.44 103.71 365.2 102.67 364.37 100.78Z" fill="#81184E"/>
<path opacity="0.15" d="M367.12 88.1C365.912 89.9994 365.163 92.154 364.932 94.393C364.702 96.6321 364.995 98.8941 365.79 101C367.46 104.78 370.79 105.15 373.15 101.82C374.356 99.9218 375.104 97.769 375.335 95.5318C375.566 93.2947 375.273 91.0345 374.48 88.93C372.81 85.13 369.52 84.76 367.12 88.1Z" fill="white"/>
<path d="M369.37 91.57C368.736 92.5667 368.342 93.6973 368.221 94.8724C368.099 96.0474 368.253 97.2346 368.67 98.34C369.54 100.34 371.27 100.52 372.53 98.77C373.164 97.7733 373.557 96.6427 373.679 95.4676C373.8 94.2925 373.647 93.1053 373.23 92C372.36 90 370.63 89.82 369.37 91.57Z" fill="#263238"/>
<path d="M368.49 94.16L371.12 95.16L371.61 90.38C371.191 90.3733 370.778 90.4792 370.414 90.6868C370.049 90.8944 369.748 91.196 369.54 91.56C369.011 92.3433 368.654 93.2292 368.49 94.16Z" fill="#455A64"/>
<path d="M368.84 98.36C368.968 98.7633 369.202 99.125 369.516 99.408C369.831 99.691 370.215 99.885 370.63 99.97L371.12 95.19L368.49 94.19C368.207 95.585 368.328 97.0317 368.84 98.36Z" fill="#37474F"/>
<path d="M370.63 100C371.05 100.01 371.464 99.9054 371.829 99.6975C372.194 99.4896 372.495 99.1862 372.7 98.82C373.217 98.0468 373.559 97.1695 373.7 96.25L371.08 95.25L370.63 100Z" fill="#455A64"/>
<path d="M371.12 95.19L373.74 96.19C374.037 94.7867 373.918 93.3273 373.4 91.99C373.272 91.5867 373.038 91.225 372.724 90.942C372.409 90.659 372.025 90.465 371.61 90.38L371.12 95.19Z" fill="#37474F"/>
<path d="M356 224.52V225.75C356.001 226.358 355.841 226.955 355.537 227.482C355.234 228.009 354.796 228.446 354.27 228.75L321.08 248.05C320.549 248.354 319.947 248.514 319.335 248.514C318.723 248.514 318.121 248.354 317.59 248.05L256.4 213.05C255.869 212.749 255.426 212.313 255.117 211.786C254.808 211.26 254.643 210.661 254.64 210.05V209.2L319.34 246.2L356 224.52Z" fill="#EBEBEB"/>
<path d="M254.66 209.25L290.76 188.2C291.078 188.018 291.438 187.923 291.805 187.923C292.171 187.923 292.532 188.018 292.85 188.2L355.79 224.2C355.861 224.24 355.919 224.298 355.96 224.369C356.001 224.439 356.023 224.519 356.023 224.6C356.023 224.681 356.001 224.761 355.96 224.831C355.919 224.902 355.861 224.96 355.79 225L319.35 246.26L254.66 209.25Z" fill="#FAFAFA"/>
<path d="M319.68 243.16L339.15 231.81L281.92 199.1L262.35 210.39L319.68 243.16Z" fill="#E0E0E0"/>
<path d="M329.13 211.79L328.77 212L319.23 217.57L302.17 207.82L301.82 207.62L311.72 201.84L329.13 211.79Z" fill="#E0E0E0"/>
<path d="M328.77 212L319.23 217.57L302.17 207.82L311.72 202.25L328.77 212Z" fill="#E6E6E6"/>
<path d="M319.36 246.23V248.55C318.747 248.552 318.143 248.393 317.61 248.09L256.42 213.09C255.889 212.789 255.446 212.353 255.137 211.826C254.828 211.3 254.663 210.701 254.66 210.09V209.24L319.36 246.23Z" fill="#EBEBEB"/>
<g style="mix-blend-mode:multiply" opacity="0.5">
<path d="M319.36 246.23V248.55C318.747 248.552 318.143 248.393 317.61 248.09L256.42 213.09C255.889 212.789 255.446 212.353 255.137 211.826C254.828 211.3 254.663 210.701 254.66 210.09V209.24L319.36 246.23Z" fill="#E0E0E0"/>
</g>
<path d="M270.8 200.88C272.5 198.01 274.68 195.41 276.18 192.42C277.781 190.484 279.526 188.672 281.4 187C286.82 182.38 288.32 182.36 295.4 179.42C299.203 177.866 302.667 175.587 305.6 172.71L316.02 184.71C315.02 185.41 314.02 186.11 313.02 186.81C311.47 187.96 309.66 191.81 306.07 193.51C301.32 195.79 295.43 195.01 295.01 196.51C295.081 197.413 295.031 198.321 294.86 199.21C295.737 198.727 296.686 198.39 297.67 198.21C298.57 198.1 299.96 199.08 299.75 199.73C299.54 200.38 298.99 200.66 298.39 201.24C297.97 201.63 296.55 203 296.39 203.16C295.002 203.927 293.435 204.311 291.85 204.27C291.499 204.232 291.164 204.102 290.88 203.893C290.595 203.684 290.371 203.404 290.23 203.08C289.907 203.257 289.573 203.414 289.23 203.55C288.587 203.802 287.873 203.802 287.23 203.55C286.885 203.353 286.625 203.036 286.5 202.66C285.67 202.684 284.841 202.586 284.04 202.37C282.9 201.86 282.77 200.51 282.48 199.46C282.117 198.138 281.952 196.77 281.99 195.4C278.87 197.69 276.64 201.65 272.72 202.69C271.26 203 269.38 202.62 270.8 200.88Z" fill="#C8856A"/>
<path d="M402.82 179C400.01 163.25 397.36 149 394.07 137.56C392.25 131.24 387.28 124.7 378.07 124.04C369.57 130.14 373.33 148.47 374.55 152.91L381.42 180.51C381.42 180.51 376.18 185.18 368.42 190.9C361.87 195.74 357.63 199.58 349.89 200.53C342.15 201.48 339 201.22 335 203C332.85 203.94 328 206.12 326.29 207C324.58 207.88 321.63 210.89 318.86 212.94C316.25 215.02 319.52 216.17 321.54 215.57C323.689 214.839 325.732 213.83 327.62 212.57C329.304 211.765 331.049 211.096 332.84 210.57C332.278 212.563 331.913 214.606 331.75 216.67C331.75 217.78 331.51 219.13 332.48 219.95C333.209 220.381 333.997 220.701 334.82 220.9C334.842 221.303 335.005 221.685 335.28 221.98C335.86 222.391 336.574 222.57 337.28 222.48C337.66 222.446 338.037 222.389 338.41 222.31C338.457 222.665 338.599 223.001 338.821 223.282C339.043 223.564 339.336 223.781 339.67 223.91C341.211 224.385 342.852 224.436 344.42 224.06C344.65 223.96 346.42 223 346.93 222.73C347.59 222.497 348.188 222.117 348.68 221.62C349.06 221.04 347.97 219.71 347.06 219.62C346.056 219.526 345.043 219.593 344.06 219.82C344.466 218.996 344.758 218.122 344.93 217.22C345.75 215.89 351.7 217.22 356.93 216.28C360.93 215.58 363.79 211.78 365.58 210.97C377.05 205.76 383.7 203.53 395.27 196.5C405.81 190 404.28 187.17 402.82 179Z" fill="#C8856A"/>
<path d="M331.76 210.91C332.37 209.4 333.31 207.6 334.45 207.18C333.747 208.223 333.188 209.357 332.79 210.55C332.45 210.68 332.1 210.79 331.76 210.91Z" fill="#AF6152"/>
<path d="M334.77 220.88C334.585 219.797 334.545 218.694 334.65 217.6C334.73 216.506 334.87 215.418 335.07 214.34C335.235 213.245 335.531 212.174 335.95 211.15C336.356 210.1 337.049 209.185 337.95 208.51C337.577 208.903 337.273 209.356 337.05 209.85C336.808 210.323 336.604 210.814 336.44 211.32C336.126 212.344 335.889 213.39 335.73 214.45C335.52 215.52 335.35 216.58 335.17 217.65C334.971 218.718 334.838 219.796 334.77 220.88Z" fill="#AF6152"/>
<path d="M338.35 222.29C338.23 221.217 338.23 220.133 338.35 219.06C338.441 217.988 338.598 216.923 338.82 215.87C339.03 214.809 339.321 213.766 339.69 212.75C339.982 211.698 340.548 210.742 341.33 209.98C341 210.394 340.755 210.87 340.61 211.38C340.431 211.879 340.278 212.386 340.15 212.9C339.89 213.9 339.64 214.9 339.43 215.99C339 218.07 338.59 220.16 338.35 222.29Z" fill="#AF6152"/>
<path d="M347 219.55C346.55 219.558 346.104 219.622 345.67 219.74C345.24 219.84 344.93 220.06 344.39 220.24L344.61 219.88C344.638 220.097 344.611 220.317 344.53 220.52C344.459 220.705 344.354 220.874 344.22 221.02C343.989 221.307 343.674 221.517 343.32 221.62C343.529 221.363 343.71 221.085 343.86 220.79C343.92 220.656 343.964 220.515 343.99 220.37C344.009 220.247 344.009 220.123 343.99 220V219.75L344.24 219.65C344.638 219.49 345.061 219.399 345.49 219.38C345.999 219.289 346.524 219.348 347 219.55Z" fill="#AF6152"/>
<path d="M318.37 246.75C317.795 246.976 317.177 247.069 316.56 247.024C315.944 246.979 315.346 246.797 314.81 246.49L253.88 211.66C253.356 211.355 252.906 210.94 252.56 210.442C252.214 209.945 251.982 209.377 251.88 208.78L245 169.14C244.961 168.915 244.941 168.688 244.94 168.46C244.929 167.904 245.03 167.352 245.238 166.836C245.446 166.321 245.756 165.853 246.15 165.46L309.46 201.66C309.851 201.883 310.188 202.19 310.447 202.558C310.706 202.926 310.881 203.347 310.96 203.79L318.37 246.75Z" fill="#81184E"/>
<g opacity="0.7">
<path d="M318.37 246.75C317.795 246.976 317.177 247.069 316.56 247.024C315.944 246.979 315.346 246.797 314.81 246.49L253.88 211.66C253.356 211.355 252.906 210.94 252.56 210.442C252.214 209.945 251.982 209.377 251.88 208.78L245 169.14C244.961 168.915 244.941 168.688 244.94 168.46C244.929 167.904 245.03 167.352 245.238 166.836C245.446 166.321 245.756 165.853 246.15 165.46L309.46 201.66C309.851 201.883 310.188 202.19 310.447 202.558C310.706 202.926 310.881 203.347 310.96 203.79L318.37 246.75Z" fill="white"/>
</g>
<path d="M319.36 246.23L318.94 246.47C318.756 246.575 318.566 246.669 318.37 246.75L311 203.84C310.921 203.397 310.746 202.976 310.487 202.608C310.228 202.24 309.891 201.933 309.5 201.71L246.19 165.51C246.442 165.262 246.724 165.047 247.03 164.87L310.47 201.13C310.862 201.351 311.2 201.657 311.458 202.025C311.716 202.394 311.887 202.816 311.96 203.26L319.36 246.23Z" fill="#FAFAFA"/>
<path d="M284 210.27C283.54 207.61 280.78 204.1 277.84 202.42C274.9 200.74 272.84 201.52 273.33 204.17C273.82 206.82 276.55 210.35 279.49 212.03C282.43 213.71 284.44 212.92 284 210.27Z" fill="#81184E"/>


<style>
.el1 {
    animation: an1 4s infinite;
}
.el2 {
    animation: an1 4s infinite;
}
.el3 {
    animation: an1 4s infinite;
     animation-delay:1s;
}

.el4 {
    animation: an1 3s infinite;
     animation-delay:1s;
}

@keyframes an1 {
    0% {
       transform: translateY(0);
    }
    50% {
      transform: translateY(10px);
    }
    100% {
       transform: translateY(0);
    }
}

</style>

</svg>
