<svg width="580" height="580" viewBox="0 0 580 580" fill="none" xmlns="http://www.w3.org/2000/svg">
<path d="M523.462 109.852H265.269V473.361H523.462V109.852Z" fill="#EBEBEB"/>

<g class="el1">
<path d="M489.938 69.6002C492.558 68.0179 495.379 66.793 498.324 65.9578L500.053 57.6522L514.089 57.397L516.107 65.6446C519.086 66.3759 521.954 67.5034 524.633 68.997L531.721 64.357L541.824 74.101L537.428 81.351C539.01 83.9759 540.235 86.8003 541.07 89.7494L549.376 91.4778L549.62 105.514L541.384 107.532C540.649 110.507 539.522 113.37 538.031 116.047L542.671 123.146L532.916 133.238L525.666 128.841C523.045 130.427 520.225 131.656 517.279 132.495L515.55 140.801L501.514 141.045L499.496 132.809C496.522 132.074 493.658 130.947 490.982 129.456L483.882 134.096L473.79 124.341L478.187 117.091C476.594 114.47 475.365 111.644 474.533 108.692L466.227 106.964L465.984 92.9278L474.22 90.9094C474.958 87.9363 476.085 85.0735 477.572 82.395L472.932 75.3074L482.688 65.2038L489.938 69.6002ZM497.42 88.2994C495.342 90.4428 493.948 93.1544 493.413 96.0909C492.878 99.0273 493.226 102.056 494.414 104.795C495.602 107.533 497.576 109.857 500.085 111.473C502.595 113.089 505.527 113.924 508.512 113.872C511.496 113.82 514.398 112.883 516.85 111.181C519.301 109.478 521.193 107.087 522.284 104.309C523.376 101.531 523.618 98.4912 522.981 95.5752C522.344 92.6592 520.856 89.9979 518.706 87.9282C515.827 85.1642 511.971 83.6537 507.981 83.7276C503.991 83.8015 500.193 85.4539 497.42 88.3226V88.2994Z" fill="#E0E0E0"/>
<path d="M497.42 88.3225C498.21 87.3444 499.159 86.5054 500.227 85.8401C503.13 83.951 506.599 83.1308 510.04 83.5201C512.419 83.7554 514.709 84.5504 516.722 85.8401C519.035 87.3515 520.901 89.4542 522.128 91.9301C523.507 94.712 524.012 97.8458 523.578 100.92C523.149 104.195 521.676 107.244 519.378 109.616C517.079 111.988 514.077 113.555 510.818 114.086C509.285 114.358 507.718 114.382 506.178 114.156C504.703 113.993 503.263 113.602 501.909 112.996C499.392 111.862 497.228 110.071 495.645 107.811C493.963 105.416 493.008 102.587 492.894 99.6628C492.781 96.7387 493.515 93.8442 495.007 91.3269C495.619 90.2448 496.402 89.2692 497.327 88.4385C497.408 88.5081 496.422 89.4245 495.262 91.4893C493.643 94.4255 493.055 97.8193 493.592 101.129C493.953 103.394 494.839 105.543 496.178 107.404C497.717 109.53 499.79 111.211 502.187 112.277C504.84 113.44 507.777 113.799 510.632 113.309C513.699 112.784 516.519 111.293 518.68 109.055C520.842 106.816 522.232 103.946 522.65 100.862C523.03 97.9925 522.566 95.0743 521.316 92.4637C520.167 90.1136 518.413 88.1117 516.235 86.6637C514.328 85.3998 512.15 84.6049 509.878 84.3437C506.553 83.923 503.184 84.6296 500.308 86.3505C498.371 87.3829 497.489 88.4037 497.42 88.3225Z" fill="#E0E0E0"/>
<path d="M489.938 69.6001C489.776 69.5334 489.62 69.4519 489.474 69.3565L488.082 68.5561L482.56 65.3429H482.734L473.048 75.5045V75.2261L477.688 82.3021L477.92 82.3601L477.85 82.4993C476.379 85.1581 475.271 88.0023 474.556 90.9557V91.1181H474.394L466.158 93.1597L466.39 92.8581C466.482 97.2816 466.575 101.96 466.668 106.894L466.32 106.72L474.626 108.425H474.846L474.904 108.634C475.732 111.549 476.95 114.339 478.523 116.928L478.639 117.125L478.523 117.323L474.138 124.573L474.08 124.097L484.184 133.841H483.685L490.773 129.201L490.982 129.062L491.202 129.189C493.848 130.655 496.676 131.766 499.612 132.495H499.856L499.925 132.739C500.552 135.314 501.248 138.133 501.944 140.975L501.526 140.662L515.562 140.407L515.144 140.743L516.873 132.437L516.931 132.182L517.186 132.113C520.091 131.287 522.872 130.078 525.457 128.517L525.689 128.389L525.909 128.517L533.159 132.925H532.626L542.37 122.833V123.366L537.73 116.267L537.579 116.058L537.706 115.826C539.181 113.187 540.297 110.362 541.024 107.428L541.082 107.173H541.326L549.573 105.166L549.26 105.572C549.183 100.777 549.105 96.0984 549.028 91.5357L549.341 91.9185L541.036 90.1785H540.804L540.746 89.9465C539.919 87.0314 538.709 84.2386 537.15 81.6409L537.034 81.4437L537.08 81.2001L541.488 73.9501L541.546 74.4025L531.466 64.6237H531.883L524.772 69.2637L524.622 69.3681L524.459 69.2753C521.81 67.7903 518.974 66.6667 516.026 65.9345H515.852V65.7721C515.121 62.7677 514.472 60.0765 513.857 57.5245L514.112 57.7217L500.076 57.8957L500.262 57.7449C499.542 61.0625 498.962 63.7769 498.475 66.0389V66.1201H498.394C496.179 66.7387 494.027 67.566 491.968 68.5909L490.46 69.3797C490.3 69.4781 490.134 69.5634 489.961 69.6349C490.11 69.5226 490.265 69.4181 490.425 69.3217C490.75 69.1245 491.237 68.8229 491.91 68.4633C493.95 67.378 496.095 66.5034 498.313 65.8533L498.22 65.9577C498.672 63.6377 499.218 60.9697 499.89 57.6405V57.4897H500.041L514.077 57.1765H514.274V57.3737C514.901 59.9257 515.574 62.6169 516.316 65.6097L516.107 65.4009C519.113 66.13 522.007 67.2575 524.714 68.7533H524.39L531.466 64.1133L531.686 63.9741L531.883 64.1481L541.998 73.8805L542.207 74.0777L542.056 74.3213C540.63 76.6413 539.18 79.1005 537.672 81.5829V81.2001C539.275 83.8504 540.519 86.7019 541.372 89.6797L541.082 89.4013L549.388 91.1297H549.701V91.4545C549.794 96.0094 549.883 100.684 549.968 105.479V105.815L549.654 105.885L541.418 107.915L541.72 107.613C540.977 110.623 539.838 113.522 538.333 116.232V115.791L542.973 122.891L543.158 123.169L542.915 123.413L533.171 133.516L532.939 133.76L532.637 133.586L525.48 129.224H525.921C523.268 130.829 520.412 132.069 517.43 132.913L517.731 132.588L516.003 140.894L515.933 141.23H515.585L501.549 141.462H501.213L501.132 141.137C500.436 138.284 499.751 135.477 499.125 132.89L499.426 133.203C496.418 132.45 493.52 131.308 490.808 129.804H491.237L484.138 134.444L483.871 134.618L483.639 134.398C480.159 130.999 476.679 127.693 473.547 124.631L473.326 124.41L473.489 124.155L477.897 116.905V117.299C476.306 114.643 475.073 111.788 474.231 108.808L474.44 109.04L466.134 107.3H465.868V107.033C465.783 102.107 465.709 97.4285 465.647 92.9973V92.7537L465.879 92.6957L474.127 90.7005L473.93 90.8977C474.688 87.9114 475.843 85.0401 477.363 82.3601V82.6153L472.723 75.5045L472.63 75.3537L472.758 75.2377L482.56 65.1341L482.641 65.0529L482.734 65.1109L488.07 68.4401L489.45 69.3101C489.618 69.3982 489.78 69.495 489.938 69.6001Z" fill="#E0E0E0"/>
</g>
<g class="el2">
<path d="M428.69 41.2149C430.265 40.271 431.958 39.5378 433.724 39.0341L434.756 34.0693L443.155 33.9185L444.315 38.8485C446.099 39.2847 447.816 39.9597 449.419 40.8553L453.664 38.0713L459.708 43.8713L457.075 48.2097C458.065 49.7825 458.834 51.4844 459.36 53.2673L464.336 54.3113L464.487 62.7097L459.546 63.8697C459.109 65.6536 458.434 67.3704 457.539 68.9737L460.323 73.2193L454.523 79.2629L450.08 76.6761C448.515 77.6296 446.83 78.3708 445.069 78.8801L444.036 83.8565L435.626 83.9957L434.466 79.0657C432.686 78.6294 430.973 77.9544 429.374 77.0589L425.128 79.8429L419.085 74.0429L421.66 69.6001C420.718 68.0275 419.985 66.3391 419.479 64.5773L414.514 63.5449L414.364 55.1349L419.294 53.9749C419.733 52.1957 420.408 50.4831 421.3 48.8825L418.516 44.6369L424.316 38.5817L428.655 41.2149H428.69ZM433.179 52.4089C431.942 53.6918 431.114 55.3124 430.798 57.0659C430.482 58.8194 430.693 60.6272 431.405 62.2608C432.116 63.8945 433.295 65.2807 434.794 66.2444C436.292 67.2081 438.043 67.706 439.824 67.6752C441.606 67.6444 443.338 67.0864 444.803 66.0715C446.267 65.0566 447.398 63.6305 448.052 61.9733C448.706 60.316 448.855 58.502 448.479 56.7605C448.103 55.0189 447.219 53.4279 445.939 52.1885C445.088 51.3624 444.082 50.7126 442.98 50.2764C441.877 49.8402 440.699 49.6262 439.513 49.6466C438.327 49.6671 437.157 49.9217 436.07 50.3957C434.983 50.8698 434.001 51.5539 433.179 52.4089Z" fill="#F5F5F5"/>
<path d="M433.179 52.4089C433.65 51.8286 434.215 51.3307 434.849 50.9357C436.59 49.806 438.668 49.3141 440.73 49.5437C442.265 49.7097 443.733 50.2617 444.996 51.1481C446.26 52.0345 447.279 53.2265 447.957 54.6129C448.366 55.4061 448.644 56.26 448.781 57.1417C448.932 58.0596 448.932 58.9961 448.781 59.9141C448.529 61.8703 447.654 63.6935 446.286 65.114C444.917 66.5346 443.128 67.477 441.183 67.8021C440.26 67.9468 439.321 67.9468 438.399 67.8021C437.139 67.6315 435.928 67.2024 434.842 66.5417C433.756 65.8809 432.819 65.0028 432.088 63.9625C431.265 62.7896 430.732 61.4378 430.534 60.0185C430.222 57.9679 430.632 55.8724 431.694 54.0909C432.07 53.4423 432.547 52.8586 433.109 52.3625C433.109 52.3625 432.564 52.9541 431.868 54.1953C431.263 55.2711 430.89 56.4616 430.772 57.6903C430.655 58.919 430.795 60.1587 431.185 61.3297C431.575 62.5008 432.206 63.5773 433.037 64.4902C433.868 65.4031 434.88 66.1321 436.009 66.6305C436.781 66.9805 437.603 67.2075 438.445 67.3033C439.316 67.4344 440.203 67.4148 441.067 67.2453C442.905 66.9381 444.596 66.0486 445.891 64.7079C447.186 63.3672 448.016 61.646 448.259 59.7981C448.404 58.9302 448.404 58.0443 448.259 57.1765C448.126 56.3436 447.872 55.5347 447.505 54.7753C446.812 53.3668 445.76 52.1663 444.454 51.2953C443.329 50.5373 442.042 50.0526 440.696 49.8801C438.687 49.6051 436.644 50.0137 434.896 51.0401C433.747 51.8521 433.214 52.4553 433.179 52.4089Z" fill="#F5F5F5"/>
<path d="M428.69 41.2149L428.411 41.0757L427.588 40.5885L424.316 38.6629H424.409L418.609 44.7413V44.5789L421.405 48.8129V48.8941V48.9753C420.531 50.5727 419.868 52.2766 419.433 54.0445V54.1373H419.34L414.41 55.3669L414.549 55.1813C414.549 57.8261 414.654 60.6333 414.712 63.5797L414.549 63.3825L419.526 64.4149H419.653V64.5425C420.154 66.286 420.883 67.9554 421.822 69.5073L421.892 69.6233L421.822 69.7393L419.201 74.0777V73.7993L425.256 79.5993H424.954L429.2 76.8153L429.328 76.7341L429.455 76.8037C431.038 77.6813 432.731 78.3445 434.49 78.7757H434.64V78.9265C435.023 80.4693 435.441 82.1513 435.858 83.8565L435.603 83.6709L444.002 83.5201L443.758 83.7173C444.083 82.1513 444.442 80.4577 444.79 78.7525V78.5901H444.941C446.679 78.0894 448.344 77.3641 449.894 76.4325L450.034 76.3513L450.173 76.4325L454.511 79.0657H454.186C456.158 77.0241 458.107 75.0173 459.986 73.0221V73.3469L457.202 69.1013L457.121 68.9621L457.191 68.8345C458.074 67.2523 458.741 65.5592 459.174 63.8001V63.6493H459.314L464.244 62.4893L464.058 62.7329C464.012 59.8716 463.965 57.0721 463.919 54.3345L464.116 54.5665L459.14 53.5225H459V53.3833C458.508 51.637 457.786 49.9636 456.854 48.4069L456.773 48.2909L456.854 48.1749L459.488 43.8481V44.1033C457.365 42.0501 455.358 40.1129 453.456 38.3033H453.699L449.442 41.0757L449.349 41.1453H449.256C447.7 40.2162 446.026 39.4984 444.28 39.0109H444.176V38.9181C443.746 37.1201 443.352 35.5077 443.016 33.9765L443.166 34.0925L434.768 34.1969L434.884 34.1157C434.455 36.0993 434.107 37.7233 433.817 39.0805C432.464 39.4609 431.152 39.9698 429.896 40.6001L428.991 41.0757C428.899 41.1415 428.797 41.1923 428.69 41.2265L428.98 41.0409C429.165 40.9249 429.455 40.7393 429.861 40.5305C431.084 39.8784 432.371 39.3536 433.701 38.9645L433.643 39.0341C433.91 37.6769 434.234 36.0413 434.64 34.0461V33.9649H434.733L443.132 33.7793H443.248V33.9069C443.63 35.4265 444.025 37.0389 444.408 38.8369L444.292 38.7093C446.087 39.1443 447.815 39.8193 449.43 40.7161H449.245L453.56 37.9089L453.699 37.8161L453.815 37.9321L459.87 43.7321L459.986 43.8481L459.905 43.9989L457.272 48.3373V48.1053C458.236 49.6912 458.982 51.4003 459.488 53.1861L459.314 53.0237L464.29 54.0561H464.476V54.2417C464.534 56.9793 464.58 59.7749 464.638 62.6517V62.8373L464.452 62.8953L459.511 64.0553L459.696 63.8697C459.259 65.6732 458.58 67.4095 457.678 69.0317V68.7765L460.52 73.0801L460.624 73.2425L460.485 73.3933L454.685 79.4369L454.546 79.5877L454.372 79.4833L450.022 76.8501H450.289C448.702 77.809 446.993 78.5503 445.208 79.0541L445.394 78.8685C445.034 80.5737 444.686 82.2673 444.35 83.8333V84.0421H444.141L435.742 84.1813H435.534V83.9841C435.116 82.2789 434.71 80.5969 434.374 79.0425L434.559 79.2281C432.692 78.8145 430.89 78.1511 429.2 77.2561H429.455L425.21 80.0401L425.047 80.1445L424.908 80.0401C422.82 78.0101 420.767 76.0381 418.876 74.2401L418.737 74.1125L418.841 73.9617L421.474 69.6233V69.8553C420.521 68.2665 419.784 66.5579 419.282 64.7745L419.444 64.9253L414.468 63.8001H414.306V63.6377C414.306 60.6913 414.224 57.8377 414.178 55.2393V55.0885H414.317L419.259 53.9285L419.131 54.0561C419.577 52.2591 420.264 50.5306 421.173 48.9173V49.0797L418.412 44.8225L418.354 44.7297L418.424 44.6601C420.813 42.2125 422.785 40.1825 424.293 38.6513H424.351L427.553 40.6465L428.365 41.1685L428.69 41.2149Z" fill="#F5F5F5"/>
</g>


<path d="M203.65 59.7285H51.794V311.101H203.65V59.7285Z" fill="#E0E0E0"/>
<path d="M198.604 59.7285H46.748V311.101H198.604V59.7285Z" fill="#EBEBEB"/>
<path d="M192.142 64.8208H53.2092V305.996H192.142V64.8208Z" fill="#FAFAFA"/>
<path d="M165.091 96.1641H79.6572V274.665H165.091V96.1641Z" fill="#EBEBEB"/>
<path d="M79.6572 211.491C79.46 194.822 94.4588 178.547 110.977 176.216C118.854 175.056 127.217 176.668 134.572 173.652C147.703 168.27 151.879 150.823 165.103 145.65L165.706 274.665H79.6572V211.491Z" fill="#E0E0E0"/>
<path d="M412.809 486.759C414.533 485.714 416.391 484.906 418.331 484.358L419.491 478.895L428.713 478.732L430.047 484.149C432.003 484.634 433.887 485.375 435.65 486.353L440.29 483.303L446.925 489.706L444.036 494.473C445.078 496.2 445.885 498.056 446.438 499.995L451.901 501.155L452.064 510.435L446.6 511.699C446.113 513.655 445.372 515.539 444.396 517.302L447.447 521.942L441.044 528.577L436.264 525.689C434.54 526.734 432.683 527.542 430.743 528.09L429.583 533.554L420.361 533.716L419.027 528.287C417.071 527.807 415.187 527.069 413.424 526.095L408.784 529.146L402.149 522.731L405.037 517.963C403.992 516.239 403.184 514.382 402.636 512.442L397.172 511.282L397.01 502.06L402.52 500.772C403.005 498.816 403.746 496.932 404.724 495.169L401.673 490.529L408.076 483.883L412.856 486.783L412.809 486.759ZM417.728 499.055C416.366 500.464 415.452 502.246 415.102 504.174C414.753 506.102 414.983 508.091 415.764 509.888C416.545 511.686 417.842 513.211 419.49 514.271C421.138 515.332 423.063 515.88 425.022 515.846C426.982 515.811 428.887 515.197 430.497 514.08C432.107 512.963 433.35 511.393 434.068 509.57C434.786 507.746 434.947 505.751 434.53 503.836C434.114 501.921 433.139 500.173 431.729 498.812C430.794 497.908 429.69 497.197 428.48 496.719C427.27 496.242 425.978 496.008 424.678 496.031C423.377 496.054 422.094 496.332 420.902 496.851C419.709 497.37 418.63 498.119 417.728 499.055Z" fill="#F5F5F5"/>
<path d="M546.128 541.616C546.128 541.616 546.673 541.616 547.787 541.616H552.833V541.72C526.733 541.848 420.442 541.952 293.364 541.952L105.119 541.859L48.082 541.72H32.5728H28.536H27.1672H28.536H32.5728L48.082 541.662L105.119 541.569L293.364 541.476C420.442 541.476 526.733 541.581 552.833 541.708V541.72H547.787C546.673 541.639 546.128 541.616 546.128 541.616Z" fill="#263238"/>
<path d="M502.732 90.9092H242.742V457.759H502.732V90.9092Z" fill="white"/>
<path d="M502.732 457.759C502.732 455.312 502.616 307.62 502.454 90.9092L502.732 91.1759H242.765L243.066 90.8743C243.066 228.346 243.066 355.47 243.008 457.724L242.765 457.481L502.756 457.724L242.765 457.968H242.44V457.724C242.44 355.47 242.44 228.346 242.44 90.8743V90.5959H242.765H502.732H503.011V90.8743C502.848 307.62 502.732 455.312 502.732 457.759Z" fill="#263238"/>
<path d="M363.474 334.474H268.006C263.72 334.474 260.246 337.949 260.246 342.235V352.164C260.246 356.45 263.72 359.925 268.006 359.925H363.474C367.76 359.925 371.235 356.45 371.235 352.164V342.235C371.235 337.949 367.76 334.474 363.474 334.474Z" fill="#F5F5F5"/>
<path d="M479.289 334.474H386.28C381.994 334.474 378.52 337.949 378.52 342.235V352.164C378.52 356.45 381.994 359.925 386.28 359.925H479.289C483.575 359.925 487.049 356.45 487.049 352.164V342.235C487.049 337.949 483.575 334.474 479.289 334.474Z" fill="#F5F5F5"/>
<path d="M480.82 386.628H267.484C263.198 386.628 259.724 390.102 259.724 394.388V404.318C259.724 408.604 263.198 412.078 267.484 412.078H480.82C485.106 412.078 488.58 408.604 488.58 404.318V394.388C488.58 390.102 485.106 386.628 480.82 386.628Z" fill="#F5F5F5"/>
<path d="M311.205 324.232C311.205 324.394 300.486 324.533 287.251 324.533C274.015 324.533 263.297 324.394 263.297 324.232C263.297 324.069 274.015 323.93 287.251 323.93C300.486 323.93 311.205 324.069 311.205 324.232Z" fill="#263238"/>
<path d="M424.56 324.232C424.56 324.394 416.115 324.533 405.698 324.533C395.282 324.533 386.825 324.394 386.825 324.232C386.825 324.069 395.27 323.93 405.698 323.93C416.127 323.93 424.56 324.069 424.56 324.232Z" fill="#263238"/>
<path d="M341.62 376.13C341.62 376.292 324.22 376.432 302.76 376.432C281.3 376.432 263.9 376.292 263.9 376.13C263.9 375.968 281.3 375.828 302.76 375.828C324.22 375.828 341.62 375.968 341.62 376.13Z" fill="#263238"/>
<path d="M481.029 276.695H263.192C259.022 276.695 255.641 280.076 255.641 284.246V296.96C255.641 301.131 259.022 304.512 263.192 304.512H481.029C485.199 304.512 488.58 301.131 488.58 296.96V284.246C488.58 280.076 485.199 276.695 481.029 276.695Z" fill="#E0E0E0"/>
<path d="M421.73 290.603C421.73 290.777 401.058 290.905 375.573 290.905C350.088 290.905 329.405 290.777 329.405 290.603C329.405 290.429 350.076 290.302 375.573 290.302C401.07 290.302 421.73 290.441 421.73 290.603Z" fill="#263238"/>
<path d="M481.029 107.567H263.192C259.022 107.567 255.641 110.948 255.641 115.118V127.832C255.641 132.002 259.022 135.383 263.192 135.383H481.029C485.199 135.383 488.58 132.002 488.58 127.832V115.118C488.58 110.948 485.199 107.567 481.029 107.567Z" fill="#E0E0E0"/>
<path d="M421.73 121.475C421.73 121.638 401.058 121.777 375.573 121.777C350.088 121.777 329.405 121.638 329.405 121.475C329.405 121.313 350.076 121.174 375.573 121.174C401.07 121.174 421.73 121.301 421.73 121.475Z" fill="#263238"/>
<path d="M502.732 142.112C502.732 142.286 444.477 142.425 372.627 142.425C300.776 142.425 242.498 142.286 242.498 142.112C242.498 141.938 300.753 141.81 372.627 141.81C444.5 141.81 502.732 141.949 502.732 142.112Z" fill="#EBEBEB"/>
<path d="M502.732 265.176C502.732 265.35 444.477 265.477 372.627 265.477C300.776 265.477 242.498 265.35 242.498 265.176C242.498 265.002 300.753 264.874 372.627 264.874C444.5 264.874 502.732 265.013 502.732 265.176Z" fill="#EBEBEB"/>
<path d="M363.474 170.01H268.006C263.72 170.01 260.246 173.484 260.246 177.77V187.7C260.246 191.985 263.72 195.46 268.006 195.46H363.474C367.76 195.46 371.235 191.985 371.235 187.7V177.77C371.235 173.484 367.76 170.01 363.474 170.01Z" fill="#F5F5F5"/>
<path d="M479.289 170.01H386.28C381.994 170.01 378.52 173.484 378.52 177.77V187.7C378.52 191.985 381.994 195.46 386.28 195.46H479.289C483.575 195.46 487.049 191.985 487.049 187.7V177.77C487.049 173.484 483.575 170.01 479.289 170.01Z" fill="#F5F5F5"/>
<path d="M480.82 222.163H267.484C263.198 222.163 259.724 225.638 259.724 229.923V239.853C259.724 244.139 263.198 247.613 267.484 247.613H480.82C485.106 247.613 488.58 244.139 488.58 239.853V229.923C488.58 225.638 485.106 222.163 480.82 222.163Z" fill="#F5F5F5"/>
<path d="M311.205 159.767C311.205 159.929 300.486 160.068 287.251 160.068C274.015 160.068 263.297 159.929 263.297 159.767C263.297 159.604 274.015 159.465 287.251 159.465C300.486 159.465 311.205 159.604 311.205 159.767Z" fill="#263238"/>
<path d="M424.56 159.767C424.56 159.929 416.115 160.068 405.698 160.068C395.282 160.068 386.825 159.929 386.825 159.767C386.825 159.604 395.27 159.465 405.698 159.465C416.127 159.465 424.56 159.604 424.56 159.767Z" fill="#263238"/>
<path d="M341.62 211.665C341.62 211.828 324.22 211.967 302.76 211.967C281.3 211.967 263.9 211.828 263.9 211.665C263.9 211.503 281.3 211.364 302.76 211.364C324.22 211.364 341.62 211.503 341.62 211.665Z" fill="#263238"/>
<path d="M480.553 427.541C480.553 427.715 463.582 427.843 442.644 427.843C421.706 427.843 404.747 427.715 404.747 427.541C404.747 427.367 421.706 427.24 442.644 427.24C463.582 427.24 480.553 427.379 480.553 427.541Z" fill="#263238"/>
<path d="M354.194 185.403C353.607 185.596 353.006 185.747 352.396 185.855C347.841 186.693 343.137 186.021 338.998 183.941C338.229 183.542 337.534 183.012 336.945 182.375C336.299 181.69 335.868 180.831 335.704 179.904C335.598 179.41 335.595 178.899 335.697 178.404C335.799 177.908 336.003 177.44 336.296 177.027C336.639 176.601 337.101 176.286 337.623 176.121C338.145 175.956 338.704 175.948 339.23 176.099C339.508 176.18 339.766 176.318 339.987 176.504C340.209 176.689 340.39 176.919 340.518 177.178C340.774 177.704 340.852 178.298 340.738 178.872C340.497 179.997 339.942 181.03 339.138 181.853C337.555 183.629 335.564 184.995 333.338 185.832C330.94 186.738 328.341 186.97 325.821 186.505C324.482 186.276 323.219 185.723 322.144 184.892C321.564 184.468 321.098 183.907 320.786 183.26C320.474 182.612 320.327 181.898 320.357 181.18C320.433 180.443 320.709 179.741 321.158 179.15C321.597 178.52 322.247 178.068 322.99 177.874C323.383 177.797 323.79 177.822 324.17 177.948C324.55 178.074 324.891 178.297 325.16 178.593C325.669 179.192 325.945 179.954 325.937 180.739C325.95 181.508 325.767 182.267 325.403 182.943C325.012 183.61 324.472 184.178 323.826 184.602C322.538 185.373 321.137 185.933 319.673 186.261C316.854 187.061 313.78 187.931 310.648 187.224C309.078 186.883 307.638 186.103 306.495 184.973C305.903 184.398 305.436 183.706 305.125 182.942C304.813 182.177 304.664 181.356 304.686 180.531C304.698 180 304.816 179.478 305.033 178.994C305.25 178.509 305.562 178.074 305.95 177.712C306.378 177.374 306.892 177.165 307.434 177.107C307.976 177.05 308.523 177.147 309.012 177.387C309.517 177.614 309.923 178.013 310.159 178.512C310.395 179.012 310.445 179.58 310.3 180.113C309.988 181.096 309.35 181.944 308.49 182.514C305.376 184.65 301.797 186.01 298.05 186.481C296.226 186.796 294.352 186.632 292.61 186.006C291.752 185.659 290.996 185.1 290.412 184.382C289.827 183.664 289.434 182.81 289.269 181.899C289.131 180.987 289.337 180.055 289.847 179.285C290.358 178.516 291.135 177.963 292.03 177.735C292.485 177.647 292.955 177.683 293.391 177.838C293.828 177.993 294.215 178.262 294.512 178.617C295.058 179.304 295.364 180.152 295.382 181.029C295.422 181.878 295.238 182.722 294.849 183.477C294.436 184.188 293.874 184.801 293.202 185.275C291.903 186.124 290.46 186.73 288.944 187.061C286.102 187.815 283.144 188.349 280.453 187.363C279.184 186.905 278.067 186.101 277.228 185.043C276.417 184.03 276.004 182.755 276.068 181.459C276.191 180.258 276.743 179.142 277.623 178.315C278.021 177.915 278.513 177.621 279.054 177.459C279.595 177.297 280.167 177.272 280.72 177.387H280.836V177.503C280.872 179.78 280.043 181.985 278.516 183.674C277.431 184.945 276.025 185.903 274.444 186.447C273.469 186.784 272.435 186.918 271.405 186.841C270.709 186.737 270.361 186.644 270.361 186.644C271.713 186.864 273.098 186.737 274.386 186.273C275.917 185.714 277.273 184.761 278.319 183.512C279.753 181.853 280.514 179.718 280.453 177.526L280.581 177.677C280.083 177.585 279.57 177.617 279.087 177.768C278.604 177.92 278.165 178.187 277.808 178.547C277.007 179.318 276.509 180.351 276.405 181.459C276.231 183.779 278.098 186.099 280.534 186.934C282.97 187.769 285.928 187.34 288.747 186.574C290.202 186.25 291.585 185.664 292.83 184.846C293.435 184.416 293.941 183.862 294.315 183.222C294.661 182.549 294.821 181.796 294.779 181.041C294.763 180.287 294.503 179.558 294.037 178.965C293.802 178.681 293.495 178.465 293.148 178.34C292.801 178.216 292.427 178.187 292.065 178.257C291.308 178.462 290.653 178.938 290.225 179.595C289.797 180.252 289.626 181.043 289.745 181.818C289.9 182.629 290.256 183.387 290.781 184.024C291.306 184.66 291.983 185.154 292.749 185.461C294.4 186.047 296.175 186.195 297.9 185.89C301.544 185.427 305.024 184.098 308.05 182.015C308.792 181.525 309.35 180.803 309.639 179.962C309.749 179.562 309.711 179.135 309.532 178.76C309.353 178.385 309.045 178.087 308.664 177.921C308.28 177.737 307.853 177.663 307.43 177.706C307.006 177.749 306.603 177.907 306.263 178.164C305.937 178.472 305.675 178.842 305.494 179.252C305.313 179.663 305.215 180.105 305.208 180.554C305.191 181.294 305.328 182.029 305.61 182.714C305.891 183.399 306.311 184.018 306.843 184.533C307.903 185.579 309.239 186.303 310.694 186.621C313.618 187.293 316.622 186.481 319.429 185.681C320.829 185.365 322.171 184.832 323.408 184.103C323.982 183.735 324.462 183.239 324.812 182.653C325.125 182.065 325.285 181.406 325.276 180.739C325.287 180.092 325.065 179.462 324.649 178.965C324.45 178.74 324.195 178.571 323.91 178.475C323.625 178.379 323.32 178.36 323.025 178.419C322.427 178.624 321.901 178.999 321.512 179.497C321.122 179.996 320.886 180.597 320.833 181.227C320.823 181.856 320.968 182.479 321.255 183.039C321.542 183.599 321.963 184.08 322.48 184.44C323.5 185.221 324.694 185.743 325.96 185.959C328.386 186.407 330.888 186.186 333.198 185.321C335.366 184.533 337.307 183.222 338.848 181.505C339.596 180.751 340.118 179.803 340.356 178.767C340.492 178.306 340.448 177.81 340.232 177.379C340.017 176.949 339.647 176.616 339.196 176.447C338.752 176.314 338.278 176.317 337.835 176.455C337.393 176.594 337.002 176.862 336.713 177.225C336.452 177.59 336.269 178.005 336.175 178.444C336.081 178.883 336.079 179.337 336.168 179.777C336.357 180.605 336.733 181.379 337.268 182.038C337.803 182.698 338.482 183.226 339.254 183.581C341.724 184.87 344.424 185.659 347.2 185.901C348.956 186.043 350.724 185.981 352.466 185.716L353.823 185.461C353.946 185.434 354.07 185.414 354.194 185.403Z" fill="#81184E"/>
<path d="M467.677 184.022C467.217 184.313 466.727 184.554 466.216 184.741C464.763 185.335 463.214 185.661 461.645 185.704C459.15 185.794 456.675 185.217 454.476 184.034C453.065 183.335 451.864 182.274 450.996 180.96C450.517 180.212 450.297 179.328 450.37 178.443C450.421 177.974 450.566 177.52 450.798 177.11C451.029 176.699 451.341 176.339 451.716 176.053C452.119 175.739 452.62 175.575 453.131 175.589C453.656 175.607 454.155 175.818 454.534 176.181C454.896 176.557 455.168 177.01 455.331 177.506C455.493 178.002 455.542 178.528 455.474 179.046C455.287 180.093 454.776 181.055 454.012 181.795C453.261 182.552 452.41 183.204 451.484 183.732C449.546 184.873 447.378 185.567 445.138 185.762C442.742 186.038 440.318 185.589 438.178 184.475C437.059 183.873 436.128 182.974 435.487 181.876C435.167 181.302 434.959 180.672 434.872 180.02C434.808 179.007 435.07 178.001 435.619 177.147C436.167 176.293 436.975 175.638 437.923 175.276C438.267 175.168 438.63 175.131 438.989 175.167C439.347 175.203 439.695 175.311 440.011 175.485C440.634 175.835 441.124 176.381 441.403 177.039C441.677 177.687 441.806 178.388 441.78 179.092C441.754 179.795 441.574 180.484 441.252 181.111C440.595 182.335 439.647 183.379 438.492 184.15C436.19 185.743 433.496 186.673 430.702 186.841C427.908 187.009 425.122 186.407 422.646 185.101C421.425 184.481 420.319 183.657 419.375 182.665C418.38 181.675 417.799 180.344 417.751 178.941C417.765 178.235 417.983 177.547 418.378 176.96C418.773 176.374 419.328 175.914 419.978 175.635C420.319 175.501 420.688 175.453 421.053 175.495C421.417 175.538 421.765 175.67 422.066 175.879C422.639 176.291 423.049 176.89 423.226 177.573C423.389 178.217 423.404 178.89 423.269 179.541C423.135 180.192 422.854 180.804 422.449 181.331C421.698 182.326 420.794 183.196 419.769 183.906C417.915 185.278 415.792 186.241 413.538 186.733C411.285 187.225 408.953 187.234 406.696 186.76C404.598 186.38 402.71 185.251 401.383 183.581C400.768 182.768 400.424 181.782 400.397 180.763C400.369 179.788 400.61 178.825 401.093 177.979C401.317 177.564 401.622 177.199 401.991 176.906C402.36 176.613 402.785 176.398 403.239 176.273C403.677 176.175 404.13 176.175 404.568 176.273C405.005 176.372 405.415 176.566 405.768 176.842C406.399 177.342 406.889 177.997 407.19 178.743C407.491 179.49 407.592 180.301 407.485 181.099C407.247 182.47 406.517 183.708 405.432 184.579C404.551 185.312 403.516 185.836 402.404 186.11C400.882 186.452 399.316 186.55 397.764 186.4L396.604 186.296C396.469 186.313 396.333 186.313 396.198 186.296C396.333 186.281 396.469 186.281 396.604 186.296H397.822C399.38 186.396 400.944 186.263 402.462 185.901C403.53 185.611 404.52 185.089 405.362 184.37C406.359 183.492 406.999 182.279 407.16 180.96C407.247 180.228 407.146 179.485 406.866 178.803C406.586 178.121 406.136 177.522 405.559 177.062C405.247 176.827 404.887 176.662 404.504 176.58C404.121 176.498 403.725 176.5 403.344 176.587C402.947 176.706 402.577 176.903 402.257 177.166C401.936 177.429 401.671 177.752 401.476 178.118C401.019 178.904 400.803 179.806 400.855 180.713C400.906 181.621 401.223 182.493 401.766 183.222C403.037 184.785 404.828 185.839 406.812 186.191C408.999 186.652 411.258 186.644 413.441 186.168C415.625 185.692 417.682 184.759 419.479 183.431C420.446 182.745 421.3 181.911 422.008 180.96C422.364 180.503 422.61 179.97 422.729 179.403C422.847 178.837 422.835 178.25 422.692 177.689C422.557 177.139 422.233 176.654 421.776 176.32C421.553 176.162 421.294 176.063 421.022 176.031C420.751 175.998 420.476 176.034 420.222 176.134C419.682 176.373 419.222 176.76 418.895 177.251C418.568 177.743 418.389 178.317 418.377 178.907C418.436 180.154 418.962 181.335 419.85 182.213C420.754 183.155 421.809 183.939 422.971 184.533C425.355 185.769 428.027 186.342 430.708 186.191C433.389 186.036 435.975 185.141 438.178 183.605C439.266 182.914 440.167 181.966 440.8 180.844C441.081 180.296 441.24 179.695 441.266 179.08C441.292 178.465 441.185 177.852 440.951 177.283C440.753 176.736 440.357 176.284 439.841 176.015C439.326 175.747 438.728 175.682 438.167 175.833C437.348 176.156 436.651 176.728 436.177 177.47C435.702 178.211 435.473 179.083 435.522 179.962C435.598 180.537 435.783 181.092 436.067 181.598C436.652 182.609 437.508 183.436 438.538 183.987C440.565 185.051 442.863 185.487 445.138 185.24C447.292 185.046 449.376 184.376 451.24 183.28C452.131 182.781 452.95 182.165 453.676 181.447C454.372 180.779 454.842 179.912 455.022 178.965C455.084 178.518 455.046 178.064 454.909 177.634C454.773 177.204 454.541 176.811 454.233 176.482C453.933 176.193 453.538 176.023 453.121 176.004C452.705 175.985 452.296 176.118 451.971 176.378C451.65 176.633 451.382 176.948 451.183 177.306C450.984 177.665 450.858 178.059 450.811 178.466C450.745 179.279 450.94 180.091 451.368 180.786C452.202 182.044 453.35 183.063 454.697 183.744C456.823 184.927 459.224 185.527 461.657 185.484C463.2 185.456 464.729 185.174 466.181 184.649C467.178 184.277 467.654 183.987 467.677 184.022Z" fill="#81184E"/>
<path d="M359.832 235.259C359.693 235.348 359.546 235.422 359.391 235.48L358.057 236.083C356.897 236.605 355.146 237.371 352.86 238.229C350.081 239.302 347.196 240.08 344.253 240.549C342.41 240.819 340.547 240.931 338.685 240.885C336.583 240.926 334.489 240.612 332.491 239.957C331.37 239.577 330.358 238.932 329.538 238.078C328.718 237.224 328.116 236.186 327.781 235.051C327.61 234.434 327.563 233.789 327.642 233.154C327.722 232.519 327.927 231.906 328.245 231.35C328.566 230.76 329.024 230.255 329.582 229.879C330.139 229.504 330.779 229.268 331.447 229.193C332.152 229.181 332.845 229.378 333.437 229.76C334.03 230.142 334.496 230.692 334.776 231.339C335.409 232.624 335.514 234.107 335.066 235.468C334.58 236.823 333.744 238.024 332.642 238.948C331.539 239.884 330.313 240.664 328.999 241.268C326.289 242.677 323.157 243.044 320.195 242.301C318.662 241.828 317.285 240.952 316.208 239.764C315.13 238.576 314.392 237.121 314.07 235.549C313.931 234.74 313.931 233.912 314.07 233.102C314.182 232.251 314.527 231.448 315.068 230.782C315.325 230.42 315.657 230.118 316.041 229.896C316.425 229.674 316.853 229.537 317.295 229.494C317.765 229.485 318.225 229.625 318.611 229.894C318.996 230.163 319.287 230.547 319.441 230.991C319.663 231.826 319.701 232.699 319.553 233.55C319.404 234.401 319.073 235.21 318.582 235.921C317.726 237.379 316.627 238.681 315.334 239.772C312.791 241.949 309.54 243.122 306.193 243.07C302.846 243.019 299.633 241.747 297.157 239.493C295.967 238.387 295.155 236.934 294.837 235.341C294.678 234.537 294.73 233.706 294.988 232.928C295.27 232.165 295.736 231.484 296.345 230.944C296.947 230.393 297.705 230.04 298.514 229.935C298.929 229.875 299.352 229.908 299.753 230.03C300.154 230.152 300.523 230.362 300.834 230.643C301.378 231.21 301.76 231.913 301.941 232.677C302.123 233.442 302.097 234.241 301.867 234.993C301.414 236.403 300.583 237.663 299.466 238.635C298.435 239.594 297.303 240.438 296.09 241.152C293.77 242.524 291.191 243.401 288.515 243.727C286.014 244.057 283.472 243.831 281.068 243.066C279.924 242.683 278.879 242.053 278.006 241.222C277.16 240.417 276.581 239.373 276.347 238.229C276.095 237.138 276.201 235.996 276.648 234.969C276.862 234.475 277.198 234.042 277.624 233.711C278.05 233.381 278.552 233.163 279.084 233.079C279.584 233.003 280.095 233.032 280.582 233.166C281.07 233.3 281.524 233.535 281.915 233.856C282.283 234.164 282.561 234.566 282.719 235.02C282.876 235.473 282.907 235.961 282.808 236.431C282.614 237.288 282.146 238.058 281.474 238.623C280.881 239.142 280.222 239.579 279.514 239.923C278.29 240.529 277.012 241.018 275.697 241.384C273.886 241.903 272.013 242.18 270.129 242.208C269.475 242.231 268.819 242.204 268.169 242.127H268.668C269.004 242.127 269.491 242.127 270.129 242.127C271.993 242.043 273.839 241.731 275.628 241.199C276.922 240.81 278.179 240.31 279.386 239.702C280.067 239.364 280.699 238.935 281.265 238.426C281.856 237.894 282.263 237.187 282.425 236.408C282.508 235.995 282.478 235.568 282.337 235.172C282.196 234.775 281.95 234.425 281.625 234.157C281.27 233.878 280.861 233.674 280.424 233.559C279.987 233.443 279.531 233.418 279.084 233.485C278.616 233.564 278.176 233.761 277.805 234.058C277.433 234.354 277.143 234.739 276.962 235.178C276.557 236.123 276.468 237.172 276.706 238.171C276.989 239.245 277.55 240.225 278.332 241.013C279.114 241.801 280.09 242.369 281.161 242.66C283.495 243.395 285.964 243.601 288.388 243.263C292.371 242.765 296.094 241.019 299.025 238.275C300.073 237.371 300.852 236.195 301.275 234.877C301.475 234.225 301.499 233.531 301.344 232.867C301.189 232.203 300.861 231.591 300.394 231.095C299.849 230.68 299.169 230.483 298.486 230.543C297.804 230.603 297.169 230.916 296.705 231.42C296.185 231.894 295.787 232.487 295.545 233.148C295.322 233.833 295.278 234.564 295.417 235.271C295.73 236.745 296.497 238.083 297.61 239.099C299.983 241.252 303.06 242.464 306.264 242.509C309.467 242.554 312.577 241.428 315.01 239.343C316.257 238.3 317.313 237.048 318.13 235.642C318.554 234.978 318.856 234.243 319.023 233.473C319.21 232.735 319.186 231.959 318.954 231.234C318.847 230.901 318.638 230.61 318.357 230.402C318.076 230.194 317.737 230.079 317.388 230.074C317.032 230.117 316.689 230.235 316.381 230.418C316.074 230.602 315.808 230.849 315.601 231.141C315.166 231.753 314.864 232.448 314.714 233.184C314.564 233.919 314.57 234.677 314.731 235.41C315.034 236.874 315.723 238.23 316.726 239.337C317.73 240.445 319.012 241.264 320.438 241.709C323.263 242.419 326.25 242.072 328.837 240.735C331.366 239.517 333.79 237.753 334.637 235.236C335.044 234.006 334.952 232.665 334.382 231.501C334.151 230.942 333.758 230.464 333.254 230.129C332.749 229.794 332.156 229.618 331.551 229.622C330.963 229.69 330.401 229.899 329.91 230.23C329.42 230.561 329.016 231.005 328.732 231.524C328.441 232.024 328.253 232.577 328.179 233.151C328.106 233.725 328.148 234.308 328.303 234.865C328.613 235.935 329.175 236.914 329.942 237.722C330.709 238.529 331.659 239.141 332.711 239.505C334.662 240.161 336.709 240.482 338.766 240.456C340.608 240.516 342.451 240.419 344.276 240.166C347.201 239.739 350.073 239.012 352.849 237.997C355.169 237.173 356.886 236.443 358.08 235.967L359.438 235.41L359.832 235.259Z" fill="#81184E"/>
<path d="M469.8 490.483C469.8 490.483 443.12 459.766 433.028 429.003C422.936 398.24 427.75 401.812 427.75 401.812C427.75 401.812 441.345 431.648 451.669 446.066C461.993 460.485 480.379 481.632 480.379 481.632L469.8 490.483Z" fill="#455A64"/>
<path d="M475.159 406.627C474.98 406.313 474.697 406.072 474.359 405.945C474.021 405.818 473.65 405.812 473.308 405.928C472.967 406.045 472.676 406.277 472.487 406.584C472.298 406.891 472.221 407.255 472.271 407.613C473.895 418.412 477.41 443.735 477.282 460.161C477.096 481.493 477.282 489.741 477.282 489.741H488.36C488.36 489.741 486.388 445.661 483.871 432.181C482.154 422.762 478.419 412.287 475.159 406.627Z" fill="#455A64"/>
<path d="M481.226 486.156C485.878 475.608 488.958 464.434 490.367 452.992C491.283 445.127 489.648 434.513 487.223 420.349C486.278 415.171 485.808 409.918 485.82 404.654C485.821 404.066 486.019 403.494 486.382 403.031C486.746 402.567 487.253 402.238 487.824 402.095C488.396 401.953 488.998 402.005 489.537 402.244C490.075 402.483 490.518 402.894 490.796 403.413C492.13 405.803 496.016 413.969 497.002 419.096C499.693 433.086 502.732 440.081 500.412 453.34C498.092 466.598 489.52 487.049 489.52 487.049L481.226 486.156Z" fill="#455A64"/>
<path d="M491.225 487.049C491.225 487.049 520.538 424.073 522.545 414.723C524.552 405.374 531.477 383.856 532.289 385.074C533.101 386.292 534.331 397.66 529.041 410.663C523.752 423.667 501.201 488.975 501.201 488.975H491.19" fill="#455A64"/>
<path d="M478.013 484.23C477.722 484.069 477.447 483.883 477.189 483.674C476.667 483.279 475.878 482.722 474.869 481.934C472.129 479.747 469.5 477.424 466.993 474.974C458.744 466.842 451.596 457.666 445.73 447.679C439.89 437.693 435.03 427.165 431.218 416.243C429.745 412.055 428.678 408.633 427.97 406.255C427.622 405.095 427.367 404.144 427.193 403.506C427.093 403.192 427.02 402.87 426.973 402.543C427.117 402.841 427.234 403.152 427.321 403.471L428.202 406.186C428.98 408.506 430.116 411.986 431.682 416.092C435.602 426.954 440.502 437.438 446.322 447.412C452.165 457.352 459.23 466.522 467.352 474.707C470.496 477.827 473.152 480.194 475.078 481.783C476.006 482.595 476.772 483.175 477.27 483.604C477.532 483.795 477.78 484.005 478.013 484.23Z" fill="#263238"/>
<path d="M481.214 454.024C481.084 453.413 480.999 452.792 480.959 452.168L480.414 447.122C479.95 442.865 479.254 436.984 478.187 430.534C477.12 424.085 475.994 418.261 475.101 414.074L474.034 409.109C473.865 408.51 473.757 407.896 473.709 407.276C473.938 407.853 474.124 408.446 474.266 409.051C474.602 410.211 475.032 411.893 475.53 413.981C476.54 418.157 477.769 423.957 478.813 430.43C479.857 436.903 480.507 442.807 480.855 447.076C481.029 449.222 481.145 450.95 481.203 452.157C481.262 452.777 481.266 453.402 481.214 454.024Z" fill="#263238"/>
<path d="M488.082 402.915C488.226 403.168 488.343 403.436 488.43 403.715C488.65 404.307 488.94 405.084 489.311 406.035C489.682 406.986 490.146 408.297 490.564 409.782C490.982 411.267 491.562 412.925 491.991 414.828L492.722 417.786C492.965 418.818 493.139 419.909 493.36 421.022C493.835 423.261 494.137 425.662 494.52 428.237C495.859 439.328 495.468 450.559 493.36 461.529C492.814 464.035 492.35 466.436 491.712 468.629C491.411 469.731 491.156 470.809 490.842 471.819C490.529 472.828 490.204 473.802 489.903 474.719C489.346 476.586 488.662 478.199 488.116 479.649C487.571 481.099 487.061 482.317 486.597 483.303L485.553 485.623C485.447 485.892 485.311 486.149 485.147 486.388C485.224 486.107 485.321 485.832 485.437 485.565C485.68 484.985 485.982 484.207 486.376 483.245C486.771 482.282 487.293 481.017 487.792 479.567C488.29 478.117 488.952 476.482 489.485 474.626C489.764 473.698 490.065 472.723 490.378 471.726C490.692 470.728 490.924 469.638 491.214 468.536C491.828 466.343 492.269 463.954 492.791 461.46C494.831 450.537 495.222 439.369 493.951 428.33C493.615 425.801 493.336 423.389 492.884 421.161C492.675 420.001 492.513 418.957 492.281 417.925C492.049 416.893 491.817 415.907 491.596 414.967C491.202 413.065 490.668 411.394 490.262 409.921C489.856 408.448 489.462 407.172 489.102 406.139L488.337 403.819C488.217 403.529 488.131 403.225 488.082 402.915Z" fill="#263238"/>
<path d="M531.988 386.338C531.993 386.431 531.993 386.524 531.988 386.617C531.988 386.837 531.906 387.104 531.848 387.44C531.721 388.148 531.558 389.215 531.268 390.572C530.712 393.287 529.76 397.184 528.299 401.905C526.837 406.627 524.819 412.195 522.499 418.285C520.179 424.375 517.383 431.045 514.785 438.097C512.186 445.15 510.145 452.017 508.196 458.305C506.247 464.592 504.496 470.171 502.767 474.811C501.418 478.485 499.869 482.083 498.127 485.588C497.524 486.829 496.967 487.757 496.631 488.407L496.225 489.126C496.181 489.21 496.127 489.288 496.062 489.358L496.167 489.091C496.271 488.894 496.387 488.639 496.526 488.337C496.84 487.687 497.338 486.736 497.907 485.472C499.067 482.978 500.668 479.312 502.338 474.661C504.008 470.009 505.818 464.395 507.628 458.131C509.437 451.867 511.537 444.965 514.182 437.877C516.826 430.789 519.552 424.154 521.954 418.076C524.355 411.997 526.396 406.476 527.904 401.778C529.412 397.08 530.422 393.205 531.06 390.514C531.384 389.18 531.582 388.125 531.756 387.417C531.825 387.092 531.895 386.825 531.941 386.605C531.942 386.514 531.958 386.424 531.988 386.338Z" fill="#263238"/>
<path d="M441.612 372.418C441.206 372.036 440.686 371.799 440.131 371.744C439.577 371.688 439.02 371.817 438.547 372.111C438.073 372.404 437.71 372.846 437.513 373.367C437.317 373.889 437.298 374.46 437.459 374.993C438.458 378.236 439.687 381.403 441.136 384.47C445.162 393.031 457.005 423.748 462.538 440.626C468.072 457.504 475.89 488.975 475.89 488.975L487.722 487.049C487.722 487.049 476.899 435.336 466.32 416.695C457.817 401.731 449.326 380.086 441.612 372.418Z" fill="#455A64"/>
<path d="M465.775 451.17C466.035 451.62 466.242 452.099 466.39 452.597C466.738 453.525 467.213 454.917 467.758 456.564C468.849 459.94 470.171 464.684 471.517 469.893C472.862 475.101 473.976 479.892 474.753 483.349C475.113 484.984 475.403 486.353 475.646 487.444C475.784 487.943 475.866 488.457 475.89 488.975C475.675 488.503 475.512 488.009 475.403 487.502C475.124 486.423 474.753 485.066 474.324 483.453C473.419 479.892 472.224 475.217 470.914 470.044C469.603 464.87 468.304 460.091 467.329 456.692L466.169 452.667C465.99 452.182 465.858 451.681 465.775 451.17Z" fill="#263238"/>
<path d="M481.829 488.012C481.792 487.911 481.768 487.806 481.76 487.699C481.76 487.455 481.69 487.142 481.632 486.759C481.504 485.947 481.4 484.729 481.145 483.187C480.716 480.078 479.985 475.6 478.662 470.137C477.153 463.741 475.306 457.429 473.129 451.229C470.705 444.269 467.654 436.647 464.209 428.817C457.249 413.157 450.289 399.272 445.73 388.995C443.41 383.879 441.635 379.715 440.452 376.78C439.849 375.33 439.42 374.193 439.118 373.416C438.99 373.056 438.886 372.766 438.793 372.534C438.748 372.435 438.716 372.329 438.7 372.221C438.762 372.312 438.812 372.409 438.851 372.511L439.234 373.369C439.582 374.17 440.069 375.283 440.672 376.687C441.925 379.575 443.77 383.717 446.124 388.821C450.764 399.029 457.806 412.879 464.777 428.562C468.257 436.415 471.273 444.002 473.674 451.043C475.823 457.269 477.628 463.608 479.08 470.032C480.073 474.364 480.847 478.742 481.4 483.152C481.609 484.706 481.69 485.924 481.771 486.748C481.771 487.134 481.794 487.448 481.841 487.687C481.852 487.796 481.848 487.905 481.829 488.012Z" fill="#263238"/>
<path d="M487.722 487.049C487.529 486.401 487.393 485.738 487.316 485.066C487.084 483.674 486.771 481.841 486.4 479.625C485.588 474.985 484.335 468.733 482.548 461.854C480.762 454.975 478.778 448.862 477.247 444.454L475.391 439.257C475.134 438.632 474.925 437.989 474.765 437.332C475.105 437.92 475.392 438.537 475.623 439.176C476.134 440.336 476.841 442.123 477.665 444.303C479.802 450.001 481.634 455.81 483.152 461.703C484.681 467.588 485.912 473.547 486.84 479.556C487.177 481.876 487.432 483.732 487.56 485.031C487.659 485.699 487.713 486.374 487.722 487.049Z" fill="#263238"/>
<path d="M512.001 485.356H465.821V541.616H512.001V485.356Z" fill="#81184E"/>
<g opacity="0.3">
<path d="M512.001 485.356H465.821V541.616H512.001V485.356Z" fill="black"/>
</g>
<path d="M497.269 485.356H456.298V541.616H497.269V485.356Z" fill="#81184E"/>
<path d="M122.009 187.062L120.698 292.761C120.478 310.729 123.818 337.177 152.25 336.238C176.865 333.558 183.396 310.265 183.57 293.492C183.663 285.534 183.756 278.899 183.814 278.087C183.814 278.087 210.749 275.883 213.022 249.272C214.124 236.42 214.182 209.751 214.055 185.623C213.953 173.127 209.15 161.126 200.602 152.01C192.053 142.894 180.386 137.331 167.922 136.428L165.346 136.231C137.53 135.836 121.649 159.233 122.009 187.062Z" fill="#FFBE9D"/>
<path d="M183.825 278.087C183.825 278.087 166.97 277.843 149.907 265.327C149.907 265.327 156.936 285.395 183.686 284.931L183.825 278.087Z" fill="#EB996E"/>
<path d="M168.571 196.527C168.049 197.072 164.975 194.59 160.509 194.474C156.043 194.358 152.726 196.539 152.262 195.97C152.03 195.715 152.575 194.729 154.036 193.708C155.99 192.398 158.309 191.74 160.66 191.829C162.986 191.888 165.229 192.703 167.052 194.149C168.397 195.274 168.838 196.295 168.571 196.527Z" fill="#263238"/>
<path d="M168.444 205.749C168.381 206.687 167.956 207.563 167.259 208.193C166.562 208.823 165.647 209.157 164.708 209.125C163.785 209.125 162.9 208.758 162.248 208.106C161.595 207.453 161.228 206.568 161.228 205.645C161.288 204.708 161.71 203.832 162.406 203.202C163.101 202.572 164.014 202.237 164.952 202.269C165.41 202.268 165.864 202.357 166.287 202.531C166.711 202.705 167.096 202.961 167.42 203.284C167.745 203.608 168.002 203.992 168.178 204.415C168.353 204.838 168.444 205.291 168.444 205.749Z" fill="#263238"/>
<path d="M179.8 227.534C179.8 227.302 182.375 227.047 186.528 226.827C187.584 226.827 188.593 226.653 188.848 225.957C189.018 224.886 188.856 223.789 188.384 222.813L185.774 214.6C182.294 203 179.893 193.419 180.357 193.279C180.821 193.14 184.022 202.478 187.479 214.159C188.314 217.036 189.103 219.762 189.799 222.384C190.112 223.602 190.692 224.994 190.043 226.525C189.865 226.884 189.608 227.197 189.29 227.44C188.972 227.684 188.603 227.851 188.21 227.929C187.622 228.043 187.022 228.082 186.424 228.045C182.317 227.94 179.8 227.778 179.8 227.534Z" fill="#263238"/>
<path d="M166.68 179.8C166.251 180.798 162.678 180.044 158.41 180.264C154.141 180.484 150.614 181.424 150.127 180.484C149.907 180.02 150.568 179.116 152.018 178.234C153.93 177.143 156.081 176.538 158.282 176.471C160.468 176.355 162.649 176.786 164.627 177.724C166.135 178.443 166.866 179.301 166.68 179.8Z" fill="#263238"/>
<path d="M209.009 188.024C208.545 188.836 205.065 187.943 200.889 187.816C196.713 187.688 193.175 188.222 192.769 187.375C192.583 186.98 193.279 186.215 194.741 185.612C196.723 184.825 198.851 184.473 200.982 184.579C203.131 184.646 205.243 185.168 207.176 186.11C208.545 186.864 209.218 187.642 209.009 188.024Z" fill="#263238"/>
<path d="M122.751 206.944C122.31 206.712 104.841 200.193 104.098 218.44C103.356 236.686 121.8 233.682 121.881 233.16C121.962 232.638 122.751 206.944 122.751 206.944Z" fill="#FFBE9D"/>
<path d="M116.592 226.014C116.51 225.956 116.255 226.223 115.71 226.444C114.965 226.737 114.135 226.737 113.39 226.444C111.488 225.655 109.991 222.534 110.038 219.24C110.057 217.674 110.426 216.133 111.116 214.728C111.312 214.167 111.641 213.662 112.075 213.258C112.51 212.854 113.037 212.562 113.61 212.408C113.978 212.324 114.363 212.372 114.698 212.543C115.033 212.715 115.297 213 115.443 213.347C115.675 213.869 115.536 214.229 115.64 214.264C115.745 214.298 116.046 213.974 115.919 213.22C115.838 212.768 115.605 212.359 115.258 212.06C114.77 211.659 114.146 211.464 113.518 211.514C112.755 211.629 112.034 211.937 111.424 212.411C110.815 212.884 110.337 213.506 110.038 214.217C109.203 215.766 108.754 217.493 108.727 219.252C108.727 222.94 110.444 226.455 113.042 227.372C113.528 227.531 114.042 227.581 114.549 227.519C115.057 227.457 115.544 227.284 115.977 227.012C116.534 226.455 116.65 226.049 116.592 226.014Z" fill="#EB996E"/>
<path d="M175.438 240.178C175.636 239.714 172.063 238.647 169.546 235.283C168.499 233.815 167.648 232.216 167.017 230.527C166.483 229.193 166.077 228.369 165.857 228.427C165.636 228.485 165.706 229.378 166.008 230.828C166.386 232.754 167.178 234.574 168.328 236.164C169.519 237.754 171.124 238.985 172.968 239.726C174.441 240.294 175.38 240.329 175.438 240.178Z" fill="#263238"/>
<path d="M209.218 198.209C208.684 198.743 205.61 196.272 201.098 196.156C196.585 196.04 193.314 198.221 192.838 197.653C192.606 197.397 193.163 196.411 194.613 195.391C196.567 194.08 198.886 193.422 201.237 193.511C203.566 193.571 205.813 194.385 207.64 195.831C209.032 196.957 209.473 197.966 209.218 198.209Z" fill="#263238"/>
<path d="M208.487 207.049C208.424 207.986 207.999 208.862 207.302 209.492C206.605 210.122 205.691 210.456 204.752 210.424C203.829 210.424 202.943 210.057 202.291 209.405C201.638 208.752 201.272 207.867 201.272 206.944C201.334 206.007 201.759 205.13 202.456 204.5C203.153 203.871 204.068 203.536 205.007 203.569C205.93 203.569 206.815 203.935 207.467 204.588C208.12 205.24 208.487 206.126 208.487 207.049Z" fill="#263238"/>
<path d="M232.626 150.29C230.814 147.345 228.002 145.151 224.705 144.107C221.409 143.063 217.847 143.24 214.67 144.606C215.485 140.382 214.898 136.008 212.997 132.149C211.095 128.291 207.985 125.16 204.139 123.234C200.293 121.307 195.922 120.691 191.694 121.48C187.465 122.268 183.61 124.417 180.716 127.6C180.486 126.471 180.016 125.406 179.337 124.475C178.659 123.544 177.788 122.77 176.784 122.206C174.772 121.084 172.539 120.415 170.242 120.246C164.797 119.642 159.288 120.476 154.267 122.667C149.245 124.857 144.886 128.326 141.624 132.727C136.319 132.098 130.939 132.724 125.92 134.555C120.901 136.387 116.382 139.373 112.729 143.272C104.156 152.772 102.532 174.777 111.928 193.79L114.132 205.703C117.079 205.703 119.77 205.912 121.591 207.536C124.062 209.751 125.164 213.927 129.259 212.35C131.347 211.538 133.249 207.164 133.899 205.042C138.531 190.879 140.066 175.886 138.4 161.078C141.325 157.962 144.822 155.437 148.7 153.642L148.387 153.932C155.823 151.345 164.233 148.805 171.286 152.296C176.761 154.999 179.986 160.683 184.046 165.207C187.823 169.392 192.409 172.768 197.527 175.132C202.644 177.497 208.188 178.8 213.823 178.965C214.217 186.458 213.591 197.049 213.985 204.485L220.4 192.56C220.898 191.703 221.351 190.82 221.757 189.915L221.896 189.637C223.056 188.697 223.915 186.98 225.864 184.753C227.725 182.565 228.951 179.907 229.407 177.07C229.863 174.234 229.532 171.326 228.45 168.664C231.239 166.615 233.195 163.629 233.962 160.255C234.729 156.881 234.255 153.343 232.626 150.29Z" fill="#263238"/>
<path d="M221.711 150.568C221.711 150.568 221.78 150.696 221.85 150.963C221.944 151.343 221.999 151.731 222.012 152.123C222.072 153.617 221.706 155.097 220.957 156.391C220.426 157.285 219.734 158.072 218.915 158.711C217.942 159.456 216.797 159.943 215.586 160.127C214.178 160.348 212.737 160.201 211.403 159.698C210.069 159.196 208.888 158.357 207.976 157.261L208.429 156.879C208.868 157.36 209.209 157.923 209.429 158.536C209.65 159.149 209.748 159.8 209.716 160.451C209.702 161.322 209.515 162.181 209.164 162.977C208.814 163.774 208.307 164.493 207.675 165.091C206.475 166.158 204.96 166.805 203.36 166.936C200.699 167.13 198.052 166.4 195.866 164.871C194.409 163.882 193.063 162.739 191.852 161.461C191.388 161.017 190.961 160.536 190.576 160.022C191.087 160.411 191.568 160.838 192.015 161.298C193.276 162.49 194.643 163.566 196.098 164.511C198.219 165.929 200.758 166.588 203.302 166.379C204.777 166.245 206.171 165.643 207.28 164.662C208.415 163.564 209.073 162.065 209.113 160.486C209.156 159.323 208.739 158.189 207.953 157.331L208.406 156.937C209.251 157.954 210.343 158.738 211.578 159.213C212.813 159.689 214.149 159.839 215.458 159.651C216.516 159.491 217.524 159.096 218.407 158.493C219.291 157.891 220.027 157.097 220.562 156.171C221.302 154.94 221.703 153.535 221.722 152.099C221.815 151.125 221.664 150.58 221.711 150.568Z" fill="#455A64"/>
<path d="M198.882 130.57C198.882 130.57 199.021 130.57 199.276 130.744C199.628 130.948 199.966 131.176 200.286 131.428C201.497 132.362 202.448 133.593 203.046 135.001C203.489 136.064 203.663 137.221 203.554 138.368C203.445 139.514 203.055 140.617 202.42 141.578C201.652 142.753 200.459 143.584 199.091 143.898C198.362 144.056 197.61 144.064 196.878 143.923C196.146 143.781 195.451 143.492 194.834 143.074C194.452 142.786 194.113 142.446 193.824 142.065L194.346 141.764C194.61 142.42 194.733 143.124 194.709 143.831C194.685 144.538 194.514 145.233 194.207 145.87C193.673 147.058 192.736 148.019 191.562 148.584C190.588 149.037 189.528 149.271 188.454 149.271C187.38 149.271 186.319 149.037 185.345 148.584C184.062 147.992 182.919 147.134 181.992 146.067C181.631 145.699 181.33 145.276 181.099 144.814C181.099 144.814 181.47 145.22 182.155 145.905C183.113 146.887 184.251 147.674 185.507 148.225C186.426 148.619 187.419 148.813 188.418 148.795C189.418 148.777 190.403 148.547 191.307 148.12C192.339 147.584 193.157 146.713 193.627 145.65C193.893 145.086 194.04 144.474 194.06 143.852C194.08 143.23 193.972 142.61 193.743 142.03L192.769 139.792L194.265 141.74C194.51 142.069 194.804 142.358 195.135 142.599C195.682 142.972 196.3 143.23 196.95 143.358C197.6 143.485 198.269 143.48 198.917 143.341C200.133 143.077 201.201 142.354 201.898 141.323C202.497 140.437 202.872 139.419 202.991 138.356C203.111 137.294 202.97 136.218 202.582 135.221C202.042 133.855 201.183 132.638 200.077 131.672C199.358 130.906 198.847 130.616 198.882 130.57Z" fill="#455A64"/>
<path d="M353.8 263.622L311.634 295.8C311.043 296.254 310.552 296.823 310.189 297.474C309.827 298.124 309.601 298.842 309.526 299.583C309.451 300.324 309.529 301.072 309.754 301.782C309.978 302.492 310.346 303.149 310.834 303.711C311.746 304.766 313.029 305.43 314.417 305.566C315.805 305.702 317.192 305.3 318.292 304.442L360.052 271.962L365.702 260.814L353.8 263.622Z" fill="#81184E"/>
<path opacity="0.5" d="M360.296 262.079L363.277 265.559L360.052 271.962C359.665 272.003 359.272 271.955 358.906 271.822C358.539 271.688 358.208 271.473 357.938 271.192C357.667 270.911 357.464 270.572 357.344 270.201C357.224 269.83 357.19 269.437 357.245 269.05C356.864 269.103 356.475 269.06 356.115 268.925C355.754 268.791 355.433 268.568 355.18 268.278C354.927 267.988 354.749 267.64 354.665 267.264C354.58 266.889 354.589 266.498 354.693 266.127C354.693 266.127 352.501 265.93 353.742 263.622L360.296 262.079Z" fill="white"/>
<path d="M311.634 295.765L318.548 304.21L320.868 302.412L314.244 293.782L311.634 295.765Z" fill="#263238"/>
<path d="M308.56 376.374L307.04 376.095L338.059 321.877L333.14 306.24C333.14 306.24 327.456 283.98 332.189 278.296C332.189 278.296 342.548 266.092 345.912 266.266C349.276 266.44 351.956 267.102 352.628 269.631C352.628 269.631 358.347 268.958 359.855 270.791C360.864 272.058 361.764 273.409 362.546 274.827C362.546 274.827 368.764 274.317 370.446 279.699C370.446 279.699 376.327 282.727 376.838 287.089C377.348 291.45 375.678 311.796 373.81 317.005C371.942 322.213 365.064 333.141 363.057 349.276C361.05 365.412 353.928 375.886 347.606 399.458L330.449 406.244L308.56 376.374Z" fill="#FFBE9D"/>
<path d="M352.338 269.282C352.466 269.456 350.332 270.872 348.719 273.482C347.107 276.092 346.724 278.597 346.504 278.562C346.525 276.632 347.077 274.745 348.1 273.108C349.124 271.471 350.578 270.147 352.304 269.282H352.338Z" fill="#EB996E"/>
<path d="M362.21 274.827C362.326 275.013 360.284 276.242 358.672 278.586C357.06 280.929 356.549 283.226 356.352 283.226C356.155 283.226 356.352 280.685 358.104 278.214C359.053 276.656 360.499 275.463 362.21 274.827Z" fill="#EB996E"/>
<path d="M370.121 279.56C370.249 279.722 368.706 281.08 367.291 283.121C365.876 285.163 365.11 287.077 364.913 287.007C365.089 285.438 365.713 283.952 366.711 282.727C367.514 281.361 368.7 280.26 370.121 279.56Z" fill="#EB996E"/>
<path d="M341.04 281.323C339.915 280.957 338.743 280.757 337.56 280.732C336.399 280.912 335.273 281.268 334.219 281.787C334.161 281.787 334.382 281.346 334.95 280.929C335.705 280.405 336.589 280.096 337.506 280.035C338.423 279.973 339.34 280.162 340.158 280.581C340.762 280.917 341.04 281.254 341.04 281.323Z" fill="#EB996E"/>
<path d="M353.359 289.06C352.656 287.922 351.793 286.89 350.796 285.998C349.044 284.629 347.142 284.548 347.165 284.339C347.188 284.13 347.64 284.142 348.418 284.235C349.438 284.392 350.403 284.802 351.223 285.428C352.044 286.054 352.695 286.876 353.116 287.819C353.417 288.55 353.44 289.037 353.359 289.06Z" fill="#EB996E"/>
<path d="M365.644 291.682C365.493 291.833 364.136 290.302 361.827 289.698C360.414 289.427 358.969 289.356 357.535 289.49C357.535 289.408 357.941 289.13 358.765 288.933C359.84 288.706 360.953 288.738 362.013 289.024C363.074 289.31 364.051 289.844 364.866 290.58C365.47 291.16 365.702 291.636 365.644 291.682Z" fill="#EB996E"/>
<path d="M52.6756 350.831C52.6756 350.831 33.64 458.803 34.5796 468.907C35.5192 479.011 40.5536 495.065 51.9796 497.814C59.2367 499.436 66.7624 499.436 74.0196 497.814L60.32 365.191L52.6756 350.831Z" fill="#81184E"/>
<path d="M108.344 295.127C108.344 295.127 85.5848 311.367 80.504 316.065C59.4616 335.959 55.0652 344.103 52.664 350.865C50.2628 357.628 67.28 513.88 67.28 513.88L70.76 541.198L230.457 541.604V402.068L206.48 303.851L191.713 299.651L188.732 287.947C188.732 287.947 170.392 274.398 140.14 274.027C130.86 273.899 117.659 277.565 110.304 283.307L108.344 295.127Z" fill="#81184E"/>
<path d="M188.57 304.257C188.57 304.257 204.984 303.526 206.434 303.851C211.491 305.011 225.376 317.771 241.234 333.454C256.314 348.418 286.033 379.564 286.033 379.564C286.033 379.564 291.369 374.181 297.459 381.373L320.902 347.269C320.902 347.269 356.12 351.585 361.595 378.16C361.595 378.16 350.807 398.762 341.968 413.482C341.968 413.482 309.268 467.759 283.434 457.922C259.84 448.92 230.248 424.931 226.084 419.804L191.284 395.015C191.284 395.015 167.481 349.636 178.002 326.946L188.57 304.257Z" fill="#81184E"/>
<path d="M191.667 299.651C191.383 299.626 191.102 299.567 190.832 299.477L188.512 298.851C186.458 298.329 183.466 297.61 179.73 296.902C169.987 295.101 160.144 293.888 150.255 293.271C140.371 292.569 130.449 292.6 120.57 293.364C116.777 293.689 113.738 294.164 111.65 294.524L109.249 295C108.974 295.079 108.688 295.118 108.402 295.116C108.663 295.002 108.935 294.916 109.214 294.86L111.592 294.257C114.54 293.621 117.523 293.152 120.524 292.854C130.425 291.946 140.384 291.849 150.301 292.564C160.21 293.175 170.066 294.462 179.8 296.415C183.535 297.192 186.516 297.981 188.57 298.596L190.89 299.35C191.159 299.42 191.42 299.521 191.667 299.651Z" fill="#263238"/>
<path d="M129.468 291.531C129.27 291.531 128.748 288.886 128.308 285.557C127.867 282.228 127.623 279.525 127.82 279.49C128.429 281.432 128.818 283.436 128.98 285.464C129.444 288.84 129.665 291.508 129.468 291.531Z" fill="#263238"/>
<path d="M135.43 291.021C133.844 287.19 133.551 282.946 134.595 278.934C134.804 278.934 134.49 281.671 134.722 285C134.954 288.33 135.627 290.963 135.43 291.021Z" fill="#263238"/>
<g opacity="0.3">
<path d="M108.866 295C133.852 299.419 159.187 295 185.635 298.166C160.115 292.877 133.504 290.371 108.866 295Z" fill="black"/>
</g>
<g opacity="0.3">
<path d="M64.96 498.023C50.9008 465.091 52.5712 427.878 54.52 392.138L64.96 498.023Z" fill="black"/>
</g>
<path d="M52.6756 374.367C52.7136 374.503 52.7369 374.643 52.7452 374.785C52.7452 375.098 52.8379 375.504 52.8959 376.003C53.0119 377.163 53.186 378.705 53.3948 380.724C53.8008 384.865 54.3923 390.781 55.1115 398.124C56.5383 412.763 58.4872 433.005 60.8188 455.335C63.1504 477.665 65.4588 497.861 67.338 512.453C68.2544 519.75 69.0431 525.654 69.658 529.726C69.9248 531.733 70.1336 533.31 70.2728 534.424C70.3424 534.934 70.3888 535.34 70.4235 535.653C70.4361 535.792 70.4361 535.932 70.4235 536.071C70.3765 535.94 70.3453 535.803 70.3308 535.665L70.1103 534.447C69.9363 533.287 69.6812 531.767 69.368 529.807C68.7299 525.735 67.86 519.843 66.874 512.558C64.8904 497.977 62.4775 477.758 60.1459 455.439C57.8143 433.121 55.9468 412.856 54.6476 398.205C54.0212 390.909 53.4876 384.981 53.1512 380.805C53.0004 378.787 52.8727 377.209 52.7915 376.084C52.7915 375.573 52.7915 375.167 52.7103 374.843C52.6792 374.686 52.6675 374.526 52.6756 374.367Z" fill="#263238"/>
<path d="M160.788 356.7C160.45 356.752 160.108 356.772 159.767 356.758H156.809C154.257 356.758 150.545 356.758 145.974 356.886C136.822 357.095 124.19 357.767 110.328 359.403C96.4656 361.039 84.0188 363.405 75.0752 365.4C70.5976 366.363 66.9552 367.198 64.5076 367.813L61.6308 368.486C61.3002 368.576 60.9626 368.638 60.6216 368.671C60.9359 368.534 61.2621 368.425 61.596 368.347L64.438 367.546C66.9088 366.85 70.5048 365.945 74.9708 364.913C98.2635 359.559 122.064 356.724 145.963 356.457C150.603 356.457 154.257 356.457 156.82 356.549L159.767 356.665C160.107 356.65 160.449 356.661 160.788 356.7Z" fill="#263238"/>
<path d="M99.47 391.663C99.2728 391.663 99.644 376.71 100.282 358.278C100.92 339.845 101.616 324.893 101.813 324.905C102.01 324.916 101.639 339.857 100.99 358.301C100.34 376.745 99.6556 391.674 99.47 391.663Z" fill="#263238"/>
<path d="M181.076 389.818C180.859 389.518 180.661 389.204 180.484 388.878C180.074 388.19 179.541 387.274 178.884 386.129L172.991 376.002C170.009 371.015 167.534 365.741 165.602 360.261C164.53 356.987 163.792 353.614 163.398 350.192C163.061 346.511 163.061 342.807 163.398 339.126C163.887 331.992 165.672 325.007 168.664 318.513C170.039 315.701 171.791 313.09 173.872 310.752C175.703 308.737 177.803 306.985 180.113 305.544C183.44 303.405 187.247 302.129 191.191 301.832C192.626 301.712 194.071 301.794 195.483 302.076C194.061 302 192.636 302 191.214 302.076C187.345 302.466 183.627 303.787 180.38 305.927C178.128 307.371 176.083 309.116 174.302 311.112C172.281 313.424 170.584 316 169.256 318.768C166.326 325.201 164.578 332.109 164.094 339.161C163.768 342.792 163.768 346.445 164.094 350.076C164.478 353.452 165.192 356.782 166.228 360.018C168.124 365.47 170.536 370.73 173.432 375.724L179.127 385.955L180.624 388.774C180.806 389.108 180.957 389.457 181.076 389.818Z" fill="#263238"/>
<g opacity="0.3">
<path d="M63.2084 368.544C73.3003 368.021 83.3349 366.698 93.2176 364.588C91.9982 368.954 91.4314 373.477 91.5356 378.009C94.6693 374.479 96.9512 370.276 98.2056 365.725C98.5647 368.201 99.4209 370.579 100.723 372.716C102.024 374.853 103.745 376.705 105.78 378.16C106.775 373.672 107.002 369.048 106.453 364.484C121.386 362.689 136.219 360.234 150.951 357.118C121.133 356.395 91.3723 360.097 62.64 368.103" fill="black"/>
</g>
<path d="M255.2 442.969C254.956 442.863 254.726 442.727 254.516 442.563L252.602 441.287C250.954 440.127 248.588 438.538 245.642 436.485C239.842 432.402 231.826 426.66 223.114 420.164C214.403 413.668 206.619 407.636 201.074 403.216C198.29 401.012 196.04 399.202 194.497 397.938L192.734 396.476C192.518 396.316 192.319 396.134 192.142 395.931C192.379 396.062 192.605 396.213 192.815 396.384L194.648 397.752L201.341 402.88C206.99 407.218 214.809 413.18 223.52 419.676C232.232 426.172 240.12 431.961 245.92 436.16L252.741 441.125L254.585 442.482C254.803 442.627 255.009 442.79 255.2 442.969Z" fill="#263238"/>
<path d="M294.164 407.38C294.06 407.38 294.164 405.617 293.921 402.822C293.395 395.493 291.188 388.384 287.471 382.046C286.044 379.622 285 378.218 285.082 378.148C285.396 378.42 285.673 378.732 285.905 379.076C286.594 379.959 287.237 380.876 287.831 381.826C291.807 388.123 294.055 395.357 294.35 402.798C294.412 403.915 294.412 405.034 294.35 406.151C294.343 406.567 294.28 406.981 294.164 407.38Z" fill="#263238"/>
<path d="M301.356 404.747C301.389 403.552 301.486 402.359 301.646 401.174C301.863 398.314 301.808 395.44 301.484 392.59C301.154 389.74 300.552 386.928 299.686 384.192C299.025 382.081 298.526 380.816 298.596 380.77C298.796 381.027 298.956 381.312 299.071 381.617C299.454 382.41 299.795 383.223 300.092 384.053C302.086 389.542 302.761 395.423 302.064 401.221C301.925 402.323 301.774 403.216 301.635 403.819C301.586 404.14 301.492 404.452 301.356 404.747Z" fill="#263238"/>
<path d="M355.83 389.818C355.83 389.818 355.83 389.598 355.563 389.377C355.363 389.251 355.199 389.075 355.088 388.867C354.96 388.623 354.867 388.333 354.705 388.055C354.392 387.463 353.614 387.023 353.058 386.164C352.455 385.212 351.987 384.182 351.666 383.102C350.873 380.346 349.514 377.785 347.675 375.585C346.572 374.306 345.374 373.111 344.091 372.012C342.729 370.809 341.283 369.704 339.764 368.706C338.293 367.633 336.742 366.676 335.124 365.841L330.484 363.591C329.022 362.895 327.654 362.175 326.32 361.607L322.608 360.018C322.056 359.807 321.518 359.563 320.995 359.287C320.496 358.997 320.09 358.672 319.673 358.44L318.513 357.802C318.142 357.605 317.828 357.338 317.55 357.164C316.982 356.805 316.483 356.607 316.158 356.433C315.833 356.259 315.671 356.167 315.682 356.143C315.863 356.184 316.038 356.246 316.204 356.329C316.71 356.505 317.203 356.719 317.678 356.967C318.381 357.41 319.118 357.798 319.882 358.127C320.334 358.347 320.763 358.672 321.227 358.927C321.691 359.183 322.271 359.368 322.828 359.612L326.563 361.12C327.897 361.665 329.289 362.384 330.774 363.069L335.414 365.284C337.054 366.126 338.624 367.096 340.112 368.184C341.658 369.191 343.124 370.316 344.497 371.548C345.798 372.669 347.008 373.89 348.116 375.202C349.978 377.467 351.331 380.105 352.083 382.939C352.374 383.995 352.799 385.008 353.348 385.955C353.835 386.767 354.589 387.243 354.914 387.916C355.088 388.241 355.157 388.542 355.262 388.763C355.355 388.959 355.49 389.133 355.656 389.273C355.946 389.575 355.842 389.841 355.83 389.818Z" fill="#263238"/>
<path d="M207.014 538.913C206.851 538.913 206.712 509.565 206.712 473.361C206.712 437.158 206.851 407.81 207.014 407.81C207.176 407.81 207.315 437.158 207.315 473.361C207.315 509.565 207.188 538.913 207.014 538.913Z" fill="#263238"/>



<style>
.el1 {
    animation: an1 3s infinite;
}
.el2 {
    animation: an1 3s infinite;
     animation-delay:0.5s;
}

@keyframes an1 {
     0% {
       transform: translateY(0);
    }
    50% {
      transform: translateY(10px);
    }
    100% {
       transform: translateY(0);
    }
}

</style>


</svg>
