<svg width="500" height="500" viewBox="0 0 500 500" fill="none" xmlns="http://www.w3.org/2000/svg">
<path d="M396.84 102.24L394.84 98.96C378.06 71.31 347.72 54.64 315.73 56.66C311.611 56.9234 307.517 57.4883 303.48 58.35C274.4 64.57 249.09 86.57 238.6 114.73C232.43 131.3 230.71 150.37 219 163.52C203.77 180.63 177.9 181.17 155.16 180.46C132.42 179.75 106.53 180.36 91.37 197.54C81.89 208.3 78.87 223.6 79.63 238C81.63 276.15 108.25 310.26 142.05 327.21C175.85 344.16 215.66 345.69 252.66 338.21C304.5 327.76 353.79 299.07 383.42 254.75C413.05 210.43 420.54 150.08 396.84 102.24Z" fill="#F5F5F5"/>
<path d="M434.579 294.209C437.126 282.934 430.051 271.728 418.776 269.181C407.5 266.634 396.295 273.71 393.748 284.985C391.201 296.26 398.276 307.465 409.552 310.012C420.827 312.559 432.032 305.484 434.579 294.209Z" fill="#F5F5F5"/>
<path d="M478.31 427.4C478.31 427.55 376.04 427.66 249.92 427.66C123.8 427.66 21.5 427.55 21.5 427.4C21.5 427.25 123.75 427.14 249.92 427.14C376.09 427.14 478.31 427.26 478.31 427.4Z" fill="#263238"/>


<g class="el1">
<path d="M186.49 56.56C186.416 56.3153 186.294 56.0878 186.131 55.8904C185.969 55.693 185.769 55.5296 185.543 55.4097C185.317 55.2899 185.07 55.2158 184.816 55.1918C184.561 55.1678 184.304 55.1944 184.06 55.27L175.3 58L55.16 89.87L97.94 256.6L112.83 264.43L235.11 230.43C235.583 230.299 236.024 230.075 236.409 229.771C236.794 229.467 237.114 229.089 237.35 228.66C237.587 228.23 237.735 227.758 237.787 227.27C237.838 226.782 237.792 226.289 237.65 225.82L186.49 56.56Z" fill="#81184E"/>
<path d="M172.9 49.95L184.87 56.97L236.12 227.73L112.63 262.99L98.6 255.37L172.9 49.95Z" fill="#F5F5F5"/>
<path d="M219.33 220.63L97.94 256.63L48.86 91C48.5527 89.9538 48.6674 88.8288 49.1796 87.8661C49.6918 86.9035 50.5606 86.1797 51.6 85.85L171.69 48.15C171.984 48.0581 172.294 48.026 172.6 48.0555C172.907 48.085 173.205 48.1756 173.476 48.3219C173.747 48.4682 173.986 48.6672 174.179 48.9073C174.372 49.1474 174.515 49.4238 174.6 49.72L222.05 215.72C222.332 216.732 222.205 217.814 221.696 218.732C221.187 219.651 220.337 220.332 219.33 220.63Z" fill="#81184E"/>
<path d="M113.47 249.59C113.34 249.59 102.04 212.59 88.25 166.77C74.46 120.95 63.38 83.83 63.52 83.77C63.66 83.71 74.95 120.77 88.75 166.6C102.55 212.43 113.61 249.55 113.47 249.59Z" fill="#263238"/>
<path d="M109.19 253.87C109.05 253.92 97.76 216.87 83.97 171.05C70.18 125.23 59.1 88.12 59.24 88.05C59.38 87.98 70.67 125.05 84.46 170.88C98.25 216.71 109.33 253.83 109.19 253.87Z" fill="#263238"/>
<path d="M225.68 225L225.4 225.11L224.55 225.4L221.29 226.4L209.29 230.16L169.56 242.36L129.78 254.42L117.69 258L114.4 259L113.54 259.24C113.443 259.274 113.342 259.294 113.24 259.3C113.329 259.252 113.423 259.215 113.52 259.19L114.37 258.9L117.63 257.9L129.63 254.14L169.37 241.93L209.14 229.88L221.21 226.28L224.5 225.28L225.36 225.05C225.464 225.019 225.572 225.002 225.68 225Z" fill="#263238"/>
<path d="M157.61 242.71L139.2 248.36C143.529 256.289 146.605 264.84 148.32 273.71C150.939 269.673 152.37 264.981 152.45 260.17C155.562 263.9 158.956 267.387 162.6 270.6C162.855 261.06 161.157 251.569 157.61 242.71Z" fill="#455A64"/>
<path d="M223.43 222.72C223.43 222.72 223.34 222.77 223.15 222.84L222.31 223.12L219.05 224.12L207.05 227.87L167.32 240.08L127.55 252.14L115.48 255.74L112.19 256.69L111.33 256.92L111.03 256.99C111.118 256.938 111.212 256.898 111.31 256.87L112.15 256.59L115.42 255.54L127.42 251.79L167.15 239.58L206.93 227.52L219 224L222.29 223.05L223.15 222.82L223.43 222.72Z" fill="#263238"/>
<path d="M227.16 218C227.098 217.864 227.048 217.724 227.01 217.58L226.64 216.34L225.27 211.58C224.09 207.42 222.39 201.44 220.27 194.06C216.07 179.26 210.22 158.82 203.63 136.29C197.04 113.76 191 93.41 186.52 78.68C184.31 71.33 182.52 65.38 181.26 61.23C180.66 59.23 180.18 57.59 179.85 56.48C179.7 55.96 179.58 55.55 179.5 55.25C179.452 55.1098 179.415 54.966 179.39 54.82C179.452 54.9531 179.505 55.0901 179.55 55.23C179.64 55.53 179.78 55.93 179.95 56.45C180.3 57.56 180.81 59.14 181.46 61.17C182.74 65.3 184.59 71.24 186.88 78.57C191.41 93.27 197.56 113.62 204.16 136.16C210.76 158.7 216.54 179.16 220.65 193.97C222.65 201.37 224.33 207.36 225.47 211.54L226.75 216.33C226.88 216.86 226.99 217.27 227.06 217.58C227.13 217.89 227.16 218 227.16 218Z" fill="#263238"/>
<path d="M174.32 86.79C174.32 86.79 174.32 86.67 174.2 86.45L173.87 85.45C173.577 84.5433 173.157 83.2433 172.61 81.55C171.53 78.15 169.96 73.2 167.97 66.95L168.16 67.05L76.9 95.61L77.07 95.28C79.2 102.1 81.28 108.77 83.27 115.18L82.95 115.01L148 94.84L167.25 88.92L172.46 87.33L173.82 86.92L174.29 86.79L173.86 86.95L172.54 87.37L167.44 89L148.28 95L83.1 115.51L82.85 115.58L82.77 115.34C80.77 108.93 78.69 102.26 76.57 95.45L76.49 95.2L76.74 95.12L168.07 66.76L168.21 66.71V66.85C170.14 73.16 171.66 78.15 172.72 81.59C173.22 83.27 173.62 84.59 173.89 85.47C174.02 85.9 174.11 86.22 174.18 86.47C174.236 86.5722 174.283 86.6793 174.32 86.79Z" fill="white"/>
</g>
<path d="M253.19 121.18C247.34 116.71 246.65 107.46 250.58 101.24C254.51 95.02 261.98 91.69 269.32 91.16C274.652 90.823 279.988 91.7517 284.892 93.8702C289.796 95.9887 294.13 99.2371 297.54 103.35C301.17 107.82 303.93 113.47 309.18 115.83C313.79 117.91 319.18 116.83 324.13 117.96C330.76 119.42 336.08 124.69 339.01 130.81C341.94 136.93 342.75 143.81 342.95 150.62C343.13 156.85 343.02 163.62 346.9 168.52C350.78 173.42 357.17 174.78 362.08 178.35C371.31 185.08 373.19 199.89 365.93 208.7C363.62 211.52 360.43 214 359.87 217.6C359.36 220.88 361.24 224.02 361.96 227.26C363.82 235.62 356.32 244.69 347.76 244.43C343.44 244.29 338.98 242.21 334.96 243.79C330.94 245.37 329.14 249.85 326.38 253.14C323.578 256.318 319.768 258.436 315.589 259.139C311.411 259.842 307.118 259.087 303.43 257C300.43 255.17 297.65 252.35 294.11 252.28C290.57 252.21 287.56 254.95 284.05 255.28C279.46 255.75 275.47 252.05 273.11 248.08C270.75 244.11 269.27 239.54 266.11 236.18C261.97 231.78 255.73 230.24 250.21 227.77C244.093 225.042 238.634 221.032 234.201 216.011C229.769 210.99 226.466 205.076 224.518 198.668C222.569 192.26 222.02 185.509 222.907 178.87C223.794 172.232 226.097 165.861 229.66 160.19" fill="#263238"/>
<path d="M311.53 207.88C313.048 206.514 314.873 205.533 316.85 205.02L316.47 204.97C316.83 204.91 317.195 204.88 317.56 204.88C318.229 204.746 318.919 204.751 319.586 204.894C320.253 205.036 320.884 205.314 321.44 205.71C323.561 206.693 325.237 208.434 326.14 210.59C326.822 212.49 326.968 214.54 326.562 216.518C326.157 218.495 325.215 220.322 323.84 221.8C321.49 224.39 317.69 225.88 314.38 224.8C311.38 223.8 309.28 220.75 308.67 217.59C308.291 215.862 308.354 214.065 308.854 212.368C309.354 210.671 310.274 209.127 311.53 207.88Z" fill="#455A64"/>
<path d="M321.18 165.75C321.12 148.16 310.8 125.98 293.23 126.75L237.91 137.28C235.335 137.396 232.898 138.475 231.081 140.303C229.264 142.131 228.2 144.575 228.1 147.15L220.47 295.44L283.08 295.11C283.84 284.5 286.64 254.63 286.64 254.73C286.64 254.83 311.01 252.41 317.38 223.49C320.56 209.13 321.24 185.28 321.18 165.75Z" fill="#FFBF9D"/>
<path d="M308.05 189.69C308.003 190.666 307.576 191.585 306.861 192.251C306.145 192.916 305.197 193.275 304.22 193.25C303.741 193.261 303.266 193.175 302.821 192.999C302.376 192.823 301.971 192.559 301.63 192.223C301.288 191.888 301.018 191.487 300.834 191.045C300.65 190.603 300.557 190.129 300.56 189.65C300.607 188.673 301.033 187.753 301.749 187.086C302.464 186.419 303.412 186.058 304.39 186.08C304.869 186.071 305.345 186.157 305.79 186.335C306.235 186.512 306.64 186.777 306.981 187.113C307.322 187.45 307.592 187.851 307.776 188.294C307.96 188.736 308.053 189.211 308.05 189.69Z" fill="#263238"/>
<path d="M315.31 175.84C314.82 176.3 312.11 174.03 308.07 173.84C304.03 173.65 300.97 175.45 300.56 174.93C300.36 174.7 300.89 173.85 302.23 172.99C304.031 171.893 306.126 171.376 308.23 171.51C310.339 171.601 312.362 172.369 314 173.7C315.19 174.73 315.55 175.64 315.31 175.84Z" fill="#263238"/>
<path d="M271.8 187.2C271.753 188.176 271.326 189.095 270.611 189.761C269.895 190.426 268.947 190.785 267.97 190.76C267.491 190.771 267.014 190.685 266.568 190.508C266.123 190.331 265.717 190.066 265.376 189.73C265.035 189.393 264.764 188.991 264.581 188.548C264.398 188.105 264.306 187.629 264.31 187.15C264.359 186.175 264.787 185.257 265.502 184.592C266.217 183.928 267.164 183.568 268.14 183.59C268.619 183.581 269.095 183.667 269.54 183.845C269.985 184.022 270.39 184.287 270.731 184.623C271.072 184.96 271.342 185.361 271.526 185.804C271.71 186.246 271.803 186.721 271.8 187.2Z" fill="#263238"/>
<path d="M275.66 174.23C275.16 174.69 272.45 172.42 268.42 172.23C264.39 172.04 261.32 173.84 260.91 173.32C260.71 173.09 261.23 172.24 262.58 171.38C264.38 170.281 266.475 169.764 268.58 169.9C270.679 170.015 272.686 170.796 274.31 172.13C275.53 173.12 275.9 174 275.66 174.23Z" fill="#263238"/>
<path d="M288.5 205C288.5 204.77 291.02 204.48 295.11 204.21C296.11 204.21 297.11 204.01 297.35 203.32C297.59 202.63 297.27 201.46 296.85 200.23L294.27 192.23C290.71 180.82 288.2 171.46 288.66 171.32C289.12 171.18 292.38 180.32 295.94 191.72C296.79 194.54 297.61 197.22 298.38 199.78C298.7 200.97 299.29 202.34 298.68 203.85C298.509 204.203 298.26 204.513 297.952 204.756C297.643 204.998 297.284 205.167 296.9 205.25C296.319 205.375 295.724 205.422 295.13 205.39C291 205.35 288.5 205.22 288.5 205Z" fill="#263238"/>
<path d="M286.89 254.37C286.89 254.37 268.89 254.53 250.17 241.67C250.17 241.67 256.69 264.08 286.08 263.09L286.89 254.37Z" fill="#FF9A6C"/>
<path d="M287.33 214.53C286.502 213.147 285.351 211.987 283.974 211.149C282.598 210.311 281.038 209.821 279.43 209.72C278.377 209.667 277.327 209.873 276.372 210.319C275.417 210.765 274.585 211.438 273.95 212.28C273.307 213.235 272.939 214.349 272.888 215.499C272.837 216.65 273.104 217.792 273.66 218.8C274.328 219.847 275.296 220.668 276.437 221.157C277.579 221.646 278.841 221.779 280.06 221.54C282.37 221.13 284.34 219.68 286.21 218.23C286.763 217.856 287.231 217.369 287.58 216.8C287.757 216.486 287.85 216.131 287.85 215.77C287.85 215.409 287.757 215.054 287.58 214.74" fill="#FF9A6C"/>
<path d="M276.47 207.07C277.13 207.07 276.88 211.44 280.47 214.77C284.06 218.1 288.71 217.89 288.71 218.51C288.71 218.79 287.62 219.3 285.65 219.23C283.086 219.108 280.645 218.093 278.75 216.36C276.954 214.683 275.878 212.374 275.75 209.92C275.62 208.08 276.18 207 276.47 207.07Z" fill="#263238"/>
<path d="M278.43 157.75C277.96 158.82 273.97 158.06 269.21 158.35C264.45 158.64 260.55 159.7 259.98 158.68C259.73 158.19 260.45 157.2 262.06 156.23C264.193 155.049 266.568 154.371 269.003 154.248C271.438 154.125 273.869 154.56 276.11 155.52C277.81 156.32 278.63 157.24 278.43 157.75Z" fill="#263238"/>
<path d="M314.72 161.89C313.96 162.76 311.24 161.65 307.9 161.4C304.56 161.15 301.7 161.65 301.11 160.65C300.85 160.17 301.35 159.28 302.63 158.49C304.356 157.546 306.323 157.137 308.282 157.315C310.241 157.493 312.103 158.25 313.63 159.49C314.73 160.49 315.06 161.46 314.72 161.89Z" fill="#263238"/>
<path d="M341.39 159.37C340.39 154.89 338.29 150.51 334.68 147.67C332.68 146.12 330.34 145.07 328.53 143.33C324.62 139.56 324.16 133.56 321.98 128.59C320.541 125.389 318.36 122.578 315.617 120.388C312.875 118.199 309.65 116.694 306.21 116C300.49 114.9 294.39 116.11 288.89 114.2C284.82 112.78 281.42 109.76 277.28 108.59C269.21 106.31 261.07 111.52 254.6 116.86C254.06 122.73 258.4 127.07 262.6 131.24C264.707 133.314 267.238 134.906 270.019 135.907C272.8 136.908 275.765 137.295 278.71 137.04C283.26 136.62 288.37 134.79 292.04 137.52C295.9 140.39 295.53 146.52 298.87 150.02C303.65 154.96 312.24 151.47 318.64 154.02C323.57 155.97 326.31 161.1 329.32 165.47C332.33 169.84 337.04 174.17 342.24 173.11C342.29 168.49 342.36 163.86 341.39 159.37Z" fill="#263238"/>
<path d="M282 129.12C278.42 127.74 271.1 124.7 269.41 121.33C265.74 114.02 258.6 108.63 250.84 108.33C246.818 108.291 242.891 109.554 239.647 111.932C236.402 114.309 234.014 117.673 232.84 121.52C223.5 120.77 213.84 125.83 208.61 134.26C207.949 135.319 207.361 136.421 206.85 137.56C205.168 140.009 204.042 142.795 203.549 145.725C203.057 148.654 203.211 151.656 204 154.52C205 157.95 206.82 161.84 204.84 164.81C202.86 167.78 198.41 167.54 194.84 168.42C191.783 169.273 189.122 171.174 187.324 173.79C185.525 176.405 184.703 179.57 185 182.73C185.28 184.98 186.14 187.28 185.48 189.45C184.82 191.62 182.69 193.17 181.01 194.83C178.926 196.917 177.426 199.514 176.66 202.362C175.893 205.21 175.887 208.209 176.642 211.059C177.397 213.91 178.887 216.513 180.962 218.609C183.038 220.704 185.626 222.218 188.47 223C191.05 223.7 193.89 223.84 196.04 225.44C198.49 227.26 199.35 230.49 200.97 233.09C202.575 235.561 204.892 237.486 207.616 238.609C210.339 239.732 213.34 240.001 216.22 239.38C217.371 239.095 218.478 238.655 219.51 238.07C221.05 240.66 223.65 242.55 228.36 242.96L232.69 181.45C232.962 182.232 233.42 182.937 234.024 183.503C234.629 184.069 235.362 184.48 236.16 184.7C245.82 187.79 249.05 167.61 247.33 161.91C251.18 159.06 255.07 156.17 258.14 152.38C261.21 148.59 264.58 137.84 264.44 132.85C268 133.39 283.55 129.72 282 129.12Z" fill="#263238"/>
<path d="M235 186.7C235.23 180.43 227.71 178.42 222 181.07C218.87 182.52 216.3 185.78 216 192.43C215.17 210.16 233.14 207.34 233.2 206.83C233.22 206.52 234.69 194 235 186.7Z" fill="#FFBF9D"/>
<path d="M228.09 199.86C228.01 199.8 227.77 200.06 227.23 200.27C226.481 200.551 225.653 200.529 224.92 200.21C223.08 199.44 221.64 196.39 221.7 193.21C221.733 191.688 222.102 190.193 222.78 188.83C222.97 188.283 223.291 187.79 223.715 187.395C224.138 186.999 224.651 186.713 225.21 186.56C225.57 186.486 225.944 186.538 226.27 186.707C226.596 186.877 226.854 187.153 227 187.49C227.21 188 227.08 188.35 227.17 188.39C227.26 188.43 227.57 188.11 227.46 187.39C227.38 186.944 227.151 186.539 226.81 186.24C226.34 185.852 225.738 185.662 225.13 185.71C224.394 185.818 223.698 186.114 223.109 186.57C222.521 187.025 222.059 187.624 221.77 188.31C220.943 189.809 220.496 191.488 220.47 193.2C220.41 196.78 222.09 200.2 224.62 201.07C225.088 201.232 225.586 201.287 226.078 201.23C226.569 201.173 227.042 201.005 227.46 200.74C228 200.28 228.15 199.89 228.09 199.86Z" fill="#FF9A6C"/>
<path d="M258.06 122.2C258.17 122.4 256.23 122.55 254.27 124.84C252.31 127.13 251.27 131.65 251.89 136.95L251.95 137.4L251.51 137.47C248.911 137.926 246.452 138.976 244.324 140.537C242.196 142.097 240.456 144.128 239.24 146.47C238.573 147.797 238.133 149.227 237.94 150.7C237.843 152.274 237.89 153.854 238.08 155.42C238.285 157.108 238.361 158.81 238.31 160.51C238.275 162.367 237.621 164.158 236.45 165.6C233.96 168.75 230.28 170.08 227.1 171.41C223.972 172.475 221.04 174.046 218.42 176.06C214.08 179.632 211.257 184.718 210.52 190.29C210.06 194.055 210.527 197.876 211.88 201.42C212.88 203.93 213.73 205.17 213.62 205.24C213.355 204.982 213.126 204.689 212.94 204.37C212.359 203.491 211.854 202.565 211.43 201.6C209.853 198.017 209.236 194.084 209.64 190.19C210.274 184.346 213.14 178.972 217.64 175.19C220.341 173.059 223.384 171.402 226.64 170.29C229.82 168.96 233.29 167.62 235.46 164.84C237.66 162.33 237.09 158.75 236.86 155.54C236.667 153.881 236.627 152.207 236.74 150.54C236.964 148.93 237.454 147.369 238.19 145.92C239.498 143.429 241.371 141.279 243.66 139.643C245.949 138.008 248.59 136.931 251.37 136.5L250.98 137.02C250.41 131.48 251.66 126.77 253.88 124.44C254.703 123.54 255.733 122.854 256.88 122.44C257.262 122.311 257.658 122.231 258.06 122.2Z" fill="#455A64"/>
<path d="M220.9 205.89C222.418 204.524 224.243 203.543 226.22 203.03L225.83 202.97C226.195 202.92 226.562 202.89 226.93 202.88C227.6 202.748 228.29 202.754 228.957 202.898C229.624 203.043 230.255 203.322 230.81 203.72C232.93 204.697 234.604 206.435 235.5 208.59C236.185 210.49 236.334 212.542 235.93 214.521C235.526 216.501 234.585 218.33 233.21 219.81C230.85 222.39 227.06 223.89 223.75 222.81C220.75 221.81 218.65 218.81 218.04 215.6C217.656 213.872 217.717 212.074 218.217 210.376C218.717 208.678 219.641 207.134 220.9 205.89Z" fill="#455A64"/>
<path d="M157.38 286.33C157.38 286.33 81 360.45 81.69 384.38C81.6496 384.777 81.5692 385.169 81.45 385.55C78.67 401.27 90.09 416 105.93 418L135.45 421.67L198.51 340.34L181.44 294.9L157.38 286.33Z" fill="#81184E"/>
<path d="M131 322.83C131 322.83 143.32 301.99 157.39 286.33C170.71 271.52 188.44 267.33 192.39 267.11C206.99 266.42 268.55 270.58 308.04 272.11C322.71 272.7 337.2 281.22 346.79 292.34C368.26 317.24 405.91 361.62 413.47 375.29C424.19 394.65 416.67 438.73 409.15 444.61C401.63 450.49 170.89 440.48 170.89 440.48L131 322.83Z" fill="#81184E"/>
<path d="M390.46 375.34C390.301 375.361 390.139 375.361 389.98 375.34L388.6 375.29L387.6 375.24C387.24 375.24 386.84 375.24 386.42 375.24C385.461 375.24 384.503 375.291 383.55 375.39L381.89 375.56C381.31 375.62 380.72 375.76 380.1 375.86C378.86 376.04 377.58 376.41 376.21 376.75C370.32 378.433 364.888 381.428 360.32 385.51C359.33 386.399 358.386 387.336 357.49 388.32C357.08 388.79 356.65 389.22 356.28 389.67C355.91 390.12 355.58 390.57 355.28 390.99C354.689 391.741 354.139 392.522 353.63 393.33C353.39 393.69 353.16 394.01 352.97 394.33L352.49 395.19C352.21 395.66 351.99 396.06 351.8 396.38C351.61 396.7 351.54 396.79 351.52 396.78C351.564 396.624 351.624 396.473 351.7 396.33C351.87 396 352.07 395.59 352.31 395.09L352.76 394.2C352.94 393.88 353.16 393.55 353.38 393.2C353.871 392.367 354.409 391.563 354.99 390.79C355.31 390.35 355.65 389.9 355.99 389.44C356.33 388.98 356.78 388.53 357.19 388.05C358.084 387.043 359.029 386.082 360.02 385.17C364.615 381.003 370.122 377.968 376.1 376.31C377.418 375.954 378.753 375.667 380.1 375.45C380.72 375.36 381.32 375.23 381.91 375.18L383.59 375.04C384.555 374.964 385.523 374.941 386.49 374.97C386.92 374.97 387.31 374.97 387.68 374.97L388.68 375.06L390.06 375.21C390.199 375.235 390.333 375.278 390.46 375.34Z" fill="#263238"/>
<path d="M186.57 372.2C186.484 371.978 186.423 371.746 186.39 371.51L185.96 369.51C185.57 367.77 184.96 365.26 184.05 362.19C181.636 354.223 178.795 346.392 175.54 338.73C171.78 329.73 167.92 321.73 164.91 316.14C164.17 314.72 163.47 313.45 162.84 312.35C162.21 311.25 161.69 310.28 161.23 309.52L160.23 307.74C160.098 307.539 159.987 307.324 159.9 307.1C160.058 307.283 160.199 307.481 160.32 307.69L161.44 309.42C161.93 310.16 162.44 311.11 163.13 312.2C163.82 313.29 164.51 314.55 165.27 315.96C169.244 323.281 172.826 330.808 176 338.51C179.269 346.187 182.07 354.055 184.39 362.07C185.24 365.16 185.81 367.69 186.14 369.45C186.28 370.3 186.39 370.97 186.47 371.45C186.531 371.696 186.564 371.947 186.57 372.2Z" fill="#263238"/>
<path d="M339 307.71C339.009 307.793 339.009 307.877 339 307.96V308.69C339 309.38 339 310.32 339 311.51C339 313.97 338.85 317.51 338.66 321.89C338.3 330.65 337.54 342.74 336.2 356.06C334.86 369.38 333.2 381.37 331.79 390.06C331.1 394.39 330.5 397.88 330.05 400.29C329.83 401.47 329.65 402.39 329.52 403.07L329.37 403.79C329.363 403.874 329.339 403.955 329.3 404.03C329.295 403.947 329.295 403.863 329.3 403.78C329.3 403.58 329.36 403.34 329.4 403.05C329.5 402.37 329.65 401.44 329.83 400.26C330.21 397.79 330.75 394.26 331.41 390C332.7 381.34 334.32 369.34 335.66 356C337 342.66 337.81 330.62 338.28 321.87C338.49 317.53 338.66 314 338.78 311.51C338.84 310.32 338.88 309.37 338.91 308.69C338.91 308.39 338.91 308.15 338.96 307.96C338.963 307.875 338.976 307.791 339 307.71Z" fill="#263238"/>
<path d="M296.46 264.83C295.601 264.334 294.632 264.059 293.64 264.03L225 256.51C222.66 256.25 220 256.08 218.22 257.62C215.95 259.57 216.31 263.18 217.33 266C218.35 268.82 219.88 271.68 219.33 274.62L293 279.24C292.54 276.58 294.65 274.24 296.21 272.08C297.77 269.92 298.66 266.38 296.46 264.83Z" fill="#81184E"/>
<path d="M299.74 277.82C299.48 277.917 299.213 277.991 298.94 278.04L296.6 278.55C295.6 278.77 294.33 279.03 292.87 279.26C291.41 279.49 289.76 279.81 287.87 280.01L284.98 280.38C283.98 280.5 282.91 280.57 281.82 280.67C279.65 280.9 277.31 280.98 274.82 281.1C269.484 281.26 264.143 281.133 258.82 280.72C253.499 280.253 248.208 279.495 242.97 278.45C240.57 277.93 238.28 277.45 236.17 276.87C235.11 276.59 234.08 276.35 233.11 276.06L230.31 275.23C228.52 274.72 226.94 274.13 225.54 273.66C224.14 273.19 222.95 272.73 221.99 272.34L219.77 271.45C219.509 271.355 219.255 271.241 219.01 271.11C219.282 271.169 219.55 271.249 219.81 271.35L222.06 272.15C223.06 272.51 224.23 272.94 225.64 273.38C227.05 273.82 228.64 274.38 230.42 274.87L233.21 275.68C234.21 275.95 235.21 276.18 236.27 276.46C238.38 277.02 240.67 277.46 243.07 277.98C253.513 280.057 264.158 280.943 274.8 280.62C277.25 280.52 279.58 280.45 281.75 280.24C282.84 280.15 283.89 280.09 284.89 279.98L287.79 279.65C289.63 279.47 291.29 279.18 292.79 278.97C294.29 278.76 295.5 278.54 296.52 278.35L298.87 277.93C299.156 277.866 299.447 277.829 299.74 277.82Z" fill="#263238"/>
<g opacity="0.3">
<path d="M131.93 350.58C125.356 351.737 119.227 354.681 114.215 359.091C109.204 363.501 105.503 369.206 103.52 375.58C106.95 374.45 110.22 371.5 112.72 368.88C119.23 362.05 127.26 357.48 136.64 356.48C143.1 355.78 149.28 357.48 155.32 359.85C158.05 360.93 161.1 361.53 163.54 363.18L166.77 363.92C159.18 353 145.06 348.46 131.93 350.58Z" fill="black"/>
</g>
<g opacity="0.3">
<path d="M224.18 273C233.93 281.84 246.7 288.12 259.83 289.07C272.96 290.02 285.54 285.82 296.46 278.46C269.79 282.64 245.52 281.22 224.18 273Z" fill="black"/>
</g>
<g opacity="0.3">
<path d="M391.69 367.74C389.54 366.38 386.81 366.41 384.28 366.74C368.42 368.62 353.07 379.42 351.5 396.84C358.18 383.92 371.92 374.45 386.41 375.7C388.85 375.91 391.75 376.2 393.31 374.31C394.87 372.42 393.83 369.11 391.69 367.74Z" fill="black"/>
</g>
<path d="M87.76 451L217.82 450.34C217.82 450.34 216.96 452.85 222.35 452.85L265.35 452.55C265.35 452.55 268.53 452.85 268.58 450.34C268.58 450.34 369.41 452.04 394.32 452.74C396.18 452.79 399.48 451.66 397.93 449.29L389.24 438.88L245.38 424.88L143.38 435.6L108.38 422.96H107.22C106.748 422.958 106.283 423.07 105.864 423.286C105.444 423.502 105.083 423.815 104.81 424.2L86.81 449.2C86.6916 449.373 86.6227 449.575 86.6106 449.784C86.5986 449.993 86.6439 450.201 86.7417 450.387C86.8394 450.572 86.986 450.727 87.1655 450.835C87.3449 450.943 87.5505 451 87.76 451Z" fill="#455A64"/>
<path opacity="0.2" d="M142.75 447.99L374.45 449.78L319.96 432.9L252.03 434.81L184.06 432.1L142.75 447.99Z" fill="black"/>
<path d="M244.09 443.41L245.38 414.9C245.38 414.9 245.64 399.22 226.75 393.99C207.86 388.76 184.32 395.42 162.33 396.61C140.34 397.8 140.6 396.13 140.6 396.13L122.75 423.69L192.86 433.91C192.86 433.91 233.48 436.28 234.25 436.52C235.02 436.76 244.09 443.41 244.09 443.41Z" fill="white"/>
<path d="M243.86 444.42L245.38 417.63C245.38 417.63 245.12 402 264 396.73C282.88 391.46 306.42 398.15 328.41 399.34C343.8 400.17 348.57 400.03 350.05 399.87C350.256 399.848 350.464 399.882 350.652 399.968C350.841 400.054 351.002 400.19 351.12 400.36L368 426.42L297.9 436.64C297.9 436.64 257.28 439.02 256.5 439.25C255.72 439.48 243.86 444.42 243.86 444.42Z" fill="white"/>
<path d="M92.22 448.88L122.75 423.69C122.75 423.69 186 413 207.45 416.8C228.9 420.6 241.14 427.97 244.09 443.65L223.49 448.88C214.98 444.564 205.61 442.213 196.07 442C180.55 441.76 141.74 448.89 141.74 448.89L92.22 448.88Z" fill="#E0E0E0"/>
<path d="M265.94 448.88L244.2 443.41C244.2 443.41 245.75 418.5 281.06 414.34C281.06 414.34 291.06 411.1 326.47 417.75C361.88 424.4 365.54 424.17 365.54 424.17L395 450.3C395 450.3 377.41 451.73 362.92 448.88C348.43 446.03 323.08 436.28 295.66 439.14C268.24 442 265.94 448.88 265.94 448.88Z" fill="#E0E0E0"/>
<path d="M122.75 423.69L140.03 397.02L109.38 421.48L90.02 448.88H92.22L122.75 423.69Z" fill="#E0E0E0"/>
<path d="M365.42 424.17L351.34 400.51C351.34 400.51 379.39 424.89 379.63 425.58C379.87 426.27 394.91 450.3 394.91 450.3L365.42 424.17Z" fill="#E0E0E0"/>
<path d="M222.35 448.88H265.82L244.09 443.41L242.95 443.65" fill="#263238"/>
<path d="M244.09 443.41C243.94 443.41 244.09 437.18 244.41 429.52C244.73 421.86 245.12 415.64 245.26 415.65C245.4 415.66 245.26 421.87 244.93 429.54C244.6 437.21 244.23 443.42 244.09 443.41Z" fill="#263238"/>
<path d="M153.21 419.29C153.019 419.356 152.821 419.399 152.62 419.42L150.89 419.72L144.47 420.72L122.79 424L122.91 423.95L118.74 427.16L98.5 442.59L92.33 447.23L90.63 448.47C90.4375 448.622 90.2335 448.759 90.02 448.88C90.1838 448.696 90.3684 448.532 90.57 448.39L92.2 447.07L98.27 442.29L118.42 426.69L122.59 423.49H122.65H122.71L144.43 420.44L150.86 419.58L152.6 419.38C152.799 419.328 153.004 419.297 153.21 419.29Z" fill="#263238"/>
<path d="M241.23 428.45C241.23 428.45 241.16 428.39 241.04 428.25L240.51 427.61C240.05 427.06 239.35 426.25 238.38 425.28C235.626 422.548 232.47 420.254 229.02 418.48C223.893 415.872 218.379 414.106 212.69 413.25C205.714 412.235 198.669 411.766 191.62 411.85C178.803 411.804 166.003 412.774 153.34 414.75C148.48 415.51 144.57 416.26 141.87 416.8L138.76 417.43L137.95 417.59C137.857 417.603 137.763 417.603 137.67 417.59L137.94 417.5L138.74 417.3C139.44 417.13 140.48 416.87 141.83 416.57C144.51 415.97 148.42 415.16 153.28 414.36C165.952 412.269 178.777 411.246 191.62 411.3C198.698 411.213 205.771 411.698 212.77 412.75C218.501 413.633 224.048 415.451 229.19 418.13C232.66 419.946 235.813 422.31 238.53 425.13C239.264 425.892 239.952 426.697 240.59 427.54L241.08 428.21C241.141 428.282 241.192 428.363 241.23 428.45Z" fill="#263238"/>
<path d="M241.23 425C241.23 425 241.16 424.94 241.05 424.81L240.56 424.23C240.35 423.96 240.08 423.65 239.75 423.29C239.42 422.93 239.05 422.5 238.6 422.05C236.068 419.501 233.186 417.325 230.04 415.59C225.35 413.035 220.288 411.23 215.04 410.24C208.613 409.065 202.094 408.466 195.56 408.45C183.684 408.208 171.805 408.833 160.02 410.32C155.49 410.9 151.85 411.47 149.33 411.89L146.44 412.37L145.68 412.49H145.42L145.67 412.42L146.42 412.25C147.07 412.11 148.04 411.9 149.3 411.67C151.8 411.19 155.45 410.56 159.97 409.94C171.766 408.343 183.669 407.674 195.57 407.94C202.132 407.958 208.679 408.574 215.13 409.78C220.41 410.801 225.494 412.658 230.19 415.28C233.35 417.049 236.223 419.287 238.71 421.92C239.15 422.39 239.53 422.81 239.84 423.2C240.15 423.59 240.42 423.9 240.61 424.2L241.06 424.82C241.124 424.873 241.181 424.933 241.23 425Z" fill="#263238"/>
<path d="M241.23 421.49C241.23 421.49 241.16 421.44 241.05 421.31L240.57 420.73C240.363 420.457 240.093 420.147 239.76 419.8C239.427 419.453 239.047 419.043 238.62 418.57C236.123 416.035 233.273 413.873 230.16 412.15C225.534 409.599 220.537 407.791 215.35 406.79C208.987 405.614 202.531 405.015 196.06 405C184.296 404.734 172.529 405.322 160.85 406.76C156.36 407.31 152.75 407.86 150.25 408.27L147.38 408.74L146.63 408.85C146.544 408.868 146.456 408.868 146.37 408.85L146.62 408.78L147.36 408.62C148.02 408.49 148.98 408.28 150.22 408.05C152.7 407.58 156.31 406.97 160.8 406.37C172.493 404.826 184.288 404.188 196.08 404.46C202.578 404.489 209.059 405.122 215.44 406.35C220.668 407.382 225.698 409.242 230.34 411.86C233.463 413.628 236.305 415.852 238.77 418.46C239.21 418.92 239.57 419.34 239.88 419.72C240.19 420.1 240.45 420.42 240.65 420.72L241.09 421.33C241.142 421.378 241.189 421.432 241.23 421.49Z" fill="#263238"/>
<path d="M241.23 418C241.23 418 241.16 417.95 241.05 417.82L240.58 417.25C240.17 416.75 239.58 416.02 238.69 415.13C232.637 408.887 224.876 404.57 216.38 402.72C210.68 401.45 204.23 401.39 197.49 401.48C183.99 401.56 171.78 402.14 162.99 403.07C158.59 403.51 154.99 403.98 152.6 404.35L149.78 404.77L149.04 404.87C148.957 404.885 148.873 404.885 148.79 404.87C148.872 404.843 148.955 404.823 149.04 404.81L149.76 404.65C150.4 404.53 151.34 404.34 152.56 404.14C155 403.71 158.56 403.14 162.95 402.69C174.427 401.538 185.955 400.974 197.49 401C204.22 400.92 210.73 401 216.49 402.3C221.595 403.401 226.453 405.435 230.82 408.3C233.764 410.196 236.452 412.461 238.82 415.04C239.465 415.741 240.072 416.475 240.64 417.24L241.08 417.84C241.134 417.889 241.185 417.943 241.23 418Z" fill="#263238"/>
<path d="M241.23 414.53C241.23 414.53 241.17 414.53 241.06 414.35L240.59 413.78C240.19 413.28 239.59 412.54 238.77 411.62C236.491 409.016 233.898 406.705 231.05 404.74C229.086 403.396 226.984 402.266 224.78 401.37C222.231 400.37 219.588 399.63 216.89 399.16C210.69 398.125 204.4 397.736 198.12 398C184.73 398.4 172.65 399.69 163.89 400.37C159.51 400.72 155.97 400.98 153.51 401.12L150.69 401.26H149.95H149.7H149.95L150.68 401.19L153.5 400.95L163.86 400.03C172.61 399.26 184.69 397.91 198.11 397.51C204.43 397.233 210.762 397.625 217 398.68C219.738 399.17 222.418 399.937 225 400.97C227.227 401.892 229.346 403.056 231.32 404.44C234.172 406.444 236.747 408.814 238.98 411.49C239.78 412.43 240.36 413.19 240.73 413.72L241.16 414.32C241.189 414.388 241.213 414.458 241.23 414.53Z" fill="#263238"/>
<path d="M247.51 427.5C247.51 427.5 247.56 427.41 247.67 427.26L248.17 426.61C248.825 425.775 249.53 424.98 250.28 424.23C253.048 421.47 256.242 419.174 259.74 417.43C264.932 414.844 270.512 413.128 276.26 412.35C283.273 411.427 290.35 411.072 297.42 411.29C310.266 411.471 323.074 412.729 335.71 415.05C340.55 415.95 344.44 416.83 347.12 417.48C348.46 417.8 349.49 418.08 350.19 418.26L350.98 418.48C351.074 418.498 351.164 418.528 351.25 418.57C351.157 418.585 351.063 418.585 350.97 418.57L350.16 418.4L347.07 417.71C344.38 417.13 340.49 416.3 335.64 415.46C323.016 413.245 310.236 412.038 297.42 411.85C290.375 411.627 283.323 411.962 276.33 412.85C270.626 413.602 265.079 415.263 259.9 417.77C256.417 419.478 253.219 421.715 250.42 424.4C249.42 425.35 248.72 426.14 248.25 426.69L247.71 427.32L247.51 427.5Z" fill="#263238"/>
<path d="M247.57 424L247.72 423.78L248.18 423.17C248.38 422.9 248.65 422.58 248.97 422.17C249.29 421.76 249.67 421.37 250.12 420.92C252.658 418.331 255.574 416.142 258.77 414.43C263.508 411.891 268.623 410.128 273.92 409.21C280.391 408.122 286.949 407.626 293.51 407.73C305.415 407.697 317.304 408.593 329.07 410.41C333.58 411.11 337.21 411.81 339.71 412.34C340.96 412.59 341.92 412.82 342.58 412.97L343.32 413.15C343.406 413.168 343.49 413.195 343.57 413.23C343.484 413.243 343.396 413.243 343.31 413.23L342.56 413.1L339.67 412.57C337.16 412.1 333.53 411.46 329.01 410.8C317.254 409.097 305.389 408.255 293.51 408.28C286.98 408.175 280.454 408.653 274.01 409.71C268.752 410.6 263.667 412.311 258.94 414.78C255.757 416.453 252.833 418.579 250.26 421.09C249.8 421.53 249.41 421.94 249.09 422.3C248.77 422.66 248.47 422.97 248.26 423.23L247.76 423.8L247.57 424Z" fill="#263238"/>
<path d="M247.64 420.54C247.64 420.54 247.64 420.46 247.78 420.32L248.24 419.72C248.481 419.373 248.742 419.039 249.02 418.72C249.379 418.285 249.759 417.867 250.16 417.47C252.671 414.907 255.553 412.736 258.71 411.03C263.397 408.492 268.462 406.726 273.71 405.8C280.115 404.686 286.61 404.17 293.11 404.26C304.905 404.205 316.687 405.061 328.35 406.82C332.82 407.5 336.42 408.18 338.89 408.69C340.13 408.94 341.09 409.17 341.74 409.31L342.47 409.49C342.557 409.502 342.642 409.529 342.72 409.57C342.634 409.583 342.546 409.583 342.46 409.57L341.72 409.45L338.85 408.92C336.37 408.47 332.76 407.85 328.29 407.22C316.637 405.567 304.88 404.761 293.11 404.81C286.642 404.724 280.179 405.223 273.8 406.3C268.595 407.205 263.565 408.919 258.89 411.38C255.745 413.049 252.856 415.161 250.31 417.65C249.86 418.08 249.47 418.49 249.15 418.85C248.83 419.21 248.54 419.51 248.33 419.76L247.83 420.34C247.71 420.48 247.65 420.55 247.64 420.54Z" fill="#263238"/>
<path d="M247.7 414.53C248.43 413.491 249.272 412.536 250.21 411.68C252.781 409.35 255.739 407.485 258.95 406.17C261.142 405.23 263.382 404.406 265.66 403.7C268.256 402.823 270.909 402.124 273.6 401.61C279.32 400.54 285.73 400.61 292.37 400.84C305.71 401.26 317.69 402.91 326.37 403.92L336.63 405.16L339.42 405.49L340.14 405.59L340.39 405.64H340.14H339.41L336.61 405.4C334.18 405.18 330.66 404.81 326.33 404.33C317.65 403.4 305.68 401.82 292.38 401.4C285.73 401.19 279.38 401.09 273.71 402.12C271.036 402.612 268.397 403.28 265.81 404.12C263.36 404.88 261.11 405.67 259.11 406.52C255.919 407.797 252.962 409.595 250.36 411.84C249.955 412.194 249.568 412.567 249.2 412.96C248.913 413.23 248.642 413.517 248.39 413.82L247.9 414.37C247.77 414.48 247.71 414.54 247.7 414.53Z" fill="#263238"/>
<path d="M291.14 423.6V440.52L296.75 435.45L302.24 440.26L302.56 423.78C302.56 423.78 293.54 423.3 291.14 423.6Z" fill="#81184E"/>
<path d="M354.57 433.43L354.28 433.38L353.45 433.19L350.28 432.43C347.52 431.77 343.52 430.86 338.55 429.88C333.58 428.9 327.64 427.88 321.02 426.78L310.65 425.07C306.955 424.414 303.22 424.013 299.47 423.87C295.717 423.712 291.957 423.765 288.21 424.03C284.722 424.245 281.259 424.76 277.86 425.57C272.104 426.993 266.704 429.59 262 433.2C260.201 434.588 258.491 436.087 256.88 437.69C255.44 439.1 254.27 440.38 253.32 441.43L251.17 443.88L250.61 444.52C250.48 444.66 250.41 444.73 250.4 444.72L250.57 444.48L251.09 443.82C251.55 443.23 252.25 442.38 253.17 441.3C254.09 440.22 255.25 438.92 256.67 437.49C258.266 435.851 259.97 434.321 261.77 432.91C266.496 429.214 271.948 426.556 277.77 425.11C281.193 424.275 284.683 423.743 288.2 423.52C291.967 423.247 295.747 423.19 299.52 423.35C303.291 423.494 307.046 423.902 310.76 424.57L321.13 426.31C327.74 427.42 333.69 428.49 338.65 429.52C343.61 430.55 347.65 431.52 350.36 432.23C351.73 432.58 352.79 432.88 353.51 433.09L354.32 433.33C354.408 433.35 354.492 433.384 354.57 433.43Z" fill="#263238"/>
<path d="M236.66 445C236.66 445 236.57 444.92 236.41 444.75L235.72 443.99C235.41 443.66 235.05 443.23 234.59 442.76C234.13 442.29 233.59 441.76 232.97 441.16C229.433 437.851 225.434 435.072 221.1 432.91C214.658 429.734 207.74 427.633 200.62 426.69C191.888 425.621 183.055 425.685 174.34 426.88C165.05 428.03 156.34 429.88 148.34 431.52C140.34 433.16 133.21 434.58 127.12 435.46C122.318 436.176 117.481 436.63 112.63 436.82C110.91 436.87 109.57 436.89 108.63 436.87H107.63H107.28H107.63H108.63C109.53 436.87 110.86 436.81 112.58 436.73C117.416 436.463 122.235 435.952 127.02 435.2C133.09 434.29 140.26 432.84 148.2 431.2C156.14 429.56 164.9 427.66 174.2 426.51C182.959 425.312 191.838 425.262 200.61 426.36C207.777 427.334 214.735 429.487 221.2 432.73C225.556 434.885 229.569 437.672 233.11 441L234.71 442.64C235.16 443.13 235.5 443.57 235.8 443.91L236.46 444.7C236.542 444.789 236.609 444.89 236.66 445Z" fill="#263238"/>
<path d="M236.66 448.51C236.66 448.51 236.57 448.43 236.41 448.26L235.72 447.5C235.41 447.17 235.05 446.74 234.59 446.27L232.97 444.67C229.43 441.364 225.432 438.586 221.1 436.42C214.658 433.244 207.74 431.143 200.62 430.2C191.888 429.131 183.055 429.195 174.34 430.39C165.05 431.54 156.34 433.39 148.34 435.03C140.34 436.67 133.21 438.1 127.12 438.97C122.318 439.688 117.481 440.146 112.63 440.34C110.91 440.34 109.57 440.4 108.63 440.34H107.63H107.28H107.63H108.63C109.53 440.34 110.86 440.28 112.58 440.2C117.416 439.937 122.235 439.43 127.02 438.68C133.09 437.76 140.26 436.32 148.2 434.63C156.14 432.94 164.9 431.1 174.2 429.94C182.959 428.742 191.838 428.692 200.61 429.79C207.776 430.769 214.733 432.921 221.2 436.16C225.541 438.37 229.531 441.211 233.04 444.59L234.64 446.23C235.09 446.72 235.43 447.16 235.73 447.5L236.39 448.3C236.6 448.41 236.67 448.5 236.66 448.51Z" fill="#263238"/>
<path d="M226.38 445.53C226.186 445.409 226.002 445.272 225.83 445.12C225.47 444.85 224.98 444.4 224.28 443.9C222.36 442.445 220.323 441.15 218.19 440.03C215.026 438.368 211.694 437.047 208.25 436.09C204.032 434.922 199.707 434.182 195.34 433.88C187.383 433.483 179.407 433.882 171.53 435.07L164.35 436.07L162.35 436.34C162.124 436.365 161.896 436.365 161.67 436.34C161.888 436.268 162.113 436.214 162.34 436.18L164.28 435.82C165.96 435.51 168.4 435.09 171.44 434.64C179.337 433.35 187.348 432.901 195.34 433.3C199.741 433.601 204.098 434.361 208.34 435.57C211.812 436.557 215.165 437.922 218.34 439.64C220.458 440.788 222.466 442.127 224.34 443.64C225.02 444.17 225.49 444.64 225.83 444.94C226.04 445.11 226.225 445.309 226.38 445.53Z" fill="#263238"/>
<path d="M187.88 374.76L223.2 367.13C223.2 367.13 236.44 364.46 239 365.87C241.56 367.28 256.31 379.08 257.58 380.18C258.85 381.28 272.95 398.18 272.95 398.18C272.95 398.18 272.63 403.53 264.89 401.38C260.89 400.28 243.97 385.48 243.97 385.48L240 382.36C240 382.36 246.17 391.92 246.05 395.06C245.93 398.2 242 404.47 240.65 405.33C239.3 406.19 232.54 405.01 232.54 405.01C232.54 405.01 227.74 410.19 223.97 406.11C223.97 406.11 217.54 412.8 212.32 408.92L209.52 403.43L206.85 401.36C206.85 401.36 206.44 405.14 203.85 405.56C201.26 405.98 172.21 399.72 172.21 399.72L182.21 372.39L187.88 374.76Z" fill="#FFBF9D"/>
<path d="M225.43 384.43C225.725 384.568 225.999 384.75 226.24 384.97C226.74 385.36 227.45 385.97 228.24 386.7C230.426 388.688 232.379 390.92 234.06 393.35C234.525 394.068 234.907 394.836 235.2 395.64C235.523 396.396 235.624 397.229 235.49 398.04C235.305 399.367 234.948 400.664 234.43 401.9C234.109 402.739 233.696 403.541 233.2 404.29C233.029 404.574 232.801 404.819 232.53 405.01C232.53 405.01 232.73 404.72 233.03 404.18C233.454 403.406 233.809 402.597 234.09 401.76C234.545 400.544 234.857 399.278 235.02 397.99C235.055 397.627 235.055 397.262 235.02 396.9C234.952 396.529 234.852 396.164 234.72 395.81C234.427 395.047 234.055 394.316 233.61 393.63C231.951 391.25 230.073 389.03 228 387C226.44 385.39 225.38 384.49 225.43 384.43Z" fill="#FF9A6C"/>
<path d="M207.2 387.57C207.541 387.393 207.91 387.274 208.29 387.22C209.318 386.996 210.377 386.952 211.42 387.09C214.89 387.6 218.02 389.458 220.13 392.26C221.224 393.823 222.052 395.556 222.58 397.39C223.022 398.864 223.356 400.368 223.58 401.89C223.78 403.18 223.89 404.24 223.95 404.97C223.996 405.349 223.996 405.731 223.95 406.11C223.86 406.11 223.68 404.51 223.19 401.95C222.901 400.456 222.527 398.981 222.07 397.53C221.539 395.745 220.725 394.057 219.66 392.53C218.542 391.066 217.141 389.841 215.54 388.93C214.231 388.176 212.799 387.662 211.31 387.41C209.94 387.258 208.554 387.312 207.2 387.57Z" fill="#FF9A6C"/>
<path d="M228.12 374.05C228.12 374.05 228.32 373.95 228.72 373.86C228.967 373.811 229.219 373.794 229.47 373.81C229.807 373.804 230.143 373.841 230.47 373.92C232.332 374.4 234.048 375.326 235.47 376.62C236.916 377.839 238.212 379.225 239.33 380.75C239.843 381.346 240.255 382.021 240.55 382.75C239.997 382.2 239.479 381.616 239 381C237.809 379.562 236.501 378.224 235.09 377C233.725 375.762 232.113 374.828 230.36 374.26C229.622 374.115 228.872 374.045 228.12 374.05Z" fill="#FF9A6C"/>
<path d="M181.68 368.69L164 361.8L131.45 363.47L115.23 385.35L108.72 416.86C108.72 416.86 168.33 403.77 170.22 403.59C172.11 403.41 175.15 400.35 175.15 400.35L181.51 401.68L189.66 374.38L181.68 368.69Z" fill="#81184E"/>
<path d="M192.33 372.92L192.09 372.86L191.41 372.61L188.78 371.61L179.17 367.9L164.94 362.34L156.55 359.03C153.586 357.776 150.539 356.73 147.43 355.9C144.321 355.096 141.095 354.849 137.9 355.17C134.929 355.479 132.013 356.185 129.23 357.27C124.512 359.16 120.098 361.734 116.13 364.91C112.7 367.57 110.13 369.91 108.28 371.56L106.2 373.43L105.65 373.9C105.52 374.01 105.45 374.06 105.45 374.05C105.495 373.983 105.549 373.922 105.61 373.87L106.13 373.35L108.13 371.41C109.9 369.75 112.47 367.33 115.88 364.62C119.848 361.377 124.281 358.747 129.03 356.82C131.853 355.708 134.813 354.981 137.83 354.66C141.081 354.333 144.364 354.58 147.53 355.39C150.665 356.226 153.736 357.285 156.72 358.56L165.1 361.9L179.29 367.56L188.84 371.42L191.43 372.5L192.09 372.79L192.33 372.92Z" fill="#263238"/>
<path d="M337.44 420.85C336.73 419.66 336.44 417.97 338.17 415.94L342.93 413.82C343.473 412.346 344.261 410.973 345.26 409.76C346.48 408.65 348.26 407.23 348.26 407.23C348.26 407.23 350.89 403.59 353.42 402.07C355.95 400.55 362.13 398.93 364.26 397.07C366.39 395.21 373.07 389.37 377.73 391.6C382.39 393.83 385.73 401.66 389.37 403.31C393.01 404.96 394.37 410.43 395.75 412.66C397.13 414.89 398.69 416.51 398.89 418.23C399.09 419.95 403.04 423.4 403.75 428.05C404.46 432.7 404.06 434.33 401.93 436.05C399.8 437.77 395.65 441.22 391.5 441.83C389.17 442.17 385.98 442.38 383.63 442.5C382.696 442.548 381.77 442.318 380.968 441.837C380.166 441.356 379.527 440.647 379.13 439.8L378.84 439.19C378.84 439.19 368.21 444.56 363.15 443.85C358.09 443.14 360.15 438.79 360.15 438.79C360.15 438.79 354.98 443.79 351.74 442.84C348.5 441.89 346.74 442.03 346.48 439.19C346.22 436.35 348.6 433.11 348.6 433.11C348.6 433.11 343.74 433.22 343.34 429.98C343.202 427.675 343.652 425.373 344.65 423.29L340.75 422.85C340.082 422.791 339.437 422.581 338.863 422.234C338.289 421.887 337.802 421.414 337.44 420.85Z" fill="#FFBF9D"/>
<path d="M364.65 399.15C364.529 399.549 364.368 399.934 364.17 400.3C363.966 400.745 363.732 401.176 363.47 401.59C363.149 402.152 362.799 402.696 362.42 403.22C361.436 404.59 360.349 405.884 359.17 407.09C357.85 408.45 356.33 409.88 354.71 411.35C353.09 412.82 351.59 414.24 350.27 415.59C349.11 416.781 348.037 418.055 347.06 419.4C345.4 421.72 344.76 423.4 344.65 423.33C344.762 422.93 344.912 422.541 345.1 422.17C345.277 421.712 345.495 421.27 345.75 420.85C346.051 420.278 346.385 419.724 346.75 419.19C347.703 417.797 348.767 416.483 349.93 415.26C351.23 413.88 352.75 412.44 354.36 410.97C355.97 409.5 357.5 408.09 358.83 406.76C360.009 405.582 361.109 404.325 362.12 403C363.83 400.73 364.55 399.09 364.65 399.15Z" fill="#FF9A6C"/>
<path d="M377.84 403.54C377.815 403.682 377.771 403.82 377.71 403.95C377.61 404.22 377.46 404.6 377.24 405.09C376.624 406.464 375.926 407.8 375.15 409.09C372.586 413.405 369.186 417.166 365.15 420.15C362.82 421.93 360.5 423.47 358.43 424.9C356.36 426.33 354.52 427.67 353.06 428.9C351.899 429.839 350.791 430.84 349.74 431.9C349.385 432.323 349.001 432.721 348.59 433.09C348.88 432.616 349.215 432.171 349.59 431.76C350.591 430.623 351.671 429.557 352.82 428.57C354.27 427.32 356.09 425.94 358.15 424.48C360.21 423.02 362.52 421.48 364.83 419.71C367.006 418.075 369.016 416.229 370.83 414.2C372.3 412.53 373.637 410.748 374.83 408.87C375.83 407.26 376.56 405.87 377.05 404.95C377.278 404.461 377.542 403.99 377.84 403.54Z" fill="#FF9A6C"/>
<path d="M379.47 404.8C379.56 404.91 378.8 405.75 377.75 406.67C376.7 407.59 375.75 408.25 375.69 408.14C375.63 408.03 376.36 407.2 377.41 406.28C377.993 405.656 378.693 405.153 379.47 404.8Z" fill="#FF9A6C"/>
<path d="M385.77 417C385.684 417.445 385.547 417.878 385.36 418.29C384.906 419.44 384.323 420.533 383.62 421.55C381.233 424.864 378.202 427.663 374.71 429.78C370.71 432.34 366.98 434.44 364.37 436.1C363.06 436.92 362.01 437.61 361.29 438.1C360.931 438.371 360.549 438.612 360.15 438.82C360.45 438.49 360.785 438.195 361.15 437.94C361.84 437.4 362.86 436.67 364.15 435.8C366.72 434.05 370.44 431.9 374.41 429.35C377.847 427.262 380.862 424.549 383.3 421.35C384.24 419.97 385.067 418.515 385.77 417Z" fill="#FF9A6C"/>
<path d="M396.12 423.59C396.023 423.891 395.885 424.177 395.71 424.44C395.43 424.97 394.97 425.71 394.37 426.6C392.772 428.91 390.932 431.042 388.88 432.96C387.747 434.007 386.555 434.989 385.31 435.9C384.279 436.632 383.204 437.3 382.09 437.9C381.62 438.16 381.18 438.36 380.79 438.54C380.4 438.72 380.06 438.86 379.79 438.96C379.507 439.098 379.203 439.19 378.89 439.23C378.89 439.15 380.09 438.65 381.89 437.57C382.963 436.94 384.001 436.252 385 435.51C386.12 434.66 387.32 433.68 388.51 432.58C390.529 430.674 392.382 428.6 394.05 426.38C395.34 424.68 396 423.55 396.12 423.59Z" fill="#FF9A6C"/>
<path d="M347.11 412.14C345.694 412.92 344.22 413.589 342.7 414.14C341.23 414.825 339.717 415.413 338.17 415.9C338.09 415.74 340.02 414.7 342.5 413.66C344.98 412.62 347.05 412 347.11 412.14Z" fill="#FF9A6C"/>
<path d="M350 393.57C351.735 393.516 353.472 393.569 355.2 393.73C351.734 393.957 348.256 393.957 344.79 393.73C346.522 393.569 348.262 393.516 350 393.57Z" fill="#81184E"/>



</svg>
