<svg width="500" height="500" viewBox="0 0 500 500" fill="none" xmlns="http://www.w3.org/2000/svg">
<path d="M52.28 126.53C52.28 126.53 46.22 131.15 52.03 137.25C52.1311 137.351 52.2674 137.408 52.41 137.41L105.41 137.1C105.41 137.1 109.93 132.03 106.18 126.18L52.28 126.53Z" fill="#EBEBEB"/>
<path d="M93.67 131.35C93.67 131.41 87.08 131.46 78.94 131.46C70.8 131.46 64.21 131.41 64.21 131.35C64.21 131.29 70.81 131.24 78.94 131.24C87.07 131.24 93.67 131.29 93.67 131.35Z" fill="#E0E0E0"/>
<path d="M85.43 133.27C85.43 133.27 82.33 133.37 78.51 133.37C74.69 133.37 71.58 133.32 71.58 133.27C71.58 133.22 74.68 133.16 78.51 133.16C82.34 133.16 85.43 133.21 85.43 133.27Z" fill="#E0E0E0"/>
<path d="M99.09 136.93C99.09 136.93 99.2 136.32 99.37 135.34C99.5813 134.064 99.6816 132.773 99.67 131.48C99.6602 130.185 99.533 128.893 99.29 127.62C99.11 126.62 98.95 126.05 98.98 126.04C99.01 126.03 99.05 126.18 99.14 126.45C99.2593 126.825 99.3594 127.205 99.44 127.59C99.726 128.867 99.8768 130.171 99.89 131.48C99.8983 132.786 99.7743 134.089 99.52 135.37C99.41 135.86 99.32 136.26 99.23 136.52C99.1983 136.661 99.1514 136.799 99.09 136.93Z" fill="#E0E0E0"/>
<path d="M103 126.12C103.094 126.235 103.171 126.363 103.23 126.5C103.322 126.654 103.402 126.814 103.47 126.98C103.55 127.17 103.66 127.38 103.74 127.63C103.955 128.199 104.122 128.784 104.24 129.38C104.381 130.116 104.461 130.861 104.48 131.61C104.478 132.358 104.411 133.104 104.28 133.84C104.172 134.443 104.012 135.035 103.8 135.61C103.73 135.86 103.62 136.07 103.55 136.26C103.48 136.45 103.39 136.61 103.32 136.74C103.255 136.877 103.178 137.007 103.09 137.13C103.09 137.13 103.35 136.54 103.66 135.56C103.843 134.987 103.987 134.403 104.09 133.81C104.201 133.082 104.258 132.347 104.26 131.61C104.25 130.876 104.18 130.143 104.05 129.42C103.942 128.83 103.792 128.248 103.6 127.68C103.31 126.7 103 126.14 103 126.12Z" fill="#E0E0E0"/>
<path d="M60.64 137C60.5402 136.896 60.456 136.778 60.39 136.65C60.3012 136.508 60.2211 136.361 60.15 136.21C60.06 136.03 59.95 135.83 59.86 135.6C59.6376 135.061 59.4668 134.502 59.35 133.93C59.2098 133.225 59.1395 132.509 59.14 131.79C59.16 131.077 59.2471 130.367 59.4 129.67C59.5471 129.096 59.748 128.537 60 128C60.1 127.77 60.21 127.57 60.3 127.4C60.3772 127.248 60.464 127.101 60.56 126.96C60.6323 126.837 60.7197 126.722 60.82 126.62C60.82 126.62 60.51 127.15 60.14 128.06C59.9254 128.591 59.7581 129.14 59.64 129.7C59.4905 130.387 59.4068 131.087 59.39 131.79C59.3891 132.491 59.4527 133.191 59.58 133.88C59.6911 134.441 59.8448 134.993 60.04 135.53C60.35 136.46 60.68 137 60.64 137Z" fill="#E0E0E0"/>
<path d="M54.92 138.3C54.8177 138.172 54.7274 138.035 54.65 137.89C54.5452 137.734 54.4517 137.57 54.37 137.4C54.25 137.176 54.1432 136.946 54.05 136.71C53.7954 136.106 53.5947 135.48 53.45 134.84C53.2725 134.055 53.1721 133.255 53.15 132.45C53.1339 131.646 53.1975 130.842 53.34 130.05C53.4593 129.406 53.6333 128.774 53.86 128.16C53.95 127.89 54.06 127.67 54.15 127.46C54.24 127.25 54.33 127.09 54.41 126.95C54.4784 126.805 54.5622 126.667 54.66 126.54C54.66 126.54 54.36 127.16 54 128.21C53.7963 128.824 53.6392 129.452 53.53 130.09C53.4094 130.871 53.3525 131.66 53.36 132.45C53.3813 133.24 53.475 134.027 53.64 134.8C53.7787 135.432 53.9625 136.054 54.19 136.66C54.59 137.69 55 138.27 54.92 138.3Z" fill="#E0E0E0"/>
<path d="M103.43 153.23V163.37H83.82V153.23H103.43Z" fill="#EBEBEB"/>
<path d="M40.09 158.39C40.09 158.48 40.09 158.57 40.09 158.66C40.182 160.14 40.8376 161.529 41.9219 162.541C43.0062 163.553 44.437 164.111 45.92 164.1H104.33V163.37H90.48C89.1354 163.37 87.8458 162.836 86.895 161.885C85.9442 160.934 85.41 159.645 85.41 158.3C85.41 156.956 85.9442 155.666 86.895 154.715C87.8458 153.764 89.1354 153.23 90.48 153.23H104.35V152.16L45.92 152.35C45.1372 152.352 44.3628 152.512 43.6427 152.819C42.9226 153.126 42.2715 153.574 41.7278 154.137C41.1842 154.701 40.7591 155.367 40.4778 156.098C40.1964 156.828 40.0646 157.608 40.09 158.39Z" fill="#E0E0E0"/>
<path d="M103.43 158.44C103.43 158.5 99.43 158.54 94.43 158.54C89.43 158.54 85.43 158.54 85.43 158.44C85.43 158.34 89.43 158.33 94.43 158.33C99.43 158.33 103.43 158.38 103.43 158.44Z" fill="#E0E0E0"/>
<path d="M103.15 160.72C103.15 160.78 99.33 160.83 94.63 160.83C89.93 160.83 86.11 160.78 86.11 160.72C86.11 160.66 89.92 160.61 94.63 160.61C99.34 160.61 103.15 160.66 103.15 160.72Z" fill="#E0E0E0"/>
<path d="M103.43 162.81C103.43 162.87 100 162.92 95.77 162.92C91.54 162.92 88.11 162.92 88.11 162.81C88.11 162.7 91.54 162.7 95.77 162.7C100 162.7 103.43 162.75 103.43 162.81Z" fill="#E0E0E0"/>
<path d="M103.43 156.38C103.43 156.44 99.43 156.49 94.61 156.49C89.79 156.49 85.79 156.44 85.79 156.38C85.79 156.32 89.74 156.28 94.61 156.28C99.48 156.28 103.43 156.32 103.43 156.38Z" fill="#E0E0E0"/>
<path d="M103.15 154.33C103.15 154.39 99.63 154.44 95.3 154.44C90.97 154.44 87.45 154.39 87.45 154.33C87.45 154.27 90.96 154.23 95.3 154.23C99.64 154.23 103.15 154.27 103.15 154.33Z" fill="#E0E0E0"/>
<path d="M47.17 152.52C46.7216 152.983 46.3072 153.477 45.93 154C45.0461 155.279 44.581 156.801 44.5989 158.356C44.6168 159.911 45.1168 161.422 46.03 162.68C46.4205 163.194 46.8483 163.679 47.31 164.13C47.1546 164.049 47.0129 163.945 46.89 163.82C46.5213 163.524 46.186 163.189 45.89 162.82C44.9149 161.554 44.3779 160.005 44.3599 158.407C44.3418 156.809 44.8438 155.248 45.79 153.96C46.0656 153.569 46.3843 153.21 46.74 152.89C46.8658 152.748 47.0104 152.623 47.17 152.52Z" fill="#F5F5F5"/>
<path d="M45.2 152.31C44.7618 152.768 44.3606 153.259 44 153.78C43.1153 155.061 42.6506 156.586 42.6703 158.143C42.69 159.699 43.1931 161.212 44.11 162.47C44.4937 162.984 44.9184 163.465 45.38 163.91C45.2284 163.823 45.0874 163.719 44.96 163.6C44.5884 163.307 44.2527 162.972 43.96 162.6C42.9865 161.334 42.4497 159.786 42.4299 158.188C42.41 156.591 42.9083 155.03 43.85 153.74C44.1445 153.349 44.4797 152.99 44.85 152.67C44.9469 152.532 45.065 152.411 45.2 152.31Z" fill="#F5F5F5"/>
<path d="M84.88 152.52C84.4351 152.986 84.0209 153.48 83.64 154C82.7561 155.279 82.291 156.801 82.3089 158.356C82.3268 159.911 82.8268 161.422 83.74 162.68C84.1241 163.193 84.5452 163.678 85 164.13C84.8465 164.046 84.7052 163.942 84.58 163.82C84.2113 163.524 83.876 163.189 83.58 162.82C82.6111 161.551 82.0779 160.003 82.0599 158.407C82.0418 156.81 82.5399 155.251 83.48 153.96C83.7742 153.569 84.1094 153.21 84.48 152.89C84.5995 152.753 84.7336 152.628 84.88 152.52Z" fill="#F5F5F5"/>
<path d="M82.91 152.31C82.4598 152.768 82.0452 153.259 81.67 153.78C80.781 155.059 80.3129 156.584 80.3308 158.141C80.3487 159.699 80.8518 161.212 81.77 162.47C82.1444 162.979 82.5555 163.461 83 163.91C82.8484 163.823 82.7074 163.719 82.58 163.6C82.2107 163.305 81.8753 162.969 81.58 162.6C80.6065 161.334 80.0697 159.786 80.0499 158.188C80.03 156.591 80.5283 155.03 81.47 153.74C81.7488 153.351 82.0672 152.993 82.42 152.67C82.5619 152.523 82.7275 152.402 82.91 152.31Z" fill="#F5F5F5"/>
<path d="M53.82 159.82L53.76 155.7C53.7797 155.341 53.7322 154.982 53.62 154.64C53.5605 154.469 53.4556 154.317 53.3164 154.201C53.1773 154.084 53.0091 154.008 52.83 153.98C52.32 153.75 51.51 154.18 51.15 154.77C50.8407 155.389 50.7026 156.08 50.75 156.77C50.7382 157.859 50.7916 158.948 50.91 160.03C50.9294 160.548 51.059 161.056 51.29 161.52C51.3943 161.76 51.5712 161.961 51.7958 162.095C52.0203 162.229 52.2812 162.289 52.5418 162.267C52.8023 162.245 53.0494 162.142 53.2482 161.972C53.447 161.802 53.5875 161.574 53.65 161.32C53.7945 160.834 53.852 160.326 53.82 159.82Z" fill="#F5F5F5"/>
<path d="M76.5 158.63C76.5 158.69 72.28 158.74 67.07 158.74C61.86 158.74 57.64 158.69 57.64 158.63C57.64 158.57 61.86 158.53 67.07 158.53C72.28 158.53 76.5 158.58 76.5 158.63Z" fill="#F5F5F5"/>
<path d="M49.91 152.12L49.8 142.51H55.03L55.21 152.12H49.91Z" fill="#F5F5F5"/>
<path d="M54.72 144.22C53.9149 144.329 53.1017 144.366 52.29 144.33C51.4783 144.366 50.6651 144.329 49.86 144.22C50.6651 144.111 51.4783 144.074 52.29 144.11C53.1017 144.074 53.9149 144.111 54.72 144.22Z" fill="#E0E0E0"/>
<path d="M54.72 145.7C53.9149 145.809 53.1017 145.846 52.29 145.81C51.4783 145.846 50.6651 145.809 49.86 145.7C50.6657 145.598 51.4786 145.564 52.29 145.6C53.1014 145.564 53.9143 145.598 54.72 145.7Z" fill="#E0E0E0"/>
<path d="M54.72 147.19C53.9138 147.287 53.1014 147.32 52.29 147.29C51.4786 147.32 50.6662 147.287 49.86 147.19C50.6651 147.081 51.4783 147.044 52.29 147.08C53.1017 147.044 53.9149 147.081 54.72 147.19Z" fill="#E0E0E0"/>
<path d="M54.72 148.67C53.9149 148.779 53.1017 148.816 52.29 148.78C51.4783 148.816 50.6651 148.779 49.86 148.67C50.6651 148.561 51.4783 148.524 52.29 148.56C53.1017 148.524 53.9149 148.561 54.72 148.67Z" fill="#E0E0E0"/>
<path d="M54.72 150.15C53.9149 150.259 53.1017 150.296 52.29 150.26C51.4783 150.296 50.6651 150.259 49.86 150.15C50.6651 150.041 51.4783 150.004 52.29 150.04C53.1017 150.004 53.9149 150.041 54.72 150.15Z" fill="#E0E0E0"/>
<path d="M49.52 142.26H107.52C108.186 145.688 108.186 149.212 107.52 152.64H49.77V151.93H53.29C53.5122 151.937 53.7334 151.899 53.9406 151.818C54.1478 151.738 54.3368 151.617 54.4963 151.462C54.6557 151.307 54.7825 151.122 54.869 150.917C54.9556 150.712 55.0001 150.492 55 150.27V144.52C55 144.301 54.9567 144.085 54.8727 143.882C54.7886 143.68 54.6655 143.497 54.5103 143.343C54.3551 143.188 54.1709 143.066 53.9683 142.983C53.7658 142.901 53.5488 142.859 53.33 142.86H49.52V142.26Z" fill="#EBEBEB"/>
<path d="M63.22 147.45H64.22C64.2526 147.44 64.2874 147.44 64.32 147.45C64.3533 147.467 64.3812 147.493 64.4007 147.524C64.4201 147.556 64.4303 147.593 64.43 147.63C64.43 147.63 64.43 147.68 64.43 147.7C64.4113 147.781 64.3879 147.862 64.36 147.94C64.2483 148.349 64.0429 148.725 63.76 149.04C63.6585 149.164 63.5323 149.265 63.3894 149.338C63.2464 149.41 63.09 149.452 62.93 149.46H62.82C62.6805 149.436 62.5483 149.381 62.4339 149.297C62.3194 149.214 62.2257 149.106 62.16 148.98C61.9576 148.628 61.8572 148.226 61.87 147.82C61.8741 147.542 61.9178 147.266 62 147C62.0992 146.584 62.2944 146.197 62.57 145.87C62.6734 145.735 62.8046 145.625 62.9548 145.545C63.1049 145.466 63.2704 145.42 63.44 145.41C63.5687 145.41 63.6956 145.441 63.81 145.5C63.9462 145.572 64.0661 145.672 64.1624 145.792C64.2587 145.913 64.3293 146.051 64.37 146.2C64.3807 146.233 64.3807 146.268 64.37 146.3C64.3794 146.333 64.3794 146.367 64.37 146.4C64.3516 146.432 64.3255 146.459 64.294 146.478C64.2626 146.497 64.2268 146.508 64.19 146.51H64.12C64.0884 146.5 64.0599 146.481 64.0372 146.457C64.0145 146.432 63.9983 146.402 63.99 146.37C63.9645 146.287 63.9238 146.209 63.87 146.14C63.8379 146.057 63.7846 145.984 63.7153 145.928C63.646 145.871 63.5632 145.834 63.4752 145.82C63.3872 145.806 63.297 145.815 63.2136 145.847C63.1302 145.878 63.0566 145.931 63 146C62.7571 146.2 62.5738 146.463 62.47 146.76C62.3231 147.105 62.245 147.475 62.24 147.85C62.2324 148.146 62.2904 148.44 62.41 148.71C62.4463 148.815 62.5134 148.907 62.6027 148.973C62.6919 149.039 62.7991 149.076 62.91 149.08C63.0036 149.069 63.0939 149.039 63.1749 148.99C63.2559 148.942 63.3258 148.877 63.38 148.8C63.6054 148.537 63.7755 148.231 63.88 147.9H63.18C63.1189 147.895 63.0617 147.868 63.0193 147.824C62.9769 147.78 62.9523 147.721 62.95 147.66C62.95 147.66 62.95 147.66 62.95 147.59C62.9683 147.537 63.0066 147.492 63.0569 147.466C63.1072 147.44 63.1656 147.434 63.22 147.45Z" fill="#FAFAFA"/>
<path d="M69.75 149.49H68C67.9641 149.501 67.9259 149.501 67.89 149.49C67.859 149.463 67.8341 149.429 67.8169 149.391C67.7997 149.353 67.7905 149.312 67.79 149.27C67.79 149.2 67.95 148.01 68.27 145.69C68.27 145.69 68.27 145.69 68.27 145.62C68.2831 145.581 68.3087 145.547 68.3431 145.523C68.3774 145.5 68.4185 145.488 68.46 145.49H68.55C68.5857 145.507 68.6155 145.534 68.6352 145.568C68.6549 145.602 68.6636 145.641 68.66 145.68C68.66 145.83 68.66 146.16 68.54 146.68C68.35 148.2 68.24 149.01 68.23 149.09H69.72C69.7561 149.081 69.7939 149.081 69.83 149.09C69.8705 149.102 69.9056 149.127 69.9293 149.162C69.9531 149.196 69.9639 149.238 69.96 149.28C69.9649 149.303 69.9649 149.327 69.96 149.35C69.9436 149.392 69.9146 149.428 69.8771 149.453C69.8395 149.478 69.7951 149.491 69.75 149.49Z" fill="#FAFAFA"/>
<path d="M74.92 147.63C75.05 148.01 75.16 148.3 75.23 148.5C75.41 149 75.5 149.26 75.5 149.29C75.5103 149.326 75.5103 149.364 75.5 149.4C75.4811 149.433 75.4527 149.46 75.4185 149.477C75.3843 149.493 75.3457 149.5 75.308 149.494C75.2702 149.489 75.235 149.472 75.2068 149.446C75.1786 149.421 75.1588 149.387 75.15 149.35V149.26C75.05 149.05 74.9 148.64 74.68 148.03L73.68 149.38C73.6632 149.413 73.6375 149.441 73.6057 149.461C73.5739 149.48 73.5373 149.49 73.5 149.49C73.4639 149.499 73.4261 149.499 73.39 149.49C73.3586 149.475 73.3324 149.45 73.3146 149.42C73.2969 149.39 73.2883 149.355 73.29 149.32C73.3158 149.257 73.3531 149.199 73.4 149.15C73.73 148.72 74.1 148.21 74.5 147.62C74.4544 147.512 74.4143 147.402 74.38 147.29C74 146.29 73.82 145.78 73.82 145.74C73.8111 145.707 73.8111 145.673 73.82 145.64C73.8323 145.608 73.8542 145.58 73.8828 145.56C73.9114 145.54 73.9453 145.53 73.98 145.53C74.021 145.53 74.0612 145.542 74.0963 145.563C74.1315 145.584 74.1604 145.614 74.18 145.65L74.76 147.22L75.93 145.63C75.9512 145.602 75.9785 145.58 76.0096 145.564C76.0408 145.549 76.0751 145.54 76.11 145.54C76.1425 145.529 76.1775 145.529 76.21 145.54C76.243 145.559 76.2699 145.587 76.2877 145.62C76.3054 145.654 76.3131 145.692 76.31 145.73C76.3137 145.76 76.3137 145.79 76.31 145.82L74.92 147.63Z" fill="#FAFAFA"/>
<path d="M79.24 145.48C79.2728 145.472 79.3072 145.472 79.34 145.48C79.3719 145.499 79.3988 145.525 79.418 145.556C79.4372 145.588 79.4482 145.623 79.45 145.66C79.1567 147.92 78.9967 149.14 78.97 149.32C78.9228 149.661 78.796 149.987 78.6 150.27C78.4697 150.455 78.2953 150.603 78.0926 150.703C77.89 150.803 77.6656 150.85 77.44 150.84C77.2461 150.83 77.056 150.782 76.88 150.7C76.6178 150.595 76.4016 150.4 76.27 150.15C76.26 150.118 76.26 150.083 76.27 150.05C76.2611 150.017 76.2611 149.983 76.27 149.95C76.2872 149.918 76.3133 149.891 76.3453 149.874C76.3772 149.856 76.4136 149.848 76.45 149.85C76.4809 149.851 76.5113 149.858 76.5389 149.872C76.5666 149.886 76.5909 149.906 76.61 149.93C76.707 150.08 76.8384 150.204 76.9932 150.293C77.148 150.382 77.3218 150.432 77.5 150.44C77.6355 150.438 77.7688 150.406 77.89 150.345C78.0112 150.285 78.1172 150.197 78.2 150.09C78.4386 149.772 78.5715 149.388 78.58 148.99C78.5155 149.096 78.4305 149.188 78.33 149.26C78.1501 149.4 77.9278 149.474 77.7 149.47H77.58C77.4405 149.446 77.3083 149.391 77.1939 149.307C77.0794 149.224 76.9857 149.116 76.92 148.99C76.7119 148.64 76.611 148.237 76.63 147.83C76.63 147.617 76.63 147.397 76.63 147.17C76.63 146.82 76.74 146.32 76.86 145.67C76.86 145.67 76.86 145.67 76.86 145.61C76.8712 145.569 76.8961 145.533 76.9306 145.507C76.9651 145.482 77.0072 145.469 77.05 145.47C77.0827 145.461 77.1173 145.461 77.15 145.47C77.1815 145.483 77.2081 145.505 77.2261 145.534C77.2441 145.563 77.2524 145.596 77.25 145.63C77.25 145.74 77.25 146 77.16 146.43C77.0918 146.834 77.045 147.241 77.02 147.65C77.0071 147.971 77.0616 148.291 77.18 148.59C77.29 148.88 77.47 149.02 77.69 149.02H77.76C77.9831 148.952 78.1723 148.802 78.29 148.6C78.4974 148.298 78.6435 147.958 78.72 147.6L78.98 145.6C78.9758 145.57 78.9758 145.54 78.98 145.51C78.9947 145.491 79.0132 145.474 79.0344 145.462C79.0557 145.45 79.0792 145.442 79.1035 145.439C79.1279 145.436 79.1525 145.439 79.176 145.446C79.1995 145.453 79.2212 145.464 79.24 145.48Z" fill="#FAFAFA"/>
<path d="M105.3 152.78C105.24 152.78 105.2 150.39 105.2 147.45C105.2 144.51 105.2 142.12 105.3 142.12C105.4 142.12 105.41 144.51 105.41 147.45C105.41 150.39 105.36 152.78 105.3 152.78Z" fill="#F5F5F5"/>
<path d="M57.87 152.78C57.81 152.78 57.77 150.39 57.77 147.45C57.77 144.51 57.77 142.12 57.87 142.12C57.97 142.12 57.98 144.51 57.98 147.45C57.98 150.39 57.93 152.78 57.87 152.78Z" fill="#E0E0E0"/>
<path d="M106.32 152.78C106.26 152.78 106.21 150.39 106.21 147.45C106.21 144.51 106.26 142.12 106.32 142.12C106.38 142.12 106.43 144.51 106.43 147.45C106.43 150.39 106.38 152.78 106.32 152.78Z" fill="#F5F5F5"/>
<path d="M56.92 152.78C56.86 152.78 56.82 150.39 56.82 147.45C56.82 144.51 56.82 142.12 56.92 142.12C57.02 142.12 57.03 144.51 57.03 147.45C57.03 150.39 57 152.78 56.92 152.78Z" fill="#E0E0E0"/>
<path d="M91.25 143.88L97.38 148.82H97.31L96.5 149.04L91.33 150.39L86.65 148.39L85.32 147.83L84.97 147.67H84.88H84.97L85.33 147.82L86.66 148.37L91.36 150.37L96.52 149L97.33 148.78V148.85L91.22 143.85" fill="#E0E0E0"/>
<path d="M96.81 148.03L97.15 148.34L97.59 148.25L97.4 148.66L97.63 149.06L97.17 149L96.87 149.34L96.78 148.89L96.36 148.71L96.77 148.49L96.81 148.03Z" fill="#E0E0E0"/>
<path d="M90.94 149.98L91.16 150.17L91.45 150.09L91.34 150.36L91.5 150.61L91.21 150.59L91.02 150.82L90.95 150.54L90.67 150.43L90.92 150.28L90.94 149.98Z" fill="#E0E0E0"/>
<path d="M84.44 147.32L84.81 147.34L85.03 147.05L85.12 147.41L85.47 147.53L85.16 147.72L85.14 148.09L84.86 147.86L84.51 147.96L84.65 147.62L84.44 147.32Z" fill="#E0E0E0"/>
<path d="M99.56 143.95L99.92 143.98L100.15 143.69L100.24 144.04L100.58 144.17L100.27 144.36L100.26 144.73L99.98 144.5L99.63 144.6L99.76 144.26L99.56 143.95Z" fill="#E0E0E0"/>
<path d="M90.95 143.72L91.18 143.73L91.33 143.55L91.39 143.77L91.6 143.85L91.41 143.98L91.4 144.21L91.22 144.06L91 144.13L91.08 143.91L90.95 143.72Z" fill="#E0E0E0"/>
<path d="M100.07 144.21C100.07 144.21 98.07 144.21 95.64 144.06C93.21 143.91 91.22 143.85 91.22 143.83C91.22 143.81 93.22 143.83 95.65 143.98C98.08 144.13 100.07 144.19 100.07 144.21Z" fill="#E0E0E0"/>
<path d="M102.29 142.17H43.51C42.74 140.42 42.51 138.76 43.51 137.27H102.29C102.659 138.034 102.85 138.872 102.85 139.72C102.85 140.568 102.659 141.406 102.29 142.17Z" fill="#E0E0E0"/>
<path d="M87.53 138.67H55.68V140.45H87.53V138.67Z" fill="#EBEBEB"/>
<path d="M45.77 142.19C45.77 142.19 45.54 142.01 45.3 141.6C45.0016 141.064 44.8209 140.471 44.77 139.86C44.7167 139.251 44.7916 138.638 44.99 138.06C45.0569 137.815 45.1802 137.589 45.35 137.4C45.2934 137.641 45.2233 137.878 45.14 138.11C44.9849 138.676 44.9308 139.265 44.98 139.85C45.0303 140.433 45.1861 141.003 45.44 141.53C45.5625 141.744 45.6727 141.964 45.77 142.19Z" fill="#E0E0E0"/>
<path d="M47 142.19C47 142.19 46.77 142.01 46.54 141.6C46.2333 141.067 46.0489 140.473 46 139.86C45.9467 139.251 46.0216 138.638 46.22 138.06C46.2916 137.817 46.4144 137.592 46.58 137.4C46.5234 137.641 46.4533 137.878 46.37 138.11C46.2149 138.676 46.1608 139.265 46.21 139.85C46.2603 140.433 46.4161 141.003 46.67 141.53C46.7925 141.744 46.9027 141.964 47 142.19Z" fill="#E0E0E0"/>
<path d="M99.92 142.08C100.148 141.302 100.286 140.5 100.33 139.69C100.303 138.877 100.172 138.07 99.94 137.29C100.376 138.012 100.585 138.848 100.54 139.69C100.567 140.53 100.352 141.359 99.92 142.08Z" fill="#F5F5F5"/>
<path d="M98.82 142.07C98.76 142.07 99.01 141.07 99 139.72C98.99 138.37 98.75 137.4 98.82 137.38C99.1162 138.123 99.2492 138.921 99.21 139.72C99.2482 140.522 99.1152 141.323 98.82 142.07Z" fill="#F5F5F5"/>
<path d="M150.913 69.2723L129.983 69.3855L130.103 91.5852L151.033 91.4719L150.913 69.2723Z" fill="#EBEBEB"/>
<path d="M172.062 68.3622L151.132 68.5715L151.354 90.7715L172.284 90.5622L172.062 68.3622Z" fill="#F5F5F5"/>
<path d="M130 75.5202C143.91 75.6402 157.86 75.5202 171.76 75.3302C171.818 75.3302 171.874 75.3071 171.916 75.2658C171.957 75.2245 171.98 75.1686 171.98 75.1102C171.98 75.0519 171.957 74.9959 171.916 74.9547C171.874 74.9134 171.818 74.8902 171.76 74.8902C157.853 74.8102 143.933 74.8936 130 75.1402C129.95 75.1402 129.901 75.1602 129.866 75.1959C129.83 75.2315 129.81 75.2798 129.81 75.3302C129.81 75.3806 129.83 75.4289 129.866 75.4646C129.901 75.5002 129.95 75.5202 130 75.5202Z" fill="#E0E0E0"/>
<path d="M154.961 91.1001L116.932 91.3059L117.03 109.396L155.059 109.19L154.961 91.1001Z" fill="#EBEBEB"/>
<path d="M192.82 90.8953L154.79 91.1011L154.888 109.191L192.917 108.985L192.82 90.8953Z" fill="#F5F5F5"/>
<path d="M117 96.35C142.26 96.63 167.61 96.35 192.87 95.97C192.928 95.97 192.984 95.9469 193.026 95.9056C193.067 95.8643 193.09 95.8084 193.09 95.75C193.09 95.6917 193.067 95.6357 193.026 95.5945C192.984 95.5532 192.928 95.53 192.87 95.53C167.61 95.4 142.25 95.41 116.99 95.97C116.94 95.97 116.891 95.9901 116.856 96.0257C116.82 96.0613 116.8 96.1096 116.8 96.16C116.8 96.2104 116.82 96.2588 116.856 96.2944C116.891 96.33 116.94 96.35 116.99 96.35H117Z" fill="#E0E0E0"/>
<path d="M120.646 193.524L82.6164 193.73L82.7143 211.82L120.744 211.614L120.646 193.524Z" fill="#EBEBEB"/>
<path d="M158.494 193.31L120.465 193.515L120.563 211.605L158.592 211.399L158.494 193.31Z" fill="#F5F5F5"/>
<path d="M82.63 198.76C107.89 199.05 133.24 198.76 158.51 198.39C158.562 198.379 158.608 198.351 158.641 198.31C158.674 198.269 158.692 198.218 158.692 198.165C158.692 198.112 158.674 198.061 158.641 198.02C158.608 197.979 158.562 197.951 158.51 197.94C133.25 197.81 107.9 197.82 82.64 198.38C82.5896 198.38 82.5413 198.4 82.5056 198.436C82.47 198.471 82.45 198.52 82.45 198.57C82.45 198.621 82.47 198.669 82.5056 198.705C82.5413 198.74 82.5896 198.76 82.64 198.76H82.63Z" fill="#E0E0E0"/>
<path d="M69.5831 61.722L59.9932 61.7739L60.2515 109.503L69.8413 109.451L69.5831 61.722Z" fill="#E0E0E0"/>
<path d="M78.9466 43.9215L69.3568 43.9734L69.712 109.622L79.3018 109.571L78.9466 43.9215Z" fill="#EBEBEB"/>
<path d="M93.9526 56.1503L79.0429 56.231L79.3307 109.43L94.2405 109.35L93.9526 56.1503Z" fill="#F5F5F5"/>
<path d="M93.84 66.4002C91.3651 66.6507 88.8761 66.7342 86.39 66.6502C83.9005 66.7344 81.4082 66.6509 78.93 66.4002C81.4074 66.1369 83.9003 66.05 86.39 66.1402C88.8764 66.0501 91.366 66.137 93.84 66.4002Z" fill="#E0E0E0"/>
<path d="M93.84 64.1602C91.3655 64.4174 88.8764 64.5042 86.39 64.4202C83.9003 64.5044 81.4078 64.4175 78.93 64.1602C81.4078 63.9029 83.9003 63.816 86.39 63.9002C88.8764 63.8162 91.3655 63.9031 93.84 64.1602Z" fill="#E0E0E0"/>
<path d="M93.84 101.34C91.366 101.603 88.8764 101.69 86.39 101.6C83.9003 101.69 81.4074 101.603 78.93 101.34C81.4078 101.083 83.9003 100.996 86.39 101.08C88.8764 100.996 91.3655 101.083 93.84 101.34Z" fill="#E0E0E0"/>
<path d="M93.84 99.1102C91.3655 99.3673 88.8764 99.4542 86.39 99.3702C83.9003 99.4544 81.4078 99.3675 78.93 99.1102C81.4078 98.8529 83.9003 98.766 86.39 98.8502C88.8764 98.7662 91.3655 98.853 93.84 99.1102Z" fill="#E0E0E0"/>
<path d="M86.63 94.2302C86.48 94.2302 86.37 88.8602 86.37 82.2302C86.37 75.6002 86.48 70.2302 86.63 70.2302C86.78 70.2302 86.88 75.5902 86.88 82.2302C86.88 88.8702 86.77 94.2302 86.63 94.2302Z" fill="#E0E0E0"/>
<path d="M110.22 69.2102H94V109.37H110.22V69.2102Z" fill="#EBEBEB"/>
<path d="M76.77 55.1302C76.772 55.6761 76.612 56.2103 76.3104 56.6652C76.0088 57.1202 75.579 57.4755 75.0755 57.6862C74.5719 57.897 74.0171 57.9536 73.4814 57.8491C72.9456 57.7445 72.4529 57.4834 72.0655 57.0989C71.6781 56.7143 71.4135 56.2234 71.305 55.6884C71.1966 55.1534 71.2492 54.5983 71.4563 54.0932C71.6634 53.5882 72.0156 53.1558 72.4683 52.8509C72.9211 52.546 73.4541 52.3822 74 52.3802C74.3628 52.3776 74.7226 52.4467 75.0585 52.5838C75.3945 52.7208 75.7 52.9229 75.9575 53.1786C76.215 53.4342 76.4193 53.7382 76.5588 54.0732C76.6982 54.4081 76.77 54.7674 76.77 55.1302Z" fill="#E0E0E0"/>
<path d="M74.86 62.7202H73.16V101.77H74.86V62.7202Z" fill="#E0E0E0"/>
<path d="M202.16 164.43H33.27V170.21H202.16V164.43Z" fill="#E0E0E0"/>
<path d="M202.16 109.63H33.27V115.41H202.16V109.63Z" fill="#E0E0E0"/>
<path d="M202.16 211.85H67.74V217.3H202.16V211.85Z" fill="#E0E0E0"/>
<path d="M117.71 114.27H111.27V168.79H117.71V114.27Z" fill="#E0E0E0"/>
<path d="M74.21 164.43H67.77V217.28H74.21V164.43Z" fill="#E0E0E0"/>
<path d="M150 139.65L146 145.34C146 145.34 154.91 147.81 154.91 155.73C154.91 163.65 149.46 165.13 143.53 165.13C137.6 165.13 131.9 163.4 132.14 155.48C132.38 147.56 139.81 144.59 139.81 144.59L136.1 139.65H150Z" fill="#F5F5F5"/>
<path d="M418.47 343.38H239.69V425.83H418.47V343.38Z" fill="#F5F5F5"/>
<path d="M414.21 421.94H243.78V347.72H414.21V421.94ZM244.89 420.83H413.1V348.83H244.89V420.83Z" fill="#E0E0E0"/>
<path d="M462.15 343.38H418.47V425.83H462.15V343.38Z" fill="#E0E0E0"/>
<path d="M244.33 370.69H413.66C413.712 370.679 413.758 370.651 413.791 370.61C413.824 370.569 413.842 370.518 413.842 370.465C413.842 370.413 413.824 370.361 413.791 370.32C413.758 370.28 413.712 370.251 413.66 370.24H244.33C244.278 370.251 244.232 370.28 244.199 370.32C244.166 370.361 244.148 370.413 244.148 370.465C244.148 370.518 244.166 370.569 244.199 370.61C244.232 370.651 244.278 370.679 244.33 370.69Z" fill="#E0E0E0"/>
<path d="M329.55 370.46C330.02 363.004 330.04 355.528 329.61 348.07C329.61 348.009 329.586 347.95 329.543 347.907C329.5 347.864 329.441 347.84 329.38 347.84C329.319 347.84 329.261 347.864 329.217 347.907C329.174 347.95 329.15 348.009 329.15 348.07C328.72 355.528 328.74 363.004 329.21 370.46C329.21 370.505 329.228 370.548 329.26 370.58C329.292 370.612 329.335 370.63 329.38 370.63C329.425 370.63 329.468 370.612 329.5 370.58C329.532 370.548 329.55 370.505 329.55 370.46Z" fill="#E0E0E0"/>
<path d="M375.12 359.27C375.12 359.727 374.984 360.174 374.73 360.554C374.476 360.934 374.114 361.231 373.692 361.405C373.269 361.58 372.804 361.625 372.356 361.535C371.907 361.445 371.496 361.224 371.173 360.9C370.85 360.576 370.631 360.163 370.543 359.714C370.455 359.266 370.502 358.801 370.679 358.379C370.855 357.957 371.153 357.597 371.534 357.344C371.915 357.092 372.363 356.958 372.82 356.96C373.123 356.96 373.423 357.02 373.702 357.136C373.982 357.252 374.236 357.423 374.45 357.637C374.664 357.852 374.833 358.107 374.948 358.387C375.063 358.667 375.121 358.967 375.12 359.27Z" fill="#E0E0E0"/>
<path d="M286.26 359.27C286.268 359.731 286.138 360.183 285.887 360.569C285.635 360.955 285.274 361.258 284.85 361.437C284.426 361.616 283.958 361.665 283.506 361.576C283.054 361.488 282.638 361.266 282.313 360.939C281.988 360.613 281.768 360.197 281.682 359.744C281.595 359.292 281.646 358.824 281.827 358.4C282.008 357.977 282.312 357.617 282.699 357.368C283.086 357.118 283.539 356.99 284 357C284.598 357.01 285.168 357.253 285.59 357.677C286.012 358.101 286.252 358.672 286.26 359.27Z" fill="#E0E0E0"/>
<path d="M331.3 384.83C331.3 385.287 331.164 385.734 330.91 386.114C330.656 386.495 330.294 386.791 329.872 386.965C329.449 387.14 328.984 387.185 328.536 387.095C328.087 387.005 327.676 386.784 327.353 386.46C327.03 386.136 326.811 385.723 326.723 385.275C326.635 384.826 326.682 384.361 326.859 383.939C327.035 383.517 327.333 383.157 327.714 382.905C328.095 382.652 328.543 382.518 329 382.52C329.611 382.523 330.196 382.767 330.627 383.2C331.058 383.633 331.3 384.219 331.3 384.83Z" fill="#E0E0E0"/>
<path d="M261.06 425.83L251.86 477.6H257.03L274 425.83H261.06Z" fill="#E0E0E0"/>
<path d="M405.82 425.83L413.52 477.69H408.34L392.88 425.83H405.82Z" fill="#E0E0E0"/>
<path d="M440.38 425.83L449.1 477.69H443.92L427.44 425.83H440.38Z" fill="#E0E0E0"/>
<path d="M331.15 408.17C331.15 408.627 331.015 409.074 330.761 409.454C330.507 409.834 330.146 410.13 329.724 410.305C329.302 410.479 328.837 410.525 328.389 410.436C327.941 410.347 327.53 410.127 327.207 409.804C326.884 409.481 326.664 409.069 326.574 408.621C326.485 408.173 326.531 407.708 326.706 407.286C326.881 406.864 327.177 406.503 327.557 406.25C327.937 405.996 328.383 405.86 328.84 405.86C329.453 405.86 330.04 406.104 330.473 406.537C330.907 406.97 331.15 407.558 331.15 408.17Z" fill="#E0E0E0"/>
<path d="M244.33 396.22H413.66C413.712 396.209 413.758 396.181 413.791 396.14C413.824 396.099 413.842 396.048 413.842 395.995C413.842 395.942 413.824 395.891 413.791 395.85C413.758 395.809 413.712 395.781 413.66 395.77H244.33C244.278 395.781 244.232 395.809 244.199 395.85C244.166 395.891 244.148 395.942 244.148 395.995C244.148 396.048 244.166 396.099 244.199 396.14C244.232 396.181 244.278 396.209 244.33 396.22Z" fill="#E0E0E0"/>
<path d="M364.49 315.377L364.432 304.377L310.373 304.66L310.43 315.66L364.49 315.377Z" fill="#E0E0E0"/>
<path d="M370.984 343.14L370.894 326.041L310.645 326.356L310.734 343.456L370.984 343.14Z" fill="#F5F5F5"/>
<path d="M359.4 343C359.23 343 359.1 339.17 359.1 334.45C359.1 329.73 359.23 325.9 359.4 325.9C359.689 328.74 359.786 331.597 359.69 334.45C359.786 337.303 359.689 340.16 359.4 343Z" fill="#E0E0E0"/>
<path d="M361.93 343C361.634 340.16 361.534 337.303 361.63 334.45C361.534 331.596 361.634 328.74 361.93 325.9C362.219 328.74 362.316 331.597 362.22 334.45C362.316 337.303 362.219 340.16 361.93 343Z" fill="#E0E0E0"/>
<path d="M319.82 343C319.531 340.16 319.434 337.303 319.53 334.45C319.434 331.597 319.531 328.74 319.82 325.9C320.109 328.74 320.206 331.597 320.11 334.45C320.206 337.303 320.109 340.16 319.82 343Z" fill="#E0E0E0"/>
<path d="M322.35 343C322.061 340.16 321.964 337.303 322.06 334.45C321.964 331.597 322.061 328.74 322.35 325.9C322.639 328.74 322.736 331.597 322.64 334.45C322.736 337.303 322.639 340.16 322.35 343Z" fill="#E0E0E0"/>
<path d="M327.87 334.76C327.87 334.59 333.95 334.46 341.45 334.46C348.95 334.46 355.02 334.59 355.02 334.76C355.02 334.93 348.95 335.05 341.45 335.05C333.95 335.05 327.87 334.92 327.87 334.76Z" fill="#E0E0E0"/>
<path d="M393.609 325.939L393.551 314.939L319.212 315.329L319.27 326.329L393.609 325.939Z" fill="#EBEBEB"/>
<path d="M383 324.59C382.295 324.602 381.602 324.404 381.009 324.022C380.417 323.639 379.951 323.089 379.672 322.441C379.392 321.794 379.311 321.078 379.439 320.384C379.567 319.691 379.899 319.051 380.391 318.546C380.883 318.041 381.515 317.693 382.205 317.547C382.895 317.402 383.613 317.464 384.267 317.727C384.922 317.99 385.484 318.442 385.881 319.025C386.278 319.607 386.494 320.295 386.5 321C386.508 321.466 386.423 321.929 386.251 322.363C386.08 322.796 385.823 323.191 385.498 323.525C385.173 323.858 384.784 324.124 384.356 324.307C383.927 324.49 383.466 324.586 383 324.59Z" fill="#E0E0E0"/>
<path d="M373.32 322.13V319.93H323.55V322.13H373.32Z" fill="#E0E0E0"/>
<path d="M420.36 155.52H335.65V243.82H420.36V155.52Z" fill="#E0E0E0"/>
<path d="M414.63 155.52H329.92V243.82H414.63V155.52Z" fill="#FAFAFA"/>
<path d="M414.65 243.84H329.89V155.49H414.65V243.84ZM329.94 243.79H414.6V155.54H329.94V243.79Z" fill="#E0E0E0"/>
<path d="M403.23 167.39H341.3V231.95H403.23V167.39Z" fill="white"/>
<path d="M341.3 232.38C340.858 233.026 340.345 233.619 339.77 234.15C338.77 235.15 337.4 236.61 335.84 238.15C334.28 239.69 332.84 241.06 331.84 242.03C331.301 242.592 330.701 243.092 330.05 243.52C330.483 242.87 330.993 242.276 331.57 241.75C332.57 240.7 333.95 239.29 335.57 237.75C337.19 236.21 338.57 234.84 339.57 233.87C340.085 233.306 340.666 232.806 341.3 232.38Z" fill="#E0E0E0"/>
<path d="M403.23 232.22C403.883 232.657 404.48 233.171 405.01 233.75C406.06 234.75 407.47 236.12 409.01 237.68C410.55 239.24 411.92 240.68 412.89 241.68C413.455 242.217 413.955 242.818 414.38 243.47C413.73 243.054 413.132 242.56 412.6 242C411.55 241 410.14 239.62 408.6 238.05C407.06 236.48 405.69 235.05 404.72 234C404.16 233.463 403.66 232.866 403.23 232.22Z" fill="#E0E0E0"/>
<path d="M403.07 167.56C403.504 166.908 404.014 166.311 404.59 165.78C405.59 164.78 406.97 163.33 408.53 161.78C410.09 160.23 411.53 158.88 412.58 157.91C413.11 157.339 413.712 156.838 414.37 156.42C413.931 157.065 413.421 157.659 412.85 158.19C411.85 159.19 410.46 160.65 408.85 162.19C407.24 163.73 405.85 165.1 404.85 166.07C404.317 166.634 403.719 167.134 403.07 167.56Z" fill="#E0E0E0"/>
<path d="M341.13 167.72C340.482 167.281 339.888 166.768 339.36 166.19C338.31 165.19 336.9 163.81 335.36 162.25C333.82 160.69 332.46 159.25 331.49 158.25C330.928 157.711 330.428 157.111 330 156.46C330.653 156.889 331.248 157.4 331.77 157.98C332.77 158.98 334.23 160.36 335.77 161.92C337.31 163.48 338.68 164.92 339.65 165.98C340.213 166.497 340.711 167.081 341.13 167.72Z" fill="#E0E0E0"/>
<path d="M403.07 232C403.062 231.894 403.062 231.787 403.07 231.68C403.07 231.46 403.07 231.17 403.07 230.78C403.07 229.967 403.07 228.807 403.07 227.3C403.07 224.24 403.07 219.79 403.01 214.14C403.01 202.83 402.94 186.72 402.89 167.44L403.13 167.68H341.37L341.65 167.41C341.65 191.1 341.65 213.27 341.65 231.97L341.41 231.73L386.13 231.85L398.69 231.91H402.02H402.88H403.18H402H398.72L386.21 231.97L341.34 232.09H341.11V232C341.11 213.3 341.11 191.13 341.11 167.44V167.16H341.39H403.15H403.39V167.4C403.34 186.75 403.3 202.91 403.27 214.25C403.27 219.88 403.22 224.31 403.21 227.36C403.21 228.85 403.21 230 403.21 230.79C403.21 231.17 403.21 231.46 403.21 231.67C403.21 231.88 403.07 232 403.07 232Z" fill="#E0E0E0"/>
<path d="M382.61 189.33H361.94V210H382.61V189.33Z" fill="#EBEBEB"/>
<path d="M173.03 426.19H112.4V434.52H173.03V426.19Z" fill="#263238"/>
<path d="M173.14 434.62H112.3V426.08H173.14V434.62ZM112.51 434.41H172.93V426.29H112.51V434.41Z" fill="#263238"/>
<path d="M118.02 431.74L126.75 474.8H159.04L167.48 434.52L118.02 431.74Z" fill="#263238"/>
<path d="M118.02 470.73L122.68 477.13H161.93L167.48 470.73H118.02Z" fill="#455A64"/>
<path d="M140.44 433C140.32 433 140.17 413.05 140.1 388.45C140.03 363.85 140.1 343.9 140.19 343.9C140.28 343.9 140.46 363.84 140.53 388.45C140.6 413.06 140.56 433 140.44 433Z" fill="#263238"/>
<path d="M154 383.08C153.958 383.242 153.901 383.399 153.83 383.55L153.29 384.84L152.9 385.77C152.77 386.12 152.64 386.5 152.49 386.9C152.34 387.3 152.19 387.74 152.03 388.2C151.87 388.66 151.74 389.2 151.58 389.68C150.86 392.116 150.293 394.594 149.88 397.1C149.41 400.179 149.096 403.28 148.94 406.39C148.717 412.061 148.877 417.741 149.42 423.39C149.62 425.55 149.81 427.3 149.96 428.51C150.02 429.07 150.07 429.51 150.11 429.9C150.123 430.063 150.123 430.227 150.11 430.39C150.047 430.237 150.01 430.075 150 429.91C149.93 429.55 149.86 429.09 149.76 428.53C149.57 427.33 149.32 425.58 149.09 423.42C148.457 417.777 148.253 412.094 148.48 406.42C148.64 403.294 148.973 400.179 149.48 397.09C149.906 394.568 150.507 392.078 151.28 389.64C151.45 389.12 151.58 388.64 151.76 388.16C151.94 387.68 152.1 387.27 152.26 386.87C152.42 386.47 152.56 386.09 152.7 385.74C152.84 385.39 153 385.1 153.13 384.82C153.38 384.31 153.58 383.89 153.75 383.56C153.807 383.388 153.892 383.226 154 383.08Z" fill="#263238"/>
<path d="M152.4 367C152.347 367.224 152.28 367.444 152.2 367.66C152.05 368.12 151.84 368.74 151.57 369.51C151.43 369.92 151.28 370.37 151.11 370.85C150.94 371.33 150.8 371.85 150.62 372.46C150.27 373.62 149.86 374.93 149.49 376.4C149.3 377.14 149.09 377.91 148.88 378.71C148.67 379.51 148.51 380.36 148.31 381.23C147.89 382.97 147.59 384.85 147.19 386.82C146.53 390.82 145.94 395.16 145.53 399.82C145.12 404.48 144.98 408.82 144.92 412.88C144.86 416.94 144.92 420.53 145.13 423.56C145.18 425.08 145.28 426.45 145.36 427.66C145.44 428.87 145.5 429.9 145.58 430.75C145.66 431.6 145.69 432.22 145.73 432.7C145.748 432.93 145.748 433.16 145.73 433.39C145.672 433.167 145.636 432.94 145.62 432.71C145.56 432.23 145.49 431.58 145.39 430.77C145.29 429.96 145.19 428.88 145.1 427.68C145.01 426.48 144.87 425.1 144.8 423.58C144.6 420.58 144.51 416.91 144.5 412.88C144.49 408.85 144.7 404.42 145.08 399.79C145.46 395.16 146.08 390.79 146.78 386.79C147.18 384.79 147.5 382.93 147.94 381.19C148.147 380.317 148.347 379.477 148.54 378.67C148.76 377.87 148.97 377.1 149.18 376.36C149.56 374.89 149.99 373.58 150.37 372.43C150.56 371.86 150.73 371.32 150.89 370.82C151.05 370.32 151.24 369.9 151.39 369.5C151.69 368.73 151.93 368.12 152.1 367.67C152.177 367.437 152.278 367.213 152.4 367Z" fill="#263238"/>
<path d="M136.61 436.53C136.6 436.453 136.6 436.376 136.61 436.3C136.61 436.12 136.59 435.89 136.55 435.61C136.55 434.97 136.45 434.09 136.38 432.97C136.23 430.64 136.02 427.33 135.77 423.25C135.24 415.05 134.48 403.72 133.1 391.25C132.4 385.02 131.58 379.1 130.73 373.73C130.28 371.06 129.87 368.51 129.4 366.14C128.93 363.77 128.51 361.56 128.09 359.55C127.67 357.54 127.25 355.73 126.89 354.14C126.53 352.55 126.2 351.14 125.89 350.06C125.58 348.98 125.41 348.11 125.26 347.49C125.19 347.22 125.14 347 125.1 346.82C125.06 346.64 125.1 346.59 125.1 346.59C125.142 346.658 125.172 346.732 125.19 346.81L125.38 347.47L126 350C126.31 351.11 126.67 352.47 127 354.06C127.33 355.65 127.84 357.45 128.26 359.46C128.68 361.47 129.18 363.67 129.62 366.05C130.06 368.43 130.53 370.97 130.99 373.65C131.86 379.02 132.69 384.94 133.4 391.18C134.78 403.65 135.49 415 135.94 423.18C136.17 427.29 136.32 430.61 136.41 432.91C136.46 434.03 136.49 434.91 136.51 435.56C136.51 435.84 136.51 436.06 136.51 436.24C136.55 436.334 136.584 436.431 136.61 436.53Z" fill="#263238"/>
<path d="M140 353.49C139.73 350.67 136.88 348.49 134 348.49C132.579 348.556 131.191 348.943 129.941 349.622C128.69 350.301 127.61 351.254 126.78 352.41C125.146 354.742 123.965 357.361 123.3 360.13C121.235 366.764 120.511 373.743 121.17 380.66C121.98 387.54 124.77 394.31 129.71 399.17C130.51 399.96 131.55 400.75 132.65 400.51C133.248 400.323 133.783 399.977 134.2 399.51C139.034 395.088 142.866 389.683 145.439 383.659C148.012 377.634 149.267 371.129 149.12 364.58C149.04 361.96 148.7 359.24 147.25 357.06C145.8 354.88 142.42 352.57 139.96 353.44" fill="#455A64"/>
<path d="M140.19 343.9L104.19 322.63C103.794 322.456 103.479 322.138 103.31 321.74C103.17 321.21 103.57 320.74 103.96 320.3C106.438 317.728 109.441 315.721 112.765 314.415C116.088 313.108 119.654 312.534 123.22 312.73C126.785 312.984 130.234 314.103 133.269 315.99C136.305 317.877 138.834 320.476 140.64 323.56C144.12 329.78 144.23 338 140.24 343.9" fill="#455A64"/>
<path d="M109.34 315.84L109.81 315.78C110.12 315.78 110.58 315.71 111.17 315.72C112.845 315.693 114.519 315.823 116.17 316.11C121.668 317.041 126.786 319.524 130.921 323.265C135.056 327.007 138.036 331.852 139.51 337.23C139.956 338.843 140.254 340.493 140.4 342.16C140.417 342.493 140.417 342.827 140.4 343.16C140.374 343.441 140.281 343.711 140.13 343.95C140.223 343.347 140.223 342.733 140.13 342.13C139.93 340.482 139.596 338.853 139.13 337.26C137.617 331.967 134.652 327.204 130.571 323.511C126.49 319.817 121.457 317.34 116.04 316.36C114.39 316.052 112.718 315.875 111.04 315.83C110 315.86 109.34 315.88 109.34 315.84Z" fill="#263238"/>
<path d="M135.31 329.22C134.737 329.566 134.127 329.844 133.49 330.05C132.34 330.5 130.74 331.05 128.94 331.65C127.14 332.25 125.5 332.65 124.3 332.97C123.651 333.173 122.979 333.298 122.3 333.34C122.906 333.054 123.539 332.83 124.19 332.67L128.78 331.24L133.36 329.76C133.989 329.51 134.642 329.329 135.31 329.22Z" fill="#263238"/>
<path d="M129.63 314C129.955 315.308 130.1 316.653 130.06 318C130.159 319.337 130.085 320.682 129.84 322C129.666 320.674 129.596 319.337 129.63 318C129.523 316.669 129.523 315.331 129.63 314Z" fill="#263238"/>
<path d="M103.83 322.23C104.673 321.843 105.55 321.535 106.45 321.31C108.08 320.8 110.36 320.16 112.91 319.55C115.46 318.94 117.77 318.47 119.46 318.17C120.363 317.963 121.284 317.839 122.21 317.8C121.331 318.088 120.432 318.312 119.52 318.47C117.85 318.84 115.52 319.36 113.01 319.97C110.5 320.58 108.19 321.17 106.53 321.6C105.646 321.874 104.744 322.085 103.83 322.23Z" fill="#263238"/>
<path d="M125 347.36C121.9 345.01 118.63 344.55 114.74 344.7C110.845 344.959 107.033 345.942 103.5 347.6C97.42 350.26 91.71 354.19 88.08 359.74C84.45 365.29 83.18 372.65 85.9 378.74C86.1113 379.372 86.5496 379.903 87.13 380.23C87.7941 380.411 88.5003 380.358 89.13 380.08C96.04 377.82 103 375.55 109.36 372.01C115.72 368.47 121.5 363.57 124.91 357.15C125.791 355.638 126.35 353.959 126.55 352.22C126.643 351.35 126.55 350.47 126.275 349.638C126.001 348.807 125.553 348.044 124.96 347.4" fill="#455A64"/>
<path d="M125.05 346.63C124.889 346.709 124.721 346.776 124.55 346.83L123.1 347.33L122.1 347.68L120.88 348.16C120 348.51 118.99 348.87 117.88 349.38L116.18 350.16C115.59 350.43 115.01 350.76 114.38 351.08C113.13 351.69 111.86 352.48 110.51 353.28C104.712 356.873 99.5549 361.409 95.25 366.7C94.25 367.93 93.35 369.09 92.58 370.26C92.18 370.83 91.78 371.37 91.43 371.92C91.08 372.47 90.77 373 90.43 373.5C89.78 374.5 89.3 375.5 88.84 376.28C88.61 376.7 88.39 377.08 88.21 377.44L87.73 378.44C87.45 379.01 87.23 379.44 87.05 379.81C86.9803 379.975 86.8931 380.133 86.79 380.28C86.8294 380.106 86.8898 379.939 86.97 379.78L87.58 378.37C87.7133 378.057 87.8633 377.723 88.03 377.37C88.2 377.01 88.41 376.62 88.63 376.2C89.07 375.36 89.53 374.39 90.17 373.38L91.17 371.77C91.51 371.21 91.91 370.67 92.3 370.08C93.07 368.9 94 367.73 94.96 366.47C97.1109 363.802 99.4646 361.305 102 359C104.591 356.762 107.353 354.729 110.26 352.92C111.63 352.13 112.91 351.35 114.18 350.74C114.81 350.43 115.4 350.1 116 349.84L117.71 349.08C118.8 348.58 119.83 348.25 120.71 347.91C121.16 347.75 121.57 347.59 121.95 347.47L123.02 347.15L124.49 346.73C124.673 346.679 124.861 346.646 125.05 346.63Z" fill="#263238"/>
<path d="M100.82 359.75C98.3519 360.694 95.835 361.505 93.28 362.18C90.7648 362.985 88.2077 363.653 85.62 364.18C88.0888 363.238 90.6056 362.427 93.16 361.75C95.6736 360.939 98.231 360.272 100.82 359.75Z" fill="#263238"/>
<path d="M100.51 376.39C100.388 375.613 100.335 374.827 100.35 374.04C100.35 372.59 100.35 370.58 100.35 368.36C100.35 366.14 100.54 364.14 100.66 362.69C100.682 361.903 100.779 361.119 100.95 360.35C101.017 361.135 101.017 361.925 100.95 362.71C100.95 364.3 100.84 366.23 100.78 368.37C100.72 370.51 100.67 372.45 100.63 374.04C100.67 374.825 100.63 375.613 100.51 376.39Z" fill="#263238"/>
<path d="M114.77 369.12C114.65 369.12 114.27 365.05 113.92 360.01C113.57 354.97 113.39 350.88 113.51 350.87C113.63 350.86 114.01 354.94 114.35 359.98C114.69 365.02 114.89 369.12 114.77 369.12Z" fill="#263238"/>
<path d="M97 350.47C97.803 350.375 98.6128 350.352 99.42 350.4C100.91 350.4 102.97 350.45 105.24 350.53C107.51 350.61 109.57 350.7 111.06 350.78C111.869 350.785 112.676 350.866 113.47 351.02C112.667 351.114 111.857 351.138 111.05 351.09C109.56 351.09 107.5 351.03 105.23 350.96C102.96 350.89 100.9 350.79 99.41 350.7C98.6012 350.7 97.7942 350.623 97 350.47Z" fill="#263238"/>
<path d="M131.25 400.12C131.203 399.964 131.183 399.802 131.19 399.64C131.19 399.28 131.17 398.82 131.13 398.26C131.13 397.05 131.06 395.31 131.13 393.15C131.2 390.99 131.32 388.43 131.57 385.59C131.82 382.75 132.26 379.64 132.84 376.4C133.42 373.16 134.16 370.1 134.89 367.34C135.62 364.58 136.42 362.13 137.14 360.09C137.86 358.05 138.49 356.42 138.96 355.31C139.19 354.79 139.37 354.36 139.51 354.03C139.57 353.877 139.644 353.73 139.73 353.59C139.704 353.752 139.656 353.91 139.59 354.06C139.47 354.4 139.31 354.83 139.12 355.37C138.69 356.49 138.12 358.14 137.43 360.19C136.74 362.24 136.01 364.69 135.28 367.44C134.55 370.19 133.86 373.24 133.28 376.44C132.7 379.64 132.28 382.77 131.98 385.6C131.68 388.43 131.52 390.98 131.44 393.13C131.36 395.28 131.33 397.02 131.33 398.22C131.33 398.79 131.33 399.22 131.33 399.61C131.318 399.782 131.292 399.953 131.25 400.12Z" fill="#263238"/>
<path d="M133.15 376.52C132.726 377.095 132.244 377.625 131.71 378.1C130.78 379.03 129.45 380.28 127.94 381.6C126.43 382.92 125.02 384.08 123.94 384.88C123.404 385.351 122.817 385.76 122.19 386.1C122.662 385.568 123.185 385.082 123.75 384.65L127.63 381.28L131.47 377.88C131.984 377.373 132.547 376.917 133.15 376.52Z" fill="#263238"/>
<path d="M144.56 385.71C143.986 385.052 143.474 384.342 143.03 383.59L139.46 378.39L135.83 373.25C135.286 372.563 134.798 371.834 134.37 371.07C134.995 371.685 135.564 372.354 136.07 373.07C137.07 374.34 138.41 376.13 139.82 378.16C141.23 380.19 142.44 382.06 143.28 383.44C143.774 384.156 144.202 384.916 144.56 385.71Z" fill="#263238"/>
<path d="M138.58 356.81C138.64 356.91 134.85 359.46 130.11 362.51C125.37 365.56 121.48 367.94 121.42 367.84C121.36 367.74 125.14 365.19 129.88 362.14C134.62 359.09 138.51 356.71 138.58 356.81Z" fill="#263238"/>
<path d="M149.27 368.34C147.257 366.687 145.341 364.921 143.53 363.05C141.623 361.276 139.811 359.403 138.1 357.44C140.111 359.098 142.027 360.867 143.84 362.74C145.748 364.509 147.56 366.378 149.27 368.34Z" fill="#263238"/>
<path d="M152 368.11L155.26 367.84C157.569 367.657 159.811 366.974 161.83 365.84C162.817 365.263 163.839 364.749 164.89 364.3C168.89 362.69 173.4 362.98 177.73 362.76C184.82 362.402 191.767 360.628 198.16 357.54C198.533 357.368 198.844 357.085 199.05 356.73C199.72 355.51 198.48 354.43 197.41 353.73C191.93 350.35 186.35 346.93 180.13 345.25C173.91 343.57 166.86 343.86 161.55 347.51C155.33 351.8 153.06 360.6 152 368.08" fill="#455A64"/>
<path d="M199.07 356.32C198.88 356.249 198.696 356.162 198.52 356.06L196.98 355.25C195.64 354.55 193.71 353.51 191.28 352.35C188.449 350.952 185.497 349.814 182.46 348.95C178.741 347.874 174.845 347.551 171 348C167.16 348.431 163.534 349.99 160.58 352.48C158.269 354.623 156.421 357.216 155.15 360.1C154.01 362.53 153.31 364.61 152.79 366.03L152.21 367.67C152.154 367.863 152.08 368.05 151.99 368.23C152.013 368.028 152.06 367.83 152.13 367.64C152.26 367.22 152.43 366.64 152.63 365.97C153.263 363.928 154.014 361.925 154.88 359.97C156.128 357.024 157.978 354.371 160.31 352.18C163.335 349.616 167.058 348.017 171 347.59C174.891 347.14 178.833 347.48 182.59 348.59C185.64 349.489 188.603 350.664 191.44 352.1C193.86 353.31 195.77 354.39 197.08 355.1L198.58 355.98C198.754 356.077 198.918 356.191 199.07 356.32Z" fill="#263238"/>
<path d="M191.26 360.52C191.19 360.62 186.94 357.86 181.75 354.37C176.56 350.88 172.42 347.96 172.49 347.86C172.56 347.76 176.81 350.52 182 354.01C187.19 357.5 191.32 360.42 191.26 360.52Z" fill="#263238"/>
<path d="M186.72 347.64C185.719 347.976 184.675 348.165 183.62 348.2C182.57 348.344 181.505 348.328 180.46 348.15C181.491 347.969 182.534 347.865 183.58 347.84C184.62 347.695 185.67 347.628 186.72 347.64Z" fill="#263238"/>
<path d="M168.09 345.21C167.741 346.006 167.269 346.742 166.69 347.39C166.203 348.138 165.61 348.812 164.93 349.39C165.272 348.593 165.742 347.856 166.32 347.21C166.812 346.463 167.408 345.789 168.09 345.21Z" fill="#263238"/>
<path d="M171.9 363C171.179 362.705 170.491 362.333 169.85 361.89C168.63 361.15 166.96 360.05 165.19 358.77C163.42 357.49 161.85 356.26 160.72 355.37C160.087 354.92 159.498 354.411 158.96 353.85C159.649 354.211 160.301 354.636 160.91 355.12L165.44 358.42C167.21 359.7 168.84 360.83 170.02 361.64C170.683 362.041 171.311 362.496 171.9 363Z" fill="#263238"/>
<path d="M156.75 381.94C153.64 381.12 149.94 384.13 149.3 387.28C148.66 390.43 149.84 393.64 151.22 396.54C154.179 403.034 158.568 408.774 164.06 413.33C169.597 417.884 176.512 420.432 183.68 420.56C182.37 414.46 184.03 408.1 183.3 401.91C182.655 396.454 180.178 391.379 176.275 387.513C172.371 383.648 167.272 381.221 161.81 380.63C159.81 380.42 157.54 380.11 156.75 381.94Z" fill="#455A64"/>
<path d="M183.68 420.56C183.526 420.507 183.378 420.436 183.24 420.35C182.83 420.127 182.442 419.865 182.08 419.57C180.775 418.439 179.728 417.041 179.01 415.47C178.52 414.47 178.01 413.47 177.43 412.31C176.85 411.15 176.34 409.92 175.76 408.62C175.152 407.267 174.464 405.951 173.7 404.68C172.86 403.329 171.917 402.045 170.88 400.84C168.76 398.34 166.48 396.18 164.5 394.12C162.708 392.323 161.082 390.368 159.64 388.28C158.666 386.868 157.867 385.344 157.26 383.74C157.098 383.304 156.958 382.86 156.84 382.41C156.784 382.259 156.753 382.101 156.75 381.94C156.75 381.94 156.96 382.57 157.41 383.68C158.074 385.242 158.906 386.727 159.89 388.11C161.361 390.153 163 392.07 164.79 393.84C166.79 395.84 169.06 398.04 171.21 400.56C172.262 401.784 173.218 403.088 174.07 404.46C174.834 405.75 175.518 407.086 176.12 408.46L177.75 412.16C178.27 413.31 178.81 414.37 179.29 415.33C179.962 416.885 180.95 418.285 182.19 419.44C183.09 420.22 183.71 420.51 183.68 420.56Z" fill="#263238"/>
<path d="M167.63 415.49C167.649 414.784 167.747 414.084 167.92 413.4C168.16 412.12 168.56 410.4 169.1 408.46C169.64 406.52 170.21 404.84 170.67 403.63C170.88 402.956 171.165 402.309 171.52 401.7C171.394 402.382 171.207 403.051 170.96 403.7C170.58 404.94 170.05 406.65 169.51 408.56C168.97 410.47 168.51 412.19 168.22 413.45C168.09 414.147 167.892 414.83 167.63 415.49Z" fill="#263238"/>
<path d="M183.09 400.53C182.35 400.429 181.62 400.262 180.91 400.03C179.57 399.68 177.72 399.2 175.67 398.74C173.62 398.28 171.74 397.92 170.38 397.66C169.638 397.561 168.905 397.4 168.19 397.18C168.941 397.157 169.692 397.218 170.43 397.36C171.81 397.54 173.7 397.85 175.76 398.36C177.82 398.87 179.67 399.36 180.99 399.78C181.715 399.955 182.418 400.206 183.09 400.53Z" fill="#263238"/>
<path d="M156.12 404.88C156.149 404.064 156.26 403.253 156.45 402.46C156.72 400.98 157.16 398.94 157.74 396.72C158.32 394.5 158.94 392.5 159.42 391.08C159.649 390.295 159.947 389.532 160.31 388.8C160.182 389.605 159.984 390.398 159.72 391.17C159.3 392.61 158.72 394.61 158.16 396.83C157.6 399.05 157.1 401.06 156.75 402.53C156.602 403.328 156.391 404.114 156.12 404.88Z" fill="#263238"/>
<path d="M176 387.5C176 387.62 172.12 387.3 167.35 386.8C162.58 386.3 158.73 385.8 158.74 385.67C161.637 385.756 164.527 385.989 167.4 386.37C170.284 386.599 173.155 386.976 176 387.5Z" fill="#263238"/>
<path d="M173.13 434.48C173.13 434.6 159.52 434.7 142.72 434.7C125.92 434.7 112.3 434.6 112.3 434.48C112.3 434.36 125.92 434.27 142.72 434.27C159.52 434.27 173.13 434.36 173.13 434.48Z" fill="#455A64"/>
<path d="M163.66 452C163.66 452.12 154.48 452.21 143.17 452.21C131.86 452.21 122.67 452.12 122.67 452C122.67 451.88 131.85 451.78 143.17 451.78C154.49 451.78 163.66 451.89 163.66 452Z" fill="#455A64"/>
<path d="M163.3 454.51C163.3 454.63 154.3 454.73 143.17 454.73C132.04 454.73 123.03 454.63 123.03 454.51C123.03 454.39 132.03 454.3 143.17 454.3C154.31 454.3 163.3 454.39 163.3 454.51Z" fill="#455A64"/>
<path d="M164 449.94C164 450.06 154.51 450.16 142.8 450.16C131.09 450.16 121.6 450.06 121.6 449.94C121.6 449.82 131.09 449.73 142.8 449.73C154.51 449.73 164 449.82 164 449.94Z" fill="#455A64"/>








<g class="el1">
<path d="M230.89 103.36C225.314 106.916 218.823 108.768 212.21 108.69C210.119 108.562 208.023 108.538 205.93 108.62C203.822 108.707 201.803 109.491 200.19 110.85C199.397 111.542 198.832 112.458 198.568 113.477C198.304 114.495 198.354 115.57 198.71 116.56C199.89 119.26 203.71 120.33 204.29 123.22C204.71 125.3 203.16 127.28 201.41 128.49C199.66 129.7 197.62 130.49 196.15 132.03C195.263 132.952 194.636 134.093 194.334 135.336C194.032 136.579 194.065 137.88 194.43 139.107C194.795 140.333 195.479 141.44 196.412 142.316C197.345 143.191 198.493 143.804 199.74 144.09C201.23 144.44 203.06 144.45 203.87 145.75C204.3 146.737 204.377 147.842 204.09 148.88C203.697 151.109 203.994 153.404 204.94 155.46C205.427 156.478 206.187 157.341 207.135 157.954C208.083 158.566 209.182 158.904 210.31 158.93C211.19 158.93 212.05 158.63 212.93 158.65C213.369 158.623 213.806 158.73 214.183 158.957C214.559 159.184 214.858 159.52 215.04 159.92C215.133 160.519 215.106 161.131 214.96 161.72C214.64 164.67 217.58 166.98 220.43 167.82C226.12 169.52 232.43 167.88 237.27 164.38C242.11 160.88 245.42 155.7 247.67 150.2C249.92 144.7 251.13 138.86 252.33 133.04" fill="#263238"/>
<path d="M294.45 250.45C293.812 248.875 292.856 247.448 291.64 246.26C284.11 238.26 272.7 234.41 261.73 235.04C250.76 235.67 240.25 240.44 231.73 247.35C227.18 251.04 221.04 258.15 219.44 263.79C226.12 265.4 236.1 263.16 242.44 260.41C248.78 257.66 254.98 254.34 261.81 253.64C269.73 252.83 277.51 255.64 285.31 257.23C286.87 257.61 288.48 257.739 290.08 257.61C290.879 257.539 291.655 257.298 292.354 256.905C293.054 256.512 293.663 255.976 294.14 255.33C294.559 254.594 294.805 253.772 294.859 252.926C294.913 252.08 294.773 251.234 294.45 250.45Z" fill="#81184E"/>
<g opacity="0.3">
<path d="M294.45 250.45C293.812 248.875 292.856 247.448 291.64 246.26C284.11 238.26 272.7 234.41 261.73 235.04C250.76 235.67 240.25 240.44 231.73 247.35C227.18 251.04 221.04 258.15 219.44 263.79C226.12 265.4 236.1 263.16 242.44 260.41C248.78 257.66 254.98 254.34 261.81 253.64C269.73 252.83 277.51 255.64 285.31 257.23C286.87 257.61 288.48 257.739 290.08 257.61C290.879 257.539 291.655 257.298 292.354 256.905C293.054 256.512 293.663 255.976 294.14 255.33C294.559 254.594 294.805 253.772 294.859 252.926C294.913 252.08 294.773 251.234 294.45 250.45Z" fill="black"/>
</g>
<path d="M289 345.85L308.07 333.5C308.07 333.5 327.07 348.73 330.78 346.79L308.14 309L277.63 327L289 345.85Z" fill="#81184E"/>
<path d="M299.42 322.78C299.311 322.349 299.365 321.894 299.572 321.5C299.778 321.107 300.123 320.804 300.54 320.65C300.967 320.526 301.426 320.571 301.82 320.775C302.215 320.98 302.516 321.329 302.66 321.75C302.772 322.206 302.711 322.687 302.49 323.1C302.268 323.514 301.901 323.831 301.46 323.99C301.002 324.073 300.53 323.976 300.142 323.719C299.754 323.462 299.481 323.064 299.38 322.61" fill="#E0E0E0"/>
<g opacity="0.6">
<path d="M308.14 309L305.14 310.94L328 346.44C328 346.44 329.74 347.69 330.81 346.79L308.14 309Z" fill="white"/>
</g>
<path d="M308.23 334.22C308.41 334.11 307.94 333.13 307.99 331.87C308.04 330.61 308.53 329.66 308.36 329.53C308.19 329.4 307.28 330.32 307.25 331.85C307.22 333.38 308.09 334.37 308.23 334.22Z" fill="#263238"/>
<path d="M312.25 337.21C312.45 337.15 312.25 336.21 312.69 335.06C313.13 333.91 313.82 333.29 313.69 333.11C313.56 332.93 312.46 333.44 311.98 334.81C311.5 336.18 312.07 337.31 312.25 337.21Z" fill="#263238"/>
<path d="M318.35 336.62C318.28 336.43 317.21 336.73 316.48 337.81C315.75 338.89 315.87 339.99 316.07 339.98C316.27 339.97 316.49 339.11 317.07 338.23C317.65 337.35 318.44 336.82 318.35 336.62Z" fill="#263238"/>
<path d="M303.57 336.56C303.7 336.38 302.93 335.68 302.38 334.56C301.83 333.44 301.67 332.46 301.45 332.46C301.23 332.46 301.05 333.63 301.72 334.91C302.39 336.19 303.48 336.74 303.57 336.56Z" fill="#263238"/>
<path opacity="0.3" d="M292.01 318.49L300.68 338.27L297.77 340.33L287.77 321.04L292.01 318.49Z" fill="black"/>
<path d="M280.65 240.88C279.87 240.88 254.22 240.31 240.37 249.46L229.37 255.64L229.66 266.74C229.66 266.74 227.31 270.66 227.83 273.01C228.35 275.36 227.76 285.29 227.76 285.29C227.76 285.29 223.65 285.55 223.13 292.61C223.13 292.61 217.43 294.96 214.93 299.14C212.43 303.32 186.81 350.35 185.25 357.93C183.69 365.51 182.63 378.83 188.38 383.27C194.13 387.71 207 386.14 207 386.14C207 386.14 208.83 391.63 220.07 391.89C231.31 392.15 248.54 379.09 248.54 379.09L300.28 343.82L288 317.61L269.93 328.66L289.26 306.19C289.26 306.19 298.15 291.04 295.53 275.1C293.6 263.27 280.65 240.88 280.65 240.88Z" fill="#263238"/>
<path d="M285.08 249H284.47H282.73C281.21 249 279.03 249 276.33 249C273.63 249 270.41 249.13 266.87 249.51C263.028 249.877 259.238 250.669 255.57 251.87C247.76 254.51 241.48 258.7 237.01 261.69L231.75 265.33L230.32 266.33C230.162 266.457 229.987 266.561 229.8 266.64C229.8 266.64 229.94 266.49 230.25 266.24L231.63 265.18C232.84 264.26 234.63 262.95 236.8 261.39C241.23 258.32 247.51 254.05 255.4 251.39C259.105 250.175 262.936 249.387 266.82 249.04C269.981 248.747 273.155 248.617 276.33 248.65C279.03 248.65 281.22 248.75 282.73 248.83L284.47 248.93C284.676 248.926 284.881 248.95 285.08 249Z" fill="#455A64"/>
<path d="M232.29 257.16C231.881 257.571 231.599 258.092 231.48 258.66C231.429 258.952 231.451 259.253 231.546 259.534C231.64 259.815 231.803 260.068 232.02 260.27C232.285 260.514 232.61 260.681 232.962 260.755C233.314 260.829 233.68 260.806 234.02 260.69C234.346 260.54 234.626 260.305 234.831 260.009C235.035 259.714 235.155 259.369 235.18 259.01C235.2 258.713 235.145 258.416 235.021 258.145C234.897 257.875 234.708 257.639 234.47 257.46C233.991 257.127 233.423 256.946 232.84 256.94C232.84 256.94 232.99 256.81 233.33 256.79C233.81 256.762 234.285 256.896 234.68 257.17C234.995 257.366 235.253 257.64 235.428 257.967C235.604 258.293 235.69 258.66 235.68 259.03C235.688 259.498 235.554 259.957 235.295 260.346C235.036 260.735 234.664 261.036 234.23 261.209C233.795 261.381 233.319 261.418 232.863 261.312C232.408 261.207 231.995 260.966 231.68 260.62C231.423 260.362 231.236 260.044 231.134 259.694C231.033 259.345 231.021 258.975 231.1 258.62C231.205 258.15 231.457 257.727 231.82 257.41C232.1 257.17 232.28 257.13 232.29 257.16Z" fill="#455A64"/>
<path d="M241.5 258.51C241.45 258.56 241.09 258.29 240.58 257.77C239.836 257.121 239.315 256.254 239.091 255.292C238.866 254.33 238.95 253.322 239.33 252.41C239.56 251.71 239.77 251.31 239.83 251.33C239.89 251.35 239.83 251.8 239.69 252.5C239.479 253.375 239.449 254.283 239.6 255.17C239.859 256.033 240.288 256.835 240.86 257.53C241.28 258.1 241.55 258.46 241.5 258.51Z" fill="#455A64"/>
<path d="M243.67 257.18C243.67 257.23 243.27 257.01 242.8 256.52C242.196 255.858 241.749 255.068 241.49 254.21C241.088 253.019 241.071 251.732 241.44 250.53C241.62 250.53 241.44 252.19 241.99 254.06C242.422 255.164 242.986 256.212 243.67 257.18Z" fill="#455A64"/>
<path d="M271.36 249C271.28 249 271.25 248.53 271.18 247.79C271.103 246.848 270.891 245.922 270.55 245.04C270.175 244.176 269.647 243.386 268.99 242.71C268.49 242.17 268.17 241.83 268.22 241.77C268.27 241.71 268.67 241.95 269.22 242.44C269.994 243.089 270.604 243.911 271 244.84C271.372 245.775 271.548 246.775 271.52 247.78C271.564 248.194 271.509 248.612 271.36 249Z" fill="#455A64"/>
<path d="M274.72 249C274.64 249 274.63 248.53 274.64 247.8C274.697 246.874 274.62 245.944 274.41 245.04C274.075 244.172 273.638 243.346 273.11 242.58C272.72 241.96 272.51 241.58 272.57 241.51C272.63 241.44 272.95 241.8 273.41 242.37C274.053 243.116 274.561 243.969 274.91 244.89C275.151 245.852 275.181 246.855 275 247.83C274.9 248.51 274.79 249 274.72 249Z" fill="#455A64"/>
<path d="M230.49 362.58C230.597 362.172 230.755 361.779 230.96 361.41C231.31 360.66 231.85 359.57 232.56 358.18C233.98 355.39 236.07 351.38 238.69 346.44C243.93 336.56 251.25 322.95 259.4 307.96L265.4 297.01C267.224 293.62 268.637 290.025 269.61 286.3C271.262 279.969 271.602 273.367 270.61 266.9C269.955 262.543 268.714 258.294 266.92 254.27C266.29 252.84 265.74 251.76 265.36 251.03L264.92 250.2C264.868 250.107 264.825 250.01 264.79 249.91C264.859 249.994 264.919 250.084 264.97 250.18L265.45 250.98C265.86 251.69 266.45 252.76 267.11 254.18C271.782 264.267 272.804 275.663 270 286.42C269.028 290.19 267.608 293.829 265.77 297.26C263.85 300.79 261.86 304.45 259.83 308.2L239 346.61L232.72 358.27L231.03 361.45L230.61 362.29C230.578 362.39 230.538 362.487 230.49 362.58Z" fill="#455A64"/>
<path d="M288.2 328.74C288.024 328.888 287.837 329.022 287.64 329.14L285.98 330.14L279.85 334C274.68 337.2 267.56 341.65 259.77 346.69C251.98 351.73 245 356.36 240 359.74L234 363.74L232.35 364.8C232.164 364.934 231.967 365.051 231.76 365.15C231.92 364.987 232.098 364.843 232.29 364.72L233.88 363.57L239.78 359.44C244.78 355.99 251.78 351.27 259.53 346.22C267.28 341.17 274.48 336.77 279.7 333.66C282.31 332.1 284.44 330.86 285.91 330.02L287.62 329.02C287.805 328.911 287.999 328.817 288.2 328.74Z" fill="#455A64"/>
<path d="M296.29 346.5C296.096 346.184 295.936 345.849 295.81 345.5L294.56 342.66C293.48 340.27 291.94 336.99 290.21 333.38C288.48 329.77 286.98 326.6 285.8 324.12L284.49 321.3C284.31 320.964 284.169 320.608 284.07 320.24C284.313 320.546 284.515 320.882 284.67 321.24C285.03 321.89 285.53 322.82 286.13 323.99C287.33 326.32 288.96 329.57 290.68 333.19C292.4 336.81 293.9 340.11 294.9 342.55C295.4 343.76 295.77 344.76 296 345.46C296.133 345.796 296.23 346.144 296.29 346.5Z" fill="#455A64"/>
<path d="M230.49 362.58C230.4 362.47 239.24 354.65 250.25 345.11C261.26 335.57 270.25 327.93 270.35 328.04C270.45 328.15 261.6 336 250.59 345.5C239.58 355 230.59 362.69 230.49 362.58Z" fill="#455A64"/>
<path d="M219.53 380.91C220.338 380.214 221.054 379.418 221.66 378.54C222.73 376.88 224.04 374.44 225.52 371.79C227 369.14 228.25 366.67 229.17 364.9C229.617 363.919 230.139 362.973 230.73 362.07C230.41 363.105 229.999 364.109 229.5 365.07C228.66 366.89 227.44 369.37 225.98 372.07C224.52 374.77 223.14 377.13 221.98 378.78C221.515 379.435 220.955 380.018 220.32 380.51C220.086 380.695 219.817 380.831 219.53 380.91Z" fill="#455A64"/>
<path d="M228.9 383.74C228.82 383.74 229.39 382.61 230.02 380.74C230.806 378.286 231.349 375.76 231.64 373.2C231.996 370.652 231.996 368.067 231.64 365.52C231.522 364.758 231.296 364.018 230.97 363.32C230.8 363.091 230.653 362.847 230.53 362.59C230.53 362.59 230.79 362.76 231.14 363.22C231.556 363.907 231.847 364.662 232 365.45C232.484 368.026 232.551 370.663 232.2 373.26C231.912 375.86 231.307 378.416 230.4 380.87C230.12 381.61 229.786 382.329 229.4 383.02C229.1 383.5 228.93 383.76 228.9 383.74Z" fill="#455A64"/>
<path d="M218.07 368.55C218.709 368.259 219.381 368.045 220.07 367.91C221.647 367.483 223.188 366.935 224.68 366.27C228.15 364.65 230.42 362.42 230.54 362.58C230.105 363.132 229.585 363.611 229 364C227.734 365.088 226.324 365.996 224.81 366.7C223.292 367.385 221.702 367.898 220.07 368.23C219.421 368.427 218.748 368.534 218.07 368.55Z" fill="#455A64"/>
<path d="M231.3 295.89C231.262 295.966 231.215 296.036 231.16 296.1L230.72 296.69C230.33 297.21 229.77 297.98 229.1 299C227.216 301.907 225.628 304.996 224.36 308.22C222.524 313.018 220.998 317.928 219.79 322.92C218.3 328.53 216.79 334.78 214.28 341.02C211.77 347.26 208.51 352.8 206.45 358.22C204.514 362.973 203.46 368.039 203.34 373.17C203.339 375.132 203.561 377.088 204 379C204.352 380.443 204.831 381.852 205.43 383.21C205.812 384.071 206.243 384.909 206.72 385.72C206.86 385.98 206.98 386.19 207.08 386.36C207.123 386.433 207.16 386.51 207.19 386.59C207.128 386.531 207.075 386.463 207.03 386.39L206.63 385.78C206.115 384.984 205.651 384.155 205.24 383.3C204.604 381.94 204.095 380.524 203.72 379.07C203.246 377.135 202.994 375.152 202.97 373.16C203.023 367.978 204.04 362.85 205.97 358.04C208.02 352.57 211.19 346.98 213.76 340.81C216.33 334.64 217.76 328.39 219.28 322.81C220.519 317.805 222.089 312.887 223.98 308.09C225.282 304.86 226.929 301.779 228.89 298.9C229.59 297.9 230.18 297.13 230.6 296.64L231.08 296.08C231.23 296 231.29 295.88 231.3 295.89Z" fill="#455A64"/>
<path d="M233 264.33C232.854 264.748 232.681 265.156 232.48 265.55C232.002 266.65 231.666 267.806 231.48 268.99C231.257 270.749 231.317 272.531 231.66 274.27C231.97 276.27 232.8 278.27 233.36 280.61C233.643 281.74 233.741 282.909 233.65 284.07C233.564 285.139 233.393 286.199 233.14 287.24C232.717 288.99 232.199 290.716 231.59 292.41C231.08 293.86 230.59 295.01 230.31 295.81C230.172 296.233 229.988 296.639 229.76 297.02C229.841 296.584 229.961 296.155 230.12 295.74C230.42 294.83 230.79 293.67 231.24 292.29C231.69 290.91 232.24 289.1 232.67 287.13C233.243 285.042 233.305 282.847 232.85 280.73C232.31 278.5 231.47 276.39 231.19 274.35C230.855 272.561 230.828 270.728 231.11 268.93C231.324 267.725 231.718 266.558 232.28 265.47C232.425 265.173 232.588 264.886 232.77 264.61C232.89 264.42 233 264.32 233 264.33Z" fill="#455A64"/>
<path d="M234.2 294.42C235.312 293.179 236.168 291.732 236.72 290.16C237.276 288.45 237.54 286.658 237.5 284.86C237.421 282.647 237.147 280.445 236.68 278.28C236.194 276.098 235.824 273.891 235.57 271.67C235.411 269.838 235.447 267.994 235.68 266.17C235.824 264.938 236.119 263.729 236.56 262.57C236.678 262.257 236.818 261.953 236.98 261.66C237.1 261.46 237.16 261.36 237.18 261.36C237.2 261.36 237.01 261.82 236.75 262.64C236.39 263.805 236.152 265.005 236.04 266.22C235.87 268.016 235.87 269.824 236.04 271.62C236.23 273.62 236.73 275.85 237.18 278.18C237.656 280.376 237.92 282.613 237.97 284.86C237.99 286.707 237.678 288.543 237.05 290.28C236.63 291.457 236 292.548 235.19 293.5C234.966 293.752 234.725 293.989 234.47 294.21C234.31 294.36 234.21 294.43 234.2 294.42Z" fill="#455A64"/>
<path d="M259.56 286.54C259.165 286.652 258.759 286.725 258.35 286.76C257.57 286.86 256.44 287.04 255.06 287.28C251.454 287.905 247.903 288.815 244.44 290C240.981 291.2 237.621 292.668 234.39 294.39C233.15 295.06 232.16 295.61 231.48 296.01C231.14 296.242 230.775 296.434 230.39 296.58C230.695 296.297 231.03 296.049 231.39 295.84C232.04 295.39 233.01 294.78 234.23 294.07C240.64 290.396 247.687 287.966 255 286.91C256.4 286.72 257.54 286.6 258.33 286.56C258.738 286.503 259.151 286.496 259.56 286.54Z" fill="#455A64"/>
<path d="M261.19 275.63C261.19 275.73 259.71 275.71 257.38 276.07C256.026 276.286 254.689 276.6 253.38 277.01C250.151 278.024 247.13 279.609 244.46 281.69C243.37 282.541 242.344 283.47 241.39 284.47C239.77 286.18 238.95 287.41 238.87 287.35C239 287.027 239.175 286.724 239.39 286.45C239.91 285.664 240.488 284.919 241.12 284.22C242.036 283.167 243.039 282.193 244.12 281.31C245.467 280.245 246.906 279.301 248.42 278.49C249.953 277.705 251.553 277.056 253.2 276.55C254.544 276.154 255.919 275.873 257.31 275.71C258.248 275.585 259.194 275.532 260.14 275.55C260.492 275.536 260.844 275.563 261.19 275.63Z" fill="#455A64"/>
<path d="M263.42 298.51C263.064 298.695 262.688 298.839 262.3 298.94C261.56 299.18 260.51 299.54 259.2 300C255.814 301.211 252.499 302.609 249.27 304.19C246.051 305.783 242.925 307.559 239.91 309.51C238.75 310.26 237.82 310.88 237.18 311.32C236.87 311.566 236.535 311.777 236.18 311.95C236.451 311.652 236.757 311.387 237.09 311.16C237.69 310.67 238.59 310 239.73 309.16C242.702 307.1 245.824 305.265 249.07 303.67C252.301 302.074 255.643 300.714 259.07 299.6C260.39 299.19 261.47 298.88 262.22 298.7C262.611 298.587 263.014 298.523 263.42 298.51Z" fill="#455A64"/>
<path d="M295 272.34C294.655 272.269 294.32 272.158 294 272.01C293.38 271.77 292.47 271.43 291.29 271.01C288.039 269.945 284.689 269.211 281.29 268.82L281.54 268.59C281.66 272.9 281.63 278.01 281.25 283.46C280.891 288.77 280.186 294.051 279.14 299.27V299.16C280.064 302.186 281.177 305.152 282.47 308.04C282.94 309.04 283.37 309.86 283.66 310.4C283.833 310.66 283.99 310.93 284.13 311.21C283.912 310.98 283.717 310.729 283.55 310.46C283.069 309.716 282.632 308.944 282.24 308.15C280.862 305.283 279.689 302.323 278.73 299.29V299.24V299.18C279.707 293.971 280.375 288.708 280.73 283.42C281.11 277.99 281.16 272.9 281.1 268.6V268.34H281.36C284.77 268.765 288.124 269.563 291.36 270.72C292.53 271.15 293.42 271.54 294.03 271.81C294.369 271.957 294.693 272.134 295 272.34Z" fill="#455A64"/>
<path d="M295.76 276.68C295.045 276.547 294.342 276.353 293.66 276.1C292.38 275.72 290.59 275.22 288.6 274.76C284.6 273.82 281.34 273.22 281.36 273.07C282.092 273.042 282.824 273.106 283.54 273.26C284.88 273.45 286.71 273.77 288.72 274.26C292.75 275.16 295.83 276.54 295.76 276.68Z" fill="#455A64"/>
<path d="M291 261.29C291 261.36 289.78 261.01 287.83 260.55C285.289 259.956 282.709 259.545 280.11 259.32C277.508 259.117 274.896 259.083 272.29 259.22C271.206 259.321 270.118 259.361 269.03 259.34C269.305 259.231 269.595 259.164 269.89 259.14C270.45 259.05 271.26 258.94 272.26 258.85C274.884 258.608 277.523 258.591 280.15 258.8C282.778 259.02 285.379 259.486 287.92 260.19C288.92 260.47 289.67 260.72 290.19 260.93C290.477 261.006 290.751 261.128 291 261.29Z" fill="#455A64"/>
<path d="M270.61 265.8C270.181 265.979 269.735 266.116 269.28 266.21C268.42 266.44 267.16 266.72 265.58 267C261.471 267.718 257.29 267.926 253.13 267.62C250.72 267.38 248.31 267.12 246.43 265.94C245.544 265.387 244.822 264.606 244.34 263.68C243.941 262.846 243.822 261.907 244 261C244.203 259.745 244.576 258.524 245.11 257.37C245.279 256.933 245.519 256.528 245.82 256.17C245.82 256.17 245.62 256.62 245.3 257.44C244.849 258.603 244.534 259.815 244.36 261.05C244.233 261.873 244.365 262.716 244.74 263.46C245.213 264.295 245.904 264.987 246.74 265.46C248.49 266.54 250.84 266.8 253.23 267.03C257.355 267.33 261.5 267.172 265.59 266.56C267.16 266.34 268.43 266.11 269.3 265.94C269.732 265.854 270.17 265.807 270.61 265.8Z" fill="#455A64"/>
<path d="M268.06 86.5602C263.28 76.2002 251.45 78.2402 245.79 80.9902C240.102 83.6756 235.635 88.4069 233.28 94.2402C231.62 98.2402 230.28 102.8 226.94 105.24C225.404 106.152 223.818 106.977 222.19 107.71C221.354 108.116 220.62 108.705 220.043 109.434C219.467 110.163 219.062 111.013 218.86 111.92C218.36 115.37 221.86 117.76 224.74 119.15C223.01 120.33 222.56 123 223.17 125.15C223.908 127.205 225.074 129.079 226.59 130.65C231.691 136.283 237.527 141.203 243.94 145.28C249.4 148.68 252.94 149.08 258.8 146.64C261.18 145.64 263.4 144.02 265.94 143.73C268.89 143.4 271.71 144.91 274.63 145.52C277.55 146.13 281.23 145.29 282.18 142.22C282.415 140.997 282.549 139.756 282.58 138.51C282.73 137.28 283.34 135.94 284.45 135.66C285.35 135.43 286.25 135.98 287.13 136.27C289.24 136.97 292.42 152.63 294.44 151.68C294.44 151.68 297.38 125.14 291.72 109.61C289.91 104.61 286.05 94.0902 282.97 89.9802C278.73 84.3402 268.57 85.5902 268.06 86.5902" fill="#263238"/>
<path d="M262 88.28C254.47 85.65 244.31 91.43 242 99.06C239.43 107.53 236.64 117.98 236.15 124.64C235.15 138.03 244.68 142 244.68 142L240.81 162.93L273.44 152.38L284.83 103.06L285.89 98.92L262 88.28Z" fill="#FFBE9D"/>
<path d="M242 109.38C242.11 109.67 243.66 109.25 245.36 109.92C247.06 110.59 247.98 111.92 248.24 111.8C248.5 111.68 248.32 111.3 247.93 110.69C247.394 109.888 246.622 109.273 245.72 108.93C244.837 108.571 243.862 108.508 242.94 108.75C242.27 109 242 109.25 242 109.38Z" fill="#263238"/>
<path d="M258.89 113.83C259.09 114.06 260.44 113.2 262.26 113.33C264.08 113.46 265.36 114.46 265.58 114.25C265.8 114.04 265.5 113.74 264.94 113.25C264.187 112.655 263.268 112.306 262.31 112.25C261.359 112.182 260.41 112.416 259.6 112.92C259 113.33 258.8 113.72 258.89 113.83Z" fill="#263238"/>
<path d="M251.31 121.32C250.442 120.804 249.511 120.401 248.54 120.12C248.1 119.96 247.69 119.77 247.69 119.44C247.759 118.962 247.976 118.518 248.31 118.17L250.46 115.02C253.46 110.53 255.79 106.79 255.61 106.67C255.43 106.55 252.83 110.09 249.8 114.58C249.07 115.7 248.37 116.75 247.7 117.77C247.28 118.249 247.046 118.863 247.04 119.5C247.07 119.675 247.139 119.841 247.241 119.986C247.343 120.132 247.476 120.253 247.63 120.34C247.87 120.462 248.121 120.559 248.38 120.63C249.323 120.984 250.308 121.216 251.31 121.32Z" fill="#263238"/>
<path d="M244.69 142C250.886 143.56 257.39 143.397 263.5 141.53C263.5 141.53 257.17 149.59 244.08 145.27L244.69 142Z" fill="#EB996E"/>
<path d="M250.34 127.3C250.17 127.08 250.42 127.57 250.34 127.3V127.3Z" fill="#EB996E"/>
<path d="M256.15 126.43C255.954 126.018 255.675 125.651 255.331 125.352C254.987 125.053 254.585 124.827 254.15 124.69C253.561 124.479 252.929 124.421 252.312 124.52C251.694 124.62 251.112 124.875 250.62 125.26C250.419 125.548 250.286 125.877 250.232 126.224C250.178 126.571 250.205 126.925 250.31 127.26C250.94 128.07 251 128.75 251.88 129.26C252.514 129.469 253.185 129.538 253.848 129.462C254.511 129.386 255.15 129.167 255.72 128.82C256.028 128.514 256.234 128.12 256.311 127.693C256.388 127.265 256.332 126.825 256.15 126.43Z" fill="#EB996E"/>
<path d="M256.27 123.78C255.98 123.7 255.52 125.63 253.55 126.61C251.58 127.59 249.55 126.9 249.48 127.17C249.48 127.28 249.85 127.65 250.72 127.88C251.846 128.163 253.036 128.039 254.08 127.53C255.086 127.038 255.86 126.173 256.24 125.12C256.51 124.33 256.4 123.8 256.27 123.78Z" fill="#263238"/>
<path d="M262.57 104.4C262.47 104.91 263.96 105.4 265.47 106.54C266.98 107.68 268.01 108.85 268.47 108.54C268.67 108.4 268.66 107.87 268.36 107.16C267.955 106.278 267.323 105.519 266.53 104.96C265.759 104.39 264.845 104.043 263.89 103.96C263.1 104 262.62 104.16 262.57 104.4Z" fill="#263238"/>
<path d="M243.1 102.53C243.49 102.91 244.86 102.34 246.54 102.16C248.22 101.98 249.69 102.16 249.98 101.68C250.1 101.45 249.84 101.06 249.17 100.68C248.271 100.277 247.276 100.135 246.3 100.27C245.325 100.372 244.398 100.75 243.63 101.36C243.07 101.9 242.92 102.34 243.1 102.53Z" fill="#263238"/>
<path d="M287.73 98.89C287.168 97.8889 286.289 97.104 285.23 96.6601C278.738 93.0974 272.017 89.9705 265.11 87.3L262.27 88.91C261.897 91.6764 262.354 94.4911 263.582 96.9976C264.811 99.5041 266.755 101.59 269.17 102.99C271.11 104.07 273.63 105.09 273.88 107.3C274.13 109.51 271.74 111.15 270.39 113.01C269.564 114.171 269.102 115.551 269.061 116.975C269.02 118.399 269.403 119.803 270.16 121.01C271.03 122.36 272.35 123.38 273.16 124.77C273.662 125.713 273.947 126.757 273.993 127.824C274.04 128.892 273.848 129.956 273.43 130.94C272.62 132.94 271.27 135.57 269.43 136.68C271.914 137.238 274.51 137.008 276.857 136.02C279.203 135.032 281.183 133.337 282.52 131.17C284.04 128.59 284.16 125.46 284.36 122.47C284.819 115.669 285.9 108.924 287.59 102.32C288.016 101.224 288.065 100.017 287.73 98.89Z" fill="#263238"/>
<path d="M265.56 87.6101C263.811 89.9245 261.709 91.9493 259.33 93.6101C256.87 95.1401 253.73 95.8601 251.04 94.7801C251.71 94.0401 252.39 93.3001 253.04 92.5501C248.253 95.8281 242.834 98.0694 237.13 99.1301C240.71 94.7801 244.4 90.3401 249.29 87.5301C254.18 84.7201 260.59 83.8601 265.36 86.8501" fill="#263238"/>
<path d="M288.39 112.9L273.15 124.74C274.9 126.65 274.22 131.51 272.5 133.44C270.78 135.37 268.5 137.02 267.83 139.52C267.09 142.25 268.54 145.08 268.58 147.91C268.64 151.91 265.95 155.35 263.87 158.77C261.79 162.19 260.29 166.77 262.61 170.04C265.22 173.72 271.13 173.19 274.7 170.44C278.27 167.69 280.31 163.44 282.96 159.8C285.61 156.16 289.75 153.37 294.24 153.8C295.632 139.894 293.625 125.858 288.39 112.9Z" fill="#263238"/>
<path d="M290.94 145.91C290.85 145.74 291.75 145.09 293.29 143.85C295.464 142.171 297.402 140.207 299.05 138.01C300.138 136.513 301.004 134.866 301.62 133.12C302.33 131.162 302.636 129.08 302.52 127C302.361 124.733 301.643 122.542 300.43 120.62C299.075 118.515 297.359 116.667 295.36 115.16C291.26 111.97 286.36 110.16 282.08 108.25C278.096 106.711 274.336 104.646 270.9 102.11C268.555 100.36 266.615 98.1263 265.21 95.5601C264.28 93.7101 264.13 92.5601 264.27 92.5601C264.41 92.5601 264.94 93.4901 266.07 95.0701C267.704 97.266 269.707 99.1609 271.99 100.67C275.443 102.864 279.137 104.652 283 106C285.18 106.87 287.51 107.77 289.89 108.87C292.413 110.005 294.799 111.424 297 113.1C299.243 114.803 301.158 116.901 302.65 119.29C304.049 121.584 304.844 124.196 304.96 126.88C305.027 129.277 304.591 131.662 303.68 133.88C302.911 135.782 301.852 137.553 300.54 139.13C298.672 141.358 296.424 143.237 293.9 144.68C292.09 145.7 291 146.05 290.94 145.91Z" fill="#263238"/>
<path d="M291.23 110C290.772 109.905 290.326 109.761 289.9 109.57C289.06 109.26 287.9 108.79 286.37 108.17C282.468 106.624 278.802 104.537 275.48 101.97C272.143 99.3489 269.633 95.8215 268.25 91.8102C267.848 90.5974 267.609 89.3362 267.54 88.0602C267.522 87.7271 267.522 87.3933 267.54 87.0602C267.524 86.9407 267.524 86.8196 267.54 86.7002C267.694 88.3978 268.029 90.074 268.54 91.7002C270.012 95.5814 272.507 98.992 275.76 101.57C279.054 104.099 282.652 106.206 286.47 107.84L289.93 109.38C290.382 109.546 290.817 109.754 291.23 110Z" fill="#455A64"/>
<path d="M291.71 125.14C291.65 125.14 291.96 124.54 292.12 123.42C292.298 121.818 292.017 120.199 291.31 118.75C290.276 116.594 288.68 114.756 286.69 113.43C284.5 111.84 281.78 110.58 279.06 108.95C276.489 107.421 274.185 105.482 272.24 103.21C270.647 101.356 269.302 99.3016 268.24 97.1C267.532 95.6223 266.973 94.0781 266.57 92.49C266.41 91.93 266.35 91.49 266.29 91.19C266.243 91.0413 266.223 90.8856 266.23 90.73C266.439 91.2896 266.616 91.8605 266.76 92.44C267.237 93.9879 267.842 95.4932 268.57 96.94C269.646 99.1002 270.99 101.116 272.57 102.94C274.495 105.16 276.764 107.058 279.29 108.56C281.97 110.16 284.71 111.45 286.93 113.09C288.97 114.479 290.589 116.403 291.61 118.65C292.309 120.164 292.543 121.853 292.28 123.5C292.203 123.941 292.072 124.371 291.89 124.78C291.8 125 291.73 125.15 291.71 125.14Z" fill="#455A64"/>
<path d="M207.44 115C207.44 115 207.44 114.94 207.53 114.84C207.63 114.686 207.74 114.539 207.86 114.4C208.319 113.851 208.901 113.419 209.56 113.14C210.621 112.769 211.736 112.576 212.86 112.57C214.15 112.5 215.63 112.4 217.26 112.4C219.023 112.432 220.784 112.267 222.51 111.91C224.458 111.409 226.263 110.461 227.78 109.14C229.452 107.656 230.9 105.938 232.08 104.04C233.335 101.982 234.48 99.8593 235.51 97.6801C236.561 95.4858 237.764 93.3674 239.11 91.3401C240.381 89.435 241.979 87.7694 243.83 86.4201C247.019 84.1965 250.793 82.9649 254.68 82.8801C257.279 82.7897 259.868 83.2462 262.28 84.2201L263.4 84.7101L264.17 85.1501C264.39 85.2626 264.601 85.3931 264.8 85.5401C264.567 85.4633 264.342 85.3628 264.13 85.2401L263.33 84.8501L262.21 84.4101C259.806 83.5249 257.249 83.1305 254.69 83.2501C250.893 83.3879 247.218 84.6246 244.11 86.8101C242.312 88.1351 240.761 89.7668 239.53 91.6301C238.21 93.6293 237.031 95.7176 236 97.8801C234.958 100.077 233.8 102.217 232.53 104.29C231.318 106.224 229.829 107.969 228.11 109.47C226.531 110.83 224.653 111.8 222.63 112.3C220.869 112.649 219.074 112.797 217.28 112.74C215.65 112.74 214.19 112.74 212.89 112.83C211.795 112.809 210.704 112.968 209.66 113.3C209.013 113.545 208.432 113.935 207.96 114.44C207.798 114.637 207.625 114.824 207.44 115Z" fill="#455A64"/>
<path d="M201.32 101.51C195.32 86.36 187.32 71.51 186.22 60.22L174.27 60.7C174.52 65.07 176.09 101.44 184.56 115.82C193.03 130.2 221.31 163.82 221.31 163.82L231.26 138.23C231.26 138.23 207.33 116.67 201.32 101.51Z" fill="#FFBE9D"/>
<path d="M181.4 36.7002H176.17C176.17 36.7002 176.68 39.7802 179.05 39.9502C181.42 40.1202 180.96 39.5802 180.96 39.5802L180.43 40.0702L177.17 40.7102C177.17 40.7102 177.33 43.2502 179.48 43.6502L182.65 40.7102L181.4 36.7002Z" fill="#FFBE9D"/>
<path d="M195.72 36.2401C195.24 40.1801 195.19 39.9401 195.19 39.9401L190.41 43.8801L189.19 38.0801C189.111 37.6958 188.908 37.3482 188.611 37.0914C188.315 36.8346 187.942 36.683 187.55 36.6601L185.38 36.5201C185.38 36.5201 186.22 33.5201 183.49 33.7701C183.49 33.7701 181.99 33.3601 180.78 38.3801C179.46 43.8701 173.78 56.7701 174.27 61.0801L186.39 61.5701C186.26 57.5701 189.56 53.3001 191.19 51.4601C191.682 50.9122 192.026 50.248 192.19 49.5301C192.414 48.5438 192.882 47.6294 193.55 46.8701C195.05 45.2101 198.2 42.2201 198.2 42.2201V33.0901C198.2 33.0901 196.18 32.4401 195.72 36.2401ZM186 45.0601L183.51 46.1901L183.93 43.6501L186 43.4501V45.0601Z" fill="#FFBE9D"/>
<path d="M183.38 46.4601C183.379 46.1 183.419 45.741 183.5 45.3901C183.62 44.7001 183.79 43.7201 184.02 42.5001L184.86 38.2401C185.057 37.4213 185.194 36.589 185.27 35.7501C185.27 34.9401 184.97 34.0101 184.1 33.9601C183.23 33.9101 182.59 34.5001 182.17 35.2101C181.97 35.579 181.809 35.9677 181.69 36.3701L181.3 37.5601L180 41.7001C179.61 42.8801 179.25 43.8201 179 44.4601C178.886 44.8155 178.721 45.1524 178.51 45.4601C178.568 45.1156 178.669 44.7797 178.81 44.4601C179.02 43.8001 179.33 42.8501 179.67 41.6701C180.01 40.4901 180.42 39.0301 180.86 37.4901C180.99 37.0901 181.11 36.6901 181.24 36.2801C181.362 35.8422 181.533 35.4195 181.75 35.0201C181.992 34.5982 182.311 34.2251 182.69 33.9201C182.901 33.7538 183.144 33.6318 183.403 33.5613C183.663 33.4909 183.934 33.4735 184.2 33.5101C184.468 33.5534 184.725 33.6449 184.96 33.7801C185.186 33.9379 185.371 34.1469 185.5 34.3901C185.718 34.8378 185.821 35.3327 185.8 35.8301C185.717 36.6972 185.567 37.5565 185.35 38.4001L184.35 42.6501C184.08 43.8501 183.85 44.8301 183.67 45.5001C183.615 45.8313 183.518 46.154 183.38 46.4601Z" fill="#EB996E"/>
<path d="M185.86 45.0901C185.738 44.115 185.688 43.1324 185.71 42.1501C185.71 41.7501 185.65 41.3701 185.62 41.0201C185.636 40.7567 185.554 40.4967 185.39 40.2901C185.05 40.0401 184.64 40.0401 184.66 39.9501C184.68 39.8601 184.75 39.8801 184.91 39.8601C185.151 39.8261 185.397 39.8717 185.61 39.9901C185.759 40.1105 185.88 40.2628 185.963 40.4358C186.046 40.6088 186.089 40.7982 186.09 40.9901C186.165 41.3762 186.212 41.7672 186.23 42.1601C186.37 43.1522 186.242 44.1637 185.86 45.0901Z" fill="#EB996E"/>
<path d="M191.8 42.8601C191.8 42.8601 191.47 43.3001 190.8 43.8601C189.954 44.6102 189.012 45.2456 188 45.7501C186.945 46.2075 185.818 46.4749 184.67 46.5401C184.204 46.631 183.726 46.631 183.26 46.5401C183.692 46.3559 184.152 46.2444 184.62 46.2101C185.707 46.0461 186.769 45.7437 187.78 45.3101C188.775 44.8282 189.725 44.2594 190.62 43.6101C191.3 43.0901 191.75 42.8001 191.8 42.8601Z" fill="#EB996E"/>
<path d="M286.83 156.44C286.83 156.44 300.29 156.04 308.35 153.64C316.41 151.24 347.35 143.88 347.35 143.88L397 135.6L398 148.44C398 148.44 351.87 161.93 342.91 165C333.95 168.07 293 182.12 285.26 180.34L280.46 170.47L286.83 156.44Z" fill="#FFBE9D"/>
<path d="M420.87 120.5C420.06 120.32 416.04 122.15 416.04 122.15C416.423 121.685 416.639 121.106 416.654 120.504C416.668 119.902 416.48 119.313 416.12 118.83L410.6 121.54C409.141 123.02 407.602 124.418 405.99 125.73C403.451 128.069 401.109 130.615 398.99 133.34L395.69 136.41L397.74 148.56C399.184 148.68 400.636 148.49 402 148C403.71 147.21 406.21 144 406.21 144L410.92 143.6C411.468 143.56 411.991 143.354 412.42 143.01C412.845 142.596 413.171 142.091 413.373 141.534C413.576 140.976 413.65 140.38 413.59 139.79C416.59 138.09 414.84 135.93 414.84 135.93C415.787 135.814 416.654 135.337 417.26 134.6C417.517 134.201 417.641 133.73 417.614 133.256C417.587 132.781 417.41 132.328 417.11 131.96C416.55 130.96 412.23 131.27 412.23 131.27L412 130C412 130 418.6 124.76 420.08 123.62C421.56 122.48 421.63 120.67 420.87 120.5Z" fill="#FFBE9D"/>
<path d="M416.12 122C415.645 122.948 414.961 123.775 414.12 124.42C413.264 125.152 412.459 125.94 411.71 126.78C410.878 127.86 410.276 129.099 409.94 130.42C409.592 131.803 409.096 133.144 408.46 134.42C407.915 135.44 407.243 136.388 406.46 137.24C405.931 137.808 405.352 138.326 404.73 138.79C404.513 138.974 404.266 139.12 404 139.22C403.94 139.15 404.94 138.46 406.19 136.99C406.911 136.134 407.532 135.198 408.04 134.2C408.637 132.956 409.113 131.656 409.46 130.32C409.811 128.933 410.455 127.637 411.35 126.52C412.132 125.676 412.982 124.897 413.89 124.19C414.677 123.506 415.422 122.774 416.12 122Z" fill="#EB996E"/>
<path d="M413.69 139.76C413.018 140.215 412.275 140.554 411.49 140.76C410.642 141.045 409.762 141.227 408.87 141.3C408.341 141.34 407.809 141.34 407.28 141.3C406.676 141.258 406.093 141.058 405.59 140.72C405.329 140.534 405.116 140.288 404.97 140.003C404.824 139.717 404.748 139.401 404.75 139.08C404.862 138.505 405.173 137.988 405.63 137.62C405.995 137.271 406.442 137.02 406.93 136.89C407.37 136.77 407.77 136.68 408.14 136.61C408.924 136.373 409.743 136.278 410.56 136.33C410.56 136.39 409.66 136.57 408.22 136.96L407.06 137.3C406.643 137.428 406.265 137.658 405.96 137.97C405.611 138.266 405.366 138.665 405.26 139.11C405.262 139.346 405.321 139.577 405.433 139.784C405.544 139.992 405.705 140.169 405.9 140.3C406.804 140.77 407.828 140.958 408.84 140.84C409.699 140.79 410.551 140.649 411.38 140.42C412.81 140.05 413.66 139.68 413.69 139.76Z" fill="#EB996E"/>
<path d="M415 135.93C414.477 136.222 413.897 136.396 413.3 136.44C412.663 136.549 412.016 136.596 411.37 136.58C410.946 136.611 410.52 136.547 410.122 136.395C409.725 136.243 409.366 136.006 409.07 135.7C408.817 135.34 408.673 134.915 408.655 134.475C408.637 134.035 408.747 133.599 408.97 133.22C409.307 132.625 409.821 132.15 410.44 131.86C410.963 131.556 411.555 131.387 412.16 131.37C412.16 131.45 411.53 131.65 410.62 132.18C410.103 132.477 409.68 132.913 409.4 133.44C409.232 133.737 409.149 134.074 409.161 134.415C409.174 134.756 409.281 135.087 409.47 135.37C409.724 135.616 410.025 135.807 410.355 135.933C410.685 136.058 411.037 136.115 411.39 136.1C412.013 136.141 412.637 136.141 413.26 136.1C413.835 136 414.417 135.943 415 135.93Z" fill="#EB996E"/>
<path d="M411.74 143.43C411.303 143.648 410.834 143.794 410.35 143.86C409.211 144.177 408.031 144.318 406.85 144.28C406.649 144.289 406.449 144.254 406.264 144.176C406.079 144.098 405.914 143.98 405.78 143.83C405.564 143.543 405.454 143.189 405.47 142.83C405.493 142.537 405.58 142.252 405.725 141.996C405.87 141.74 406.07 141.52 406.31 141.35C407.19 140.82 407.83 141.15 407.79 141.19C407.339 141.238 406.906 141.396 406.53 141.65C406.355 141.799 406.213 141.982 406.113 142.189C406.014 142.396 405.958 142.621 405.95 142.85C405.945 143.098 406.022 143.341 406.17 143.54C406.26 143.635 406.371 143.708 406.495 143.753C406.618 143.799 406.75 143.814 406.88 143.8C408.019 143.826 409.158 143.739 410.28 143.54C410.755 143.411 411.251 143.373 411.74 143.43Z" fill="#EB996E"/>
<path d="M264 199.07C263.713 199.292 263.396 199.473 263.06 199.61C262.174 200.023 261.254 200.358 260.31 200.61C257.166 201.528 253.85 201.693 250.63 201.09C247.415 200.484 244.393 199.112 241.82 197.09C241.047 196.486 240.328 195.817 239.67 195.09C239.415 194.832 239.193 194.543 239.01 194.23C239.09 194.16 240.07 195.35 242.01 196.81C244.588 198.71 247.556 200.011 250.7 200.62C253.845 201.211 257.081 201.105 260.18 200.31C262.57 199.7 263.94 199 264 199.07Z" fill="#81184E"/>
<path d="M241.27 162.09C241.27 162.09 272.91 151.97 274.09 151.65C275.27 151.33 303.18 153.82 303.18 153.82C303.18 153.82 302 172.31 309 178.3L288.47 185.7L282 203.51C282 203.51 278.39 210.77 281.26 217.58C286.69 230.47 296.11 250.81 294.72 253.14C294.57 253.38 293.72 246.14 280.33 242.3C276.27 241.15 268.9 241.13 262.23 242.48C233.53 248.26 222.45 261.48 219.23 263.79C219.23 263.79 225.14 217.42 222.35 210.18C219.56 202.94 216.6 198.18 218.9 191.77C221.2 185.36 224.65 175 224.65 175L213.34 162.2L229.14 135.93L243.6 147.93L241.27 162.09Z" fill="#81184E"/>
<path d="M251.79 205.05C251.428 205.097 251.062 205.097 250.7 205.05C249.707 205.01 248.72 204.883 247.75 204.67C244.52 203.968 241.54 202.403 239.13 200.14C236.728 197.863 235.036 194.938 234.26 191.72C234.03 190.736 233.896 189.731 233.86 188.72C233.829 188.359 233.849 187.995 233.92 187.64C234.077 188.966 234.311 190.281 234.62 191.58C235.478 194.684 237.161 197.497 239.49 199.72C241.845 201.914 244.718 203.476 247.84 204.26C250.24 205 251.79 205 251.79 205.05Z" fill="#263238"/>
<path d="M222.08 165.85C223.312 167.423 224.075 169.312 224.28 171.3C224.655 173.264 224.475 175.293 223.76 177.16C223.955 175.238 223.955 173.302 223.76 171.38C223.388 169.485 222.825 167.632 222.08 165.85Z" fill="#263238"/>
<path d="M289.23 171.33C289.23 171.41 288.58 171.86 287.62 172.79C286.378 173.993 285.376 175.422 284.67 177C283.969 178.576 283.588 180.276 283.55 182C283.55 183.33 283.68 184.15 283.55 184.17C283.266 183.483 283.126 182.744 283.14 182C283.065 180.203 283.408 178.413 284.14 176.77C284.865 175.125 285.948 173.663 287.31 172.49C287.865 171.978 288.518 171.583 289.23 171.33Z" fill="#263238"/>
<g opacity="0.3">
<path d="M247.09 204.36C244.038 203.754 241.262 202.183 239.17 199.88C237.75 198.516 236.589 196.907 235.74 195.13C235.02 198.27 239.39 203.84 243.65 205.89C245.809 206.897 248.173 207.386 250.555 207.32C252.936 207.254 255.27 206.634 257.37 205.51C253.913 205.473 250.469 205.088 247.09 204.36Z" fill="black"/>
</g>
<path d="M285.84 227.34C285.84 227.4 285.01 226.77 283.37 226.03C281.036 225.023 278.522 224.499 275.98 224.49C272.199 224.467 268.454 225.226 264.98 226.72C260.766 228.618 256.747 230.922 252.98 233.6C246.036 238.414 238.629 242.524 230.87 245.87C227.87 247.14 225.43 248.05 223.72 248.64C222.87 248.95 222.2 249.16 221.72 249.3C221.494 249.388 221.259 249.451 221.02 249.49C221.232 249.369 221.457 249.272 221.69 249.2L223.63 248.45C225.32 247.8 227.75 246.85 230.7 245.53C238.402 242.105 245.768 237.967 252.7 233.17C256.494 230.468 260.551 228.156 264.81 226.27C268.348 224.777 272.161 224.045 276 224.12C278.584 224.163 281.13 224.752 283.47 225.85C284.319 226.247 285.115 226.747 285.84 227.34Z" fill="white"/>
<path d="M280.12 210.76C279.519 210.226 278.885 209.732 278.22 209.28C276.354 208.136 274.235 207.47 272.05 207.34C268.805 207.186 265.568 207.782 262.59 209.08C258.928 210.67 255.353 212.453 251.88 214.42C248.374 216.368 244.758 218.111 241.05 219.64C237.996 220.864 234.807 221.717 231.55 222.18C229.356 222.487 227.133 222.524 224.93 222.29C224.332 222.225 223.738 222.128 223.15 222C222.941 221.97 222.737 221.917 222.54 221.84C222.54 221.79 223.4 221.96 224.95 222.09C227.137 222.24 229.333 222.149 231.5 221.82C234.713 221.306 237.857 220.427 240.87 219.2C244.547 217.66 248.139 215.924 251.63 214C255.123 212.027 258.722 210.248 262.41 208.67C265.46 207.372 268.771 206.803 272.08 207.01C274.313 207.173 276.466 207.911 278.33 209.15C279.015 209.579 279.621 210.124 280.12 210.76Z" fill="white"/>
<path d="M237.88 198.16C237.88 198.16 237.67 198.37 237.24 198.68C236.98 198.873 236.706 199.047 236.42 199.2C236.056 199.423 235.678 199.623 235.29 199.8C234.28 200.275 233.225 200.647 232.14 200.91C230.809 201.226 229.448 201.401 228.08 201.43C226.709 201.428 225.342 201.284 224 201C222.909 200.775 221.844 200.44 220.82 200C220.426 199.835 220.042 199.648 219.67 199.44C219.38 199.297 219.102 199.13 218.84 198.94C218.4 198.65 218.17 198.47 218.19 198.44C218.21 198.41 219.19 198.99 220.96 199.66C221.977 200.043 223.024 200.341 224.09 200.55C225.41 200.791 226.749 200.908 228.09 200.9C229.419 200.87 230.741 200.712 232.04 200.43C233.104 200.189 234.145 199.855 235.15 199.43C236.86 198.74 237.82 198.08 237.88 198.16Z" fill="white"/>
<path d="M284.89 195.65C284.775 195.78 284.644 195.894 284.5 195.99C284.103 196.289 283.682 196.553 283.24 196.78C281.611 197.627 279.83 198.14 278 198.29C275.294 198.504 272.572 198.253 269.95 197.55C266.95 196.83 263.84 195.66 260.49 194.71C254.745 193.113 248.732 192.725 242.83 193.57C241.039 193.825 239.266 194.189 237.52 194.66C236.29 194.99 235.61 195.2 235.6 195.16C235.59 195.12 235.75 195.07 236.07 194.95C236.39 194.83 236.85 194.65 237.47 194.47C239.203 193.92 240.975 193.499 242.77 193.21C248.725 192.244 254.82 192.585 260.63 194.21C264.01 195.21 267.13 196.35 270.06 197.08C272.632 197.796 275.305 198.08 277.97 197.92C279.763 197.804 281.52 197.356 283.15 196.6C284.3 196.05 284.86 195.6 284.89 195.65Z" fill="white"/>
<path d="M284.06 180.64C283.851 180.696 283.636 180.73 283.42 180.74C283 180.74 282.42 180.86 281.57 180.92C279.296 180.975 277.022 180.811 274.78 180.43C271.94 179.97 268.62 179.13 264.96 178.14C261.036 176.977 257.022 176.141 252.96 175.64C251.892 175.552 250.821 175.519 249.75 175.54C249.22 175.54 248.7 175.54 248.18 175.59L246.65 175.77C244.702 176.046 242.788 176.526 240.94 177.2C237.38 178.46 234.27 179.91 231.54 180.83C229.403 181.614 227.169 182.105 224.9 182.29C224.285 182.345 223.665 182.345 223.05 182.29C222.832 182.296 222.613 182.276 222.4 182.23C222.616 182.213 222.834 182.213 223.05 182.23C223.662 182.233 224.273 182.196 224.88 182.12C227.119 181.86 229.316 181.319 231.42 180.51C234.11 179.56 237.19 178.08 240.78 176.78C242.653 176.083 244.593 175.584 246.57 175.29L248.14 175.1C248.67 175.1 249.2 175.1 249.74 175.1C250.828 175.079 251.916 175.112 253 175.2C257.099 175.704 261.147 176.557 265.1 177.75C268.75 178.75 272.04 179.65 274.86 180.15C277.077 180.562 279.325 180.776 281.58 180.79L283.42 180.72C283.629 180.668 283.844 180.641 284.06 180.64Z" fill="white"/>
<path d="M294 153.81C294.09 153.86 293.07 155.32 292.11 157.97C290.853 161.428 290.509 165.151 291.11 168.78C291.763 172.398 293.317 175.792 295.63 178.65C297.41 180.84 298.84 181.9 298.77 181.98C298.41 181.78 298.074 181.538 297.77 181.26C296.898 180.539 296.092 179.743 295.36 178.88C292.913 176.029 291.27 172.577 290.6 168.88C289.98 165.178 290.374 161.377 291.74 157.88C292.154 156.837 292.659 155.834 293.25 154.88C293.457 154.495 293.709 154.136 294 153.81Z" fill="white"/>
<path d="M241.25 157C240.97 157.117 240.673 157.184 240.37 157.2C239.552 157.336 238.728 157.426 237.9 157.47C236.662 157.55 235.42 157.452 234.21 157.18C232.687 156.833 231.297 156.052 230.21 154.93C229.05 153.79 228.21 152.55 227.28 151.52C226.51 150.601 225.599 149.811 224.58 149.18C223.624 148.631 222.551 148.316 221.45 148.26C221.742 148.157 222.053 148.123 222.36 148.16C223.203 148.208 224.024 148.447 224.76 148.86C225.852 149.466 226.827 150.262 227.64 151.21C228.57 152.21 229.46 153.47 230.57 154.56C231.585 155.607 232.868 156.355 234.28 156.72C235.445 157.001 236.642 157.128 237.84 157.1C240 157 241.25 156.87 241.25 157Z" fill="white"/>
</g>


<path d="M239.24 461.52C239.1 461.52 238.98 451.04 238.98 438.11C238.98 425.18 239.1 414.7 239.24 414.7C239.38 414.7 239.5 425.18 239.5 438.11C239.5 451.04 239.39 461.52 239.24 461.52Z" fill="#263238"/>
<path d="M243.67 449.49C243.52 449.49 243.41 439.01 243.41 426.08C243.41 413.15 243.52 402.67 243.67 402.67C243.82 402.67 243.93 413.15 243.93 426.08C243.93 439.01 243.81 449.49 243.67 449.49Z" fill="#263238"/>
<path d="M450.32 477.13C450.32 477.27 360.62 477.39 250.01 477.39C139.4 477.39 49.68 477.27 49.68 477.13C49.68 476.99 139.36 476.87 250.01 476.87C360.66 476.87 450.32 477 450.32 477.13Z" fill="#263238"/>




<style>
.el1 {
    animation: an1 3s infinite;
     animation-delay:0.5s;
}

@keyframes an1 {
     0% {
       transform: translateY(0);
    }
    50% {
      transform: translateY(10px);
    }
    100% {
       transform: translateY(0);
    }
}
</style>


</svg>
