<svg width="580" height="580" viewBox="0 0 580 580" fill="none" xmlns="http://www.w3.org/2000/svg">
<path d="M561.892 533.484C561.892 533.646 439.628 533.786 288.852 533.786C138.075 533.786 15.7876 533.646 15.7876 533.484C15.7876 533.322 138.017 533.171 288.852 533.171C439.686 533.171 561.892 533.31 561.892 533.484Z" fill="#263238"/>



<g class="el1">
<path d="M48.6504 145.406L97.556 425.453L303.781 393.078L313.339 369.982L257.543 111.035L64.2408 122.566L48.6504 145.406Z" fill="#E0E0E0"/>
<path opacity="0.3" d="M97.556 425.453L112.207 403.007L63.3012 122.948L48.6504 145.406L97.556 425.453Z" fill="black"/>
<path d="M63.3012 122.948L112.207 403.007L313.339 369.982L262.52 94.5399L63.3012 122.948Z" fill="#FAFAFA"/>
<path d="M63.3012 122.96L262.485 94.308H262.728V94.54C276.985 171.46 294.64 266.8 313.641 369.924L313.699 370.237L313.386 370.295L310.068 370.84L112.253 403.32H111.975V403.042C83.2068 237.638 63.7304 125.419 63.3012 122.96C63.7304 125.431 83.4388 237.603 112.485 402.961L112.16 402.74L309.964 370.26L313.281 369.715L313.026 370.075C294.025 266.939 276.463 171.599 262.276 94.6212L262.554 94.8184L63.3012 122.96Z" fill="#263238"/>
<path d="M224.564 255.577C227.058 236.811 213.866 219.576 195.1 217.082C176.334 214.588 159.099 227.78 156.605 246.546C154.111 265.312 167.303 282.547 186.069 285.041C204.835 287.535 222.07 274.344 224.564 255.577Z" fill="#81184E"/>
<path d="M174.858 260.049L173.304 250.177L207.489 244.76L208.951 254.04C208.951 254.04 206.863 262.021 193.036 264.202C179.208 266.382 174.858 260.049 174.858 260.049Z" fill="white"/>
<path d="M167.91 250.235L192.305 254.573L213.463 242.672L189.034 238.809L167.91 250.235Z" fill="white"/>
<path d="M236.164 154.481L114.952 173.635C113.464 173.87 112.449 175.266 112.684 176.753L113.094 179.343C113.329 180.83 114.725 181.845 116.212 181.61L237.424 162.455C238.911 162.22 239.926 160.824 239.691 159.337L239.282 156.748C239.047 155.261 237.651 154.246 236.164 154.481Z" fill="#E0E0E0"/>
<path d="M216.987 174.643L140.117 186.791C138.63 187.026 137.615 188.422 137.85 189.909L138.259 192.498C138.494 193.985 139.89 195 141.377 194.765L218.248 182.618C219.735 182.383 220.75 180.987 220.515 179.5L220.105 176.91C219.87 175.423 218.474 174.408 216.987 174.643Z" fill="#E0E0E0"/>
<path d="M244.676 346.474L167.805 358.622C166.318 358.857 165.303 360.253 165.538 361.74L165.947 364.329C166.182 365.816 167.578 366.831 169.065 366.596L245.936 354.449C247.423 354.214 248.438 352.818 248.203 351.331L247.794 348.741C247.559 347.254 246.163 346.239 244.676 346.474Z" fill="#E0E0E0"/>
<path d="M302.98 377.766L302.006 377.951L299.129 378.45L288.005 380.306L246.697 387.08L107.149 409.758L106.848 409.816V409.515C104.899 398.437 102.846 386.837 100.758 375.016C89.5288 311.506 79.4136 254.04 72.094 212.408C68.4632 191.597 65.5284 174.766 63.4868 163.119C62.4892 157.319 61.712 152.784 61.1668 149.71C60.9116 148.178 60.7144 147.018 60.5752 146.23C60.436 145.441 60.4012 145.07 60.4012 145.07C60.4012 145.07 60.494 145.476 60.6448 146.23C60.7956 146.984 61.0044 148.19 61.2828 149.71C61.8396 152.784 62.6516 157.296 63.7072 163.096C65.7836 174.696 68.788 191.562 72.5 212.35C79.866 253.97 90.0508 311.437 101.291 374.935C103.379 386.744 105.421 398.356 107.381 409.434L107.022 409.178L246.616 386.698L287.947 380.109L299.083 378.357L301.971 377.916L302.98 377.766Z" fill="#263238"/>
<path d="M287.68 388.298L286.764 388.484L284.049 388.96L273.54 390.746L234.471 397.265L101.883 419.212H101.581V418.922L93.96 377.545C82.6036 314.905 72.326 258.239 64.8788 217.198C61.19 196.69 58.1972 180.078 56.1324 168.594C55.1232 162.864 54.3228 158.41 53.8124 155.37C53.5572 153.874 53.3484 152.726 53.2208 151.89C53.0932 151.055 53.0352 150.73 53.0352 150.73C53.0352 150.73 53.128 151.113 53.2788 151.89L53.94 155.37C54.4968 158.398 55.332 162.841 56.3992 168.56L65.3312 217.129C72.8248 258.17 83.172 314.836 94.598 377.441C97.1732 391.628 99.702 405.513 102.126 418.864L101.778 418.621L234.378 396.882L273.47 390.537L283.991 388.855L286.717 388.438L287.68 388.298Z" fill="#263238"/>
<path d="M68.1616 241.547L63.626 247.95L74.6344 313.942L81.1884 316.17L68.1616 241.547Z" fill="#263238"/>
<path d="M99.5728 236.051L68.1716 241.537L81.2079 316.155L112.609 310.669L99.5728 236.051Z" fill="#263238"/>
<path d="M100.574 233.158L98.5282 233.515C97.3606 233.718 96.5793 234.83 96.7831 235.998L109.974 311.578C110.178 312.745 111.289 313.526 112.457 313.323L114.502 312.966C115.67 312.762 116.451 311.65 116.247 310.483L103.057 234.903C102.853 233.735 101.741 232.954 100.574 233.158Z" fill="#263238"/>
<path d="M62.7328 295.533C59.2533 295.519 55.8964 294.246 53.2823 291.95C50.6681 289.654 48.9734 286.489 48.5112 283.04C48.1123 280.094 48.6362 277.096 50.0109 274.46C51.3856 271.823 53.5434 269.678 56.1876 268.318C58.8318 266.958 61.8323 266.452 64.7764 266.867C67.7204 267.283 70.4633 268.601 72.6276 270.64L92.2316 259.504C92.6068 259.291 93.0277 259.171 93.4587 259.155C93.8898 259.139 94.3184 259.227 94.7084 259.411C95.0985 259.595 95.4385 259.871 95.6999 260.214C95.9613 260.557 96.1364 260.958 96.2104 261.383L100.85 287.935C100.927 288.358 100.901 288.792 100.774 289.202C100.647 289.613 100.424 289.986 100.122 290.292C99.8211 290.598 99.4508 290.827 99.0425 290.96C98.6342 291.093 98.2 291.126 97.7764 291.056L75.6436 287.576C74.4454 289.974 72.6027 291.991 70.3223 293.401C68.0418 294.81 65.4138 295.557 62.7328 295.556V295.533ZM62.7328 269.074C62.1503 269.07 61.5685 269.113 60.9928 269.201C57.8721 269.708 55.0676 271.4 53.1637 273.924C51.2599 276.449 50.4035 279.61 50.7732 282.75C51.1246 285.376 52.3306 287.813 54.2049 289.685C56.0793 291.557 58.5178 292.761 61.1441 293.109C63.7703 293.457 66.4382 292.932 68.7359 291.613C71.0336 290.294 72.8333 288.256 73.8572 285.812L74.2052 284.977L98.1476 288.84C98.2044 288.852 98.2634 288.849 98.3185 288.83C98.3735 288.812 98.4227 288.779 98.4608 288.736C98.502 288.695 98.5329 288.646 98.5511 288.592C98.5692 288.537 98.5741 288.479 98.5652 288.422L93.9252 261.858C93.9141 261.8 93.8893 261.746 93.853 261.7C93.8167 261.653 93.7699 261.616 93.7164 261.592C93.6643 261.565 93.6067 261.551 93.5482 261.551C93.4897 261.551 93.4321 261.565 93.38 261.592L72.21 273.563L71.5836 272.902C70.4496 271.703 69.0825 270.75 67.5664 270.1C66.0503 269.449 64.4173 269.116 62.7676 269.12L62.7328 269.074Z" fill="#455A64"/>
<path d="M109.829 310.59C109.752 310.348 109.697 310.099 109.666 309.848C109.562 309.291 109.434 308.583 109.26 307.713C108.912 305.776 108.425 303.073 107.822 299.825C106.662 293.109 104.992 283.945 103.182 273.818C101.372 263.691 99.8296 254.504 98.6696 247.764C98.1244 244.493 97.6836 241.814 97.3704 239.865C97.2312 238.983 97.1268 238.264 97.0456 237.707C96.9913 237.46 96.9679 237.206 96.976 236.953C97.0549 237.192 97.1169 237.436 97.1616 237.684C97.2776 238.241 97.4284 238.948 97.6024 239.818C97.9736 241.756 98.484 244.458 99.0988 247.695C100.34 254.342 101.999 263.54 103.739 273.702C105.479 283.864 107.103 293.086 108.193 299.756C108.75 303.096 109.168 305.799 109.446 307.667C109.574 308.606 109.69 309.326 109.736 309.836C109.798 310.082 109.829 310.336 109.829 310.59Z" fill="#455A64"/>
<path d="M80.562 316.425C80.4932 316.177 80.439 315.925 80.3996 315.671C80.2952 315.126 80.1676 314.418 80.0052 313.536C79.6456 311.599 79.1584 308.896 78.5552 305.66C77.3952 298.932 75.7248 289.768 73.9152 279.641C72.1056 269.514 70.5744 260.327 69.4028 253.599C68.8576 250.316 68.4168 247.637 68.1036 245.7C67.9644 244.806 67.86 244.099 67.7788 243.542C67.7244 243.291 67.701 243.033 67.7092 242.776C67.7971 243.017 67.8631 243.266 67.9064 243.519C68.0108 244.076 68.1616 244.783 68.3356 245.653C68.7068 247.59 69.2172 250.293 69.832 253.518C71.0732 260.176 72.732 269.364 74.472 279.537C76.212 289.71 77.836 298.909 78.938 305.579C79.4832 308.92 79.9124 311.622 80.1792 313.502C80.3068 314.441 80.4228 315.16 80.4692 315.659C80.5311 315.91 80.5623 316.167 80.562 316.425Z" fill="#455A64"/>
<path d="M213.44 242.672C212.935 243.058 212.4 243.403 211.839 243.704L207.362 246.337C203.557 248.541 198.279 251.546 192.432 254.84L192.328 254.898H192.224H191.98C185.31 253.738 179.22 252.578 174.928 251.778L169.766 250.769C169.127 250.67 168.498 250.515 167.887 250.305C168.533 250.334 169.176 250.407 169.812 250.525L174.998 251.349C179.382 252.068 185.438 253.112 192.096 254.295H192.328H192.119C197.977 251.012 203.29 248.066 207.199 245.955L211.781 243.495C212.308 243.17 212.863 242.895 213.44 242.672Z" fill="#263238"/>
<path d="M143.484 153.984L142.15 145.727L138.894 146.254L138.583 144.335L147.451 142.901L147.761 144.82L144.505 145.347L145.839 153.604L143.484 153.984ZM155.696 141.569L158.051 141.188L159.696 151.364L157.341 151.745L155.696 141.569ZM152.718 152.492L150.363 152.873L148.718 142.697L151.073 142.316L152.718 152.492ZM156.841 147.545L151.869 148.348L151.547 146.357L156.519 145.553L156.841 147.545ZM163.288 144.549L168.187 143.757L168.483 145.589L163.584 146.38L163.288 144.549ZM164.139 148.707L169.677 147.812L169.983 149.702L162.104 150.975L160.459 140.799L168.149 139.556L168.455 141.446L163.105 142.311L164.139 148.707ZM175.228 149.033C174.414 149.165 173.617 149.184 172.836 149.092C172.054 148.989 171.407 148.8 170.895 148.525L171.408 146.622C171.894 146.862 172.449 147.036 173.073 147.144C173.706 147.241 174.327 147.24 174.938 147.141C175.403 147.066 175.769 146.962 176.036 146.829C176.311 146.685 176.503 146.52 176.612 146.333C176.721 146.147 176.758 145.947 176.724 145.733C176.68 145.462 176.539 145.266 176.301 145.145C176.061 145.015 175.759 144.93 175.394 144.889C175.028 144.839 174.625 144.805 174.184 144.786C173.752 144.757 173.311 144.709 172.863 144.642C172.424 144.574 172.013 144.461 171.63 144.304C171.247 144.147 170.915 143.913 170.636 143.6C170.366 143.285 170.188 142.857 170.1 142.314C170.006 141.732 170.076 141.179 170.309 140.654C170.551 140.118 170.964 139.658 171.548 139.275C172.141 138.881 172.917 138.607 173.876 138.452C174.516 138.348 175.158 138.324 175.804 138.379C176.447 138.424 177.031 138.558 177.555 138.782L177.117 140.688C176.598 140.493 176.091 140.371 175.596 140.322C175.099 140.263 174.623 140.27 174.167 140.344C173.712 140.418 173.347 140.531 173.074 140.685C172.8 140.838 172.614 141.013 172.517 141.207C172.417 141.392 172.386 141.596 172.422 141.819C172.464 142.081 172.605 142.277 172.845 142.407C173.083 142.528 173.385 142.608 173.749 142.649C174.114 142.69 174.512 142.725 174.945 142.754C175.387 142.782 175.826 142.825 176.263 142.884C176.71 142.941 177.125 143.048 177.509 143.205C177.892 143.362 178.218 143.597 178.488 143.912C178.767 144.225 178.95 144.648 179.036 145.181C179.129 145.753 179.053 146.302 178.81 146.828C178.567 147.355 178.149 147.815 177.557 148.209C176.974 148.602 176.198 148.876 175.228 149.033ZM181.127 147.901L179.482 137.725L181.837 137.344L183.482 147.52L181.127 147.901ZM189.269 146.764C188.455 146.896 187.657 146.915 186.877 146.822C186.094 146.72 185.447 146.531 184.935 146.256L185.448 144.353C185.935 144.593 186.49 144.767 187.114 144.875C187.746 144.971 188.367 144.97 188.978 144.872C189.443 144.797 189.809 144.693 190.076 144.56C190.351 144.416 190.543 144.251 190.652 144.064C190.761 143.877 190.799 143.677 190.764 143.464C190.72 143.193 190.579 142.997 190.341 142.876C190.101 142.746 189.799 142.661 189.435 142.62C189.068 142.57 188.665 142.536 188.225 142.517C187.792 142.488 187.352 142.44 186.903 142.373C186.465 142.304 186.054 142.192 185.67 142.035C185.287 141.878 184.956 141.643 184.676 141.33C184.407 141.016 184.228 140.587 184.14 140.045C184.046 139.463 184.116 138.91 184.35 138.385C184.591 137.849 185.004 137.389 185.589 137.006C186.181 136.612 186.957 136.338 187.917 136.183C188.556 136.079 189.199 136.055 189.844 136.11C190.488 136.155 191.072 136.289 191.595 136.513L191.157 138.418C190.638 138.224 190.131 138.102 189.636 138.053C189.139 137.994 188.663 138.001 188.208 138.075C187.752 138.148 187.388 138.262 187.114 138.416C186.841 138.569 186.655 138.743 186.557 138.938C186.458 139.123 186.426 139.327 186.462 139.55C186.504 139.812 186.645 140.008 186.885 140.138C187.124 140.259 187.425 140.339 187.79 140.38C188.154 140.42 188.553 140.455 188.985 140.485C189.427 140.513 189.867 140.556 190.304 140.615C190.751 140.672 191.166 140.779 191.549 140.936C191.932 141.093 192.259 141.328 192.528 141.643C192.808 141.956 192.99 142.379 193.077 142.912C193.169 143.483 193.094 144.033 192.851 144.559C192.608 145.086 192.19 145.546 191.597 145.94C191.014 146.333 190.238 146.607 189.269 146.764Z" fill="#263238"/>
</g>


<path d="M231.049 377.916H329.95V429.815H231.049C225.619 429.815 220.411 427.658 216.572 423.818C212.732 419.978 210.575 414.771 210.575 409.341V398.379C210.575 392.949 212.732 387.741 216.572 383.901C220.411 380.062 225.619 377.905 231.049 377.905V377.916Z" fill="#81184E"/>
<path d="M304.094 377.917H512.72C513.621 377.917 514.486 378.275 515.123 378.912C515.761 379.549 516.119 380.414 516.119 381.315V383.137C516.119 384.038 515.761 384.902 515.123 385.54C514.486 386.177 513.621 386.535 512.72 386.535H304.094V377.917Z" fill="#81184E"/>
<path d="M304.094 421.208H512.72C513.166 421.208 513.608 421.295 514.021 421.466C514.433 421.637 514.808 421.887 515.123 422.203C515.439 422.519 515.689 422.893 515.86 423.306C516.031 423.718 516.119 424.16 516.119 424.606V426.428C516.119 427.329 515.761 428.193 515.123 428.831C514.486 429.468 513.621 429.826 512.72 429.826H304.094V421.208Z" fill="#81184E"/>
<path d="M509.774 421.208H327.758C325.481 421.208 323.227 420.759 321.123 419.887C319.02 419.016 317.109 417.738 315.499 416.128C313.89 414.517 312.614 412.605 311.743 410.501C310.873 408.397 310.426 406.142 310.428 403.866C310.428 399.269 312.253 394.861 315.504 391.611C318.754 388.361 323.162 386.535 327.758 386.535H509.774C507.362 391.997 506.117 397.901 506.117 403.871C506.117 409.842 507.362 415.746 509.774 421.208Z" fill="#F5F5F5"/>
<path opacity="0.3" d="M310.428 429.827H231.455C225.917 429.827 220.606 427.627 216.69 423.711C212.775 419.795 210.575 414.484 210.575 408.947V398.634C210.575 393.139 212.758 387.87 216.643 383.985C220.528 380.099 225.798 377.917 231.292 377.917H312.388C293.608 389.308 295.011 416.568 310.428 429.827Z" fill="black"/>
<path d="M487.664 405.478C487.664 405.652 450.3 405.791 404.225 405.791C358.15 405.791 320.786 405.652 320.786 405.478C320.786 405.304 358.138 405.165 404.225 405.165C450.312 405.165 487.664 405.304 487.664 405.478Z" fill="#263238"/>
<path d="M504.832 413.181C504.832 413.355 467.468 413.494 421.393 413.494C375.318 413.494 337.954 413.355 337.954 413.181C337.954 413.007 375.306 412.879 421.393 412.879C467.48 412.879 504.832 413.018 504.832 413.181Z" fill="#263238"/>
<path d="M499.774 394.551C499.774 394.725 462.411 394.864 416.336 394.864C370.26 394.864 332.885 394.725 332.885 394.551C332.885 394.377 370.237 394.238 416.336 394.238C462.434 394.238 499.774 394.4 499.774 394.551Z" fill="#263238"/>
<path d="M301.287 426.184C301.287 426.358 283.794 426.497 262.23 426.497C240.665 426.497 223.172 426.358 223.172 426.184C223.172 426.01 240.654 425.871 262.23 425.871C283.806 425.871 301.287 426.01 301.287 426.184Z" fill="#263238"/>
<path d="M301.287 382.232C301.287 382.406 283.794 382.545 262.23 382.545C240.665 382.545 223.172 382.406 223.172 382.232C223.172 382.058 240.654 381.918 262.23 381.918C283.806 381.918 301.287 382.058 301.287 382.232Z" fill="#263238"/>
<path d="M187.386 466.25H320.659V533.09H187.386C181.956 533.09 176.749 530.933 172.909 527.093C169.069 523.253 166.912 518.046 166.912 512.616V486.724C166.912 481.294 169.069 476.087 172.909 472.247C176.749 468.408 181.956 466.25 187.386 466.25Z" fill="#81184E"/>
<path d="M287.355 466.25H556.974C557.875 466.25 558.74 466.609 559.377 467.246C560.015 467.883 560.373 468.748 560.373 469.649V473.953C560.373 474.854 560.015 475.719 559.377 476.356C558.74 476.994 557.875 477.352 556.974 477.352H287.355V466.25Z" fill="#81184E"/>
<path d="M287.355 522H556.974C557.875 522 558.74 522.358 559.377 522.995C560.015 523.633 560.373 524.497 560.373 525.399V529.702C560.373 530.604 560.015 531.468 559.377 532.106C558.74 532.743 557.875 533.101 556.974 533.101H287.355V522Z" fill="#81184E"/>
<path d="M552.23 522H317.84C311.92 521.997 306.243 519.643 302.058 515.456C297.873 511.268 295.522 505.59 295.522 499.67C295.522 496.739 296.099 493.837 297.22 491.129C298.342 488.421 299.986 485.961 302.059 483.888C304.131 481.816 306.591 480.172 309.299 479.05C312.007 477.929 314.909 477.352 317.84 477.352H552.23C549.12 484.383 547.514 491.987 547.514 499.676C547.514 507.364 549.12 514.968 552.23 522Z" fill="#F5F5F5"/>
<path opacity="0.3" d="M295.498 533.09H187.12C184.467 533.09 181.839 532.567 179.388 531.551C176.937 530.536 174.711 529.047 172.835 527.17C170.96 525.294 169.472 523.066 168.458 520.615C167.444 518.163 166.922 515.536 166.924 512.882V487.2C166.924 481.662 169.124 476.351 173.04 472.436C176.955 468.52 182.266 466.32 187.804 466.32H298.004C273.841 480.913 275.651 516.026 295.498 533.09Z" fill="black"/>
<path d="M523.752 501.746C523.752 501.92 475.635 502.06 416.301 502.06C356.967 502.06 308.838 501.92 308.838 501.746C308.838 501.572 356.944 501.433 416.301 501.433C475.658 501.433 523.752 501.572 523.752 501.746Z" fill="#263238"/>
<path d="M545.873 511.664C545.873 511.838 497.756 511.978 438.41 511.978C379.065 511.978 330.948 511.838 330.948 511.664C330.948 511.49 379.053 511.363 438.41 511.363C497.768 511.363 545.873 511.56 545.873 511.664Z" fill="#263238"/>
<path d="M539.4 492.536C539.4 492.71 491.295 492.849 431.949 492.849C372.604 492.849 324.487 492.71 324.487 492.536C324.487 492.362 372.592 492.223 431.949 492.223C491.306 492.223 539.4 492.362 539.4 492.536Z" fill="#263238"/>
<path d="M283.724 528.403C283.724 528.577 261.209 528.716 233.427 528.716C205.645 528.716 183.129 528.577 183.129 528.403C183.129 528.229 205.645 528.102 233.427 528.102C261.209 528.102 283.724 528.241 283.724 528.403Z" fill="#263238"/>
<path d="M283.724 471.807C283.724 471.969 261.209 472.108 233.427 472.108C205.645 472.108 183.129 471.969 183.129 471.807C183.129 471.644 205.645 471.494 233.427 471.494C261.209 471.494 283.724 471.633 283.724 471.807Z" fill="#263238"/>
<path d="M250.769 428.226H360.574V466.506H250.769C246.769 466.506 242.934 464.917 240.106 462.089C237.278 459.261 235.689 455.425 235.689 451.426V443.306C235.689 439.306 237.278 435.47 240.106 432.642C242.934 429.814 246.769 428.226 250.769 428.226Z" fill="#455A64"/>
<path d="M333.523 428.226H551.789C552.733 428.226 553.639 428.601 554.307 429.269C554.975 429.936 555.35 430.842 555.35 431.787V433.689C555.35 434.634 554.975 435.539 554.307 436.207C553.639 436.875 552.733 437.25 551.789 437.25H333.523V428.237V428.226Z" fill="#455A64"/>
<path d="M333.523 457.481H551.789C552.733 457.481 553.639 457.856 554.307 458.524C554.975 459.192 555.35 460.097 555.35 461.042V462.944C555.35 463.889 554.975 464.795 554.307 465.462C553.639 466.13 552.733 466.506 551.789 466.506H333.523V457.492V457.481Z" fill="#455A64"/>
<path d="M548.68 457.481H350.32C347.636 457.481 345.062 456.415 343.163 454.519C341.265 452.622 340.196 450.049 340.193 447.366C340.193 444.68 341.26 442.104 343.159 440.205C345.058 438.306 347.634 437.239 350.32 437.239H548.68C543.607 443.99 543.607 450.737 548.68 457.481Z" fill="#F5F5F5"/>
<path opacity="0.3" d="M340.135 466.494H250.815C248.82 466.494 246.845 466.101 245.002 465.337C243.159 464.573 241.484 463.454 240.074 462.042C238.664 460.631 237.546 458.956 236.783 457.112C236.021 455.269 235.629 453.293 235.631 451.298V443.735C235.629 441.699 236.029 439.682 236.807 437.801C237.585 435.919 238.727 434.209 240.166 432.769C241.605 431.329 243.314 430.186 245.195 429.406C247.076 428.627 249.092 428.226 251.128 428.226H342.2C322.538 436.624 324.011 456.727 340.135 466.494Z" fill="black"/>
<path d="M525.584 445.765C525.584 445.939 486.492 446.078 438.283 446.078C390.073 446.078 350.981 445.939 350.981 445.765C350.981 445.591 390.062 445.463 438.283 445.463C486.504 445.463 525.584 445.602 525.584 445.765Z" fill="#263238"/>
<path d="M543.553 451.24C543.553 451.414 504.461 451.553 456.251 451.553C408.042 451.553 368.95 451.414 368.95 451.24C368.95 451.066 408.03 450.927 456.251 450.927C504.472 450.927 543.553 451.043 543.553 451.24Z" fill="#263238"/>
<path d="M330.6 462.689C330.6 462.863 312.307 463.002 289.733 463.002C267.16 463.002 248.866 462.863 248.866 462.689C248.866 462.515 267.16 462.376 289.733 462.376C312.307 462.376 330.6 462.515 330.6 462.689Z" fill="#263238"/>
<path d="M330.6 432.738C330.6 432.912 312.307 433.04 289.733 433.04C267.16 433.04 248.866 432.912 248.866 432.738C248.866 432.564 267.16 432.425 289.733 432.425C312.307 432.425 330.6 432.564 330.6 432.738Z" fill="#263238"/>
<path d="M552.74 428.226C552.74 428.4 485.611 428.539 402.833 428.539C320.056 428.539 252.88 428.4 252.88 428.226C252.88 428.052 319.986 427.912 402.798 427.912C485.611 427.912 552.74 428.04 552.74 428.226Z" fill="#263238"/>
<path d="M432.367 393.982V414.77L439.57 410.153L447.598 414.77V393.982H432.367Z" fill="#81184E"/>
<path d="M505.574 187.653L469.301 217.871L414.132 326.865L448.526 342.409L502.187 235.515L505.574 187.653Z" fill="#81184E"/>
<g opacity="0.7">
<path d="M502.187 235.48C501.767 235.584 501.328 235.589 500.906 235.496C500.483 235.402 500.088 235.212 499.751 234.94C499.414 234.668 499.144 234.322 498.963 233.929C498.782 233.535 498.695 233.106 498.707 232.673C497.563 234.005 496.03 234.945 494.324 235.36C492.618 235.775 490.824 235.646 489.196 234.989C487.567 234.332 486.185 233.181 485.245 231.698C484.304 230.216 483.852 228.475 483.952 226.722C482.423 227.545 480.703 227.947 478.968 227.886C477.233 227.825 475.546 227.304 474.078 226.376C472.611 225.449 471.417 224.147 470.618 222.606C469.819 221.064 469.445 219.338 469.533 217.604L505.493 187.618L502.187 235.48Z" fill="white"/>
</g>
<path d="M490.982 199.81C490.982 199.81 491.538 208.835 504.182 207.257L505.574 187.653L490.982 199.81Z" fill="#81184E"/>
<path opacity="0.3" d="M483.998 226.757L430.812 333.813L414.132 326.853L469.301 217.813L469.58 217.581C469.497 219.035 469.751 220.488 470.322 221.827C471.084 223.585 472.321 225.096 473.895 226.188C475.827 227.508 478.172 228.081 480.495 227.801C481.717 227.669 482.904 227.315 483.998 226.757Z" fill="black"/>
<path opacity="0.3" d="M498.8 232.708L444.164 340.414L448.572 342.409L502.187 235.48C501.46 235.612 500.709 235.469 500.081 235.079C499.453 234.689 498.992 234.079 498.788 233.369C498.771 233.148 498.775 232.927 498.8 232.708Z" fill="black"/>
<path d="M483.72 216.363C483.606 216.496 483.541 216.664 483.534 216.839C483.536 217.092 483.632 217.336 483.804 217.522C483.975 217.709 484.21 217.825 484.462 217.848C485.285 217.884 486.098 217.657 486.782 217.198C487.215 216.944 487.559 216.564 487.768 216.108C487.884 215.861 487.935 215.589 487.916 215.317C487.898 215.045 487.811 214.783 487.664 214.554C487.473 214.316 487.233 214.122 486.961 213.984C486.689 213.846 486.391 213.767 486.086 213.753C485.415 213.694 484.739 213.734 484.08 213.869C482.603 214.115 481.193 214.664 479.938 215.482C479.603 215.688 479.316 215.963 479.096 216.289C478.876 216.615 478.728 216.984 478.662 217.372C478.645 217.778 478.728 218.182 478.904 218.549C479.08 218.915 479.344 219.232 479.672 219.472C480.434 219.91 481.276 220.191 482.149 220.299C483.021 220.406 483.907 220.338 484.752 220.098C486.431 219.745 487.98 218.937 489.23 217.763C490.48 216.589 491.383 215.093 491.84 213.44C491.918 213.074 491.911 212.696 491.818 212.333C491.725 211.971 491.55 211.635 491.306 211.352C490.814 210.825 490.201 210.427 489.52 210.192C488.295 209.743 487.007 209.485 485.704 209.426C483.803 209.326 481.901 209.61 480.112 210.262C479.486 210.494 478.952 210.714 478.686 210.865C478.419 211.016 478.198 211.097 478.198 211.097C478.791 210.721 479.421 210.406 480.078 210.157C481.871 209.471 483.785 209.159 485.704 209.241C487.033 209.286 488.348 209.536 489.601 209.983C490.318 210.23 490.963 210.648 491.48 211.201C491.753 211.515 491.95 211.888 492.055 212.29C492.159 212.693 492.169 213.114 492.084 213.521C491.484 215.674 490.159 217.554 488.333 218.841C486.506 220.129 484.29 220.745 482.061 220.586C481.148 220.538 480.267 220.233 479.521 219.704C479.148 219.446 478.846 219.098 478.643 218.693C478.44 218.287 478.343 217.837 478.361 217.384C478.432 216.96 478.594 216.557 478.834 216.201C479.074 215.845 479.387 215.544 479.753 215.319C481.039 214.485 482.485 213.928 483.998 213.684C484.683 213.555 485.382 213.524 486.075 213.591C486.404 213.611 486.726 213.7 487.018 213.854C487.31 214.008 487.566 214.223 487.768 214.484C487.929 214.74 488.023 215.033 488.041 215.335C488.059 215.637 488.001 215.938 487.873 216.212C487.648 216.698 487.28 217.103 486.817 217.372C486.111 217.827 485.277 218.043 484.439 217.987C484.167 217.961 483.916 217.832 483.735 217.628C483.554 217.423 483.458 217.158 483.465 216.885C483.523 216.456 483.72 216.352 483.72 216.363Z" fill="white"/>
<path d="M503.185 215.76C503.185 215.76 502.651 215.679 501.7 215.76C500.345 215.849 499.021 216.204 497.802 216.804C496.01 217.723 494.329 218.844 492.791 220.145C490.919 221.792 488.787 223.117 486.481 224.066C484.103 224.883 481.536 224.98 479.103 224.344C477.122 223.821 475.301 222.817 473.802 221.421C472.786 220.457 471.943 219.328 471.308 218.08C471.067 217.643 470.865 217.185 470.705 216.711C470.771 216.819 470.829 216.931 470.879 217.048C470.983 217.28 471.157 217.616 471.389 218.034C472.069 219.206 472.926 220.267 473.93 221.177C475.418 222.532 477.213 223.503 479.161 224.008C481.552 224.609 484.067 224.504 486.4 223.706C488.676 222.771 490.784 221.47 492.64 219.855C494.194 218.548 495.9 217.434 497.721 216.537C498.96 215.936 500.312 215.6 501.688 215.551C502.194 215.557 502.697 215.627 503.185 215.76Z" fill="white"/>
<path d="M502.976 226.629C502.311 225.955 501.426 225.543 500.482 225.469C498.19 225.449 495.908 225.785 493.719 226.467C491.501 227.065 489.342 227.865 487.27 228.856C486.469 229.239 485.843 229.576 485.402 229.796C485.186 229.934 484.956 230.05 484.718 230.144C484.92 229.986 485.133 229.843 485.356 229.715C485.773 229.46 486.4 229.088 487.188 228.694C489.249 227.641 491.414 226.809 493.65 226.212C494.878 225.875 496.125 225.612 497.385 225.423C498.414 225.235 499.464 225.192 500.505 225.295C501.216 225.371 501.891 225.644 502.454 226.084C502.653 226.24 502.829 226.423 502.976 226.629Z" fill="white"/>
<path d="M487.919 234.32C488.272 233.953 488.66 233.623 489.079 233.334C490.113 232.575 491.301 232.052 492.559 231.803C493.189 231.674 493.84 231.688 494.464 231.842C495.088 231.997 495.67 232.289 496.167 232.696C496.463 232.947 496.71 233.25 496.898 233.589C496.967 233.711 497.015 233.845 497.037 233.984C496.769 233.549 496.436 233.158 496.051 232.824C495.56 232.454 494.995 232.193 494.395 232.059C493.795 231.925 493.173 231.921 492.571 232.046C491.362 232.301 490.216 232.789 489.195 233.485C488.786 233.788 488.36 234.067 487.919 234.32Z" fill="white"/>
<path d="M504.136 209.206C504.084 209.263 504.026 209.314 503.962 209.357C503.846 209.438 503.672 209.566 503.428 209.717C503.146 209.916 502.826 210.058 502.489 210.134C502.032 210.215 501.564 210.187 501.12 210.053C500.134 209.833 499.032 209.334 497.791 208.893C496.445 208.436 495.064 208.091 493.661 207.861C491.092 207.488 488.497 207.313 485.901 207.339H483.581C483.292 207.368 483 207.368 482.711 207.339L483.581 207.269L485.901 207.188C488.508 207.106 491.116 207.257 493.696 207.64C495.118 207.865 496.516 208.222 497.872 208.707C499.125 209.148 500.192 209.659 501.166 209.867C501.53 209.999 501.918 210.045 502.302 210.003C502.687 209.961 503.056 209.831 503.382 209.624C503.626 209.472 503.878 209.333 504.136 209.206Z" fill="white"/>
<path d="M542.578 307.713V402.729C542.601 402.911 542.69 403.079 542.828 403.201C542.965 403.322 543.143 403.389 543.327 403.389C543.51 403.389 543.688 403.322 543.826 403.201C543.963 403.079 544.052 402.911 544.075 402.729V307.713C544.052 307.531 543.963 307.363 543.826 307.241C543.688 307.12 543.51 307.052 543.327 307.052C543.143 307.052 542.965 307.12 542.828 307.241C542.69 307.363 542.601 307.531 542.578 307.713Z" fill="#81184E"/>
<path d="M548.68 381.791C548.68 382.851 548.366 383.887 547.777 384.768C547.188 385.65 546.351 386.336 545.372 386.742C544.392 387.148 543.315 387.254 542.275 387.047C541.236 386.84 540.281 386.33 539.531 385.58C538.782 384.831 538.271 383.876 538.065 382.836C537.858 381.797 537.964 380.719 538.37 379.74C538.775 378.761 539.462 377.924 540.343 377.335C541.225 376.746 542.261 376.432 543.321 376.432C544.742 376.432 546.105 376.996 547.11 378.001C548.115 379.006 548.68 380.369 548.68 381.791Z" fill="#81184E"/>
<path d="M541.836 384.563C541.836 384.563 537.927 388.472 536.755 399.921C535.584 411.371 535.328 417.089 535.328 417.089L545.861 417.739V409.549C545.861 409.932 547.949 415.663 547.949 415.663L556.278 412.925C556.278 412.925 553.32 382.487 541.836 384.563Z" fill="#81184E"/>
<path d="M487.049 315.485H308.177V379.97H487.049V315.485Z" fill="#263238"/>
<path d="M549.875 304.396H243.925V315.497H549.875V304.396Z" fill="#263238"/>
<path opacity="0.3" d="M308.177 361.676C308.177 361.676 362.512 342.188 397.613 334.996C432.715 327.804 487.049 330.194 487.049 330.194V315.52H308.177V361.676Z" fill="black"/>
<path opacity="0.3" d="M354.589 304.396H243.925V315.497H354.589V304.396Z" fill="black"/>
<path d="M547.659 315.52C547.659 315.694 479.625 315.833 395.699 315.833C311.773 315.833 243.739 315.694 243.739 315.52C243.739 315.346 311.75 315.218 395.699 315.218C479.648 315.218 547.659 315.323 547.659 315.52Z" fill="#455A64"/>
<path d="M354.415 315.578C353.997 311.831 353.997 308.05 354.415 304.303C354.817 308.05 354.817 311.83 354.415 315.578Z" fill="#455A64"/>
<path d="M379.923 379.981C379.761 379.981 379.622 367.395 379.622 351.874C379.622 336.353 379.761 323.779 379.923 323.779C380.086 323.779 380.236 336.353 380.236 351.874C380.236 367.395 380.097 379.981 379.923 379.981Z" fill="#455A64"/>
<path d="M121.162 459.174L141.729 450.869L157.435 409.84L178.373 420.628C178.373 420.628 176.355 424.676 172.028 434.71C170.346 438.573 164.813 449.372 162.562 454.627C160.48 459.486 157.049 463.646 152.677 466.616C148.305 469.587 143.173 471.243 137.889 471.389L118.587 471.888L121.162 459.174Z" fill="#FFBF9D"/>
<path d="M110.942 451.24L107.88 447.969C107.285 447.579 106.585 447.38 105.873 447.401L96.0364 447.702C95.1181 447.791 94.2315 448.085 93.4423 448.563C92.6531 449.041 91.9816 449.69 91.4776 450.463L87.8932 456.553C87.8932 456.553 85.492 460.717 85.7936 461.738C85.9279 462.162 86.2144 462.521 86.5979 462.746C86.9814 462.971 87.4346 463.046 87.87 462.956C87.87 462.956 88.218 464.882 88.856 465.276C89.2253 465.462 89.6285 465.571 90.0412 465.597C90.4539 465.623 90.8675 465.565 91.2572 465.427C91.4264 465.792 91.7017 466.098 92.0472 466.305C92.3927 466.512 92.7924 466.61 93.1944 466.587C93.3669 466.571 93.5377 466.54 93.7048 466.494C94.8648 466.135 95.3984 463.873 95.3984 463.873L100.386 462.956C100.386 462.956 107.555 467.747 110.084 470.879C112.613 474.011 119.225 471.621 119.225 471.621L121.696 459.789L110.942 451.24Z" fill="#FFBF9D"/>
<path d="M103.692 452.644C102.993 452.86 102.267 452.981 101.535 453.003C100.178 453.154 98.2636 453.212 96.0944 453.49L96.3264 453.316C95.9535 454.118 95.5272 454.893 95.0504 455.636C93.7404 457.715 92.1475 459.6 90.3176 461.239C89.5987 461.961 88.7635 462.558 87.8468 463.002C87.8468 462.921 88.7168 462.225 90.016 460.914C91.722 459.219 93.2353 457.34 94.5284 455.312C95.004 454.534 95.4332 453.769 95.7928 452.992L95.8624 452.841H96.0248C98.2404 452.597 100.154 452.62 101.512 452.574C102.239 452.522 102.97 452.545 103.692 452.644Z" fill="#FF9A6C"/>
<path d="M103.913 457.342C103.332 457.625 102.702 457.79 102.057 457.829C100.455 458.05 98.8264 457.995 97.2428 457.666L97.6024 457.469C97.3937 458.077 97.1537 458.673 96.8832 459.256C95.9863 461.106 94.7281 462.759 93.1828 464.116C92.5795 464.714 91.8614 465.184 91.0716 465.496C91.6441 464.896 92.2481 464.327 92.8812 463.791C94.3112 462.4 95.4887 460.771 96.3612 458.977C96.6295 458.423 96.8657 457.854 97.0688 457.272L97.1616 457.017H97.4168C99.5576 457.417 101.743 457.526 103.913 457.342Z" fill="#FF9A6C"/>
<path d="M116.418 459.766L107.636 455.683C106.458 455.027 105.153 454.631 103.808 454.523C102.371 454.649 100.983 455.114 99.76 455.88L95.0272 458.316C94.772 458.455 94.4936 458.618 94.4124 458.885C94.3312 459.151 94.5516 459.615 94.8184 459.882C96.0401 461.038 97.6389 461.712 99.3192 461.781C101 461.849 102.648 461.306 103.959 460.253C104.6 462.344 105.601 464.307 106.917 466.053C107.59 466.929 108.477 467.616 109.493 468.049C110.509 468.482 111.62 468.645 112.717 468.524" fill="#FFBF9D"/>
<path d="M112.694 468.64C112.621 468.676 112.543 468.7 112.462 468.71C112.227 468.768 111.985 468.799 111.743 468.803C110.821 468.806 109.913 468.583 109.098 468.153C107.836 467.493 106.765 466.518 105.989 465.323C105.027 463.788 104.248 462.144 103.669 460.427L104.11 460.532C103.405 461.124 102.591 461.57 101.712 461.844C100.834 462.119 99.9106 462.217 98.9944 462.133C97.9983 462.064 97.027 461.792 96.1408 461.332C95.687 461.092 95.2627 460.8 94.8764 460.462C94.6671 460.289 94.4766 460.095 94.308 459.882C94.1987 459.75 94.1201 459.595 94.078 459.428C94.0358 459.262 94.0312 459.088 94.0644 458.919C94.1021 458.781 94.168 458.652 94.2578 458.54C94.3476 458.428 94.4595 458.336 94.5864 458.27C94.7952 458.142 94.9692 458.061 95.1548 457.957L96.2452 457.4L98.3912 456.24C99.7243 455.459 101.146 454.84 102.625 454.395C104.046 454.14 105.511 454.364 106.79 455.033C107.95 455.567 109.11 456.101 110.038 456.576L114.678 458.896C115.261 459.159 115.823 459.465 116.36 459.813C115.746 459.631 115.148 459.398 114.573 459.117L109.817 457.017L106.546 455.555C105.367 454.951 104.019 454.759 102.718 455.01C101.291 455.456 99.9204 456.068 98.6348 456.831L96.5004 457.991L95.41 458.56C95.0388 458.745 94.6444 458.931 94.6212 459.117C94.598 459.302 94.888 459.755 95.2476 460.045C95.6018 460.352 95.9911 460.617 96.4076 460.833C97.2189 461.254 98.1066 461.506 99.0176 461.576C100.712 461.741 102.404 461.232 103.727 460.161L104.029 459.905L104.156 460.277C104.697 461.965 105.425 463.587 106.326 465.114C107.036 466.272 108.025 467.233 109.202 467.909C110.273 468.481 111.484 468.735 112.694 468.64Z" fill="#FF9A6C"/>
<path d="M230.608 344.833C230.689 338.244 231.768 331.679 231.466 325.113C231.165 318.548 229.483 311.669 224.889 306.948C220.296 302.226 212.28 300.44 206.944 304.21L205.784 309.824C207.895 335.228 207.617 361.039 209.728 386.443C210.006 389.783 212.709 392.811 214.229 395.792C215.748 398.773 218.799 401.244 222.14 401.035C226.513 400.768 229.378 396.337 230.736 392.161C235.724 377.07 230.411 360.76 230.608 344.833Z" fill="#263238"/>
<path d="M214.762 310.671C213.883 308.997 212.752 307.468 211.41 306.136C210.733 305.473 209.915 304.972 209.017 304.671C208.119 304.37 207.164 304.276 206.225 304.396C205.782 304.451 205.361 304.618 205.002 304.882C204.642 305.146 204.356 305.498 204.172 305.904C203.882 306.739 204.508 307.864 205.39 307.783L205.575 307.945C207.547 309.693 209.554 311.398 211.596 313.061C212.083 313.515 212.654 313.87 213.278 314.105C213.591 314.219 213.93 314.243 214.257 314.173C214.583 314.103 214.883 313.943 215.122 313.71C215.853 312.898 215.319 311.611 214.762 310.671Z" fill="#81184E"/>
<path d="M218.486 317.144C211.92 309.117 203.104 304.488 192.734 304.384C186.934 304.28 184.463 305.544 180.252 306.634C176.036 307.652 172.309 310.115 169.72 313.594C166.738 317.828 164.233 322.573 163.664 327.735C162.921 333.009 162.669 338.341 162.91 343.662C163.154 349.008 164.872 354.184 167.875 358.614L181.378 360.934C188.836 361.189 196.4 361.433 203.673 359.774C210.946 358.115 217.999 354.16 221.885 347.791C227.29 338.882 225.04 325.16 218.486 317.144Z" fill="#263238"/>
<path d="M206.48 317.051L188.477 309.894L183.767 310.439C173.188 310.439 165.88 322.155 165.81 330.716C165.741 340.251 166.019 351.874 167.527 358.892C170.578 373.01 182.607 374.181 182.607 374.181C182.607 374.181 182.364 381.71 182.271 386.442L209.844 384.459L211.224 321.888C211.183 320.635 210.672 319.442 209.794 318.547C208.915 317.651 207.733 317.117 206.48 317.051Z" fill="#FFBF9D"/>
<path d="M188.697 355.586C188.586 354.865 188.215 354.209 187.653 353.742C187.143 353.302 186.501 353.042 185.829 353.002C185.156 352.963 184.489 353.145 183.93 353.522C183.349 353.969 182.899 354.562 182.623 355.241C182.348 355.92 182.259 356.659 182.364 357.384C182.674 357.82 183.073 358.183 183.535 358.451C183.997 358.72 184.512 358.886 185.043 358.939C185.209 358.95 185.376 358.95 185.542 358.939C186.403 358.957 187.236 358.636 187.862 358.046C188.177 357.725 188.416 357.337 188.56 356.911C188.705 356.486 188.752 356.033 188.697 355.586Z" fill="#FF9A6C"/>
<path d="M170.578 342.769C170.596 343.245 170.801 343.696 171.148 344.024C171.495 344.351 171.957 344.53 172.434 344.52C172.667 344.525 172.9 344.483 173.117 344.397C173.334 344.311 173.532 344.183 173.699 344.02C173.866 343.857 174 343.663 174.091 343.448C174.183 343.233 174.231 343.002 174.232 342.769C174.208 342.292 174 341.843 173.652 341.516C173.303 341.189 172.842 341.01 172.364 341.017C172.131 341.012 171.9 341.054 171.683 341.14C171.467 341.226 171.27 341.354 171.103 341.518C170.937 341.681 170.805 341.875 170.715 342.09C170.624 342.305 170.578 342.536 170.578 342.769Z" fill="#263238"/>
<path d="M169.035 335.484C169.267 335.704 170.601 334.614 172.515 334.509C174.429 334.405 175.995 335.31 176.181 335.054C176.366 334.799 176.018 334.521 175.369 334.103C174.486 333.561 173.456 333.306 172.422 333.373C171.401 333.423 170.422 333.797 169.627 334.44C169.093 334.938 168.908 335.379 169.035 335.484Z" fill="#263238"/>
<path d="M181.656 350.9C180.604 350.624 179.519 350.487 178.431 350.494C177.932 350.494 177.445 350.401 177.341 350.053C177.278 349.54 177.367 349.02 177.596 348.557C178.002 347.316 178.431 346.016 178.872 344.648C180.635 339.103 181.888 334.544 181.656 334.474C181.424 334.405 179.823 338.848 178.06 344.404L176.9 348.325C176.614 348.947 176.561 349.65 176.749 350.308C176.829 350.481 176.949 350.633 177.098 350.752C177.247 350.871 177.421 350.953 177.608 350.993C177.889 351.053 178.178 351.077 178.466 351.062C179.532 351.134 180.603 351.08 181.656 350.9Z" fill="#263238"/>
<path d="M182.584 374.17C189.295 373.904 195.801 371.78 201.376 368.033C201.376 368.033 196.84 378.183 182.514 377.638L182.584 374.17Z" fill="#FF9A6C"/>
<path d="M187.514 351.933C187.201 351.933 187.305 354.067 185.565 355.679C183.825 357.292 181.54 357.187 181.54 357.489C181.54 357.791 182.074 357.872 183.025 357.849C184.279 357.799 185.476 357.306 186.4 356.457C187.286 355.645 187.822 354.523 187.897 353.325C187.92 352.431 187.665 351.921 187.514 351.933Z" fill="#263238"/>
<path d="M169.696 328.605C170.056 329.057 171.541 328.663 173.304 328.709C175.067 328.756 176.552 329.139 176.923 328.709C177.086 328.489 176.865 328.037 176.227 327.549C175.365 326.989 174.356 326.694 173.327 326.703C172.298 326.675 171.283 326.945 170.404 327.48C169.766 327.921 169.546 328.373 169.696 328.605Z" fill="#263238"/>
<path d="M192.026 342.281C192.036 342.758 191.86 343.219 191.535 343.568C191.21 343.916 190.762 344.125 190.286 344.149C190.054 344.171 189.82 344.147 189.598 344.078C189.375 344.008 189.169 343.895 188.991 343.745C188.812 343.595 188.666 343.411 188.56 343.203C188.454 342.996 188.39 342.769 188.372 342.537C188.362 342.061 188.537 341.6 188.859 341.25C189.181 340.899 189.626 340.687 190.101 340.657C190.334 340.635 190.57 340.66 190.794 340.73C191.018 340.8 191.225 340.914 191.405 341.065C191.584 341.216 191.732 341.402 191.838 341.61C191.945 341.819 192.009 342.047 192.026 342.281Z" fill="#263238"/>
<path d="M195.622 334.718C195.402 334.962 193.998 333.964 192.026 333.999C190.054 334.034 188.639 335.054 188.419 334.811C188.198 334.567 188.535 334.277 189.161 333.802C189.999 333.197 191.005 332.869 192.038 332.862C193.061 332.839 194.065 333.144 194.903 333.732C195.518 334.184 195.738 334.614 195.622 334.718Z" fill="#263238"/>
<path d="M194.439 328.431C194.068 328.883 192.537 328.431 190.716 328.431C188.894 328.431 187.34 328.791 186.98 328.327C186.818 328.106 187.062 327.654 187.723 327.167C188.64 326.63 189.688 326.36 190.75 326.389C191.805 326.377 192.841 326.671 193.732 327.236C194.393 327.747 194.613 328.211 194.439 328.431Z" fill="#263238"/>
<path d="M208.8 345.808C208.8 344.752 209.832 342.188 210.876 341.968C213.649 341.376 218.695 341.318 219.136 348.418C219.739 358.127 209.856 356.723 209.856 356.445C209.856 356.166 208.974 349.473 208.8 345.808Z" fill="#FFBF9D"/>
<path d="M212.28 352.733C212.28 352.733 212.454 352.849 212.744 352.953C213.153 353.12 213.611 353.12 214.02 352.953C215.018 352.512 215.783 350.83 215.725 349.079C215.697 348.246 215.483 347.429 215.099 346.689C214.99 346.39 214.809 346.123 214.572 345.91C214.336 345.698 214.05 345.547 213.742 345.471C213.545 345.432 213.342 345.463 213.166 345.559C212.99 345.654 212.853 345.808 212.779 345.993C212.663 346.272 212.779 346.469 212.686 346.48C212.593 346.492 212.466 346.33 212.524 345.924C212.562 345.68 212.685 345.458 212.872 345.297C212.996 345.187 213.141 345.104 213.299 345.052C213.456 345 213.623 344.981 213.788 344.996C214.192 345.044 214.577 345.199 214.902 345.443C215.228 345.687 215.484 346.013 215.644 346.388C216.107 347.203 216.366 348.118 216.398 349.056C216.456 351.016 215.563 352.907 214.194 353.394C213.938 353.487 213.665 353.521 213.394 353.495C213.123 353.469 212.861 353.383 212.628 353.243C212.28 352.976 212.28 352.756 212.28 352.733Z" fill="#FF9A6C"/>
<path d="M211.248 341.991L208.8 344.52C198.151 334.324 177.341 308.804 178.512 310.323C183.366 308.519 188.596 307.965 193.72 308.711C201.643 310.057 216.653 314.024 216.421 323.362C216.189 332.7 211.248 341.991 211.248 341.991Z" fill="#263238"/>
<path d="M225.353 339.88C225.322 339.69 225.271 339.503 225.202 339.323C225.026 338.795 224.804 338.283 224.541 337.792C223.536 335.995 222.15 334.439 220.481 333.233C218.02 331.466 215.274 330.136 212.361 329.301C209.113 328.245 205.459 327.422 201.863 325.821C198.472 324.408 195.257 322.606 192.282 320.45C189.848 318.688 187.581 316.708 185.507 314.534C184.116 313.064 182.811 311.515 181.598 309.894L180.624 308.549C180.515 308.386 180.391 308.235 180.252 308.096C180.334 308.275 180.431 308.445 180.542 308.607C180.74 308.931 181.03 309.407 181.436 309.999C182.597 311.677 183.872 313.274 185.252 314.778C189.831 319.756 195.435 323.682 201.678 326.285C205.133 327.595 208.652 328.729 212.222 329.684C215.122 330.474 217.867 331.749 220.342 333.454C221.993 334.614 223.387 336.103 224.437 337.827C225.04 339.091 225.295 339.88 225.353 339.88Z" fill="#455A64"/>
<path d="M222.523 341.376C222.554 340.65 222.428 339.926 222.152 339.254C221.419 337.398 220.146 335.806 218.498 334.683C216.031 333.094 213.269 332.017 210.378 331.516C206.917 330.823 203.545 329.749 200.32 328.315C197.11 326.85 194.094 324.991 191.342 322.782C189.103 320.969 187.045 318.945 185.194 316.738C183.933 315.241 182.771 313.664 181.714 312.017L180.89 310.66C180.805 310.496 180.7 310.344 180.577 310.207C180.642 310.379 180.719 310.546 180.809 310.706L181.552 312.121C182.539 313.812 183.648 315.428 184.869 316.958C186.698 319.224 188.754 321.296 191.006 323.141C193.774 325.395 196.818 327.285 200.065 328.767C203.318 330.219 206.728 331.289 210.227 331.957C213.066 332.43 215.785 333.455 218.231 334.973C219.848 336.038 221.121 337.549 221.896 339.323C222.168 339.987 222.377 340.674 222.523 341.376Z" fill="#455A64"/>
<path d="M210.923 358.44C210.923 358.371 211.746 358.266 213.185 357.883C215.202 357.301 217.058 356.266 218.614 354.856C220.892 352.723 222.623 350.073 223.66 347.13C224.984 343.543 225.698 339.759 225.771 335.936C225.815 333.961 225.655 331.986 225.295 330.043C224.322 325.157 222.027 320.631 218.66 316.959C216.68 314.856 214.497 312.956 212.141 311.286C212.141 311.286 212.338 311.356 212.686 311.565C213.034 311.773 213.533 312.052 214.148 312.493C215.91 313.701 217.535 315.098 218.996 316.657C221.184 318.968 222.954 321.64 224.228 324.557C224.966 326.286 225.53 328.085 225.91 329.927C226.283 331.912 226.45 333.929 226.409 335.948C226.339 339.843 225.597 343.696 224.216 347.339C223.118 350.351 221.298 353.048 218.915 355.192C217.289 356.607 215.348 357.613 213.254 358.127C212.685 358.256 212.107 358.349 211.526 358.405C211.326 358.433 211.124 358.444 210.923 358.44Z" fill="#455A64"/>
<path d="M223.277 477.816L165.88 486.156C144.316 492.258 121.603 494.044 97.8576 491.956L184.243 532.254L218.927 532.788C218.927 532.788 229.483 532.788 231.327 523.578C233.172 514.367 235.225 486.318 235.225 486.318C235.225 486.318 228.369 480.379 223.277 477.816Z" fill="#263238"/>
<g opacity="0.3">
<path d="M223.103 501.979C224.052 507.727 224.394 513.559 224.124 519.379C225.887 517.443 227.185 515.131 227.921 512.619C228.657 510.106 228.81 507.459 228.369 504.879C227.87 502.048 226.687 498.928 228.172 496.457C229.17 494.798 231.803 492.896 231.42 491.005C231.42 491.005 229.1 491.005 227.024 490.924C225.342 490.854 221.85 490.75 221.85 490.75C223.352 494.358 223.677 498.349 222.778 502.153" fill="black"/>
</g>
<path d="M182.364 384.076L210.25 381.06L215.354 385.7L195.448 397.416L186.667 401.963L177.99 399.33L175.241 394.156L182.364 384.076Z" fill="#FFBF9D"/>
<path d="M144.768 418.029C144.768 418.029 153.514 401.256 155.672 397.59C159.361 391.338 166.251 387.8 166.251 387.8L182.364 384.076C182.364 384.076 180.693 392.196 190.716 392.707C203.476 393.414 211.398 381.188 211.398 381.188C211.398 381.188 225.945 382.684 229.958 384.366C233.972 386.048 245.34 390.816 247.01 405.919L250.908 430.592L220.168 432.912L220.586 465.763L207.524 476.447C207.524 476.447 170.021 489.358 167.62 490.205C166.46 490.611 166.762 474.672 164.082 461.007L159.024 448.723C156.977 443.816 155.766 438.602 155.44 433.295C155.243 429.815 155.336 427.147 155.336 427.147C155.336 427.147 147.448 424.444 144.768 418.029Z" fill="#455A64"/>
<path d="M168.989 477.329L220.528 461.866L220.168 432.935L246.407 430.94C246.407 430.94 244.319 445.927 244.006 453.607C243.565 464.661 238.206 480.113 234.726 483.384C231.246 486.655 167.655 490.228 167.655 490.228L168.989 477.329Z" fill="#FFBF9D"/>
<path d="M139.757 486.423C140.005 486.848 140.4 487.169 140.868 487.324C141.335 487.48 141.843 487.461 142.297 487.27C143.457 486.806 143.144 484.462 143.144 484.462L148.631 483.117C148.631 483.117 156.206 487.223 159.071 490.077C161.936 492.93 168.235 489.949 168.235 489.949L169.546 477.92L158.607 469.464C158.607 469.464 159.28 469.974 158.433 468.304C157.586 466.633 154.431 467.538 154.431 467.538C153.874 466.714 151.751 466.575 151.751 466.575L142.854 468.304C141.951 468.479 141.099 468.855 140.36 469.403C139.622 469.951 139.015 470.657 138.585 471.47L135.256 477.769C135.256 477.769 133.586 482.247 133.992 483.233C134.167 483.641 134.485 483.97 134.888 484.159C135.29 484.347 135.747 484.381 136.172 484.254C136.172 484.254 136.834 487.061 137.588 487.096C138.349 487.001 139.086 486.761 139.757 486.388V486.423Z" fill="#FFBF9D"/>
<path d="M158.189 476.447C158.189 476.54 157.029 476.516 155.08 476.748C152.599 477.065 150.172 477.716 147.865 478.686C146.599 479.227 145.377 479.867 144.211 480.6C143.179 481.284 142.088 481.876 141.798 482.699C141.736 482.876 141.72 483.066 141.753 483.251C141.785 483.436 141.865 483.61 141.984 483.755C142.167 483.996 142.417 484.177 142.703 484.277C143.19 484.428 143.48 484.277 143.504 484.277C143.527 484.277 143.237 484.544 142.645 484.439C142.295 484.361 141.978 484.174 141.74 483.906C141.57 483.722 141.45 483.497 141.393 483.253C141.336 483.009 141.344 482.754 141.416 482.514C141.614 481.973 141.969 481.504 142.436 481.168C142.9 480.808 143.388 480.449 143.933 480.089C147.256 477.913 151.074 476.608 155.034 476.296C156.087 476.176 157.153 476.226 158.189 476.447Z" fill="#FF9A6C"/>
<path d="M159.268 482.119C159.268 482.282 155.602 482.421 151.148 483.024C146.694 483.627 143.121 484.463 143.028 484.3C143.764 483.946 144.544 483.692 145.348 483.546C147.228 483.073 149.133 482.709 151.055 482.456C152.978 482.195 154.915 482.044 156.855 482.003C157.661 481.932 158.473 481.971 159.268 482.119Z" fill="#FF9A6C"/>
<path d="M139.792 486.191C139.697 485.885 139.635 485.57 139.606 485.251C139.486 484.378 139.417 483.499 139.397 482.618C139.387 482.005 139.426 481.392 139.513 480.785C139.621 480.071 139.869 479.385 140.244 478.767C141.016 477.337 142.065 476.075 143.33 475.055C144.581 474.032 145.971 473.192 147.459 472.561C148.692 472.103 149.979 471.803 151.287 471.668C152.447 471.54 153.282 471.505 153.909 471.471C154.228 471.424 154.552 471.424 154.872 471.471C153.724 471.733 152.562 471.927 151.392 472.051C150.129 472.236 148.892 472.563 147.703 473.025C146.276 473.662 144.941 474.489 143.736 475.484C142.533 476.451 141.519 477.631 140.743 478.964C140.124 480.063 139.815 481.31 139.85 482.572C139.757 484.811 139.919 486.191 139.792 486.191Z" fill="#FF9A6C"/>
<path d="M151.496 468.919C151.496 469.011 150.162 469.151 148.016 469.557C145.87 469.963 142.68 470.438 141.056 473.431C139.398 475.701 138.06 478.187 137.077 480.82C136.771 481.939 136.573 483.085 136.486 484.242C136.377 483.938 136.334 483.614 136.358 483.291C136.337 482.417 136.446 481.546 136.683 480.704C137.566 477.979 138.882 475.413 140.58 473.106C141.032 472.407 141.574 471.772 142.193 471.215C142.79 470.703 143.479 470.31 144.223 470.055C145.443 469.633 146.702 469.333 147.981 469.162C149.138 468.934 150.319 468.853 151.496 468.919Z" fill="#FF9A6C"/>
<path d="M156.913 488.36C156.712 488.255 156.522 488.13 156.345 487.989L154.756 486.91C152.753 485.591 150.677 484.387 148.538 483.303H148.666L143.19 484.683L143.364 484.428C143.417 484.883 143.417 485.342 143.364 485.797C143.33 486.298 143.149 486.778 142.842 487.177C142.652 487.377 142.405 487.515 142.135 487.571C141.885 487.658 141.621 487.694 141.358 487.676C140.813 487.637 140.299 487.407 139.908 487.026C139.813 486.927 139.723 486.823 139.641 486.713V486.632L139.966 486.725L139.792 486.806C139.566 486.924 139.334 487.029 139.096 487.119C138.853 487.214 138.605 487.295 138.353 487.363C138.221 487.402 138.085 487.429 137.947 487.444C137.771 487.473 137.591 487.453 137.425 487.386C137.16 487.218 136.951 486.976 136.822 486.69C136.693 486.45 136.581 486.202 136.486 485.947C136.291 485.445 136.132 484.929 136.01 484.405L136.346 484.602C135.977 484.715 135.583 484.724 135.208 484.628C134.834 484.532 134.493 484.334 134.224 484.057C133.944 483.76 133.779 483.373 133.76 482.966C133.759 482.6 133.794 482.235 133.864 481.876C134.174 480.479 134.585 479.107 135.094 477.769L136.868 474.405L138.028 472.283C138.372 471.549 138.792 470.853 139.281 470.206C139.813 469.585 140.464 469.076 141.195 468.71C141.909 468.382 142.667 468.163 143.446 468.06L151.821 466.448H151.89C152.405 466.487 152.915 466.58 153.41 466.726C153.936 466.842 154.411 467.123 154.767 467.527L154.442 467.457C154.884 467.212 155.379 467.078 155.884 467.066C156.389 467.054 156.889 467.164 157.342 467.387C158.126 467.882 158.697 468.652 158.943 469.545L158.862 469.441L166.402 475.241L168.432 476.841C168.677 477.019 168.905 477.217 169.116 477.433C168.85 477.295 168.597 477.132 168.362 476.946L166.263 475.426L158.607 469.789H158.549V469.707C158.333 468.93 157.832 468.263 157.145 467.84C156.763 467.656 156.341 467.567 155.917 467.582C155.493 467.596 155.079 467.712 154.709 467.921L154.512 468.014L154.384 467.851C154.089 467.546 153.71 467.336 153.294 467.248C152.832 467.12 152.357 467.039 151.879 467.005H151.948L143.573 468.652C142.842 468.747 142.13 468.954 141.462 469.267C140.804 469.593 140.219 470.051 139.745 470.612C139.288 471.23 138.899 471.895 138.585 472.596L137.425 474.719C136.81 475.879 136.265 477.039 135.65 478.083C135.172 479.392 134.784 480.733 134.49 482.096C134.424 482.413 134.389 482.735 134.386 483.059C134.401 483.337 134.517 483.601 134.711 483.801C134.91 484.001 135.16 484.143 135.434 484.213C135.707 484.282 135.995 484.276 136.265 484.196L136.544 484.126V484.393C136.671 484.892 136.822 485.402 136.996 485.878C137.123 486.313 137.354 486.711 137.669 487.038C137.744 487.06 137.825 487.06 137.901 487.038L138.237 486.968C138.472 486.916 138.701 486.842 138.922 486.748C139.142 486.667 139.362 486.562 139.583 486.458L139.745 486.388L140.082 486.481V486.539C140.145 486.629 140.215 486.714 140.29 486.794C140.507 487.025 140.784 487.189 141.09 487.267C141.397 487.345 141.719 487.334 142.019 487.235C142.204 487.203 142.374 487.114 142.506 486.98C142.915 486.28 143.067 485.459 142.935 484.66V484.451H143.121L148.619 483.152H148.689C150.827 484.265 152.885 485.524 154.848 486.922C155.533 487.421 156.008 487.815 156.391 488.082C156.572 488.162 156.746 488.255 156.913 488.36Z" fill="#FF9A6C"/>
<path d="M130.117 495.807C130.117 495.807 93.7512 484.381 82.3368 480.727C62.6168 474.347 49.7872 480.797 45.7272 487.826C40.4608 496.956 53.0932 514.762 57.9652 518.856C72.384 530.978 97.1036 532.614 97.1036 532.614L185.983 532.452L160.08 497.211L130.117 495.807Z" fill="#263238"/>
<path d="M135.569 512.303C120.759 514.026 105.752 511.984 91.9416 506.363C89.5854 505.298 87.1592 504.395 84.68 503.661C82.2291 503.043 79.6884 502.862 77.1748 503.127C76.1772 503.152 75.1949 503.378 74.2862 503.791C73.3775 504.203 72.561 504.794 71.8852 505.528C70.1104 507.848 71.0152 511.189 72.0012 513.95C73.1612 517.198 74.3212 520.515 76.6412 523.114C79.2744 526.141 83.1024 527.881 86.942 529.088C94.4472 531.408 102.37 532.139 110.235 532.44L137.24 530.967L135.569 512.303Z" fill="#E0E0E0"/>
<path d="M83.4156 503.672C83.593 503.89 83.7305 504.137 83.8216 504.403C84.1353 505.095 84.3763 505.818 84.5408 506.561C85.1239 509.029 85.0214 511.61 84.2446 514.024C83.4677 516.439 82.0459 518.595 80.1328 520.26C79.5633 520.759 78.9498 521.206 78.3 521.594C77.8244 521.861 77.5576 521.977 77.5344 521.942C77.5112 521.907 78.5088 521.269 79.8544 519.958C81.6198 518.27 82.936 516.168 83.6834 513.843C84.4309 511.517 84.586 509.042 84.1348 506.642C83.81 504.786 83.3228 503.707 83.4156 503.672Z" fill="#263238"/>
<path d="M222.94 493.58C220.829 487.595 220.481 478.802 207.454 474.579C194.428 470.357 184.591 478.454 177.898 481.261C171.204 484.068 134.63 504.136 134.63 504.136C134.63 504.136 127.739 516.421 129.7 521.849C131.66 527.278 140.569 532.637 140.569 532.637H181.482C192.038 532.637 211.642 532.278 211.642 532.278C214.267 527.975 216.618 523.512 218.683 518.915L219.031 517.151C219.066 515.748 225.04 499.566 222.94 493.58Z" fill="#263238"/>
<path d="M200.274 524.656C200.221 524.864 200.117 525.055 199.972 525.213C199.576 525.673 199.124 526.082 198.627 526.431C196.8 527.691 194.858 528.774 192.827 529.668C191.439 530.315 190.014 530.876 188.558 531.35C186.873 531.88 185.146 532.268 183.396 532.51C179.403 532.907 175.39 533.062 171.378 532.974C162.876 533.113 155.138 533.438 149.57 533.368C146.775 533.368 144.513 533.24 142.958 533.078C142.359 533.025 141.762 532.94 141.172 532.823C140.963 532.798 140.757 532.751 140.557 532.684C140.557 532.626 141.416 532.776 142.97 532.858C144.524 532.939 146.786 532.997 149.57 532.974C155.15 532.974 162.852 532.544 171.378 532.405C175.37 532.492 179.363 532.352 183.338 531.988C185.057 531.777 186.756 531.428 188.419 530.944C189.865 530.497 191.283 529.963 192.664 529.343C194.682 528.494 196.622 527.474 198.464 526.292C198.965 525.957 199.428 525.568 199.845 525.132C200.17 524.854 200.239 524.645 200.274 524.656Z" fill="#263238"/>
<path d="M140.569 532.637L140.024 532.347C139.676 532.15 139.165 531.825 138.504 531.396C136.58 530.141 134.778 528.707 133.122 527.116C131.922 525.965 130.898 524.644 130.082 523.195C129.249 521.38 129.037 519.342 129.479 517.395C130.474 512.731 132.142 508.238 134.432 504.055V503.997C141.137 500.308 148.828 496.121 157.226 491.608C161.426 489.358 165.799 487.026 170.346 484.648C172.666 483.488 174.986 482.328 177.306 481.168C179.626 480.008 182.004 478.848 184.405 477.595C187.723 475.778 191.28 474.438 194.973 473.617C196.786 473.255 198.634 473.087 200.483 473.118C202.292 473.172 204.09 473.429 205.842 473.883C209.239 474.72 212.429 476.244 215.215 478.361C216.51 479.434 217.657 480.674 218.625 482.05C219.516 483.405 220.251 484.857 220.818 486.377C221.398 487.861 221.804 489.358 222.221 490.819C222.7 492.239 223.087 493.688 223.381 495.158C223.564 497.965 223.329 500.783 222.685 503.521C222.163 506.131 221.525 508.567 220.864 510.829C220.539 511.989 220.214 513.068 219.913 514.124C219.611 515.179 219.263 516.223 219.101 517.151C218.962 517.813 218.857 518.311 218.741 518.903C217.624 522.487 216.045 525.911 214.043 529.088C213.334 530.224 212.497 531.274 211.549 532.22L211.7 532.011C211.828 531.86 211.99 531.675 212.187 531.419C212.802 530.646 213.375 529.841 213.904 529.007C215.836 525.811 217.36 522.385 218.44 518.81C219.101 518.253 218.973 517.708 218.776 517.047C218.979 515.989 219.242 514.943 219.565 513.915L220.504 510.632C221.131 508.312 221.757 505.923 222.268 503.336C222.885 500.641 223.104 497.87 222.917 495.111C222.612 493.671 222.225 492.25 221.757 490.854C221.328 489.393 220.91 487.908 220.342 486.458C219.788 484.974 219.068 483.557 218.196 482.235C217.255 480.905 216.139 479.707 214.878 478.674C210.707 475.547 205.681 473.767 200.471 473.57C198.664 473.54 196.859 473.708 195.089 474.069C191.44 474.878 187.925 476.203 184.649 478.001C182.329 479.161 180.009 480.553 177.515 481.586C175.021 482.618 172.875 483.848 170.555 485.066C166.019 487.386 161.634 489.706 157.435 492.026L134.606 504.333L134.688 504.241C132.404 508.375 130.728 512.817 129.711 517.43C129.254 519.311 129.437 521.291 130.233 523.056C131.014 524.492 132.007 525.802 133.18 526.942C134.806 528.546 136.573 530.001 138.458 531.292L139.942 532.289C140.36 532.51 140.569 532.637 140.569 532.637Z" fill="#263238"/>
<path d="M207.153 517.453C207.153 517.453 219.344 518.915 218.266 524.877C217.187 530.839 213.196 532.846 213.196 532.846L180.067 532.916C180.067 532.916 199.845 531.547 207.153 517.453Z" fill="#E0E0E0"/>
<path d="M208.336 514.564C208.333 515.145 208.207 515.719 207.965 516.246C207.516 517.58 206.85 518.831 205.993 519.947C204.837 521.574 203.221 522.818 201.353 523.52C202.891 522.365 204.303 521.051 205.564 519.599C206.627 518.001 207.555 516.317 208.336 514.564Z" fill="#263238"/>
<path d="M204.16 516.896C204.18 518.392 203.778 519.864 203 521.142C202.405 522.497 201.494 523.69 200.344 524.622C200.216 524.517 201.411 522.975 202.49 520.852C203.568 518.729 203.951 516.873 204.16 516.896Z" fill="#263238"/>
<path d="M219.658 531.187C219.565 531.187 220.354 529.633 221.305 527.069C223.802 520.375 224.626 513.171 223.706 506.085C223.346 503.382 222.929 501.723 223.022 501.7C223.205 502.067 223.338 502.457 223.416 502.86C223.703 503.91 223.931 504.975 224.1 506.05C225.261 513.198 224.426 520.528 221.688 527.232C221.274 528.22 220.805 529.184 220.284 530.12C220.118 530.5 219.908 530.858 219.658 531.187Z" fill="#455A64"/>
<g opacity="0.3">
<path d="M212.767 514.24C212.674 513.439 212.361 512.488 211.607 512.326C210.633 512.128 209.972 513.242 209.589 514.147C205.32 523.856 191.528 531.431 180.96 532.44C186.085 532.429 191.202 532.01 196.26 531.187C200.575 530.541 204.619 528.692 207.93 525.851C209.576 524.419 210.869 522.626 211.708 520.612C212.547 518.598 212.91 516.417 212.767 514.24Z" fill="black"/>
</g>
<path d="M132.054 501.027C130.034 500.46 128.07 499.711 126.185 498.789C124.226 498.046 122.338 497.126 120.547 496.039C122.565 496.61 124.529 497.355 126.417 498.267C128.377 499.012 130.264 499.937 132.054 501.027Z" fill="#263238"/>
<g opacity="0.2">
<path d="M143.84 495.9C128.064 492.884 112.23 490.205 96.338 487.861L84.506 491.597C87.8236 497.768 94.3776 501.7 101.187 503.324C107.996 504.948 115.107 504.565 122.067 503.927C129.746 503.22 137.634 502.141 144.316 498.29C144.826 498 145.406 497.559 145.336 496.967C145.267 496.376 144.524 496.028 143.84 495.9Z" fill="black"/>
</g>
<path d="M66.1896 448.92L86.072 492.884C86.4742 493.78 87.1253 494.542 87.9478 495.079C88.7704 495.615 89.7298 495.904 90.712 495.912L148.712 496.666L156.02 492.733L144.571 491.898L126.753 449.14C126.476 448.475 126.009 447.906 125.411 447.504C124.813 447.102 124.11 446.884 123.389 446.878L67.8368 446.461C67.5405 446.45 67.2463 446.515 66.9822 446.65C66.7181 446.785 66.4928 446.985 66.3278 447.231C66.1628 447.478 66.0635 447.762 66.0393 448.058C66.0151 448.353 66.0668 448.65 66.1896 448.92Z" fill="#E0E0E0"/>
<path d="M66.1896 448.92C66.0947 448.756 66.0355 448.575 66.0156 448.386C65.9789 448.108 66.0092 447.825 66.1041 447.561C66.1989 447.296 66.3555 447.058 66.5608 446.867C66.8779 446.573 67.2888 446.4 67.7208 446.38H72.8132L96.0712 446.461L112.242 446.542L121.278 446.6H123.598C124.457 446.662 125.272 447.004 125.918 447.574C126.54 448.158 127 448.894 127.252 449.709L128.203 452.029C133.272 464.174 138.875 477.607 144.814 491.805L144.536 491.608L155.591 492.42H155.985L157.145 492.501L156.159 493.035L148.851 496.967H148.77H148.689L104.725 496.364L94.9112 496.225C93.3104 496.225 91.7792 496.225 90.19 496.132C89.3963 496.038 88.6327 495.772 87.9533 495.351C87.2738 494.93 86.695 494.365 86.2576 493.696C83.6708 488.256 81.5132 483.256 79.4136 478.616L69.6928 456.878C68.5328 454.337 67.6976 452.354 67.0944 450.973C66.8044 450.324 66.5956 449.813 66.4332 449.442C66.2708 449.071 66.2244 448.908 66.2244 448.908C66.3235 449.073 66.4126 449.244 66.4912 449.419L67.2104 450.927C67.8368 452.284 68.7416 454.256 69.9132 456.727L79.8196 478.396C81.9192 482.954 84.1696 488.082 86.6984 493.371C87.092 493.975 87.6146 494.483 88.2284 494.86C88.8421 495.237 89.5319 495.474 90.248 495.552C91.7328 495.622 93.3452 495.61 94.888 495.633L104.702 495.749L148.666 496.283H148.503L155.811 492.339L155.95 492.954H155.556L144.501 492.153H144.304L144.223 491.979C138.318 477.758 132.727 464.325 127.67 452.168L126.73 449.906C126.523 449.168 126.123 448.499 125.57 447.969C125.018 447.471 124.316 447.173 123.575 447.122H121.255L112.218 447.041L96.0596 446.878L72.7784 446.6H69.136H67.6976C67.4678 446.609 67.2422 446.664 67.0345 446.762C66.8267 446.861 66.6412 447.001 66.4893 447.173C66.3373 447.346 66.2221 447.548 66.1507 447.766C66.0792 447.985 66.053 448.215 66.0736 448.444C66.1035 448.605 66.1422 448.764 66.1896 448.92Z" fill="#263238"/>
<path d="M142.819 496.584C142.711 496.433 142.621 496.27 142.552 496.097L141.891 494.682C141.311 493.36 140.522 491.573 139.571 489.416C137.634 484.95 135.001 478.778 132.17 471.911C129.34 465.044 126.834 458.815 125.106 454.279C124.236 451.959 123.552 450.161 123.111 448.874C122.902 448.282 122.74 447.795 122.6 447.389C122.535 447.216 122.489 447.037 122.461 446.855C122.567 447.006 122.653 447.169 122.716 447.342L123.32 448.792C123.865 450.138 124.596 451.936 125.477 454.128C127.356 458.699 129.897 464.87 132.692 471.702C135.488 478.535 138.063 484.683 139.942 489.253L142.112 494.589C142.332 495.181 142.518 495.656 142.668 496.051C142.749 496.219 142.8 496.399 142.819 496.584Z" fill="#263238"/>
<path d="M106.859 470.229C106.861 470.795 106.696 471.348 106.383 471.819C106.07 472.29 105.625 472.658 105.103 472.875C104.581 473.092 104.006 473.15 103.452 473.04C102.897 472.93 102.388 472.658 101.988 472.259C101.588 471.859 101.316 471.349 101.206 470.795C101.097 470.24 101.154 469.665 101.371 469.143C101.589 468.622 101.956 468.176 102.427 467.863C102.899 467.551 103.452 467.385 104.017 467.387C104.771 467.387 105.494 467.687 106.027 468.22C106.56 468.753 106.859 469.475 106.859 470.229Z" fill="white"/>
<path d="M163.293 399.504C163.386 399.504 162.551 401.117 161.379 403.715C158.313 410.498 156.309 417.713 155.44 425.105C155.092 427.947 154.999 429.745 154.895 429.745C154.833 429.33 154.833 428.908 154.895 428.493C154.895 427.692 154.895 426.532 155.057 425.094C155.713 417.608 157.75 410.308 161.066 403.564C161.704 402.277 162.226 401.244 162.678 400.571C162.84 400.192 163.046 399.834 163.293 399.504Z" fill="#263238"/>
<path d="M250.908 430.592C250.701 430.655 250.486 430.691 250.27 430.697L248.426 430.871L241.535 431.451L217.976 433.225H217.674V432.924C217.477 429.792 217.268 426.486 217.059 423.099C216.723 417.183 216.433 411.499 216.34 406.406C216.04 401.819 217.084 397.243 219.344 393.24C220.896 390.54 223.186 388.339 225.945 386.895C226.69 386.522 227.466 386.215 228.265 385.979C228.543 385.892 228.825 385.822 229.112 385.77C229.112 385.863 227.952 386.106 226.038 387.104C223.377 388.598 221.182 390.798 219.692 393.461C217.543 397.424 216.58 401.922 216.92 406.418C217.036 411.533 217.338 417.171 217.674 423.087C217.883 426.474 218.08 429.78 218.277 432.901L217.952 432.622L241.535 431.068L248.495 430.662L250.34 430.592H250.908Z" fill="#263238"/>
<path d="M193.105 450.683C192.748 450.614 192.403 450.488 192.084 450.312C191.685 450.145 191.298 449.951 190.924 449.732C190.424 449.463 189.94 449.165 189.474 448.839C188.24 448.006 187.101 447.042 186.076 445.962C184.835 444.624 183.746 443.154 182.828 441.577C181.941 439.983 181.237 438.294 180.728 436.543C180.324 435.112 180.075 433.642 179.986 432.158C179.952 431.59 179.952 431.021 179.986 430.453C179.987 430.022 180.018 429.592 180.078 429.165C180.089 428.797 180.16 428.432 180.287 428.086C180.403 428.086 180.206 429.652 180.45 432.123C180.595 433.566 180.879 434.992 181.296 436.38C181.83 438.079 182.533 439.719 183.396 441.276C184.284 442.811 185.33 444.249 186.516 445.568C187.503 446.636 188.586 447.611 189.753 448.479C191.725 449.952 193.163 450.579 193.105 450.683Z" fill="#263238"/>


<style>
.el1 {
    animation: an1 3s infinite;
     animation-delay:1s;
}

@keyframes an1 {
    0% {
       transform: translateY(0);
    }
    50% {
      transform: translateY(10px);
    }
    100% {
       transform: translateY(0);
    }
}


</style>


</svg>
