<svg width="24" height="24" viewBox="0 0 24 24" fill="none" xmlns="http://www.w3.org/2000/svg">
<path d="M6.6875 13.25C7.1019 13.25 7.49933 13.0854 7.79235 12.7924C8.08538 12.4993 8.25 12.1019 8.25 11.6875C8.25 11.2731 8.08538 10.8757 7.79235 10.5826C7.49933 10.2896 7.1019 10.125 6.6875 10.125C6.2731 10.125 5.87567 10.2896 5.58265 10.5826C5.28962 10.8757 5.125 11.2731 5.125 11.6875C5.125 12.1019 5.28962 12.4993 5.58265 12.7924C5.87567 13.0854 6.2731 13.25 6.6875 13.25ZM13.5625 11.6875C13.5625 12.1019 13.3979 12.4993 13.1049 12.7924C12.8118 13.0854 12.4144 13.25 12 13.25C11.5856 13.25 11.1882 13.0854 10.8951 12.7924C10.6021 12.4993 10.4375 12.1019 10.4375 11.6875C10.4375 11.2731 10.6021 10.8757 10.8951 10.5826C11.1882 10.2896 11.5856 10.125 12 10.125C12.4144 10.125 12.8118 10.2896 13.1049 10.5826C13.3979 10.8757 13.5625 11.2731 13.5625 11.6875ZM17.3125 13.25C17.7269 13.25 18.1243 13.0854 18.4174 12.7924C18.7104 12.4993 18.875 12.1019 18.875 11.6875C18.875 11.2731 18.7104 10.8757 18.4174 10.5826C18.1243 10.2896 17.7269 10.125 17.3125 10.125C16.8981 10.125 16.5007 10.2896 16.2076 10.5826C15.9146 10.8757 15.75 11.2731 15.75 11.6875C15.75 12.1019 15.9146 12.4993 16.2076 12.7924C16.5007 13.0854 16.8981 13.25 17.3125 13.25ZM8.25 16.6875C8.25 17.1019 8.08538 17.4993 7.79235 17.7924C7.49933 18.0854 7.1019 18.25 6.6875 18.25C6.2731 18.25 5.87567 18.0854 5.58265 17.7924C5.28962 17.4993 5.125 17.1019 5.125 16.6875C5.125 16.2731 5.28962 15.8757 5.58265 15.5826C5.87567 15.2896 6.2731 15.125 6.6875 15.125C7.1019 15.125 7.49933 15.2896 7.79235 15.5826C8.08538 15.8757 8.25 16.2731 8.25 16.6875ZM12 18.25C12.4144 18.25 12.8118 18.0854 13.1049 17.7924C13.3979 17.4993 13.5625 17.1019 13.5625 16.6875C13.5625 16.2731 13.3979 15.8757 13.1049 15.5826C12.8118 15.2896 12.4144 15.125 12 15.125C11.5856 15.125 11.1882 15.2896 10.8951 15.5826C10.6021 15.8757 10.4375 16.2731 10.4375 16.6875C10.4375 17.1019 10.6021 17.4993 10.8951 17.7924C11.1882 18.0854 11.5856 18.25 12 18.25ZM0.75 4.65625C0.75 3.62025 1.16155 2.62668 1.89411 1.89411C2.62668 1.16155 3.62025 0.75 4.65625 0.75H19.3438C20.3798 0.75 21.3733 1.16155 22.1059 1.89411C22.8384 2.62668 23.25 3.62025 23.25 4.65625V19.3438C23.25 20.3798 22.8384 21.3733 22.1059 22.1059C21.3733 22.8384 20.3798 23.25 19.3438 23.25H4.65625C3.62025 23.25 2.62668 22.8384 1.89411 22.1059C1.16155 21.3733 0.75 20.3798 0.75 19.3438V4.65625ZM4.65625 2.3125C4.03465 2.3125 3.43851 2.55943 2.99897 2.99897C2.55943 3.43851 2.3125 4.03465 2.3125 4.65625V5.75H21.6875V4.65625C21.6875 4.03465 21.4406 3.43851 21.001 2.99897C20.5615 2.55943 19.9654 2.3125 19.3438 2.3125H4.65625ZM2.3125 19.3438C2.3125 19.9654 2.55943 20.5615 2.99897 21.001C3.43851 21.4406 4.03465 21.6875 4.65625 21.6875H19.3438C19.9654 21.6875 20.5615 21.4406 21.001 21.001C21.4406 20.5615 21.6875 19.9654 21.6875 19.3438V7.3125H2.3125V19.3438Z" fill="#6E92C9"/>
</svg>
