<svg width="569" height="494" viewBox="0 0 569 494" fill="none" xmlns="http://www.w3.org/2000/svg">
<g clip-path="url(#clip0_196_3692)">
<path d="M106.926 289.278L29.4961 303.762L41.0761 365.665L118.506 351.181L106.926 289.278Z" fill="#F5F5F5"/>
<path d="M106.925 289.278C106.925 289.278 106.794 289.313 106.549 289.364C106.285 289.417 105.926 289.49 105.462 289.583C104.486 289.774 103.079 290.048 101.254 290.404C97.5654 291.111 92.2012 292.139 85.408 293.441C71.811 296.019 52.4985 299.679 29.546 304.03L29.7636 303.712C33.2198 322.137 37.1814 343.255 41.3736 365.603L41.3747 365.609L41.0196 365.366C69.6876 360.022 96.328 355.057 118.459 350.932L118.256 351.227C114.826 332.593 111.981 317.142 109.99 306.326C109.008 300.922 108.236 296.676 107.706 293.759C107.449 292.319 107.252 291.212 107.114 290.438C106.982 289.683 106.925 289.278 106.925 289.278C106.925 289.278 107.012 289.64 107.159 290.374L107.799 293.638C108.356 296.536 109.168 300.755 110.201 306.125C112.261 316.966 115.204 332.455 118.754 351.134L118.801 351.383L118.552 351.43C96.4266 355.583 69.7925 360.584 41.1316 365.964L40.8322 366.021L40.7762 365.721L40.775 365.715C36.6055 343.363 32.6654 322.24 29.2279 303.812L29.1777 303.544L29.4457 303.494C52.4902 299.24 71.88 295.661 85.5315 293.141C92.3101 291.905 97.6629 290.928 101.344 290.257C103.151 289.933 104.544 289.684 105.51 289.51C105.965 289.432 106.316 289.372 106.574 289.327C106.69 289.303 106.807 289.287 106.925 289.278Z" fill="#E0E0E0"/>
<path d="M104.884 293.693L32.8945 307.16L43.0165 361.269L115.006 347.802L104.884 293.693Z" fill="#EBEBEB"/>
<path d="M43.0156 361.269L61.8677 322.931L81.3799 341.061L89.8398 327.835L115.005 347.802L43.0156 361.269Z" fill="#E0E0E0"/>
<path d="M83.2846 314.661C83.4943 315.782 83.3669 316.94 82.9185 317.989C82.47 319.037 81.7207 319.93 80.7652 320.552C79.8097 321.175 78.691 321.501 77.5506 321.488C76.4101 321.475 75.2991 321.124 74.3581 320.479C73.417 319.835 72.6882 318.926 72.2638 317.867C71.8393 316.809 71.7384 315.648 71.9736 314.532C72.2088 313.416 72.7697 312.395 73.5854 311.598C74.401 310.8 75.4347 310.263 76.5558 310.053C78.0591 309.772 79.6125 310.099 80.8744 310.964C82.1363 311.828 83.0032 313.158 83.2846 314.661Z" fill="#E0E0E0"/>
<path d="M222.966 29.9227L183.318 248.918L345.461 278.273L385.109 59.2777L222.966 29.9227Z" fill="#FAFAFA"/>
<path d="M345.461 278.273C345.461 278.273 345.515 277.912 345.635 277.22C345.758 276.522 345.938 275.497 346.175 274.146C346.659 271.435 347.372 267.432 348.3 262.224C350.169 251.808 352.901 236.58 356.359 217.298C363.301 178.769 373.16 124.045 384.838 59.2287L385.06 59.5485C336.322 50.7338 281.15 40.7553 222.931 30.2256L222.912 30.2223L223.266 29.977C208.456 111.666 194.735 187.343 183.564 248.963L183.363 248.673C232.442 257.614 272.94 264.991 301.178 270.135C315.307 272.721 326.366 274.745 333.903 276.125C337.668 276.819 340.551 277.35 342.502 277.71C344.448 278.072 345.461 278.273 345.461 278.273C345.461 278.273 344.477 278.113 342.545 277.773C340.601 277.428 337.731 276.917 333.982 276.251C326.452 274.903 315.404 272.925 301.289 270.397C273.003 265.308 232.436 258.009 183.274 249.163L183.029 249.119L183.074 248.874C194.215 187.249 207.897 111.565 222.667 29.8685L222.721 29.5688L223.021 29.6231L223.039 29.6264L385.158 59.0066L385.429 59.0558L385.38 59.3269C373.579 124.196 363.615 178.963 356.6 217.524C353.084 236.768 350.307 251.966 348.407 262.363C347.455 267.542 346.723 271.523 346.227 274.219C345.979 275.553 345.79 276.566 345.661 277.257C345.533 277.937 345.461 278.273 345.461 278.273Z" fill="#E0E0E0"/>
<path d="M305.492 65.532L236.652 53.0688L225.793 113.051L294.633 125.514L305.492 65.532Z" fill="#E0E0E0"/>
<path d="M360.41 75.4745L316.332 67.4944L314.915 75.3198L358.993 83.3L360.41 75.4745Z" fill="#E0E0E0"/>
<path d="M350.243 148.193L224.447 125.418L223.03 133.244L348.826 156.019L350.243 148.193Z" fill="#E0E0E0"/>
<path d="M347.749 161.968L221.953 139.194L220.536 147.019L346.332 169.794L347.749 161.968Z" fill="#E0E0E0"/>
<path d="M345.255 175.743L219.459 152.969L218.042 160.794L343.838 183.569L345.255 175.743Z" fill="#E0E0E0"/>
<path d="M342.761 189.518L216.965 166.744L215.548 174.569L341.344 197.344L342.761 189.518Z" fill="#E0E0E0"/>
<path d="M340.266 203.293L214.471 180.519L213.054 188.344L338.85 211.119L340.266 203.293Z" fill="#E0E0E0"/>
<path d="M331.718 250.514L205.922 227.74L204.505 235.565L330.301 258.34L331.718 250.514Z" fill="#E0E0E0"/>
<path d="M281.033 206.796L211.979 194.294L210.562 202.119L279.616 214.621L281.033 206.796Z" fill="#E0E0E0"/>
<path d="M358.117 88.1393L314.039 80.1592L312.622 87.9846L356.7 95.9647L358.117 88.1393Z" fill="#E0E0E0"/>
<path d="M355.822 100.804L311.744 92.8239L310.327 100.649L354.405 108.629L355.822 100.804Z" fill="#E0E0E0"/>
<path d="M336.632 110.409L309.453 105.489L308.036 113.314L335.215 118.235L336.632 110.409Z" fill="#E0E0E0"/>
<path d="M418.783 28.9061L404.796 29.4677L403.287 33.3891C402.852 34.4064 402.617 35.4983 402.596 36.6047C402.589 37.0994 402.719 37.5864 402.974 38.0104C403.229 38.4344 403.598 38.7785 404.039 39.0035C405.3 39.4132 406.624 39.5977 407.95 39.5485L407.993 40.6286L394.825 41.1573L394.781 40.0772C396.11 39.8524 397.321 39.1792 398.214 38.1698C399.556 36.2991 400.617 34.2414 401.361 32.0624L414.254 -0.0998877L414.809 -0.122192L430.392 31.7746C431.878 34.7953 433.075 36.687 433.983 37.4498C434.8 38.0726 435.802 38.4033 436.829 38.389L436.872 39.4691L417.717 40.238L417.674 39.1582L418.462 39.1265C419.585 39.1747 420.699 38.9069 421.677 38.3536C421.882 38.1924 422.042 37.9827 422.145 37.7436C422.248 37.5045 422.289 37.2435 422.265 36.9843C422.248 36.6176 422.174 36.2557 422.047 35.9112C422 35.7374 421.679 35.0192 421.083 33.7565L418.783 28.9061ZM417.703 26.7851L411.258 13.3856L405.731 27.2658L417.703 26.7851Z" fill="#E0E0E0"/>
<path d="M445.258 111.612L381.295 132.974L398.373 184.11L462.336 162.749L445.258 111.612Z" fill="#F5F5F5"/>
<path d="M444.046 115.596L384.576 135.456L399.504 180.155L458.973 160.294L444.046 115.596Z" fill="#EBEBEB"/>
<path d="M399.504 180.154L410.995 145.434L429.668 158.52L435.291 146.313L458.972 160.294L399.504 180.154Z" fill="#E0E0E0"/>
<path d="M428.187 135.909C428.497 136.835 428.524 137.832 428.267 138.774C428.01 139.716 427.479 140.56 426.742 141.2C426.005 141.841 425.094 142.248 424.125 142.37C423.157 142.493 422.173 142.326 421.3 141.89C420.426 141.453 419.702 140.768 419.218 139.92C418.734 139.072 418.512 138.1 418.581 137.126C418.649 136.152 419.005 135.22 419.603 134.448C420.202 133.677 421.015 133.1 421.941 132.79C423.183 132.376 424.539 132.471 425.71 133.056C426.881 133.641 427.773 134.667 428.187 135.909Z" fill="#E0E0E0"/>
<path d="M447.058 52.1238L431.4 132.07L531.399 151.654L547.056 71.7081L447.058 52.1238Z" fill="#F5F5F5"/>
<path d="M547.056 71.7081C547.056 71.7081 546.886 71.6853 546.568 71.6284C546.236 71.5672 545.77 71.4813 545.161 71.369C543.911 71.1318 542.089 70.786 539.722 70.3367C534.963 69.4219 528.026 68.0884 519.234 66.398C501.664 62.9907 476.69 58.1477 447.006 52.3912L447.325 52.1763C442.674 75.9732 437.343 103.253 431.701 132.12L431.699 132.128L431.459 131.771C468.476 139.04 502.877 145.796 531.448 151.406L531.151 151.606C535.918 127.545 539.87 107.601 542.635 93.6507C544.029 86.6766 545.123 81.2053 545.873 77.4571C546.249 75.5977 546.539 74.1697 546.738 73.1865C546.938 72.2183 547.056 71.7081 547.056 71.7081C547.056 71.7081 546.981 72.189 546.803 73.1439C546.619 74.1187 546.352 75.5348 546.003 77.3784C545.286 81.1196 544.239 86.5805 542.905 93.5413C540.195 107.541 536.321 127.556 531.647 151.703L531.599 151.952L531.35 151.903C502.774 146.321 468.366 139.601 431.342 132.369L431.043 132.31L431.102 132.011L431.103 132.003C436.768 103.14 442.121 75.8648 446.79 52.0715L446.843 51.8035L447.11 51.8564C476.844 57.7368 501.86 62.6841 519.46 66.1647L539.859 70.2335C542.198 70.706 543.998 71.0696 545.233 71.319C545.827 71.4422 546.281 71.5364 546.605 71.6036C546.91 71.6687 547.056 71.7081 547.056 71.7081Z" fill="#E0E0E0"/>
<path d="M449.518 57.8317L435.832 127.712L528.805 145.921L542.491 76.0402L449.518 57.8317Z" fill="#EBEBEB"/>
<path d="M435.832 127.712L476.811 90.6348L491.605 121.751L508.094 109.894L528.804 145.921L435.832 127.712Z" fill="#E0E0E0"/>
<path d="M506.509 90.9257C506.225 92.3736 505.519 93.7049 504.479 94.7513C503.438 95.7976 502.111 96.512 500.665 96.8042C499.219 97.0963 497.719 96.9531 496.354 96.3926C494.989 95.832 493.821 94.8794 492.998 93.6551C492.175 92.4308 491.733 90.9899 491.729 89.5145C491.724 88.0391 492.157 86.5956 492.973 85.3664C493.789 84.1373 494.952 83.1777 496.313 82.6091C497.674 82.0404 499.174 81.8882 500.622 82.1718C502.563 82.552 504.274 83.6879 505.378 85.3296C506.482 86.9712 506.889 88.9842 506.509 90.9257Z" fill="#E0E0E0"/>
<path d="M551.237 493.361C551.237 493.529 431.295 493.666 283.374 493.666C135.402 493.666 15.4863 493.529 15.4863 493.361C15.4863 493.193 135.402 493.057 283.374 493.057C431.295 493.057 551.237 493.193 551.237 493.361Z" fill="#263238"/>
<path d="M226.672 340.754H323.699V391.669H226.672C224.035 391.669 221.423 391.15 218.987 390.14C216.55 389.131 214.337 387.652 212.472 385.787C210.607 383.922 209.128 381.709 208.119 379.272C207.109 376.836 206.59 374.224 206.59 371.587V360.836C206.59 355.51 208.706 350.402 212.472 346.636C216.238 342.869 221.346 340.754 226.672 340.754Z" fill="#81184E"/>
<path d="M298.332 340.754H502.977C503.862 340.754 504.709 341.105 505.335 341.73C505.96 342.355 506.311 343.203 506.311 344.087V345.872C506.311 346.756 505.96 347.604 505.335 348.23C504.709 348.855 503.862 349.206 502.977 349.206H298.332V340.754Z" fill="#81184E"/>
<path d="M298.332 383.217H502.977C503.862 383.217 504.709 383.568 505.335 384.193C505.96 384.819 506.311 385.667 506.311 386.551V388.335C506.311 389.22 505.96 390.068 505.335 390.693C504.709 391.318 503.862 391.669 502.977 391.669H298.332V383.217Z" fill="#81184E"/>
<path d="M500.107 383.217H321.541C319.307 383.217 317.096 382.777 315.033 381.922C312.97 381.068 311.095 379.815 309.516 378.236C307.937 376.657 306.684 374.782 305.83 372.719C304.975 370.656 304.535 368.445 304.535 366.211C304.535 361.701 306.327 357.376 309.516 354.187C312.705 350.998 317.03 349.206 321.541 349.206H500.107C497.739 354.563 496.516 360.355 496.516 366.212C496.516 372.068 497.739 377.86 500.107 383.217Z" fill="#F5F5F5"/>
<path opacity="0.3" d="M304.536 391.669H227.07C221.638 391.669 216.429 389.511 212.588 385.671C208.748 381.83 206.59 376.621 206.59 371.189V361.077C206.59 358.408 207.116 355.766 208.137 353.3C209.158 350.834 210.655 348.594 212.542 346.706C214.43 344.819 216.67 343.322 219.136 342.301C221.602 341.279 224.245 340.754 226.914 340.754H306.474C288.039 351.921 289.417 378.665 304.536 391.669Z" fill="black"/>
<path d="M478.412 367.79C478.412 367.958 441.761 368.095 396.559 368.095C351.341 368.095 314.697 367.958 314.697 367.79C314.697 367.622 351.341 367.486 396.559 367.486C441.761 367.486 478.412 367.622 478.412 367.79Z" fill="#263238"/>
<path d="M495.26 375.349C495.26 375.518 458.608 375.654 413.406 375.654C368.189 375.654 331.545 375.518 331.545 375.349C331.545 375.182 368.189 375.045 413.406 375.045C458.608 375.045 495.26 375.182 495.26 375.349Z" fill="#263238"/>
<path d="M490.291 357.07C490.291 357.238 453.64 357.374 408.438 357.374C363.22 357.374 326.576 357.238 326.576 357.07C326.576 356.902 363.22 356.765 408.438 356.765C453.64 356.765 490.291 356.902 490.291 357.07Z" fill="#263238"/>
<path d="M295.571 388.101C295.571 388.269 278.415 388.406 257.256 388.406C236.09 388.406 218.938 388.269 218.938 388.101C218.938 387.933 236.09 387.797 257.256 387.797C278.415 387.797 295.571 387.933 295.571 388.101Z" fill="#263238"/>
<path d="M295.571 344.98C295.571 345.148 278.415 345.284 257.256 345.284C236.09 345.284 218.938 345.148 218.938 344.98C218.938 344.812 236.09 344.675 257.256 344.675C278.415 344.675 295.571 344.812 295.571 344.98Z" fill="#263238"/>
<path d="M183.836 427.41H314.572V492.982H183.836C178.51 492.982 173.402 490.866 169.636 487.1C165.87 483.333 163.754 478.225 163.754 472.899V447.492C163.754 444.855 164.273 442.244 165.283 439.807C166.292 437.371 167.771 435.157 169.636 433.292C171.501 431.427 173.714 429.948 176.151 428.939C178.587 427.93 181.199 427.41 183.836 427.41H183.836Z" fill="#81184E"/>
<path d="M281.904 427.41H546.415C546.853 427.41 547.286 427.497 547.691 427.664C548.095 427.832 548.463 428.077 548.772 428.387C549.082 428.696 549.327 429.064 549.495 429.468C549.662 429.873 549.749 430.306 549.749 430.744V434.962C549.749 435.846 549.397 436.694 548.772 437.319C548.147 437.944 547.299 438.296 546.415 438.296H281.904V427.41Z" fill="#81184E"/>
<path d="M281.904 482.096H546.415C547.299 482.096 548.147 482.447 548.772 483.073C549.397 483.698 549.749 484.546 549.749 485.43V489.648C549.749 490.532 549.397 491.38 548.772 492.005C548.147 492.63 547.299 492.982 546.415 492.982H281.904V482.096Z" fill="#81184E"/>
<path d="M541.761 482.096L311.795 482.096C308.919 482.096 306.071 481.53 303.414 480.429C300.757 479.329 298.343 477.715 296.309 475.682C294.275 473.648 292.662 471.234 291.562 468.577C290.461 465.92 289.895 463.072 289.895 460.196V460.196C289.895 457.32 290.461 454.472 291.562 451.815C292.662 449.158 294.275 446.744 296.309 444.71C298.343 442.676 300.757 441.063 303.414 439.963C306.071 438.862 308.919 438.296 311.795 438.296H541.761C538.711 445.194 537.135 452.653 537.135 460.196C537.135 467.739 538.711 475.198 541.761 482.096Z" fill="#F5F5F5"/>
<path opacity="0.3" d="M289.894 492.982H183.576C180.973 492.982 178.395 492.469 175.99 491.473C173.585 490.476 171.4 489.016 169.56 487.176C167.719 485.335 166.259 483.15 165.263 480.745C164.267 478.34 163.754 475.762 163.754 473.159V447.935C163.754 445.24 164.285 442.571 165.316 440.081C166.348 437.591 167.86 435.328 169.765 433.422C171.671 431.516 173.934 430.004 176.424 428.973C178.914 427.941 181.583 427.41 184.279 427.41H292.389C268.648 441.792 270.422 476.234 289.894 492.982Z" fill="black"/>
<path d="M513.82 462.229C513.82 462.397 466.618 462.533 408.405 462.533C350.172 462.533 302.98 462.397 302.98 462.229C302.98 462.061 350.172 461.925 408.405 461.925C466.618 461.925 513.82 462.061 513.82 462.229Z" fill="#263238"/>
<path d="M535.515 471.964C535.515 472.133 488.313 472.269 430.101 472.269C371.868 472.269 324.676 472.133 324.676 471.964C324.676 471.796 371.868 471.66 430.101 471.66C488.313 471.66 535.515 471.796 535.515 471.964Z" fill="#263238"/>
<path d="M529.119 453.195C529.119 453.363 481.917 453.5 423.704 453.5C365.471 453.5 318.279 453.363 318.279 453.195C318.279 453.027 365.471 452.891 423.704 452.891C481.917 452.891 529.119 453.027 529.119 453.195Z" fill="#263238"/>
<path d="M278.348 488.386C278.348 488.555 256.254 488.691 229.005 488.691C201.746 488.691 179.656 488.555 179.656 488.386C179.656 488.218 201.746 488.082 229.005 488.082C256.254 488.082 278.348 488.218 278.348 488.386Z" fill="#263238"/>
<path d="M278.348 432.853C278.348 433.021 256.254 433.157 229.005 433.157C201.746 433.157 179.656 433.021 179.656 432.853C179.656 432.685 201.746 432.548 229.005 432.548C256.254 432.548 278.348 432.685 278.348 432.853Z" fill="#263238"/>
<path d="M246.011 390.106H353.738V427.649H246.011C242.084 427.649 238.317 426.089 235.54 423.312C232.763 420.535 231.203 416.769 231.203 412.841V404.914C231.203 402.969 231.586 401.044 232.33 399.247C233.074 397.45 234.165 395.818 235.54 394.443C236.915 393.068 238.548 391.977 240.344 391.233C242.141 390.489 244.066 390.106 246.011 390.106Z" fill="#455A64"/>
<path d="M327.197 390.106H541.325C542.25 390.106 543.137 390.473 543.791 391.128C544.445 391.782 544.813 392.669 544.813 393.594V395.462C544.813 396.387 544.445 397.274 543.791 397.928C543.137 398.582 542.25 398.95 541.325 398.95H327.197V390.106Z" fill="#455A64"/>
<path d="M327.197 418.805H541.325C542.25 418.805 543.137 419.173 543.791 419.827C544.445 420.481 544.813 421.368 544.813 422.293V424.161C544.813 425.086 544.445 425.973 543.791 426.627C543.137 427.282 542.25 427.649 541.325 427.649H327.197V418.805Z" fill="#455A64"/>
<path d="M538.321 418.805H343.615C340.982 418.805 338.457 417.759 336.595 415.897C334.733 414.036 333.688 411.511 333.688 408.878C333.688 406.245 334.733 403.719 336.595 401.858C338.457 399.996 340.982 398.95 343.615 398.95H538.321C533.311 405.568 533.311 412.187 538.321 418.805Z" fill="#F5F5F5"/>
<path opacity="0.3" d="M333.688 427.649H246.11C242.156 427.649 238.365 426.079 235.569 423.283C232.774 420.488 231.203 416.696 231.203 412.742V405.314C231.203 401.28 232.805 397.412 235.657 394.56C238.51 391.708 242.378 390.106 246.411 390.106H335.716C316.426 398.34 317.868 418.06 333.688 427.649Z" fill="black"/>
<path d="M515.621 407.314C515.621 407.482 477.271 407.619 429.975 407.619C382.662 407.619 344.32 407.482 344.32 407.314C344.32 407.146 382.662 407.01 429.975 407.01C477.271 407.01 515.621 407.146 515.621 407.314Z" fill="#263238"/>
<path d="M533.248 412.658C533.248 412.826 494.898 412.963 447.602 412.963C400.289 412.963 361.947 412.826 361.947 412.658C361.947 412.49 400.289 412.354 447.602 412.354C494.898 412.354 533.248 412.49 533.248 412.658Z" fill="#263238"/>
<path d="M324.308 423.916C324.308 424.084 306.356 424.22 284.217 424.22C262.071 424.22 244.123 424.084 244.123 423.916C244.123 423.748 262.071 423.611 284.217 423.611C306.356 423.611 324.308 423.748 324.308 423.916Z" fill="#263238"/>
<path d="M324.308 394.528C324.308 394.696 306.356 394.832 284.217 394.832C262.071 394.832 244.123 394.696 244.123 394.528C244.123 394.36 262.071 394.223 284.217 394.223C306.356 394.223 324.308 394.36 324.308 394.528Z" fill="#263238"/>
<path d="M542.257 390.106C542.257 390.274 476.406 390.41 395.193 390.41C313.952 390.41 248.115 390.274 248.115 390.106C248.115 389.938 313.952 389.802 395.193 389.802C476.406 389.802 542.257 389.938 542.257 390.106Z" fill="#263238"/>
<path d="M424.16 356.513V376.904L431.228 372.372L439.112 376.904V356.513H424.16Z" fill="#81184E"/>
<path d="M495.982 154.098L460.401 183.735L406.273 290.668L440.021 305.918L492.658 201.044L495.982 154.098Z" fill="#81184E"/>
<g opacity="0.7">
<path opacity="0.7" d="M492.657 201.044C492.249 201.139 491.824 201.139 491.415 201.044C491.006 200.948 490.625 200.761 490.3 200.495C489.976 200.229 489.717 199.892 489.543 199.51C489.369 199.128 489.286 198.711 489.299 198.291C488.177 199.6 486.672 200.524 484.997 200.933C483.322 201.342 481.561 201.216 479.962 200.571C478.363 199.927 477.006 198.797 476.083 197.341C475.16 195.885 474.717 194.176 474.816 192.455C473.316 193.259 471.63 193.651 469.929 193.59C468.228 193.53 466.574 193.019 465.136 192.109C463.697 191.2 462.526 189.925 461.741 188.415C460.956 186.905 460.587 185.214 460.67 183.514L495.982 154.098L492.657 201.044Z" fill="white"/>
</g>
<path d="M481.674 166.016C481.674 166.016 482.212 174.869 494.62 173.332L495.982 154.098L481.674 166.016Z" fill="#81184E"/>
<path opacity="0.3" d="M474.816 192.455L422.644 297.488L406.273 290.667L460.402 183.734L460.67 183.514C460.59 184.94 460.842 186.365 461.406 187.677C462.147 189.404 463.36 190.887 464.906 191.955C466.804 193.248 469.105 193.81 471.385 193.536C472.586 193.393 473.75 193.026 474.816 192.455Z" fill="black"/>
<path opacity="0.3" d="M489.299 198.291L435.693 303.962L440.021 305.918L492.658 201.044C491.945 201.176 491.208 201.037 490.592 200.655C489.976 200.273 489.524 199.675 489.325 198.977C489.292 198.75 489.284 198.52 489.299 198.291Z" fill="black"/>
<path d="M474.558 182.257C474.442 182.387 474.377 182.555 474.373 182.73C474.378 182.977 474.473 183.215 474.642 183.396C474.81 183.578 475.04 183.691 475.287 183.713C476.082 183.739 476.867 183.518 477.532 183.081C477.954 182.831 478.289 182.457 478.49 182.01C478.605 181.767 478.657 181.499 478.639 181.232C478.622 180.964 478.537 180.705 478.391 180.479C478.203 180.249 477.969 180.06 477.704 179.926C477.438 179.792 477.147 179.715 476.85 179.7C476.19 179.642 475.525 179.68 474.876 179.812C473.425 180.053 472.041 180.593 470.81 181.398C470.483 181.6 470.202 181.869 469.986 182.188C469.77 182.507 469.625 182.868 469.559 183.247C469.542 183.646 469.624 184.042 469.798 184.401C469.972 184.76 470.232 185.071 470.556 185.304C471.302 185.736 472.127 186.014 472.983 186.121C473.839 186.227 474.707 186.161 475.537 185.925C477.184 185.579 478.704 184.788 479.931 183.637C481.159 182.486 482.046 181.019 482.495 179.398C482.57 179.039 482.561 178.668 482.468 178.314C482.376 177.959 482.204 177.631 481.964 177.354C481.482 176.839 480.884 176.448 480.22 176.213C479.013 175.776 477.748 175.522 476.466 175.461C474.602 175.367 472.738 175.646 470.983 176.28C470.365 176.514 469.897 176.724 469.584 176.878C469.274 177.035 469.104 177.106 469.104 177.106C469.686 176.738 470.303 176.43 470.947 176.186C472.708 175.509 474.589 175.2 476.475 175.279C477.779 175.329 479.068 175.576 480.297 176.014C480.997 176.257 481.628 176.666 482.135 177.206C482.398 177.508 482.588 177.866 482.692 178.252C482.795 178.639 482.808 179.044 482.73 179.436C482.278 181.109 481.373 182.625 480.113 183.814C478.853 185.004 477.288 185.821 475.592 186.176C474.707 186.371 473.797 186.433 472.893 186.363C471.998 186.319 471.134 186.021 470.401 185.504C470.045 185.244 469.759 184.899 469.569 184.501C469.379 184.103 469.292 183.663 469.315 183.223C469.384 182.809 469.541 182.416 469.775 182.068C470.01 181.72 470.315 181.426 470.672 181.206C471.933 180.385 473.353 179.839 474.84 179.602C475.51 179.47 476.196 179.437 476.876 179.503C477.199 179.523 477.515 179.612 477.802 179.762C478.089 179.913 478.341 180.122 478.542 180.377C478.701 180.628 478.794 180.915 478.812 181.213C478.829 181.51 478.77 181.806 478.641 182.074C478.422 182.549 478.061 182.943 477.608 183.203C476.913 183.648 476.094 183.861 475.271 183.812C475.006 183.782 474.761 183.655 474.586 183.454C474.41 183.253 474.316 182.994 474.322 182.728C474.32 182.636 474.341 182.545 474.382 182.463C474.423 182.381 474.484 182.31 474.558 182.257Z" fill="white"/>
<path d="M493.643 181.613C493.639 181.644 493.121 181.53 492.181 181.567C490.853 181.651 489.555 181.999 488.363 182.592C486.603 183.489 484.953 184.589 483.449 185.869C481.611 187.481 479.52 188.779 477.259 189.708C474.925 190.51 472.406 190.608 470.017 189.989C468.396 189.559 466.881 188.8 465.565 187.761C464.249 186.721 463.161 185.422 462.367 183.945C462.13 183.514 461.932 183.063 461.775 182.597C461.844 182.704 461.902 182.817 461.95 182.935C462.054 183.161 462.22 183.488 462.455 183.896C463.117 185.05 463.957 186.093 464.943 186.987C466.403 188.315 468.165 189.266 470.076 189.759C472.42 190.353 474.887 190.25 477.174 189.465C479.408 188.544 481.478 187.266 483.303 185.682C484.827 184.4 486.5 183.307 488.286 182.426C489.503 181.84 490.828 181.513 492.177 181.467C492.67 181.45 493.163 181.499 493.643 181.613Z" fill="white"/>
<path d="M493.433 192.333C492.789 191.659 491.921 191.243 490.992 191.164C488.743 191.139 486.503 191.466 484.355 192.132C482.179 192.721 480.061 193.508 478.029 194.484C477.247 194.855 476.628 195.184 476.199 195.409C475.984 195.541 475.758 195.654 475.523 195.746C475.719 195.586 475.929 195.444 476.149 195.322C476.564 195.07 477.173 194.714 477.949 194.32C481.091 192.725 484.468 191.642 487.951 191.112C488.961 190.924 489.993 190.881 491.015 190.984C491.713 191.061 492.376 191.331 492.929 191.764C493.127 191.924 493.297 192.116 493.433 192.333Z" fill="white"/>
<path d="M478.662 199.862C479.023 199.5 479.421 199.178 479.852 198.903C480.85 198.155 482.002 197.64 483.225 197.393C483.844 197.267 484.483 197.28 485.097 197.431C485.71 197.582 486.282 197.867 486.772 198.266C487.062 198.514 487.302 198.814 487.482 199.15C487.556 199.268 487.604 199.401 487.622 199.54C487.363 199.113 487.037 198.73 486.656 198.407C486.176 198.049 485.626 197.796 485.042 197.665C484.458 197.535 483.853 197.528 483.267 197.647C482.08 197.892 480.953 198.37 479.953 199.054C479.54 199.35 479.108 199.619 478.662 199.862Z" fill="white"/>
<path d="M494.572 175.239C494.577 175.246 494.518 175.295 494.402 175.381C494.285 175.466 494.114 175.592 493.882 175.742C493.601 175.935 493.287 176.075 492.955 176.154C492.507 176.23 492.048 176.201 491.613 176.072C490.509 175.751 489.421 175.375 488.355 174.946C487.032 174.493 485.674 174.154 484.294 173.932C481.775 173.561 479.23 173.389 476.684 173.42C475.836 173.418 475.069 173.417 474.365 173.416C474.081 173.429 473.796 173.419 473.514 173.386C473.794 173.341 474.078 173.317 474.363 173.316C474.91 173.289 475.703 173.256 476.683 173.238C479.242 173.153 481.803 173.301 484.336 173.678C485.73 173.902 487.102 174.252 488.434 174.722C489.66 175.164 490.714 175.661 491.657 175.895C492.014 176.025 492.395 176.071 492.772 176.029C493.149 175.988 493.511 175.86 493.831 175.656C494.068 175.5 494.316 175.361 494.572 175.239Z" fill="white"/>
<path d="M532.291 271.877V365.095C532.298 365.285 532.378 365.464 532.514 365.596C532.65 365.728 532.832 365.801 533.022 365.801C533.211 365.801 533.394 365.728 533.53 365.596C533.666 365.464 533.746 365.285 533.753 365.095V271.877C533.746 271.688 533.666 271.508 533.53 271.377C533.394 271.245 533.211 271.171 533.022 271.171C532.832 271.171 532.65 271.245 532.514 271.377C532.378 271.508 532.298 271.688 532.291 271.877Z" fill="#81184E"/>
<path d="M538.3 344.554C538.3 345.594 537.992 346.61 537.414 347.475C536.836 348.339 536.015 349.013 535.055 349.411C534.094 349.809 533.037 349.913 532.017 349.71C530.997 349.508 530.06 349.007 529.325 348.272C528.59 347.536 528.089 346.6 527.886 345.58C527.683 344.56 527.787 343.503 528.185 342.542C528.583 341.581 529.257 340.76 530.122 340.183C530.986 339.605 532.003 339.297 533.043 339.297C534.437 339.297 535.774 339.85 536.76 340.836C537.746 341.822 538.3 343.16 538.3 344.554Z" fill="#81184E"/>
<path d="M531.557 347.275C531.557 347.275 527.728 351.104 526.58 362.335C525.431 373.566 525.176 379.181 525.176 379.181L535.513 379.82V371.779C535.513 372.162 537.555 377.778 537.555 377.778L545.723 375.098C545.723 375.098 542.788 345.233 531.557 347.275Z" fill="#81184E"/>
<path d="M477.81 279.506H302.328V342.772H477.81V279.506Z" fill="#263238"/>
<path d="M539.45 268.618H239.299V279.506H539.45V268.618Z" fill="#263238"/>
<path opacity="0.3" d="M302.328 324.822C302.328 324.822 355.639 305.695 390.069 298.633C424.499 291.57 477.81 293.925 477.81 293.925V279.506H302.328V324.822Z" fill="black"/>
<path opacity="0.3" d="M347.864 268.618H239.299V279.506H347.864V268.618Z" fill="black"/>
<path d="M537.273 279.506C537.273 279.674 470.533 279.81 388.225 279.81C305.887 279.81 239.162 279.674 239.162 279.506C239.162 279.337 305.887 279.201 388.225 279.201C470.533 279.201 537.273 279.337 537.273 279.506Z" fill="#455A64"/>
<path d="M347.689 279.597C347.283 275.918 347.283 272.205 347.689 268.526C348.095 272.205 348.095 275.918 347.689 279.597Z" fill="#455A64"/>
<path d="M372.723 342.772C372.554 342.772 372.418 330.428 372.418 315.205C372.418 299.976 372.554 287.635 372.723 287.635C372.891 287.635 373.027 299.976 373.027 315.205C373.027 330.428 372.891 342.772 372.723 342.772Z" fill="#455A64"/>
<path d="M118.861 420.464L139.038 412.322L154.449 372.064L174.992 382.65C174.992 382.65 173.005 386.627 168.759 396.463C167.12 400.261 161.688 410.848 159.475 416.005C157.435 420.773 154.071 424.855 149.781 427.769C145.491 430.683 140.456 432.306 135.272 432.445L116.338 432.938L118.861 420.464Z" fill="#FFBF9D"/>
<path d="M108.84 412.672L105.793 409.468C105.206 409.09 104.519 408.9 103.821 408.921L94.1643 409.214C93.2648 409.303 92.3966 409.592 91.6235 410.06C90.8504 410.528 90.192 411.164 89.6967 411.92L86.1856 417.896C86.1856 417.896 83.8254 421.985 84.1261 422.979C84.2584 423.394 84.5396 423.746 84.9156 423.966C85.2917 424.187 85.736 424.261 86.1631 424.173C86.1631 424.173 86.4974 426.062 87.1307 426.447C87.4907 426.631 87.8845 426.739 88.2879 426.765C88.6913 426.791 89.0957 426.734 89.4763 426.598C89.6429 426.957 89.9128 427.258 90.2514 427.463C90.5901 427.668 90.9821 427.768 91.3775 427.749C91.5475 427.736 91.7156 427.705 91.8787 427.656C93.0255 427.309 93.5419 425.089 93.5419 425.089L98.4381 424.183C98.4381 424.183 105.47 428.884 107.948 431.964C110.426 435.044 116.918 432.69 116.918 432.69L119.347 421.077L108.84 412.672Z" fill="#FFBF9D"/>
<path d="M101.724 414.058C101.04 414.273 100.329 414.391 99.6121 414.41C98.2808 414.557 96.3966 414.611 94.2762 414.886L94.5055 414.718C94.1375 415.515 93.7185 416.287 93.251 417.03C91.9673 419.068 90.4047 420.917 88.6087 422.522C87.9045 423.231 87.0854 423.817 86.186 424.253C86.1308 424.176 87.0293 423.49 88.3138 422.208C89.987 420.544 91.4698 418.699 92.7347 416.707C93.1886 415.985 93.6015 415.239 93.9714 414.471L94.0433 414.32L94.2011 414.302C96.3803 414.056 98.2578 414.081 99.5894 414.036C100.3 413.97 101.015 413.978 101.724 414.058Z" fill="#FF9A6C"/>
<path d="M101.946 418.664C101.379 418.948 100.76 419.113 100.127 419.149C98.5542 419.365 96.9565 419.309 95.4029 418.984L95.7468 418.789C95.5467 419.386 95.3111 419.971 95.0414 420.54C94.1707 422.361 92.9354 423.984 91.4118 425.309C90.8207 425.898 90.1152 426.361 89.3386 426.668C89.2845 426.588 90.0545 426.047 91.1196 424.992C92.5041 423.624 93.6447 422.03 94.4922 420.277C94.7513 419.73 94.9822 419.17 95.1841 418.599L95.2747 418.347L95.5283 418.404C97.6456 418.783 99.8049 418.87 101.946 418.664Z" fill="#FF9A6C"/>
<path d="M114.206 421.047C111.335 419.713 108.464 418.378 105.593 417.044C104.44 416.402 103.16 416.022 101.843 415.929C100.428 416.05 99.0605 416.504 97.8529 417.253C96.3082 418.052 94.7635 418.852 93.2188 419.652C92.9505 419.751 92.7306 419.95 92.6045 420.206C92.5779 420.39 92.6009 420.577 92.6711 420.749C92.7413 420.921 92.8562 421.071 93.0038 421.183C94.2016 422.32 95.7711 422.984 97.4211 423.051C99.0711 423.119 100.69 422.586 101.976 421.551C102.603 423.617 103.586 425.558 104.881 427.286C105.54 428.143 106.408 428.816 107.402 429.239C108.396 429.663 109.482 429.823 110.556 429.705" fill="#FFBF9D"/>
<path d="M110.557 429.705C110.56 429.719 110.482 429.745 110.326 429.781C110.095 429.831 109.86 429.858 109.624 429.86C108.721 429.867 107.83 429.651 107.031 429.231C105.79 428.582 104.739 427.624 103.979 426.449C103.039 424.942 102.282 423.329 101.723 421.644L102.153 421.756C101.461 422.334 100.662 422.77 99.8019 423.039C98.9415 423.308 98.0364 423.405 97.1385 423.324C96.1636 423.254 95.2129 422.988 94.343 422.542C93.8975 422.303 93.4806 422.015 93.1003 421.682C92.8948 421.513 92.7083 421.322 92.5439 421.113C92.4366 420.984 92.3589 420.834 92.3165 420.672C92.274 420.51 92.2678 420.34 92.2984 420.175C92.3791 419.902 92.564 419.671 92.8132 419.532C93.0186 419.405 93.1941 419.326 93.3745 419.229C93.7349 419.043 94.0929 418.858 94.4485 418.674C95.1595 418.308 95.8598 417.947 96.5494 417.592C97.8556 416.825 99.2493 416.217 100.701 415.783C102.094 415.529 103.532 415.747 104.787 416.402C105.953 416.932 107.001 417.45 107.977 417.914C109.838 418.823 111.382 419.576 112.561 420.152C113.134 420.403 113.684 420.703 114.206 421.047C113.606 420.87 113.022 420.643 112.461 420.366C111.261 419.836 109.69 419.142 107.795 418.304C106.805 417.86 105.733 417.379 104.588 416.866C103.426 416.276 102.102 416.087 100.822 416.33C99.4246 416.771 98.0828 417.372 96.8236 418.122C96.1359 418.48 95.437 418.843 94.727 419.213C94.3718 419.397 94.0142 419.582 93.6541 419.769C93.2882 419.956 92.9071 420.138 92.8894 420.322C92.8156 420.545 93.1483 420.941 93.5022 421.226C93.8459 421.528 94.2225 421.79 94.6249 422.007C95.4212 422.417 96.2912 422.665 97.1841 422.735C98.8457 422.896 100.504 422.397 101.801 421.346L102.1 421.089L102.231 421.457C102.756 423.114 103.468 424.706 104.351 426.202C105.05 427.339 106.023 428.283 107.18 428.947C108.211 429.515 109.382 429.778 110.557 429.705Z" fill="#FF9A6C"/>
<path d="M226.232 308.292C226.309 301.828 227.327 295.386 227.08 288.927C226.832 282.468 225.132 275.74 220.625 271.106C216.118 266.473 208.292 264.704 203.019 268.443L201.938 273.944C204.013 298.867 203.73 324.194 205.806 349.117C206.078 352.391 208.736 355.355 210.225 358.284C211.713 361.212 214.702 363.629 217.98 363.428C222.271 363.164 225.086 358.815 226.42 354.729C231.256 339.916 226.044 323.873 226.232 308.292Z" fill="#263238"/>
<path d="M210.687 274.779C209.827 273.134 208.719 271.631 207.401 270.325C206.736 269.676 205.933 269.186 205.051 268.892C204.17 268.598 203.234 268.506 202.313 268.625C201.879 268.678 201.465 268.841 201.112 269.099C200.759 269.356 200.478 269.701 200.296 270.098C200.008 270.921 200.624 272.021 201.493 271.95L201.678 272.108C203.613 273.82 205.582 275.493 207.584 277.128C208.063 277.571 208.623 277.917 209.233 278.148C209.54 278.258 209.872 278.281 210.191 278.213C210.511 278.145 210.805 277.99 211.04 277.763C211.753 276.959 211.232 275.706 210.687 274.779Z" fill="#81184E"/>
<path d="M214.34 281.124C207.899 273.251 199.248 268.719 189.077 268.55C183.339 268.455 180.964 269.648 176.832 270.763C172.694 271.756 169.038 274.175 166.505 277.594C163.577 281.75 161.118 286.404 160.564 291.457C159.836 296.631 159.587 301.862 159.818 307.082C160.06 312.33 161.746 317.41 164.69 321.761L177.94 324.063C185.258 324.312 192.677 324.552 199.806 322.883C206.935 321.213 213.862 317.378 217.68 311.13C222.984 302.45 220.781 288.997 214.34 281.124Z" fill="#263238"/>
<path d="M202.551 281.037L184.887 274.016L180.272 274.552C169.889 274.589 162.728 286.04 162.66 294.45C162.584 303.793 162.86 315.202 164.345 322.089C167.33 335.936 179.148 337.089 179.148 337.089C179.148 337.089 178.906 344.468 178.817 349.117L205.861 347.165L207.22 285.779C207.177 284.548 206.673 283.377 205.809 282.499C204.944 281.621 203.782 281.099 202.551 281.037Z" fill="#FFBF9D"/>
<path d="M185.115 318.848C185.008 318.138 184.646 317.491 184.096 317.029C183.594 316.598 182.964 316.344 182.304 316.306C181.643 316.269 180.989 316.45 180.441 316.821C179.872 317.259 179.429 317.841 179.16 318.507C178.891 319.172 178.804 319.898 178.908 320.609C179.212 321.035 179.603 321.392 180.056 321.655C180.509 321.917 181.013 322.08 181.533 322.132C181.697 322.146 181.862 322.151 182.027 322.147C182.85 322.142 183.643 321.829 184.246 321.268C184.565 320.957 184.809 320.578 184.96 320.158C185.11 319.739 185.163 319.291 185.115 318.848Z" fill="#FF9A6C"/>
<path d="M167.34 306.272C167.361 306.739 167.564 307.179 167.905 307.499C168.246 307.819 168.699 307.993 169.167 307.984C169.395 307.99 169.623 307.95 169.836 307.866C170.049 307.782 170.244 307.657 170.407 307.497C170.571 307.337 170.701 307.146 170.79 306.935C170.879 306.724 170.925 306.497 170.925 306.268C170.904 305.801 170.701 305.361 170.36 305.041C170.02 304.72 169.568 304.546 169.1 304.554C168.871 304.548 168.643 304.589 168.43 304.672C168.216 304.756 168.022 304.882 167.858 305.042C167.694 305.202 167.563 305.393 167.474 305.604C167.385 305.815 167.34 306.042 167.34 306.272Z" fill="#263238"/>
<path d="M165.824 299.12C166.059 299.342 167.361 298.263 169.29 298.162C171.214 298.034 172.683 298.948 172.88 298.7C172.977 298.59 172.727 298.181 172.087 297.766C171.221 297.234 170.211 296.982 169.197 297.046C168.194 297.098 167.234 297.467 166.455 298.101C165.887 298.588 165.709 299.022 165.824 299.12Z" fill="#263238"/>
<path d="M178.213 314.24C177.179 313.978 176.117 313.845 175.051 313.847C174.556 313.823 174.085 313.751 173.983 313.419C173.913 312.913 174 312.398 174.231 311.942C174.629 310.726 175.046 309.449 175.482 308.114C177.21 302.666 178.433 298.197 178.213 298.13C177.993 298.062 176.413 302.423 174.684 307.871C174.27 309.213 173.874 310.496 173.497 311.718C173.22 312.329 173.167 313.018 173.348 313.664C173.429 313.834 173.547 313.983 173.694 314.1C173.841 314.217 174.013 314.299 174.197 314.339C174.473 314.398 174.756 314.422 175.039 314.41C176.1 314.488 177.166 314.431 178.213 314.24Z" fill="#263238"/>
<path d="M179.124 337.073C185.707 336.812 192.089 334.729 197.558 331.056C197.558 331.056 193.106 341.012 179.053 340.472L179.124 337.073Z" fill="#FF9A6C"/>
<path d="M183.959 315.262C183.645 315.261 183.756 317.354 182.046 318.937C180.34 320.526 178.097 320.413 178.096 320.706C178.074 320.839 178.615 321.086 179.558 321.059C180.785 321.009 181.955 320.528 182.862 319.701C183.732 318.906 184.259 317.803 184.332 316.627C184.364 315.748 184.102 315.242 183.959 315.262Z" fill="#263238"/>
<path d="M166.481 292.369C166.83 292.822 168.289 292.426 170.022 292.475C171.756 292.468 173.209 292.899 173.565 292.455C173.722 292.238 173.508 291.79 172.885 291.349C172.031 290.815 171.047 290.526 170.04 290.514C169.034 290.502 168.043 290.767 167.177 291.28C166.547 291.705 166.327 292.148 166.481 292.369Z" fill="#263238"/>
<path d="M188.379 305.786C188.392 306.253 188.221 306.707 187.904 307.051C187.587 307.395 187.148 307.601 186.681 307.625C186.453 307.648 186.223 307.624 186.004 307.556C185.786 307.488 185.583 307.376 185.408 307.229C185.233 307.081 185.089 306.9 184.986 306.696C184.882 306.492 184.82 306.269 184.803 306.041C184.791 305.573 184.961 305.119 185.278 304.776C185.594 304.432 186.033 304.225 186.5 304.2C186.728 304.177 186.958 304.201 187.177 304.269C187.396 304.337 187.599 304.448 187.774 304.596C187.949 304.744 188.093 304.925 188.197 305.13C188.301 305.334 188.363 305.557 188.379 305.786Z" fill="#263238"/>
<path d="M191.913 298.374C191.694 298.612 190.318 297.63 188.387 297.669C186.458 297.68 185.059 298.698 184.845 298.465C184.741 298.362 184.96 297.936 185.569 297.476C186.394 296.882 187.383 296.559 188.399 296.549C189.403 296.528 190.388 296.827 191.21 297.403C191.812 297.848 192.02 298.267 191.913 298.374Z" fill="#263238"/>
<path d="M190.755 292.197C190.382 292.642 188.884 292.214 187.093 292.223C185.302 292.177 183.791 292.575 183.434 292.123C183.277 291.903 183.508 291.46 184.164 291.033C185.059 290.502 186.087 290.235 187.127 290.263C188.164 290.255 189.182 290.543 190.062 291.093C190.703 291.533 190.918 291.981 190.755 292.197Z" fill="#263238"/>
<path d="M204.82 309.254C204.766 308.214 205.833 305.695 206.852 305.478C209.572 304.9 214.529 304.849 214.958 311.814C215.543 321.335 205.864 319.959 205.83 319.687C205.804 319.474 205.009 312.847 204.82 309.254Z" fill="#FFBF9D"/>
<path d="M208.242 316.047C208.282 316.014 208.415 316.153 208.703 316.264C209.108 316.408 209.553 316.39 209.945 316.214C210.928 315.783 211.676 314.134 211.617 312.415C211.591 311.597 211.383 310.795 211.007 310.068C210.899 309.776 210.722 309.515 210.491 309.306C210.26 309.098 209.982 308.949 209.681 308.872C209.487 308.834 209.286 308.864 209.112 308.958C208.939 309.051 208.803 309.203 208.73 309.386C208.618 309.661 208.691 309.847 208.641 309.866C208.616 309.892 208.427 309.72 208.48 309.322C208.518 309.083 208.637 308.864 208.818 308.702C209.068 308.488 209.392 308.381 209.72 308.403C210.116 308.457 210.491 308.611 210.81 308.85C211.129 309.09 211.382 309.408 211.543 309.773C211.999 310.572 212.253 311.471 212.281 312.391C212.339 314.314 211.467 316.169 210.115 316.652C209.864 316.742 209.596 316.774 209.33 316.747C209.065 316.719 208.81 316.632 208.582 316.493C208.273 316.276 208.21 316.066 208.242 316.047Z" fill="#FF9A6C"/>
<path d="M207.239 305.506L204.82 308.015C194.374 298.016 173.959 272.98 175.099 274.472C179.86 272.694 184.99 272.137 190.022 272.852C197.79 274.175 212.523 278.063 212.297 287.224C212.071 296.385 207.239 305.506 207.239 305.506Z" fill="#263238"/>
<path d="M221.075 303.403C221.048 303.215 220.999 303.03 220.929 302.852C220.756 302.335 220.539 301.832 220.28 301.351C219.296 299.587 217.938 298.059 216.301 296.874C213.872 295.14 211.162 293.836 208.29 293.021C205.105 291.983 201.515 291.178 197.991 289.665C194.662 288.278 191.506 286.51 188.584 284.396C186.2 282.666 183.978 280.724 181.945 278.592C180.579 277.148 179.298 275.627 178.106 274.036C177.717 273.501 177.4 273.066 177.151 272.723C177.049 272.563 176.929 272.414 176.793 272.281C176.866 272.456 176.958 272.623 177.069 272.778C177.268 273.092 177.549 273.565 177.952 274.147C179.091 275.791 180.341 277.355 181.694 278.828C183.708 281.012 185.927 282.998 188.32 284.76C191.256 286.916 194.44 288.714 197.804 290.115C201.194 291.405 204.649 292.517 208.154 293.449C210.989 294.232 213.673 295.483 216.096 297.151C217.718 298.289 219.087 299.751 220.115 301.444C220.813 302.66 221.026 303.422 221.075 303.403Z" fill="#455A64"/>
<path d="M218.303 304.902C218.329 304.19 218.203 303.481 217.934 302.821C217.219 301.002 215.972 299.439 214.356 298.339C211.942 296.782 209.241 295.723 206.411 295.224C203.015 294.547 199.704 293.496 196.538 292.091C193.391 290.651 190.435 288.826 187.737 286.658C185.535 284.884 183.514 282.898 181.703 280.727C180.486 279.258 179.362 277.713 178.339 276.103C178.011 275.561 177.744 275.12 177.532 274.77C177.446 274.608 177.342 274.457 177.221 274.319C177.275 274.493 177.351 274.66 177.445 274.817C177.637 275.181 177.879 275.639 178.176 276.201C179.144 277.861 180.233 279.447 181.436 280.945C185.433 285.915 190.535 289.883 196.336 292.535C199.53 293.954 202.877 295.003 206.31 295.662C209.092 296.13 211.758 297.134 214.156 298.62C215.744 299.665 216.994 301.148 217.756 302.889C218 303.542 218.183 304.216 218.303 304.902Z" fill="#455A64"/>
<path d="M206.926 321.625C206.917 321.561 207.733 321.455 209.142 321.087C211.121 320.509 212.942 319.491 214.47 318.109C216.701 316.016 218.399 313.419 219.42 310.536C220.721 307.016 221.419 303.303 221.484 299.551C221.608 295.802 220.913 292.07 219.445 288.618C218.239 285.801 216.572 283.205 214.513 280.936C212.564 278.881 210.424 277.016 208.122 275.366C208.31 275.432 208.488 275.524 208.65 275.64C208.979 275.846 209.487 276.119 210.088 276.551C211.814 277.738 213.408 279.108 214.84 280.636C216.986 282.906 218.724 285.529 219.977 288.389C221.51 291.91 222.239 295.728 222.112 299.566C222.046 303.389 221.317 307.171 219.959 310.745C218.884 313.698 217.099 316.341 214.764 318.442C213.168 319.834 211.262 320.822 209.205 321.323C208.65 321.453 208.086 321.543 207.519 321.592C207.324 321.631 207.124 321.642 206.926 321.625Z" fill="#455A64"/>
<path d="M219.04 438.755L162.727 446.932C141.576 452.918 119.292 454.672 95.9961 452.649L180.744 492.183L214.768 492.712C214.768 492.712 225.128 492.744 226.938 483.673C228.777 474.462 230.761 447.113 230.761 447.113C230.761 447.113 224.038 441.267 219.04 438.755Z" fill="#263238"/>
<g opacity="0.3">
<path opacity="0.3" d="M218.876 462.459C219.801 468.096 220.134 473.815 219.87 479.522C221.601 477.623 222.876 475.355 223.599 472.89C224.322 470.425 224.474 467.828 224.044 465.295C223.548 462.513 222.39 459.455 223.847 457.032C224.823 455.407 227.407 453.541 227.03 451.682C227.03 451.682 224.767 451.682 222.713 451.6C221.068 451.534 217.643 451.433 217.643 451.433C219.124 454.971 219.442 458.889 218.553 462.62" fill="black"/>
</g>
<path d="M178.904 346.787L206.265 343.832L211.271 348.391L191.74 359.873L183.123 364.336L174.612 361.752L171.916 356.68L178.904 346.787Z" fill="#FFBF9D"/>
<path d="M142.023 380.102C142.023 380.102 150.6 363.643 152.723 360.047C156.343 353.918 163.096 350.444 163.096 350.444L178.904 346.787C178.904 346.787 177.263 354.707 187.1 355.254C199.611 355.95 207.383 343.953 207.383 343.953C207.383 343.953 221.657 345.422 225.599 347.078C229.54 348.734 240.691 353.399 242.327 368.225L246.147 392.429L215.988 394.727L216.405 426.949L203.59 437.431C203.59 437.431 166.792 450.103 164.442 450.934C163.331 451.327 163.603 435.69 160.973 422.292L156.006 410.232C153.995 405.412 152.807 400.289 152.49 395.076C152.297 391.645 152.391 389.05 152.391 389.05C152.391 389.05 144.655 386.39 142.023 380.102Z" fill="#455A64"/>
<path d="M165.786 438.279L216.347 423.102L215.989 394.727L241.738 392.765C241.738 392.765 239.683 407.469 239.382 415.007C238.949 425.85 233.733 441.004 230.245 444.221C226.756 447.438 164.443 450.934 164.443 450.934L165.786 438.279Z" fill="#FFBF9D"/>
<path d="M137.111 447.202C137.311 447.544 137.608 447.818 137.964 447.991C138.321 448.163 138.72 448.225 139.112 448.169C139.28 448.141 139.445 448.094 139.602 448.03C140.712 447.577 140.426 445.269 140.426 445.269L145.807 443.957C145.807 443.957 153.249 447.979 156.005 450.813C158.761 453.647 165.003 450.695 165.003 450.695L166.333 438.905L155.599 430.61C155.599 430.61 156.257 431.103 155.434 429.46C154.611 427.816 151.508 428.702 151.508 428.702C150.952 427.901 148.87 427.76 148.87 427.76L140.149 429.455C139.262 429.628 138.425 429.997 137.699 430.535C136.973 431.074 136.377 431.768 135.955 432.567L132.69 438.746C132.69 438.746 131.053 443.139 131.446 444.1C131.616 444.501 131.929 444.825 132.324 445.009C132.719 445.194 133.169 445.225 133.586 445.098C133.586 445.098 134.234 447.852 134.974 447.893C135.723 447.798 136.448 447.564 137.111 447.202Z" fill="#FFBF9D"/>
<path d="M155.192 437.408C155.19 437.501 154.011 437.484 152.138 437.711C149.703 438.016 147.322 438.655 145.061 439.611C143.821 440.138 142.624 440.763 141.481 441.48C140.464 442.161 139.393 442.739 139.113 443.54C139.05 443.714 139.033 443.901 139.064 444.084C139.095 444.266 139.173 444.438 139.29 444.581C139.47 444.818 139.716 444.995 139.998 445.091C140.253 445.153 140.517 445.171 140.778 445.145C140.801 445.156 140.524 445.408 139.942 445.303C139.596 445.23 139.282 445.047 139.047 444.782C138.881 444.602 138.765 444.382 138.71 444.143C138.655 443.904 138.663 443.656 138.733 443.421C138.926 442.89 139.274 442.43 139.732 442.099C140.187 441.748 140.664 441.389 141.201 441.044C144.46 438.901 148.21 437.618 152.099 437.315C153.129 437.188 154.172 437.219 155.192 437.408Z" fill="#FF9A6C"/>
<path d="M156.242 442.971C156.245 443.139 152.653 443.267 148.274 443.865C143.891 444.448 140.393 445.276 140.352 445.114C141.064 444.769 141.821 444.522 142.599 444.38C146.292 443.458 150.075 442.948 153.88 442.859C154.669 442.79 155.464 442.828 156.242 442.971Z" fill="#FF9A6C"/>
<path d="M137.143 446.975C137.046 446.673 136.984 446.361 136.96 446.046C136.838 445.192 136.769 444.332 136.755 443.469C136.741 442.866 136.777 442.263 136.862 441.666C136.97 440.964 137.213 440.29 137.578 439.682C138.34 438.282 139.372 437.048 140.614 436.05C141.838 435.043 143.2 434.217 144.658 433.597C145.868 433.148 147.13 432.854 148.414 432.724C149.499 432.601 150.377 432.557 150.984 432.533C151.299 432.492 151.619 432.5 151.932 432.556C150.79 432.814 149.634 433.001 148.469 433.118C147.23 433.3 146.016 433.622 144.85 434.078C143.455 434.706 142.15 435.516 140.968 436.487C139.779 437.443 138.781 438.615 138.027 439.941C137.415 441.016 137.113 442.238 137.153 443.474C137.106 445.62 137.265 446.969 137.143 446.975Z" fill="#FF9A6C"/>
<path d="M148.618 430.028C148.625 430.112 147.31 430.249 145.227 430.653C143.226 431.121 139.998 431.52 138.369 434.453C136.739 436.678 135.425 439.116 134.462 441.7C134.163 442.798 133.969 443.923 133.884 445.058C133.783 444.76 133.741 444.444 133.76 444.129C133.743 443.272 133.85 442.417 134.079 441.591C134.946 438.917 136.237 436.4 137.903 434.137C138.348 433.452 138.878 432.826 139.48 432.275C140.069 431.778 140.746 431.394 141.475 431.143C142.67 430.726 143.904 430.431 145.159 430.261C146.297 430.034 147.459 429.956 148.618 430.028Z" fill="#FF9A6C"/>
<path d="M153.935 449.087C153.738 448.987 153.553 448.866 153.381 448.728C152.981 448.454 152.462 448.1 151.816 447.659C149.855 446.365 147.821 445.184 145.725 444.123L145.851 444.138C144.247 444.54 142.438 444.994 140.479 445.486L140.648 445.242C140.698 445.687 140.698 446.136 140.649 446.581C140.616 447.075 140.437 447.548 140.133 447.939C139.944 448.135 139.702 448.27 139.436 448.327C139.191 448.413 138.931 448.448 138.673 448.431C138.14 448.392 137.638 448.163 137.259 447.786C137.163 447.692 137.076 447.591 136.997 447.482L136.941 447.399L136.913 447.357L136.899 447.336L136.898 447.333C136.825 447.311 137.523 447.507 137.226 447.425L137.22 447.428L137.209 447.434L137.042 447.517C136.82 447.626 136.592 447.727 136.358 447.821C136.12 447.918 135.875 447.999 135.626 448.065C135.494 448.1 135.36 448.125 135.225 448.14C135.052 448.17 134.874 448.149 134.713 448.082C134.456 447.915 134.252 447.68 134.123 447.403C133.997 447.167 133.888 446.924 133.794 446.675C133.608 446.179 133.451 445.674 133.325 445.159L133.66 445.355C133.297 445.465 132.911 445.473 132.544 445.379C132.176 445.284 131.842 445.091 131.577 444.82C131.302 444.529 131.139 444.151 131.117 443.752C131.115 443.393 131.152 443.034 131.229 442.683C131.531 441.311 131.932 439.963 132.428 438.648L132.433 438.632L132.442 438.615C132.997 437.564 133.587 436.448 134.183 435.319C134.554 434.617 134.922 433.921 135.287 433.23C135.621 432.508 136.034 431.825 136.518 431.194C137.036 430.583 137.674 430.085 138.391 429.729C139.091 429.406 139.836 429.19 140.6 429.089C143.49 428.536 146.246 428.008 148.822 427.514L148.857 427.507L148.887 427.51C149.389 427.552 149.887 427.642 150.371 427.781C150.888 427.894 151.355 428.169 151.703 428.567L151.391 428.495C151.824 428.255 152.308 428.125 152.803 428.114C153.297 428.103 153.787 428.213 154.229 428.434C155.005 428.914 155.567 429.672 155.8 430.554L155.725 430.444C158.806 432.812 161.321 434.744 163.12 436.126C163.95 436.78 164.615 437.304 165.115 437.697C165.356 437.871 165.581 438.065 165.787 438.279C165.525 438.14 165.275 437.977 165.042 437.794C164.524 437.421 163.837 436.927 162.98 436.311C161.154 434.965 158.602 433.083 155.474 430.777L155.423 430.74L155.398 430.667C155.185 429.902 154.691 429.245 154.016 428.828C153.64 428.65 153.226 428.564 152.811 428.578C152.395 428.592 151.988 428.706 151.625 428.909L151.439 429.005L151.312 428.838C151.02 428.539 150.645 428.334 150.235 428.25C149.783 428.126 149.32 428.045 148.853 428.01L148.918 428.005C146.344 428.513 143.591 429.056 140.704 429.626C139.989 429.72 139.292 429.922 138.637 430.225C137.989 430.549 137.413 431.001 136.945 431.555C136.488 432.156 136.099 432.806 135.784 433.492C135.419 434.183 135.051 434.88 134.68 435.581C134.083 436.71 133.493 437.826 132.938 438.876L132.952 438.844C132.466 440.129 132.071 441.446 131.769 442.787C131.701 443.096 131.665 443.413 131.664 443.73C131.68 444.002 131.792 444.26 131.981 444.457C132.178 444.652 132.424 444.792 132.693 444.859C132.962 444.927 133.244 444.921 133.51 444.841L133.781 444.775L133.846 445.037C133.964 445.528 134.111 446.013 134.287 446.487C134.409 446.914 134.636 447.303 134.948 447.62C135.021 447.639 135.097 447.641 135.171 447.627C135.283 447.615 135.393 447.595 135.502 447.567C135.729 447.508 135.953 447.435 136.172 447.348C136.392 447.261 136.611 447.166 136.823 447.064L136.98 446.987L136.989 446.982L136.994 446.98C136.699 446.897 137.398 447.092 137.327 447.073L137.328 447.075L137.339 447.091L137.361 447.125L137.404 447.191C137.466 447.277 137.534 447.358 137.609 447.432C137.902 447.729 138.291 447.911 138.706 447.946C138.908 447.961 139.111 447.934 139.302 447.866C139.484 447.835 139.653 447.749 139.784 447.618C140.194 446.919 140.343 446.096 140.204 445.296L140.189 445.095L140.373 445.052C142.339 444.587 144.154 444.157 145.763 443.777L145.832 443.76L145.89 443.791C147.984 444.888 150.003 446.124 151.931 447.492C152.603 447.977 153.11 448.369 153.444 448.645C153.623 448.775 153.787 448.923 153.935 449.087Z" fill="#FF9A6C"/>
<path d="M127.655 456.404C127.655 456.404 91.978 445.194 80.7706 441.561C61.4772 435.307 48.8458 441.629 44.8625 448.532C39.6935 457.49 52.0879 474.954 56.862 478.968C71.0095 490.863 95.2594 492.466 95.2594 492.466L182.454 492.302L156.995 457.785L127.655 456.404Z" fill="#263238"/>
<path d="M132.992 472.588C118.462 474.276 103.742 472.274 90.192 466.765C87.8737 465.715 85.4852 464.827 83.0439 464.108C80.64 463.499 78.147 463.323 75.6815 463.588C74.7012 463.612 73.7357 463.833 72.8424 464.237C71.9491 464.641 71.1462 465.221 70.4815 465.942C68.7427 468.236 69.6372 471.495 70.603 474.207C71.7349 477.385 72.9134 480.645 75.1271 483.191C77.7161 486.168 81.4699 487.87 85.2332 489.056C92.5953 491.376 100.371 492.041 108.084 492.347L134.583 490.897L132.992 472.588Z" fill="#E0E0E0"/>
<path d="M81.8275 464.12C81.8594 464.105 82.0146 464.352 82.2336 464.831C82.5353 465.512 82.7703 466.221 82.9351 466.948C83.5001 469.37 83.3964 471.899 82.6351 474.267C81.8738 476.634 80.4836 478.75 78.613 480.388C78.0555 480.883 77.4514 481.322 76.8092 481.7C76.5855 481.861 76.3325 481.977 76.0645 482.041C76.0119 481.958 77.0225 481.381 78.3446 480.098C80.077 478.441 81.3688 476.378 82.1027 474.096C82.8366 471.813 82.9896 469.384 82.5478 467.028C82.2208 465.215 81.736 464.157 81.8275 464.12Z" fill="#263238"/>
<path d="M218.711 454.218C216.64 448.35 216.294 439.72 203.523 435.578C190.752 431.436 181.087 439.375 174.528 442.136C167.97 444.898 132.072 464.573 132.072 464.573C132.072 464.573 125.313 476.627 127.237 481.947C129.162 487.267 137.905 492.532 137.905 492.532H178.04C188.395 492.532 207.665 492.187 207.665 492.187C210.236 487.962 212.542 483.581 214.568 479.07L214.914 477.344C214.914 475.964 220.782 460.086 218.711 454.218Z" fill="#263238"/>
<path d="M196.474 484.707C196.426 484.912 196.324 485.101 196.179 485.254C195.79 485.704 195.346 486.104 194.857 486.444C193.071 487.682 191.171 488.746 189.182 489.623C187.82 490.257 186.421 490.808 184.992 491.27C183.34 491.778 181.648 492.143 179.934 492.362C176.017 492.755 172.079 492.909 168.143 492.824C159.793 492.959 152.229 493.272 146.745 493.211C144.003 493.191 141.783 493.08 140.256 492.921C139.668 492.868 139.084 492.786 138.505 492.674C138.299 492.651 138.098 492.603 137.904 492.532C137.914 492.474 138.748 492.624 140.274 492.704C141.798 492.795 144.01 492.846 146.745 492.816C152.215 492.775 159.771 492.4 168.135 492.265C172.051 492.35 175.968 492.212 179.867 491.852C181.556 491.649 183.225 491.306 184.856 490.827C186.274 490.387 187.664 489.864 189.021 489.262C191.005 488.425 192.916 487.422 194.732 486.266C195.222 485.952 195.678 485.588 196.093 485.18C196.377 484.899 196.439 484.692 196.474 484.707Z" fill="#263238"/>
<path d="M137.904 492.532C137.723 492.447 137.545 492.353 137.373 492.25C137.029 492.052 136.526 491.742 135.879 491.319C133.993 490.088 132.226 488.683 130.602 487.123C129.42 485.995 128.414 484.697 127.616 483.272C126.793 481.486 126.586 479.478 127.028 477.563C127.996 472.984 129.631 468.573 131.879 464.469L131.908 464.414L131.967 464.381C138.537 460.766 146.079 456.65 154.32 452.226C158.443 450.018 162.739 447.73 167.197 445.428C169.432 444.284 171.685 443.111 174.053 442.046C176.409 441.045 178.663 439.736 181.018 438.537C184.274 436.753 187.767 435.44 191.392 434.637C193.169 434.278 194.98 434.112 196.793 434.142C198.569 434.201 200.332 434.455 202.052 434.899C205.385 435.715 208.515 437.21 211.246 439.289C212.518 440.339 213.642 441.556 214.587 442.908C215.464 444.237 216.188 445.661 216.744 447.153C217.306 448.609 217.715 450.081 218.123 451.511C218.593 452.904 218.976 454.324 219.272 455.764C219.449 458.519 219.219 461.284 218.587 463.971C218.069 466.529 217.436 468.917 216.805 471.147C216.481 472.258 216.167 473.333 215.864 474.372C215.55 475.349 215.287 476.341 215.075 477.344L215.072 477.376C214.939 478.029 214.828 478.571 214.72 479.1L214.718 479.109L214.716 479.114C213.626 482.636 212.076 485.998 210.106 489.115C209.41 490.227 208.591 491.258 207.664 492.187C207.707 492.113 207.757 492.044 207.815 491.98C207.936 491.832 208.091 491.643 208.289 491.401C208.891 490.64 209.451 489.847 209.967 489.026C211.868 485.895 213.364 482.535 214.419 479.027L214.416 479.04C215.07 478.494 214.942 477.958 214.754 477.313L214.751 477.344C214.949 476.307 215.209 475.281 215.527 474.274C215.822 473.235 216.127 472.158 216.443 471.045C217.057 468.817 217.673 466.433 218.174 463.889C218.78 461.246 218.996 458.529 218.814 455.823C218.515 454.408 218.13 453.012 217.663 451.643C217.248 450.213 216.839 448.757 216.282 447.33C215.735 445.876 215.025 444.489 214.166 443.195C213.245 441.888 212.153 440.71 210.917 439.695C208.241 437.671 205.178 436.217 201.918 435.424C200.237 434.994 198.514 434.748 196.78 434.692C195.008 434.665 193.238 434.829 191.5 435.182C187.927 435.977 184.483 437.274 181.273 439.035C178.934 440.225 176.666 441.542 174.275 442.557C171.942 443.604 169.678 444.779 167.449 445.918C162.993 448.212 158.695 450.492 154.569 452.69C146.341 457.127 138.78 461.203 132.176 464.764L132.263 464.677C130.016 468.732 128.369 473.092 127.373 477.62C126.928 479.464 127.107 481.404 127.883 483.135C128.654 484.542 129.629 485.827 130.776 486.948C132.374 488.518 134.105 489.945 135.951 491.213L137.407 492.194C137.739 492.412 137.904 492.532 137.904 492.532Z" fill="#263238"/>
<path d="M203.228 477.644C203.228 477.644 215.183 479.069 214.12 484.924C213.058 490.779 209.151 492.744 209.151 492.744L176.652 492.813C176.652 492.813 196.058 491.461 203.228 477.644Z" fill="#E0E0E0"/>
<path d="M204.387 474.8C204.381 475.373 204.257 475.938 204.023 476.46C203.574 477.764 202.92 478.987 202.084 480.084C200.948 481.686 199.354 482.907 197.512 483.587C199.02 482.455 200.405 481.167 201.641 479.743C202.692 478.174 203.61 476.521 204.387 474.8Z" fill="#263238"/>
<path d="M200.236 477.098C200.247 478.566 199.847 480.008 199.081 481.261C198.498 482.6 197.604 483.781 196.474 484.707C196.347 484.601 197.525 483.09 198.583 481.007C199.675 478.937 200.082 477.074 200.236 477.098Z" fill="#263238"/>
<path d="M215.491 491.111C215.402 491.065 216.171 489.582 217.109 487.071C219.564 480.506 220.372 473.439 219.461 466.49C219.114 463.831 218.7 462.214 218.797 462.189C218.968 462.543 219.094 462.917 219.173 463.303C219.459 464.332 219.686 465.377 219.852 466.432C220.993 473.446 220.171 480.639 217.477 487.215C217.077 488.205 216.621 489.172 216.109 490.11C215.945 490.468 215.738 490.804 215.491 491.111Z" fill="#455A64"/>
<g opacity="0.3">
<path opacity="0.3" d="M208.727 474.489C208.642 473.702 208.331 472.769 207.555 472.611C206.609 472.418 205.959 473.506 205.576 474.393C201.455 483.924 187.899 491.348 177.559 492.307C182.587 492.296 187.606 491.886 192.57 491.082C196.801 490.443 200.767 488.629 204.018 485.846C205.624 484.443 206.885 482.689 207.701 480.719C208.518 478.749 208.869 476.617 208.727 474.489Z" fill="black"/>
</g>
<path d="M129.545 461.521C127.566 460.966 125.641 460.234 123.793 459.333C121.873 458.602 120.023 457.699 118.266 456.634C120.246 457.188 122.171 457.92 124.019 458.822C125.939 459.552 127.789 460.456 129.545 461.521Z" fill="#263238"/>
<g opacity="0.2">
<path opacity="0.2" d="M141.136 456.498C125.661 453.538 110.129 450.908 94.5383 448.607L82.9258 452.279C86.1802 458.331 92.6118 462.184 99.295 463.783C105.978 465.382 112.964 464.996 119.807 464.366C127.343 463.672 135.081 462.619 141.639 458.841C142.14 458.552 142.7 458.122 142.639 457.546C142.57 456.892 141.781 456.621 141.136 456.498Z" fill="black"/>
</g>
<path d="M64.9352 410.394L84.4341 453.53C84.8295 454.405 85.4661 455.149 86.2693 455.675C87.0725 456.201 88.0089 456.486 88.9688 456.499L145.841 457.236L153.011 453.377L141.783 452.556L124.307 410.613C124.035 409.959 123.576 409.399 122.987 409.004C122.399 408.608 121.708 408.395 120.999 408.389L66.5084 407.977C66.2211 407.975 65.9379 408.045 65.6849 408.181C65.4318 408.317 65.2171 408.514 65.0604 408.755C64.9037 408.996 64.8101 409.272 64.7882 409.559C64.7663 409.845 64.8168 410.132 64.9352 410.394Z" fill="#E0E0E0"/>
<path d="M64.9351 410.394C64.8415 410.235 64.7831 410.058 64.7641 409.874C64.7337 409.636 64.7526 409.394 64.8198 409.164C64.887 408.933 65.0009 408.719 65.1545 408.535C65.3081 408.35 65.4981 408.199 65.7125 408.091C65.927 407.984 66.1614 407.921 66.4011 407.908C66.839 407.905 67.3157 407.901 67.8313 407.897C68.8671 407.897 70.0548 407.897 71.3944 407.896C76.7889 407.914 84.5659 407.94 94.2171 407.971C99.0557 407.996 104.363 408.023 110.075 408.053C112.932 408.069 115.887 408.086 118.941 408.103C119.71 408.111 120.484 408.119 121.265 408.127C122.109 408.191 122.91 408.528 123.546 409.087C124.152 409.664 124.601 410.386 124.851 411.186C125.158 411.921 125.467 412.66 125.779 413.405C130.758 425.328 136.257 438.499 142.076 452.434L141.806 452.239C145.261 452.492 148.935 452.76 152.65 453.031C152.781 453.041 152.913 453.051 153.034 453.06L154.125 453.139L153.162 453.658C150.699 454.983 148.27 456.29 145.992 457.516L145.919 457.555L145.837 457.554C130.456 457.343 115.896 457.144 102.703 456.964C99.4057 456.916 96.1969 456.87 93.0764 456.825C91.5069 456.789 90.0071 456.808 88.4479 456.729C87.6689 456.64 86.9192 456.38 86.2523 455.968C85.5853 455.556 85.0177 455.002 84.59 454.345C82.0508 449.004 79.9307 444.062 77.8734 439.544C73.8437 430.529 70.5933 423.257 68.338 418.21C67.2371 415.715 66.3796 413.771 65.7853 412.424C65.5084 411.78 65.2933 411.28 65.1369 410.916C64.994 410.575 64.9351 410.394 64.9351 410.394C64.9351 410.394 65.0322 410.558 65.1937 410.89C65.3631 411.248 65.5968 411.74 65.8972 412.373C66.5158 413.71 67.4086 415.638 68.5544 418.113C70.8523 423.139 74.164 430.384 78.2695 439.365C80.336 443.841 82.534 448.871 85.0195 454.065C85.4075 454.656 85.9212 455.154 86.524 455.524C87.1267 455.893 87.8036 456.125 88.5063 456.203C89.9626 456.27 91.5368 456.251 93.0834 456.28C96.2012 456.316 99.4101 456.353 102.71 456.391C115.903 456.552 130.464 456.73 145.845 456.919L145.691 456.957C147.969 455.73 150.397 454.423 152.86 453.097L152.988 453.695C152.867 453.686 152.735 453.676 152.603 453.667C148.889 453.395 145.215 453.125 141.76 452.872L141.565 452.858L141.49 452.677C135.693 438.734 130.214 425.555 125.254 413.624C124.944 412.879 124.637 412.138 124.331 411.402C124.117 410.68 123.72 410.026 123.179 409.503C122.634 409.022 121.948 408.731 121.224 408.674C120.456 408.664 119.693 408.654 118.937 408.644C115.886 408.615 112.931 408.587 110.071 408.561C104.359 408.503 99.0522 408.45 94.2138 408.402C84.5631 408.287 76.7867 408.195 71.3927 408.131C70.0552 408.111 68.8676 408.092 67.83 408.077C67.3178 408.07 66.844 408.064 66.4088 408.058C66.0277 408.072 65.6634 408.218 65.3791 408.472C65.1857 408.647 65.0351 408.863 64.9391 409.105C64.843 409.347 64.804 409.608 64.8252 409.867C64.8503 410.045 64.8871 410.221 64.9351 410.394Z" fill="#263238"/>
<path d="M140.111 457.162C140.003 457.018 139.915 456.86 139.85 456.691C139.674 456.314 139.46 455.855 139.2 455.298C138.626 454 137.854 452.253 136.916 450.131C135.014 445.756 132.432 439.693 129.652 432.966C126.871 426.237 124.423 420.117 122.721 415.659C121.874 413.428 121.197 411.62 120.762 410.358C120.564 409.777 120.401 409.297 120.268 408.903C120.198 408.737 120.152 408.562 120.131 408.383C120.233 408.531 120.315 408.693 120.373 408.864C120.533 409.247 120.729 409.715 120.965 410.281C121.499 411.597 122.217 413.365 123.089 415.514C124.931 419.999 127.419 426.057 130.169 432.753C132.931 439.442 135.43 445.495 137.28 449.977C138.151 452.128 138.867 453.897 139.4 455.213C139.621 455.786 139.804 456.259 139.953 456.647C140.029 456.811 140.082 456.984 140.111 457.162Z" fill="#263238"/>
<path d="M104.827 431.307C104.827 431.858 104.664 432.397 104.357 432.856C104.051 433.315 103.615 433.672 103.106 433.883C102.596 434.094 102.036 434.15 101.495 434.042C100.954 433.934 100.457 433.669 100.067 433.279C99.6768 432.889 99.4112 432.392 99.3036 431.851C99.196 431.31 99.2512 430.749 99.4623 430.24C99.6733 429.73 100.031 429.295 100.489 428.988C100.948 428.682 101.487 428.518 102.039 428.518C102.778 428.518 103.488 428.812 104.011 429.335C104.533 429.858 104.827 430.567 104.827 431.307Z" fill="white"/>
<path d="M160.2 361.922C160.287 361.97 159.468 363.505 158.318 366.06C155.306 372.715 153.332 379.792 152.464 387.046C152.125 389.827 152.032 391.563 151.933 391.56C151.86 391.156 151.84 390.744 151.873 390.335C151.868 389.546 151.92 388.406 152.035 387.001C152.674 379.655 154.672 372.492 157.928 365.876C158.557 364.614 159.102 363.612 159.515 362.939C159.698 362.572 159.929 362.23 160.2 361.922Z" fill="#263238"/>
<path d="M246.148 392.429C245.944 392.484 245.734 392.517 245.523 392.526C245.056 392.572 244.456 392.631 243.712 392.704C242.065 392.842 239.781 393.033 236.953 393.27C231.128 393.709 223.072 394.316 213.84 395.012L213.542 395.034L213.523 394.736C213.329 391.667 213.125 388.425 212.914 385.093C212.587 379.29 212.307 373.761 212.217 368.719C211.916 364.195 212.947 359.681 215.183 355.736C216.703 353.084 218.952 350.924 221.662 349.509C222.397 349.139 223.165 348.84 223.957 348.616C224.227 348.522 224.506 348.454 224.79 348.413C224.817 348.496 223.643 348.734 221.772 349.719C219.163 351.183 217.011 353.341 215.555 355.953C213.418 359.848 212.453 364.278 212.778 368.709C212.898 373.733 213.195 379.26 213.522 385.058C213.727 388.389 213.926 391.628 214.114 394.696L213.798 394.42C223.036 393.809 231.097 393.276 236.926 392.891C239.76 392.727 242.047 392.595 243.698 392.5C244.445 392.467 245.046 392.441 245.516 392.421C245.726 392.4 245.938 392.403 246.148 392.429Z" fill="#263238"/>
<path d="M189.448 412.14C189.094 412.067 188.754 411.941 188.437 411.768C188.046 411.609 187.669 411.42 187.307 411.203C186.814 410.94 186.337 410.647 185.879 410.326C184.672 409.505 183.556 408.559 182.55 407.501C180.073 404.897 178.27 401.727 177.299 398.266C176.905 396.861 176.662 395.418 176.574 393.961C176.532 393.403 176.524 392.843 176.551 392.285C176.549 391.863 176.579 391.442 176.642 391.025C176.655 390.665 176.722 390.308 176.84 389.967C176.96 389.977 176.763 391.499 177.003 393.926C177.149 395.343 177.429 396.744 177.838 398.109C178.844 401.46 180.595 404.54 182.96 407.119C183.924 408.168 184.985 409.124 186.129 409.975C188.091 411.422 189.5 412.031 189.448 412.14Z" fill="#263238"/>
</g>
<defs>
<clipPath id="clip0_196_3692">
<rect width="569" height="494" fill="white"/>
</clipPath>
</defs>
</svg>
