<svg width="533" height="483" viewBox="0 0 533 483" fill="none" xmlns="http://www.w3.org/2000/svg">
<path d="M489.049 384.954C494.231 382.285 500.332 381.937 506.084 382.887C509.175 383.397 512.397 384.321 514.5 386.639C516.603 388.957 517.001 393.036 514.587 395.028C513.029 396.081 511.152 396.556 509.28 396.373C504.777 396.32 499.781 395.528 496.183 398.234C494.131 399.778 492.764 402.344 490.31 403.103C489.082 403.387 487.795 403.264 486.643 402.752C485.491 402.24 484.538 401.368 483.927 400.267C482.757 398.014 482.499 395.398 483.205 392.96C483.496 391.266 484.175 389.662 485.188 388.274C486.202 386.885 487.524 385.749 489.049 384.954Z" fill="#EBEBEB"/>
<path d="M477.179 362.07C480.348 366.589 486.506 365.092 489.361 362.334C492.217 359.576 493.424 355.578 494.522 351.766C497.032 343.056 499.563 333.918 497.696 325.048C497.247 322.359 496.064 319.846 494.279 317.784C493.375 316.768 492.219 316.007 490.927 315.578C489.636 315.149 488.254 315.066 486.92 315.338C483.815 316.157 481.885 319.194 480.49 322.083C476.382 330.613 474.229 339.95 474.188 349.416C474.172 353.818 474.692 358.435 477.179 362.07Z" fill="#EBEBEB"/>
<path d="M468.48 368.553C471.92 364.476 472.573 358.53 471.042 353.422C469.511 348.314 466.053 343.969 462.068 340.422C457.378 336.252 451.919 333.036 445.997 330.953C443.704 330.028 441.239 329.61 438.769 329.726C437.536 329.798 436.339 330.169 435.281 330.808C434.224 331.446 433.34 332.333 432.704 333.391C431.013 336.612 432.634 340.519 434.388 343.707C437.48 349.325 441.009 354.692 444.943 359.758C448.107 363.832 451.731 367.85 456.553 369.69C461.375 371.531 466.383 371.315 468.939 367.975" fill="#EBEBEB"/>
<path d="M476.964 430.237C477.132 429.565 477.228 428.877 477.251 428.184C477.397 426.689 477.58 424.813 477.797 422.58C478.077 419.82 478.498 417.077 479.06 414.36C479.796 411.052 480.796 407.808 482.052 404.659C483.282 401.514 484.952 398.558 487.013 395.881C488.69 393.701 490.832 391.923 493.284 390.674C494.947 389.851 496.73 389.297 498.566 389.031C499.257 389.005 499.944 388.905 500.614 388.736C499.922 388.65 499.224 388.639 498.53 388.703C496.623 388.848 494.758 389.333 493.023 390.135C490.441 391.352 488.176 393.149 486.407 395.387C484.258 398.101 482.525 401.119 481.264 404.342C479.99 407.536 478.996 410.835 478.294 414.202C477.761 416.952 477.396 419.731 477.199 422.525C477.021 424.905 476.954 426.832 476.921 428.164C476.861 428.855 476.875 429.55 476.964 430.237Z" fill="#E0E0E0"/>
<path d="M477.349 425.925C477.405 425.611 477.423 425.291 477.404 424.972C477.402 424.256 477.4 423.354 477.397 422.248C477.39 419.883 477.392 416.461 477.519 412.236C477.728 403.785 478.457 394.69 479.864 381.867C481.197 369.81 482.986 355.778 484.874 346.655C485.278 344.58 485.686 342.713 486.07 341.078C486.436 339.439 486.748 338.026 487.05 336.883C487.309 335.807 487.52 334.931 487.688 334.235C487.78 333.929 487.836 333.614 487.854 333.295C487.709 333.578 487.598 333.878 487.523 334.188C487.315 334.874 487.053 335.738 486.731 336.799C486.379 337.932 486.019 339.335 485.608 340.967C485.18 342.596 484.73 344.458 484.287 346.53C481.948 357.319 480.19 368.226 479.02 379.203C477.61 392.053 476.975 403.752 476.919 412.225C476.868 416.461 476.958 419.89 477.067 422.256C477.134 423.362 477.19 424.264 477.233 424.979C477.234 425.298 477.273 425.616 477.349 425.925Z" fill="#E0E0E0"/>
<path d="M477.409 403.36C477.477 402.412 477.471 401.461 477.389 400.514C477.284 398.685 477.033 396.041 476.517 392.803C475.893 389.013 475.054 385.262 474.005 381.568C472.78 377.023 471.207 372.579 469.301 368.274C466.037 360.336 461.355 353.056 455.484 346.79C454.466 345.717 453.38 344.709 452.234 343.773C451.736 343.352 451.295 342.932 450.846 342.6C450.394 342.289 449.974 342 449.585 341.732C448.826 341.158 448.024 340.645 447.185 340.198C447.049 340.382 450.585 342.461 455.051 347.205C460.727 353.523 465.283 360.762 468.522 368.61C470.39 372.891 471.971 377.292 473.253 381.782C474.329 385.443 475.221 389.156 475.925 392.905C476.514 396.111 476.855 398.728 477.06 400.541C477.104 401.488 477.22 402.431 477.409 403.36Z" fill="#E0E0E0"/>
<path d="M455.566 443.165L457.831 474.144H497.682L499.947 443.165H455.566Z" fill="#E0E0E0"/>
<path d="M504.703 430.955H451.719V443.165H504.703V430.955Z" fill="#E0E0E0"/>
<path d="M451.719 472.958V476.342H454.209H503.827V472.958H451.719Z" fill="#EBEBEB"/>
<path d="M456.646 482.299L454.207 476.342H501.927L499.08 482.299H456.646Z" fill="#E0E0E0"/>
<path d="M499.209 453.289C499.16 453.392 499.098 453.488 499.023 453.574C498.865 453.783 498.669 454.043 498.428 454.363C497.862 455.086 497.085 456.08 496.107 457.329L496.003 457.461L495.903 457.323C494.444 455.308 492.495 452.616 490.2 449.446H490.528C488.832 451.845 486.942 454.517 484.913 457.386L484.737 457.635L484.54 457.401C482.468 454.939 480.217 452.265 477.88 449.489L478.264 449.484C478.149 449.629 478.024 449.786 477.898 449.943C475.833 452.529 473.834 455.032 471.943 457.398L471.745 457.647L471.561 457.388C469.54 454.531 467.651 451.863 465.943 449.45L466.27 449.465C463.502 452.616 461.153 455.287 459.351 457.338L459.228 457.477L459.135 457.32C458.222 455.79 457.495 454.57 456.968 453.686C456.742 453.291 456.558 452.972 456.412 452.718C456.367 452.735 456.318 452.734 456.273 452.717C456.228 452.699 456.192 452.666 456.17 452.622C456.149 452.579 456.145 452.53 456.158 452.484C456.171 452.437 456.201 452.398 456.242 452.373C456.283 452.347 456.332 452.338 456.379 452.347C456.427 452.356 456.469 452.382 456.498 452.42C456.527 452.459 456.541 452.507 456.536 452.554C456.532 452.602 456.51 452.647 456.475 452.679C456.636 452.924 456.839 453.231 457.09 453.611C457.643 454.479 458.407 455.677 459.364 457.179L459.147 457.161C460.921 455.086 463.231 452.382 465.955 449.194L466.127 448.992L466.282 449.209C468.006 451.611 469.911 454.268 471.951 457.111L471.569 457.101C473.455 454.731 475.449 452.224 477.51 449.635C477.635 449.477 477.761 449.32 477.876 449.175L478.066 448.938L478.26 449.17C480.591 451.952 482.835 454.631 484.901 457.098L484.529 457.113C486.578 454.259 488.486 451.6 490.2 449.213L490.366 448.981L490.528 449.213C492.775 452.417 494.683 455.139 496.111 457.176L495.908 457.17C496.926 455.951 497.735 454.983 498.323 454.278C498.586 453.975 498.798 453.729 498.97 453.531C499.119 453.364 499.2 453.282 499.209 453.289Z" fill="#F5F5F5"/>
<path d="M500.503 442.961C500.503 443.098 490.517 443.209 478.203 443.209C465.884 443.209 455.9 443.098 455.9 442.961C455.9 442.824 465.884 442.713 478.203 442.713C490.517 442.713 500.503 442.824 500.503 442.961Z" fill="#F5F5F5"/>
<path d="M502.515 476.676C502.515 476.813 491.663 476.924 478.279 476.924C464.891 476.924 454.041 476.813 454.041 476.676C454.041 476.539 464.891 476.428 478.279 476.428C491.663 476.428 502.515 476.539 502.515 476.676Z" fill="#F5F5F5"/>
<path d="M520.548 28.1978H439.834V112.218H520.548V28.1978Z" fill="#E0E0E0"/>
<path d="M515.084 28.1978H434.371V112.218H515.084V28.1978Z" fill="#FAFAFA"/>
<path d="M515.107 112.243H434.344V28.1729H515.107V112.243ZM434.394 112.193H515.057V28.2227H434.394V112.193Z" fill="#E0E0E0"/>
<path d="M504.232 39.4927H445.219V100.923H504.232V39.4927Z" fill="#FAFAFA"/>
<path d="M445.22 101.332C444.802 101.95 444.313 102.517 443.764 103.022C442.821 104.016 441.497 105.36 440.012 106.82C438.527 108.281 437.163 109.582 436.157 110.505C435.646 111.044 435.074 111.52 434.451 111.924C434.866 111.307 435.352 110.742 435.9 110.24C436.842 109.247 438.17 107.9 439.66 106.435C441.148 104.971 442.516 103.667 443.522 102.743C444.029 102.207 444.599 101.733 445.22 101.332Z" fill="#E0E0E0"/>
<path d="M504.234 101.181C504.853 101.598 505.422 102.086 505.928 102.635C506.922 103.576 508.268 104.899 509.731 106.381C511.194 107.864 512.496 109.226 513.421 110.231C513.96 110.741 514.437 111.313 514.842 111.934C514.225 111.52 513.658 111.035 513.156 110.488C512.161 109.547 510.812 108.221 509.345 106.733C507.879 105.247 506.573 103.881 505.648 102.876C505.111 102.37 504.636 101.8 504.234 101.181Z" fill="#E0E0E0"/>
<path d="M504.072 39.6566C504.491 39.0386 504.979 38.4711 505.529 37.9658C506.471 36.9725 507.795 35.6283 509.28 34.1682C510.765 32.7073 512.129 31.4065 513.136 30.4828C513.646 29.9442 514.218 29.4681 514.841 29.0645C514.427 29.6807 513.94 30.2458 513.393 30.7479C512.45 31.7412 511.122 33.0885 509.633 34.5532C508.144 36.0177 506.777 37.3213 505.77 38.2451C505.263 38.7819 504.693 39.2558 504.072 39.6566Z" fill="#E0E0E0"/>
<path d="M445.058 39.8071C444.439 39.3896 443.871 38.9016 443.365 38.3529C442.37 37.4118 441.024 36.0891 439.562 34.6068C438.099 33.1237 436.796 31.7616 435.872 30.7569C435.332 30.2474 434.856 29.6757 434.451 29.054C435.068 29.4676 435.634 29.953 436.137 30.5C437.132 31.4411 438.481 32.7674 439.947 34.2545C441.414 35.7412 442.72 37.107 443.645 38.1118C444.182 38.6182 444.657 39.1874 445.058 39.8071Z" fill="#E0E0E0"/>
<path d="M504.07 100.924C504.061 100.824 504.057 100.725 504.058 100.625C504.054 100.416 504.05 100.133 504.045 99.7679C504.038 98.9976 504.03 97.8899 504.018 96.4516C504.004 93.5415 503.984 89.3076 503.958 83.9316C503.93 73.1725 503.891 57.8451 503.843 39.4929L504.07 39.72C486.891 39.7298 466.716 39.7413 445.225 39.7538H445.219L445.48 39.4929C445.466 62.0404 445.454 83.1341 445.443 100.923L445.219 100.7C462.854 100.747 477.537 100.787 487.831 100.814C492.974 100.839 497.02 100.859 499.8 100.872C501.174 100.884 502.229 100.893 502.967 100.898C503.315 100.904 503.585 100.908 503.785 100.911C503.88 100.91 503.976 100.914 504.07 100.924C503.984 100.934 503.897 100.938 503.81 100.936C503.616 100.94 503.354 100.943 503.016 100.949C502.29 100.955 501.249 100.963 499.892 100.975C497.124 100.988 493.095 101.008 487.974 101.033C477.645 101.061 462.913 101.1 445.219 101.148L444.995 101.148L444.994 100.923C444.984 83.1341 444.971 62.0404 444.957 39.4929L444.957 39.2319H445.225C466.716 39.244 486.891 39.2555 504.07 39.2655H504.299L504.298 39.4929C504.25 57.9054 504.21 73.2829 504.182 84.077C504.157 89.4311 504.137 93.6477 504.123 96.5457C504.111 97.965 504.102 99.058 504.096 99.8181C504.091 100.173 504.086 100.447 504.083 100.651C504.085 100.742 504.081 100.833 504.07 100.924Z" fill="#E0E0E0"/>
<path d="M484.573 60.3755H464.881V80.0399H484.573V60.3755Z" fill="#EBEBEB"/>
<path d="M520.548 132.142H439.834V216.162H520.548V132.142Z" fill="#E0E0E0"/>
<path d="M515.084 132.142H434.371V216.162H515.084V132.142Z" fill="#FAFAFA"/>
<path d="M515.107 216.187H434.344V132.117H515.107V216.187ZM434.394 216.137H515.057V132.167H434.394V216.137Z" fill="#E0E0E0"/>
<path d="M504.232 143.437H445.219V204.867H504.232V143.437Z" fill="#FAFAFA"/>
<path d="M445.22 205.276C444.802 205.894 444.313 206.461 443.764 206.967C442.821 207.96 441.497 209.304 440.012 210.765C438.527 212.225 437.163 213.526 436.157 214.45C435.646 214.988 435.074 215.464 434.451 215.868C434.866 215.252 435.352 214.686 435.9 214.184C436.842 213.191 438.17 211.844 439.66 210.38C441.148 208.915 442.516 207.611 443.522 206.688C444.029 206.151 444.599 205.677 445.22 205.276Z" fill="#E0E0E0"/>
<path d="M504.234 205.125C504.853 205.543 505.422 206.031 505.928 206.579C506.922 207.521 508.268 208.843 509.731 210.325C511.194 211.808 512.496 213.171 513.421 214.175C513.96 214.685 514.437 215.257 514.842 215.878C514.225 215.465 513.658 214.979 513.156 214.432C512.161 213.491 510.812 212.165 509.345 210.678C507.879 209.191 506.573 207.825 505.648 206.821C505.111 206.314 504.636 205.745 504.234 205.125Z" fill="#E0E0E0"/>
<path d="M504.072 143.601C504.491 142.983 504.979 142.415 505.529 141.91C506.471 140.917 507.795 139.573 509.28 138.113C510.765 136.652 512.129 135.351 513.136 134.427C513.646 133.889 514.218 133.412 514.841 133.009C514.427 133.625 513.94 134.19 513.393 134.692C512.45 135.685 511.122 137.033 509.633 138.498C508.144 139.962 506.777 141.266 505.77 142.189C505.263 142.726 504.693 143.2 504.072 143.601Z" fill="#E0E0E0"/>
<path d="M445.058 143.751C444.439 143.334 443.871 142.846 443.365 142.297C442.37 141.356 441.024 140.033 439.562 138.551C438.099 137.068 436.796 135.706 435.872 134.701C435.332 134.192 434.856 133.62 434.451 132.998C435.068 133.412 435.634 133.897 436.137 134.444C437.132 135.385 438.481 136.712 439.947 138.199C441.414 139.685 442.72 141.051 443.645 142.056C444.182 142.562 444.657 143.132 445.058 143.751Z" fill="#E0E0E0"/>
<path d="M504.07 204.867C504.061 204.768 504.057 204.668 504.058 204.569C504.054 204.359 504.05 204.077 504.045 203.712C504.038 202.941 504.03 201.834 504.018 200.395C504.004 197.485 503.984 193.251 503.958 187.875C503.93 177.116 503.891 161.789 503.843 143.437L504.07 143.664C486.891 143.673 466.716 143.685 445.225 143.697H445.219L445.48 143.437C445.466 165.984 445.454 187.078 445.443 204.867L445.219 204.643C462.854 204.691 477.537 204.73 487.831 204.758C492.974 204.783 497.02 204.803 499.8 204.816C501.174 204.828 502.229 204.836 502.967 204.842C503.315 204.848 503.585 204.852 503.785 204.855C503.88 204.854 503.976 204.858 504.07 204.867C503.984 204.878 503.897 204.882 503.81 204.88C503.616 204.883 503.354 204.887 503.016 204.893C502.29 204.899 501.249 204.907 499.892 204.919C497.124 204.932 493.095 204.952 487.974 204.977C477.645 205.005 462.913 205.044 445.219 205.092L444.995 205.092L444.994 204.867C444.984 187.078 444.971 165.984 444.957 143.437L444.957 143.176H445.225C466.716 143.188 486.891 143.199 504.07 143.209H504.299L504.298 143.437C504.25 161.849 504.21 177.227 504.182 188.021C504.157 193.375 504.137 197.591 504.123 200.489C504.111 201.909 504.102 203.002 504.096 203.762C504.091 204.117 504.086 204.391 504.083 204.595C504.085 204.686 504.081 204.777 504.07 204.867Z" fill="#E0E0E0"/>
<path d="M484.573 164.32H464.881V183.984H484.573V164.32Z" fill="#EBEBEB"/>
<path d="M265.269 85.2095L265.969 86.3699C266.753 87.6725 267.896 88.7231 269.26 89.397L270.476 89.9973L269.314 90.6955C268.01 91.4792 266.958 92.62 266.283 93.9827L265.681 95.1967L264.982 94.0362C264.197 92.7337 263.055 91.6832 261.69 91.0093L260.475 90.4089L261.637 89.7106C262.941 88.9269 263.993 87.786 264.668 86.4234L265.269 85.2095Z" fill="#E0E0E0"/>
<path d="M390.054 52.6431L390.754 53.8035C391.539 55.1061 392.681 56.1567 394.046 56.8306L395.261 57.4308L394.099 58.1291C392.795 58.9128 391.743 60.0536 391.068 61.4163L390.467 62.6303L389.767 61.4698C388.983 60.1672 387.84 59.1167 386.475 58.4429L385.26 57.8425L386.422 57.144C387.726 56.3603 388.778 55.2195 389.453 53.857L390.054 52.6431Z" fill="#E0E0E0"/>
<path d="M326.499 13.1233L326.849 13.7048C327.242 14.3577 327.815 14.8842 328.499 15.2219L329.108 15.5227L328.526 15.8727C327.872 16.2654 327.345 16.8372 327.006 17.5201L326.705 18.1285L326.355 17.547C325.961 16.8941 325.389 16.3677 324.705 16.0299L324.096 15.7291L324.678 15.379C325.332 14.9863 325.859 14.4146 326.197 13.7317L326.499 13.1233Z" fill="#E0E0E0"/>
<path d="M374.782 53.0769L375.132 53.6584C375.526 54.3113 376.098 54.8378 376.782 55.1755L377.391 55.4763L376.809 55.8263C376.155 56.219 375.628 56.7908 375.29 57.4737L374.988 58.0821L374.638 57.5006C374.245 56.8478 373.672 56.3213 372.988 55.9836L372.379 55.6827L372.961 55.3327C373.615 54.9399 374.142 54.3682 374.481 53.6853L374.782 53.0769Z" fill="#E0E0E0"/>
<path d="M329.004 95.6956L329.355 96.2771C329.748 96.9299 330.321 97.4564 331.005 97.7942L331.614 98.095L331.032 98.4449C330.378 98.8377 329.85 99.4094 329.512 100.092L329.211 100.701L328.861 100.119C328.467 99.4664 327.895 98.9399 327.211 98.6022L326.602 98.3013L327.184 97.9512C327.838 97.5585 328.365 96.9868 328.703 96.3039L329.004 95.6956Z" fill="#E0E0E0"/>
<path d="M384.785 131.107C385.215 127.989 380.809 125.424 377.498 125.158C375.916 125.222 374.331 125.085 372.783 124.751C369.543 123.623 368.248 119.442 365.086 118.11C362.722 117.114 360 118.001 357.708 119.153C355.416 120.305 353.151 121.754 350.59 121.918C348.363 122.06 345.944 121.236 343.996 122.322C342.544 123.132 341.783 124.803 340.445 125.788C339.051 126.646 337.439 127.083 335.803 127.045C334.173 127.005 332.549 127.27 331.017 127.826C330.257 128.122 329.613 128.655 329.181 129.346C328.749 130.037 328.553 130.849 328.621 131.66L384.785 131.107Z" fill="#EBEBEB"/>
<path d="M283.887 18.425C284.477 14.1471 278.431 10.628 273.888 10.2624C271.722 10.088 269.472 10.4187 267.419 9.70443C262.972 8.15675 261.196 2.4198 256.857 0.592346C253.613 -0.773899 249.879 0.442355 246.734 2.02277C243.589 3.60319 240.481 5.59246 236.968 5.81703C233.912 6.01229 230.593 4.88055 227.919 6.37138C225.927 7.4822 224.883 9.77488 223.047 11.1275C221.135 12.3049 218.923 12.9039 216.678 12.8521C214.441 12.7974 212.214 13.1608 210.111 13.9237C208.081 14.8518 206.402 16.9952 206.823 19.1845L283.887 18.425Z" fill="#F5F5F5"/>
<path d="M158.21 6.57556H21.2324V232.998H158.21V6.57556Z" fill="#E0E0E0"/>
<path d="M153.653 6.57556H16.6758V232.998H153.653V6.57556Z" fill="#EBEBEB"/>
<path d="M147.82 11.1672H22.5078V228.407H147.82V11.1672Z" fill="#FAFAFA"/>
<path d="M123.422 39.3959H46.3652V200.178H123.422V39.3959Z" fill="#EBEBEB"/>
<path d="M46.365 143.283C46.1868 128.263 59.7098 113.601 74.6036 111.504C81.7057 110.504 89.2512 111.912 95.8873 109.195C107.732 104.344 111.501 88.6285 123.422 83.9673L123.966 200.178H46.365V143.283Z" fill="#E0E0E0"/>
<path d="M199.656 271.44L224.878 266.582L273.261 277.661L297.786 282.77L298.134 316.233L243.432 326.297L206.517 315.374L192.562 294.868L199.656 271.44Z" fill="#FFBE9D"/>
<path d="M181.729 274.773L205.534 269.173C205.534 269.173 222.362 321.126 263.896 318.89C297.747 317.067 297.785 282.77 297.785 282.77L322.532 287.137C322.532 287.137 332.909 349.883 321.534 393.897C312.066 430.529 303.672 480.759 303.672 480.759H139.256L181.729 274.773Z" fill="#81184E"/>
<path d="M422.917 435.552C422.917 435.552 355.106 316.927 342.902 301.696C329.547 285.027 318.882 286.952 318.882 286.952L311.701 366.875L369.356 448.562L383.096 453.511L422.917 435.552Z" fill="#81184E"/>
<path d="M184.577 274.103C184.577 274.103 146.038 277.186 132.21 340.24C125.955 368.76 118.052 402.185 115.774 424.649C114.122 440.942 124.2 457.891 140.465 459.977L160.896 463.758C166.294 464.757 171.87 463.652 176.476 460.669C181.082 457.687 184.368 453.055 185.658 447.726L192.561 419.201L174.2 413.089L178.453 328.088L184.577 274.103Z" fill="#81184E"/>
<path d="M325.701 331.241C325.787 331.528 325.846 331.822 325.878 332.12C325.975 332.76 326.104 333.605 326.265 334.661C326.346 335.22 326.435 335.833 326.531 336.501C326.6 337.181 326.675 337.913 326.755 338.699C326.914 340.277 327.107 342.074 327.19 344.07C327.47 348.741 327.501 353.422 327.285 358.096C327.007 363.818 326.437 369.522 325.579 375.185C324.694 381.216 323.58 386.917 322.45 392.071C321.34 397.231 320.203 401.844 319.244 405.716C318.262 409.583 317.45 412.707 316.86 414.858C316.574 415.887 316.345 416.71 316.171 417.333C316.104 417.625 316.01 417.91 315.891 418.185C315.917 417.886 315.971 417.591 316.051 417.302C316.196 416.672 316.388 415.84 316.627 414.799C317.161 412.565 317.906 409.443 318.82 405.613C319.725 401.731 320.817 397.111 321.894 391.953C322.993 386.799 324.086 381.109 324.969 375.095C325.85 369.085 326.464 363.326 326.718 358.069C326.94 352.813 326.991 348.068 326.755 344.093C326.7 342.102 326.538 340.308 326.412 338.731C326.35 337.946 326.292 337.213 326.239 336.532C326.162 335.865 326.092 335.251 326.027 334.691C325.914 333.629 325.823 332.78 325.755 332.138C325.71 331.841 325.692 331.541 325.701 331.241Z" fill="#263238"/>
<path d="M194.359 422.299C194.275 422.135 194.209 421.963 194.161 421.785C194.036 421.396 193.874 420.894 193.672 420.265C193.46 419.58 193.207 418.763 192.912 417.812C192.704 416.698 192.236 415.648 191.545 414.749C190.528 413.777 189.313 413.036 187.982 412.577C186.422 411.992 184.815 411.541 183.178 411.228C179.259 410.489 175.286 410.079 171.3 410.001L170.982 409.993L171.03 409.682C172.07 402.907 173.254 395.188 174.507 387.026C176.753 372.754 178.786 359.837 180.267 350.421C181.027 345.784 181.645 342.013 182.082 339.34C182.303 338.075 182.478 337.072 182.607 336.331C182.668 336.02 182.717 335.764 182.759 335.552C182.727 335.539 182.702 335.515 182.687 335.485C182.672 335.455 182.669 335.42 182.678 335.388C182.687 335.356 182.707 335.328 182.735 335.309C182.764 335.291 182.798 335.284 182.831 335.289C182.864 335.294 182.894 335.311 182.916 335.337C182.937 335.363 182.949 335.396 182.947 335.43C182.946 335.463 182.932 335.495 182.909 335.519C182.886 335.544 182.854 335.559 182.821 335.561C182.796 335.776 182.766 336.035 182.73 336.35C182.629 337.095 182.492 338.103 182.32 339.376C181.928 342.056 181.376 345.838 180.698 350.488C179.262 359.91 177.293 372.837 175.116 387.12C173.841 395.279 172.636 402.994 171.577 409.767L171.308 409.448C175.327 409.548 179.329 409.993 183.271 410.779C184.929 411.114 186.555 411.592 188.131 412.208C189.506 412.704 190.755 413.496 191.79 414.527C192.217 415.002 192.534 415.565 192.72 416.176L193.158 417.74C193.422 418.699 193.649 419.524 193.84 420.216C194.009 420.854 194.143 421.365 194.247 421.76C194.304 421.935 194.341 422.116 194.359 422.299Z" fill="#263238"/>
<path d="M141.275 431.948C141.315 431.409 141.418 430.877 141.581 430.362C141.956 428.939 142.454 427.551 143.07 426.214C145.092 421.752 148.24 417.892 152.206 415.01C156.171 412.128 160.817 410.324 165.69 409.773C167.154 409.599 168.629 409.552 170.101 409.634C170.642 409.637 171.18 409.703 171.706 409.831C169.714 409.853 167.725 409.978 165.747 410.205C160.983 410.86 156.456 412.682 152.568 415.508C148.68 418.333 145.553 422.075 143.464 426.4C142.639 428.211 141.909 430.063 141.275 431.948Z" fill="#263238"/>
<path d="M150.184 400.537C150.487 400.455 150.802 400.425 151.115 400.45C151.963 400.433 152.812 400.471 153.655 400.562C159.274 401.143 164.606 403.332 169.008 406.868C169.672 407.395 170.301 407.965 170.893 408.572C171.308 409.005 171.523 409.258 171.493 409.288C171.421 409.363 170.452 408.465 168.742 407.213C164.28 403.935 159.081 401.8 153.601 400.994C151.504 400.683 150.182 400.64 150.184 400.537Z" fill="#263238"/>
<path d="M190.079 318.89C189.994 318.333 189.963 317.768 189.986 317.205C189.978 316.122 189.915 314.555 189.783 312.627C189.097 302.548 186.334 292.72 181.667 283.758C180.776 282.042 180.012 280.672 179.455 279.743C179.142 279.274 178.875 278.776 178.656 278.256C179.033 278.676 179.369 279.132 179.659 279.617C180.28 280.509 181.105 281.853 182.052 283.553C186.973 292.481 189.767 302.421 190.218 312.602C190.295 314.546 190.291 316.121 190.226 317.207C190.23 317.772 190.181 318.335 190.079 318.89Z" fill="#263238"/>
<g opacity="0.3">
<path opacity="0.3" d="M323.925 384.183C333.758 367.555 333.968 345.946 325.39 328.639C328.144 347.085 327.549 365.875 323.635 384.11" fill="black"/>
</g>
<g opacity="0.3">
<path opacity="0.3" d="M236.47 402.99C229.009 405.181 218.677 405.716 211.41 402.95C217.098 411.013 228.07 413.937 237.589 411.31C247.109 408.684 255.888 399.168 256.624 389.333C252.013 395.587 243.931 400.799 236.47 402.99Z" fill="black"/>
</g>
<path d="M263.896 376.136C263.865 376.363 263.807 376.586 263.723 376.8C263.578 377.224 263.409 377.87 263.083 378.66C262.219 380.918 261.144 383.09 259.873 385.147C255.677 392.012 249.582 397.517 242.322 400.998C235.063 404.479 226.95 405.787 218.962 404.764C216.559 404.468 214.19 403.948 211.885 403.21C211.064 402.969 210.454 402.698 210.032 402.545C209.812 402.477 209.601 402.383 209.404 402.265C209.423 402.214 210.317 402.519 211.954 402.981C214.266 403.623 216.627 404.075 219.013 404.332C226.91 405.257 234.908 403.923 242.076 400.486C249.245 397.049 255.288 391.65 259.503 384.916C260.795 382.897 261.918 380.774 262.861 378.57C263.524 377.006 263.844 376.118 263.896 376.136Z" fill="#263238"/>
<path d="M180.764 458.892C180.778 458.908 180.676 459.017 180.466 459.212C180.165 459.501 179.846 459.772 179.511 460.021C178.271 460.943 176.897 461.669 175.436 462.171C173.266 462.905 171 463.315 168.71 463.386C165.927 463.477 163.14 463.379 160.37 463.091C154.479 462.585 149.193 461.728 145.388 461.048C143.485 460.707 141.949 460.41 140.89 460.192C140.334 460.111 139.786 459.977 139.256 459.791C139.818 459.793 140.379 459.848 140.93 459.956C142.116 460.129 143.636 460.352 145.459 460.618C149.28 461.188 154.557 461.974 160.424 462.478C163.168 462.762 165.927 462.876 168.685 462.819C170.928 462.775 173.153 462.419 175.296 461.759C177.251 461.081 179.094 460.114 180.764 458.892Z" fill="#263238"/>
<path d="M314.436 147.885L319.295 143.158C325.773 145.974 328.784 153.48 329.867 160.452C330.95 167.424 330.809 174.757 333.774 181.162C336.054 186.088 340.183 190.656 339.687 196.06C339.216 201.204 334.559 205.366 334.533 210.532C334.508 215.501 338.676 219.325 341.09 223.67C345.984 232.483 349.155 268.508 346.592 278.255C325.089 276.399 287.003 274.103 265.477 269.173C271.169 232.165 295.032 179.922 314.436 147.885Z" fill="#263238"/>
<path d="M324.058 180.903C325.553 155.738 307.257 132.706 281.743 129.675C254.675 126.459 230.731 145.82 228.488 172.148L222.14 278.455C222.024 280.511 222.596 282.548 223.767 284.243C230.018 293.366 241.343 300.503 251.452 301.905C261.246 303.264 271.181 300.722 279.504 296.099C280.886 295.317 282.038 294.187 282.847 292.822C283.655 291.457 284.091 289.904 284.111 288.318L284.546 264.521C284.545 264.5 284.549 264.478 284.557 264.459C284.565 264.439 284.577 264.421 284.592 264.407C284.608 264.392 284.626 264.381 284.646 264.373C284.666 264.366 284.687 264.363 284.708 264.365C286.935 264.533 289.173 264.471 291.388 264.179C297.692 262.646 313.757 256.478 319.145 232.934C320.931 225.126 322.747 202.964 324.058 180.903Z" fill="#FFBE9D"/>
<path d="M289.055 215.657C289.05 215.422 291.69 215.161 295.957 214.924C297.036 214.889 298.065 214.751 298.292 214.045C298.452 212.96 298.272 211.852 297.777 210.874C296.933 208.255 296.049 205.509 295.122 202.634C291.453 190.911 288.87 181.302 289.351 181.164C289.832 181.027 293.196 190.418 296.864 202.142C297.743 205.03 298.582 207.789 299.383 210.419C299.712 211.643 300.322 213.05 299.673 214.59C299.491 214.953 299.228 215.269 298.905 215.514C298.583 215.76 298.208 215.929 297.809 216.008C297.204 216.124 296.587 216.165 295.972 216.13C291.699 216.058 289.056 215.893 289.055 215.657Z" fill="#263238"/>
<path d="M317.106 189.8C316.635 190.313 313.851 187.962 309.841 187.851C305.837 187.676 302.858 189.82 302.432 189.274C302.222 189.032 302.709 188.097 304.007 187.126C305.733 185.886 307.824 185.256 309.949 185.335C312.067 185.405 314.099 186.182 315.721 187.544C316.936 188.607 317.337 189.572 317.106 189.8Z" fill="#263238"/>
<path d="M276.456 190.814C275.909 191.321 273.006 188.684 268.63 188.313C264.262 187.878 260.867 189.934 260.435 189.336C260.222 189.07 260.807 188.121 262.293 187.186C264.279 185.992 266.597 185.466 268.906 185.686C271.201 185.885 273.368 186.825 275.081 188.364C276.341 189.554 276.722 190.589 276.456 190.814Z" fill="#263238"/>
<path d="M284.548 264.354C284.548 264.354 268.244 264.533 248.729 251.149C248.729 251.149 253.771 272.643 284.417 271.966L284.548 264.354Z" fill="#EB996E"/>
<path d="M286.638 225.474C285.895 224.426 284.9 223.582 283.746 223.017C282.591 222.452 281.314 222.186 280.029 222.241C279.103 222.256 278.188 222.457 277.341 222.832C276.493 223.206 275.729 223.747 275.095 224.422C274.489 225.068 274.101 225.887 273.984 226.764C273.868 227.641 274.028 228.533 274.444 229.315C275.477 230.959 277.822 231.485 279.864 231.065C281.886 230.517 283.78 229.575 285.436 228.292C285.93 227.997 286.363 227.612 286.714 227.157C286.883 226.94 286.982 226.677 286.999 226.403C287.015 226.129 286.948 225.856 286.807 225.62" fill="#EB996E"/>
<path d="M276.509 217.651C277.194 217.659 276.914 222.137 280.612 225.585C284.302 229.044 289.196 228.879 289.191 229.507C289.237 229.792 288.052 230.301 285.997 230.213C283.327 230.065 280.79 228.998 278.819 227.193C276.944 225.477 275.814 223.097 275.671 220.56C275.618 218.677 276.198 217.603 276.509 217.651Z" fill="#263238"/>
<path d="M277.109 174.339C276.616 175.428 272.461 174.581 267.493 174.792C262.52 174.904 258.448 176.019 257.865 174.965C257.608 174.462 258.375 173.46 260.057 172.496C262.295 171.301 264.783 170.649 267.32 170.595C269.863 170.486 272.397 170.974 274.718 172.019C276.478 172.871 277.325 173.82 277.109 174.339Z" fill="#263238"/>
<path d="M317.967 175.223C317.116 176.166 313.742 175.208 309.695 175.181C305.649 175.033 302.229 175.845 301.43 174.868C301.08 174.392 301.61 173.449 303.098 172.555C305.163 171.475 307.468 170.935 309.797 170.985C312.127 171.035 314.407 171.674 316.423 172.842C317.862 173.799 318.341 174.764 317.967 175.223Z" fill="#263238"/>
<path d="M285.484 124.356C283.285 120.622 279.194 118.915 274.626 118.224C255.981 115.405 235.163 126.617 224.717 142.294C214.271 157.971 213.712 181.361 221.361 198.573L232.989 191.306C256.342 181.691 272.833 159.221 287.851 136.009C289.896 132.848 287.394 127.6 285.484 124.356Z" fill="#263238"/>
<path d="M314.175 134.597C306.375 125.738 300.711 116.904 284.519 123.062C282.134 127.591 286.939 133.466 290.949 136.899C296.823 141.927 301.955 145.323 305.809 148.922C313.601 156.198 322.454 180.651 323.217 193.998C323.265 194.835 324.705 182.541 325.548 182.412C326.638 182.244 331.037 176.883 330.434 169.546C328.375 144.506 321.975 143.455 314.175 134.597Z" fill="#263238"/>
<path d="M274.627 118.224C275.844 117.995 277.101 118.104 278.26 118.54C281.127 119.411 283.682 121.087 285.623 123.367C286.181 124.02 286.675 124.724 287.098 125.472C287.464 126.183 287.749 126.933 287.949 127.707C288.371 128.954 288.69 130.234 288.902 131.533C289.226 133.819 288.682 135.209 288.566 135.164C288.382 135.136 288.62 133.771 288.12 131.676C287.803 130.44 287.418 129.223 286.965 128.03C286.759 127.329 286.481 126.651 286.135 126.007C285.735 125.331 285.277 124.692 284.767 124.095C282.937 121.971 280.618 120.323 278.009 119.293C275.988 118.536 274.612 118.413 274.627 118.224Z" fill="#455A64"/>
<path d="M313.413 197.484C313.439 198.406 313.103 199.302 312.477 199.98C311.851 200.659 310.984 201.066 310.061 201.116C309.611 201.16 309.157 201.113 308.725 200.979C308.293 200.845 307.893 200.626 307.547 200.335C307.201 200.044 306.917 199.687 306.712 199.285C306.506 198.882 306.384 198.443 306.351 197.993C306.325 197.071 306.661 196.175 307.286 195.497C307.911 194.818 308.777 194.41 309.699 194.359C310.149 194.315 310.604 194.361 311.036 194.495C311.469 194.629 311.87 194.848 312.216 195.139C312.562 195.431 312.846 195.788 313.052 196.191C313.258 196.593 313.381 197.033 313.413 197.484Z" fill="#263238"/>
<path d="M274.424 197.728C274.45 198.65 274.114 199.546 273.488 200.224C272.862 200.903 271.995 201.31 271.073 201.36C270.623 201.404 270.168 201.357 269.737 201.223C269.305 201.089 268.904 200.87 268.558 200.579C268.213 200.288 267.929 199.931 267.723 199.528C267.518 199.126 267.395 198.687 267.363 198.236C267.337 197.315 267.672 196.419 268.298 195.74C268.923 195.062 269.789 194.654 270.711 194.603C271.161 194.558 271.616 194.605 272.048 194.739C272.48 194.873 272.881 195.092 273.227 195.383C273.574 195.675 273.858 196.032 274.063 196.435C274.269 196.837 274.392 197.277 274.424 197.728Z" fill="#263238"/>
<path d="M167.139 227.319C169.338 223.701 171.825 220.295 175.897 218.795C179.969 217.296 184.487 216.4 187.654 213.495C192.608 208.952 192.431 201.385 191.933 194.787C191.436 188.189 191.37 180.59 196.436 176.165C200.666 172.47 207.406 172.136 211.07 167.907C213.519 165.08 214.002 161.178 214.865 157.579C217.182 147.915 222.523 131.055 251.025 121.35L225.809 217.023C227.685 217.546 232.186 221.827 232.434 224.72C232.667 227.427 231.494 230.173 231.466 232.888C231.431 236.213 235.091 238.199 237.387 240.663C240.299 243.786 241.193 248.302 240.746 252.496C239.814 258.198 238.288 263.787 236.192 269.173C212.795 266.809 178.67 266.046 160.839 251.149C157.587 248.433 162.236 235.386 167.139 227.319Z" fill="#263238"/>
<path d="M232.992 191.306C232.559 191.07 215.333 184.266 214.238 202.358C213.144 220.45 231.559 217.816 231.622 217.299C231.684 216.783 232.992 191.306 232.992 191.306Z" fill="#FFBE9D"/>
<path d="M226.503 210.111C226.428 210.048 226.174 210.312 225.626 210.524C224.856 210.799 224.01 210.765 223.264 210.43C221.393 209.613 219.965 206.482 220.074 203.215C220.122 201.662 220.517 200.138 221.231 198.756C221.435 198.201 221.771 197.704 222.21 197.308C222.649 196.911 223.178 196.627 223.751 196.48C224.12 196.406 224.502 196.464 224.833 196.642C225.164 196.82 225.421 197.108 225.561 197.457C225.774 197.977 225.637 198.331 225.731 198.369C225.779 198.417 226.139 198.088 226.037 197.332C225.963 196.878 225.736 196.463 225.394 196.156C224.918 195.749 224.301 195.546 223.676 195.59C222.923 195.692 222.209 195.985 221.602 196.442C220.995 196.898 220.515 197.502 220.209 198.196C219.343 199.716 218.862 201.424 218.809 203.172C218.705 206.825 220.367 210.35 222.941 211.263C223.419 211.434 223.929 211.495 224.433 211.443C224.938 211.39 225.424 211.225 225.857 210.959C226.444 210.545 226.565 210.147 226.503 210.111Z" fill="#EB996E"/>
<path d="M297.445 196.055C297.541 194.691 297.733 193.335 298.019 191.997C298.917 188.366 301.014 185.143 303.971 182.848C306.14 181.156 308.7 180.034 311.416 179.586C314.133 179.137 316.918 179.377 319.517 180.283C322.586 181.35 325.27 183.299 327.232 185.885C329.349 188.659 330.521 192.037 330.578 195.525C330.634 199.012 329.57 202.426 327.544 205.266C325.665 207.914 323.044 209.949 320.011 211.114C317.857 211.932 315.556 212.292 313.255 212.173C310.954 212.053 308.703 211.455 306.646 210.418C304.589 209.381 302.77 207.927 301.308 206.149C299.845 204.371 298.769 202.308 298.149 200.092C297.82 198.764 297.585 197.415 297.445 196.055C297.427 196.144 297.422 196.236 297.432 196.326C297.438 196.543 297.445 196.804 297.454 197.123C297.458 197.556 297.499 197.988 297.577 198.414C297.646 199.002 297.76 199.583 297.917 200.154C298.728 203.275 300.421 206.098 302.793 208.285C305.166 210.472 308.118 211.932 311.299 212.49C314.292 213.009 317.371 212.717 320.213 211.644C323.361 210.452 326.084 208.354 328.036 205.615C330.145 202.673 331.252 199.132 331.194 195.515C331.135 191.897 329.915 188.393 327.712 185.521C325.674 182.846 322.886 180.837 319.702 179.747C316.827 178.765 313.741 178.572 310.766 179.186C307.605 179.845 304.701 181.398 302.399 183.66C300.098 185.922 298.496 188.797 297.786 191.943C297.647 192.518 297.552 193.103 297.501 193.692C297.437 194.121 297.41 194.554 297.42 194.987C297.421 195.306 297.422 195.568 297.423 195.784C297.416 195.875 297.424 195.966 297.445 196.055Z" fill="#455A64"/>
<path d="M251.705 196.786C251.801 195.422 251.993 194.066 252.279 192.728C253.177 189.097 255.274 185.874 258.231 183.579C260.4 181.887 262.96 180.765 265.676 180.317C268.392 179.869 271.178 180.108 273.777 181.014C276.845 182.081 279.529 184.03 281.492 186.616C283.609 189.39 284.781 192.768 284.837 196.256C284.894 199.743 283.83 203.157 281.803 205.997C279.925 208.645 277.304 210.68 274.271 211.845C272.117 212.663 269.816 213.023 267.515 212.904C265.214 212.784 262.963 212.186 260.905 211.149C258.848 210.112 257.03 208.658 255.567 206.88C254.104 205.102 253.029 203.039 252.409 200.823C252.08 199.496 251.845 198.147 251.705 196.786C251.687 196.875 251.682 196.967 251.692 197.057C251.698 197.274 251.705 197.535 251.714 197.854C251.718 198.287 251.759 198.719 251.836 199.145C251.906 199.733 252.02 200.315 252.177 200.885C252.988 204.006 254.681 206.829 257.053 209.016C259.426 211.203 262.378 212.663 265.558 213.221C268.552 213.74 271.631 213.448 274.473 212.375C277.621 211.183 280.343 209.085 282.295 206.346C284.405 203.404 285.512 199.863 285.453 196.246C285.395 192.628 284.175 189.124 281.972 186.252C279.933 183.577 277.146 181.568 273.962 180.478C271.087 179.496 268.001 179.303 265.026 179.917C261.865 180.576 258.961 182.129 256.659 184.391C254.358 186.653 252.756 189.528 252.046 192.674C251.907 193.249 251.811 193.834 251.761 194.424C251.697 194.852 251.67 195.285 251.68 195.718C251.681 196.037 251.682 196.299 251.683 196.515C251.676 196.606 251.684 196.698 251.705 196.786Z" fill="#455A64"/>
<path d="M284.373 195.543C284.461 195.603 284.939 194.833 286.038 193.951C287.448 192.78 289.216 192.124 291.05 192.09C292.884 192.057 294.674 192.648 296.126 193.767C297.257 194.609 297.762 195.36 297.848 195.297C297.549 194.551 297.047 193.904 296.399 193.428C294.917 192.135 293.006 191.439 291.039 191.475C289.071 191.511 287.187 192.276 285.753 193.622C285.123 194.121 284.645 194.787 284.373 195.543Z" fill="#455A64"/>
<path d="M228.828 190.149C229.917 190.499 231.04 190.732 232.178 190.843C234.266 191.165 237.167 191.479 240.37 191.758C243.467 192.036 246.268 192.287 248.564 192.493C249.69 192.665 250.828 192.753 251.967 192.755C250.879 192.405 249.756 192.172 248.618 192.061C246.53 191.739 243.629 191.425 240.424 191.145C237.328 190.868 234.528 190.617 232.232 190.411C231.106 190.239 229.968 190.151 228.828 190.149Z" fill="#455A64"/>
<path d="M323.859 206.277C325.416 204.63 326.623 202.686 327.41 200.561C328.196 198.437 328.546 196.176 328.437 193.914C328.7 194.549 328.82 195.233 328.788 195.919C328.881 199.259 327.679 202.506 325.432 204.982C325.01 205.524 324.473 205.966 323.859 206.277Z" fill="white"/>
<path d="M326.725 187.595C326.816 187.457 327.493 187.799 327.878 188.599C328.268 189.398 328.118 190.14 327.953 190.126C327.777 190.125 327.648 189.519 327.323 188.868C327.012 188.21 326.617 187.733 326.725 187.595Z" fill="white"/>
<path d="M282.08 202.697C281.982 202.659 282.318 201.745 282.583 200.22C283.275 196.223 282.508 192.109 280.421 188.628C279.624 187.302 278.981 186.57 279.059 186.499C279.755 187.01 280.342 187.654 280.788 188.393C281.963 190.117 282.768 192.067 283.15 194.118C283.533 196.169 283.485 198.277 283.01 200.308C282.861 201.158 282.545 201.97 282.08 202.697Z" fill="white"/>
<path d="M219.132 217.055C219.173 217.091 218.885 217.406 218.524 218.061C218.021 218.985 217.754 220.018 217.747 221.069C217.729 221.834 217.869 222.595 218.157 223.304C218.445 224.013 218.876 224.655 219.423 225.191C220.079 225.861 220.888 226.361 221.781 226.646C222.675 226.931 223.624 226.994 224.547 226.828C225.47 226.662 226.338 226.273 227.076 225.694C227.813 225.116 228.398 224.366 228.778 223.51C229.103 222.817 229.283 222.065 229.305 221.299C229.328 220.534 229.193 219.773 228.909 219.062C228.535 218.08 227.924 217.204 227.131 216.514C226.563 216.026 226.184 215.831 226.209 215.783C226.603 215.879 226.969 216.065 227.28 216.326C228.179 216.983 228.882 217.872 229.313 218.899C229.651 219.663 229.824 220.49 229.82 221.325C229.817 222.161 229.637 222.986 229.293 223.747C228.886 224.697 228.25 225.531 227.44 226.175C226.631 226.818 225.674 227.251 224.656 227.434C223.638 227.617 222.591 227.544 221.607 227.223C220.624 226.902 219.736 226.342 219.023 225.594C218.435 225 217.978 224.289 217.683 223.507C217.388 222.725 217.262 221.89 217.311 221.056C217.357 219.944 217.705 218.866 218.318 217.937C218.518 217.584 218.797 217.283 219.132 217.055Z" fill="#E0E0E0"/>
<path d="M319.136 231.001C320.137 231.401 321.24 231.469 322.284 231.196C323.397 230.882 324.401 230.264 325.182 229.41C326.147 228.372 326.798 227.083 327.06 225.692C327.327 224.303 327.154 222.867 326.563 221.582C326.073 220.529 325.349 219.602 324.446 218.87C323.57 218.231 322.611 217.712 321.596 217.328C321.9 217.298 322.206 217.338 322.491 217.447C323.29 217.67 324.043 218.035 324.711 218.525C325.717 219.258 326.529 220.223 327.077 221.339C327.75 222.725 327.957 224.292 327.666 225.805C327.383 227.312 326.661 228.703 325.592 229.803C324.725 230.71 323.61 231.342 322.386 231.62C321.563 231.816 320.701 231.768 319.905 231.483C319.353 231.262 319.117 231.026 319.136 231.001Z" fill="#E0E0E0"/>
<path d="M253.427 465.694L270.969 470.879C270.969 470.879 280.652 475.033 285.367 476.111C291.211 477.449 295.197 475.631 295.414 472.391C295.63 469.151 291.087 468.719 291.087 468.719C287.222 467.252 283.464 465.519 279.838 463.534C277.202 461.698 275.05 459.252 273.565 456.405L279.838 457.269C279.838 457.269 293.034 466.775 298.009 469.583C302.985 472.391 304.066 467.423 304.499 465.91C304.932 464.398 289.789 449.061 289.789 449.061C289.789 449.061 304.283 458.35 306.879 460.674C309.474 462.998 313.368 463.75 314.234 462.238C315.099 460.726 317.479 460.726 314.234 454.319C310.989 447.912 285.03 430.699 285.03 430.699L292.169 429.187L299.956 432.643C300.502 435.312 301.608 437.835 303.201 440.046C306.013 444.208 310.989 440.046 310.989 440.046L307.96 424.111L292.601 414.497C292.601 414.497 276.593 416.441 274.214 417.521C271.834 418.601 269.239 423.123 269.239 423.123L264.912 424.866C258.206 426.81 258.422 433.507 256.259 433.723C254.096 433.939 190.966 421.64 190.966 421.64L185.245 420.15C175.818 427.33 172.001 439.181 170.335 449.685C170.335 449.685 168.588 454.829 170.335 457.669L253.427 465.694Z" fill="#FFBE9D"/>
<path d="M241.892 454.48C241.818 454.142 241.798 453.794 241.833 453.45C241.827 453.045 241.861 452.64 241.935 452.242C241.994 451.708 242.1 451.181 242.253 450.666C243.139 447.681 244.641 444.915 246.661 442.545C248.622 440.16 250.809 437.97 253.193 436.007C254.136 435.145 255.163 434.38 256.26 433.723C255.388 434.651 254.46 435.523 253.48 436.335C251.206 438.373 249.087 440.577 247.142 442.93C245.175 445.248 243.659 447.912 242.672 450.786C241.979 453.007 242.021 454.486 241.892 454.48Z" fill="#EB996E"/>
<path d="M269.242 423.122C269.266 423.177 268.718 423.392 267.91 424.043C266.787 424.99 265.816 426.103 265.031 427.343C264.468 428.181 263.985 429.07 263.587 429.997C263.226 431.095 262.996 432.231 262.901 433.383C262.737 434.719 262.262 435.998 261.513 437.117C260.653 438.186 259.945 439.37 259.409 440.633C258.604 442.784 258.596 445.152 259.385 447.308L259.469 447.53L259.269 447.657C256.525 449.427 254.538 452.153 253.695 455.305C253.404 456.546 253.226 457.81 253.161 459.083C253.074 458.751 253.036 458.408 253.047 458.065C253.029 457.108 253.13 456.151 253.348 455.218C254.107 451.912 256.118 449.027 258.959 447.167L258.843 447.515C257.978 445.229 257.974 442.707 258.831 440.417C259.383 439.109 260.117 437.884 261.011 436.781C261.721 435.735 262.177 434.539 262.342 433.287C262.456 432.097 262.716 430.925 263.116 429.798C263.545 428.85 264.065 427.946 264.67 427.098C265.508 425.847 266.555 424.748 267.765 423.852C268.096 423.609 268.454 423.406 268.833 423.249C269.094 423.146 269.233 423.103 269.242 423.122Z" fill="#EB996E"/>
<path d="M284.433 430.192C282.924 430.384 281.392 430.218 279.959 429.709C278.526 429.199 277.233 428.361 276.186 427.26C276.301 427.114 277.884 428.333 280.166 429.129C282.437 429.951 284.436 430.006 284.433 430.192Z" fill="#EB996E"/>
<path d="M288.482 447.651C283.981 446.153 279.618 444.268 275.443 442.017C277.726 442.669 279.949 443.517 282.085 444.552C284.303 445.399 286.443 446.436 288.482 447.651Z" fill="#EB996E"/>
<path d="M274.238 456.275C271.939 455.501 269.694 454.578 267.516 453.511C269.967 453.802 272.292 454.758 274.238 456.275Z" fill="#EB996E"/>
<path d="M286.3 448.77C285.281 449.322 284.385 450.075 283.667 450.984C282.948 451.893 282.422 452.937 282.119 454.055C282.044 454.052 281.973 453.637 282.088 452.973C282.26 452.107 282.635 451.295 283.183 450.603C283.73 449.91 284.435 449.357 285.238 448.99C285.858 448.724 286.28 448.697 286.3 448.77Z" fill="#EB996E"/>
<path d="M292.642 439.181C292.72 439.343 291.559 439.944 290.778 441.261C290.376 442.101 290.043 442.974 289.785 443.869C289.614 443.381 289.567 442.857 289.648 442.346C289.73 441.835 289.937 441.352 290.251 440.941C291.157 439.435 292.617 439.017 292.642 439.181Z" fill="#EB996E"/>
<path d="M290.866 421.815C290.798 421.847 290.563 421.554 290.39 420.98C290.186 420.223 290.182 419.426 290.381 418.668C290.579 417.909 290.972 417.215 291.521 416.655C291.953 416.239 292.301 416.097 292.345 416.159C291.7 416.936 291.233 417.846 290.977 418.823C290.722 419.8 290.684 420.822 290.866 421.815Z" fill="#EB996E"/>
<path d="M418.826 427.26C418.826 427.26 418.021 411.753 401.93 408.54C385.839 405.326 357.68 418.987 357.68 418.987L278.68 473.959L281.039 480.759L361.196 469.601L368.541 472.413L424.86 435.455L477.999 397.091L472.127 392.471C472.127 392.471 457.243 402.715 447.387 407.134C437.532 411.553 423.251 419.266 418.826 427.26Z" fill="#F5F5F5"/>
<path d="M277.426 483L344.278 441.525L414.949 430.192C414.949 430.192 418.497 435.315 424.5 434.061L482.62 393.897L483.711 396.327L371.018 475.37C369.362 475.976 367.572 476.118 365.841 475.782C364.11 475.446 362.503 474.644 361.195 473.463L277.426 483Z" fill="#455A64"/>
<path d="M414.952 430.192C414.788 430.361 414.604 430.511 414.406 430.638C413.978 430.946 413.439 431.336 412.775 431.816C411.356 432.834 409.304 434.308 406.805 436.181C401.792 439.904 394.994 445.217 387.605 451.233C380.221 457.261 373.632 462.835 368.897 466.908L363.293 471.736C362.669 472.267 362.162 472.698 361.76 473.039C361.59 473.202 361.401 473.344 361.197 473.463C361.336 473.273 361.497 473.1 361.677 472.947C362.058 472.583 362.54 472.124 363.133 471.558C364.409 470.364 366.274 468.655 368.61 466.58C373.275 462.42 379.824 456.79 387.215 450.756C394.611 444.734 401.461 439.468 406.548 435.83C409.082 434 411.177 432.577 412.639 431.618L414.337 430.535C414.528 430.397 414.734 430.282 414.952 430.192Z" fill="#263238"/>
<path d="M414.233 421.561C407.826 414.694 397.743 412.248 388.372 412.977C379.002 413.706 370.1 417.202 361.362 420.66L279.582 476.555L280.311 478.656L362.531 423.085C362.531 423.085 380.894 417.15 389.025 416.159C402.651 414.497 414.233 421.561 414.233 421.561Z" fill="#E0E0E0"/>
<path d="M427.061 428.913L466.379 402.427C466.379 402.427 434.161 419.155 427.061 428.913Z" fill="#E0E0E0"/>
<path d="M279.582 476.555C279.684 476.456 279.795 476.367 279.915 476.289C280.168 476.107 280.502 475.866 280.926 475.561C281.853 474.911 283.169 473.988 284.848 472.81C288.3 470.423 293.243 467.004 299.338 462.788C311.632 454.357 328.567 442.744 347.273 429.916C352.046 426.656 356.705 423.475 361.191 420.411L361.215 420.395L361.243 420.383C369.169 416.811 377.533 414.302 386.117 412.919C393.045 411.945 400.108 412.939 406.498 415.787C408.888 416.901 411.091 418.38 413.028 420.17C414.472 421.515 415.701 423.075 416.672 424.792C417.279 425.868 417.754 427.013 418.088 428.202C418.177 428.588 418.247 428.895 418.302 429.133C418.332 429.237 418.35 429.344 418.356 429.453C417.933 427.86 417.305 426.328 416.488 424.897C415.497 423.221 414.26 421.703 412.819 420.394C410.887 418.653 408.699 417.218 406.331 416.14C399.997 413.384 393.019 412.449 386.182 413.441C377.656 414.855 369.352 417.375 361.48 420.937L361.532 420.909C357.048 423.976 352.392 427.161 347.621 430.424C328.876 443.194 311.904 454.755 299.584 463.148C293.442 467.295 288.462 470.659 284.983 473.008C283.276 474.145 281.939 475.036 280.996 475.663C280.558 475.947 280.212 476.171 279.95 476.341C279.835 476.424 279.711 476.496 279.582 476.555Z" fill="#263238"/>
<path d="M351.164 434.3C351.355 434.151 351.562 434.025 351.781 433.922C352.196 433.695 352.807 433.358 353.607 432.949C355.203 432.122 357.532 430.964 360.464 429.642C368.078 426.084 376.154 423.615 384.457 422.306C392.814 421.041 401.354 421.821 409.343 424.579C411.741 425.441 414.046 426.544 416.22 427.871C417.002 428.319 417.553 428.756 417.947 429.017C418.154 429.143 418.345 429.292 418.518 429.461C418.486 429.508 417.655 428.961 416.099 428.078C413.897 426.842 411.586 425.808 409.197 424.989C401.254 422.383 392.809 421.672 384.542 422.916C376.294 424.226 368.257 426.622 360.64 430.04C357.694 431.307 355.339 432.404 353.713 433.164C352.947 433.519 352.326 433.807 351.837 434.033C351.623 434.147 351.398 434.237 351.164 434.3Z" fill="#263238"/>
<path d="M475.887 395.429C475.734 395.579 475.562 395.71 475.376 395.817C474.968 396.087 474.462 396.422 473.846 396.83C472.431 397.739 470.511 398.973 468.172 400.476C463.375 403.545 456.755 407.792 449.496 412.562C442.234 417.335 435.708 421.726 430.988 424.911C428.68 426.462 426.786 427.734 425.391 428.672C424.771 429.076 424.264 429.407 423.854 429.674C423.887 429.748 423.891 429.83 423.866 429.906C423.84 429.982 423.788 430.046 423.718 430.086C423.648 430.125 423.566 430.137 423.488 430.12C423.41 430.102 423.341 430.056 423.295 429.99C423.249 429.925 423.229 429.844 423.239 429.765C423.249 429.685 423.288 429.612 423.349 429.56C423.41 429.508 423.488 429.481 423.568 429.483C423.649 429.485 423.725 429.517 423.783 429.573L425.253 428.476C426.537 427.533 428.412 426.192 430.741 424.553C435.399 421.275 441.891 416.824 449.157 412.048C456.421 407.275 463.083 403.083 467.94 400.107C470.369 398.62 472.344 397.431 473.72 396.626C474.361 396.258 474.886 395.956 475.31 395.712C475.49 395.593 475.684 395.498 475.887 395.429Z" fill="#263238"/>
<path d="M440.12 437.936C439.314 439.865 438.29 441.695 437.069 443.392C435.562 445.185 430.61 447.695 430.214 451.113C429.818 454.532 430.636 462.542 425.285 468.633C421.831 472.412 417.465 475.244 412.605 476.861L391.507 474.803L357.794 461.561C357.044 461.37 356.398 460.892 355.997 460.232C355.595 459.571 355.468 458.779 355.644 458.026C355.848 457.209 356.291 456.47 356.917 455.905C357.543 455.34 358.323 454.973 359.158 454.852L359.963 454.722C359.963 454.722 358.023 453.139 360.798 450.365C363.192 447.97 368.224 449.331 370.82 450.199C373.416 451.067 388.696 457.436 391.438 458.411C393.864 459.274 395.726 460.043 395.726 460.043C395.726 460.043 376.187 446.877 375.917 445.154C375.594 443.085 375.812 442.141 377.808 440.691C380.154 438.985 384.058 440.817 387.824 442.398C390.623 443.573 408.514 452.396 408.514 452.396C408.514 452.396 409.314 451.618 408.562 450.024C407.809 448.43 401.807 440.807 400.882 439.404C399.962 438.01 399.707 437.184 400.624 435.996C401.933 434.3 405.394 433.498 408.518 436.378C410.527 438.23 417.636 443 417.636 443L450.467 419.08C450.467 419.08 454.553 418.977 453.131 424.658C451.709 430.339 440.12 437.936 440.12 437.936Z" fill="#FFBE9D"/>
<path d="M415.652 457.866C414.345 457.57 413.127 456.965 412.101 456.103C411.075 455.242 410.27 454.147 409.754 452.912C409.911 452.816 410.869 454.28 412.498 455.632C414.111 457.003 415.719 457.695 415.652 457.866Z" fill="#EB996E"/>
<path d="M418.34 443.6C418.334 443.528 418.768 443.407 419.482 443.492C420.412 443.63 421.287 444.02 422.012 444.618C422.737 445.216 423.284 446.001 423.595 446.888C423.812 447.571 423.775 448.019 423.703 448.028C423.28 446.883 422.561 445.87 421.619 445.092C420.677 444.315 419.546 443.8 418.34 443.6Z" fill="#EB996E"/>
<path d="M419.89 450.192C419.707 450.195 419.618 448.432 418.921 446.411C418.245 444.383 417.242 442.93 417.39 442.82C418.347 443.774 419.071 444.935 419.505 446.214C419.939 447.493 420.07 448.854 419.89 450.192Z" fill="#EB996E"/>
<path d="M439.34 436.234C439.289 436.288 438.915 436.051 438.489 435.486C437.953 434.732 437.617 433.854 437.514 432.934C437.411 432.015 437.544 431.084 437.9 430.23C438.19 429.585 438.502 429.272 438.564 429.312C438.142 430.446 437.992 431.663 438.127 432.866C438.262 434.068 438.677 435.222 439.34 436.234Z" fill="#EB996E"/>
<path d="M409.632 466.119C408.872 466.283 408.083 466.273 407.327 466.088C405.487 465.76 403.722 465.105 402.114 464.152C400.522 463.212 399.022 462.122 397.635 460.898C397.019 460.441 396.471 459.899 396.008 459.288C396.693 459.628 397.332 460.056 397.908 460.559C399.352 461.664 400.859 462.685 402.421 463.618C403.979 464.533 405.66 465.221 407.413 465.661C408.762 465.985 409.634 466.021 409.632 466.119Z" fill="#EB996E"/>
<path d="M415.122 462.743C415.291 462.725 415.302 463.935 414.306 464.898C413.321 465.871 412.11 465.834 412.131 465.666C412.108 465.491 413.067 465.271 413.875 464.458C414.706 463.668 414.947 462.716 415.122 462.743Z" fill="#EB996E"/>
<path d="M423.19 456.831C423.263 456.855 423.258 457.154 423.038 457.573C422.729 458.11 422.264 458.539 421.704 458.805C421.144 459.07 420.517 459.159 419.905 459.059C419.441 458.964 419.205 458.78 419.233 458.708C419.286 458.543 420.329 458.799 421.439 458.248C422.568 457.737 423.029 456.768 423.19 456.831Z" fill="#EB996E"/>
<path d="M394.761 470.249C394.693 470.405 386.847 467.134 377.239 462.944C367.627 458.753 359.893 455.23 359.961 455.075C360.03 454.919 367.874 458.189 377.485 462.38C387.094 466.569 394.829 470.093 394.761 470.249Z" fill="#EB996E"/>
<path d="M533 480.787C533 480.957 413.674 481.095 266.513 481.095C119.3 481.095 0 480.957 0 480.787C0 480.617 119.3 480.479 266.513 480.479C413.674 480.479 533 480.617 533 480.787Z" fill="#263238"/>
<path d="M15.2406 354.871L40.9256 480.787H263.858C265.038 480.787 266.171 480.318 267.006 479.484C267.841 478.65 268.31 477.519 268.31 476.34C268.31 475.161 267.841 474.03 267.006 473.196C266.171 472.362 265.038 471.894 263.858 471.894H218.979L195.167 354.79C194.945 353.7 194.356 352.719 193.497 352.01C192.638 351.302 191.562 350.908 190.448 350.896L20.0644 349.039C19.3382 349.031 18.6193 349.185 17.9606 349.491C17.3019 349.796 16.72 350.245 16.2575 350.804C15.795 351.363 15.4636 352.019 15.2876 352.723C15.1117 353.426 15.0956 354.16 15.2406 354.871Z" fill="#E0E0E0"/>
<path d="M15.2423 354.871C15.2423 354.871 15.2144 354.745 15.173 354.492C15.115 354.113 15.1075 353.729 15.1506 353.348C15.2316 352.594 15.4868 351.87 15.896 351.231C16.3052 350.592 16.8574 350.057 17.5089 349.668C17.9663 349.397 18.4634 349.201 18.9821 349.085C19.5608 348.983 20.1493 348.946 20.7362 348.976C21.9596 348.985 23.2967 348.995 24.7476 349.006C27.6503 349.03 31.0011 349.058 34.7783 349.09C49.9012 349.233 71.8512 349.441 99.203 349.7C112.883 349.837 127.912 349.989 144.113 350.152C152.214 350.235 160.601 350.321 169.272 350.41C173.604 350.455 178.003 350.5 182.469 350.547C184.701 350.57 186.949 350.593 189.214 350.617C189.788 350.631 190.327 350.608 190.939 350.659C191.843 350.755 192.705 351.089 193.437 351.626C194.17 352.164 194.746 352.886 195.108 353.718C195.326 354.27 195.483 354.844 195.574 355.43L195.92 357.123C196.15 358.254 196.381 359.389 196.613 360.527C197.077 362.804 197.544 365.095 198.014 367.401C198.954 372.013 199.906 376.682 200.869 381.408C202.793 390.858 204.762 400.522 206.774 410.4C210.792 430.14 214.973 450.677 219.279 471.833L218.981 471.589C227.41 471.588 236.046 471.588 244.826 471.587C249.215 471.587 253.638 471.586 258.094 471.586L261.438 471.586H263.114C263.695 471.559 264.277 471.594 264.85 471.691C265.801 471.894 266.667 472.384 267.332 473.094C267.996 473.804 268.427 474.7 268.566 475.661C268.705 476.623 268.546 477.604 268.11 478.473C267.674 479.342 266.983 480.056 266.128 480.521C265.481 480.866 264.764 481.059 264.031 481.086L261.974 481.094C259.248 481.094 256.529 481.094 253.818 481.094C248.395 481.094 243.006 481.093 237.649 481.093C226.937 481.092 216.371 481.091 205.951 481.089C185.127 481.085 164.948 481.08 145.598 481.075C106.901 481.056 71.52 481.038 40.9275 481.022L40.7345 481.022L40.6962 480.833C32.846 442.131 26.4602 410.649 22.0347 388.831C19.839 377.929 18.1301 369.445 16.9679 363.675C16.3966 360.799 15.9599 358.603 15.6642 357.114C15.3739 355.634 15.2423 354.871 15.2423 354.871C15.2423 354.871 15.42 355.624 15.7327 357.1C16.0436 358.586 16.5024 360.778 17.1028 363.647C18.2936 369.412 20.0444 377.888 22.294 388.778C26.7675 410.586 33.2229 442.055 41.1586 480.739L40.9275 480.551C71.52 480.535 106.901 480.518 145.598 480.498C164.948 480.494 185.127 480.489 205.951 480.484C216.364 480.482 226.929 480.481 237.649 480.48C243.005 480.48 248.394 480.479 253.818 480.479C256.529 480.479 259.248 480.479 261.974 480.479L264.009 480.471C264.647 480.447 265.271 480.279 265.834 479.98C266.579 479.576 267.182 478.954 267.562 478.198C267.942 477.442 268.081 476.587 267.959 475.75C267.838 474.912 267.463 474.132 266.884 473.514C266.306 472.895 265.551 472.469 264.722 472.293C264.191 472.206 263.652 472.175 263.114 472.201L261.438 472.201L258.094 472.201C253.641 472.201 249.218 472.201 244.826 472.201C236.046 472.2 227.41 472.199 218.981 472.198H218.731L218.682 471.954C214.384 450.796 210.212 430.258 206.202 410.515C204.198 400.644 202.236 390.979 200.316 381.52C199.357 376.794 198.41 372.124 197.473 367.511C197.006 365.205 196.541 362.913 196.079 360.636C195.848 359.497 195.617 358.362 195.388 357.231L195.044 355.538C194.96 354.988 194.816 354.45 194.613 353.932C194.29 353.187 193.774 352.54 193.119 352.058C192.464 351.576 191.692 351.276 190.883 351.19C190.363 351.143 189.765 351.163 189.208 351.149C186.944 351.123 184.695 351.097 182.463 351.072C177.999 351.02 173.6 350.97 169.267 350.92C160.603 350.82 152.216 350.724 144.108 350.63C127.907 350.44 112.878 350.264 99.1986 350.103C71.8476 349.766 49.8984 349.495 34.7759 349.309C30.9989 349.258 27.6483 349.213 24.7458 349.173C23.2959 349.153 21.9588 349.134 20.7347 349.116C20.1576 349.082 19.5785 349.113 19.0084 349.209C18.5016 349.318 18.0151 349.506 17.5666 349.765C16.9242 350.143 16.3773 350.663 15.9682 351.285C15.5592 351.908 15.2989 352.616 15.2075 353.355C15.1596 353.86 15.1713 354.369 15.2423 354.871Z" fill="#263238"/>
<path d="M110.609 419.849C114.676 419.849 117.973 416.557 117.973 412.496C117.973 408.436 114.676 405.144 110.609 405.144C106.543 405.144 103.246 408.436 103.246 412.496C103.246 416.557 106.543 419.849 110.609 419.849Z" fill="white"/>
<path d="M15.4512 355.89C15.4512 355.89 15.7114 355.871 16.2193 355.865C16.7487 355.862 17.498 355.858 18.4735 355.852C20.4775 355.855 23.3926 355.858 27.1408 355.863C34.6886 355.899 45.5742 355.952 59.0168 356.017C85.9495 356.207 123.122 356.468 164.179 356.758C169.314 356.799 174.384 356.839 179.389 356.879C180.639 356.889 181.885 356.9 183.125 356.91C183.764 356.885 184.403 356.924 185.034 357.025C185.998 357.221 186.888 357.679 187.606 358.349C188.325 359.02 188.843 359.875 189.104 360.822C189.383 362.053 189.591 363.218 189.836 364.412C191.72 373.897 193.538 383.046 195.27 391.762C198.72 409.192 201.827 424.89 204.438 438.08C207.022 451.254 209.115 461.921 210.565 469.317C211.272 472.991 211.823 475.851 212.201 477.815C212.378 478.773 212.515 479.509 212.611 480.029C212.7 480.528 212.73 480.787 212.73 480.787C212.73 480.787 212.658 480.536 212.549 480.041C212.439 479.524 212.283 478.792 212.079 477.84C211.675 475.88 211.087 473.029 210.33 469.364C208.834 461.977 206.676 451.323 204.01 438.165C201.363 424.982 198.212 409.293 194.713 391.873C192.97 383.159 191.14 374.012 189.243 364.53C189.002 363.355 188.779 362.129 188.519 360.982C188.287 360.144 187.828 359.387 187.191 358.794C186.555 358.201 185.767 357.795 184.914 357.622C184.321 357.53 183.72 357.496 183.121 357.52C181.88 357.511 180.634 357.501 179.384 357.492C174.383 357.453 169.313 357.413 164.174 357.373C123.118 357.013 85.9456 356.688 59.0133 356.452C45.5714 356.305 34.6862 356.185 27.1389 356.102C23.3911 356.048 20.4762 356.005 18.4726 355.976L16.2189 355.928C15.7111 355.913 15.4512 355.89 15.4512 355.89Z" fill="#263238"/>
</svg>
