<svg width="108" height="85" viewBox="0 0 108 85" fill="none" xmlns="http://www.w3.org/2000/svg">
<path d="M10.2085 20.0638C10.6243 19.5853 11.1627 19.2291 11.7658 19.0337C12.3688 18.8382 13.0137 18.8108 13.6312 18.9544L69.7104 32.1692C70.4397 32.3444 71.0931 32.7499 71.5737 33.3257C72.0543 33.9015 72.3364 34.6169 72.3783 35.3658C72.4202 36.1146 72.2196 36.857 71.8062 37.4828C71.3928 38.1086 70.7887 38.5845 70.0835 38.8399L56.0893 43.8205L58.6489 61.5989C58.7563 62.2825 58.6543 62.9827 58.3564 63.6073C58.0585 64.2319 57.5787 64.7518 56.9798 65.0986C56.5743 65.3318 56.1281 65.4857 55.665 65.5522C55.2157 65.6174 54.7579 65.5927 54.3182 65.4796C53.8785 65.3665 53.4657 65.1672 53.1036 64.8932L43.6915 57.8502L33.0881 70.2709C32.5471 70.9237 31.78 71.3486 30.9397 71.4611C30.5779 71.5123 30.2103 71.5057 29.8505 71.4418C29.2582 71.3376 28.7024 71.0833 28.2364 70.7032C27.7704 70.323 27.4097 69.8297 27.1887 69.2703L9.57118 23.5911C9.34176 23.0016 9.27988 22.3601 9.39236 21.7376C9.50484 21.1151 9.7873 20.5358 10.2085 20.0638ZM70.0717 35.4941C70.07 35.2398 69.9806 34.9939 69.8186 34.7979C69.6567 34.6019 69.432 34.4678 69.1826 34.4182L17.7575 22.3244L54.8827 41.7625L69.3002 36.6623C69.541 36.5821 69.7479 36.4233 69.8878 36.2115C70.0277 35.9997 70.0924 35.7471 70.0717 35.4941ZM54.5073 63.0174C54.687 63.1573 54.9046 63.2399 55.1319 63.2543C55.3592 63.2687 55.5856 63.2143 55.7816 63.0982C55.9813 62.9819 56.1419 62.8086 56.2427 62.6006C56.3435 62.3925 56.38 62.1591 56.3475 61.9303L54.0156 45.734L45.198 56.0771L54.5073 63.0174ZM11.7446 22.779L29.3581 68.4295C29.4294 68.619 29.5502 68.786 29.7079 68.9131C29.8656 69.0401 30.0545 69.1226 30.2549 69.1519C30.4501 69.1919 30.6527 69.1768 30.8398 69.1084C31.027 69.0399 31.1915 68.9208 31.3149 68.7644L52.9732 43.3882L11.7806 21.8048C11.7062 21.9555 11.6646 22.1202 11.6584 22.2881C11.6522 22.456 11.6816 22.6233 11.7446 22.779Z" fill="#EEEEEE"/>
<path d="M69.3708 33.341C54.6533 46.2416 28.8177 72.6366 43.215 75.0115C61.2116 77.9802 86.9035 45.018 98.1909 49.7018C107.221 53.4489 105.546 66.3171 103.58 72.2829" stroke="#EBEBEB" stroke-width="2" stroke-dasharray="12 12"/>
</svg>
